<svg width="42" height="34" viewBox="0 0 42 34" fill="none" xmlns="http://www.w3.org/2000/svg">
<path d="M42.0004 31.4307H40.1874V33.2437H42.0004V31.4307Z" fill="#47409A"/>
<path d="M42.0004 29.6178H40.1874V31.4309H42.0004V29.6178Z" fill="#47409A"/>
<path d="M42.0004 27.8046H40.1874V29.6176H42.0004V27.8046Z" fill="#47409A"/>
<path d="M42.0004 25.9916H40.1874V27.8046H42.0004V25.9916Z" fill="#47409A"/>
<path d="M42.0004 24.1786H40.1874V25.9916H42.0004V24.1786Z" fill="#47409A"/>
<path d="M42.0004 22.3656H40.1874V24.1787H42.0004V22.3656Z" fill="#47409A"/>
<path d="M42.0004 20.5524H40.1874V22.3654H42.0004V20.5524Z" fill="#47409A"/>
<path d="M42.0004 18.7394H40.1874V20.5524H42.0004V18.7394Z" fill="#47409A"/>
<path d="M42.0004 16.9263H40.1874V18.7393H42.0004V16.9263Z" fill="#47409A"/>
<path d="M42.0004 15.1132H40.1874V16.9262H42.0004V15.1132Z" fill="#47409A"/>
<path d="M42.0004 13.3003H40.1874V15.1134H42.0004V13.3003Z" fill="#47409A"/>
<path d="M42.0004 11.4871H40.1874V13.3001H42.0004V11.4871Z" fill="#47409A"/>
<path d="M42.0004 9.67419H40.1874V11.4873H42.0004V9.67419Z" fill="#47409A"/>
<path d="M42.0004 7.86108H40.1874V9.67414H42.0004V7.86108Z" fill="#47409A"/>
<path d="M42.0004 6.04785H40.1874V7.86091H42.0004V6.04785Z" fill="#47409A"/>
<path d="M42.0004 4.23486H40.1874V6.04792H42.0004V4.23486Z" fill="#47409A"/>
<path d="M42.0004 2.42188H40.1874V4.23494H42.0004V2.42188Z" fill="#47409A"/>
<path d="M40.1873 31.4307H38.3743V33.2437H40.1873V31.4307Z" fill="#47409A"/>
<path d="M40.1873 29.6178H38.3743V31.4309H40.1873V29.6178Z" fill="#FF3E51"/>
<path d="M40.1873 27.8046H38.3743V29.6176H40.1873V27.8046Z" fill="#47409A"/>
<path d="M40.1873 25.9916H38.3743V27.8046H40.1873V25.9916Z" fill="#FFF3C0"/>
<path d="M40.1873 24.1786H38.3743V25.9916H40.1873V24.1786Z" fill="#FFF3C0"/>
<path d="M40.1873 22.3656H38.3743V24.1787H40.1873V22.3656Z" fill="#FFF3C0"/>
<path d="M40.1873 20.5524H38.3743V22.3654H40.1873V20.5524Z" fill="#FFF3C0"/>
<path d="M40.1873 18.7394H38.3743V20.5524H40.1873V18.7394Z" fill="#FFF3C0"/>
<path d="M40.1873 16.9263H38.3743V18.7393H40.1873V16.9263Z" fill="#FFF3C0"/>
<path d="M40.1873 15.1132H38.3743V16.9262H40.1873V15.1132Z" fill="#FFF3C0"/>
<path d="M40.1873 13.3003H38.3743V15.1134H40.1873V13.3003Z" fill="#FFF3C0"/>
<path d="M40.1873 11.4871H38.3743V13.3001H40.1873V11.4871Z" fill="#FFF3C0"/>
<path d="M40.1873 9.67419H38.3743V11.4873H40.1873V9.67419Z" fill="#FFF3C0"/>
<path d="M40.1873 7.86108H38.3743V9.67414H40.1873V7.86108Z" fill="#FFF3C0"/>
<path d="M40.1873 6.04785H38.3743V7.86091H40.1873V6.04785Z" fill="#FFF3C0"/>
<path d="M40.1873 4.23486H38.3743V6.04792H40.1873V4.23486Z" fill="#FFF3C0"/>
<path d="M40.1873 2.42188H38.3743V4.23494H40.1873V2.42188Z" fill="#FFF3C0"/>
<path d="M40.1873 0.608765H38.3743V2.42182H40.1873V0.608765Z" fill="#47409A"/>
<path d="M38.3742 29.6178H36.5612V31.4309H38.3742V29.6178Z" fill="#47409A"/>
<path d="M38.3742 27.8046H36.5612V29.6176H38.3742V27.8046Z" fill="#FF3E51"/>
<path d="M38.3742 25.9916H36.5612V27.8046H38.3742V25.9916Z" fill="#47409A"/>
<path d="M38.3742 24.1786H36.5612V25.9916H38.3742V24.1786Z" fill="#FFF3C0"/>
<path d="M38.3742 22.3656H36.5612V24.1787H38.3742V22.3656Z" fill="#FFF3C0"/>
<path d="M38.3742 20.5524H36.5612V22.3654H38.3742V20.5524Z" fill="#FFF3C0"/>
<path d="M38.3742 18.7394H36.5612V20.5524H38.3742V18.7394Z" fill="#FFF3C0"/>
<path d="M38.3742 16.9263H36.5612V18.7393H38.3742V16.9263Z" fill="#FFF3C0"/>
<path d="M38.3742 15.1132H36.5612V16.9262H38.3742V15.1132Z" fill="#FFF3C0"/>
<path d="M38.3742 13.3003H36.5612V15.1134H38.3742V13.3003Z" fill="#FFF3C0"/>
<path d="M38.3742 11.4871H36.5612V13.3001H38.3742V11.4871Z" fill="#FFF3C0"/>
<path d="M38.3742 9.67419H36.5612V11.4873H38.3742V9.67419Z" fill="#FFF3C0"/>
<path d="M38.3742 7.86108H36.5612V9.67414H38.3742V7.86108Z" fill="#FFF3C0"/>
<path d="M38.3742 6.04785H36.5612V7.86091H38.3742V6.04785Z" fill="#FFF3C0"/>
<path d="M38.3742 4.23486H36.5612V6.04792H38.3742V4.23486Z" fill="#FFF3C0"/>
<path d="M38.3742 2.42188H36.5612V4.23494H38.3742V2.42188Z" fill="#FFF3C0"/>
<path d="M38.3742 0.608765H36.5612V2.42182H38.3742V0.608765Z" fill="#47409A"/>
<path d="M36.5612 29.6178H34.7482V31.4309H36.5612V29.6178Z" fill="#47409A"/>
<path d="M36.5612 27.8046H34.7482V29.6176H36.5612V27.8046Z" fill="#FF3E51"/>
<path d="M36.5612 25.9916H34.7482V27.8046H36.5612V25.9916Z" fill="#47409A"/>
<path d="M36.5612 24.1786H34.7482V25.9916H36.5612V24.1786Z" fill="#FFF3C0"/>
<path d="M36.5612 22.3656H34.7482V24.1787H36.5612V22.3656Z" fill="#FFF3C0"/>
<path d="M36.5612 20.5524H34.7482V22.3654H36.5612V20.5524Z" fill="#47409A"/>
<path d="M36.5612 18.7394H34.7482V20.5524H36.5612V18.7394Z" fill="#FFF3C0"/>
<path d="M36.5612 16.9263H34.7482V18.7393H36.5612V16.9263Z" fill="#47409A"/>
<path d="M36.5612 15.1132H34.7482V16.9262H36.5612V15.1132Z" fill="#FFF3C0"/>
<path d="M36.5612 13.3003H34.7482V15.1134H36.5612V13.3003Z" fill="#47409A"/>
<path d="M36.5612 11.4871H34.7482V13.3001H36.5612V11.4871Z" fill="#FFF3C0"/>
<path d="M36.5612 9.67419H34.7482V11.4873H36.5612V9.67419Z" fill="#47409A"/>
<path d="M36.5612 7.86108H34.7482V9.67414H36.5612V7.86108Z" fill="#FFF3C0"/>
<path d="M36.5612 6.04785H34.7482V7.86091H36.5612V6.04785Z" fill="#47409A"/>
<path d="M36.5612 4.23486H34.7482V6.04792H36.5612V4.23486Z" fill="#FFF3C0"/>
<path d="M36.5612 2.42188H34.7482V4.23494H36.5612V2.42188Z" fill="#FFF3C0"/>
<path d="M36.5612 0.608765H34.7482V2.42182H36.5612V0.608765Z" fill="#47409A"/>
<path d="M34.7481 29.6178H32.9351V31.4309H34.7481V29.6178Z" fill="#47409A"/>
<path d="M34.7481 27.8046H32.9351V29.6176H34.7481V27.8046Z" fill="#FF3E51"/>
<path d="M34.7481 25.9916H32.9351V27.8046H34.7481V25.9916Z" fill="#47409A"/>
<path d="M34.7481 24.1786H32.9351V25.9916H34.7481V24.1786Z" fill="#FFF3C0"/>
<path d="M34.7481 22.3656H32.9351V24.1787H34.7481V22.3656Z" fill="#FFF3C0"/>
<path d="M34.7481 20.5524H32.9351V22.3654H34.7481V20.5524Z" fill="#47409A"/>
<path d="M34.7481 18.7394H32.9351V20.5524H34.7481V18.7394Z" fill="#FFF3C0"/>
<path d="M34.7481 16.9263H32.9351V18.7393H34.7481V16.9263Z" fill="#47409A"/>
<path d="M34.7481 15.1132H32.9351V16.9262H34.7481V15.1132Z" fill="#FFF3C0"/>
<path d="M34.7481 13.3003H32.9351V15.1134H34.7481V13.3003Z" fill="#47409A"/>
<path d="M34.7481 11.4871H32.9351V13.3001H34.7481V11.4871Z" fill="#FFF3C0"/>
<path d="M34.7481 9.67419H32.9351V11.4873H34.7481V9.67419Z" fill="#47409A"/>
<path d="M34.7481 7.86108H32.9351V9.67414H34.7481V7.86108Z" fill="#FFF3C0"/>
<path d="M34.7481 6.04785H32.9351V7.86091H34.7481V6.04785Z" fill="#47409A"/>
<path d="M34.7481 4.23486H32.9351V6.04792H34.7481V4.23486Z" fill="#FFF3C0"/>
<path d="M34.7481 2.42188H32.9351V4.23494H34.7481V2.42188Z" fill="#FFF3C0"/>
<path d="M34.7481 0.608765H32.9351V2.42182H34.7481V0.608765Z" fill="#47409A"/>
<path d="M32.935 29.6178H31.1219V31.4309H32.935V29.6178Z" fill="#47409A"/>
<path d="M32.935 27.8046H31.1219V29.6176H32.935V27.8046Z" fill="#FF3E51"/>
<path d="M32.935 25.9916H31.1219V27.8046H32.935V25.9916Z" fill="#47409A"/>
<path d="M32.935 24.1786H31.1219V25.9916H32.935V24.1786Z" fill="#FFF3C0"/>
<path d="M32.935 22.3656H31.1219V24.1787H32.935V22.3656Z" fill="#FFF3C0"/>
<path d="M32.935 20.5524H31.1219V22.3654H32.935V20.5524Z" fill="#47409A"/>
<path d="M32.935 18.7394H31.1219V20.5524H32.935V18.7394Z" fill="#FFF3C0"/>
<path d="M32.935 16.9263H31.1219V18.7393H32.935V16.9263Z" fill="#47409A"/>
<path d="M32.935 15.1132H31.1219V16.9262H32.935V15.1132Z" fill="#FFF3C0"/>
<path d="M32.935 13.3003H31.1219V15.1134H32.935V13.3003Z" fill="#47409A"/>
<path d="M32.935 11.4871H31.1219V13.3001H32.935V11.4871Z" fill="#FFF3C0"/>
<path d="M32.935 9.67419H31.1219V11.4873H32.935V9.67419Z" fill="#47409A"/>
<path d="M32.935 7.86108H31.1219V9.67414H32.935V7.86108Z" fill="#FFF3C0"/>
<path d="M32.935 6.04785H31.1219V7.86091H32.935V6.04785Z" fill="#47409A"/>
<path d="M32.935 4.23486H31.1219V6.04792H32.935V4.23486Z" fill="#FFF3C0"/>
<path d="M32.935 2.42188H31.1219V4.23494H32.935V2.42188Z" fill="#FFF3C0"/>
<path d="M32.935 0.608765H31.1219V2.42182H32.935V0.608765Z" fill="#47409A"/>
<path d="M31.1223 29.6178H29.3092V31.4309H31.1223V29.6178Z" fill="#47409A"/>
<path d="M31.1223 27.8046H29.3092V29.6176H31.1223V27.8046Z" fill="#FF3E51"/>
<path d="M31.1223 25.9916H29.3092V27.8046H31.1223V25.9916Z" fill="#47409A"/>
<path d="M31.1223 24.1786H29.3092V25.9916H31.1223V24.1786Z" fill="#FFF3C0"/>
<path d="M31.1223 22.3656H29.3092V24.1787H31.1223V22.3656Z" fill="#FFF3C0"/>
<path d="M31.1223 20.5524H29.3092V22.3654H31.1223V20.5524Z" fill="#47409A"/>
<path d="M31.1223 18.7394H29.3092V20.5524H31.1223V18.7394Z" fill="#FFF3C0"/>
<path d="M31.1223 16.9263H29.3092V18.7393H31.1223V16.9263Z" fill="#47409A"/>
<path d="M31.1223 15.1132H29.3092V16.9262H31.1223V15.1132Z" fill="#FFF3C0"/>
<path d="M31.1223 13.3003H29.3092V15.1134H31.1223V13.3003Z" fill="#47409A"/>
<path d="M31.1223 11.4871H29.3092V13.3001H31.1223V11.4871Z" fill="#FFF3C0"/>
<path d="M31.1223 9.67419H29.3092V11.4873H31.1223V9.67419Z" fill="#47409A"/>
<path d="M31.1223 7.86108H29.3092V9.67414H31.1223V7.86108Z" fill="#FFF3C0"/>
<path d="M31.1223 6.04785H29.3092V7.86091H31.1223V6.04785Z" fill="#47409A"/>
<path d="M31.1223 4.23486H29.3092V6.04792H31.1223V4.23486Z" fill="#FFF3C0"/>
<path d="M31.1223 2.42188H29.3092V4.23494H31.1223V2.42188Z" fill="#FFF3C0"/>
<path d="M31.1223 0.608765H29.3092V2.42182H31.1223V0.608765Z" fill="#47409A"/>
<path d="M29.3089 29.6178H27.4958V31.4309H29.3089V29.6178Z" fill="#47409A"/>
<path d="M29.3089 27.8046H27.4958V29.6176H29.3089V27.8046Z" fill="#FF3E51"/>
<path d="M29.3089 25.9916H27.4958V27.8046H29.3089V25.9916Z" fill="#47409A"/>
<path d="M29.3089 24.1786H27.4958V25.9916H29.3089V24.1786Z" fill="#FFF3C0"/>
<path d="M29.3089 22.3656H27.4958V24.1787H29.3089V22.3656Z" fill="#FFF3C0"/>
<path d="M29.3089 20.5524H27.4958V22.3654H29.3089V20.5524Z" fill="#47409A"/>
<path d="M29.3089 18.7394H27.4958V20.5524H29.3089V18.7394Z" fill="#FFF3C0"/>
<path d="M29.3089 16.9263H27.4958V18.7393H29.3089V16.9263Z" fill="#47409A"/>
<path d="M29.3089 15.1132H27.4958V16.9262H29.3089V15.1132Z" fill="#FFF3C0"/>
<path d="M29.3089 13.3003H27.4958V15.1134H29.3089V13.3003Z" fill="#47409A"/>
<path d="M29.3089 11.4871H27.4958V13.3001H29.3089V11.4871Z" fill="#FFF3C0"/>
<path d="M29.3089 9.67419H27.4958V11.4873H29.3089V9.67419Z" fill="#47409A"/>
<path d="M29.3089 7.86108H27.4958V9.67414H29.3089V7.86108Z" fill="#FFF3C0"/>
<path d="M29.3089 6.04785H27.4958V7.86091H29.3089V6.04785Z" fill="#47409A"/>
<path d="M29.3089 4.23486H27.4958V6.04792H29.3089V4.23486Z" fill="#FFF3C0"/>
<path d="M29.3089 2.42188H27.4958V4.23494H29.3089V2.42188Z" fill="#FFF3C0"/>
<path d="M29.3089 0.608765H27.4958V2.42182H29.3089V0.608765Z" fill="#47409A"/>
<path d="M27.4958 29.6178H25.6827V31.4309H27.4958V29.6178Z" fill="#47409A"/>
<path d="M27.4958 27.8046H25.6827V29.6176H27.4958V27.8046Z" fill="#FF3E51"/>
<path d="M27.4958 25.9916H25.6827V27.8046H27.4958V25.9916Z" fill="#47409A"/>
<path d="M27.4958 24.1786H25.6827V25.9916H27.4958V24.1786Z" fill="#FFF3C0"/>
<path d="M27.4958 22.3656H25.6827V24.1787H27.4958V22.3656Z" fill="#FFF3C0"/>
<path d="M27.4958 20.5524H25.6827V22.3654H27.4958V20.5524Z" fill="#47409A"/>
<path d="M27.4958 18.7394H25.6827V20.5524H27.4958V18.7394Z" fill="#FFF3C0"/>
<path d="M27.4958 16.9263H25.6827V18.7393H27.4958V16.9263Z" fill="#47409A"/>
<path d="M27.4958 15.1132H25.6827V16.9262H27.4958V15.1132Z" fill="#FFF3C0"/>
<path d="M27.4958 13.3003H25.6827V15.1134H27.4958V13.3003Z" fill="#47409A"/>
<path d="M27.4958 11.4871H25.6827V13.3001H27.4958V11.4871Z" fill="#FFF3C0"/>
<path d="M27.4958 9.67419H25.6827V11.4873H27.4958V9.67419Z" fill="#47409A"/>
<path d="M27.4958 7.86108H25.6827V9.67414H27.4958V7.86108Z" fill="#FFF3C0"/>
<path d="M27.4958 6.04785H25.6827V7.86091H27.4958V6.04785Z" fill="#47409A"/>
<path d="M27.4958 4.23486H25.6827V6.04792H27.4958V4.23486Z" fill="#FFF3C0"/>
<path d="M27.4958 2.42188H25.6827V4.23494H27.4958V2.42188Z" fill="#FFF3C0"/>
<path d="M27.4958 0.608765H25.6827V2.42182H27.4958V0.608765Z" fill="#47409A"/>
<path d="M25.6827 29.6178H23.8696V31.4309H25.6827V29.6178Z" fill="#47409A"/>
<path d="M25.6827 27.8046H23.8696V29.6176H25.6827V27.8046Z" fill="#FF3E51"/>
<path d="M25.6827 25.9916H23.8696V27.8046H25.6827V25.9916Z" fill="#47409A"/>
<path d="M25.6827 24.1786H23.8696V25.9916H25.6827V24.1786Z" fill="#FFF3C0"/>
<path d="M25.6827 22.3656H23.8696V24.1787H25.6827V22.3656Z" fill="#FFF3C0"/>
<path d="M25.6827 20.5524H23.8696V22.3654H25.6827V20.5524Z" fill="#FFF3C0"/>
<path d="M25.6827 18.7394H23.8696V20.5524H25.6827V18.7394Z" fill="#FFF3C0"/>
<path d="M25.6827 16.9263H23.8696V18.7393H25.6827V16.9263Z" fill="#FFF3C0"/>
<path d="M25.6827 15.1132H23.8696V16.9262H25.6827V15.1132Z" fill="#FFF3C0"/>
<path d="M25.6827 13.3003H23.8696V15.1134H25.6827V13.3003Z" fill="#FFF3C0"/>
<path d="M25.6827 11.4871H23.8696V13.3001H25.6827V11.4871Z" fill="#FFF3C0"/>
<path d="M25.6827 9.67419H23.8696V11.4873H25.6827V9.67419Z" fill="#FFF3C0"/>
<path d="M25.6827 7.86108H23.8696V9.67414H25.6827V7.86108Z" fill="#FFF3C0"/>
<path d="M25.6827 6.04785H23.8696V7.86091H25.6827V6.04785Z" fill="#FFF3C0"/>
<path d="M25.6827 4.23486H23.8696V6.04792H25.6827V4.23486Z" fill="#FFF3C0"/>
<path d="M25.6827 2.42188H23.8696V4.23494H25.6827V2.42188Z" fill="#FFF3C0"/>
<path d="M25.6827 0.608765H23.8696V2.42182H25.6827V0.608765Z" fill="#47409A"/>
<path d="M23.8699 31.4307H22.0569V33.2437H23.8699V31.4307Z" fill="#47409A"/>
<path d="M23.8699 29.6178H22.0569V31.4309H23.8699V29.6178Z" fill="#FF3E51"/>
<path d="M23.8699 27.8046H22.0569V29.6176H23.8699V27.8046Z" fill="#47409A"/>
<path d="M23.8699 25.9916H22.0569V27.8046H23.8699V25.9916Z" fill="#FFF3C0"/>
<path d="M23.8699 24.1786H22.0569V25.9916H23.8699V24.1786Z" fill="#FFF3C0"/>
<path d="M23.8699 22.3656H22.0569V24.1787H23.8699V22.3656Z" fill="#FFF3C0"/>
<path d="M23.8699 20.5524H22.0569V22.3654H23.8699V20.5524Z" fill="#FFF3C0"/>
<path d="M23.8699 18.7394H22.0569V20.5524H23.8699V18.7394Z" fill="#FFF3C0"/>
<path d="M23.8699 16.9263H22.0569V18.7393H23.8699V16.9263Z" fill="#FFF3C0"/>
<path d="M23.8699 15.1132H22.0569V16.9262H23.8699V15.1132Z" fill="#FFF3C0"/>
<path d="M23.8699 13.3003H22.0569V15.1134H23.8699V13.3003Z" fill="#FFF3C0"/>
<path d="M23.8699 11.4871H22.0569V13.3001H23.8699V11.4871Z" fill="#FFF3C0"/>
<path d="M23.8699 9.67419H22.0569V11.4873H23.8699V9.67419Z" fill="#FFF3C0"/>
<path d="M23.8699 7.86108H22.0569V9.67414H23.8699V7.86108Z" fill="#FFF3C0"/>
<path d="M23.8699 6.04785H22.0569V7.86091H23.8699V6.04785Z" fill="#FFF3C0"/>
<path d="M23.8699 4.23486H22.0569V6.04792H23.8699V4.23486Z" fill="#FFF3C0"/>
<path d="M23.8699 2.42188H22.0569V4.23494H23.8699V2.42188Z" fill="#47409A"/>
<path d="M22.057 31.4307H20.2439V33.2437H22.057V31.4307Z" fill="#47409A"/>
<path d="M22.057 29.6178H20.2439V31.4309H22.057V29.6178Z" fill="#47409A"/>
<path d="M22.057 27.8046H20.2439V29.6176H22.057V27.8046Z" fill="#47409A"/>
<path d="M22.057 25.9916H20.2439V27.8046H22.057V25.9916Z" fill="#47409A"/>
<path d="M22.057 24.1786H20.2439V25.9916H22.057V24.1786Z" fill="#47409A"/>
<path d="M22.057 22.3656H20.2439V24.1787H22.057V22.3656Z" fill="#47409A"/>
<path d="M22.057 20.5524H20.2439V22.3654H22.057V20.5524Z" fill="#47409A"/>
<path d="M22.057 18.7394H20.2439V20.5524H22.057V18.7394Z" fill="#47409A"/>
<path d="M22.057 16.9263H20.2439V18.7393H22.057V16.9263Z" fill="#47409A"/>
<path d="M22.057 15.1132H20.2439V16.9262H22.057V15.1132Z" fill="#47409A"/>
<path d="M22.057 13.3003H20.2439V15.1134H22.057V13.3003Z" fill="#47409A"/>
<path d="M22.057 11.4871H20.2439V13.3001H22.057V11.4871Z" fill="#47409A"/>
<path d="M22.057 9.67419H20.2439V11.4873H22.057V9.67419Z" fill="#47409A"/>
<path d="M22.057 7.86108H20.2439V9.67414H22.057V7.86108Z" fill="#47409A"/>
<path d="M22.057 6.04785H20.2439V7.86091H22.057V6.04785Z" fill="#47409A"/>
<path d="M22.057 4.23486H20.2439V6.04792H22.057V4.23486Z" fill="#47409A"/>
<path d="M20.2438 31.4307H18.4308V33.2437H20.2438V31.4307Z" fill="#47409A"/>
<path d="M20.2438 29.6178H18.4308V31.4309H20.2438V29.6178Z" fill="#FF3E51"/>
<path d="M20.2438 27.8046H18.4308V29.6176H20.2438V27.8046Z" fill="#47409A"/>
<path d="M20.2438 25.9916H18.4308V27.8046H20.2438V25.9916Z" fill="#FFF3C0"/>
<path d="M20.2438 24.1786H18.4308V25.9916H20.2438V24.1786Z" fill="#FFF3C0"/>
<path d="M20.2438 22.3656H18.4308V24.1787H20.2438V22.3656Z" fill="#FFF3C0"/>
<path d="M20.2438 20.5524H18.4308V22.3654H20.2438V20.5524Z" fill="#FFF3C0"/>
<path d="M20.2438 18.7394H18.4308V20.5524H20.2438V18.7394Z" fill="#FFF3C0"/>
<path d="M20.2438 16.9263H18.4308V18.7393H20.2438V16.9263Z" fill="#FFF3C0"/>
<path d="M20.2438 15.1132H18.4308V16.9262H20.2438V15.1132Z" fill="#FFF3C0"/>
<path d="M20.2438 13.3003H18.4308V15.1134H20.2438V13.3003Z" fill="#FFF3C0"/>
<path d="M20.2438 11.4871H18.4308V13.3001H20.2438V11.4871Z" fill="#FFF3C0"/>
<path d="M20.2438 9.67419H18.4308V11.4873H20.2438V9.67419Z" fill="#FFF3C0"/>
<path d="M20.2438 7.86108H18.4308V9.67414H20.2438V7.86108Z" fill="#FFF3C0"/>
<path d="M20.2438 6.04785H18.4308V7.86091H20.2438V6.04785Z" fill="#FFF3C0"/>
<path d="M20.2438 4.23486H18.4308V6.04792H20.2438V4.23486Z" fill="#FFF3C0"/>
<path d="M20.2438 2.42188H18.4308V4.23494H20.2438V2.42188Z" fill="#47409A"/>
<path d="M18.4307 29.6178H16.6177V31.4309H18.4307V29.6178Z" fill="#47409A"/>
<path d="M18.4307 27.8046H16.6177V29.6176H18.4307V27.8046Z" fill="#FF3E51"/>
<path d="M18.4307 25.9916H16.6177V27.8046H18.4307V25.9916Z" fill="#47409A"/>
<path d="M18.4307 24.1786H16.6177V25.9916H18.4307V24.1786Z" fill="#FFF3C0"/>
<path d="M18.4307 22.3656H16.6177V24.1787H18.4307V22.3656Z" fill="#FFF3C0"/>
<path d="M18.4307 20.5524H16.6177V22.3654H18.4307V20.5524Z" fill="#FFF3C0"/>
<path d="M18.4307 18.7394H16.6177V20.5524H18.4307V18.7394Z" fill="#FFF3C0"/>
<path d="M18.4307 16.9263H16.6177V18.7393H18.4307V16.9263Z" fill="#FFF3C0"/>
<path d="M18.4307 15.1132H16.6177V16.9262H18.4307V15.1132Z" fill="#FFF3C0"/>
<path d="M18.4307 13.3003H16.6177V15.1134H18.4307V13.3003Z" fill="#FFF3C0"/>
<path d="M18.4307 11.4871H16.6177V13.3001H18.4307V11.4871Z" fill="#FFF3C0"/>
<path d="M18.4307 9.67419H16.6177V11.4873H18.4307V9.67419Z" fill="#FFF3C0"/>
<path d="M18.4307 7.86108H16.6177V9.67414H18.4307V7.86108Z" fill="#FFF3C0"/>
<path d="M18.4307 6.04785H16.6177V7.86091H18.4307V6.04785Z" fill="#FFF3C0"/>
<path d="M18.4307 4.23486H16.6177V6.04792H18.4307V4.23486Z" fill="#FFF3C0"/>
<path d="M18.4307 2.42188H16.6177V4.23494H18.4307V2.42188Z" fill="#FFF3C0"/>
<path d="M18.4307 0.608765H16.6177V2.42182H18.4307V0.608765Z" fill="#47409A"/>
<path d="M16.6177 29.6178H14.8047V31.4309H16.6177V29.6178Z" fill="#47409A"/>
<path d="M16.6177 27.8046H14.8047V29.6176H16.6177V27.8046Z" fill="#FF3E51"/>
<path d="M16.6177 25.9916H14.8047V27.8046H16.6177V25.9916Z" fill="#47409A"/>
<path d="M16.6177 24.1786H14.8047V25.9916H16.6177V24.1786Z" fill="#FFF3C0"/>
<path d="M16.6177 22.3656H14.8047V24.1787H16.6177V22.3656Z" fill="#FFF3C0"/>
<path d="M16.6177 20.5524H14.8047V22.3654H16.6177V20.5524Z" fill="#47409A"/>
<path d="M16.6177 18.7394H14.8047V20.5524H16.6177V18.7394Z" fill="#FFF3C0"/>
<path d="M16.6177 16.9263H14.8047V18.7393H16.6177V16.9263Z" fill="#47409A"/>
<path d="M16.6177 15.1132H14.8047V16.9262H16.6177V15.1132Z" fill="#FFF3C0"/>
<path d="M16.6177 13.3003H14.8047V15.1134H16.6177V13.3003Z" fill="#47409A"/>
<path d="M16.6177 11.4871H14.8047V13.3001H16.6177V11.4871Z" fill="#FFF3C0"/>
<path d="M16.6177 9.67419H14.8047V11.4873H16.6177V9.67419Z" fill="#47409A"/>
<path d="M16.6177 7.86108H14.8047V9.67414H16.6177V7.86108Z" fill="#FFF3C0"/>
<path d="M16.6177 6.04785H14.8047V7.86091H16.6177V6.04785Z" fill="#47409A"/>
<path d="M16.6177 4.23486H14.8047V6.04792H16.6177V4.23486Z" fill="#FFF3C0"/>
<path d="M16.6177 2.42188H14.8047V4.23494H16.6177V2.42188Z" fill="#FFF3C0"/>
<path d="M16.6177 0.608765H14.8047V2.42182H16.6177V0.608765Z" fill="#47409A"/>
<path d="M14.8046 29.6178H12.9916V31.4309H14.8046V29.6178Z" fill="#47409A"/>
<path d="M14.8046 27.8046H12.9916V29.6176H14.8046V27.8046Z" fill="#FF3E51"/>
<path d="M14.8046 25.9916H12.9916V27.8046H14.8046V25.9916Z" fill="#47409A"/>
<path d="M14.8046 24.1786H12.9916V25.9916H14.8046V24.1786Z" fill="#FFF3C0"/>
<path d="M14.8046 22.3656H12.9916V24.1787H14.8046V22.3656Z" fill="#FFF3C0"/>
<path d="M14.8046 20.5524H12.9916V22.3654H14.8046V20.5524Z" fill="#47409A"/>
<path d="M14.8046 18.7394H12.9916V20.5524H14.8046V18.7394Z" fill="#FFF3C0"/>
<path d="M14.8046 16.9263H12.9916V18.7393H14.8046V16.9263Z" fill="#47409A"/>
<path d="M14.8046 15.1132H12.9916V16.9262H14.8046V15.1132Z" fill="#FFF3C0"/>
<path d="M14.8046 13.3003H12.9916V15.1134H14.8046V13.3003Z" fill="#47409A"/>
<path d="M14.8046 11.4871H12.9916V13.3001H14.8046V11.4871Z" fill="#FFF3C0"/>
<path d="M14.8046 9.67419H12.9916V11.4873H14.8046V9.67419Z" fill="#47409A"/>
<path d="M14.8046 7.86108H12.9916V9.67414H14.8046V7.86108Z" fill="#FFF3C0"/>
<path d="M14.8046 6.04785H12.9916V7.86091H14.8046V6.04785Z" fill="#47409A"/>
<path d="M14.8046 4.23486H12.9916V6.04792H14.8046V4.23486Z" fill="#FFF3C0"/>
<path d="M14.8046 2.42188H12.9916V4.23494H14.8046V2.42188Z" fill="#FFF3C0"/>
<path d="M14.8046 0.608765H12.9916V2.42182H14.8046V0.608765Z" fill="#47409A"/>
<path d="M12.9912 29.6178H11.1781V31.4309H12.9912V29.6178Z" fill="#47409A"/>
<path d="M12.9912 27.8046H11.1781V29.6176H12.9912V27.8046Z" fill="#FF3E51"/>
<path d="M12.9912 25.9916H11.1781V27.8046H12.9912V25.9916Z" fill="#47409A"/>
<path d="M12.9912 24.1786H11.1781V25.9916H12.9912V24.1786Z" fill="#FFF3C0"/>
<path d="M12.9912 22.3656H11.1781V24.1787H12.9912V22.3656Z" fill="#FFF3C0"/>
<path d="M12.9912 20.5524H11.1781V22.3654H12.9912V20.5524Z" fill="#47409A"/>
<path d="M12.9912 18.7394H11.1781V20.5524H12.9912V18.7394Z" fill="#FFF3C0"/>
<path d="M12.9912 16.9263H11.1781V18.7393H12.9912V16.9263Z" fill="#47409A"/>
<path d="M12.9912 15.1132H11.1781V16.9262H12.9912V15.1132Z" fill="#FFF3C0"/>
<path d="M12.9912 13.3003H11.1781V15.1134H12.9912V13.3003Z" fill="#47409A"/>
<path d="M12.9912 11.4871H11.1781V13.3001H12.9912V11.4871Z" fill="#FFF3C0"/>
<path d="M12.9912 9.67419H11.1781V11.4873H12.9912V9.67419Z" fill="#47409A"/>
<path d="M12.9912 7.86108H11.1781V9.67414H12.9912V7.86108Z" fill="#FFF3C0"/>
<path d="M12.9912 6.04785H11.1781V7.86091H12.9912V6.04785Z" fill="#47409A"/>
<path d="M12.9912 4.23486H11.1781V6.04792H12.9912V4.23486Z" fill="#FFF3C0"/>
<path d="M12.9912 2.42188H11.1781V4.23494H12.9912V2.42188Z" fill="#FFF3C0"/>
<path d="M12.9912 0.608765H11.1781V2.42182H12.9912V0.608765Z" fill="#47409A"/>
<path d="M11.1785 29.6178H9.36548V31.4309H11.1785V29.6178Z" fill="#47409A"/>
<path d="M11.1785 27.8046H9.36548V29.6176H11.1785V27.8046Z" fill="#FF3E51"/>
<path d="M11.1785 25.9916H9.36548V27.8046H11.1785V25.9916Z" fill="#47409A"/>
<path d="M11.1785 24.1786H9.36548V25.9916H11.1785V24.1786Z" fill="#FFF3C0"/>
<path d="M11.1785 22.3656H9.36548V24.1787H11.1785V22.3656Z" fill="#FFF3C0"/>
<path d="M11.1785 20.5524H9.36548V22.3654H11.1785V20.5524Z" fill="#47409A"/>
<path d="M11.1785 18.7394H9.36548V20.5524H11.1785V18.7394Z" fill="#FFF3C0"/>
<path d="M11.1785 16.9263H9.36548V18.7393H11.1785V16.9263Z" fill="#47409A"/>
<path d="M11.1785 15.1132H9.36548V16.9262H11.1785V15.1132Z" fill="#FFF3C0"/>
<path d="M11.1785 13.3003H9.36548V15.1134H11.1785V13.3003Z" fill="#47409A"/>
<path d="M11.1785 11.4871H9.36548V13.3001H11.1785V11.4871Z" fill="#FFF3C0"/>
<path d="M11.1785 9.67419H9.36548V11.4873H11.1785V9.67419Z" fill="#47409A"/>
<path d="M11.1785 7.86108H9.36548V9.67414H11.1785V7.86108Z" fill="#FFF3C0"/>
<path d="M11.1785 6.04785H9.36548V7.86091H11.1785V6.04785Z" fill="#47409A"/>
<path d="M11.1785 4.23486H9.36548V6.04792H11.1785V4.23486Z" fill="#FFF3C0"/>
<path d="M11.1785 2.42188H9.36548V4.23494H11.1785V2.42188Z" fill="#FFF3C0"/>
<path d="M11.1785 0.608765H9.36548V2.42182H11.1785V0.608765Z" fill="#47409A"/>
<path d="M9.36543 29.6178H7.55237V31.4309H9.36543V29.6178Z" fill="#47409A"/>
<path d="M9.36543 27.8046H7.55237V29.6176H9.36543V27.8046Z" fill="#FF3E51"/>
<path d="M9.36543 25.9916H7.55237V27.8046H9.36543V25.9916Z" fill="#47409A"/>
<path d="M9.36543 24.1786H7.55237V25.9916H9.36543V24.1786Z" fill="#FFF3C0"/>
<path d="M9.36543 22.3656H7.55237V24.1787H9.36543V22.3656Z" fill="#FFF3C0"/>
<path d="M9.36543 20.5524H7.55237V22.3654H9.36543V20.5524Z" fill="#47409A"/>
<path d="M9.36543 18.7394H7.55237V20.5524H9.36543V18.7394Z" fill="#FFF3C0"/>
<path d="M9.36543 16.9263H7.55237V18.7393H9.36543V16.9263Z" fill="#47409A"/>
<path d="M9.36543 15.1132H7.55237V16.9262H9.36543V15.1132Z" fill="#FFF3C0"/>
<path d="M9.36543 13.3003H7.55237V15.1134H9.36543V13.3003Z" fill="#47409A"/>
<path d="M9.36543 11.4871H7.55237V13.3001H9.36543V11.4871Z" fill="#FFF3C0"/>
<path d="M9.36543 9.67419H7.55237V11.4873H9.36543V9.67419Z" fill="#47409A"/>
<path d="M9.36543 7.86108H7.55237V9.67414H9.36543V7.86108Z" fill="#FFF3C0"/>
<path d="M9.36543 6.04785H7.55237V7.86091H9.36543V6.04785Z" fill="#47409A"/>
<path d="M9.36543 4.23486H7.55237V6.04792H9.36543V4.23486Z" fill="#FFF3C0"/>
<path d="M9.36543 2.42188H7.55237V4.23494H9.36543V2.42188Z" fill="#FFF3C0"/>
<path d="M9.36543 0.608765H7.55237V2.42182H9.36543V0.608765Z" fill="#47409A"/>
<path d="M7.55232 29.6178H5.73926V31.4309H7.55232V29.6178Z" fill="#47409A"/>
<path d="M7.55232 27.8046H5.73926V29.6176H7.55232V27.8046Z" fill="#FF3E51"/>
<path d="M7.55232 25.9916H5.73926V27.8046H7.55232V25.9916Z" fill="#47409A"/>
<path d="M7.55232 24.1786H5.73926V25.9916H7.55232V24.1786Z" fill="#FFF3C0"/>
<path d="M7.55232 22.3656H5.73926V24.1787H7.55232V22.3656Z" fill="#FFF3C0"/>
<path d="M7.55232 20.5524H5.73926V22.3654H7.55232V20.5524Z" fill="#47409A"/>
<path d="M7.55232 18.7394H5.73926V20.5524H7.55232V18.7394Z" fill="#FFF3C0"/>
<path d="M7.55232 16.9263H5.73926V18.7393H7.55232V16.9263Z" fill="#47409A"/>
<path d="M7.55232 15.1132H5.73926V16.9262H7.55232V15.1132Z" fill="#FFF3C0"/>
<path d="M7.55232 13.3003H5.73926V15.1134H7.55232V13.3003Z" fill="#47409A"/>
<path d="M7.55232 11.4871H5.73926V13.3001H7.55232V11.4871Z" fill="#FFF3C0"/>
<path d="M7.55232 9.67419H5.73926V11.4873H7.55232V9.67419Z" fill="#47409A"/>
<path d="M7.55232 7.86108H5.73926V9.67414H7.55232V7.86108Z" fill="#FFF3C0"/>
<path d="M7.55232 6.04785H5.73926V7.86091H7.55232V6.04785Z" fill="#47409A"/>
<path d="M7.55232 4.23486H5.73926V6.04792H7.55232V4.23486Z" fill="#FFF3C0"/>
<path d="M7.55232 2.42188H5.73926V4.23494H7.55232V2.42188Z" fill="#FFF3C0"/>
<path d="M7.55232 0.608765H5.73926V2.42182H7.55232V0.608765Z" fill="#47409A"/>
<path d="M5.73921 29.6178H3.92615V31.4309H5.73921V29.6178Z" fill="#47409A"/>
<path d="M5.73921 27.8046H3.92615V29.6176H5.73921V27.8046Z" fill="#FF3E51"/>
<path d="M5.73921 25.9916H3.92615V27.8046H5.73921V25.9916Z" fill="#47409A"/>
<path d="M5.73921 24.1786H3.92615V25.9916H5.73921V24.1786Z" fill="#FFF3C0"/>
<path d="M5.73921 22.3656H3.92615V24.1787H5.73921V22.3656Z" fill="#FFF3C0"/>
<path d="M5.73921 20.5524H3.92615V22.3654H5.73921V20.5524Z" fill="#47409A"/>
<path d="M5.73921 18.7394H3.92615V20.5524H5.73921V18.7394Z" fill="#FFF3C0"/>
<path d="M5.73921 16.9263H3.92615V18.7393H5.73921V16.9263Z" fill="#47409A"/>
<path d="M5.73921 15.1132H3.92615V16.9262H5.73921V15.1132Z" fill="#FFF3C0"/>
<path d="M5.73921 13.3003H3.92615V15.1134H5.73921V13.3003Z" fill="#47409A"/>
<path d="M5.73921 11.4871H3.92615V13.3001H5.73921V11.4871Z" fill="#FFF3C0"/>
<path d="M5.73921 9.67419H3.92615V11.4873H5.73921V9.67419Z" fill="#47409A"/>
<path d="M5.73921 7.86108H3.92615V9.67414H5.73921V7.86108Z" fill="#FFF3C0"/>
<path d="M5.73921 6.04785H3.92615V7.86091H5.73921V6.04785Z" fill="#47409A"/>
<path d="M5.73921 4.23486H3.92615V6.04792H5.73921V4.23486Z" fill="#FFF3C0"/>
<path d="M5.73921 2.42188H3.92615V4.23494H5.73921V2.42188Z" fill="#FFF3C0"/>
<path d="M5.73921 0.608765H3.92615V2.42182H5.73921V0.608765Z" fill="#47409A"/>
<path d="M3.92622 31.4307H2.11316V33.2437H3.92622V31.4307Z" fill="#47409A"/>
<path d="M3.92622 29.6178H2.11316V31.4309H3.92622V29.6178Z" fill="#FF3E51"/>
<path d="M3.92622 27.8046H2.11316V29.6176H3.92622V27.8046Z" fill="#47409A"/>
<path d="M3.92622 25.9916H2.11316V27.8046H3.92622V25.9916Z" fill="#FFF3C0"/>
<path d="M3.92622 24.1786H2.11316V25.9916H3.92622V24.1786Z" fill="#FFF3C0"/>
<path d="M3.92622 22.3656H2.11316V24.1787H3.92622V22.3656Z" fill="#FFF3C0"/>
<path d="M3.92622 20.5524H2.11316V22.3654H3.92622V20.5524Z" fill="#FFF3C0"/>
<path d="M3.92622 18.7394H2.11316V20.5524H3.92622V18.7394Z" fill="#FFF3C0"/>
<path d="M3.92622 16.9263H2.11316V18.7393H3.92622V16.9263Z" fill="#FFF3C0"/>
<path d="M3.92622 15.1132H2.11316V16.9262H3.92622V15.1132Z" fill="#FFF3C0"/>
<path d="M3.92622 13.3003H2.11316V15.1134H3.92622V13.3003Z" fill="#FFF3C0"/>
<path d="M3.92622 11.4871H2.11316V13.3001H3.92622V11.4871Z" fill="#FFF3C0"/>
<path d="M3.92622 9.67419H2.11316V11.4873H3.92622V9.67419Z" fill="#FFF3C0"/>
<path d="M3.92622 7.86108H2.11316V9.67414H3.92622V7.86108Z" fill="#FFF3C0"/>
<path d="M3.92622 6.04785H2.11316V7.86091H3.92622V6.04785Z" fill="#FFF3C0"/>
<path d="M3.92622 4.23486H2.11316V6.04792H3.92622V4.23486Z" fill="#FFF3C0"/>
<path d="M3.92622 2.42188H2.11316V4.23494H3.92622V2.42188Z" fill="#FFF3C0"/>
<path d="M3.92622 0.608765H2.11316V2.42182H3.92622V0.608765Z" fill="#47409A"/>
<path d="M2.11311 31.4307H0.300049V33.2437H2.11311V31.4307Z" fill="#47409A"/>
<path d="M2.11311 29.6178H0.300049V31.4309H2.11311V29.6178Z" fill="#47409A"/>
<path d="M2.11311 27.8046H0.300049V29.6176H2.11311V27.8046Z" fill="#47409A"/>
<path d="M2.11311 25.9916H0.300049V27.8046H2.11311V25.9916Z" fill="#47409A"/>
<path d="M2.11311 24.1786H0.300049V25.9916H2.11311V24.1786Z" fill="#47409A"/>
<path d="M2.11311 22.3656H0.300049V24.1787H2.11311V22.3656Z" fill="#47409A"/>
<path d="M2.11311 20.5524H0.300049V22.3654H2.11311V20.5524Z" fill="#47409A"/>
<path d="M2.11311 18.7394H0.300049V20.5524H2.11311V18.7394Z" fill="#47409A"/>
<path d="M2.11311 16.9263H0.300049V18.7393H2.11311V16.9263Z" fill="#47409A"/>
<path d="M2.11311 15.1132H0.300049V16.9262H2.11311V15.1132Z" fill="#47409A"/>
<path d="M2.11311 13.3003H0.300049V15.1134H2.11311V13.3003Z" fill="#47409A"/>
<path d="M2.11311 11.4871H0.300049V13.3001H2.11311V11.4871Z" fill="#47409A"/>
<path d="M2.11311 9.67419H0.300049V11.4873H2.11311V9.67419Z" fill="#47409A"/>
<path d="M2.11311 7.86108H0.300049V9.67414H2.11311V7.86108Z" fill="#47409A"/>
<path d="M2.11311 6.04785H0.300049V7.86091H2.11311V6.04785Z" fill="#47409A"/>
<path d="M2.11311 4.23486H0.300049V6.04792H2.11311V4.23486Z" fill="#47409A"/>
<path d="M2.11311 2.42188H0.300049V4.23494H2.11311V2.42188Z" fill="#47409A"/>
</svg>
