<svg width="43" height="37" viewBox="0 0 43 37" fill="none" xmlns="http://www.w3.org/2000/svg">
<path d="M6.64882 29.7399H4.99695V31.3917H6.64882V29.7399Z" fill="#BCCACE"/>
<path d="M6.64882 28.0876H4.99695V29.7395H6.64882V28.0876Z" fill="#BCCACE"/>
<path d="M6.64882 26.4359H4.99695V28.0878H6.64882V26.4359Z" fill="#BCCACE"/>
<path d="M6.64882 24.7837H4.99695V26.4356H6.64882V24.7837Z" fill="#BCCACE"/>
<path d="M6.64882 23.132H4.99695V24.7838H6.64882V23.132Z" fill="#BCCACE"/>
<path d="M6.64882 21.4797H4.99695V23.1316H6.64882V21.4797Z" fill="#BCCACE"/>
<path d="M6.64882 19.828H4.99695V21.4799H6.64882V19.828Z" fill="#BCCACE"/>
<path d="M6.64882 18.1758H4.99695V19.8277H6.64882V18.1758Z" fill="#BCCACE"/>
<path d="M6.64882 16.5236H4.99695V18.1754H6.64882V16.5236Z" fill="#BCCACE"/>
<path d="M6.64882 14.8718H4.99695V16.5237H6.64882V14.8718Z" fill="#BCCACE"/>
<path d="M6.64882 13.2196H4.99695V14.8715H6.64882V13.2196Z" fill="#BCCACE"/>
<path d="M6.64882 11.5679H4.99695V13.2197H6.64882V11.5679Z" fill="#BCCACE"/>
<path d="M6.64882 9.91565H4.99695V11.5675H6.64882V9.91565Z" fill="#BCCACE"/>
<path d="M6.64882 8.26392H4.99695V9.91579H6.64882V8.26392Z" fill="#BCCACE"/>
<path d="M6.64882 6.6084H4.99695V8.26364H6.64882V6.6084Z" fill="#BCCACE"/>
<path d="M6.64882 4.95618H4.99695V6.60805H6.64882V4.95618Z" fill="#BCCACE"/>
<path d="M6.64882 3.30396H4.99695V4.95583H6.64882V3.30396Z" fill="#BCCACE"/>
<path d="M6.64882 1.65222H4.99695V3.30409H6.64882V1.65222Z" fill="#BCCACE"/>
<path d="M8.30275 31.3921H6.65088V33.044H8.30275V31.3921Z" fill="#BCCACE"/>
<path d="M8.30275 29.7399H6.65088V31.3917H8.30275V29.7399Z" fill="#9AA4A5"/>
<path d="M8.30275 28.0876H6.65088V29.7395H8.30275V28.0876Z" fill="#9AA4A5"/>
<path d="M8.30275 26.4359H6.65088V28.0878H8.30275V26.4359Z" fill="#9AA4A5"/>
<path d="M8.30275 24.7837H6.65088V26.4356H8.30275V24.7837Z" fill="#9AA4A5"/>
<path d="M8.30275 23.132H6.65088V24.7838H8.30275V23.132Z" fill="#9AA4A5"/>
<path d="M8.30275 21.4797H6.65088V23.1316H8.30275V21.4797Z" fill="#9AA4A5"/>
<path d="M8.30275 19.828H6.65088V21.4799H8.30275V19.828Z" fill="#9AA4A5"/>
<path d="M8.30275 18.1758H6.65088V19.8277H8.30275V18.1758Z" fill="#9AA4A5"/>
<path d="M8.30275 16.5236H6.65088V18.1754H8.30275V16.5236Z" fill="#9AA4A5"/>
<path d="M8.30275 14.8718H6.65088V16.5237H8.30275V14.8718Z" fill="#9AA4A5"/>
<path d="M8.30275 13.2196H6.65088V14.8715H8.30275V13.2196Z" fill="#9AA4A5"/>
<path d="M8.30275 11.5679H6.65088V13.2197H8.30275V11.5679Z" fill="#9AA4A5"/>
<path d="M8.30275 9.91565H6.65088V11.5675H8.30275V9.91565Z" fill="#9AA4A5"/>
<path d="M8.30275 8.26392H6.65088V9.91579H8.30275V8.26392Z" fill="#9AA4A5"/>
<path d="M8.30275 6.6084H6.65088V8.26364H8.30275V6.6084Z" fill="#B71648"/>
<path d="M8.30275 4.95618H6.65088V6.60805H8.30275V4.95618Z" fill="#B71648"/>
<path d="M8.30275 3.30396H6.65088V4.95583H8.30275V3.30396Z" fill="#B71648"/>
<path d="M8.30275 1.65222H6.65088V3.30409H8.30275V1.65222Z" fill="#B71648"/>
<path d="M8.30275 0H6.65088V1.65187H8.30275V0Z" fill="#BCCACE"/>
<path d="M9.95216 31.3921H8.30029V33.044H9.95216V31.3921Z" fill="#BCCACE"/>
<path d="M9.95216 29.7399H8.30029V31.3917H9.95216V29.7399Z" fill="#BCCACE"/>
<path d="M9.95216 28.0876H8.30029V29.7395H9.95216V28.0876Z" fill="#BCCACE"/>
<path d="M9.95216 26.4359H8.30029V28.0878H9.95216V26.4359Z" fill="#BCCACE"/>
<path d="M9.95216 24.7837H8.30029V26.4356H9.95216V24.7837Z" fill="#BCCACE"/>
<path d="M9.95216 23.132H8.30029V24.7838H9.95216V23.132Z" fill="#BCCACE"/>
<path d="M9.95216 21.4797H8.30029V23.1316H9.95216V21.4797Z" fill="#BCCACE"/>
<path d="M9.95216 19.828H8.30029V21.4799H9.95216V19.828Z" fill="#BCCACE"/>
<path d="M9.95216 18.1758H8.30029V19.8277H9.95216V18.1758Z" fill="#BCCACE"/>
<path d="M9.95216 16.5236H8.30029V18.1754H9.95216V16.5236Z" fill="#BCCACE"/>
<path d="M9.95216 14.8718H8.30029V16.5237H9.95216V14.8718Z" fill="#BCCACE"/>
<path d="M9.95216 13.2196H8.30029V14.8715H9.95216V13.2196Z" fill="#BCCACE"/>
<path d="M9.95216 11.5679H8.30029V13.2197H9.95216V11.5679Z" fill="#BCCACE"/>
<path d="M9.95216 9.91565H8.30029V11.5675H9.95216V9.91565Z" fill="#BCCACE"/>
<path d="M9.95216 8.26392H8.30029V9.91579H9.95216V8.26392Z" fill="#BCCACE"/>
<path d="M9.95216 6.6084H8.30029V8.26364H9.95216V6.6084Z" fill="#B71648"/>
<path d="M9.95216 4.95618H8.30029V6.60805H9.95216V4.95618Z" fill="#B71648"/>
<path d="M9.95216 3.30396H8.30029V4.95583H9.95216V3.30396Z" fill="#B71648"/>
<path d="M9.95216 1.65222H8.30029V3.30409H9.95216V1.65222Z" fill="#B71648"/>
<path d="M9.95216 0H8.30029V1.65187H9.95216V0Z" fill="#B71648"/>
<path d="M11.6061 31.3921H9.95422V33.044H11.6061V31.3921Z" fill="#BCCACE"/>
<path d="M11.6061 29.7399H9.95422V31.3917H11.6061V29.7399Z" fill="#AEB8BA"/>
<path d="M11.6061 28.0876H9.95422V29.7395H11.6061V28.0876Z" fill="#AEB8BA"/>
<path d="M11.6061 26.4359H9.95422V28.0878H11.6061V26.4359Z" fill="#AEB8BA"/>
<path d="M11.6061 24.7837H9.95422V26.4356H11.6061V24.7837Z" fill="#AEB8BA"/>
<path d="M11.6061 23.132H9.95422V24.7838H11.6061V23.132Z" fill="#AEB8BA"/>
<path d="M11.6061 21.4797H9.95422V23.1316H11.6061V21.4797Z" fill="#AEB8BA"/>
<path d="M11.6061 19.828H9.95422V21.4799H11.6061V19.828Z" fill="#9AA4A5"/>
<path d="M11.6061 18.1758H9.95422V19.8277H11.6061V18.1758Z" fill="#9AA4A5"/>
<path d="M11.6061 16.5236H9.95422V18.1754H11.6061V16.5236Z" fill="#9AA4A5"/>
<path d="M11.6061 14.8718H9.95422V16.5237H11.6061V14.8718Z" fill="#9AA4A5"/>
<path d="M11.6061 13.2196H9.95422V14.8715H11.6061V13.2196Z" fill="#9AA4A5"/>
<path d="M11.6061 11.5679H9.95422V13.2197H11.6061V11.5679Z" fill="#9AA4A5"/>
<path d="M11.6061 9.91565H9.95422V11.5675H11.6061V9.91565Z" fill="#9AA4A5"/>
<path d="M11.6061 8.26392H9.95422V9.91579H11.6061V8.26392Z" fill="#9AA4A5"/>
<path d="M11.6061 6.6084H9.95422V8.26364H11.6061V6.6084Z" fill="#B71648"/>
<path d="M11.6061 4.95618H9.95422V6.60805H11.6061V4.95618Z" fill="#B71648"/>
<path d="M11.6061 3.30396H9.95422V4.95583H11.6061V3.30396Z" fill="#B71648"/>
<path d="M11.6061 1.65222H9.95422V3.30409H11.6061V1.65222Z" fill="#B71648"/>
<path d="M11.6061 0H9.95422V1.65187H11.6061V0Z" fill="#B71648"/>
<path d="M13.2556 31.3921H11.6038V33.044H13.2556V31.3921Z" fill="#BCCACE"/>
<path d="M13.2556 29.7399H11.6038V31.3917H13.2556V29.7399Z" fill="#BCCACE"/>
<path d="M13.2556 28.0876H11.6038V29.7395H13.2556V28.0876Z" fill="#BCCACE"/>
<path d="M13.2556 26.4359H11.6038V28.0878H13.2556V26.4359Z" fill="#BCCACE"/>
<path d="M13.2556 24.7837H11.6038V26.4356H13.2556V24.7837Z" fill="#BCCACE"/>
<path d="M13.2556 23.132H11.6038V24.7838H13.2556V23.132Z" fill="#BCCACE"/>
<path d="M13.2556 21.4797H11.6038V23.1316H13.2556V21.4797Z" fill="#BCCACE"/>
<path d="M13.2556 19.828H11.6038V21.4799H13.2556V19.828Z" fill="#BCCACE"/>
<path d="M13.2556 18.1758H11.6038V19.8277H13.2556V18.1758Z" fill="#BCCACE"/>
<path d="M13.2556 16.5236H11.6038V18.1754H13.2556V16.5236Z" fill="#BCCACE"/>
<path d="M13.2556 14.8718H11.6038V16.5237H13.2556V14.8718Z" fill="#BCCACE"/>
<path d="M13.2556 13.2196H11.6038V14.8715H13.2556V13.2196Z" fill="#BCCACE"/>
<path d="M13.2556 11.5679H11.6038V13.2197H13.2556V11.5679Z" fill="#BCCACE"/>
<path d="M13.2556 9.91565H11.6038V11.5675H13.2556V9.91565Z" fill="#BCCACE"/>
<path d="M13.2556 8.26392H11.6038V9.91579H13.2556V8.26392Z" fill="#BCCACE"/>
<path d="M13.2556 6.6084H11.6038V8.26364H13.2556V6.6084Z" fill="#B71648"/>
<path d="M13.2556 4.95618H11.6038V6.60805H13.2556V4.95618Z" fill="#B71648"/>
<path d="M13.2556 3.30396H11.6038V4.95583H13.2556V3.30396Z" fill="#B71648"/>
<path d="M13.2556 1.65222H11.6038V3.30409H13.2556V1.65222Z" fill="#B71648"/>
<path d="M13.2556 0H11.6038V1.65187H13.2556V0Z" fill="#B71648"/>
<path d="M14.9096 31.3921H13.2577V33.044H14.9096V31.3921Z" fill="#BCCACE"/>
<path d="M14.9096 29.7399H13.2577V31.3917H14.9096V29.7399Z" fill="#AEB8BA"/>
<path d="M14.9096 28.0876H13.2577V29.7395H14.9096V28.0876Z" fill="#AEB8BA"/>
<path d="M14.9096 26.4359H13.2577V28.0878H14.9096V26.4359Z" fill="#AEB8BA"/>
<path d="M14.9096 24.7837H13.2577V26.4356H14.9096V24.7837Z" fill="#AEB8BA"/>
<path d="M14.9096 23.132H13.2577V24.7838H14.9096V23.132Z" fill="#AEB8BA"/>
<path d="M14.9096 21.4797H13.2577V23.1316H14.9096V21.4797Z" fill="#AEB8BA"/>
<path d="M14.9096 19.828H13.2577V21.4799H14.9096V19.828Z" fill="#AEB8BA"/>
<path d="M14.9096 18.1758H13.2577V19.8277H14.9096V18.1758Z" fill="#AEB8BA"/>
<path d="M14.9096 16.5236H13.2577V18.1754H14.9096V16.5236Z" fill="#AEB8BA"/>
<path d="M14.9096 14.8718H13.2577V16.5237H14.9096V14.8718Z" fill="#AEB8BA"/>
<path d="M14.9096 13.2196H13.2577V14.8715H14.9096V13.2196Z" fill="#AEB8BA"/>
<path d="M14.9096 11.5679H13.2577V13.2197H14.9096V11.5679Z" fill="#AEB8BA"/>
<path d="M14.9096 9.91565H13.2577V11.5675H14.9096V9.91565Z" fill="#AEB8BA"/>
<path d="M14.9096 8.26392H13.2577V9.91579H14.9096V8.26392Z" fill="#AEB8BA"/>
<path d="M14.9096 6.6084H13.2577V8.26364H14.9096V6.6084Z" fill="#B71648"/>
<path d="M14.9096 4.95618H13.2577V6.60805H14.9096V4.95618Z" fill="#B71648"/>
<path d="M14.9096 3.30396H13.2577V4.95583H14.9096V3.30396Z" fill="#B71648"/>
<path d="M14.9096 1.65222H13.2577V3.30409H14.9096V1.65222Z" fill="#B71648"/>
<path d="M14.9096 0H13.2577V1.65187H14.9096V0Z" fill="#B71648"/>
<path d="M16.5634 31.3921H14.9115V33.044H16.5634V31.3921Z" fill="#BCCACE"/>
<path d="M16.5634 29.7399H14.9115V31.3917H16.5634V29.7399Z" fill="#EDEFEF"/>
<path d="M16.5634 28.0876H14.9115V29.7395H16.5634V28.0876Z" fill="#EDEFEF"/>
<path d="M16.5634 26.4359H14.9115V28.0878H16.5634V26.4359Z" fill="#EDEFEF"/>
<path d="M16.5634 24.7837H14.9115V26.4356H16.5634V24.7837Z" fill="#EDEFEF"/>
<path d="M16.5634 23.132H14.9115V24.7838H16.5634V23.132Z" fill="#EDEFEF"/>
<path d="M16.5634 21.4797H14.9115V23.1316H16.5634V21.4797Z" fill="#EDEFEF"/>
<path d="M16.5634 19.828H14.9115V21.4799H16.5634V19.828Z" fill="#EDEFEF"/>
<path d="M16.5634 18.1758H14.9115V19.8277H16.5634V18.1758Z" fill="#EDEFEF"/>
<path d="M16.5634 16.5236H14.9115V18.1754H16.5634V16.5236Z" fill="#EDEFEF"/>
<path d="M16.5634 14.8718H14.9115V16.5237H16.5634V14.8718Z" fill="#EDEFEF"/>
<path d="M16.5634 13.2196H14.9115V14.8715H16.5634V13.2196Z" fill="#EDEFEF"/>
<path d="M16.5634 11.5679H14.9115V13.2197H16.5634V11.5679Z" fill="#EDEFEF"/>
<path d="M16.5634 9.91565H14.9115V11.5675H16.5634V9.91565Z" fill="#EDEFEF"/>
<path d="M16.5634 8.26392H14.9115V9.91579H16.5634V8.26392Z" fill="#EDEFEF"/>
<path d="M16.5634 6.6084H14.9115V8.26364H16.5634V6.6084Z" fill="#B71648"/>
<path d="M16.5634 4.95618H14.9115V6.60805H16.5634V4.95618Z" fill="#DB2E5B"/>
<path d="M16.5634 3.30396H14.9115V4.95583H16.5634V3.30396Z" fill="#DB2E5B"/>
<path d="M16.5634 1.65222H14.9115V3.30409H16.5634V1.65222Z" fill="#DB2E5B"/>
<path d="M16.5634 0H14.9115V1.65187H16.5634V0Z" fill="#DE5F86"/>
<path d="M18.2129 31.3921H16.561V33.044H18.2129V31.3921Z" fill="#BCCACE"/>
<path d="M18.2129 29.7399H16.561V31.3917H18.2129V29.7399Z" fill="#EDEFEF"/>
<path d="M18.2129 28.0876H16.561V29.7395H18.2129V28.0876Z" fill="#EDEFEF"/>
<path d="M18.2129 26.4359H16.561V28.0878H18.2129V26.4359Z" fill="#EDEFEF"/>
<path d="M18.2129 24.7837H16.561V26.4356H18.2129V24.7837Z" fill="#EDEFEF"/>
<path d="M18.2129 23.132H16.561V24.7838H18.2129V23.132Z" fill="#EDEFEF"/>
<path d="M18.2129 21.4797H16.561V23.1316H18.2129V21.4797Z" fill="#EDEFEF"/>
<path d="M18.2129 19.828H16.561V21.4799H18.2129V19.828Z" fill="#EDEFEF"/>
<path d="M18.2129 18.1758H16.561V19.8277H18.2129V18.1758Z" fill="#EDEFEF"/>
<path d="M18.2129 16.5236H16.561V18.1754H18.2129V16.5236Z" fill="#EDEFEF"/>
<path d="M18.2129 14.8718H16.561V16.5237H18.2129V14.8718Z" fill="#EDEFEF"/>
<path d="M18.2129 13.2196H16.561V14.8715H18.2129V13.2196Z" fill="#EDEFEF"/>
<path d="M18.2129 11.5679H16.561V13.2197H18.2129V11.5679Z" fill="#EDEFEF"/>
<path d="M18.2129 9.91565H16.561V11.5675H18.2129V9.91565Z" fill="#EDEFEF"/>
<path d="M18.2129 8.26392H16.561V9.91579H18.2129V8.26392Z" fill="#EDEFEF"/>
<path d="M18.2129 6.6084H16.561V8.26364H18.2129V6.6084Z" fill="#B71648"/>
<path d="M18.2129 4.95618H16.561V6.60805H18.2129V4.95618Z" fill="#DB2E5B"/>
<path d="M18.2129 3.30396H16.561V4.95583H18.2129V3.30396Z" fill="#DB2E5B"/>
<path d="M18.2129 1.65222H16.561V3.30409H18.2129V1.65222Z" fill="#DB2E5B"/>
<path d="M18.2129 0H16.561V1.65187H18.2129V0Z" fill="#DE5F86"/>
<path d="M19.8624 31.3921H18.2106V33.044H19.8624V31.3921Z" fill="#BCCACE"/>
<path d="M19.8624 29.7399H18.2106V31.3917H19.8624V29.7399Z" fill="#EDEFEF"/>
<path d="M19.8624 28.0876H18.2106V29.7395H19.8624V28.0876Z" fill="#EDEFEF"/>
<path d="M19.8624 26.4359H18.2106V28.0878H19.8624V26.4359Z" fill="#EDEFEF"/>
<path d="M19.8624 24.7837H18.2106V26.4356H19.8624V24.7837Z" fill="#EDEFEF"/>
<path d="M19.8624 23.132H18.2106V24.7838H19.8624V23.132Z" fill="#EDEFEF"/>
<path d="M19.8624 21.4797H18.2106V23.1316H19.8624V21.4797Z" fill="#EDEFEF"/>
<path d="M19.8624 19.828H18.2106V21.4799H19.8624V19.828Z" fill="#EDEFEF"/>
<path d="M19.8624 18.1758H18.2106V19.8277H19.8624V18.1758Z" fill="#EDEFEF"/>
<path d="M19.8624 16.5236H18.2106V18.1754H19.8624V16.5236Z" fill="#EDEFEF"/>
<path d="M19.8624 14.8718H18.2106V16.5237H19.8624V14.8718Z" fill="#EDEFEF"/>
<path d="M19.8624 13.2196H18.2106V14.8715H19.8624V13.2196Z" fill="#EDEFEF"/>
<path d="M19.8624 11.5679H18.2106V13.2197H19.8624V11.5679Z" fill="#EDEFEF"/>
<path d="M19.8624 9.91565H18.2106V11.5675H19.8624V9.91565Z" fill="#EDEFEF"/>
<path d="M19.8624 8.26392H18.2106V9.91579H19.8624V8.26392Z" fill="#EDEFEF"/>
<path d="M19.8624 6.6084H18.2106V8.26364H19.8624V6.6084Z" fill="#B71648"/>
<path d="M19.8624 4.95618H18.2106V6.60805H19.8624V4.95618Z" fill="#DB2E5B"/>
<path d="M19.8624 3.30396H18.2106V4.95583H19.8624V3.30396Z" fill="#DB2E5B"/>
<path d="M19.8624 1.65222H18.2106V3.30409H19.8624V1.65222Z" fill="#DB2E5B"/>
<path d="M19.8624 0H18.2106V1.65187H19.8624V0Z" fill="#DE5F86"/>
<path d="M21.5163 31.3921H19.8644V33.044H21.5163V31.3921Z" fill="#BCCACE"/>
<path d="M21.5163 29.7399H19.8644V31.3917H21.5163V29.7399Z" fill="#EDEFEF"/>
<path d="M21.5163 28.0876H19.8644V29.7395H21.5163V28.0876Z" fill="#EDEFEF"/>
<path d="M21.5163 26.4359H19.8644V28.0878H21.5163V26.4359Z" fill="#EDEFEF"/>
<path d="M21.5163 24.7837H19.8644V26.4356H21.5163V24.7837Z" fill="#EDEFEF"/>
<path d="M21.5163 23.132H19.8644V24.7838H21.5163V23.132Z" fill="#EDEFEF"/>
<path d="M21.5163 21.4797H19.8644V23.1316H21.5163V21.4797Z" fill="#EDEFEF"/>
<path d="M21.5163 19.828H19.8644V21.4799H21.5163V19.828Z" fill="#EDEFEF"/>
<path d="M21.5163 18.1758H19.8644V19.8277H21.5163V18.1758Z" fill="#EDEFEF"/>
<path d="M21.5163 16.5236H19.8644V18.1754H21.5163V16.5236Z" fill="#EDEFEF"/>
<path d="M21.5163 14.8718H19.8644V16.5237H21.5163V14.8718Z" fill="#EDEFEF"/>
<path d="M21.5163 13.2196H19.8644V14.8715H21.5163V13.2196Z" fill="#EDEFEF"/>
<path d="M21.5163 11.5679H19.8644V13.2197H21.5163V11.5679Z" fill="#EDEFEF"/>
<path d="M21.5163 9.91565H19.8644V11.5675H21.5163V9.91565Z" fill="#EDEFEF"/>
<path d="M21.5163 8.26392H19.8644V9.91579H21.5163V8.26392Z" fill="#EDEFEF"/>
<path d="M21.5163 6.6084H19.8644V8.26364H21.5163V6.6084Z" fill="#B71648"/>
<path d="M21.5163 4.95618H19.8644V6.60805H21.5163V4.95618Z" fill="#DB2E5B"/>
<path d="M21.5163 3.30396H19.8644V4.95583H21.5163V3.30396Z" fill="#DB2E5B"/>
<path d="M21.5163 1.65222H19.8644V3.30409H21.5163V1.65222Z" fill="#DB2E5B"/>
<path d="M21.5163 0H19.8644V1.65187H21.5163V0Z" fill="#DE5F86"/>
<path d="M23.1702 31.3921H21.5183V33.044H23.1702V31.3921Z" fill="#BCCACE"/>
<path d="M23.1702 29.7399H21.5183V31.3917H23.1702V29.7399Z" fill="#EDEFEF"/>
<path d="M23.1702 28.0876H21.5183V29.7395H23.1702V28.0876Z" fill="#EDEFEF"/>
<path d="M23.1702 26.4359H21.5183V28.0878H23.1702V26.4359Z" fill="#EDEFEF"/>
<path d="M23.1702 24.7837H21.5183V26.4356H23.1702V24.7837Z" fill="#EDEFEF"/>
<path d="M23.1702 23.132H21.5183V24.7838H23.1702V23.132Z" fill="#242872"/>
<path d="M23.1702 21.4797H21.5183V23.1316H23.1702V21.4797Z" fill="#242872"/>
<path d="M23.1702 19.828H21.5183V21.4799H23.1702V19.828Z" fill="#242872"/>
<path d="M23.1702 18.1758H21.5183V19.8277H23.1702V18.1758Z" fill="#242872"/>
<path d="M23.1702 16.5236H21.5183V18.1754H23.1702V16.5236Z" fill="#242872"/>
<path d="M23.1702 14.8718H21.5183V16.5237H23.1702V14.8718Z" fill="#242872"/>
<path d="M23.1702 13.2196H21.5183V14.8715H23.1702V13.2196Z" fill="#EDEFEF"/>
<path d="M23.1702 11.5679H21.5183V13.2197H23.1702V11.5679Z" fill="#EDEFEF"/>
<path d="M23.1702 9.91565H21.5183V11.5675H23.1702V9.91565Z" fill="#EDEFEF"/>
<path d="M23.1702 8.26392H21.5183V9.91579H23.1702V8.26392Z" fill="#EDEFEF"/>
<path d="M23.1702 6.6084H21.5183V8.26364H23.1702V6.6084Z" fill="#B71648"/>
<path d="M23.1702 4.95618H21.5183V6.60805H23.1702V4.95618Z" fill="#DB2E5B"/>
<path d="M23.1702 3.30396H21.5183V4.95583H23.1702V3.30396Z" fill="#DB2E5B"/>
<path d="M23.1702 1.65222H21.5183V3.30409H23.1702V1.65222Z" fill="#DB2E5B"/>
<path d="M23.1702 0H21.5183V1.65187H23.1702V0Z" fill="#DE5F86"/>
<path d="M24.8197 31.3921H23.1678V33.044H24.8197V31.3921Z" fill="#BCCACE"/>
<path d="M24.8197 29.7399H23.1678V31.3917H24.8197V29.7399Z" fill="#EDEFEF"/>
<path d="M24.8197 28.0876H23.1678V29.7395H24.8197V28.0876Z" fill="#EDEFEF"/>
<path d="M24.8197 26.4359H23.1678V28.0878H24.8197V26.4359Z" fill="#EDEFEF"/>
<path d="M24.8197 24.7837H23.1678V26.4356H24.8197V24.7837Z" fill="#242872"/>
<path d="M24.8197 23.132H23.1678V24.7838H24.8197V23.132Z" fill="#EDEFEF"/>
<path d="M24.8197 21.4797H23.1678V23.1316H24.8197V21.4797Z" fill="#EDEFEF"/>
<path d="M24.8197 19.828H23.1678V21.4799H24.8197V19.828Z" fill="#EDEFEF"/>
<path d="M24.8197 18.1758H23.1678V19.8277H24.8197V18.1758Z" fill="#EDEFEF"/>
<path d="M24.8197 16.5236H23.1678V18.1754H24.8197V16.5236Z" fill="#EDEFEF"/>
<path d="M24.8197 14.8718H23.1678V16.5237H24.8197V14.8718Z" fill="#EDEFEF"/>
<path d="M24.8197 13.2196H23.1678V14.8715H24.8197V13.2196Z" fill="#242872"/>
<path d="M24.8197 11.5679H23.1678V13.2197H24.8197V11.5679Z" fill="#EDEFEF"/>
<path d="M24.8197 9.91565H23.1678V11.5675H24.8197V9.91565Z" fill="#EDEFEF"/>
<path d="M24.8197 8.26392H23.1678V9.91579H24.8197V8.26392Z" fill="#EDEFEF"/>
<path d="M24.8197 6.6084H23.1678V8.26364H24.8197V6.6084Z" fill="#B71648"/>
<path d="M24.8197 4.95618H23.1678V6.60805H24.8197V4.95618Z" fill="#DB2E5B"/>
<path d="M24.8197 3.30396H23.1678V4.95583H24.8197V3.30396Z" fill="#B71648"/>
<path d="M24.8197 1.65222H23.1678V3.30409H24.8197V1.65222Z" fill="#DB2E5B"/>
<path d="M24.8197 0H23.1678V1.65187H24.8197V0Z" fill="#DE5F86"/>
<path d="M26.4736 31.3921H24.8218V33.044H26.4736V31.3921Z" fill="#BCCACE"/>
<path d="M26.4736 29.7399H24.8218V31.3917H26.4736V29.7399Z" fill="#EDEFEF"/>
<path d="M26.4736 28.0876H24.8218V29.7395H26.4736V28.0876Z" fill="#EDEFEF"/>
<path d="M26.4736 26.4359H24.8218V28.0878H26.4736V26.4359Z" fill="#EDEFEF"/>
<path d="M26.4736 24.7837H24.8218V26.4356H26.4736V24.7837Z" fill="#242872"/>
<path d="M26.4736 23.132H24.8218V24.7838H26.4736V23.132Z" fill="#EDEFEF"/>
<path d="M26.4736 21.4797H24.8218V23.1316H26.4736V21.4797Z" fill="#EDEFEF"/>
<path d="M26.4736 19.828H24.8218V21.4799H26.4736V19.828Z" fill="#EDEFEF"/>
<path d="M26.4736 18.1758H24.8218V19.8277H26.4736V18.1758Z" fill="#EDEFEF"/>
<path d="M26.4736 16.5236H24.8218V18.1754H26.4736V16.5236Z" fill="#EDEFEF"/>
<path d="M26.4736 14.8718H24.8218V16.5237H26.4736V14.8718Z" fill="#EDEFEF"/>
<path d="M26.4736 13.2196H24.8218V14.8715H26.4736V13.2196Z" fill="#242872"/>
<path d="M26.4736 11.5679H24.8218V13.2197H26.4736V11.5679Z" fill="#EDEFEF"/>
<path d="M26.4736 9.91565H24.8218V11.5675H26.4736V9.91565Z" fill="#EDEFEF"/>
<path d="M26.4736 8.26392H24.8218V9.91579H26.4736V8.26392Z" fill="#EDEFEF"/>
<path d="M26.4736 6.6084H24.8218V8.26364H26.4736V6.6084Z" fill="#B71648"/>
<path d="M26.4736 4.95618H24.8218V6.60805H26.4736V4.95618Z" fill="#DB2E5B"/>
<path d="M26.4736 3.30396H24.8218V4.95583H26.4736V3.30396Z" fill="#B71648"/>
<path d="M26.4736 1.65222H24.8218V3.30409H26.4736V1.65222Z" fill="#DB2E5B"/>
<path d="M26.4736 0H24.8218V1.65187H26.4736V0Z" fill="#DE5F86"/>
<path d="M28.1234 31.3921H26.4712V33.044H28.1234V31.3921Z" fill="#BCCACE"/>
<path d="M28.1234 29.7399H26.4712V31.3917H28.1234V29.7399Z" fill="#EDEFEF"/>
<path d="M28.1234 28.0876H26.4712V29.7395H28.1234V28.0876Z" fill="#EDEFEF"/>
<path d="M28.1234 26.4359H26.4712V28.0878H28.1234V26.4359Z" fill="#EDEFEF"/>
<path d="M28.1234 24.7837H26.4712V26.4356H28.1234V24.7837Z" fill="#EDEFEF"/>
<path d="M28.1234 23.132H26.4712V24.7838H28.1234V23.132Z" fill="#242872"/>
<path d="M28.1234 21.4797H26.4712V23.1316H28.1234V21.4797Z" fill="#242872"/>
<path d="M28.1234 19.828H26.4712V21.4799H28.1234V19.828Z" fill="#242872"/>
<path d="M28.1234 18.1758H26.4712V19.8277H28.1234V18.1758Z" fill="#242872"/>
<path d="M28.1234 16.5236H26.4712V18.1754H28.1234V16.5236Z" fill="#242872"/>
<path d="M28.1234 14.8718H26.4712V16.5237H28.1234V14.8718Z" fill="#242872"/>
<path d="M28.1234 13.2196H26.4712V14.8715H28.1234V13.2196Z" fill="#EDEFEF"/>
<path d="M28.1234 11.5679H26.4712V13.2197H28.1234V11.5679Z" fill="#EDEFEF"/>
<path d="M28.1234 9.91565H26.4712V11.5675H28.1234V9.91565Z" fill="#EDEFEF"/>
<path d="M28.1234 8.26392H26.4712V9.91579H28.1234V8.26392Z" fill="#EDEFEF"/>
<path d="M28.1234 6.6084H26.4712V8.26364H28.1234V6.6084Z" fill="#B71648"/>
<path d="M28.1234 4.95618H26.4712V6.60805H28.1234V4.95618Z" fill="#DB2E5B"/>
<path d="M28.1234 3.30396H26.4712V4.95583H28.1234V3.30396Z" fill="#B71648"/>
<path d="M28.1234 1.65222H26.4712V3.30409H28.1234V1.65222Z" fill="#DB2E5B"/>
<path d="M28.1234 0H26.4712V1.65187H28.1234V0Z" fill="#DE5F86"/>
<path d="M29.7804 31.3921H28.1251V33.044H29.7804V31.3921Z" fill="#BCCACE"/>
<path d="M29.7804 29.7399H28.1251V31.3917H29.7804V29.7399Z" fill="#EDEFEF"/>
<path d="M29.7804 28.0876H28.1251V29.7395H29.7804V28.0876Z" fill="#EDEFEF"/>
<path d="M29.7804 26.4359H28.1251V28.0878H29.7804V26.4359Z" fill="#EDEFEF"/>
<path d="M29.7804 24.7837H28.1251V26.4356H29.7804V24.7837Z" fill="#EDEFEF"/>
<path d="M29.7804 23.132H28.1251V24.7838H29.7804V23.132Z" fill="#EDEFEF"/>
<path d="M29.7804 21.4797H28.1251V23.1316H29.7804V21.4797Z" fill="#EDEFEF"/>
<path d="M29.7804 19.828H28.1251V21.4799H29.7804V19.828Z" fill="#EDEFEF"/>
<path d="M29.7804 18.1758H28.1251V19.8277H29.7804V18.1758Z" fill="#EDEFEF"/>
<path d="M29.7804 16.5236H28.1251V18.1754H29.7804V16.5236Z" fill="#EDEFEF"/>
<path d="M29.7804 14.8718H28.1251V16.5237H29.7804V14.8718Z" fill="#EDEFEF"/>
<path d="M29.7804 13.2196H28.1251V14.8715H29.7804V13.2196Z" fill="#EDEFEF"/>
<path d="M29.7804 11.5679H28.1251V13.2197H29.7804V11.5679Z" fill="#EDEFEF"/>
<path d="M29.7804 9.91565H28.1251V11.5675H29.7804V9.91565Z" fill="#EDEFEF"/>
<path d="M29.7804 8.26392H28.1251V9.91579H29.7804V8.26392Z" fill="#EDEFEF"/>
<path d="M29.7804 6.6084H28.1251V8.26364H29.7804V6.6084Z" fill="#B71648"/>
<path d="M29.7804 4.95618H28.1251V6.60805H29.7804V4.95618Z" fill="#DB2E5B"/>
<path d="M29.7804 3.30396H28.1251V4.95583H29.7804V3.30396Z" fill="#B71648"/>
<path d="M29.7804 1.65222H28.1251V3.30409H29.7804V1.65222Z" fill="#DB2E5B"/>
<path d="M29.7804 0H28.1251V1.65187H29.7804V0Z" fill="#DE5F86"/>
<path d="M31.4309 31.3921H29.7791V33.044H31.4309V31.3921Z" fill="#BCCACE"/>
<path d="M31.4309 29.7399H29.7791V31.3917H31.4309V29.7399Z" fill="#EDEFEF"/>
<path d="M31.4309 28.0876H29.7791V29.7395H31.4309V28.0876Z" fill="#EDEFEF"/>
<path d="M31.4309 26.4359H29.7791V28.0878H31.4309V26.4359Z" fill="#EDEFEF"/>
<path d="M31.4309 24.7837H29.7791V26.4356H31.4309V24.7837Z" fill="#EDEFEF"/>
<path d="M31.4309 23.132H29.7791V24.7838H31.4309V23.132Z" fill="#EDEFEF"/>
<path d="M31.4309 21.4797H29.7791V23.1316H31.4309V21.4797Z" fill="#EDEFEF"/>
<path d="M31.4309 19.828H29.7791V21.4799H31.4309V19.828Z" fill="#EDEFEF"/>
<path d="M31.4309 18.1758H29.7791V19.8277H31.4309V18.1758Z" fill="#EDEFEF"/>
<path d="M31.4309 16.5236H29.7791V18.1754H31.4309V16.5236Z" fill="#EDEFEF"/>
<path d="M31.4309 14.8718H29.7791V16.5237H31.4309V14.8718Z" fill="#EDEFEF"/>
<path d="M31.4309 13.2196H29.7791V14.8715H31.4309V13.2196Z" fill="#EDEFEF"/>
<path d="M31.4309 11.5679H29.7791V13.2197H31.4309V11.5679Z" fill="#EDEFEF"/>
<path d="M31.4309 9.91565H29.7791V11.5675H31.4309V9.91565Z" fill="#EDEFEF"/>
<path d="M31.4309 8.26392H29.7791V9.91579H31.4309V8.26392Z" fill="#EDEFEF"/>
<path d="M31.4309 6.6084H29.7791V8.26364H31.4309V6.6084Z" fill="#B71648"/>
<path d="M31.4309 4.95618H29.7791V6.60805H31.4309V4.95618Z" fill="#DB2E5B"/>
<path d="M31.4309 3.30396H29.7791V4.95583H31.4309V3.30396Z" fill="#B71648"/>
<path d="M31.4309 1.65222H29.7791V3.30409H31.4309V1.65222Z" fill="#DB2E5B"/>
<path d="M31.4309 0H29.7791V1.65187H31.4309V0Z" fill="#DE5F86"/>
<path d="M33.0847 31.3921H31.4329V33.044H33.0847V31.3921Z" fill="#BCCACE"/>
<path d="M33.0847 29.7399H31.4329V31.3917H33.0847V29.7399Z" fill="#EDEFEF"/>
<path d="M33.0847 28.0876H31.4329V29.7395H33.0847V28.0876Z" fill="#EDEFEF"/>
<path d="M33.0847 26.4359H31.4329V28.0878H33.0847V26.4359Z" fill="#EDEFEF"/>
<path d="M33.0847 24.7837H31.4329V26.4356H33.0847V24.7837Z" fill="#242872"/>
<path d="M33.0847 23.132H31.4329V24.7838H33.0847V23.132Z" fill="#EDEFEF"/>
<path d="M33.0847 21.4797H31.4329V23.1316H33.0847V21.4797Z" fill="#EDEFEF"/>
<path d="M33.0847 19.828H31.4329V21.4799H33.0847V19.828Z" fill="#EDEFEF"/>
<path d="M33.0847 18.1758H31.4329V19.8277H33.0847V18.1758Z" fill="#EDEFEF"/>
<path d="M33.0847 16.5236H31.4329V18.1754H33.0847V16.5236Z" fill="#EDEFEF"/>
<path d="M33.0847 14.8718H31.4329V16.5237H33.0847V14.8718Z" fill="#242872"/>
<path d="M33.0847 13.2196H31.4329V14.8715H33.0847V13.2196Z" fill="#EDEFEF"/>
<path d="M33.0847 11.5679H31.4329V13.2197H33.0847V11.5679Z" fill="#EDEFEF"/>
<path d="M33.0847 9.91565H31.4329V11.5675H33.0847V9.91565Z" fill="#EDEFEF"/>
<path d="M33.0847 8.26392H31.4329V9.91579H33.0847V8.26392Z" fill="#EDEFEF"/>
<path d="M33.0847 6.6084H31.4329V8.26364H33.0847V6.6084Z" fill="#B71648"/>
<path d="M33.0847 4.95618H31.4329V6.60805H33.0847V4.95618Z" fill="#DB2E5B"/>
<path d="M33.0847 3.30396H31.4329V4.95583H33.0847V3.30396Z" fill="#B71648"/>
<path d="M33.0847 1.65222H31.4329V3.30409H33.0847V1.65222Z" fill="#DB2E5B"/>
<path d="M33.0847 0H31.4329V1.65187H33.0847V0Z" fill="#DE5F86"/>
<path d="M34.7343 31.3921H33.0824V33.044H34.7343V31.3921Z" fill="#BCCACE"/>
<path d="M34.7343 29.7399H33.0824V31.3917H34.7343V29.7399Z" fill="#EDEFEF"/>
<path d="M34.7343 28.0876H33.0824V29.7395H34.7343V28.0876Z" fill="#EDEFEF"/>
<path d="M34.7343 26.4359H33.0824V28.0878H34.7343V26.4359Z" fill="#EDEFEF"/>
<path d="M34.7343 24.7837H33.0824V26.4356H34.7343V24.7837Z" fill="#242872"/>
<path d="M34.7343 23.132H33.0824V24.7838H34.7343V23.132Z" fill="#242872"/>
<path d="M34.7343 21.4797H33.0824V23.1316H34.7343V21.4797Z" fill="#242872"/>
<path d="M34.7343 19.828H33.0824V21.4799H34.7343V19.828Z" fill="#242872"/>
<path d="M34.7343 18.1758H33.0824V19.8277H34.7343V18.1758Z" fill="#242872"/>
<path d="M34.7343 16.5236H33.0824V18.1754H34.7343V16.5236Z" fill="#242872"/>
<path d="M34.7343 14.8718H33.0824V16.5237H34.7343V14.8718Z" fill="#242872"/>
<path d="M34.7343 13.2196H33.0824V14.8715H34.7343V13.2196Z" fill="#242872"/>
<path d="M34.7343 11.5679H33.0824V13.2197H34.7343V11.5679Z" fill="#EDEFEF"/>
<path d="M34.7343 9.91565H33.0824V11.5675H34.7343V9.91565Z" fill="#EDEFEF"/>
<path d="M34.7343 8.26392H33.0824V9.91579H34.7343V8.26392Z" fill="#EDEFEF"/>
<path d="M34.7343 6.6084H33.0824V8.26364H34.7343V6.6084Z" fill="#B71648"/>
<path d="M34.7343 4.95618H33.0824V6.60805H34.7343V4.95618Z" fill="#DB2E5B"/>
<path d="M34.7343 3.30396H33.0824V4.95583H34.7343V3.30396Z" fill="#B71648"/>
<path d="M34.7343 1.65222H33.0824V3.30409H34.7343V1.65222Z" fill="#DB2E5B"/>
<path d="M34.7343 0H33.0824V1.65187H34.7343V0Z" fill="#DE5F86"/>
<path d="M36.3882 31.3921H34.7363V33.044H36.3882V31.3921Z" fill="#BCCACE"/>
<path d="M36.3882 29.7399H34.7363V31.3917H36.3882V29.7399Z" fill="#EDEFEF"/>
<path d="M36.3882 28.0876H34.7363V29.7395H36.3882V28.0876Z" fill="#EDEFEF"/>
<path d="M36.3882 26.4359H34.7363V28.0878H36.3882V26.4359Z" fill="#EDEFEF"/>
<path d="M36.3882 24.7837H34.7363V26.4356H36.3882V24.7837Z" fill="#242872"/>
<path d="M36.3882 23.132H34.7363V24.7838H36.3882V23.132Z" fill="#EDEFEF"/>
<path d="M36.3882 21.4797H34.7363V23.1316H36.3882V21.4797Z" fill="#EDEFEF"/>
<path d="M36.3882 19.828H34.7363V21.4799H36.3882V19.828Z" fill="#EDEFEF"/>
<path d="M36.3882 18.1758H34.7363V19.8277H36.3882V18.1758Z" fill="#EDEFEF"/>
<path d="M36.3882 16.5236H34.7363V18.1754H36.3882V16.5236Z" fill="#EDEFEF"/>
<path d="M36.3882 14.8718H34.7363V16.5237H36.3882V14.8718Z" fill="#EDEFEF"/>
<path d="M36.3882 13.2196H34.7363V14.8715H36.3882V13.2196Z" fill="#EDEFEF"/>
<path d="M36.3882 11.5679H34.7363V13.2197H36.3882V11.5679Z" fill="#EDEFEF"/>
<path d="M36.3882 9.91565H34.7363V11.5675H36.3882V9.91565Z" fill="#EDEFEF"/>
<path d="M36.3882 8.26392H34.7363V9.91579H36.3882V8.26392Z" fill="#EDEFEF"/>
<path d="M36.3882 6.6084H34.7363V8.26364H36.3882V6.6084Z" fill="#B71648"/>
<path d="M36.3882 4.95618H34.7363V6.60805H36.3882V4.95618Z" fill="#DB2E5B"/>
<path d="M36.3882 3.30396H34.7363V4.95583H36.3882V3.30396Z" fill="#DB2E5B"/>
<path d="M36.3882 1.65222H34.7363V3.30409H36.3882V1.65222Z" fill="#DB2E5B"/>
<path d="M36.3882 0H34.7363V1.65187H36.3882V0Z" fill="#DE5F86"/>
<path d="M38.042 31.3921H36.3901V33.044H38.042V31.3921Z" fill="#BCCACE"/>
<path d="M38.042 29.7399H36.3901V31.3917H38.042V29.7399Z" fill="#EDEFEF"/>
<path d="M38.042 28.0876H36.3901V29.7395H38.042V28.0876Z" fill="#EDEFEF"/>
<path d="M38.042 26.4359H36.3901V28.0878H38.042V26.4359Z" fill="#EDEFEF"/>
<path d="M38.042 24.7837H36.3901V26.4356H38.042V24.7837Z" fill="#EDEFEF"/>
<path d="M38.042 23.132H36.3901V24.7838H38.042V23.132Z" fill="#EDEFEF"/>
<path d="M38.042 21.4797H36.3901V23.1316H38.042V21.4797Z" fill="#EDEFEF"/>
<path d="M38.042 19.828H36.3901V21.4799H38.042V19.828Z" fill="#EDEFEF"/>
<path d="M38.042 18.1758H36.3901V19.8277H38.042V18.1758Z" fill="#EDEFEF"/>
<path d="M38.042 16.5236H36.3901V18.1754H38.042V16.5236Z" fill="#EDEFEF"/>
<path d="M38.042 14.8718H36.3901V16.5237H38.042V14.8718Z" fill="#EDEFEF"/>
<path d="M38.042 13.2196H36.3901V14.8715H38.042V13.2196Z" fill="#EDEFEF"/>
<path d="M38.042 11.5679H36.3901V13.2197H38.042V11.5679Z" fill="#EDEFEF"/>
<path d="M38.042 9.91565H36.3901V11.5675H38.042V9.91565Z" fill="#EDEFEF"/>
<path d="M38.042 8.26392H36.3901V9.91579H38.042V8.26392Z" fill="#EDEFEF"/>
<path d="M38.042 6.6084H36.3901V8.26364H38.042V6.6084Z" fill="#B71648"/>
<path d="M38.042 4.95618H36.3901V6.60805H38.042V4.95618Z" fill="#DB2E5B"/>
<path d="M38.042 3.30396H36.3901V4.95583H38.042V3.30396Z" fill="#DB2E5B"/>
<path d="M38.042 1.65222H36.3901V3.30409H38.042V1.65222Z" fill="#DB2E5B"/>
<path d="M38.042 0H36.3901V1.65187H38.042V0Z" fill="#DE5F86"/>
<path d="M39.6915 31.3921H38.0397V33.044H39.6915V31.3921Z" fill="#BCCACE"/>
<path d="M39.6915 29.7399H38.0397V31.3917H39.6915V29.7399Z" fill="#EDEFEF"/>
<path d="M39.6915 28.0876H38.0397V29.7395H39.6915V28.0876Z" fill="#EDEFEF"/>
<path d="M39.6915 26.4359H38.0397V28.0878H39.6915V26.4359Z" fill="#EDEFEF"/>
<path d="M39.6915 24.7837H38.0397V26.4356H39.6915V24.7837Z" fill="#EDEFEF"/>
<path d="M39.6915 23.132H38.0397V24.7838H39.6915V23.132Z" fill="#EDEFEF"/>
<path d="M39.6915 21.4797H38.0397V23.1316H39.6915V21.4797Z" fill="#EDEFEF"/>
<path d="M39.6915 19.828H38.0397V21.4799H39.6915V19.828Z" fill="#EDEFEF"/>
<path d="M39.6915 18.1758H38.0397V19.8277H39.6915V18.1758Z" fill="#EDEFEF"/>
<path d="M39.6915 16.5236H38.0397V18.1754H39.6915V16.5236Z" fill="#EDEFEF"/>
<path d="M39.6915 14.8718H38.0397V16.5237H39.6915V14.8718Z" fill="#EDEFEF"/>
<path d="M39.6915 13.2196H38.0397V14.8715H39.6915V13.2196Z" fill="#EDEFEF"/>
<path d="M39.6915 11.5679H38.0397V13.2197H39.6915V11.5679Z" fill="#EDEFEF"/>
<path d="M39.6915 9.91565H38.0397V11.5675H39.6915V9.91565Z" fill="#EDEFEF"/>
<path d="M39.6915 8.26392H38.0397V9.91579H39.6915V8.26392Z" fill="#EDEFEF"/>
<path d="M39.6915 6.6084H38.0397V8.26364H39.6915V6.6084Z" fill="#B71648"/>
<path d="M39.6915 4.95618H38.0397V6.60805H39.6915V4.95618Z" fill="#DB2E5B"/>
<path d="M39.6915 3.30396H38.0397V4.95583H39.6915V3.30396Z" fill="#DB2E5B"/>
<path d="M39.6915 1.65222H38.0397V3.30409H39.6915V1.65222Z" fill="#DB2E5B"/>
<path d="M39.6915 0H38.0397V1.65187H39.6915V0Z" fill="#DE5F86"/>
<path d="M41.3455 31.3921H39.6936V33.044H41.3455V31.3921Z" fill="#BCCACE"/>
<path d="M41.3455 29.7399H39.6936V31.3917H41.3455V29.7399Z" fill="#EDEFEF"/>
<path d="M41.3455 28.0876H39.6936V29.7395H41.3455V28.0876Z" fill="#EDEFEF"/>
<path d="M41.3455 26.4359H39.6936V28.0878H41.3455V26.4359Z" fill="#EDEFEF"/>
<path d="M41.3455 24.7837H39.6936V26.4356H41.3455V24.7837Z" fill="#EDEFEF"/>
<path d="M41.3455 23.132H39.6936V24.7838H41.3455V23.132Z" fill="#EDEFEF"/>
<path d="M41.3455 21.4797H39.6936V23.1316H41.3455V21.4797Z" fill="#EDEFEF"/>
<path d="M41.3455 19.828H39.6936V21.4799H41.3455V19.828Z" fill="#EDEFEF"/>
<path d="M41.3455 18.1758H39.6936V19.8277H41.3455V18.1758Z" fill="#EDEFEF"/>
<path d="M41.3455 16.5236H39.6936V18.1754H41.3455V16.5236Z" fill="#EDEFEF"/>
<path d="M41.3455 14.8718H39.6936V16.5237H41.3455V14.8718Z" fill="#EDEFEF"/>
<path d="M41.3455 13.2196H39.6936V14.8715H41.3455V13.2196Z" fill="#EDEFEF"/>
<path d="M41.3455 11.5679H39.6936V13.2197H41.3455V11.5679Z" fill="#EDEFEF"/>
<path d="M41.3455 9.91565H39.6936V11.5675H41.3455V9.91565Z" fill="#EDEFEF"/>
<path d="M41.3455 8.26392H39.6936V9.91579H41.3455V8.26392Z" fill="#EDEFEF"/>
<path d="M41.3455 6.6084H39.6936V8.26364H41.3455V6.6084Z" fill="#B71648"/>
<path d="M41.3455 4.95618H39.6936V6.60805H41.3455V4.95618Z" fill="#DB2E5B"/>
<path d="M41.3455 3.30396H39.6936V4.95583H41.3455V3.30396Z" fill="#DB2E5B"/>
<path d="M41.3455 1.65222H39.6936V3.30409H41.3455V1.65222Z" fill="#DB2E5B"/>
<path d="M41.3455 0H39.6936V1.65187H41.3455V0Z" fill="#DE5F86"/>
<path d="M42.9953 29.7399H41.3431V31.3917H42.9953V29.7399Z" fill="white"/>
<path d="M42.9953 28.0876H41.3431V29.7395H42.9953V28.0876Z" fill="white"/>
<path d="M42.9953 26.4359H41.3431V28.0878H42.9953V26.4359Z" fill="white"/>
<path d="M42.9953 24.7837H41.3431V26.4356H42.9953V24.7837Z" fill="white"/>
<path d="M42.9953 23.132H41.3431V24.7838H42.9953V23.132Z" fill="white"/>
<path d="M42.9953 21.4797H41.3431V23.1316H42.9953V21.4797Z" fill="white"/>
<path d="M42.9953 19.828H41.3431V21.4799H42.9953V19.828Z" fill="white"/>
<path d="M42.9953 18.1758H41.3431V19.8277H42.9953V18.1758Z" fill="white"/>
<path d="M42.9953 16.5236H41.3431V18.1754H42.9953V16.5236Z" fill="white"/>
<path d="M42.9953 14.8718H41.3431V16.5237H42.9953V14.8718Z" fill="white"/>
<path d="M42.9953 13.2196H41.3431V14.8715H42.9953V13.2196Z" fill="white"/>
<path d="M42.9953 11.5679H41.3431V13.2197H42.9953V11.5679Z" fill="white"/>
<path d="M42.9953 9.91565H41.3431V11.5675H42.9953V9.91565Z" fill="white"/>
<path d="M42.9953 8.26392H41.3431V9.91579H42.9953V8.26392Z" fill="white"/>
<path d="M42.9953 6.6084H41.3431V8.26364H42.9953V6.6084Z" fill="#DB2E5B"/>
<path d="M42.9953 4.95618H41.3431V6.60805H42.9953V4.95618Z" fill="#DE5F86"/>
<path d="M42.9953 3.30396H41.3431V4.95583H42.9953V3.30396Z" fill="#DE5F86"/>
<path d="M42.9953 1.65222H41.3431V3.30409H42.9953V1.65222Z" fill="#DE5F86"/>
<path d="M17.0009 22.8465H16.2925V23.5388H17.0009V22.8465Z" fill="#21201E"/>
<path d="M17.0009 22.1539H16.2925V22.8465H17.0009V22.1539Z" fill="#21201E"/>
<path d="M17.0009 21.4614H16.2925V22.1539H17.0009V21.4614Z" fill="#21201E"/>
<path d="M16.288 23.5384H15.5797V24.2307H16.288V23.5384Z" fill="#21201E"/>
<path d="M16.288 22.8465H15.5797V23.5384H16.288V22.8465Z" fill="#21201E"/>
<path d="M16.288 22.1539H15.5797V22.8465H16.288V22.1539Z" fill="#FFCE33"/>
<path d="M16.288 21.4614H15.5797V22.1539H16.288V21.4614Z" fill="#21201E"/>
<path d="M16.288 20.7695H15.5797V21.4614H16.288V20.7695Z" fill="#21201E"/>
<path d="M16.288 20.077H15.5797V20.7695H16.288V20.077Z" fill="#21201E"/>
<path d="M15.585 27.0004H14.8767V27.6927H15.585V27.0004Z" fill="#21201E"/>
<path d="M15.585 26.3079H14.8767V27.0004H15.585V26.3079Z" fill="#21201E"/>
<path d="M15.585 25.6154H14.8767V26.3079H15.585V25.6154Z" fill="#21201E"/>
<path d="M15.585 24.9234H14.8767V25.6154H15.585V24.9234Z" fill="#21201E"/>
<path d="M15.585 23.5384H14.8767V24.2307H15.585V23.5384Z" fill="#21201E"/>
<path d="M15.585 22.8465H14.8767V23.5384H15.585V22.8465Z" fill="#FFCE33"/>
<path d="M15.585 22.1539H14.8767V22.8465H15.585V22.1539Z" fill="#FFCE33"/>
<path d="M15.585 21.4614H14.8767V22.1539H15.585V21.4614Z" fill="#FFCE33"/>
<path d="M15.585 20.7695H14.8767V21.4614H15.585V20.7695Z" fill="#FFCE33"/>
<path d="M15.585 20.077H14.8767V20.7695H15.585V20.077Z" fill="#21201E"/>
<path d="M15.585 19.3844H14.8767V20.077H15.585V19.3844Z" fill="#21201E"/>
<path d="M15.585 18.6925H14.8767V19.3844H15.585V18.6925Z" fill="#21201E"/>
<path d="M14.8771 35.3077H14.1688V36H14.8771V35.3077Z" fill="#21201E"/>
<path d="M14.8771 34.6158H14.1688V35.3077H14.8771V34.6158Z" fill="#21201E"/>
<path d="M14.8771 33.9232H14.1688V34.6158H14.8771V33.9232Z" fill="#21201E"/>
<path d="M14.8771 33.2307H14.1688V33.9232H14.8771V33.2307Z" fill="#21201E"/>
<path d="M14.8771 32.5388H14.1688V33.2307H14.8771V32.5388Z" fill="#21201E"/>
<path d="M14.8771 31.8463H14.1688V32.5388H14.8771V31.8463Z" fill="#21201E"/>
<path d="M14.8771 31.1537H14.1688V31.8463H14.8771V31.1537Z" fill="#21201E"/>
<path d="M14.8771 30.4618H14.1688V31.1537H14.8771V30.4618Z" fill="#21201E"/>
<path d="M14.8771 29.7693H14.1688V30.4618H14.8771V29.7693Z" fill="#21201E"/>
<path d="M14.8771 29.0768H14.1688V29.7693H14.8771V29.0768Z" fill="#21201E"/>
<path d="M14.8771 28.3849H14.1688V29.0768H14.8771V28.3849Z" fill="#21201E"/>
<path d="M14.8767 27.6927L14.1688 27.6923V28.3849H14.8771L14.8767 27.6927Z" fill="#21201E"/>
<path d="M14.8767 27.0004H14.1688V27.6923L14.8767 27.6927V27.0004Z" fill="#FF3E51"/>
<path d="M14.8767 26.3079H14.1688V27.0004H14.8767V26.3079Z" fill="#FF3E51"/>
<path d="M14.8767 25.6154H14.1688V26.3079H14.8767V25.6154Z" fill="#FF3E51"/>
<path d="M14.8767 24.9234H14.1688V25.6154H14.8767V24.9234Z" fill="#FF97A6"/>
<path d="M14.8767 24.2307L14.1688 24.2309V24.9234H14.8767V24.2307Z" fill="#21201E"/>
<path d="M14.8767 23.5384H14.1688V24.2309L14.8767 24.2307V23.5384Z" fill="#21201E"/>
<path d="M14.8767 22.8465H14.1688V23.5384H14.8767V22.8465Z" fill="#FFCE33"/>
<path d="M14.8767 22.1539H14.1688V22.8465H14.8767V22.1539Z" fill="#FFCE33"/>
<path d="M14.8767 21.4614H14.1688V22.1539H14.8767V21.4614Z" fill="#FFCE33"/>
<path d="M14.8767 20.7695H14.1688V21.4614H14.8767V20.7695Z" fill="#FFCE33"/>
<path d="M14.8767 20.077H14.1688V20.7695H14.8767V20.077Z" fill="#FFCE33"/>
<path d="M14.8767 19.3844H14.1688V20.077H14.8767V19.3844Z" fill="#FFF576"/>
<path d="M14.8767 18.6925H14.1688V19.3844H14.8767V18.6925Z" fill="#21201E"/>
<path d="M14.1688 35.3077H13.4609V36H14.1688V35.3077Z" fill="#21201E"/>
<path d="M14.1688 34.6158H13.4609V35.3077H14.1688V34.6158Z" fill="#FF97A6"/>
<path d="M14.1688 33.9232H13.4609V34.6158H14.1688V33.9232Z" fill="#FF97A6"/>
<path d="M14.1688 33.2307H13.4609V33.9232H14.1688V33.2307Z" fill="#FF97A6"/>
<path d="M14.1688 32.5388H13.4609V33.2307H14.1688V32.5388Z" fill="#FF97A6"/>
<path d="M14.1688 31.8463H13.4609V32.5388H14.1688V31.8463Z" fill="#FF97A6"/>
<path d="M14.1688 31.1537H13.4609V31.8463H14.1688V31.1537Z" fill="#FF97A6"/>
<path d="M14.1688 30.4618H13.4609V31.1537H14.1688V30.4618Z" fill="#FF97A6"/>
<path d="M14.1688 29.7693H13.4609V30.4618H14.1688V29.7693Z" fill="#FF97A6"/>
<path d="M14.1688 29.0768H13.4609V29.7693H14.1688V29.0768Z" fill="#FF3E51"/>
<path d="M14.1688 28.3849H13.4609V29.0768H14.1688V28.3849Z" fill="#B52338"/>
<path d="M14.1688 27.6923H13.4609V28.3849H14.1688V27.6923Z" fill="#21201E"/>
<path d="M14.1688 27.0004H13.4609V27.6923H14.1688V27.0004Z" fill="#FF3E51"/>
<path d="M14.1688 26.3079H13.4609V27.0004H14.1688V26.3079Z" fill="#FF3E51"/>
<path d="M14.1688 25.6154H13.4609V26.3079H14.1688V25.6154Z" fill="#FF3E51"/>
<path d="M14.1688 24.9234H13.4609V25.6154H14.1688V24.9234Z" fill="#FF97A6"/>
<path d="M14.1688 24.2309H13.4609V24.9234H14.1688V24.2309Z" fill="#21201E"/>
<path d="M14.1688 23.5384H13.4609V24.2309H14.1688V23.5384Z" fill="#FFCE33"/>
<path d="M14.1688 22.8465H13.4609V23.5384H14.1688V22.8465Z" fill="#FFCE33"/>
<path d="M14.1688 22.1539H13.4609V22.8465H14.1688V22.1539Z" fill="#FFCE33"/>
<path d="M14.1688 21.4614H13.4609V22.1539H14.1688V21.4614Z" fill="#FFCE33"/>
<path d="M14.1688 20.7695H13.4609V21.4614H14.1688V20.7695Z" fill="#FFCE33"/>
<path d="M14.1688 20.077H13.4609V20.7695H14.1688V20.077Z" fill="#FFCE33"/>
<path d="M14.1688 19.3844H13.4609V20.077H14.1688V19.3844Z" fill="#FFF576"/>
<path d="M14.1688 18.6925H13.4609V19.3844H14.1688V18.6925Z" fill="#21201E"/>
<path d="M14.1692 18H13.4609V18.6925H14.1688L14.1692 18Z" fill="#21201E"/>
<path d="M13.4609 35.3077H12.753V36H13.4609V35.3077Z" fill="#21201E"/>
<path d="M13.4609 34.6158H12.753V35.3077H13.4609V34.6158Z" fill="#FF3E51"/>
<path d="M13.4609 33.9232H12.753V34.6158H13.4609V33.9232Z" fill="#FF3E51"/>
<path d="M13.4609 33.2307H12.753V33.9232H13.4609V33.2307Z" fill="#FF3E51"/>
<path d="M13.4609 32.5388H12.753V33.2307H13.4609V32.5388Z" fill="#FF3E51"/>
<path d="M13.4609 31.8463H12.753V32.5388H13.4609V31.8463Z" fill="#FF3E51"/>
<path d="M13.4609 31.1537H12.753V31.8463H13.4609V31.1537Z" fill="#FF3E51"/>
<path d="M13.4609 30.4618H12.753V31.1537H13.4609V30.4618Z" fill="#FF3E51"/>
<path d="M13.4609 29.7693H12.753V30.4618H13.4609V29.7693Z" fill="#FF3E51"/>
<path d="M13.4609 29.0768H12.753V29.7693H13.4609V29.0768Z" fill="#FF3E51"/>
<path d="M13.4609 28.3849H12.753V29.0768H13.4609V28.3849Z" fill="#B52338"/>
<path d="M13.4609 27.6923H12.753V28.3849H13.4609V27.6923Z" fill="#21201E"/>
<path d="M13.4609 27.0004H12.753V27.6923H13.4609V27.0004Z" fill="#FF3E51"/>
<path d="M13.4609 26.3079H12.753V27.0004H13.4609V26.3079Z" fill="#FF3E51"/>
<path d="M13.4609 25.6154H12.753V26.3079H13.4609V25.6154Z" fill="#FF3E51"/>
<path d="M13.4609 24.9234H12.753V25.6154H13.4609V24.9234Z" fill="#FF97A6"/>
<path d="M13.4609 24.2309H12.753V24.9234H13.4609V24.2309Z" fill="#21201E"/>
<path d="M13.4609 23.5384H12.753V24.2309H13.4609V23.5384Z" fill="#FFCE33"/>
<path d="M13.4609 22.8465H12.753V23.5384H13.4609V22.8465Z" fill="#FFCE33"/>
<path d="M13.4609 22.1539H12.753V22.8465H13.4609V22.1539Z" fill="#FFCE33"/>
<path d="M13.4609 21.4614H12.753V22.1539H13.4609V21.4614Z" fill="#FFCE33"/>
<path d="M13.4609 20.7695H12.753V21.4614H13.4609V20.7695Z" fill="#FFCE33"/>
<path d="M13.4609 20.077H12.753V20.7695H13.4609V20.077Z" fill="#FFCE33"/>
<path d="M13.4609 19.3844H12.753V20.077H13.4609V19.3844Z" fill="#FFF576"/>
<path d="M13.4609 18.6925H12.753V19.3844H13.4609V18.6925Z" fill="#FFF576"/>
<path d="M13.4609 18H12.753V18.6925H13.4609V18Z" fill="#21201E"/>
<path d="M12.7485 35.3077H12.0402V36H12.7485V35.3077Z" fill="#21201E"/>
<path d="M12.7485 34.6158H12.0402V35.3077H12.7485V34.6158Z" fill="#FF3E51"/>
<path d="M12.7485 33.9232H12.0402V34.6158H12.7485V33.9232Z" fill="#FF3E51"/>
<path d="M12.7485 33.2307H12.0402V33.9232H12.7485V33.2307Z" fill="#FF3E51"/>
<path d="M12.7485 32.5388H12.0402V33.2307H12.7485V32.5388Z" fill="#FF3E51"/>
<path d="M12.7485 31.8463H12.0402V32.5388H12.7485V31.8463Z" fill="#FF3E51"/>
<path d="M12.7485 31.1537H12.0402V31.8463H12.7485V31.1537Z" fill="#FF3E51"/>
<path d="M12.7485 30.4618H12.0402V31.1537H12.7485V30.4618Z" fill="#FF3E51"/>
<path d="M12.7485 29.7693H12.0402V30.4618H12.7485V29.7693Z" fill="#FF3E51"/>
<path d="M12.7485 29.0768H12.0402V29.7693H12.7485V29.0768Z" fill="#FF3E51"/>
<path d="M12.7485 28.3849H12.0402V29.0768H12.7485V28.3849Z" fill="#B52338"/>
<path d="M12.7485 27.6923H12.0402V28.3849H12.7485V27.6923Z" fill="#21201E"/>
<path d="M12.7485 27.0004H12.0402V27.6923H12.7485V27.0004Z" fill="#FF3E51"/>
<path d="M12.7485 26.3079H12.0402V27.0004H12.7485V26.3079Z" fill="#FF3E51"/>
<path d="M12.7485 25.6154H12.0402V26.3079H12.7485V25.6154Z" fill="#FF3E51"/>
<path d="M12.7485 24.9234H12.0402V25.6154H12.7485V24.9234Z" fill="#FF97A6"/>
<path d="M12.7485 24.2309H12.0402V24.9234H12.7485V24.2309Z" fill="#21201E"/>
<path d="M12.7485 23.5384H12.0402V24.2309H12.7485V23.5384Z" fill="#FFCE33"/>
<path d="M12.7485 22.8465H12.0402V23.5384H12.7485V22.8465Z" fill="#FF9C31"/>
<path d="M12.7485 22.1539H12.0402V22.8465H12.7485V22.1539Z" fill="#FF9C31"/>
<path d="M12.7485 21.4614H12.0402V22.1539H12.7485V21.4614Z" fill="#FF9C31"/>
<path d="M12.7485 20.7695H12.0402V21.4614H12.7485V20.7695Z" fill="#FFCE33"/>
<path d="M12.7485 20.077H12.0402V20.7695H12.7485V20.077Z" fill="#FFCE33"/>
<path d="M12.7485 19.3844H12.0402V20.077H12.7485V19.3844Z" fill="#FFF576"/>
<path d="M12.7485 18.6925H12.0402V19.3844H12.7485V18.6925Z" fill="#FFF576"/>
<path d="M12.7485 18H12.0402V18.6925H12.7485V18Z" fill="#21201E"/>
<path d="M12.0402 35.3077H11.3323V36H12.0402V35.3077Z" fill="#21201E"/>
<path d="M12.0402 34.6158H11.3323V35.3077H12.0402V34.6158Z" fill="#FF3E51"/>
<path d="M12.0402 33.9232H11.3323V34.6158H12.0402V33.9232Z" fill="#FF3E51"/>
<path d="M12.0402 33.2307H11.3323V33.9232H12.0402V33.2307Z" fill="#FF3E51"/>
<path d="M12.0402 32.5388H11.3323V33.2307H12.0402V32.5388Z" fill="#FF3E51"/>
<path d="M12.0402 31.8463H11.3323V32.5388H12.0402V31.8463Z" fill="#FF3E51"/>
<path d="M12.0402 31.1537H11.3323V31.8463H12.0402V31.1537Z" fill="#FF3E51"/>
<path d="M12.0402 30.4618H11.3323V31.1537H12.0402V30.4618Z" fill="#FF3E51"/>
<path d="M12.0402 29.7693H11.3323V30.4618H12.0402V29.7693Z" fill="#FF3E51"/>
<path d="M12.0402 29.0768H11.3323V29.7693H12.0402V29.0768Z" fill="#FF3E51"/>
<path d="M12.0402 28.3849H11.3323V29.0768H12.0402V28.3849Z" fill="#B52338"/>
<path d="M12.0402 27.6923H11.3323V28.3849H12.0402V27.6923Z" fill="#21201E"/>
<path d="M12.0402 27.0004H11.3323V27.6923H12.0402V27.0004Z" fill="#FF3E51"/>
<path d="M12.0402 26.3079H11.3323V27.0004H12.0402V26.3079Z" fill="#FF3E51"/>
<path d="M12.0402 25.6154H11.3323V26.3079H12.0402V25.6154Z" fill="#FF3E51"/>
<path d="M12.0402 24.9234H11.3323V25.6154H12.0402V24.9234Z" fill="#FF97A6"/>
<path d="M12.0402 24.2309H11.3323V24.9234H12.0402V24.2309Z" fill="#21201E"/>
<path d="M12.0402 23.5384H11.3323V24.2309H12.0402V23.5384Z" fill="#FF9C31"/>
<path d="M12.0402 22.8465H11.3323V23.5384H12.0402V22.8465Z" fill="#FF9C31"/>
<path d="M12.0402 22.1539H11.3323V22.8465H12.0402V22.1539Z" fill="#21201E"/>
<path d="M12.0402 21.4614H11.3323V22.1539H12.0402V21.4614Z" fill="#FF9C31"/>
<path d="M12.0402 20.7695H11.3323V21.4614H12.0402V20.7695Z" fill="#FFF576"/>
<path d="M12.0402 20.077H11.3323V20.7695H12.0402V20.077Z" fill="#FFF576"/>
<path d="M12.0402 19.3844H11.3323V20.077H12.0402V19.3844Z" fill="#FFF576"/>
<path d="M12.0402 18.6925H11.3323V19.3844H12.0402V18.6925Z" fill="#21201E"/>
<path d="M11.3323 35.3077H10.6244V36H11.3323V35.3077Z" fill="#21201E"/>
<path d="M11.3323 34.6158H10.6244V35.3077H11.3323V34.6158Z" fill="#FF3E51"/>
<path d="M11.3323 33.9232H10.6244V34.6158H11.3323V33.9232Z" fill="#FF3E51"/>
<path d="M11.3323 33.2307H10.6244V33.9232H11.3323V33.2307Z" fill="#FF3E51"/>
<path d="M11.3323 32.5388H10.6244V33.2307H11.3323V32.5388Z" fill="#FF3E51"/>
<path d="M11.3323 31.8463H10.6244V32.5388H11.3323V31.8463Z" fill="#FF3E51"/>
<path d="M11.3323 31.1537H10.6244V31.8463H11.3323V31.1537Z" fill="#FF3E51"/>
<path d="M11.3323 30.4618H10.6244V31.1537H11.3323V30.4618Z" fill="#FF3E51"/>
<path d="M11.3323 29.7693H10.6244V30.4618H11.3323V29.7693Z" fill="#FF3E51"/>
<path d="M11.3323 29.0768H10.6244V29.7693H11.3323V29.0768Z" fill="#FF3E51"/>
<path d="M11.3323 28.3849H10.6244V29.0768H11.3323V28.3849Z" fill="#B52338"/>
<path d="M11.3323 27.6923H10.6244V28.3849H11.3323V27.6923Z" fill="#21201E"/>
<path d="M11.3323 27.0004H10.6244V27.6923H11.3323V27.0004Z" fill="#FF3E51"/>
<path d="M11.3323 26.3079H10.6244V27.0004H11.3323V26.3079Z" fill="#FF3E51"/>
<path d="M11.3323 25.6154H10.6244V26.3079H11.3323V25.6154Z" fill="#FF3E51"/>
<path d="M11.3323 24.9234H10.6244V25.6154H11.3323V24.9234Z" fill="#FF97A6"/>
<path d="M11.3323 24.2309H10.6244V24.9234H11.3323V24.2309Z" fill="#21201E"/>
<path d="M11.3323 23.5384H10.6244V24.2309H11.3323V23.5384Z" fill="#FF9C31"/>
<path d="M11.3323 22.8465H10.6244V23.5384H11.3323V22.8465Z" fill="#21201E"/>
<path d="M11.3323 22.1539H10.6244V22.8465H11.3323V22.1539Z" fill="#FF9C31"/>
<path d="M11.3323 21.4614H10.6244V22.1539H11.3323V21.4614Z" fill="#FF9C31"/>
<path d="M11.3323 20.7695H10.6244V21.4614H11.3323V20.7695Z" fill="#FFF576"/>
<path d="M11.3323 20.077H10.6244V20.7695H11.3323V20.077Z" fill="#21201E"/>
<path d="M11.3323 19.3844H10.6244V20.077H11.3323V19.3844Z" fill="#21201E"/>
<path d="M11.3323 18.6925H10.6244V19.3844H11.3323V18.6925Z" fill="#21201E"/>
<path d="M10.6244 35.3077H9.91646V36H10.6244V35.3077Z" fill="#21201E"/>
<path d="M10.6244 34.6158H9.91646V35.3077H10.6244V34.6158Z" fill="#B52338"/>
<path d="M10.6244 33.9232H9.91646V34.6158H10.6244V33.9232Z" fill="#B52338"/>
<path d="M10.6244 33.2307H9.91646V33.9232H10.6244V33.2307Z" fill="#B52338"/>
<path d="M10.6244 32.5388H9.91646V33.2307H10.6244V32.5388Z" fill="#B52338"/>
<path d="M10.6244 31.8463H9.91646V32.5388H10.6244V31.8463Z" fill="#B52338"/>
<path d="M10.6244 31.1537H9.91646V31.8463H10.6244V31.1537Z" fill="#B52338"/>
<path d="M10.6244 30.4618H9.91646V31.1537H10.6244V30.4618Z" fill="#B52338"/>
<path d="M10.6244 29.7693H9.91646V30.4618H10.6244V29.7693Z" fill="#B52338"/>
<path d="M10.6244 29.0768H9.91646V29.7693H10.6244V29.0768Z" fill="#B52338"/>
<path d="M10.6244 28.3849H9.91646V29.0768H10.6244V28.3849Z" fill="#B52338"/>
<path d="M10.6244 27.6923H9.91646V28.3849H10.6244V27.6923Z" fill="#21201E"/>
<path d="M10.6244 27.0004H9.91646V27.6923H10.6244V27.0004Z" fill="#B52338"/>
<path d="M10.6244 26.3079H9.91646V27.0004H10.6244V26.3079Z" fill="#B52338"/>
<path d="M10.6244 25.6154H9.91646V26.3079H10.6244V25.6154Z" fill="#B52338"/>
<path d="M10.6244 24.9234H9.91646V25.6154H10.6244V24.9234Z" fill="#FF97A6"/>
<path d="M10.6244 24.2309H9.91646V24.9234H10.6244V24.2309Z" fill="#21201E"/>
<path d="M10.6244 23.5384H9.91646V24.2309H10.6244V23.5384Z" fill="#21201E"/>
<path d="M10.6244 22.8465H9.91646V23.5384H10.6244V22.8465Z" fill="#FF9C31"/>
<path d="M10.6244 22.1539H9.91646V22.8465H10.6244V22.1539Z" fill="#FF9C31"/>
<path d="M10.6244 21.4614H9.91646V22.1539H10.6244V21.4614Z" fill="#21201E"/>
<path d="M10.6244 20.7695H9.91646V21.4614H10.6244V20.7695Z" fill="#21201E"/>
<path d="M10.6244 20.077H9.91646V20.7695H10.6244V20.077Z" fill="#21201E"/>
<path d="M9.91646 35.3077H9.20855V36H9.91646V35.3077Z" fill="#21201E"/>
<path d="M9.91646 34.6158H9.20855V35.3077H9.91646V34.6158Z" fill="#21201E"/>
<path d="M9.91646 33.9232H9.20855V34.6158H9.91646V33.9232Z" fill="#21201E"/>
<path d="M9.91646 33.2307H9.20855V33.9232H9.91646V33.2307Z" fill="#21201E"/>
<path d="M9.91646 32.5388H9.20855V33.2307H9.91646V32.5388Z" fill="#21201E"/>
<path d="M9.91646 31.8463H9.20855V32.5388H9.91646V31.8463Z" fill="#21201E"/>
<path d="M9.91646 31.1537H9.20855V31.8463H9.91646V31.1537Z" fill="#21201E"/>
<path d="M9.91646 30.4618H9.20855V31.1537H9.91646V30.4618Z" fill="#21201E"/>
<path d="M9.91646 29.7693H9.20855V30.4618H9.91646V29.7693Z" fill="#21201E"/>
<path d="M9.91646 29.0768H9.20855V29.7693H9.91646V29.0768Z" fill="#21201E"/>
<path d="M9.91646 28.3849H9.20855V29.0768H9.91646V28.3849Z" fill="#21201E"/>
<path d="M9.91646 27.6923H9.20855V28.3849H9.91646V27.6923Z" fill="#21201E"/>
<path d="M9.91646 27.0004H9.20855V27.6923H9.91646V27.0004Z" fill="#21201E"/>
<path d="M9.91646 26.3079H9.20855V27.0004H9.91646V26.3079Z" fill="#21201E"/>
<path d="M9.91646 25.6154H9.20855V26.3079H9.91646V25.6154Z" fill="#21201E"/>
<path d="M9.91646 24.9234H9.20855V25.6154H9.91646V24.9234Z" fill="#21201E"/>
<path d="M9.91646 24.2309H9.20855V24.9234H9.91646V24.2309Z" fill="#21201E"/>
<path d="M9.91646 23.5384H9.20855V24.2309H9.91646V23.5384Z" fill="#21201E"/>
<path d="M9.91646 22.8465H9.20855V23.5384H9.91646V22.8465Z" fill="#21201E"/>
<path d="M9.91646 22.1539H9.20855V22.8465H9.91646V22.1539Z" fill="#21201E"/>
<path d="M9.91646 21.4614H9.20855V22.1539H9.91646V21.4614Z" fill="#21201E"/>
<path d="M9.20855 35.3077H8.50065V36H9.20855V35.3077Z" fill="#21201E"/>
<path d="M9.20855 34.6158H8.50065V35.3077H9.20855V34.6158Z" fill="#FFCE33"/>
<path d="M9.20855 33.9232H8.50065V34.6158H9.20855V33.9232Z" fill="#FFCE33"/>
<path d="M9.20855 33.2307H8.50065V33.9232H9.20855V33.2307Z" fill="#FFCE33"/>
<path d="M9.20855 32.5388H8.50065V33.2307H9.20855V32.5388Z" fill="#FFCE33"/>
<path d="M9.20855 31.8463H8.50065V32.5388H9.20855V31.8463Z" fill="#FFCE33"/>
<path d="M9.20855 31.1537H8.50065V31.8463H9.20855V31.1537Z" fill="#FFCE33"/>
<path d="M9.20855 30.4618H8.50065V31.1537H9.20855V30.4618Z" fill="#FF9C31"/>
<path d="M9.20855 29.7693H8.50065V30.4618H9.20855V29.7693Z" fill="#FF9C31"/>
<path d="M9.20855 29.0768H8.50065V29.7693H9.20855V29.0768Z" fill="#FF9C31"/>
<path d="M9.20855 28.3849H8.50065V29.0768H9.20855V28.3849Z" fill="#FF9C31"/>
<path d="M9.20855 27.6923H8.50065V28.3849H9.20855V27.6923Z" fill="#21201E"/>
<path d="M9.20855 27.0004H8.50065V27.6923H9.20855V27.0004Z" fill="#FF9C31"/>
<path d="M9.20855 26.3079H8.50065V27.0004H9.20855V26.3079Z" fill="#FFCE33"/>
<path d="M9.20855 25.6154H8.50065V26.3079H9.20855V25.6154Z" fill="#FFCE33"/>
<path d="M9.20855 24.9234H8.50065V25.6154H9.20855V24.9234Z" fill="#FFF576"/>
<path d="M9.20855 24.2309H8.50065V24.9234H9.20855V24.2309Z" fill="#21201E"/>
<path d="M9.20855 23.5384H8.50065V24.2309H9.20855V23.5384Z" fill="#FFCE33"/>
<path d="M9.20855 22.8465H8.50065V23.5384H9.20855V22.8465Z" fill="#FFF576"/>
<path d="M9.20855 22.1539H8.50065V22.8465H9.20855V22.1539Z" fill="#21201E"/>
<path d="M8.50065 35.3077H7.79275V36H8.50065V35.3077Z" fill="#21201E"/>
<path d="M8.50065 34.6158H7.79275V35.3077H8.50065V34.6158Z" fill="#FFCE33"/>
<path d="M8.50065 33.9232H7.79275V34.6158H8.50065V33.9232Z" fill="#FFCE33"/>
<path d="M8.50065 33.2307H7.79275V33.9232H8.50065V33.2307Z" fill="#FFCE33"/>
<path d="M8.50065 32.5388H7.79275V33.2307H8.50065V32.5388Z" fill="#FFCE33"/>
<path d="M8.50065 31.8463H7.79275V32.5388H8.50065V31.8463Z" fill="#FFCE33"/>
<path d="M8.50065 31.1537H7.79275V31.8463H8.50065V31.1537Z" fill="#FFCE33"/>
<path d="M8.50065 30.4618H7.79275V31.1537H8.50065V30.4618Z" fill="#FFCE33"/>
<path d="M8.50065 29.7693H7.79275V30.4618H8.50065V29.7693Z" fill="#FFCE33"/>
<path d="M8.50065 29.0768H7.79275V29.7693H8.50065V29.0768Z" fill="#FFCE33"/>
<path d="M8.50065 28.3849H7.79275V29.0768H8.50065V28.3849Z" fill="#FF9C31"/>
<path d="M8.50065 27.6923H7.79275V28.3849H8.50065V27.6923Z" fill="#21201E"/>
<path d="M8.50065 27.0004H7.79275V27.6923H8.50065V27.0004Z" fill="#FFCE33"/>
<path d="M8.50065 26.3079H7.79275V27.0004H8.50065V26.3079Z" fill="#FFCE33"/>
<path d="M8.50065 25.6154H7.79275V26.3079H8.50065V25.6154Z" fill="#FFCE33"/>
<path d="M8.50065 24.9234H7.79275V25.6154H8.50065V24.9234Z" fill="#FFF576"/>
<path d="M8.50065 24.2309H7.79275V24.9234H8.50065V24.2309Z" fill="#21201E"/>
<path d="M8.50065 23.5384H7.79275V24.2309H8.50065V23.5384Z" fill="#FFCE33"/>
<path d="M8.50065 22.8465H7.79275V23.5384H8.50065V22.8465Z" fill="#FFF576"/>
<path d="M8.50065 22.1539H7.79275V22.8465H8.50065V22.1539Z" fill="#21201E"/>
<path d="M7.7882 35.3077H7.07989V36H7.7882V35.3077Z" fill="#21201E"/>
<path d="M7.7882 34.6158H7.07989V35.3077H7.7882V34.6158Z" fill="#FFCE33"/>
<path d="M7.7882 33.9232H7.07989V34.6158H7.7882V33.9232Z" fill="#FFCE33"/>
<path d="M7.7882 33.2307H7.07989V33.9232H7.7882V33.2307Z" fill="#FFCE33"/>
<path d="M7.7882 32.5388H7.07989V33.2307H7.7882V32.5388Z" fill="#FFCE33"/>
<path d="M7.7882 31.8463H7.07989V32.5388H7.7882V31.8463Z" fill="#FFCE33"/>
<path d="M7.7882 31.1537H7.07989V31.8463H7.7882V31.1537Z" fill="#FFCE33"/>
<path d="M7.7882 30.4618H7.07989V31.1537H7.7882V30.4618Z" fill="#FFCE33"/>
<path d="M7.7882 29.7693H7.07989V30.4618H7.7882V29.7693Z" fill="#FFCE33"/>
<path d="M7.7882 29.0768H7.07989V29.7693H7.7882V29.0768Z" fill="#FFCE33"/>
<path d="M7.7882 28.3849H7.07989V29.0768H7.7882V28.3849Z" fill="#FF9C31"/>
<path d="M7.7882 27.6923H7.07989V28.3849H7.7882V27.6923Z" fill="#21201E"/>
<path d="M7.7882 27.0004H7.07989V27.6923H7.7882V27.0004Z" fill="#FFCE33"/>
<path d="M7.7882 26.3079H7.07989V27.0004H7.7882V26.3079Z" fill="#FFCE33"/>
<path d="M7.7882 25.6154H7.07989V26.3079H7.7882V25.6154Z" fill="#FFCE33"/>
<path d="M7.7882 24.9234H7.07989V25.6154H7.7882V24.9234Z" fill="#FFF576"/>
<path d="M7.7882 24.2309H7.07989V24.9234H7.7882V24.2309Z" fill="#21201E"/>
<path d="M7.7882 23.5384H7.07989V24.2309H7.7882V23.5384Z" fill="#FFCE33"/>
<path d="M7.7882 22.8465H7.07989V23.5384H7.7882V22.8465Z" fill="#FFCE33"/>
<path d="M7.7882 22.1539H7.07989V22.8465H7.7882V22.1539Z" fill="#21201E"/>
<path d="M7.08525 35.3077H6.37694V36H7.08525V35.3077Z" fill="#21201E"/>
<path d="M7.08525 34.6158H6.37694V35.3077H7.08525V34.6158Z" fill="#21201E"/>
<path d="M7.08525 33.9232H6.37694V34.6158H7.08525V33.9232Z" fill="#21201E"/>
<path d="M7.08525 33.2307H6.37694V33.9232H7.08525V33.2307Z" fill="#21201E"/>
<path d="M7.08525 32.5388H6.37694V33.2307H7.08525V32.5388Z" fill="#21201E"/>
<path d="M7.08525 31.8463H6.37694V32.5388H7.08525V31.8463Z" fill="#21201E"/>
<path d="M7.08525 31.1537H6.37694V31.8463H7.08525V31.1537Z" fill="#21201E"/>
<path d="M7.08525 30.4618H6.37694V31.1537H7.08525V30.4618Z" fill="#21201E"/>
<path d="M7.08525 29.7693H6.37694V30.4618H7.08525V29.7693Z" fill="#21201E"/>
<path d="M7.08525 29.0768H6.37694V29.7693H7.08525V29.0768Z" fill="#21201E"/>
<path d="M7.08525 28.3849H6.37694V29.0768H7.08525V28.3849Z" fill="#21201E"/>
<path d="M7.08525 27.6923H6.37694V28.3849H7.08525V27.6923Z" fill="#21201E"/>
<path d="M7.08525 27.0004H6.37694V27.6923H7.08525V27.0004Z" fill="#21201E"/>
<path d="M7.08525 26.3079H6.37694V27.0004H7.08525V26.3079Z" fill="#21201E"/>
<path d="M7.08525 25.6154H6.37694V26.3079H7.08525V25.6154Z" fill="#21201E"/>
<path d="M7.08525 24.9234H6.37694V25.6154H7.08525V24.9234Z" fill="#21201E"/>
<path d="M7.08525 24.2309H6.37694V24.9234H7.08525V24.2309Z" fill="#21201E"/>
<path d="M7.08525 23.5384H6.37694V24.2309H7.08525V23.5384Z" fill="#21201E"/>
<path d="M7.08525 22.8465H6.37694V23.5384H7.08525V22.8465Z" fill="#21201E"/>
<path d="M7.08525 22.1539H6.37694V22.8465H7.08525V22.1539Z" fill="#21201E"/>
<path d="M6.37694 35.3077H5.66904V36H6.37694V35.3077Z" fill="#21201E"/>
<path d="M6.37694 34.6158H5.66904V35.3077H6.37694V34.6158Z" fill="#B52338"/>
<path d="M6.37694 33.9232H5.66904V34.6158H6.37694V33.9232Z" fill="#B52338"/>
<path d="M6.37694 33.2307H5.66904V33.9232H6.37694V33.2307Z" fill="#B52338"/>
<path d="M6.37694 32.5388H5.66904V33.2307H6.37694V32.5388Z" fill="#B52338"/>
<path d="M6.37694 31.8463H5.66904V32.5388H6.37694V31.8463Z" fill="#B52338"/>
<path d="M6.37694 31.1537H5.66904V31.8463H6.37694V31.1537Z" fill="#B52338"/>
<path d="M6.37694 30.4618H5.66904V31.1537H6.37694V30.4618Z" fill="#B52338"/>
<path d="M6.37694 29.7693H5.66904V30.4618H6.37694V29.7693Z" fill="#B52338"/>
<path d="M6.37694 29.0768H5.66904V29.7693H6.37694V29.0768Z" fill="#B52338"/>
<path d="M6.37694 28.3849H5.66904V29.0768H6.37694V28.3849Z" fill="#B52338"/>
<path d="M6.37694 27.6923H5.66904V28.3849H6.37694V27.6923Z" fill="#21201E"/>
<path d="M6.37694 27.0004H5.66904V27.6923H6.37694V27.0004Z" fill="#B52338"/>
<path d="M6.37694 26.3079H5.66904V27.0004H6.37694V26.3079Z" fill="#B52338"/>
<path d="M6.37694 25.6154H5.66904V26.3079H6.37694V25.6154Z" fill="#B52338"/>
<path d="M6.37694 24.9234H5.66904V25.6154H6.37694V24.9234Z" fill="#FF97A6"/>
<path d="M6.37694 24.2309H5.66904V24.9234H6.37694V24.2309Z" fill="#21201E"/>
<path d="M6.37694 23.5384H5.66904V24.2309H6.37694V23.5384Z" fill="#21201E"/>
<path d="M6.37694 22.8465H5.66904V23.5384H6.37694V22.8465Z" fill="#21201E"/>
<path d="M6.37694 22.1539H5.66904V22.8465H6.37694V22.1539Z" fill="#21201E"/>
<path d="M6.37735 21.4614H5.66904V22.1539H6.37694L6.37735 21.4614Z" fill="#21201E"/>
<path d="M5.66904 35.3077H4.96113V36H5.66904V35.3077Z" fill="#21201E"/>
<path d="M5.66904 34.6158H4.96113V35.3077H5.66904V34.6158Z" fill="#FF3E51"/>
<path d="M5.66904 33.9232H4.96113V34.6158H5.66904V33.9232Z" fill="#FF3E51"/>
<path d="M5.66904 33.2307H4.96113V33.9232H5.66904V33.2307Z" fill="#FF3E51"/>
<path d="M5.66904 32.5388H4.96113V33.2307H5.66904V32.5388Z" fill="#FF3E51"/>
<path d="M5.66904 31.8463H4.96113V32.5388H5.66904V31.8463Z" fill="#FF3E51"/>
<path d="M5.66904 31.1537H4.96113V31.8463H5.66904V31.1537Z" fill="#FF3E51"/>
<path d="M5.66904 30.4618H4.96113V31.1537H5.66904V30.4618Z" fill="#FF3E51"/>
<path d="M5.66904 29.7693H4.96113V30.4618H5.66904V29.7693Z" fill="#FF3E51"/>
<path d="M5.66904 29.0768H4.96113V29.7693H5.66904V29.0768Z" fill="#FF3E51"/>
<path d="M5.66904 28.3849H4.96113V29.0768H5.66904V28.3849Z" fill="#B52338"/>
<path d="M5.66904 27.6923H4.96113V28.3849H5.66904V27.6923Z" fill="#21201E"/>
<path d="M5.66904 27.0004H4.96113V27.6923H5.66904V27.0004Z" fill="#FF3E51"/>
<path d="M5.66904 26.3079H4.96113V27.0004H5.66904V26.3079Z" fill="#FF3E51"/>
<path d="M5.66904 25.6154H4.96113V26.3079H5.66904V25.6154Z" fill="#FF3E51"/>
<path d="M5.66904 24.9234H4.96113V25.6154H5.66904V24.9234Z" fill="#FF97A6"/>
<path d="M5.66904 24.2309H4.96113V24.9234H5.66904V24.2309Z" fill="#21201E"/>
<path d="M5.66904 23.5384H4.96113V24.2309H5.66904V23.5384Z" fill="#21201E"/>
<path d="M5.66904 22.8465H4.96113V23.5384H5.66904V22.8465Z" fill="#FF9C31"/>
<path d="M5.66904 22.1539H4.96113V22.8465H5.66904V22.1539Z" fill="#FF9C31"/>
<path d="M5.66904 21.4614H4.96113V22.1539H5.66904V21.4614Z" fill="#FFF576"/>
<path d="M5.66944 20.7695H4.96113V21.4614H5.66904L5.66944 20.7695Z" fill="#21201E"/>
<path d="M5.66944 20.077H4.96113V20.7695H5.66944V20.077Z" fill="#21201E"/>
<path d="M4.96113 35.3077H4.25323V36H4.96113V35.3077Z" fill="#21201E"/>
<path d="M4.96113 34.6158H4.25323V35.3077H4.96113V34.6158Z" fill="#FF3E51"/>
<path d="M4.96113 33.9232H4.25323V34.6158H4.96113V33.9232Z" fill="#FF3E51"/>
<path d="M4.96113 33.2307H4.25323V33.9232H4.96113V33.2307Z" fill="#FF3E51"/>
<path d="M4.96113 32.5388H4.25323V33.2307H4.96113V32.5388Z" fill="#FF3E51"/>
<path d="M4.96113 31.8463H4.25323V32.5388H4.96113V31.8463Z" fill="#FF3E51"/>
<path d="M4.96113 31.1537H4.25323V31.8463H4.96113V31.1537Z" fill="#FF3E51"/>
<path d="M4.96113 30.4618H4.25323V31.1537H4.96113V30.4618Z" fill="#FF3E51"/>
<path d="M4.96113 29.7693H4.25323V30.4618H4.96113V29.7693Z" fill="#FF3E51"/>
<path d="M4.96113 29.0768H4.25323V29.7693H4.96113V29.0768Z" fill="#FF3E51"/>
<path d="M4.96113 28.3849H4.25323V29.0768H4.96113V28.3849Z" fill="#B52338"/>
<path d="M4.96113 27.6923H4.25323V28.3849H4.96113V27.6923Z" fill="#21201E"/>
<path d="M4.96113 27.0004H4.25323V27.6923H4.96113V27.0004Z" fill="#FF3E51"/>
<path d="M4.96113 26.3079H4.25323V27.0004H4.96113V26.3079Z" fill="#FF3E51"/>
<path d="M4.96113 25.6154H4.25323V26.3079H4.96113V25.6154Z" fill="#FF3E51"/>
<path d="M4.96113 24.9234H4.25323V25.6154H4.96113V24.9234Z" fill="#FF97A6"/>
<path d="M4.96113 24.2309H4.25323V24.9234H4.96113V24.2309Z" fill="#21201E"/>
<path d="M4.96113 23.5384H4.25323V24.2309H4.96113V23.5384Z" fill="#FF9C31"/>
<path d="M4.96113 22.8465H4.25323V23.5384H4.96113V22.8465Z" fill="#21201E"/>
<path d="M4.96113 22.1539H4.25323V22.8465H4.96113V22.1539Z" fill="#FF9C31"/>
<path d="M4.96113 21.4614H4.25323V22.1539H4.96113V21.4614Z" fill="#FF9C31"/>
<path d="M4.96113 20.7695H4.25323V21.4614H4.96113V20.7695Z" fill="#FFF576"/>
<path d="M4.96113 20.077H4.25323V20.7695H4.96113V20.077Z" fill="#21201E"/>
<path d="M4.96154 19.3844H4.25323V20.077H4.96113L4.96154 19.3844Z" fill="#21201E"/>
<path d="M4.24868 35.3077H3.54037V36H4.24868V35.3077Z" fill="#21201E"/>
<path d="M4.24868 34.6158H3.54037V35.3077H4.24868V34.6158Z" fill="#FF3E51"/>
<path d="M4.24868 33.9232H3.54037V34.6158H4.24868V33.9232Z" fill="#FF3E51"/>
<path d="M4.24868 33.2307H3.54037V33.9232H4.24868V33.2307Z" fill="#FF3E51"/>
<path d="M4.24868 32.5388H3.54037V33.2307H4.24868V32.5388Z" fill="#FF3E51"/>
<path d="M4.24868 31.8463H3.54037V32.5388H4.24868V31.8463Z" fill="#FF3E51"/>
<path d="M4.24868 31.1537H3.54037V31.8463H4.24868V31.1537Z" fill="#FF3E51"/>
<path d="M4.24868 30.4618H3.54037V31.1537H4.24868V30.4618Z" fill="#FF3E51"/>
<path d="M4.24868 29.7693H3.54037V30.4618H4.24868V29.7693Z" fill="#FF3E51"/>
<path d="M4.24868 29.0768H3.54037V29.7693H4.24868V29.0768Z" fill="#FF3E51"/>
<path d="M4.24868 28.3849H3.54037V29.0768H4.24868V28.3849Z" fill="#B52338"/>
<path d="M4.24868 27.6923H3.54037V28.3849H4.24868V27.6923Z" fill="#21201E"/>
<path d="M4.24868 27.0004H3.54037V27.6923H4.24868V27.0004Z" fill="#FF3E51"/>
<path d="M4.24868 26.3079H3.54037V27.0004H4.24868V26.3079Z" fill="#FF3E51"/>
<path d="M4.24868 25.6154H3.54037V26.3079H4.24868V25.6154Z" fill="#FF3E51"/>
<path d="M4.24868 24.9234H3.54037V25.6154H4.24868V24.9234Z" fill="#FF97A6"/>
<path d="M4.24868 24.2309H3.54037V24.9234H4.24868V24.2309Z" fill="#21201E"/>
<path d="M4.24868 23.5384H3.54037V24.2309H4.24868V23.5384Z" fill="#FF9C31"/>
<path d="M4.24868 22.8465H3.54037V23.5384H4.24868V22.8465Z" fill="#FF9C31"/>
<path d="M4.24868 22.1539H3.54037V22.8465H4.24868V22.1539Z" fill="#21201E"/>
<path d="M4.24868 21.4614H3.54037V22.1539H4.24868V21.4614Z" fill="#FF9C31"/>
<path d="M4.24868 20.7695H3.54037V21.4614H4.24868V20.7695Z" fill="#FFF576"/>
<path d="M4.24868 20.077H3.54037V20.7695H4.24868V20.077Z" fill="#FFF576"/>
<path d="M4.24868 19.3844H3.54037V20.077H4.24868V19.3844Z" fill="#21201E"/>
<path d="M3.54037 35.3077H2.83247V36H3.54037V35.3077Z" fill="#21201E"/>
<path d="M3.54037 34.6158H2.83247V35.3077H3.54037V34.6158Z" fill="#FF3E51"/>
<path d="M3.54037 33.9232H2.83247V34.6158H3.54037V33.9232Z" fill="#FF3E51"/>
<path d="M3.54037 33.2307H2.83247V33.9232H3.54037V33.2307Z" fill="#FF3E51"/>
<path d="M3.54037 32.5388H2.83247V33.2307H3.54037V32.5388Z" fill="#FF3E51"/>
<path d="M3.54037 31.8463H2.83247V32.5388H3.54037V31.8463Z" fill="#FF3E51"/>
<path d="M3.54037 31.1537H2.83247V31.8463H3.54037V31.1537Z" fill="#FF3E51"/>
<path d="M3.54037 30.4618H2.83247V31.1537H3.54037V30.4618Z" fill="#FF3E51"/>
<path d="M3.54037 29.7693H2.83247V30.4618H3.54037V29.7693Z" fill="#FF3E51"/>
<path d="M3.54037 29.0768H2.83247V29.7693H3.54037V29.0768Z" fill="#FF3E51"/>
<path d="M3.54037 28.3849H2.83247V29.0768H3.54037V28.3849Z" fill="#B52338"/>
<path d="M3.54037 27.6923H2.83247V28.3849H3.54037V27.6923Z" fill="#21201E"/>
<path d="M3.54037 27.0004H2.83247V27.6923H3.54037V27.0004Z" fill="#FF3E51"/>
<path d="M3.54037 26.3079H2.83247V27.0004H3.54037V26.3079Z" fill="#FF3E51"/>
<path d="M3.54037 25.6154H2.83247V26.3079H3.54037V25.6154Z" fill="#FF3E51"/>
<path d="M3.54037 24.9234H2.83247V25.6154H3.54037V24.9234Z" fill="#FF97A6"/>
<path d="M3.54037 24.2309H2.83247V24.9234H3.54037V24.2309Z" fill="#21201E"/>
<path d="M3.54037 23.5384H2.83247V24.2309H3.54037V23.5384Z" fill="#FFCE33"/>
<path d="M3.54037 22.8465H2.83247V23.5384H3.54037V22.8465Z" fill="#FF9C31"/>
<path d="M3.54037 22.1539H2.83247V22.8465H3.54037V22.1539Z" fill="#FF9C31"/>
<path d="M3.54037 21.4614H2.83247V22.1539H3.54037V21.4614Z" fill="#FF9C31"/>
<path d="M3.54037 20.7695H2.83247V21.4614H3.54037V20.7695Z" fill="#FFCE33"/>
<path d="M3.54037 20.077H2.83247V20.7695H3.54037V20.077Z" fill="#FFF576"/>
<path d="M3.54037 19.3844H2.83247V20.077H3.54037V19.3844Z" fill="#21201E"/>
<path d="M2.83247 35.3077H2.12457V36H2.83247V35.3077Z" fill="#21201E"/>
<path d="M2.83247 34.6158H2.12457V35.3077H2.83247V34.6158Z" fill="#FF3E51"/>
<path d="M2.83247 33.9232H2.12457V34.6158H2.83247V33.9232Z" fill="#FF3E51"/>
<path d="M2.83247 33.2307H2.12457V33.9232H2.83247V33.2307Z" fill="#FF3E51"/>
<path d="M2.83247 32.5388H2.12457V33.2307H2.83247V32.5388Z" fill="#FF3E51"/>
<path d="M2.83247 31.8463H2.12457V32.5388H2.83247V31.8463Z" fill="#FF3E51"/>
<path d="M2.83247 31.1537H2.12457V31.8463H2.83247V31.1537Z" fill="#FF3E51"/>
<path d="M2.83247 30.4618H2.12457V31.1537H2.83247V30.4618Z" fill="#FF3E51"/>
<path d="M2.83247 29.7693H2.12457V30.4618H2.83247V29.7693Z" fill="#FF3E51"/>
<path d="M2.83247 29.0768H2.12457V29.7693H2.83247V29.0768Z" fill="#FF3E51"/>
<path d="M2.83247 28.3849H2.12457V29.0768H2.83247V28.3849Z" fill="#B52338"/>
<path d="M2.83247 27.6923H2.12457V28.3849H2.83247V27.6923Z" fill="#21201E"/>
<path d="M2.83247 27.0004H2.12457V27.6923H2.83247V27.0004Z" fill="#FF3E51"/>
<path d="M2.83247 26.3079H2.12457V27.0004H2.83247V26.3079Z" fill="#FF3E51"/>
<path d="M2.83247 25.6154H2.12457V26.3079H2.83247V25.6154Z" fill="#FF3E51"/>
<path d="M2.83247 24.9234H2.12457V25.6154H2.83247V24.9234Z" fill="#FF97A6"/>
<path d="M2.83247 24.2309H2.12457V24.9234H2.83247V24.2309Z" fill="#21201E"/>
<path d="M2.83247 23.5384H2.12457V24.2309H2.83247V23.5384Z" fill="#FFCE33"/>
<path d="M2.83247 22.8465H2.12457V23.5384H2.83247V22.8465Z" fill="#FFCE33"/>
<path d="M2.83247 22.1539H2.12457V22.8465H2.83247V22.1539Z" fill="#FFCE33"/>
<path d="M2.83247 21.4614H2.12457V22.1539H2.83247V21.4614Z" fill="#FFCE33"/>
<path d="M2.83247 20.7695H2.12457V21.4614H2.83247V20.7695Z" fill="#FFCE33"/>
<path d="M2.83247 20.077H2.12457V20.7695H2.83247V20.077Z" fill="#FFF576"/>
<path d="M2.83247 19.3844H2.12457V20.077H2.83247V19.3844Z" fill="#21201E"/>
<path d="M2.12457 35.3077H1.41666V36H2.12457V35.3077Z" fill="#21201E"/>
<path d="M2.12457 34.6158H1.41666V35.3077H2.12457V34.6158Z" fill="#21201E"/>
<path d="M2.12457 33.9232H1.41666V34.6158H2.12457V33.9232Z" fill="#21201E"/>
<path d="M2.12457 33.2307H1.41666V33.9232H2.12457V33.2307Z" fill="#21201E"/>
<path d="M2.12457 32.5388H1.41666V33.2307H2.12457V32.5388Z" fill="#21201E"/>
<path d="M2.12457 31.8463H1.41666V32.5388H2.12457V31.8463Z" fill="#21201E"/>
<path d="M2.12457 31.1537H1.41666V31.8463H2.12457V31.1537Z" fill="#21201E"/>
<path d="M2.12457 30.4618H1.41666V31.1537H2.12457V30.4618Z" fill="#21201E"/>
<path d="M2.12457 29.7693H1.41666V30.4618H2.12457V29.7693Z" fill="#21201E"/>
<path d="M2.12457 29.0768H1.41666V29.7693H2.12457V29.0768Z" fill="#21201E"/>
<path d="M2.12457 28.3849H1.41666V29.0768H2.12457V28.3849Z" fill="#21201E"/>
<path d="M2.12457 27.6923H1.41666V28.3849H2.12457V27.6923Z" fill="#21201E"/>
<path d="M2.12457 27.0004H1.41666V27.6923H2.12457V27.0004Z" fill="#FF3E51"/>
<path d="M2.12457 26.3079H1.41666V27.0004H2.12457V26.3079Z" fill="#FF3E51"/>
<path d="M2.12457 25.6154H1.41666V26.3079H2.12457V25.6154Z" fill="#FF3E51"/>
<path d="M2.12457 24.9234H1.41666V25.6154H2.12457V24.9234Z" fill="#FF97A6"/>
<path d="M2.12457 24.2309H1.41666V24.9234H2.12457V24.2309Z" fill="#21201E"/>
<path d="M2.12457 23.5384H1.41666V24.2309H2.12457V23.5384Z" fill="#21201E"/>
<path d="M2.12457 22.8465H1.41666V23.5384H2.12457V22.8465Z" fill="#FFCE33"/>
<path d="M2.12457 22.1539H1.41666V22.8465H2.12457V22.1539Z" fill="#FFCE33"/>
<path d="M2.12457 21.4614H1.41666V22.1539H2.12457V21.4614Z" fill="#FFCE33"/>
<path d="M2.12457 20.7695H1.41666V21.4614H2.12457V20.7695Z" fill="#FFCE33"/>
<path d="M2.12457 20.077H1.41666V20.7695H2.12457V20.077Z" fill="#FFF576"/>
<path d="M2.12457 19.3844H1.41666V20.077H2.12457V19.3844Z" fill="#21201E"/>
<path d="M1.41666 27.0004H0.708758V27.6927L1.41666 27.6923V27.0004Z" fill="#21201E"/>
<path d="M1.41666 26.3079H0.708758V27.0004H1.41666V26.3079Z" fill="#21201E"/>
<path d="M1.41666 25.6154H0.708758V26.3079H1.41666V25.6154Z" fill="#21201E"/>
<path d="M1.41666 24.9234H0.708758V25.6154H1.41666V24.9234Z" fill="#21201E"/>
<path d="M1.41666 23.5384H0.708758V24.2307L1.41666 24.2309V23.5384Z" fill="#21201E"/>
<path d="M1.41666 22.8465H0.708758V23.5384H1.41666V22.8465Z" fill="#FFCE33"/>
<path d="M1.41666 22.1539H0.708758V22.8465H1.41666V22.1539Z" fill="#FFCE33"/>
<path d="M1.41666 21.4614H0.708758V22.1539H1.41666V21.4614Z" fill="#FFCE33"/>
<path d="M1.41666 20.7695H0.708758V21.4614H1.41666V20.7695Z" fill="#21201E"/>
<path d="M1.41666 20.077H0.708758V20.7695H1.41666V20.077Z" fill="#21201E"/>
<path d="M0.708758 23.5384H0.000854492V24.2307H0.708758V23.5384Z" fill="#21201E"/>
<path d="M0.708758 22.8465H0.000854492V23.5384H0.708758V22.8465Z" fill="#21201E"/>
<path d="M0.708758 22.1539H0.000854492V22.8465H0.708758V22.1539Z" fill="#21201E"/>
<path d="M0.708758 21.4614H0.000854492V22.1539H0.708758V21.4614Z" fill="#21201E"/>
<path d="M0.708758 20.7695H0.000854492V21.4614H0.708758V20.7695Z" fill="#21201E"/>
</svg>
