<svg width="112" height="119" viewBox="0 0 112 119" fill="none" xmlns="http://www.w3.org/2000/svg">
<path d="M112 79.3373H105.413V85.9476H112V79.3373Z" fill="#353535"/>
<path d="M112 72.7263H105.413V79.3373H112V72.7263Z" fill="#FF9700"/>
<path d="M112 66.1166H105.413V72.7263H112V66.1166Z" fill="#FF9700"/>
<path d="M112 59.5056H105.413V66.1166H112V59.5056Z" fill="#FF9700"/>
<path d="M112 52.8855H105.413V59.5096H112V52.8855Z" fill="#EDEFEF"/>
<path d="M112 46.2745H105.413V52.8855H112V46.2745Z" fill="#EDEFEF"/>
<path d="M112 39.6609H105.413V46.2711H112V39.6609Z" fill="#EDEFEF"/>
<path d="M112 33.0511H105.413V39.6609H112V33.0511Z" fill="#EDEFEF"/>
<path d="M105.413 85.9476L98.8254 85.9483V92.5586H105.413L105.413 85.9476Z" fill="#353535"/>
<path d="M105.413 79.3373H98.8254V85.9483L105.413 85.9476V79.3373Z" fill="#FF9700"/>
<path d="M105.413 72.7263H98.8254V79.3373H105.413V72.7263Z" fill="#FFD300"/>
<path d="M105.413 66.1166H98.8254V72.7263H105.413V66.1166Z" fill="#FFD300"/>
<path d="M105.413 59.5056H98.8254V66.1166H105.413V59.5056Z" fill="#FFD300"/>
<path d="M105.413 52.8855H98.8254V59.5096H105.413V52.8855Z" fill="#FFD300"/>
<path d="M105.413 46.2745H98.8254V52.8855H105.413V46.2745Z" fill="#FFD300"/>
<path d="M105.413 39.6609H98.8254V46.2711H105.413V39.6609Z" fill="#FFD300"/>
<path d="M105.413 33.0511H98.8254V39.6609H105.413V33.0511Z" fill="#EDEFEF"/>
<path d="M105.413 26.444H98.8254V33.0543H105.413V26.444Z" fill="#EDEFEF"/>
<path d="M98.8254 92.5586L92.2382 92.5581V99.1683H98.8254L98.8254 92.5586Z" fill="#353535"/>
<path d="M98.8254 85.9483H92.2382V92.5581L98.8254 92.5586V85.9483Z" fill="#FF9700"/>
<path d="M98.8254 79.3373H92.2382V85.9483H98.8254V79.3373Z" fill="#FFD300"/>
<path d="M98.8254 72.7263H92.2382V79.3373H98.8254V72.7263Z" fill="#FFD300"/>
<path d="M98.8254 66.1166H92.2382V72.7263H98.8254V66.1166Z" fill="#FFD300"/>
<path d="M98.8254 59.5056H92.2382V66.1166H98.8254V59.5056Z" fill="#FFD300"/>
<path d="M98.8254 52.8855H92.2382V59.5096H98.8254V52.8855Z" fill="#FFD300"/>
<path d="M98.8254 46.2745H92.2382V52.8855H98.8254V46.2745Z" fill="#FFD300"/>
<path d="M98.8254 39.6609H92.2382V46.2711H98.8254V39.6609Z" fill="#FFD300"/>
<path d="M98.8254 33.0511H92.2382V39.6609H98.8254V33.0511Z" fill="#FFD300"/>
<path d="M98.8254 26.444H92.2382V33.0543H98.8254V26.444Z" fill="#EDEFEF"/>
<path d="M98.8254 19.8317H92.2382V26.444H98.8254L98.8254 19.8317Z" fill="#EDEFEF"/>
<path d="M92.2382 99.1683L85.6511 99.1691V105.779H92.2383L92.2382 99.1683Z" fill="#353535"/>
<path d="M92.2382 92.5581H85.6511V99.1691L92.2382 99.1683V92.5581Z" fill="#FF9700"/>
<path d="M92.2382 85.9483H85.6511V92.5581H92.2382V85.9483Z" fill="#FFD300"/>
<path d="M92.2382 79.3373H85.6511V85.9483H92.2382V79.3373Z" fill="#FFD300"/>
<path d="M92.2382 72.7263H85.6511V79.3373H92.2382V72.7263Z" fill="#FFD300"/>
<path d="M92.2382 66.1166H85.6511V72.7263H92.2382V66.1166Z" fill="#FFD300"/>
<path d="M92.2382 59.5056H85.6511V66.1166H92.2382V59.5056Z" fill="#FFD300"/>
<path d="M92.2382 52.8855H85.6511V59.5096H92.2382V52.8855Z" fill="#FFD300"/>
<path d="M92.2382 46.2745H85.6511V52.8855H92.2382V46.2745Z" fill="#FFD300"/>
<path d="M92.2382 39.6609H85.6511V46.2711H92.2382V39.6609Z" fill="#FFD300"/>
<path d="M92.2382 33.0511H85.6511V39.6609H92.2382V33.0511Z" fill="#FFD300"/>
<path d="M92.2382 26.444H85.6511V33.0543H92.2382V26.444Z" fill="#FFD300"/>
<path d="M92.2382 19.8317H85.6511V26.444H92.2382V19.8317Z" fill="#EDEFEF"/>
<path d="M92.2383 13.222H85.6511V19.8317H92.2382L92.2383 13.222Z" fill="#EDEFEF"/>
<path d="M85.6511 105.779L79.0638 105.779V112.389H85.651L85.6511 105.779Z" fill="#353535"/>
<path d="M85.6511 99.1691H79.0638V105.779L85.6511 105.779V99.1691Z" fill="#FF9700"/>
<path d="M85.6511 92.5581H79.0638V99.1691H85.6511V92.5581Z" fill="#FFD300"/>
<path d="M85.6511 85.9483H79.0638V92.5581H85.6511V85.9483Z" fill="#FFD300"/>
<path d="M85.6511 79.3373H79.0638V85.9483H85.6511V79.3373Z" fill="#FFD300"/>
<path d="M85.6511 72.7263H79.0638V79.3373H85.6511V72.7263Z" fill="#FF9700"/>
<path d="M85.6511 66.1166H79.0638V72.7263H85.6511V66.1166Z" fill="#FF9700"/>
<path d="M85.6511 59.5056H79.0638V66.1166H85.6511V59.5056Z" fill="#FFD300"/>
<path d="M85.6511 52.8855H79.0638V59.5096H85.6511V52.8855Z" fill="#FFD300"/>
<path d="M85.6511 46.2745H79.0638V52.8855H85.6511V46.2745Z" fill="#FFD300"/>
<path d="M85.6511 39.6609H79.0638V46.2711H85.6511V39.6609Z" fill="#FFD300"/>
<path d="M85.6511 33.0511H79.0638V39.6609H85.6511V33.0511Z" fill="#FFD300"/>
<path d="M85.6511 26.444H79.0638V33.0543H85.6511V26.444Z" fill="#FFD300"/>
<path d="M85.6511 19.8317H79.0638V26.444H85.6511V19.8317Z" fill="#FFD300"/>
<path d="M85.6511 13.222H79.0638V19.8317H85.6511V13.222Z" fill="#EDEFEF"/>
<path d="M85.651 6.61101H79.0638V13.222H85.6511L85.651 6.61101Z" fill="#EDEFEF"/>
<path d="M79.0638 105.779H72.4764V112.389H79.0638V105.779Z" fill="#B26100"/>
<path d="M79.0638 99.1691H72.4764V105.779H79.0638V99.1691Z" fill="#FFD300"/>
<path d="M79.0638 92.5581H72.4764V99.1691H79.0638V92.5581Z" fill="#FFD300"/>
<path d="M79.0638 85.9483H72.4764V92.5581H79.0638V85.9483Z" fill="#FFD300"/>
<path d="M79.0638 79.3373H72.4764V85.9483H79.0638V79.3373Z" fill="#FF9700"/>
<path d="M79.0638 72.7263H72.4764V79.3373H79.0638V72.7263Z" fill="#FF9700"/>
<path d="M79.0638 66.1166H72.4764V72.7263H79.0638V66.1166Z" fill="#FF9700"/>
<path d="M79.0638 59.5056H72.4764V66.1166H79.0638V59.5056Z" fill="#FF9700"/>
<path d="M79.0638 52.8855H72.4764V59.5096H79.0638V52.8855Z" fill="#FFD300"/>
<path d="M79.0638 46.2745H72.4764V52.8855H79.0638V46.2745Z" fill="#FFD300"/>
<path d="M79.0638 39.6609H72.4764V46.2711H79.0638V39.6609Z" fill="#FFD300"/>
<path d="M79.0638 33.0511H72.4764V39.6609H79.0638V33.0511Z" fill="#FF9700"/>
<path d="M79.0638 26.444H72.4764V33.0543H79.0638V26.444Z" fill="#FFD300"/>
<path d="M79.0638 19.8317H72.4764V26.444H79.0638V19.8317Z" fill="#FFD300"/>
<path d="M79.0638 13.222H72.4764V19.8317H79.0638V13.222Z" fill="#FFD300"/>
<path d="M79.0638 6.61101H72.4764V13.222H79.0638V6.61101Z" fill="#EDEFEF"/>
<path d="M79.0637 0H72.4764V6.61101H79.0638L79.0637 0Z" fill="#EDEFEF"/>
<path d="M72.4764 112.389L65.8878 112.39V119H72.4751L72.4764 112.389Z" fill="#353535"/>
<path d="M72.4764 105.779H65.8878V112.39L72.4764 112.389V105.779Z" fill="#B26100"/>
<path d="M72.4764 99.1691H65.8878V105.779H72.4764V99.1691Z" fill="#FFD300"/>
<path d="M72.4764 92.5581H65.8878V99.1691H72.4764V92.5581Z" fill="#FFD300"/>
<path d="M72.4764 85.9483H65.8878V92.5581H72.4764V85.9483Z" fill="#FF9700"/>
<path d="M72.4764 79.3373H65.8878V85.9483H72.4764V79.3373Z" fill="#FF9700"/>
<path d="M72.4764 72.7263H65.8878V79.3373H72.4764V72.7263Z" fill="#FFD300"/>
<path d="M72.4764 66.1166H65.8878V72.7263H72.4764V66.1166Z" fill="#FFD300"/>
<path d="M72.4764 59.5056H65.8878V66.1166H72.4764V59.5056Z" fill="#FF9700"/>
<path d="M72.4764 52.8855H65.8878V59.5096H72.4764V52.8855Z" fill="#FFD300"/>
<path d="M72.4764 46.2745H65.8878V52.8855H72.4764V46.2745Z" fill="#FFD300"/>
<path d="M72.4764 39.6609H65.8878V46.2711H72.4764V39.6609Z" fill="#FFD300"/>
<path d="M72.4764 33.0511H65.8878V39.6609H72.4764V33.0511Z" fill="#FF9700"/>
<path d="M72.4764 26.444H65.8878V33.0543H72.4764V26.444Z" fill="#FF9700"/>
<path d="M72.4764 19.8317H65.8878V26.444L72.4751 26.4419L72.4764 19.8317Z" fill="#FFD300"/>
<path d="M72.4764 13.222H65.8878V19.8317H72.4764V13.222Z" fill="#FFD300"/>
<path d="M72.4764 6.61101H65.8878V13.222H72.4764V6.61101Z" fill="#FFD300"/>
<path d="M72.4764 0H65.8878V6.61101H72.4764V0Z" fill="#EDEFEF"/>
<path d="M65.8878 112.39H59.3004V119H65.8878V112.39Z" fill="#353535"/>
<path d="M65.8878 105.779H59.3004V112.39H65.8878V105.779Z" fill="#B26100"/>
<path d="M65.8878 99.1691H59.3004V105.779H65.8878V99.1691Z" fill="#FFD300"/>
<path d="M65.8878 92.5581H59.3004V99.1691H65.8878V92.5581Z" fill="#FFD300"/>
<path d="M65.8878 85.9483H59.3004V92.5581H65.8878V85.9483Z" fill="#FF9700"/>
<path d="M65.8878 79.3373H59.3004V85.9483H65.8878V79.3373Z" fill="#FFD300"/>
<path d="M65.8878 72.7263H59.3004V79.3373H65.8878V72.7263Z" fill="#FFD300"/>
<path d="M65.8878 66.1166H59.3004V72.7263H65.8878V66.1166Z" fill="#FFD300"/>
<path d="M65.8878 59.5056H59.3004V66.1166H65.8878V59.5056Z" fill="#FF9700"/>
<path d="M65.8878 52.8855H59.3004V59.5096H65.8878V52.8855Z" fill="#FF9700"/>
<path d="M65.8878 46.2745H59.3004V52.8855H65.8878V46.2745Z" fill="#FFD300"/>
<path d="M65.8878 39.6609H59.3004V46.2711H65.8878V39.6609Z" fill="#FFD300"/>
<path d="M65.8878 33.0511H59.3004V39.6609H65.8878V33.0511Z" fill="#FFD300"/>
<path d="M65.8878 26.444H59.3004V33.0543H65.8878V26.444Z" fill="#FF9700"/>
<path d="M65.8878 19.8317H59.3004V26.444H65.8878V19.8317Z" fill="#FFD300"/>
<path d="M65.8878 13.222H59.3004V19.8317H65.8878V13.222Z" fill="#FFD300"/>
<path d="M65.8878 6.61101H59.3004V13.222H65.8878V6.61101Z" fill="#FFD300"/>
<path d="M65.8878 0H59.3004V6.61101H65.8878V0Z" fill="#EDEFEF"/>
<path d="M59.3004 112.39H52.7133V119H59.3004V112.39Z" fill="#353535"/>
<path d="M59.3004 105.779H52.7133V112.39H59.3004V105.779Z" fill="#B26100"/>
<path d="M59.3004 99.1691H52.7133V105.779H59.3004V99.1691Z" fill="#FFD300"/>
<path d="M59.3004 92.5581H52.7133V99.1691H59.3004V92.5581Z" fill="#FF9700"/>
<path d="M59.3004 85.9483H52.7133V92.5581H59.3004V85.9483Z" fill="#FF9700"/>
<path d="M59.3004 79.3373H52.7133V85.9483H59.3004V79.3373Z" fill="#FF9700"/>
<path d="M59.3004 72.7263H52.7133V79.3373H59.3004V72.7263Z" fill="#FF9700"/>
<path d="M59.3004 66.1166H52.7133V72.7263H59.3004V66.1166Z" fill="#FF9700"/>
<path d="M59.3004 59.5056H52.7133V66.1166H59.3004V59.5056Z" fill="#FF9700"/>
<path d="M59.3004 52.8855H52.7133V59.5096H59.3004V52.8855Z" fill="#FF9700"/>
<path d="M59.3004 46.2745H52.7133V52.8855H59.3004V46.2745Z" fill="#FF9700"/>
<path d="M59.3004 39.6609H52.7133V46.2711H59.3004V39.6609Z" fill="#FF9700"/>
<path d="M59.3004 33.0511H52.7133V39.6609H59.3004V33.0511Z" fill="#FF9700"/>
<path d="M59.3004 26.444H52.7133V33.0543H59.3004V26.444Z" fill="#FF9700"/>
<path d="M59.3004 19.8317H52.7133V26.444H59.3004V19.8317Z" fill="#FF9700"/>
<path d="M59.3004 13.222H52.7133V19.8317H59.3004V13.222Z" fill="#FFD300"/>
<path d="M59.3004 6.61101H52.7133V13.222H59.3004V6.61101Z" fill="#FFD300"/>
<path d="M59.3004 0H52.7133V6.61101H59.3004V0Z" fill="#EDEFEF"/>
<path d="M52.7133 112.39H46.126V119H52.7133V112.39Z" fill="#353535"/>
<path d="M52.7133 105.779H46.126V112.39H52.7133V105.779Z" fill="#B26100"/>
<path d="M52.7133 99.1691H46.126V105.779H52.7133V99.1691Z" fill="#FFD300"/>
<path d="M52.7133 92.5581H46.126V99.1691H52.7133V92.5581Z" fill="#FFD300"/>
<path d="M52.7133 85.9483H46.126V92.5581H52.7133V85.9483Z" fill="#FF9700"/>
<path d="M52.7133 79.3373H46.126V85.9483H52.7133V79.3373Z" fill="#FF9700"/>
<path d="M52.7133 72.7263H46.126V79.3373H52.7133V72.7263Z" fill="#FFD300"/>
<path d="M52.7133 66.1166H46.126V72.7263H52.7133V66.1166Z" fill="#FFD300"/>
<path d="M52.7133 59.5056H46.126V66.1166H52.7133V59.5056Z" fill="#FFD300"/>
<path d="M52.7133 52.8855H46.126V59.5096H52.7133V52.8855Z" fill="#FF9700"/>
<path d="M52.7133 46.2745H46.126V52.8855H52.7133V46.2745Z" fill="#FFD300"/>
<path d="M52.7133 39.6609H46.126V46.2711H52.7133V39.6609Z" fill="#FFD300"/>
<path d="M52.7133 33.0511H46.126V39.6609H52.7133V33.0511Z" fill="#FF9700"/>
<path d="M52.7133 26.444H46.126V33.0543H52.7133V26.444Z" fill="#FF9700"/>
<path d="M52.7133 19.8317H46.126V26.444H52.7133V19.8317Z" fill="#FFD300"/>
<path d="M52.7133 13.222H46.126V19.8317H52.7133V13.222Z" fill="#FFD300"/>
<path d="M52.7133 6.61101H46.126V13.222H52.7133V6.61101Z" fill="#FFD300"/>
<path d="M52.7133 0H46.126V6.61101H52.7133V0Z" fill="#EDEFEF"/>
<path d="M46.126 112.39H39.5388V119H46.126V112.39Z" fill="#353535"/>
<path d="M46.126 105.779H39.5388V112.39H46.126V105.779Z" fill="#B26100"/>
<path d="M46.126 99.1691H39.5388V105.779H46.126V99.1691Z" fill="#FFD300"/>
<path d="M46.126 92.5581H39.5388V99.1691H46.126V92.5581Z" fill="#FFD300"/>
<path d="M46.126 85.9483H39.5388V92.5581H46.126V85.9483Z" fill="#FFD300"/>
<path d="M46.126 79.3373H39.5388V85.9483H46.126V79.3373Z" fill="#FF9700"/>
<path d="M46.126 72.7263H39.5388V79.3373H46.126V72.7263Z" fill="#FF9700"/>
<path d="M46.126 66.1166H39.5388V72.7263H46.126V66.1166Z" fill="#FFD300"/>
<path d="M46.126 59.5056H39.5388V66.1166H46.126V59.5056Z" fill="#FFD300"/>
<path d="M46.126 52.8855H39.5388V59.5096H46.126V52.8855Z" fill="#FF9700"/>
<path d="M46.126 46.2745H39.5388V52.8855H46.126V46.2745Z" fill="#FF9700"/>
<path d="M46.126 39.6609H39.5388V46.2711H46.126V39.6609Z" fill="#FF9700"/>
<path d="M46.126 33.0511H39.5388V39.6609H46.126V33.0511Z" fill="#FF9700"/>
<path d="M46.126 26.444H39.5388V33.0543H46.126V26.444Z" fill="#FFD300"/>
<path d="M46.126 19.8317H39.5388V26.444H46.126V19.8317Z" fill="#FFD300"/>
<path d="M46.126 13.222H39.5388V19.8317H46.126V13.222Z" fill="#FFD300"/>
<path d="M46.126 6.61101H39.5388V13.222H46.126V6.61101Z" fill="#FFD300"/>
<path d="M46.126 0H39.5388V6.61101H46.126V0Z" fill="#FF9700"/>
<path d="M39.5388 105.779H32.9515V112.389L39.5388 112.39V105.779Z" fill="#353535"/>
<path d="M39.5388 99.1691H32.9515V105.779H39.5388V99.1691Z" fill="#B26100"/>
<path d="M39.5388 92.5581H32.9515V99.1691H39.5388V92.5581Z" fill="#FFD300"/>
<path d="M39.5388 85.9483H32.9515V92.5581H39.5388V85.9483Z" fill="#FFD300"/>
<path d="M39.5388 79.3373H32.9515V85.9483H39.5388V79.3373Z" fill="#FFD300"/>
<path d="M39.5388 72.7263H32.9515V79.3373H39.5388V72.7263Z" fill="#FF9700"/>
<path d="M39.5388 66.1166H32.9515V72.7263H39.5388V66.1166Z" fill="#FFD300"/>
<path d="M39.5388 59.5056H32.9515V66.1166H39.5388V59.5056Z" fill="#FFD300"/>
<path d="M39.5388 52.8855H32.9515V59.5096H39.5388V52.8855Z" fill="#FFD300"/>
<path d="M39.5388 46.2745H32.9515V52.8855H39.5388V46.2745Z" fill="#FF9700"/>
<path d="M39.5388 39.6609H32.9515V46.2711H39.5388V39.6609Z" fill="#FF9700"/>
<path d="M39.5388 33.0511H32.9515V39.6609H39.5388V33.0511Z" fill="#FFD300"/>
<path d="M39.5388 26.444H32.9515V33.0543H39.5388V26.444Z" fill="#FFD300"/>
<path d="M39.5388 19.8317H32.9515V26.444H39.5388V19.8317Z" fill="#FFD300"/>
<path d="M39.5388 13.222H32.9515V19.8317H39.5388V13.222Z" fill="#FFD300"/>
<path d="M39.5388 6.61101H32.9515V13.222H39.5388V6.61101Z" fill="#FF9700"/>
<path d="M39.5388 0H32.9515V6.61101H39.5388V0Z" fill="#353535"/>
<path d="M32.9515 99.1691H26.3642V105.779L32.9515 105.779V99.1691Z" fill="#353535"/>
<path d="M32.9515 92.5581H26.3642V99.1691H32.9515V92.5581Z" fill="#B26100"/>
<path d="M32.9515 85.9483H26.3642V92.5581H32.9515V85.9483Z" fill="#FFD300"/>
<path d="M32.9515 79.3373H26.3642V85.9483H32.9515V79.3373Z" fill="#FFD300"/>
<path d="M32.9515 72.7263H26.3642V79.3373H32.9515V72.7263Z" fill="#FFD300"/>
<path d="M32.9515 66.1166H26.3642V72.7263H32.9515V66.1166Z" fill="#FFD300"/>
<path d="M32.9515 59.5056H26.3642V66.1166H32.9515V59.5056Z" fill="#FFD300"/>
<path d="M32.9515 52.8855H26.3642V59.5096H32.9515V52.8855Z" fill="#FFD300"/>
<path d="M32.9515 46.2745H26.3642V52.8855H32.9515V46.2745Z" fill="#FFD300"/>
<path d="M32.9515 39.6609H26.3642V46.2711H32.9515V39.6609Z" fill="#FFD300"/>
<path d="M32.9515 33.0511H26.3642V39.6609H32.9515V33.0511Z" fill="#FFD300"/>
<path d="M32.9515 26.444H26.3642V33.0543H32.9515V26.444Z" fill="#FFD300"/>
<path d="M32.9515 19.8317H26.3642V26.444H32.9515V19.8317Z" fill="#FFD300"/>
<path d="M32.9515 13.222H26.3642V19.8317H32.9515V13.222Z" fill="#FF9700"/>
<path d="M32.9515 6.61101H26.3642V13.222H32.9515V6.61101Z" fill="#353535"/>
<path d="M26.3642 92.5581H19.7755V99.1683L26.3642 99.1691V92.5581Z" fill="#353535"/>
<path d="M26.3642 85.9483H19.7755V92.5581H26.3642V85.9483Z" fill="#B26100"/>
<path d="M26.3642 79.3373H19.7755V85.9483H26.3642V79.3373Z" fill="#FFD300"/>
<path d="M26.3642 72.7263H19.7755V79.3373H26.3642V72.7263Z" fill="#FFD300"/>
<path d="M26.3642 66.1166H19.7755V72.7263H26.3642V66.1166Z" fill="#FFD300"/>
<path d="M26.3642 59.5056H19.7755V66.1166H26.3642V59.5056Z" fill="#FFD300"/>
<path d="M26.3642 52.8855H19.7755V59.5096H26.3642V52.8855Z" fill="#FFD300"/>
<path d="M26.3642 46.2745H19.7755V52.8855H26.3642V46.2745Z" fill="#FFD300"/>
<path d="M26.3642 39.6609H19.7755V46.2711H26.3642V39.6609Z" fill="#FFD300"/>
<path d="M26.3642 33.0511H19.7755V39.6609H26.3642V33.0511Z" fill="#FFD300"/>
<path d="M26.3642 26.444H19.7755V33.0543H26.3642V26.444Z" fill="#FFD300"/>
<path d="M26.3642 19.8317H19.7755V26.444L26.3628 26.4419L26.3642 19.8317Z" fill="#FF9700"/>
<path d="M26.3642 13.222H19.7755V19.8317H26.3642V13.222Z" fill="#353535"/>
<path d="M19.7755 85.9483H13.1884V92.5586L19.7755 92.5581V85.9483Z" fill="#353535"/>
<path d="M19.7755 79.3373H13.1884V85.9483H19.7755V79.3373Z" fill="#B26100"/>
<path d="M19.7755 72.7263H13.1884V79.3373H19.7755V72.7263Z" fill="#FFD300"/>
<path d="M19.7755 66.1166H13.1884V72.7263H19.7755V66.1166Z" fill="#FFD300"/>
<path d="M19.7755 59.5056H13.1884V66.1166H19.7755V59.5056Z" fill="#FFD300"/>
<path d="M19.7755 52.8855H13.1884V59.5096H19.7755V52.8855Z" fill="#FFD300"/>
<path d="M19.7755 46.2745H13.1884V52.8855H19.7755V46.2745Z" fill="#FFD300"/>
<path d="M19.7755 39.6609H13.1884V46.2711H19.7755V39.6609Z" fill="#FFD300"/>
<path d="M19.7755 33.0511H13.1884V39.6609H19.7755V33.0511Z" fill="#FFD300"/>
<path d="M19.7755 26.444H13.1884V33.0543H19.7755V26.444Z" fill="#FF9700"/>
<path d="M19.7755 19.8317H13.1884V26.444H19.7755V19.8317Z" fill="#353535"/>
<path d="M13.1884 79.3373H6.58711V85.9476L13.1884 85.9483V79.3373Z" fill="#353535"/>
<path d="M13.1884 72.7263H6.58711V79.3373H13.1884V72.7263Z" fill="#B26100"/>
<path d="M13.1884 66.1166H6.58711V72.7263H13.1884V66.1166Z" fill="#B26100"/>
<path d="M13.1884 59.5056H6.58711V66.1166H13.1884V59.5056Z" fill="#B26100"/>
<path d="M13.1884 52.8855H6.58711V59.5096H13.1884V52.8855Z" fill="#B26100"/>
<path d="M13.1884 46.2745H6.58711V52.8855H13.1884V46.2745Z" fill="#B26100"/>
<path d="M13.1884 39.6609H6.58711V46.2711H13.1884V39.6609Z" fill="#B26100"/>
<path d="M13.1884 33.0511H6.58711V39.6609H13.1884V33.0511Z" fill="#B26100"/>
<path d="M13.1884 26.444H6.58711V33.0543H13.1884V26.444Z" fill="#353535"/>
<path d="M6.58711 72.7263H0V79.3365L6.58711 79.3373V72.7263Z" fill="#353535"/>
<path d="M6.58711 66.1166H0V72.7263H6.58711V66.1166Z" fill="#353535"/>
<path d="M6.58711 59.5056H0V66.1166H6.58711V59.5056Z" fill="#353535"/>
<path d="M6.58711 52.8855H0V59.5096H6.58711V52.8855Z" fill="#353535"/>
<path d="M6.58711 46.2745H0V52.8855H6.58711V46.2745Z" fill="#353535"/>
<path d="M6.58711 39.6609H0V46.2711H6.58711V39.6609Z" fill="#353535"/>
<path d="M6.58711 33.0511H0V39.6609H6.58711V33.0511Z" fill="#353535"/>
</svg>
