<svg width="20" height="21" viewBox="0 0 20 21" fill="none" xmlns="http://www.w3.org/2000/svg">
<path d="M19.1111 13.4908H17.9871V14.6148H19.1111V13.4908Z" fill="#353535"/>
<path d="M19.1111 12.3667H17.9871V13.4908H19.1111V12.3667Z" fill="#FF9700"/>
<path d="M19.1111 11.2426H17.9871V12.3667H19.1111V11.2426Z" fill="#FF9700"/>
<path d="M19.1111 10.1186H17.9871V11.2426H19.1111V10.1186Z" fill="#FF9700"/>
<path d="M19.1111 8.99247H17.9871V10.1186H19.1111V8.99247Z" fill="#EDEFEF"/>
<path d="M19.1111 7.86841H17.9871V8.99247H19.1111V7.86841Z" fill="#EDEFEF"/>
<path d="M19.1111 6.74435H17.9871V7.86841H19.1111V6.74435Z" fill="#EDEFEF"/>
<path d="M19.1111 5.6203H17.9871V6.74435H19.1111V5.6203Z" fill="#EDEFEF"/>
<path d="M17.9871 14.6148L16.863 14.6148V15.7388H17.987L17.9871 14.6148Z" fill="#353535"/>
<path d="M17.9871 13.4908H16.863V14.6148L17.9871 14.6148V13.4908Z" fill="#FF9700"/>
<path d="M17.9871 12.3667H16.863V13.4908H17.9871V12.3667Z" fill="#FFD300"/>
<path d="M17.9871 11.2426H16.863V12.3667H17.9871V11.2426Z" fill="#FFD300"/>
<path d="M17.9871 10.1186H16.863V11.2426H17.9871V10.1186Z" fill="#FFD300"/>
<path d="M17.9871 8.99247H16.863V10.1186H17.9871V8.99247Z" fill="#FFD300"/>
<path d="M17.9871 7.86841H16.863V8.99247H17.9871V7.86841Z" fill="#FFD300"/>
<path d="M17.9871 6.74435H16.863V7.86841H17.9871V6.74435Z" fill="#FFD300"/>
<path d="M17.9871 5.6203H16.863V6.74435H17.9871V5.6203Z" fill="#EDEFEF"/>
<path d="M17.987 4.49675H16.863V5.6203H17.9871L17.987 4.49675Z" fill="#EDEFEF"/>
<path d="M16.863 15.7388L15.739 15.7389V16.8629H16.863L16.863 15.7388Z" fill="#353535"/>
<path d="M16.863 14.6148H15.739V15.7389L16.863 15.7388V14.6148Z" fill="#FF9700"/>
<path d="M16.863 13.4908H15.739V14.6148H16.863V13.4908Z" fill="#FFD300"/>
<path d="M16.863 12.3667H15.739V13.4908H16.863V12.3667Z" fill="#FFD300"/>
<path d="M16.863 11.2426H15.739V12.3667H16.863V11.2426Z" fill="#FFD300"/>
<path d="M16.863 10.1186H15.739V11.2426H16.863V10.1186Z" fill="#FFD300"/>
<path d="M16.863 8.99247H15.739V10.1186H16.863V8.99247Z" fill="#FFD300"/>
<path d="M16.863 7.86841H15.739V8.99247H16.863V7.86841Z" fill="#FFD300"/>
<path d="M16.863 6.74435H15.739V7.86841H16.863V6.74435Z" fill="#FFD300"/>
<path d="M16.863 5.6203H15.739V6.74435H16.863V5.6203Z" fill="#FFD300"/>
<path d="M16.863 4.49675H15.739V5.6203H16.863V4.49675Z" fill="#EDEFEF"/>
<path d="M16.863 3.37218H15.739V4.49675H16.863L16.863 3.37218Z" fill="#EDEFEF"/>
<path d="M15.739 16.8629L14.615 16.8629V17.9869H15.7391L15.739 16.8629Z" fill="#353535"/>
<path d="M15.739 15.7389H14.615V16.8629L15.739 16.8629V15.7389Z" fill="#FF9700"/>
<path d="M15.739 14.6148H14.615V15.7389H15.739V14.6148Z" fill="#FFD300"/>
<path d="M15.739 13.4908H14.615V14.6148H15.739V13.4908Z" fill="#FFD300"/>
<path d="M15.739 12.3667H14.615V13.4908H15.739V12.3667Z" fill="#FFD300"/>
<path d="M15.739 11.2426H14.615V12.3667H15.739V11.2426Z" fill="#FFD300"/>
<path d="M15.739 10.1186H14.615V11.2426H15.739V10.1186Z" fill="#FFD300"/>
<path d="M15.739 8.99247H14.615V10.1186H15.739V8.99247Z" fill="#FFD300"/>
<path d="M15.739 7.86841H14.615V8.99247H15.739V7.86841Z" fill="#FFD300"/>
<path d="M15.739 6.74435H14.615V7.86841H15.739V6.74435Z" fill="#FFD300"/>
<path d="M15.739 5.6203H14.615V6.74435H15.739V5.6203Z" fill="#FFD300"/>
<path d="M15.739 4.49675H14.615V5.6203H15.739V4.49675Z" fill="#FFD300"/>
<path d="M15.739 3.37218H14.615V4.49675H15.739V3.37218Z" fill="#EDEFEF"/>
<path d="M15.7391 2.24863H14.615V3.37218H15.739L15.7391 2.24863Z" fill="#EDEFEF"/>
<path d="M14.615 17.9869L13.491 17.987V19.111H14.615L14.615 17.9869Z" fill="#353535"/>
<path d="M14.615 16.8629H13.491V17.987L14.615 17.9869V16.8629Z" fill="#FF9700"/>
<path d="M14.615 15.7389H13.491V16.8629H14.615V15.7389Z" fill="#FFD300"/>
<path d="M14.615 14.6148H13.491V15.7389H14.615V14.6148Z" fill="#FFD300"/>
<path d="M14.615 13.4908H13.491V14.6148H14.615V13.4908Z" fill="#FFD300"/>
<path d="M14.615 12.3667H13.491V13.4908H14.615V12.3667Z" fill="#FF9700"/>
<path d="M14.615 11.2426H13.491V12.3667H14.615V11.2426Z" fill="#FF9700"/>
<path d="M14.615 10.1186H13.491V11.2426H14.615V10.1186Z" fill="#FFD300"/>
<path d="M14.615 8.99247H13.491V10.1186H14.615V8.99247Z" fill="#FFD300"/>
<path d="M14.615 7.86841H13.491V8.99247H14.615V7.86841Z" fill="#FFD300"/>
<path d="M14.615 6.74435H13.491V7.86841H14.615V6.74435Z" fill="#FFD300"/>
<path d="M14.615 5.6203H13.491V6.74435H14.615V5.6203Z" fill="#FFD300"/>
<path d="M14.615 4.49675H13.491V5.6203H14.615V4.49675Z" fill="#FFD300"/>
<path d="M14.615 3.37218H13.491V4.49675H14.615V3.37218Z" fill="#FFD300"/>
<path d="M14.615 2.24863H13.491V3.37218H14.615V2.24863Z" fill="#EDEFEF"/>
<path d="M14.615 1.12406H13.491V2.24863H14.615L14.615 1.12406Z" fill="#EDEFEF"/>
<path d="M13.491 17.987H12.367V19.111H13.491V17.987Z" fill="#B26100"/>
<path d="M13.491 16.8629H12.367V17.987H13.491V16.8629Z" fill="#FFD300"/>
<path d="M13.491 15.7389H12.367V16.8629H13.491V15.7389Z" fill="#FFD300"/>
<path d="M13.491 14.6148H12.367V15.7389H13.491V14.6148Z" fill="#FFD300"/>
<path d="M13.491 13.4908H12.367V14.6148H13.491V13.4908Z" fill="#FF9700"/>
<path d="M13.491 12.3667H12.367V13.4908H13.491V12.3667Z" fill="#FF9700"/>
<path d="M13.491 11.2426H12.367V12.3667H13.491V11.2426Z" fill="#FF9700"/>
<path d="M13.491 10.1186H12.367V11.2426H13.491V10.1186Z" fill="#FF9700"/>
<path d="M13.491 8.99247H12.367V10.1186H13.491V8.99247Z" fill="#FFD300"/>
<path d="M13.491 7.86841H12.367V8.99247H13.491V7.86841Z" fill="#FFD300"/>
<path d="M13.491 6.74435H12.367V7.86841H13.491V6.74435Z" fill="#FFD300"/>
<path d="M13.491 5.6203H12.367V6.74435H13.491V5.6203Z" fill="#FF9700"/>
<path d="M13.491 4.49675H12.367V5.6203H13.491V4.49675Z" fill="#FFD300"/>
<path d="M13.491 3.37218H12.367V4.49675H13.491V3.37218Z" fill="#FFD300"/>
<path d="M13.491 2.24863H12.367V3.37218H13.491V2.24863Z" fill="#FFD300"/>
<path d="M13.491 1.12406H12.367V2.24863H13.491V1.12406Z" fill="#EDEFEF"/>
<path d="M13.491 0H12.367V1.12406H13.491L13.491 0Z" fill="#EDEFEF"/>
<path d="M12.367 19.111L11.2427 19.1111V20.2351H12.3667L12.367 19.111Z" fill="#353535"/>
<path d="M12.367 17.987H11.2427V19.1111L12.367 19.111V17.987Z" fill="#B26100"/>
<path d="M12.367 16.8629H11.2427V17.987H12.367V16.8629Z" fill="#FFD300"/>
<path d="M12.367 15.7389H11.2427V16.8629H12.367V15.7389Z" fill="#FFD300"/>
<path d="M12.367 14.6148H11.2427V15.7389H12.367V14.6148Z" fill="#FF9700"/>
<path d="M12.367 13.4908H11.2427V14.6148H12.367V13.4908Z" fill="#FF9700"/>
<path d="M12.367 12.3667H11.2427V13.4908H12.367V12.3667Z" fill="#FFD300"/>
<path d="M12.367 11.2426H11.2427V12.3667H12.367V11.2426Z" fill="#FFD300"/>
<path d="M12.367 10.1186H11.2427V11.2426H12.367V10.1186Z" fill="#FF9700"/>
<path d="M12.367 8.99247H11.2427V10.1186H12.367V8.99247Z" fill="#FFD300"/>
<path d="M12.367 7.86841H11.2427V8.99247H12.367V7.86841Z" fill="#FFD300"/>
<path d="M12.367 6.74435H11.2427V7.86841H12.367V6.74435Z" fill="#FFD300"/>
<path d="M12.367 5.6203H11.2427V6.74435H12.367V5.6203Z" fill="#FF9700"/>
<path d="M12.367 4.49675H11.2427V5.6203H12.367V4.49675Z" fill="#FF9700"/>
<path d="M12.367 3.37218H11.2427V4.49675H12.367V3.37218Z" fill="#FFD300"/>
<path d="M12.367 2.24863H11.2427V3.37218H12.367V2.24863Z" fill="#FFD300"/>
<path d="M12.367 1.12406H11.2427V2.24863H12.367V1.12406Z" fill="#FFD300"/>
<path d="M12.367 0H11.2427V1.12406H12.367V0Z" fill="#EDEFEF"/>
<path d="M11.2427 19.1111H10.1187V20.2351H11.2427V19.1111Z" fill="#353535"/>
<path d="M11.2427 17.987H10.1187V19.1111H11.2427V17.987Z" fill="#B26100"/>
<path d="M11.2427 16.8629H10.1187V17.987H11.2427V16.8629Z" fill="#FFD300"/>
<path d="M11.2427 15.7389H10.1187V16.8629H11.2427V15.7389Z" fill="#FFD300"/>
<path d="M11.2427 14.6148H10.1187V15.7389H11.2427V14.6148Z" fill="#FF9700"/>
<path d="M11.2427 13.4908H10.1187V14.6148H11.2427V13.4908Z" fill="#FFD300"/>
<path d="M11.2427 12.3667H10.1187V13.4908H11.2427V12.3667Z" fill="#FFD300"/>
<path d="M11.2427 11.2426H10.1187V12.3667H11.2427V11.2426Z" fill="#FFD300"/>
<path d="M11.2427 10.1186H10.1187V11.2426H11.2427V10.1186Z" fill="#FF9700"/>
<path d="M11.2427 8.99247H10.1187V10.1186H11.2427V8.99247Z" fill="#FF9700"/>
<path d="M11.2427 7.86841H10.1187V8.99247H11.2427V7.86841Z" fill="#FFD300"/>
<path d="M11.2427 6.74435H10.1187V7.86841H11.2427V6.74435Z" fill="#FFD300"/>
<path d="M11.2427 5.6203H10.1187V6.74435H11.2427V5.6203Z" fill="#FFD300"/>
<path d="M11.2427 4.49675H10.1187V5.6203H11.2427V4.49675Z" fill="#FF9700"/>
<path d="M11.2427 3.37218H10.1187V4.49675H11.2427V3.37218Z" fill="#FFD300"/>
<path d="M11.2427 2.24863H10.1187V3.37218H11.2427V2.24863Z" fill="#FFD300"/>
<path d="M11.2427 1.12406H10.1187V2.24863H11.2427V1.12406Z" fill="#FFD300"/>
<path d="M11.2427 0H10.1187V1.12406H11.2427V0Z" fill="#EDEFEF"/>
<path d="M10.1187 19.1111H8.99471V20.2351H10.1187V19.1111Z" fill="#353535"/>
<path d="M10.1187 17.987H8.99471V19.1111H10.1187V17.987Z" fill="#B26100"/>
<path d="M10.1187 16.8629H8.99471V17.987H10.1187V16.8629Z" fill="#FFD300"/>
<path d="M10.1187 15.7389H8.99471V16.8629H10.1187V15.7389Z" fill="#FF9700"/>
<path d="M10.1187 14.6148H8.99471V15.7389H10.1187V14.6148Z" fill="#FF9700"/>
<path d="M10.1187 13.4908H8.99471V14.6148H10.1187V13.4908Z" fill="#FF9700"/>
<path d="M10.1187 12.3667H8.99471V13.4908H10.1187V12.3667Z" fill="#FF9700"/>
<path d="M10.1187 11.2426H8.99471V12.3667H10.1187V11.2426Z" fill="#FF9700"/>
<path d="M10.1187 10.1186H8.99471V11.2426H10.1187V10.1186Z" fill="#FF9700"/>
<path d="M10.1187 8.99247H8.99471V10.1186H10.1187V8.99247Z" fill="#FF9700"/>
<path d="M10.1187 7.86841H8.99471V8.99247H10.1187V7.86841Z" fill="#FF9700"/>
<path d="M10.1187 6.74435H8.99471V7.86841H10.1187V6.74435Z" fill="#FF9700"/>
<path d="M10.1187 5.6203H8.99471V6.74435H10.1187V5.6203Z" fill="#FF9700"/>
<path d="M10.1187 4.49675H8.99471V5.6203H10.1187V4.49675Z" fill="#FF9700"/>
<path d="M10.1187 3.37218H8.99471V4.49675H10.1187V3.37218Z" fill="#FF9700"/>
<path d="M10.1187 2.24863H8.99471V3.37218H10.1187V2.24863Z" fill="#FFD300"/>
<path d="M10.1187 1.12406H8.99471V2.24863H10.1187V1.12406Z" fill="#FFD300"/>
<path d="M10.1187 0H8.99471V1.12406H10.1187V0Z" fill="#EDEFEF"/>
<path d="M8.99471 19.1111H7.87069V20.2351H8.99471V19.1111Z" fill="#353535"/>
<path d="M8.99471 17.987H7.87069V19.1111H8.99471V17.987Z" fill="#B26100"/>
<path d="M8.99471 16.8629H7.87069V17.987H8.99471V16.8629Z" fill="#FFD300"/>
<path d="M8.99471 15.7389H7.87069V16.8629H8.99471V15.7389Z" fill="#FFD300"/>
<path d="M8.99471 14.6148H7.87069V15.7389H8.99471V14.6148Z" fill="#FF9700"/>
<path d="M8.99471 13.4908H7.87069V14.6148H8.99471V13.4908Z" fill="#FF9700"/>
<path d="M8.99471 12.3667H7.87069V13.4908H8.99471V12.3667Z" fill="#FFD300"/>
<path d="M8.99471 11.2426H7.87069V12.3667H8.99471V11.2426Z" fill="#FFD300"/>
<path d="M8.99471 10.1186H7.87069V11.2426H8.99471V10.1186Z" fill="#FFD300"/>
<path d="M8.99471 8.99247H7.87069V10.1186H8.99471V8.99247Z" fill="#FF9700"/>
<path d="M8.99471 7.86841H7.87069V8.99247H8.99471V7.86841Z" fill="#FFD300"/>
<path d="M8.99471 6.74435H7.87069V7.86841H8.99471V6.74435Z" fill="#FFD300"/>
<path d="M8.99471 5.6203H7.87069V6.74435H8.99471V5.6203Z" fill="#FF9700"/>
<path d="M8.99471 4.49675H7.87069V5.6203H8.99471V4.49675Z" fill="#FF9700"/>
<path d="M8.99471 3.37218H7.87069V4.49675H8.99471V3.37218Z" fill="#FFD300"/>
<path d="M8.99471 2.24863H7.87069V3.37218H8.99471V2.24863Z" fill="#FFD300"/>
<path d="M8.99471 1.12406H7.87069V2.24863H8.99471V1.12406Z" fill="#FFD300"/>
<path d="M8.99471 0H7.87069V1.12406H8.99471V0Z" fill="#EDEFEF"/>
<path d="M7.87069 19.1111H6.74669V20.2351H7.87069V19.1111Z" fill="#353535"/>
<path d="M7.87069 17.987H6.74669V19.1111H7.87069V17.987Z" fill="#B26100"/>
<path d="M7.87069 16.8629H6.74669V17.987H7.87069V16.8629Z" fill="#FFD300"/>
<path d="M7.87069 15.7389H6.74669V16.8629H7.87069V15.7389Z" fill="#FFD300"/>
<path d="M7.87069 14.6148H6.74669V15.7389H7.87069V14.6148Z" fill="#FFD300"/>
<path d="M7.87069 13.4908H6.74669V14.6148H7.87069V13.4908Z" fill="#FF9700"/>
<path d="M7.87069 12.3667H6.74669V13.4908H7.87069V12.3667Z" fill="#FF9700"/>
<path d="M7.87069 11.2426H6.74669V12.3667H7.87069V11.2426Z" fill="#FFD300"/>
<path d="M7.87069 10.1186H6.74669V11.2426H7.87069V10.1186Z" fill="#FFD300"/>
<path d="M7.87069 8.99247H6.74669V10.1186H7.87069V8.99247Z" fill="#FF9700"/>
<path d="M7.87069 7.86841H6.74669V8.99247H7.87069V7.86841Z" fill="#FF9700"/>
<path d="M7.87069 6.74435H6.74669V7.86841H7.87069V6.74435Z" fill="#FF9700"/>
<path d="M7.87069 5.6203H6.74669V6.74435H7.87069V5.6203Z" fill="#FF9700"/>
<path d="M7.87069 4.49675H6.74669V5.6203H7.87069V4.49675Z" fill="#FFD300"/>
<path d="M7.87069 3.37218H6.74669V4.49675H7.87069V3.37218Z" fill="#FFD300"/>
<path d="M7.87069 2.24863H6.74669V3.37218H7.87069V2.24863Z" fill="#FFD300"/>
<path d="M7.87069 1.12406H6.74669V2.24863H7.87069V1.12406Z" fill="#FFD300"/>
<path d="M7.87069 0H6.74669V1.12406H7.87069V0Z" fill="#FF9700"/>
<path d="M6.74669 17.987H5.62266V19.111L6.74669 19.1111V17.987Z" fill="#353535"/>
<path d="M6.74669 16.8629H5.62266V17.987H6.74669V16.8629Z" fill="#B26100"/>
<path d="M6.74669 15.7389H5.62266V16.8629H6.74669V15.7389Z" fill="#FFD300"/>
<path d="M6.74669 14.6148H5.62266V15.7389H6.74669V14.6148Z" fill="#FFD300"/>
<path d="M6.74669 13.4908H5.62266V14.6148H6.74669V13.4908Z" fill="#FFD300"/>
<path d="M6.74669 12.3667H5.62266V13.4908H6.74669V12.3667Z" fill="#FF9700"/>
<path d="M6.74669 11.2426H5.62266V12.3667H6.74669V11.2426Z" fill="#FFD300"/>
<path d="M6.74669 10.1186H5.62266V11.2426H6.74669V10.1186Z" fill="#FFD300"/>
<path d="M6.74669 8.99247H5.62266V10.1186H6.74669V8.99247Z" fill="#FFD300"/>
<path d="M6.74669 7.86841H5.62266V8.99247H6.74669V7.86841Z" fill="#FF9700"/>
<path d="M6.74669 6.74435H5.62266V7.86841H6.74669V6.74435Z" fill="#FF9700"/>
<path d="M6.74669 5.6203H5.62266V6.74435H6.74669V5.6203Z" fill="#FFD300"/>
<path d="M6.74669 4.49675H5.62266V5.6203H6.74669V4.49675Z" fill="#FFD300"/>
<path d="M6.74669 3.37218H5.62266V4.49675H6.74669V3.37218Z" fill="#FFD300"/>
<path d="M6.74669 2.24863H5.62266V3.37218H6.74669V2.24863Z" fill="#FFD300"/>
<path d="M6.74669 1.12406H5.62266V2.24863H6.74669V1.12406Z" fill="#FF9700"/>
<path d="M6.74669 0H5.62266V1.12406H6.74669V0Z" fill="#353535"/>
<path d="M5.62266 16.8629H4.49864V17.9869L5.62266 17.987V16.8629Z" fill="#353535"/>
<path d="M5.62266 15.7389H4.49864V16.8629H5.62266V15.7389Z" fill="#B26100"/>
<path d="M5.62266 14.6148H4.49864V15.7389H5.62266V14.6148Z" fill="#FFD300"/>
<path d="M5.62266 13.4908H4.49864V14.6148H5.62266V13.4908Z" fill="#FFD300"/>
<path d="M5.62266 12.3667H4.49864V13.4908H5.62266V12.3667Z" fill="#FFD300"/>
<path d="M5.62266 11.2426H4.49864V12.3667H5.62266V11.2426Z" fill="#FFD300"/>
<path d="M5.62266 10.1186H4.49864V11.2426H5.62266V10.1186Z" fill="#FFD300"/>
<path d="M5.62266 8.99247H4.49864V10.1186H5.62266V8.99247Z" fill="#FFD300"/>
<path d="M5.62266 7.86841H4.49864V8.99247H5.62266V7.86841Z" fill="#FFD300"/>
<path d="M5.62266 6.74435H4.49864V7.86841H5.62266V6.74435Z" fill="#FFD300"/>
<path d="M5.62266 5.6203H4.49864V6.74435H5.62266V5.6203Z" fill="#FFD300"/>
<path d="M5.62266 4.49675H4.49864V5.6203H5.62266V4.49675Z" fill="#FFD300"/>
<path d="M5.62266 3.37218H4.49864V4.49675H5.62266V3.37218Z" fill="#FFD300"/>
<path d="M5.62266 2.24863H4.49864V3.37218H5.62266V2.24863Z" fill="#FF9700"/>
<path d="M5.62266 1.12406H4.49864V2.24863H5.62266V1.12406Z" fill="#353535"/>
<path d="M4.49864 15.7389H3.37439V16.8629L4.49864 16.8629V15.7389Z" fill="#353535"/>
<path d="M4.49864 14.6148H3.37439V15.7389H4.49864V14.6148Z" fill="#B26100"/>
<path d="M4.49864 13.4908H3.37439V14.6148H4.49864V13.4908Z" fill="#FFD300"/>
<path d="M4.49864 12.3667H3.37439V13.4908H4.49864V12.3667Z" fill="#FFD300"/>
<path d="M4.49864 11.2426H3.37439V12.3667H4.49864V11.2426Z" fill="#FFD300"/>
<path d="M4.49864 10.1186H3.37439V11.2426H4.49864V10.1186Z" fill="#FFD300"/>
<path d="M4.49864 8.99247H3.37439V10.1186H4.49864V8.99247Z" fill="#FFD300"/>
<path d="M4.49864 7.86841H3.37439V8.99247H4.49864V7.86841Z" fill="#FFD300"/>
<path d="M4.49864 6.74435H3.37439V7.86841H4.49864V6.74435Z" fill="#FFD300"/>
<path d="M4.49864 5.6203H3.37439V6.74435H4.49864V5.6203Z" fill="#FFD300"/>
<path d="M4.49864 4.49675H3.37439V5.6203H4.49864V4.49675Z" fill="#FFD300"/>
<path d="M4.49864 3.37218H3.37439V4.49675H4.49864V3.37218Z" fill="#FF9700"/>
<path d="M4.49864 2.24863H3.37439V3.37218H4.49864V2.24863Z" fill="#353535"/>
<path d="M3.37439 14.6148H2.25039V15.7388L3.37439 15.7389V14.6148Z" fill="#353535"/>
<path d="M3.37439 13.4908H2.25039V14.6148H3.37439V13.4908Z" fill="#B26100"/>
<path d="M3.37439 12.3667H2.25039V13.4908H3.37439V12.3667Z" fill="#FFD300"/>
<path d="M3.37439 11.2426H2.25039V12.3667H3.37439V11.2426Z" fill="#FFD300"/>
<path d="M3.37439 10.1186H2.25039V11.2426H3.37439V10.1186Z" fill="#FFD300"/>
<path d="M3.37439 8.99247H2.25039V10.1186H3.37439V8.99247Z" fill="#FFD300"/>
<path d="M3.37439 7.86841H2.25039V8.99247H3.37439V7.86841Z" fill="#FFD300"/>
<path d="M3.37439 6.74435H2.25039V7.86841H3.37439V6.74435Z" fill="#FFD300"/>
<path d="M3.37439 5.6203H2.25039V6.74435H3.37439V5.6203Z" fill="#FFD300"/>
<path d="M3.37439 4.49675H2.25039V5.6203H3.37439V4.49675Z" fill="#FF9700"/>
<path d="M3.37439 3.37218H2.25039V4.49675H3.37439V3.37218Z" fill="#353535"/>
<path d="M2.25039 13.4908H1.124V14.6148L2.25039 14.6148V13.4908Z" fill="#353535"/>
<path d="M2.25039 12.3667H1.124V13.4908H2.25039V12.3667Z" fill="#B26100"/>
<path d="M2.25039 11.2426H1.124V12.3667H2.25039V11.2426Z" fill="#B26100"/>
<path d="M2.25039 10.1186H1.124V11.2426H2.25039V10.1186Z" fill="#B26100"/>
<path d="M2.25039 8.99247H1.124V10.1186H2.25039V8.99247Z" fill="#B26100"/>
<path d="M2.25039 7.86841H1.124V8.99247H2.25039V7.86841Z" fill="#B26100"/>
<path d="M2.25039 6.74435H1.124V7.86841H2.25039V6.74435Z" fill="#B26100"/>
<path d="M2.25039 5.6203H1.124V6.74435H2.25039V5.6203Z" fill="#B26100"/>
<path d="M2.25039 4.49675H1.124V5.6203H2.25039V4.49675Z" fill="#353535"/>
<path d="M1.124 12.3667H0V13.4907L1.124 13.4908V12.3667Z" fill="#353535"/>
<path d="M1.124 11.2426H0V12.3667H1.124V11.2426Z" fill="#353535"/>
<path d="M1.124 10.1186H0V11.2426H1.124V10.1186Z" fill="#353535"/>
<path d="M1.124 8.99247H0V10.1186H1.124V8.99247Z" fill="#353535"/>
<path d="M1.124 7.86841H0V8.99247H1.124V7.86841Z" fill="#353535"/>
<path d="M1.124 6.74435H0V7.86841H1.124V6.74435Z" fill="#353535"/>
<path d="M1.124 5.6203H0V6.74435H1.124V5.6203Z" fill="#353535"/>
</svg>
