<svg width="292" height="301" viewBox="0 0 292 301" fill="none" xmlns="http://www.w3.org/2000/svg">
<g opacity="0.4" filter="url(#filter0_f_0_7780)">
<path d="M240 183.34H228.943V194.283H240V183.34Z" fill="#FFDF43"/>
<path d="M240 172.396H228.943V183.34H240V172.396Z" fill="#FFDF43"/>
<path d="M240 161.454H228.943V172.396H240V161.454Z" fill="#FFDF43"/>
<path d="M240 150.509H228.943V161.454H240V150.509Z" fill="#FFDF43"/>
<path d="M240 139.55H228.943V150.516H240V139.55Z" fill="#FFDF43"/>
<path d="M240 128.606H228.943V139.55H240V128.606Z" fill="#FFDF43"/>
<path d="M240 117.657H228.943V128.6H240V117.657Z" fill="#FFDF43"/>
<path d="M240 106.715H228.943V117.657H240V106.715Z" fill="#FFDF43"/>
<path d="M228.943 194.283L217.886 194.284V205.227H228.943L228.943 194.283Z" fill="#FFDF43"/>
<path d="M228.943 183.34H217.886V194.284L228.943 194.283V183.34Z" fill="#FFDF43"/>
<path d="M228.943 172.396H217.886V183.34H228.943V172.396Z" fill="#FFDF43"/>
<path d="M228.943 161.454H217.886V172.396H228.943V161.454Z" fill="#FFDF43"/>
<path d="M228.943 150.509H217.886V161.454H228.943V150.509Z" fill="#FFDF43"/>
<path d="M228.943 139.55H217.886V150.516H228.943V139.55Z" fill="#FFDF43"/>
<path d="M228.943 128.606H217.886V139.55H228.943V128.606Z" fill="#FFDF43"/>
<path d="M228.943 117.657H217.886V128.6H228.943V117.657Z" fill="#FFDF43"/>
<path d="M228.943 106.715H217.886V117.657H228.943V106.715Z" fill="#FFDF43"/>
<path d="M228.943 95.7771H217.886V106.72H228.943V95.7771Z" fill="#FFDF43"/>
<path d="M217.886 205.227L206.828 205.226V216.169H217.886L217.886 205.227Z" fill="#FFDF43"/>
<path d="M217.886 194.284H206.828V205.226L217.886 205.227V194.284Z" fill="#FFDF43"/>
<path d="M217.886 183.34H206.828V194.284H217.886V183.34Z" fill="#FFDF43"/>
<path d="M217.886 172.396H206.828V183.34H217.886V172.396Z" fill="#FFDF43"/>
<path d="M217.886 161.454H206.828V172.396H217.886V161.454Z" fill="#FFDF43"/>
<path d="M217.886 150.509H206.828V161.454H217.886V150.509Z" fill="#FFDF43"/>
<path d="M217.886 139.55H206.828V150.516H217.886V139.55Z" fill="#FFDF43"/>
<path d="M217.886 128.606H206.828V139.55H217.886V128.606Z" fill="#FFDF43"/>
<path d="M217.886 117.657H206.828V128.6H217.886V117.657Z" fill="#FFDF43"/>
<path d="M217.886 106.715H206.828V117.657H217.886V106.715Z" fill="#FFDF43"/>
<path d="M217.886 95.7771H206.828V106.72H217.886V95.7771Z" fill="#FFDF43"/>
<path d="M217.886 84.8307H206.828V95.7771H217.886L217.886 84.8307Z" fill="#FFDF43"/>
<path d="M206.828 216.169L195.771 216.171V227.114H206.829L206.828 216.169Z" fill="#FFDF43"/>
<path d="M206.828 205.226H195.771V216.171L206.828 216.169V205.226Z" fill="#FFDF43"/>
<path d="M206.828 194.284H195.771V205.226H206.828V194.284Z" fill="#FFDF43"/>
<path d="M206.828 183.34H195.771V194.284H206.828V183.34Z" fill="#FFDF43"/>
<path d="M206.828 172.396H195.771V183.34H206.828V172.396Z" fill="#FFDF43"/>
<path d="M206.828 161.454H195.771V172.396H206.828V161.454Z" fill="#FFDF43"/>
<path d="M206.828 150.509H195.771V161.454H206.828V150.509Z" fill="#FFDF43"/>
<path d="M206.828 139.55H195.771V150.516H206.828V139.55Z" fill="#FFDF43"/>
<path d="M206.828 128.606H195.771V139.55H206.828V128.606Z" fill="#FFDF43"/>
<path d="M206.828 117.657H195.771V128.6H206.828V117.657Z" fill="#FFDF43"/>
<path d="M206.828 106.715H195.771V117.657H206.828V106.715Z" fill="#FFDF43"/>
<path d="M206.828 95.7771H195.771V106.72H206.828V95.7771Z" fill="#FFDF43"/>
<path d="M206.828 84.8307H195.771V95.7771H206.828V84.8307Z" fill="#FFDF43"/>
<path d="M206.829 73.8886H195.771V84.8307H206.828L206.829 73.8886Z" fill="#FFDF43"/>
<path d="M195.771 227.114L184.714 227.113V238.056H195.771L195.771 227.114Z" fill="#FFDF43"/>
<path d="M195.771 216.171H184.714V227.113L195.771 227.114V216.171Z" fill="#FFDF43"/>
<path d="M195.771 205.226H184.714V216.171H195.771V205.226Z" fill="#FFDF43"/>
<path d="M195.771 194.284H184.714V205.226H195.771V194.284Z" fill="#FFDF43"/>
<path d="M195.771 183.34H184.714V194.284H195.771V183.34Z" fill="#FFDF43"/>
<path d="M195.771 172.396H184.714V183.34H195.771V172.396Z" fill="#FFDF43"/>
<path d="M195.771 161.454H184.714V172.396H195.771V161.454Z" fill="#FFDF43"/>
<path d="M195.771 150.509H184.714V161.454H195.771V150.509Z" fill="#FFDF43"/>
<path d="M195.771 139.55H184.714V150.516H195.771V139.55Z" fill="#FFDF43"/>
<path d="M195.771 128.606H184.714V139.55H195.771V128.606Z" fill="#FFDF43"/>
<path d="M195.771 117.657H184.714V128.6H195.771V117.657Z" fill="#FFDF43"/>
<path d="M195.771 106.715H184.714V117.657H195.771V106.715Z" fill="#FFDF43"/>
<path d="M195.771 95.7771H184.714V106.72H195.771V95.7771Z" fill="#FFDF43"/>
<path d="M195.771 84.8307H184.714V95.7771H195.771V84.8307Z" fill="#FFDF43"/>
<path d="M195.771 73.8886H184.714V84.8307H195.771V73.8886Z" fill="#FFDF43"/>
<path d="M195.771 62.9443H184.714V73.8886H195.771L195.771 62.9443Z" fill="#FFDF43"/>
<path d="M184.714 227.113H173.657V238.056H184.714V227.113Z" fill="#FFDF43"/>
<path d="M184.714 216.171H173.657V227.113H184.714V216.171Z" fill="#FFDF43"/>
<path d="M184.714 205.226H173.657V216.171H184.714V205.226Z" fill="#FFDF43"/>
<path d="M184.714 194.284H173.657V205.226H184.714V194.284Z" fill="#FFDF43"/>
<path d="M184.714 183.34H173.657V194.284H184.714V183.34Z" fill="#FFDF43"/>
<path d="M184.714 172.396H173.657V183.34H184.714V172.396Z" fill="#FFDF43"/>
<path d="M184.714 161.454H173.657V172.396H184.714V161.454Z" fill="#FFDF43"/>
<path d="M184.714 150.509H173.657V161.454H184.714V150.509Z" fill="#FFDF43"/>
<path d="M184.714 139.55H173.657V150.516H184.714V139.55Z" fill="#FFDF43"/>
<path d="M184.714 128.606H173.657V139.55H184.714V128.606Z" fill="#FFDF43"/>
<path d="M184.714 117.657H173.657V128.6H184.714V117.657Z" fill="#FFDF43"/>
<path d="M184.714 106.715H173.657V117.657H184.714V106.715Z" fill="#FFDF43"/>
<path d="M184.714 95.7771H173.657V106.72H184.714V95.7771Z" fill="#FFDF43"/>
<path d="M184.714 84.8307H173.657V95.7771H184.714V84.8307Z" fill="#FFDF43"/>
<path d="M184.714 73.8886H173.657V84.8307H184.714V73.8886Z" fill="#FFDF43"/>
<path d="M184.714 62.9443H173.657V73.8886H184.714V62.9443Z" fill="#FFDF43"/>
<path d="M184.714 52H173.657V62.9443H184.714L184.714 52Z" fill="#FFDF43"/>
<path d="M173.657 238.056L162.597 238.057V249H173.655L173.657 238.056Z" fill="#FFDF43"/>
<path d="M173.657 227.113H162.597V238.057L173.657 238.056V227.113Z" fill="#FFDF43"/>
<path d="M173.657 216.171H162.597V227.113H173.657V216.171Z" fill="#FFDF43"/>
<path d="M173.657 205.226H162.597V216.171H173.657V205.226Z" fill="#FFDF43"/>
<path d="M173.657 194.284H162.597V205.226H173.657V194.284Z" fill="#FFDF43"/>
<path d="M173.657 183.34H162.597V194.284H173.657V183.34Z" fill="#FFDF43"/>
<path d="M173.657 172.396H162.597V183.34H173.657V172.396Z" fill="#FFDF43"/>
<path d="M173.657 161.454H162.597V172.396H173.657V161.454Z" fill="#FFDF43"/>
<path d="M173.657 150.509H162.597V161.454H173.657V150.509Z" fill="#FFDF43"/>
<path d="M173.657 139.55H162.597V150.516H173.657V139.55Z" fill="#FFDF43"/>
<path d="M173.657 128.606H162.597V139.55H173.657V128.606Z" fill="#FFDF43"/>
<path d="M173.657 117.657H162.597V128.6H173.657V117.657Z" fill="#FFDF43"/>
<path d="M173.657 106.715H162.597V117.657H173.657V106.715Z" fill="#FFDF43"/>
<path d="M173.657 95.7771H162.597V106.72H173.657V95.7771Z" fill="#FFDF43"/>
<path d="M173.657 84.8307H162.597V95.7771L173.655 95.7736L173.657 84.8307Z" fill="#FFDF43"/>
<path d="M173.657 73.8886H162.597V84.8307H173.657V73.8886Z" fill="#FFDF43"/>
<path d="M173.657 62.9443H162.597V73.8886H173.657V62.9443Z" fill="#FFDF43"/>
<path d="M173.657 52H162.597V62.9443H173.657V52Z" fill="#FFDF43"/>
<path d="M162.597 238.057H151.54V249H162.597V238.057Z" fill="#FFDF43"/>
<path d="M162.597 227.113H151.54V238.057H162.597V227.113Z" fill="#FFDF43"/>
<path d="M162.597 216.171H151.54V227.113H162.597V216.171Z" fill="#FFDF43"/>
<path d="M162.597 205.226H151.54V216.171H162.597V205.226Z" fill="#FFDF43"/>
<path d="M162.597 194.284H151.54V205.226H162.597V194.284Z" fill="#FFDF43"/>
<path d="M162.597 183.34H151.54V194.284H162.597V183.34Z" fill="#FFDF43"/>
<path d="M162.597 172.396H151.54V183.34H162.597V172.396Z" fill="#FFDF43"/>
<path d="M162.597 161.454H151.54V172.396H162.597V161.454Z" fill="#FFDF43"/>
<path d="M162.597 150.509H151.54V161.454H162.597V150.509Z" fill="#FFDF43"/>
<path d="M162.597 139.55H151.54V150.516H162.597V139.55Z" fill="#FFDF43"/>
<path d="M162.597 128.606H151.54V139.55H162.597V128.606Z" fill="#FFDF43"/>
<path d="M162.597 117.657H151.54V128.6H162.597V117.657Z" fill="#FFDF43"/>
<path d="M162.597 106.715H151.54V117.657H162.597V106.715Z" fill="#FFDF43"/>
<path d="M162.597 95.7771H151.54V106.72H162.597V95.7771Z" fill="#FFDF43"/>
<path d="M162.597 84.8307H151.54V95.7771H162.597V84.8307Z" fill="#FFDF43"/>
<path d="M162.597 73.8886H151.54V84.8307H162.597V73.8886Z" fill="#FFDF43"/>
<path d="M162.597 62.9443H151.54V73.8886H162.597V62.9443Z" fill="#FFDF43"/>
<path d="M162.597 52H151.54V62.9443H162.597V52Z" fill="#FFDF43"/>
<path d="M151.54 238.057H140.483V249H151.54V238.057Z" fill="#FFDF43"/>
<path d="M151.54 227.113H140.483V238.057H151.54V227.113Z" fill="#FFDF43"/>
<path d="M151.54 216.171H140.483V227.113H151.54V216.171Z" fill="#FFDF43"/>
<path d="M151.54 205.226H140.483V216.171H151.54V205.226Z" fill="#FFDF43"/>
<path d="M151.54 194.284H140.483V205.226H151.54V194.284Z" fill="#FFDF43"/>
<path d="M151.54 183.34H140.483V194.284H151.54V183.34Z" fill="#FFDF43"/>
<path d="M151.54 172.396H140.483V183.34H151.54V172.396Z" fill="#FFDF43"/>
<path d="M151.54 161.454H140.483V172.396H151.54V161.454Z" fill="#FFDF43"/>
<path d="M151.54 150.509H140.483V161.454H151.54V150.509Z" fill="#FFDF43"/>
<path d="M151.54 139.55H140.483V150.516H151.54V139.55Z" fill="#FFDF43"/>
<path d="M151.54 128.606H140.483V139.55H151.54V128.606Z" fill="#FFDF43"/>
<path d="M151.54 117.657H140.483V128.6H151.54V117.657Z" fill="#FFDF43"/>
<path d="M151.54 106.715H140.483V117.657H151.54V106.715Z" fill="#FFDF43"/>
<path d="M151.54 95.7771H140.483V106.72H151.54V95.7771Z" fill="#FFDF43"/>
<path d="M151.54 84.8307H140.483V95.7771H151.54V84.8307Z" fill="#FFDF43"/>
<path d="M151.54 73.8886H140.483V84.8307H151.54V73.8886Z" fill="#FFDF43"/>
<path d="M151.54 62.9443H140.483V73.8886H151.54V62.9443Z" fill="#FFDF43"/>
<path d="M151.54 52H140.483V62.9443H151.54V52Z" fill="#FFDF43"/>
<path d="M140.483 238.057H129.426V249H140.483V238.057Z" fill="#FFDF43"/>
<path d="M140.483 227.113H129.426V238.057H140.483V227.113Z" fill="#FFDF43"/>
<path d="M140.483 216.171H129.426V227.113H140.483V216.171Z" fill="#FFDF43"/>
<path d="M140.483 205.226H129.426V216.171H140.483V205.226Z" fill="#FFDF43"/>
<path d="M140.483 194.284H129.426V205.226H140.483V194.284Z" fill="#FFDF43"/>
<path d="M140.483 183.34H129.426V194.284H140.483V183.34Z" fill="#FFDF43"/>
<path d="M140.483 172.396H129.426V183.34H140.483V172.396Z" fill="#FFDF43"/>
<path d="M140.483 161.454H129.426V172.396H140.483V161.454Z" fill="#FFDF43"/>
<path d="M140.483 150.509H129.426V161.454H140.483V150.509Z" fill="#FFDF43"/>
<path d="M140.483 139.55H129.426V150.516H140.483V139.55Z" fill="#FFDF43"/>
<path d="M140.483 128.606H129.426V139.55H140.483V128.606Z" fill="#FFDF43"/>
<path d="M140.483 117.657H129.426V128.6H140.483V117.657Z" fill="#FFDF43"/>
<path d="M140.483 106.715H129.426V117.657H140.483V106.715Z" fill="#FFDF43"/>
<path d="M140.483 95.7771H129.426V106.72H140.483V95.7771Z" fill="#FFDF43"/>
<path d="M140.483 84.8307H129.426V95.7771H140.483V84.8307Z" fill="#FFDF43"/>
<path d="M140.483 73.8886H129.426V84.8307H140.483V73.8886Z" fill="#FFDF43"/>
<path d="M140.483 62.9443H129.426V73.8886H140.483V62.9443Z" fill="#FFDF43"/>
<path d="M140.483 52H129.426V62.9443H140.483V52Z" fill="#FFDF43"/>
<path d="M129.426 238.057H118.369V249H129.426V238.057Z" fill="#FFDF43"/>
<path d="M129.426 227.113H118.369V238.057H129.426V227.113Z" fill="#FFDF43"/>
<path d="M129.426 216.171H118.369V227.113H129.426V216.171Z" fill="#FFDF43"/>
<path d="M129.426 205.226H118.369V216.171H129.426V205.226Z" fill="#FFDF43"/>
<path d="M129.426 194.284H118.369V205.226H129.426V194.284Z" fill="#FFDF43"/>
<path d="M129.426 183.34H118.369V194.284H129.426V183.34Z" fill="#FFDF43"/>
<path d="M129.426 172.396H118.369V183.34H129.426V172.396Z" fill="#FFDF43"/>
<path d="M129.426 161.454H118.369V172.396H129.426V161.454Z" fill="#FFDF43"/>
<path d="M129.426 150.509H118.369V161.454H129.426V150.509Z" fill="#FFDF43"/>
<path d="M129.426 139.55H118.369V150.516H129.426V139.55Z" fill="#FFDF43"/>
<path d="M129.426 128.606H118.369V139.55H129.426V128.606Z" fill="#FFDF43"/>
<path d="M129.426 117.657H118.369V128.6H129.426V117.657Z" fill="#FFDF43"/>
<path d="M129.426 106.715H118.369V117.657H129.426V106.715Z" fill="#FFDF43"/>
<path d="M129.426 95.7771H118.369V106.72H129.426V95.7771Z" fill="#FFDF43"/>
<path d="M129.426 84.8307H118.369V95.7771H129.426V84.8307Z" fill="#FFDF43"/>
<path d="M129.426 73.8886H118.369V84.8307H129.426V73.8886Z" fill="#FFDF43"/>
<path d="M129.426 62.9443H118.369V73.8886H129.426V62.9443Z" fill="#FFDF43"/>
<path d="M129.426 52H118.369V62.9443H129.426V52Z" fill="#FFDF43"/>
<path d="M118.369 227.113H107.311V238.056L118.369 238.057V227.113Z" fill="#FFDF43"/>
<path d="M118.369 216.171H107.311V227.113H118.369V216.171Z" fill="#FFDF43"/>
<path d="M118.369 205.226H107.311V216.171H118.369V205.226Z" fill="#FFDF43"/>
<path d="M118.369 194.284H107.311V205.226H118.369V194.284Z" fill="#FFDF43"/>
<path d="M118.369 183.34H107.311V194.284H118.369V183.34Z" fill="#FFDF43"/>
<path d="M118.369 172.396H107.311V183.34H118.369V172.396Z" fill="#FFDF43"/>
<path d="M118.369 161.454H107.311V172.396H118.369V161.454Z" fill="#FFDF43"/>
<path d="M118.369 150.509H107.311V161.454H118.369V150.509Z" fill="#FFDF43"/>
<path d="M118.369 139.55H107.311V150.516H118.369V139.55Z" fill="#FFDF43"/>
<path d="M118.369 128.606H107.311V139.55H118.369V128.606Z" fill="#FFDF43"/>
<path d="M118.369 117.657H107.311V128.6H118.369V117.657Z" fill="#FFDF43"/>
<path d="M118.369 106.715H107.311V117.657H118.369V106.715Z" fill="#FFDF43"/>
<path d="M118.369 95.7771H107.311V106.72H118.369V95.7771Z" fill="#FFDF43"/>
<path d="M118.369 84.8307H107.311V95.7771H118.369V84.8307Z" fill="#FFDF43"/>
<path d="M118.369 73.8886H107.311V84.8307H118.369V73.8886Z" fill="#FFDF43"/>
<path d="M118.369 62.9443H107.311V73.8886H118.369V62.9443Z" fill="#FFDF43"/>
<path d="M118.369 52H107.311V62.9443H118.369V52Z" fill="#FFDF43"/>
<path d="M107.311 216.171H96.2542V227.114L107.311 227.113V216.171Z" fill="#FFDF43"/>
<path d="M107.311 205.226H96.2542V216.171H107.311V205.226Z" fill="#FFDF43"/>
<path d="M107.311 194.284H96.2542V205.226H107.311V194.284Z" fill="#FFDF43"/>
<path d="M107.311 183.34H96.2542V194.284H107.311V183.34Z" fill="#FFDF43"/>
<path d="M107.311 172.396H96.2542V183.34H107.311V172.396Z" fill="#FFDF43"/>
<path d="M107.311 161.454H96.2542V172.396H107.311V161.454Z" fill="#FFDF43"/>
<path d="M107.311 150.509H96.2542V161.454H107.311V150.509Z" fill="#FFDF43"/>
<path d="M107.311 139.55H96.2542V150.516H107.311V139.55Z" fill="#FFDF43"/>
<path d="M107.311 128.606H96.2542V139.55H107.311V128.606Z" fill="#FFDF43"/>
<path d="M107.311 117.657H96.2542V128.6H107.311V117.657Z" fill="#FFDF43"/>
<path d="M107.311 106.715H96.2542V117.657H107.311V106.715Z" fill="#FFDF43"/>
<path d="M107.311 95.7771H96.2542V106.72H107.311V95.7771Z" fill="#FFDF43"/>
<path d="M107.311 84.8307H96.2542V95.7771H107.311V84.8307Z" fill="#FFDF43"/>
<path d="M107.311 73.8886H96.2542V84.8307H107.311V73.8886Z" fill="#FFDF43"/>
<path d="M107.311 62.9443H96.2542V73.8886H107.311V62.9443Z" fill="#FFDF43"/>
<path d="M96.2542 205.226H85.1947V216.169L96.2542 216.171V205.226Z" fill="#FFDF43"/>
<path d="M96.2542 194.284H85.1947V205.226H96.2542V194.284Z" fill="#FFDF43"/>
<path d="M96.2542 183.34H85.1947V194.284H96.2542V183.34Z" fill="#FFDF43"/>
<path d="M96.2542 172.396H85.1947V183.34H96.2542V172.396Z" fill="#FFDF43"/>
<path d="M96.2542 161.454H85.1947V172.396H96.2542V161.454Z" fill="#FFDF43"/>
<path d="M96.2542 150.509H85.1947V161.454H96.2542V150.509Z" fill="#FFDF43"/>
<path d="M96.2542 139.55H85.1947V150.516H96.2542V139.55Z" fill="#FFDF43"/>
<path d="M96.2542 128.606H85.1947V139.55H96.2542V128.606Z" fill="#FFDF43"/>
<path d="M96.2542 117.657H85.1947V128.6H96.2542V117.657Z" fill="#FFDF43"/>
<path d="M96.2542 106.715H85.1947V117.657H96.2542V106.715Z" fill="#FFDF43"/>
<path d="M96.2542 95.7771H85.1947V106.72H96.2542V95.7771Z" fill="#FFDF43"/>
<path d="M96.2542 84.8307H85.1947V95.7771L96.2518 95.7736L96.2542 84.8307Z" fill="#FFDF43"/>
<path d="M96.2542 73.8886H85.1947V84.8307H96.2542V73.8886Z" fill="#FFDF43"/>
<path d="M85.1947 194.284H74.1377V205.227L85.1947 205.226V194.284Z" fill="#FFDF43"/>
<path d="M85.1947 183.34H74.1377V194.284H85.1947V183.34Z" fill="#FFDF43"/>
<path d="M85.1947 172.396H74.1377V183.34H85.1947V172.396Z" fill="#FFDF43"/>
<path d="M85.1947 161.454H74.1377V172.396H85.1947V161.454Z" fill="#FFDF43"/>
<path d="M85.1947 150.509H74.1377V161.454H85.1947V150.509Z" fill="#FFDF43"/>
<path d="M85.1947 139.55H74.1377V150.516H85.1947V139.55Z" fill="#FFDF43"/>
<path d="M85.1947 128.606H74.1377V139.55H85.1947V128.606Z" fill="#FFDF43"/>
<path d="M85.1947 117.657H74.1377V128.6H85.1947V117.657Z" fill="#FFDF43"/>
<path d="M85.1947 106.715H74.1377V117.657H85.1947V106.715Z" fill="#FFDF43"/>
<path d="M85.1947 95.7771H74.1377V106.72H85.1947V95.7771Z" fill="#FFDF43"/>
<path d="M85.1947 84.8307H74.1377V95.7771H85.1947V84.8307Z" fill="#FFDF43"/>
<path d="M74.1377 183.34H63.0569V194.283L74.1377 194.284V183.34Z" fill="#FFDF43"/>
<path d="M74.1377 172.396H63.0569V183.34H74.1377V172.396Z" fill="#FFDF43"/>
<path d="M74.1377 161.454H63.0569V172.396H74.1377V161.454Z" fill="#FFDF43"/>
<path d="M74.1377 150.509H63.0569V161.454H74.1377V150.509Z" fill="#FFDF43"/>
<path d="M74.1377 139.55H63.0569V150.516H74.1377V139.55Z" fill="#FFDF43"/>
<path d="M74.1377 128.606H63.0569V139.55H74.1377V128.606Z" fill="#FFDF43"/>
<path d="M74.1377 117.657H63.0569V128.6H74.1377V117.657Z" fill="#FFDF43"/>
<path d="M74.1377 106.715H63.0569V117.657H74.1377V106.715Z" fill="#FFDF43"/>
<path d="M74.1377 95.7771H63.0569V106.72H74.1377V95.7771Z" fill="#FFDF43"/>
<path d="M63.0569 172.396H52V183.339L63.0569 183.34V172.396Z" fill="#FFDF43"/>
<path d="M63.0569 161.454H52V172.396H63.0569V161.454Z" fill="#FFDF43"/>
<path d="M63.0569 150.509H52V161.454H63.0569V150.509Z" fill="#FFDF43"/>
<path d="M63.0569 139.55H52V150.516H63.0569V139.55Z" fill="#FFDF43"/>
<path d="M63.0569 128.606H52V139.55H63.0569V128.606Z" fill="#FFDF43"/>
<path d="M63.0569 117.657H52V128.6H63.0569V117.657Z" fill="#FFDF43"/>
<path d="M63.0569 106.715H52V117.657H63.0569V106.715Z" fill="#FFDF43"/>
</g>
<g opacity="0.3">
<g opacity="0.4">
<path d="M227 178.672H217.472V188.06H227V178.672Z" fill="#FFD300"/>
<path d="M227 169.284H217.472V178.672H227V169.284Z" fill="#FFD300"/>
<path d="M227 159.897H217.472V169.284H227V159.897Z" fill="#FFD300"/>
<path d="M227 150.508H217.472V159.897H227V150.508Z" fill="#FFD300"/>
<path d="M227 141.106H217.472V150.514H227V141.106Z" fill="#FFD300"/>
<path d="M227 131.718H217.472V141.106H227V131.718Z" fill="#FFD300"/>
<path d="M227 122.325H217.472V131.713H227V122.325Z" fill="#FFD300"/>
<path d="M227 112.938H217.472V122.325H227V112.938Z" fill="#FFD300"/>
<path d="M217.472 188.06L207.944 188.061V197.449H217.472L217.472 188.06Z" fill="#FFD300"/>
<path d="M217.472 178.672H207.944V188.061L217.472 188.06V178.672Z" fill="#FFD300"/>
<path d="M217.472 169.284H207.944V178.672H217.472V169.284Z" fill="#FFD300"/>
<path d="M217.472 159.897H207.944V169.284H217.472V159.897Z" fill="#FFD300"/>
<path d="M217.472 150.508H207.944V159.897H217.472V150.508Z" fill="#FFD300"/>
<path d="M217.472 141.106H207.944V150.514H217.472V141.106Z" fill="#FFD300"/>
<path d="M217.472 131.718H207.944V141.106H217.472V131.718Z" fill="#FFD300"/>
<path d="M217.472 122.325H207.944V131.713H217.472V122.325Z" fill="#FFD300"/>
<path d="M217.472 112.938H207.944V122.325H217.472V112.938Z" fill="#FFD300"/>
<path d="M217.472 103.555H207.944V112.943H217.472V103.555Z" fill="#FFD300"/>
<path d="M207.944 197.449L198.416 197.448V206.836H207.944L207.944 197.449Z" fill="#FFD300"/>
<path d="M207.944 188.061H198.416V197.448L207.944 197.449V188.061Z" fill="#FFD300"/>
<path d="M207.944 178.672H198.416V188.061H207.944V178.672Z" fill="#FFD300"/>
<path d="M207.944 169.284H198.416V178.672H207.944V169.284Z" fill="#FFD300"/>
<path d="M207.944 159.897H198.416V169.284H207.944V159.897Z" fill="#FFD300"/>
<path d="M207.944 150.508H198.416V159.897H207.944V150.508Z" fill="#FFD300"/>
<path d="M207.944 141.106H198.416V150.514H207.944V141.106Z" fill="#FFD300"/>
<path d="M207.944 131.718H198.416V141.106H207.944V131.718Z" fill="#FFD300"/>
<path d="M207.944 122.325H198.416V131.713H207.944V122.325Z" fill="#FFD300"/>
<path d="M207.944 112.938H198.416V122.325H207.944V112.938Z" fill="#FFD300"/>
<path d="M207.944 103.555H198.416V112.943H207.944V103.555Z" fill="#FFD300"/>
<path d="M207.944 94.1644H198.416V103.555H207.944L207.944 94.1644Z" fill="#FFD300"/>
<path d="M198.416 206.836L188.888 206.837V216.224H198.416L198.416 206.836Z" fill="#FFD300"/>
<path d="M198.416 197.448H188.888V206.837L198.416 206.836V197.448Z" fill="#FFD300"/>
<path d="M198.416 188.061H188.888V197.448H198.416V188.061Z" fill="#FFD300"/>
<path d="M198.416 178.672H188.888V188.061H198.416V178.672Z" fill="#FFD300"/>
<path d="M198.416 169.284H188.888V178.672H198.416V169.284Z" fill="#FFD300"/>
<path d="M198.416 159.897H188.888V169.284H198.416V159.897Z" fill="#FFD300"/>
<path d="M198.416 150.508H188.888V159.897H198.416V150.508Z" fill="#FFD300"/>
<path d="M198.416 141.106H188.888V150.514H198.416V141.106Z" fill="#FFD300"/>
<path d="M198.416 131.718H188.888V141.106H198.416V131.718Z" fill="#FFD300"/>
<path d="M198.416 122.325H188.888V131.713H198.416V122.325Z" fill="#FFD300"/>
<path d="M198.416 112.938H188.888V122.325H198.416V112.938Z" fill="#FFD300"/>
<path d="M198.416 103.555H188.888V112.943H198.416V103.555Z" fill="#FFD300"/>
<path d="M198.416 94.1644H188.888V103.555H198.416V94.1644Z" fill="#FFD300"/>
<path d="M198.416 84.7775H188.888V94.1644H198.416L198.416 84.7775Z" fill="#FFD300"/>
<path d="M188.888 216.224L179.36 216.224V225.611H188.888L188.888 216.224Z" fill="#FFD300"/>
<path d="M188.888 206.837H179.36V216.224L188.888 216.224V206.837Z" fill="#FFD300"/>
<path d="M188.888 197.448H179.36V206.837H188.888V197.448Z" fill="#FFD300"/>
<path d="M188.888 188.061H179.36V197.448H188.888V188.061Z" fill="#FFD300"/>
<path d="M188.888 178.672H179.36V188.061H188.888V178.672Z" fill="#FFD300"/>
<path d="M188.888 169.284H179.36V178.672H188.888V169.284Z" fill="#FFD300"/>
<path d="M188.888 159.897H179.36V169.284H188.888V159.897Z" fill="#FFD300"/>
<path d="M188.888 150.508H179.36V159.897H188.888V150.508Z" fill="#FFD300"/>
<path d="M188.888 141.106H179.36V150.514H188.888V141.106Z" fill="#FFD300"/>
<path d="M188.888 131.718H179.36V141.106H188.888V131.718Z" fill="#FFD300"/>
<path d="M188.888 122.325H179.36V131.713H188.888V122.325Z" fill="#FFD300"/>
<path d="M188.888 112.938H179.36V122.325H188.888V112.938Z" fill="#FFD300"/>
<path d="M188.888 103.555H179.36V112.943H188.888V103.555Z" fill="#FFD300"/>
<path d="M188.888 94.1644H179.36V103.555H188.888V94.1644Z" fill="#FFD300"/>
<path d="M188.888 84.7775H179.36V94.1644H188.888V84.7775Z" fill="#FFD300"/>
<path d="M188.888 75.3887H179.36V84.7775H188.888L188.888 75.3887Z" fill="#FFD300"/>
<path d="M179.36 216.224H169.832V225.611H179.36V216.224Z" fill="#FFD300"/>
<path d="M179.36 206.837H169.832V216.224H179.36V206.837Z" fill="#FFD300"/>
<path d="M179.36 197.448H169.832V206.837H179.36V197.448Z" fill="#FFD300"/>
<path d="M179.36 188.061H169.832V197.448H179.36V188.061Z" fill="#FFD300"/>
<path d="M179.36 178.672H169.832V188.061H179.36V178.672Z" fill="#FFD300"/>
<path d="M179.36 169.284H169.832V178.672H179.36V169.284Z" fill="#FFD300"/>
<path d="M179.36 159.897H169.832V169.284H179.36V159.897Z" fill="#FFD300"/>
<path d="M179.36 150.508H169.832V159.897H179.36V150.508Z" fill="#FFD300"/>
<path d="M179.36 141.106H169.832V150.514H179.36V141.106Z" fill="#FFD300"/>
<path d="M179.36 131.718H169.832V141.106H179.36V131.718Z" fill="#FFD300"/>
<path d="M179.36 122.325H169.832V131.713H179.36V122.325Z" fill="#FFD300"/>
<path d="M179.36 112.938H169.832V122.325H179.36V112.938Z" fill="#FFD300"/>
<path d="M179.36 103.555H169.832V112.943H179.36V103.555Z" fill="#FFD300"/>
<path d="M179.36 94.1644H169.832V103.555H179.36V94.1644Z" fill="#FFD300"/>
<path d="M179.36 84.7775H169.832V94.1644H179.36V84.7775Z" fill="#FFD300"/>
<path d="M179.36 75.3887H169.832V84.7775H179.36V75.3887Z" fill="#FFD300"/>
<path d="M179.36 66H169.832V75.3887H179.36L179.36 66Z" fill="#FFD300"/>
<path d="M169.832 225.611L160.302 225.612V235H169.83L169.832 225.611Z" fill="#FFD300"/>
<path d="M169.832 216.224H160.302V225.612L169.832 225.611V216.224Z" fill="#FFD300"/>
<path d="M169.832 206.837H160.302V216.224H169.832V206.837Z" fill="#FFD300"/>
<path d="M169.832 197.448H160.302V206.837H169.832V197.448Z" fill="#FFD300"/>
<path d="M169.832 188.061H160.302V197.448H169.832V188.061Z" fill="#FFD300"/>
<path d="M169.832 178.672H160.302V188.061H169.832V178.672Z" fill="#FFD300"/>
<path d="M169.832 169.284H160.302V178.672H169.832V169.284Z" fill="#FFD300"/>
<path d="M169.832 159.897H160.302V169.284H169.832V159.897Z" fill="#FFD300"/>
<path d="M169.832 150.508H160.302V159.897H169.832V150.508Z" fill="#FFD300"/>
<path d="M169.832 141.106H160.302V150.514H169.832V141.106Z" fill="#FFD300"/>
<path d="M169.832 131.718H160.302V141.106H169.832V131.718Z" fill="#FFD300"/>
<path d="M169.832 122.325H160.302V131.713H169.832V122.325Z" fill="#FFD300"/>
<path d="M169.832 112.938H160.302V122.325H169.832V112.938Z" fill="#FFD300"/>
<path d="M169.832 103.555H160.302V112.943H169.832V103.555Z" fill="#FFD300"/>
<path d="M169.832 94.1644H160.302V103.555L169.83 103.552L169.832 94.1644Z" fill="#FFD300"/>
<path d="M169.832 84.7775H160.302V94.1644H169.832V84.7775Z" fill="#FFD300"/>
<path d="M169.832 75.3887H160.302V84.7775H169.832V75.3887Z" fill="#FFD300"/>
<path d="M169.832 66H160.302V75.3887H169.832V66Z" fill="#FFD300"/>
<path d="M160.302 225.612H150.774V235H160.302V225.612Z" fill="#FFD300"/>
<path d="M160.302 216.224H150.774V225.612H160.302V216.224Z" fill="#FFD300"/>
<path d="M160.302 206.837H150.774V216.224H160.302V206.837Z" fill="#FFD300"/>
<path d="M160.302 197.448H150.774V206.837H160.302V197.448Z" fill="#FFD300"/>
<path d="M160.302 188.061H150.774V197.448H160.302V188.061Z" fill="#FFD300"/>
<path d="M160.302 178.672H150.774V188.061H160.302V178.672Z" fill="#FFD300"/>
<path d="M160.302 169.284H150.774V178.672H160.302V169.284Z" fill="#FFD300"/>
<path d="M160.302 159.897H150.774V169.284H160.302V159.897Z" fill="#FFD300"/>
<path d="M160.302 150.508H150.774V159.897H160.302V150.508Z" fill="#FFD300"/>
<path d="M160.302 141.106H150.774V150.514H160.302V141.106Z" fill="#FFD300"/>
<path d="M160.302 131.718H150.774V141.106H160.302V131.718Z" fill="#FFD300"/>
<path d="M160.302 122.325H150.774V131.713H160.302V122.325Z" fill="#FFD300"/>
<path d="M160.302 112.938H150.774V122.325H160.302V112.938Z" fill="#FFD300"/>
<path d="M160.302 103.555H150.774V112.943H160.302V103.555Z" fill="#FFD300"/>
<path d="M160.302 94.1644H150.774V103.555H160.302V94.1644Z" fill="#FFD300"/>
<path d="M160.302 84.7775H150.774V94.1644H160.302V84.7775Z" fill="#FFD300"/>
<path d="M160.302 75.3887H150.774V84.7775H160.302V75.3887Z" fill="#FFD300"/>
<path d="M160.302 66H150.774V75.3887H160.302V66Z" fill="#FFD300"/>
<path d="M150.774 225.612H141.246V235H150.774V225.612Z" fill="#FFD300"/>
<path d="M150.774 216.224H141.246V225.612H150.774V216.224Z" fill="#FFD300"/>
<path d="M150.774 206.837H141.246V216.224H150.774V206.837Z" fill="#FFD300"/>
<path d="M150.774 197.448H141.246V206.837H150.774V197.448Z" fill="#FFD300"/>
<path d="M150.774 188.061H141.246V197.448H150.774V188.061Z" fill="#FFD300"/>
<path d="M150.774 178.672H141.246V188.061H150.774V178.672Z" fill="#FFD300"/>
<path d="M150.774 169.284H141.246V178.672H150.774V169.284Z" fill="#FFD300"/>
<path d="M150.774 159.897H141.246V169.284H150.774V159.897Z" fill="#FFD300"/>
<path d="M150.774 150.508H141.246V159.897H150.774V150.508Z" fill="#FFD300"/>
<path d="M150.774 141.106H141.246V150.514H150.774V141.106Z" fill="#FFD300"/>
<path d="M150.774 131.718H141.246V141.106H150.774V131.718Z" fill="#FFD300"/>
<path d="M150.774 122.325H141.246V131.713H150.774V122.325Z" fill="#FFD300"/>
<path d="M150.774 112.938H141.246V122.325H150.774V112.938Z" fill="#FFD300"/>
<path d="M150.774 103.555H141.246V112.943H150.774V103.555Z" fill="#FFD300"/>
<path d="M150.774 94.1644H141.246V103.555H150.774V94.1644Z" fill="#FFD300"/>
<path d="M150.774 84.7775H141.246V94.1644H150.774V84.7775Z" fill="#FFD300"/>
<path d="M150.774 75.3887H141.246V84.7775H150.774V75.3887Z" fill="#FFD300"/>
<path d="M150.774 66H141.246V75.3887H150.774V66Z" fill="#FFD300"/>
<path d="M141.246 225.612H131.718V235H141.246V225.612Z" fill="#FFD300"/>
<path d="M141.246 216.224H131.718V225.612H141.246V216.224Z" fill="#FFD300"/>
<path d="M141.246 206.837H131.718V216.224H141.246V206.837Z" fill="#FFD300"/>
<path d="M141.246 197.448H131.718V206.837H141.246V197.448Z" fill="#FFD300"/>
<path d="M141.246 188.061H131.718V197.448H141.246V188.061Z" fill="#FFD300"/>
<path d="M141.246 178.672H131.718V188.061H141.246V178.672Z" fill="#FFD300"/>
<path d="M141.246 169.284H131.718V178.672H141.246V169.284Z" fill="#FFD300"/>
<path d="M141.246 159.897H131.718V169.284H141.246V159.897Z" fill="#FFD300"/>
<path d="M141.246 150.508H131.718V159.897H141.246V150.508Z" fill="#FFD300"/>
<path d="M141.246 141.106H131.718V150.514H141.246V141.106Z" fill="#FFD300"/>
<path d="M141.246 131.718H131.718V141.106H141.246V131.718Z" fill="#FFD300"/>
<path d="M141.246 122.325H131.718V131.713H141.246V122.325Z" fill="#FFD300"/>
<path d="M141.246 112.938H131.718V122.325H141.246V112.938Z" fill="#FFD300"/>
<path d="M141.246 103.555H131.718V112.943H141.246V103.555Z" fill="#FFD300"/>
<path d="M141.246 94.1644H131.718V103.555H141.246V94.1644Z" fill="#FFD300"/>
<path d="M141.246 84.7775H131.718V94.1644H141.246V84.7775Z" fill="#FFD300"/>
<path d="M141.246 75.3887H131.718V84.7775H141.246V75.3887Z" fill="#FFD300"/>
<path d="M141.246 66H131.718V75.3887H141.246V66Z" fill="#FFD300"/>
<path d="M131.718 225.612H122.19V235H131.718V225.612Z" fill="#FFD300"/>
<path d="M131.718 216.224H122.19V225.612H131.718V216.224Z" fill="#FFD300"/>
<path d="M131.718 206.837H122.19V216.224H131.718V206.837Z" fill="#FFD300"/>
<path d="M131.718 197.448H122.19V206.837H131.718V197.448Z" fill="#FFD300"/>
<path d="M131.718 188.061H122.19V197.448H131.718V188.061Z" fill="#FFD300"/>
<path d="M131.718 178.672H122.19V188.061H131.718V178.672Z" fill="#FFD300"/>
<path d="M131.718 169.284H122.19V178.672H131.718V169.284Z" fill="#FFD300"/>
<path d="M131.718 159.897H122.19V169.284H131.718V159.897Z" fill="#FFD300"/>
<path d="M131.718 150.508H122.19V159.897H131.718V150.508Z" fill="#FFD300"/>
<path d="M131.718 141.106H122.19V150.514H131.718V141.106Z" fill="#FFD300"/>
<path d="M131.718 131.718H122.19V141.106H131.718V131.718Z" fill="#FFD300"/>
<path d="M131.718 122.325H122.19V131.713H131.718V122.325Z" fill="#FFD300"/>
<path d="M131.718 112.938H122.19V122.325H131.718V112.938Z" fill="#FFD300"/>
<path d="M131.718 103.555H122.19V112.943H131.718V103.555Z" fill="#FFD300"/>
<path d="M131.718 94.1644H122.19V103.555H131.718V94.1644Z" fill="#FFD300"/>
<path d="M131.718 84.7775H122.19V94.1644H131.718V84.7775Z" fill="#FFD300"/>
<path d="M131.718 75.3887H122.19V84.7775H131.718V75.3887Z" fill="#FFD300"/>
<path d="M131.718 66H122.19V75.3887H131.718V66Z" fill="#FFD300"/>
<path d="M122.19 216.224H112.662V225.611L122.19 225.612V216.224Z" fill="#FFD300"/>
<path d="M122.19 206.837H112.662V216.224H122.19V206.837Z" fill="#FFD300"/>
<path d="M122.19 197.448H112.662V206.837H122.19V197.448Z" fill="#FFD300"/>
<path d="M122.19 188.061H112.662V197.448H122.19V188.061Z" fill="#FFD300"/>
<path d="M122.19 178.672H112.662V188.061H122.19V178.672Z" fill="#FFD300"/>
<path d="M122.19 169.284H112.662V178.672H122.19V169.284Z" fill="#FFD300"/>
<path d="M122.19 159.897H112.662V169.284H122.19V159.897Z" fill="#FFD300"/>
<path d="M122.19 150.508H112.662V159.897H122.19V150.508Z" fill="#FFD300"/>
<path d="M122.19 141.106H112.662V150.514H122.19V141.106Z" fill="#FFD300"/>
<path d="M122.19 131.718H112.662V141.106H122.19V131.718Z" fill="#FFD300"/>
<path d="M122.19 122.325H112.662V131.713H122.19V122.325Z" fill="#FFD300"/>
<path d="M122.19 112.938H112.662V122.325H122.19V112.938Z" fill="#FFD300"/>
<path d="M122.19 103.555H112.662V112.943H122.19V103.555Z" fill="#FFD300"/>
<path d="M122.19 94.1644H112.662V103.555H122.19V94.1644Z" fill="#FFD300"/>
<path d="M122.19 84.7775H112.662V94.1644H122.19V84.7775Z" fill="#FFD300"/>
<path d="M122.19 75.3887H112.662V84.7775H122.19V75.3887Z" fill="#FFD300"/>
<path d="M122.19 66H112.662V75.3887H122.19V66Z" fill="#FFD300"/>
<path d="M112.662 206.837H103.134V216.224L112.662 216.224V206.837Z" fill="#FFD300"/>
<path d="M112.662 197.448H103.134V206.837H112.662V197.448Z" fill="#FFD300"/>
<path d="M112.662 188.061H103.134V197.448H112.662V188.061Z" fill="#FFD300"/>
<path d="M112.662 178.672H103.134V188.061H112.662V178.672Z" fill="#FFD300"/>
<path d="M112.662 169.284H103.134V178.672H112.662V169.284Z" fill="#FFD300"/>
<path d="M112.662 159.897H103.134V169.284H112.662V159.897Z" fill="#FFD300"/>
<path d="M112.662 150.508H103.134V159.897H112.662V150.508Z" fill="#FFD300"/>
<path d="M112.662 141.106H103.134V150.514H112.662V141.106Z" fill="#FFD300"/>
<path d="M112.662 131.718H103.134V141.106H112.662V131.718Z" fill="#FFD300"/>
<path d="M112.662 122.325H103.134V131.713H112.662V122.325Z" fill="#FFD300"/>
<path d="M112.662 112.938H103.134V122.325H112.662V112.938Z" fill="#FFD300"/>
<path d="M112.662 103.555H103.134V112.943H112.662V103.555Z" fill="#FFD300"/>
<path d="M112.662 94.1644H103.134V103.555H112.662V94.1644Z" fill="#FFD300"/>
<path d="M112.662 84.7775H103.134V94.1644H112.662V84.7775Z" fill="#FFD300"/>
<path d="M112.662 75.3887H103.134V84.7775H112.662V75.3887Z" fill="#FFD300"/>
<path d="M103.134 197.448H93.6039V206.836L103.134 206.837V197.448Z" fill="#FFD300"/>
<path d="M103.134 188.061H93.6039V197.448H103.134V188.061Z" fill="#FFD300"/>
<path d="M103.134 178.672H93.6039V188.061H103.134V178.672Z" fill="#FFD300"/>
<path d="M103.134 169.284H93.6039V178.672H103.134V169.284Z" fill="#FFD300"/>
<path d="M103.134 159.897H93.6039V169.284H103.134V159.897Z" fill="#FFD300"/>
<path d="M103.134 150.508H93.6039V159.897H103.134V150.508Z" fill="#FFD300"/>
<path d="M103.134 141.106H93.6039V150.514H103.134V141.106Z" fill="#FFD300"/>
<path d="M103.134 131.718H93.6039V141.106H103.134V131.718Z" fill="#FFD300"/>
<path d="M103.134 122.325H93.6039V131.713H103.134V122.325Z" fill="#FFD300"/>
<path d="M103.134 112.938H93.6039V122.325H103.134V112.938Z" fill="#FFD300"/>
<path d="M103.134 103.555H93.6039V112.943H103.134V103.555Z" fill="#FFD300"/>
<path d="M103.134 94.1644H93.6039V103.555L103.132 103.552L103.134 94.1644Z" fill="#FFD300"/>
<path d="M103.134 84.7775H93.6039V94.1644H103.134V84.7775Z" fill="#FFD300"/>
<path d="M93.6039 188.061H84.0761V197.449L93.6039 197.448V188.061Z" fill="#FFD300"/>
<path d="M93.6039 178.672H84.0761V188.061H93.6039V178.672Z" fill="#FFD300"/>
<path d="M93.6039 169.284H84.0761V178.672H93.6039V169.284Z" fill="#FFD300"/>
<path d="M93.6039 159.897H84.0761V169.284H93.6039V159.897Z" fill="#FFD300"/>
<path d="M93.6039 150.508H84.0761V159.897H93.6039V150.508Z" fill="#FFD300"/>
<path d="M93.6039 141.106H84.0761V150.514H93.6039V141.106Z" fill="#FFD300"/>
<path d="M93.6039 131.718H84.0761V141.106H93.6039V131.718Z" fill="#FFD300"/>
<path d="M93.6039 122.325H84.0761V131.713H93.6039V122.325Z" fill="#FFD300"/>
<path d="M93.6039 112.938H84.0761V122.325H93.6039V112.938Z" fill="#FFD300"/>
<path d="M93.6039 103.555H84.0761V112.943H93.6039V103.555Z" fill="#FFD300"/>
<path d="M93.6039 94.1644H84.0761V103.555H93.6039V94.1644Z" fill="#FFD300"/>
<path d="M84.0761 178.672H74.5278V188.06L84.0761 188.061V178.672Z" fill="#FFD300"/>
<path d="M84.0761 169.284H74.5278V178.672H84.0761V169.284Z" fill="#FFD300"/>
<path d="M84.0761 159.897H74.5278V169.284H84.0761V159.897Z" fill="#FFD300"/>
<path d="M84.0761 150.508H74.5278V159.897H84.0761V150.508Z" fill="#FFD300"/>
<path d="M84.0761 141.106H74.5278V150.514H84.0761V141.106Z" fill="#FFD300"/>
<path d="M84.0761 131.718H74.5278V141.106H84.0761V131.718Z" fill="#FFD300"/>
<path d="M84.0761 122.325H74.5278V131.713H84.0761V122.325Z" fill="#FFD300"/>
<path d="M84.0761 112.938H74.5278V122.325H84.0761V112.938Z" fill="#FFD300"/>
<path d="M84.0761 103.555H74.5278V112.943H84.0761V103.555Z" fill="#FFD300"/>
<path d="M74.5278 169.284H65V178.671L74.5278 178.672V169.284Z" fill="#FFD300"/>
<path d="M74.5278 159.897H65V169.284H74.5278V159.897Z" fill="#FFD300"/>
<path d="M74.5278 150.508H65V159.897H74.5278V150.508Z" fill="#FFD300"/>
<path d="M74.5278 141.106H65V150.514H74.5278V141.106Z" fill="#FFD300"/>
<path d="M74.5278 131.718H65V141.106H74.5278V131.718Z" fill="#FFD300"/>
<path d="M74.5278 122.325H65V131.713H74.5278V122.325Z" fill="#FFD300"/>
<path d="M74.5278 112.938H65V122.325H74.5278V112.938Z" fill="#FFD300"/>
</g>
<g opacity="0.6">
<path d="M217 175.338H208.648V183.615H217V175.338Z" fill="#FFD300"/>
<path d="M217 167.061H208.648V175.338H217V167.061Z" fill="#FFD300"/>
<path d="M217 158.785H208.648V167.061H217V158.785Z" fill="#FFD300"/>
<path d="M217 150.507H208.648V158.785H217V150.507Z" fill="#FFD300"/>
<path d="M217 142.218H208.648V150.512H217V142.218Z" fill="#FFD300"/>
<path d="M217 133.94H208.648V142.218H217V133.94Z" fill="#FFD300"/>
<path d="M217 125.659H208.648V133.936H217V125.659Z" fill="#FFD300"/>
<path d="M217 117.383H208.648V125.659H217V117.383Z" fill="#FFD300"/>
<path d="M208.648 183.615L200.297 183.616V191.893H208.648L208.648 183.615Z" fill="#FFD300"/>
<path d="M208.648 175.338H200.297V183.616L208.648 183.615V175.338Z" fill="#FFD300"/>
<path d="M208.648 167.061H200.297V175.338H208.648V167.061Z" fill="#FFD300"/>
<path d="M208.648 158.785H200.297V167.061H208.648V158.785Z" fill="#FFD300"/>
<path d="M208.648 150.507H200.297V158.785H208.648V150.507Z" fill="#FFD300"/>
<path d="M208.648 142.218H200.297V150.512H208.648V142.218Z" fill="#FFD300"/>
<path d="M208.648 133.94H200.297V142.218H208.648V133.94Z" fill="#FFD300"/>
<path d="M208.648 125.659H200.297V133.936H208.648V125.659Z" fill="#FFD300"/>
<path d="M208.648 117.383H200.297V125.659H208.648V117.383Z" fill="#FFD300"/>
<path d="M208.648 109.111H200.297V117.387H208.648V109.111Z" fill="#FFD300"/>
<path d="M200.297 191.893L191.945 191.892V200.169H200.297L200.297 191.893Z" fill="#FFD300"/>
<path d="M200.297 183.616H191.945V191.892L200.297 191.893V183.616Z" fill="#FFD300"/>
<path d="M200.297 175.338H191.945V183.616H200.297V175.338Z" fill="#FFD300"/>
<path d="M200.297 167.061H191.945V175.338H200.297V167.061Z" fill="#FFD300"/>
<path d="M200.297 158.785H191.945V167.061H200.297V158.785Z" fill="#FFD300"/>
<path d="M200.297 150.507H191.945V158.785H200.297V150.507Z" fill="#FFD300"/>
<path d="M200.297 142.218H191.945V150.512H200.297V142.218Z" fill="#FFD300"/>
<path d="M200.297 133.94H191.945V142.218H200.297V133.94Z" fill="#FFD300"/>
<path d="M200.297 125.659H191.945V133.936H200.297V125.659Z" fill="#FFD300"/>
<path d="M200.297 117.383H191.945V125.659H200.297V117.383Z" fill="#FFD300"/>
<path d="M200.297 109.111H191.945V117.387H200.297V109.111Z" fill="#FFD300"/>
<path d="M200.297 100.831H191.945V109.111H200.297L200.297 100.831Z" fill="#FFD300"/>
<path d="M191.945 200.169L183.593 200.17V208.446H191.945L191.945 200.169Z" fill="#FFD300"/>
<path d="M191.945 191.892H183.593V200.17L191.945 200.169V191.892Z" fill="#FFD300"/>
<path d="M191.945 183.616H183.593V191.892H191.945V183.616Z" fill="#FFD300"/>
<path d="M191.945 175.338H183.593V183.616H191.945V175.338Z" fill="#FFD300"/>
<path d="M191.945 167.061H183.593V175.338H191.945V167.061Z" fill="#FFD300"/>
<path d="M191.945 158.785H183.593V167.061H191.945V158.785Z" fill="#FFD300"/>
<path d="M191.945 150.507H183.593V158.785H191.945V150.507Z" fill="#FFD300"/>
<path d="M191.945 142.218H183.593V150.512H191.945V142.218Z" fill="#FFD300"/>
<path d="M191.945 133.94H183.593V142.218H191.945V133.94Z" fill="#FFD300"/>
<path d="M191.945 125.659H183.593V133.936H191.945V125.659Z" fill="#FFD300"/>
<path d="M191.945 117.383H183.593V125.659H191.945V117.383Z" fill="#FFD300"/>
<path d="M191.945 109.111H183.593V117.387H191.945V109.111Z" fill="#FFD300"/>
<path d="M191.945 100.831H183.593V109.111H191.945V100.831Z" fill="#FFD300"/>
<path d="M191.945 92.5553H183.593V100.831H191.945L191.945 92.5553Z" fill="#FFD300"/>
<path d="M183.593 208.446L175.242 208.446V216.722H183.593L183.593 208.446Z" fill="#FFD300"/>
<path d="M183.593 200.17H175.242V208.446L183.593 208.446V200.17Z" fill="#FFD300"/>
<path d="M183.593 191.892H175.242V200.17H183.593V191.892Z" fill="#FFD300"/>
<path d="M183.593 183.616H175.242V191.892H183.593V183.616Z" fill="#FFD300"/>
<path d="M183.593 175.338H175.242V183.616H183.593V175.338Z" fill="#FFD300"/>
<path d="M183.593 167.061H175.242V175.338H183.593V167.061Z" fill="#FFD300"/>
<path d="M183.593 158.785H175.242V167.061H183.593V158.785Z" fill="#FFD300"/>
<path d="M183.593 150.507H175.242V158.785H183.593V150.507Z" fill="#FFD300"/>
<path d="M183.593 142.218H175.242V150.512H183.593V142.218Z" fill="#FFD300"/>
<path d="M183.593 133.94H175.242V142.218H183.593V133.94Z" fill="#FFD300"/>
<path d="M183.593 125.659H175.242V133.936H183.593V125.659Z" fill="#FFD300"/>
<path d="M183.593 117.383H175.242V125.659H183.593V117.383Z" fill="#FFD300"/>
<path d="M183.593 109.111H175.242V117.387H183.593V109.111Z" fill="#FFD300"/>
<path d="M183.593 100.831H175.242V109.111H183.593V100.831Z" fill="#FFD300"/>
<path d="M183.593 92.5553H175.242V100.831H183.593V92.5553Z" fill="#FFD300"/>
<path d="M183.593 84.2777H175.242V92.5553H183.593L183.593 84.2777Z" fill="#FFD300"/>
<path d="M175.242 208.446H166.89V216.722H175.242V208.446Z" fill="#FFD300"/>
<path d="M175.242 200.17H166.89V208.446H175.242V200.17Z" fill="#FFD300"/>
<path d="M175.242 191.892H166.89V200.17H175.242V191.892Z" fill="#FFD300"/>
<path d="M175.242 183.616H166.89V191.892H175.242V183.616Z" fill="#FFD300"/>
<path d="M175.242 175.338H166.89V183.616H175.242V175.338Z" fill="#FFD300"/>
<path d="M175.242 167.061H166.89V175.338H175.242V167.061Z" fill="#FFD300"/>
<path d="M175.242 158.785H166.89V167.061H175.242V158.785Z" fill="#FFD300"/>
<path d="M175.242 150.507H166.89V158.785H175.242V150.507Z" fill="#FFD300"/>
<path d="M175.242 142.218H166.89V150.512H175.242V142.218Z" fill="#FFD300"/>
<path d="M175.242 133.94H166.89V142.218H175.242V133.94Z" fill="#FFD300"/>
<path d="M175.242 125.659H166.89V133.936H175.242V125.659Z" fill="#FFD300"/>
<path d="M175.242 117.383H166.89V125.659H175.242V117.383Z" fill="#FFD300"/>
<path d="M175.242 109.111H166.89V117.387H175.242V109.111Z" fill="#FFD300"/>
<path d="M175.242 100.831H166.89V109.111H175.242V100.831Z" fill="#FFD300"/>
<path d="M175.242 92.5553H166.89V100.831H175.242V92.5553Z" fill="#FFD300"/>
<path d="M175.242 84.2777H166.89V92.5553H175.242V84.2777Z" fill="#FFD300"/>
<path d="M175.241 76H166.89V84.2777H175.242L175.241 76Z" fill="#FFD300"/>
<path d="M166.89 216.722L158.536 216.723V225H166.888L166.89 216.722Z" fill="#FFD300"/>
<path d="M166.89 208.446H158.536V216.723L166.89 216.722V208.446Z" fill="#FFD300"/>
<path d="M166.89 200.17H158.536V208.446H166.89V200.17Z" fill="#FFD300"/>
<path d="M166.89 191.892H158.536V200.17H166.89V191.892Z" fill="#FFD300"/>
<path d="M166.89 183.616H158.536V191.892H166.89V183.616Z" fill="#FFD300"/>
<path d="M166.89 175.338H158.536V183.616H166.89V175.338Z" fill="#FFD300"/>
<path d="M166.89 167.061H158.536V175.338H166.89V167.061Z" fill="#FFD300"/>
<path d="M166.89 158.785H158.536V167.061H166.89V158.785Z" fill="#FFD300"/>
<path d="M166.89 150.507H158.536V158.785H166.89V150.507Z" fill="#FFD300"/>
<path d="M166.89 142.218H158.536V150.512H166.89V142.218Z" fill="#FFD300"/>
<path d="M166.89 133.94H158.536V142.218H166.89V133.94Z" fill="#FFD300"/>
<path d="M166.89 125.659H158.536V133.936H166.89V125.659Z" fill="#FFD300"/>
<path d="M166.89 117.383H158.536V125.659H166.89V117.383Z" fill="#FFD300"/>
<path d="M166.89 109.111H158.536V117.387H166.89V109.111Z" fill="#FFD300"/>
<path d="M166.89 100.831H158.536V109.111L166.888 109.108L166.89 100.831Z" fill="#FFD300"/>
<path d="M166.89 92.5553H158.536V100.831H166.89V92.5553Z" fill="#FFD300"/>
<path d="M166.89 84.2777H158.536V92.5553H166.89V84.2777Z" fill="#FFD300"/>
<path d="M166.89 76H158.536V84.2777H166.89V76Z" fill="#FFD300"/>
<path d="M158.536 216.723H150.184V225H158.536V216.723Z" fill="#FFD300"/>
<path d="M158.536 208.446H150.184V216.723H158.536V208.446Z" fill="#FFD300"/>
<path d="M158.536 200.17H150.184V208.446H158.536V200.17Z" fill="#FFD300"/>
<path d="M158.536 191.892H150.184V200.17H158.536V191.892Z" fill="#FFD300"/>
<path d="M158.536 183.616H150.184V191.892H158.536V183.616Z" fill="#FFD300"/>
<path d="M158.536 175.338H150.184V183.616H158.536V175.338Z" fill="#FFD300"/>
<path d="M158.536 167.061H150.184V175.338H158.536V167.061Z" fill="#FFD300"/>
<path d="M158.536 158.785H150.184V167.061H158.536V158.785Z" fill="#FFD300"/>
<path d="M158.536 150.507H150.184V158.785H158.536V150.507Z" fill="#FFD300"/>
<path d="M158.536 142.218H150.184V150.512H158.536V142.218Z" fill="#FFD300"/>
<path d="M158.536 133.94H150.184V142.218H158.536V133.94Z" fill="#FFD300"/>
<path d="M158.536 125.659H150.184V133.936H158.536V125.659Z" fill="#FFD300"/>
<path d="M158.536 117.383H150.184V125.659H158.536V117.383Z" fill="#FFD300"/>
<path d="M158.536 109.111H150.184V117.387H158.536V109.111Z" fill="#FFD300"/>
<path d="M158.536 100.831H150.184V109.111H158.536V100.831Z" fill="#FFD300"/>
<path d="M158.536 92.5553H150.184V100.831H158.536V92.5553Z" fill="#FFD300"/>
<path d="M158.536 84.2777H150.184V92.5553H158.536V84.2777Z" fill="#FFD300"/>
<path d="M158.536 76H150.184V84.2777H158.536V76Z" fill="#FFD300"/>
<path d="M150.184 216.723H141.833V225H150.184V216.723Z" fill="#FFD300"/>
<path d="M150.184 208.446H141.833V216.723H150.184V208.446Z" fill="#FFD300"/>
<path d="M150.184 200.17H141.833V208.446H150.184V200.17Z" fill="#FFD300"/>
<path d="M150.184 191.892H141.833V200.17H150.184V191.892Z" fill="#FFD300"/>
<path d="M150.184 183.616H141.833V191.892H150.184V183.616Z" fill="#FFD300"/>
<path d="M150.184 175.338H141.833V183.616H150.184V175.338Z" fill="#FFD300"/>
<path d="M150.184 167.061H141.833V175.338H150.184V167.061Z" fill="#FFD300"/>
<path d="M150.184 158.785H141.833V167.061H150.184V158.785Z" fill="#FFD300"/>
<path d="M150.184 150.507H141.833V158.785H150.184V150.507Z" fill="#FFD300"/>
<path d="M150.184 142.218H141.833V150.512H150.184V142.218Z" fill="#FFD300"/>
<path d="M150.184 133.94H141.833V142.218H150.184V133.94Z" fill="#FFD300"/>
<path d="M150.184 125.659H141.833V133.936H150.184V125.659Z" fill="#FFD300"/>
<path d="M150.184 117.383H141.833V125.659H150.184V117.383Z" fill="#FFD300"/>
<path d="M150.184 109.111H141.833V117.387H150.184V109.111Z" fill="#FFD300"/>
<path d="M150.184 100.831H141.833V109.111H150.184V100.831Z" fill="#FFD300"/>
<path d="M150.184 92.5553H141.833V100.831H150.184V92.5553Z" fill="#FFD300"/>
<path d="M150.184 84.2777H141.833V92.5553H150.184V84.2777Z" fill="#FFD300"/>
<path d="M150.184 76H141.833V84.2777H150.184V76Z" fill="#FFD300"/>
<path d="M141.833 216.723H133.481V225H141.833V216.723Z" fill="#FFD300"/>
<path d="M141.833 208.446H133.481V216.723H141.833V208.446Z" fill="#FFD300"/>
<path d="M141.833 200.17H133.481V208.446H141.833V200.17Z" fill="#FFD300"/>
<path d="M141.833 191.892H133.481V200.17H141.833V191.892Z" fill="#FFD300"/>
<path d="M141.833 183.616H133.481V191.892H141.833V183.616Z" fill="#FFD300"/>
<path d="M141.833 175.338H133.481V183.616H141.833V175.338Z" fill="#FFD300"/>
<path d="M141.833 167.061H133.481V175.338H141.833V167.061Z" fill="#FFD300"/>
<path d="M141.833 158.785H133.481V167.061H141.833V158.785Z" fill="#FFD300"/>
<path d="M141.833 150.507H133.481V158.785H141.833V150.507Z" fill="#FFD300"/>
<path d="M141.833 142.218H133.481V150.512H141.833V142.218Z" fill="#FFD300"/>
<path d="M141.833 133.94H133.481V142.218H141.833V133.94Z" fill="#FFD300"/>
<path d="M141.833 125.659H133.481V133.936H141.833V125.659Z" fill="#FFD300"/>
<path d="M141.833 117.383H133.481V125.659H141.833V117.383Z" fill="#FFD300"/>
<path d="M141.833 109.111H133.481V117.387H141.833V109.111Z" fill="#FFD300"/>
<path d="M141.833 100.831H133.481V109.111H141.833V100.831Z" fill="#FFD300"/>
<path d="M141.833 92.5553H133.481V100.831H141.833V92.5553Z" fill="#FFD300"/>
<path d="M141.833 84.2777H133.481V92.5553H141.833V84.2777Z" fill="#FFD300"/>
<path d="M141.833 76H133.481V84.2777H141.833V76Z" fill="#FFD300"/>
<path d="M133.481 216.723H125.13V225H133.481V216.723Z" fill="#FFD300"/>
<path d="M133.481 208.446H125.13V216.723H133.481V208.446Z" fill="#FFD300"/>
<path d="M133.481 200.17H125.13V208.446H133.481V200.17Z" fill="#FFD300"/>
<path d="M133.481 191.892H125.13V200.17H133.481V191.892Z" fill="#FFD300"/>
<path d="M133.481 183.616H125.13V191.892H133.481V183.616Z" fill="#FFD300"/>
<path d="M133.481 175.338H125.13V183.616H133.481V175.338Z" fill="#FFD300"/>
<path d="M133.481 167.061H125.13V175.338H133.481V167.061Z" fill="#FFD300"/>
<path d="M133.481 158.785H125.13V167.061H133.481V158.785Z" fill="#FFD300"/>
<path d="M133.481 150.507H125.13V158.785H133.481V150.507Z" fill="#FFD300"/>
<path d="M133.481 142.218H125.13V150.512H133.481V142.218Z" fill="#FFD300"/>
<path d="M133.481 133.94H125.13V142.218H133.481V133.94Z" fill="#FFD300"/>
<path d="M133.481 125.659H125.13V133.936H133.481V125.659Z" fill="#FFD300"/>
<path d="M133.481 117.383H125.13V125.659H133.481V117.383Z" fill="#FFD300"/>
<path d="M133.481 109.111H125.13V117.387H133.481V109.111Z" fill="#FFD300"/>
<path d="M133.481 100.831H125.13V109.111H133.481V100.831Z" fill="#FFD300"/>
<path d="M133.481 92.5553H125.13V100.831H133.481V92.5553Z" fill="#FFD300"/>
<path d="M133.481 84.2777H125.13V92.5553H133.481V84.2777Z" fill="#FFD300"/>
<path d="M133.481 76H125.13V84.2777H133.481V76Z" fill="#FFD300"/>
<path d="M125.13 208.446H116.778V216.722L125.13 216.723V208.446Z" fill="#FFD300"/>
<path d="M125.13 200.17H116.778V208.446H125.13V200.17Z" fill="#FFD300"/>
<path d="M125.13 191.892H116.778V200.17H125.13V191.892Z" fill="#FFD300"/>
<path d="M125.13 183.616H116.778V191.892H125.13V183.616Z" fill="#FFD300"/>
<path d="M125.13 175.338H116.778V183.616H125.13V175.338Z" fill="#FFD300"/>
<path d="M125.13 167.061H116.778V175.338H125.13V167.061Z" fill="#FFD300"/>
<path d="M125.13 158.785H116.778V167.061H125.13V158.785Z" fill="#FFD300"/>
<path d="M125.13 150.507H116.778V158.785H125.13V150.507Z" fill="#FFD300"/>
<path d="M125.13 142.218H116.778V150.512H125.13V142.218Z" fill="#FFD300"/>
<path d="M125.13 133.94H116.778V142.218H125.13V133.94Z" fill="#FFD300"/>
<path d="M125.13 125.659H116.778V133.936H125.13V125.659Z" fill="#FFD300"/>
<path d="M125.13 117.383H116.778V125.659H125.13V117.383Z" fill="#FFD300"/>
<path d="M125.13 109.111H116.778V117.387H125.13V109.111Z" fill="#FFD300"/>
<path d="M125.13 100.831H116.778V109.111H125.13V100.831Z" fill="#FFD300"/>
<path d="M125.13 92.5553H116.778V100.831H125.13V92.5553Z" fill="#FFD300"/>
<path d="M125.13 84.2777H116.778V92.5553H125.13V84.2777Z" fill="#FFD300"/>
<path d="M125.13 76H116.778V84.2777H125.13V76Z" fill="#FFD300"/>
<path d="M116.778 200.17H108.426V208.446L116.778 208.446V200.17Z" fill="#FFD300"/>
<path d="M116.778 191.892H108.426V200.17H116.778V191.892Z" fill="#FFD300"/>
<path d="M116.778 183.616H108.426V191.892H116.778V183.616Z" fill="#FFD300"/>
<path d="M116.778 175.338H108.426V183.616H116.778V175.338Z" fill="#FFD300"/>
<path d="M116.778 167.061H108.426V175.338H116.778V167.061Z" fill="#FFD300"/>
<path d="M116.778 158.785H108.426V167.061H116.778V158.785Z" fill="#FFD300"/>
<path d="M116.778 150.507H108.426V158.785H116.778V150.507Z" fill="#FFD300"/>
<path d="M116.778 142.218H108.426V150.512H116.778V142.218Z" fill="#FFD300"/>
<path d="M116.778 133.94H108.426V142.218H116.778V133.94Z" fill="#FFD300"/>
<path d="M116.778 125.659H108.426V133.936H116.778V125.659Z" fill="#FFD300"/>
<path d="M116.778 117.383H108.426V125.659H116.778V117.383Z" fill="#FFD300"/>
<path d="M116.778 109.111H108.426V117.387H116.778V109.111Z" fill="#FFD300"/>
<path d="M116.778 100.831H108.426V109.111H116.778V100.831Z" fill="#FFD300"/>
<path d="M116.778 92.5553H108.426V100.831H116.778V92.5553Z" fill="#FFD300"/>
<path d="M116.778 84.2777H108.426V92.5553H116.778V84.2777Z" fill="#FFD300"/>
<path d="M108.426 191.892H100.073V200.169L108.426 200.17V191.892Z" fill="#FFD300"/>
<path d="M108.426 183.616H100.073V191.892H108.426V183.616Z" fill="#FFD300"/>
<path d="M108.426 175.338H100.073V183.616H108.426V175.338Z" fill="#FFD300"/>
<path d="M108.426 167.061H100.073V175.338H108.426V167.061Z" fill="#FFD300"/>
<path d="M108.426 158.785H100.073V167.061H108.426V158.785Z" fill="#FFD300"/>
<path d="M108.426 150.507H100.073V158.785H108.426V150.507Z" fill="#FFD300"/>
<path d="M108.426 142.218H100.073V150.512H108.426V142.218Z" fill="#FFD300"/>
<path d="M108.426 133.94H100.073V142.218H108.426V133.94Z" fill="#FFD300"/>
<path d="M108.426 125.659H100.073V133.936H108.426V125.659Z" fill="#FFD300"/>
<path d="M108.426 117.383H100.073V125.659H108.426V117.383Z" fill="#FFD300"/>
<path d="M108.426 109.111H100.073V117.387H108.426V109.111Z" fill="#FFD300"/>
<path d="M108.426 100.831H100.073V109.111L108.424 109.108L108.426 100.831Z" fill="#FFD300"/>
<path d="M108.426 92.5553H100.073V100.831H108.426V92.5553Z" fill="#FFD300"/>
<path d="M100.073 183.616H91.721V191.893L100.073 191.892V183.616Z" fill="#FFD300"/>
<path d="M100.073 175.338H91.721V183.616H100.073V175.338Z" fill="#FFD300"/>
<path d="M100.073 167.061H91.721V175.338H100.073V167.061Z" fill="#FFD300"/>
<path d="M100.073 158.785H91.721V167.061H100.073V158.785Z" fill="#FFD300"/>
<path d="M100.073 150.507H91.721V158.785H100.073V150.507Z" fill="#FFD300"/>
<path d="M100.073 142.218H91.721V150.512H100.073V142.218Z" fill="#FFD300"/>
<path d="M100.073 133.94H91.721V142.218H100.073V133.94Z" fill="#FFD300"/>
<path d="M100.073 125.659H91.721V133.936H100.073V125.659Z" fill="#FFD300"/>
<path d="M100.073 117.383H91.721V125.659H100.073V117.383Z" fill="#FFD300"/>
<path d="M100.073 109.111H91.721V117.387H100.073V109.111Z" fill="#FFD300"/>
<path d="M100.073 100.831H91.721V109.111H100.073V100.831Z" fill="#FFD300"/>
<path d="M91.721 175.338H83.3515V183.615L91.721 183.616V175.338Z" fill="#FFD300"/>
<path d="M91.721 167.061H83.3515V175.338H91.721V167.061Z" fill="#FFD300"/>
<path d="M91.721 158.785H83.3515V167.061H91.721V158.785Z" fill="#FFD300"/>
<path d="M91.721 150.507H83.3515V158.785H91.721V150.507Z" fill="#FFD300"/>
<path d="M91.721 142.218H83.3515V150.512H91.721V142.218Z" fill="#FFD300"/>
<path d="M91.721 133.94H83.3515V142.218H91.721V133.94Z" fill="#FFD300"/>
<path d="M91.721 125.659H83.3515V133.936H91.721V125.659Z" fill="#FFD300"/>
<path d="M91.721 117.383H83.3515V125.659H91.721V117.383Z" fill="#FFD300"/>
<path d="M91.721 109.111H83.3515V117.387H91.721V109.111Z" fill="#FFD300"/>
<path d="M83.3515 167.061H75V175.337L83.3515 175.338V167.061Z" fill="#FFD300"/>
<path d="M83.3515 158.785H75V167.061H83.3515V158.785Z" fill="#FFD300"/>
<path d="M83.3515 150.507H75V158.785H83.3515V150.507Z" fill="#FFD300"/>
<path d="M83.3515 142.218H75V150.512H83.3515V142.218Z" fill="#FFD300"/>
<path d="M83.3515 133.94H75V142.218H83.3515V133.94Z" fill="#FFD300"/>
<path d="M83.3515 125.659H75V133.936H83.3515V125.659Z" fill="#FFD300"/>
<path d="M83.3515 117.383H75V125.659H83.3515V117.383Z" fill="#FFD300"/>
</g>
<g opacity="0.8">
<path d="M209 172.671H201.589V180.059H209V172.671Z" fill="#FFD300"/>
<path d="M209 165.282H201.589V172.671H209V165.282Z" fill="#FFD300"/>
<path d="M209 157.895H201.589V165.282H209V157.895Z" fill="#FFD300"/>
<path d="M209 150.506H201.589V157.895H209V150.506Z" fill="#FFD300"/>
<path d="M209 143.107H201.589V150.511H209V143.107Z" fill="#FFD300"/>
<path d="M209 135.719H201.589V143.107H209V135.719Z" fill="#FFD300"/>
<path d="M209 128.327H201.589V135.715H209V128.327Z" fill="#FFD300"/>
<path d="M209 120.94H201.589V128.327H209V120.94Z" fill="#FFD300"/>
<path d="M201.589 180.059L194.179 180.06V187.448H201.589L201.589 180.059Z" fill="#FFD300"/>
<path d="M201.589 172.671H194.179V180.06L201.589 180.059V172.671Z" fill="#FFD300"/>
<path d="M201.589 165.282H194.179V172.671H201.589V165.282Z" fill="#FFD300"/>
<path d="M201.589 157.895H194.179V165.282H201.589V157.895Z" fill="#FFD300"/>
<path d="M201.589 150.506H194.179V157.895H201.589V150.506Z" fill="#FFD300"/>
<path d="M201.589 143.107H194.179V150.511H201.589V143.107Z" fill="#FFD300"/>
<path d="M201.589 135.719H194.179V143.107H201.589V135.719Z" fill="#FFD300"/>
<path d="M201.589 128.327H194.179V135.715H201.589V128.327Z" fill="#FFD300"/>
<path d="M201.589 120.94H194.179V128.327H201.589V120.94Z" fill="#FFD300"/>
<path d="M201.589 113.555H194.179V120.943H201.589V113.555Z" fill="#FFD300"/>
<path d="M194.179 187.448L186.768 187.447V194.835H194.179L194.179 187.448Z" fill="#FFD300"/>
<path d="M194.179 180.06H186.768V187.447L194.179 187.448V180.06Z" fill="#FFD300"/>
<path d="M194.179 172.671H186.768V180.06H194.179V172.671Z" fill="#FFD300"/>
<path d="M194.179 165.282H186.768V172.671H194.179V165.282Z" fill="#FFD300"/>
<path d="M194.179 157.895H186.768V165.282H194.179V157.895Z" fill="#FFD300"/>
<path d="M194.179 150.506H186.768V157.895H194.179V150.506Z" fill="#FFD300"/>
<path d="M194.179 143.107H186.768V150.511H194.179V143.107Z" fill="#FFD300"/>
<path d="M194.179 135.719H186.768V143.107H194.179V135.719Z" fill="#FFD300"/>
<path d="M194.179 128.327H186.768V135.715H194.179V128.327Z" fill="#FFD300"/>
<path d="M194.179 120.94H186.768V128.327H194.179V120.94Z" fill="#FFD300"/>
<path d="M194.179 113.555H186.768V120.943H194.179V113.555Z" fill="#FFD300"/>
<path d="M194.179 106.165H186.768V113.555H194.179L194.179 106.165Z" fill="#FFD300"/>
<path d="M186.768 194.835L179.357 194.836V202.224H186.768L186.768 194.835Z" fill="#FFD300"/>
<path d="M186.768 187.447H179.357V194.836L186.768 194.835V187.447Z" fill="#FFD300"/>
<path d="M186.768 180.06H179.357V187.447H186.768V180.06Z" fill="#FFD300"/>
<path d="M186.768 172.671H179.357V180.06H186.768V172.671Z" fill="#FFD300"/>
<path d="M186.768 165.282H179.357V172.671H186.768V165.282Z" fill="#FFD300"/>
<path d="M186.768 157.895H179.357V165.282H186.768V157.895Z" fill="#FFD300"/>
<path d="M186.768 150.506H179.357V157.895H186.768V150.506Z" fill="#FFD300"/>
<path d="M186.768 143.107H179.357V150.511H186.768V143.107Z" fill="#FFD300"/>
<path d="M186.768 135.719H179.357V143.107H186.768V135.719Z" fill="#FFD300"/>
<path d="M186.768 128.327H179.357V135.715H186.768V128.327Z" fill="#FFD300"/>
<path d="M186.768 120.94H179.357V128.327H186.768V120.94Z" fill="#FFD300"/>
<path d="M186.768 113.555H179.357V120.943H186.768V113.555Z" fill="#FFD300"/>
<path d="M186.768 106.165H179.357V113.555H186.768V106.165Z" fill="#FFD300"/>
<path d="M186.768 98.7776H179.357V106.165H186.768L186.768 98.7776Z" fill="#FFD300"/>
<path d="M179.357 202.224L171.947 202.223V209.611H179.357L179.357 202.224Z" fill="#FFD300"/>
<path d="M179.357 194.836H171.947V202.223L179.357 202.224V194.836Z" fill="#FFD300"/>
<path d="M179.357 187.447H171.947V194.836H179.357V187.447Z" fill="#FFD300"/>
<path d="M179.357 180.06H171.947V187.447H179.357V180.06Z" fill="#FFD300"/>
<path d="M179.357 172.671H171.947V180.06H179.357V172.671Z" fill="#FFD300"/>
<path d="M179.357 165.282H171.947V172.671H179.357V165.282Z" fill="#FFD300"/>
<path d="M179.357 157.895H171.947V165.282H179.357V157.895Z" fill="#FFD300"/>
<path d="M179.357 150.506H171.947V157.895H179.357V150.506Z" fill="#FFD300"/>
<path d="M179.357 143.107H171.947V150.511H179.357V143.107Z" fill="#FFD300"/>
<path d="M179.357 135.719H171.947V143.107H179.357V135.719Z" fill="#FFD300"/>
<path d="M179.357 128.327H171.947V135.715H179.357V128.327Z" fill="#FFD300"/>
<path d="M179.357 120.94H171.947V128.327H179.357V120.94Z" fill="#FFD300"/>
<path d="M179.357 113.555H171.947V120.943H179.357V113.555Z" fill="#FFD300"/>
<path d="M179.357 106.165H171.947V113.555H179.357V106.165Z" fill="#FFD300"/>
<path d="M179.357 98.7776H171.947V106.165H179.357V98.7776Z" fill="#FFD300"/>
<path d="M179.357 91.3888H171.947V98.7776H179.357L179.357 91.3888Z" fill="#FFD300"/>
<path d="M171.947 202.223H164.536V209.611H171.947V202.223Z" fill="#FFD300"/>
<path d="M171.947 194.836H164.536V202.223H171.947V194.836Z" fill="#FFD300"/>
<path d="M171.947 187.447H164.536V194.836H171.947V187.447Z" fill="#FFD300"/>
<path d="M171.947 180.06H164.536V187.447H171.947V180.06Z" fill="#FFD300"/>
<path d="M171.947 172.671H164.536V180.06H171.947V172.671Z" fill="#FFD300"/>
<path d="M171.947 165.282H164.536V172.671H171.947V165.282Z" fill="#FFD300"/>
<path d="M171.947 157.895H164.536V165.282H171.947V157.895Z" fill="#FFD300"/>
<path d="M171.947 150.506H164.536V157.895H171.947V150.506Z" fill="#FFD300"/>
<path d="M171.947 143.107H164.536V150.511H171.947V143.107Z" fill="#FFD300"/>
<path d="M171.947 135.719H164.536V143.107H171.947V135.719Z" fill="#FFD300"/>
<path d="M171.947 128.327H164.536V135.715H171.947V128.327Z" fill="#FFD300"/>
<path d="M171.947 120.94H164.536V128.327H171.947V120.94Z" fill="#FFD300"/>
<path d="M171.947 113.555H164.536V120.943H171.947V113.555Z" fill="#FFD300"/>
<path d="M171.947 106.165H164.536V113.555H171.947V106.165Z" fill="#FFD300"/>
<path d="M171.947 98.7776H164.536V106.165H171.947V98.7776Z" fill="#FFD300"/>
<path d="M171.947 91.3888H164.536V98.7776H171.947V91.3888Z" fill="#FFD300"/>
<path d="M171.947 84H164.536V91.3888H171.947L171.947 84Z" fill="#FFD300"/>
<path d="M164.536 209.611L157.124 209.612V217H164.534L164.536 209.611Z" fill="#FFD300"/>
<path d="M164.536 202.223H157.124V209.612L164.536 209.611V202.223Z" fill="#FFD300"/>
<path d="M164.536 194.836H157.124V202.223H164.536V194.836Z" fill="#FFD300"/>
<path d="M164.536 187.447H157.124V194.836H164.536V187.447Z" fill="#FFD300"/>
<path d="M164.536 180.06H157.124V187.447H164.536V180.06Z" fill="#FFD300"/>
<path d="M164.536 172.671H157.124V180.06H164.536V172.671Z" fill="#FFD300"/>
<path d="M164.536 165.282H157.124V172.671H164.536V165.282Z" fill="#FFD300"/>
<path d="M164.536 157.895H157.124V165.282H164.536V157.895Z" fill="#FFD300"/>
<path d="M164.536 150.506H157.124V157.895H164.536V150.506Z" fill="#FFD300"/>
<path d="M164.536 143.107H157.124V150.511H164.536V143.107Z" fill="#FFD300"/>
<path d="M164.536 135.719H157.124V143.107H164.536V135.719Z" fill="#FFD300"/>
<path d="M164.536 128.327H157.124V135.715H164.536V128.327Z" fill="#FFD300"/>
<path d="M164.536 120.94H157.124V128.327H164.536V120.94Z" fill="#FFD300"/>
<path d="M164.536 113.555H157.124V120.943H164.536V113.555Z" fill="#FFD300"/>
<path d="M164.536 106.165H157.124V113.555L164.534 113.553L164.536 106.165Z" fill="#FFD300"/>
<path d="M164.536 98.7776H157.124V106.165H164.536V98.7776Z" fill="#FFD300"/>
<path d="M164.536 91.3888H157.124V98.7776H164.536V91.3888Z" fill="#FFD300"/>
<path d="M164.536 84H157.124V91.3888H164.536V84Z" fill="#FFD300"/>
<path d="M157.124 209.612H149.713V217H157.124V209.612Z" fill="#FFD300"/>
<path d="M157.124 202.223H149.713V209.612H157.124V202.223Z" fill="#FFD300"/>
<path d="M157.124 194.836H149.713V202.223H157.124V194.836Z" fill="#FFD300"/>
<path d="M157.124 187.447H149.713V194.836H157.124V187.447Z" fill="#FFD300"/>
<path d="M157.124 180.06H149.713V187.447H157.124V180.06Z" fill="#FFD300"/>
<path d="M157.124 172.671H149.713V180.06H157.124V172.671Z" fill="#FFD300"/>
<path d="M157.124 165.282H149.713V172.671H157.124V165.282Z" fill="#FFD300"/>
<path d="M157.124 157.895H149.713V165.282H157.124V157.895Z" fill="#FFD300"/>
<path d="M157.124 150.506H149.713V157.895H157.124V150.506Z" fill="#FFD300"/>
<path d="M157.124 143.107H149.713V150.511H157.124V143.107Z" fill="#FFD300"/>
<path d="M157.124 135.719H149.713V143.107H157.124V135.719Z" fill="#FFD300"/>
<path d="M157.124 128.327H149.713V135.715H157.124V128.327Z" fill="#FFD300"/>
<path d="M157.124 120.94H149.713V128.327H157.124V120.94Z" fill="#FFD300"/>
<path d="M157.124 113.555H149.713V120.943H157.124V113.555Z" fill="#FFD300"/>
<path d="M157.124 106.165H149.713V113.555H157.124V106.165Z" fill="#FFD300"/>
<path d="M157.124 98.7776H149.713V106.165H157.124V98.7776Z" fill="#FFD300"/>
<path d="M157.124 91.3888H149.713V98.7776H157.124V91.3888Z" fill="#FFD300"/>
<path d="M157.124 84H149.713V91.3888H157.124V84Z" fill="#FFD300"/>
<path d="M149.713 209.612H142.302V217H149.713V209.612Z" fill="#FFD300"/>
<path d="M149.713 202.223H142.302V209.612H149.713V202.223Z" fill="#FFD300"/>
<path d="M149.713 194.836H142.302V202.223H149.713V194.836Z" fill="#FFD300"/>
<path d="M149.713 187.447H142.302V194.836H149.713V187.447Z" fill="#FFD300"/>
<path d="M149.713 180.06H142.302V187.447H149.713V180.06Z" fill="#FFD300"/>
<path d="M149.713 172.671H142.302V180.06H149.713V172.671Z" fill="#FFD300"/>
<path d="M149.713 165.282H142.302V172.671H149.713V165.282Z" fill="#FFD300"/>
<path d="M149.713 157.895H142.302V165.282H149.713V157.895Z" fill="#FFD300"/>
<path d="M149.713 150.506H142.302V157.895H149.713V150.506Z" fill="#FFD300"/>
<path d="M149.713 143.107H142.302V150.511H149.713V143.107Z" fill="#FFD300"/>
<path d="M149.713 135.719H142.302V143.107H149.713V135.719Z" fill="#FFD300"/>
<path d="M149.713 128.327H142.302V135.715H149.713V128.327Z" fill="#FFD300"/>
<path d="M149.713 120.94H142.302V128.327H149.713V120.94Z" fill="#FFD300"/>
<path d="M149.713 113.555H142.302V120.943H149.713V113.555Z" fill="#FFD300"/>
<path d="M149.713 106.165H142.302V113.555H149.713V106.165Z" fill="#FFD300"/>
<path d="M149.713 98.7776H142.302V106.165H149.713V98.7776Z" fill="#FFD300"/>
<path d="M149.713 91.3888H142.302V98.7776H149.713V91.3888Z" fill="#FFD300"/>
<path d="M149.713 84H142.302V91.3888H149.713V84Z" fill="#FFD300"/>
<path d="M142.302 209.612H134.892V217H142.302V209.612Z" fill="#FFD300"/>
<path d="M142.302 202.223H134.892V209.612H142.302V202.223Z" fill="#FFD300"/>
<path d="M142.302 194.836H134.892V202.223H142.302V194.836Z" fill="#FFD300"/>
<path d="M142.302 187.447H134.892V194.836H142.302V187.447Z" fill="#FFD300"/>
<path d="M142.302 180.06H134.892V187.447H142.302V180.06Z" fill="#FFD300"/>
<path d="M142.302 172.671H134.892V180.06H142.302V172.671Z" fill="#FFD300"/>
<path d="M142.302 165.282H134.892V172.671H142.302V165.282Z" fill="#FFD300"/>
<path d="M142.302 157.895H134.892V165.282H142.302V157.895Z" fill="#FFD300"/>
<path d="M142.302 150.506H134.892V157.895H142.302V150.506Z" fill="#FFD300"/>
<path d="M142.302 143.107H134.892V150.511H142.302V143.107Z" fill="#FFD300"/>
<path d="M142.302 135.719H134.892V143.107H142.302V135.719Z" fill="#FFD300"/>
<path d="M142.302 128.327H134.892V135.715H142.302V128.327Z" fill="#FFD300"/>
<path d="M142.302 120.94H134.892V128.327H142.302V120.94Z" fill="#FFD300"/>
<path d="M142.302 113.555H134.892V120.943H142.302V113.555Z" fill="#FFD300"/>
<path d="M142.302 106.165H134.892V113.555H142.302V106.165Z" fill="#FFD300"/>
<path d="M142.302 98.7776H134.892V106.165H142.302V98.7776Z" fill="#FFD300"/>
<path d="M142.302 91.3888H134.892V98.7776H142.302V91.3888Z" fill="#FFD300"/>
<path d="M142.302 84H134.892V91.3888H142.302V84Z" fill="#FFD300"/>
<path d="M134.892 209.612H127.481V217H134.892V209.612Z" fill="#FFD300"/>
<path d="M134.892 202.223H127.481V209.612H134.892V202.223Z" fill="#FFD300"/>
<path d="M134.892 194.836H127.481V202.223H134.892V194.836Z" fill="#FFD300"/>
<path d="M134.892 187.447H127.481V194.836H134.892V187.447Z" fill="#FFD300"/>
<path d="M134.892 180.06H127.481V187.447H134.892V180.06Z" fill="#FFD300"/>
<path d="M134.892 172.671H127.481V180.06H134.892V172.671Z" fill="#FFD300"/>
<path d="M134.892 165.282H127.481V172.671H134.892V165.282Z" fill="#FFD300"/>
<path d="M134.892 157.895H127.481V165.282H134.892V157.895Z" fill="#FFD300"/>
<path d="M134.892 150.506H127.481V157.895H134.892V150.506Z" fill="#FFD300"/>
<path d="M134.892 143.107H127.481V150.511H134.892V143.107Z" fill="#FFD300"/>
<path d="M134.892 135.719H127.481V143.107H134.892V135.719Z" fill="#FFD300"/>
<path d="M134.892 128.327H127.481V135.715H134.892V128.327Z" fill="#FFD300"/>
<path d="M134.892 120.94H127.481V128.327H134.892V120.94Z" fill="#FFD300"/>
<path d="M134.892 113.555H127.481V120.943H134.892V113.555Z" fill="#FFD300"/>
<path d="M134.892 106.165H127.481V113.555H134.892V106.165Z" fill="#FFD300"/>
<path d="M134.892 98.7776H127.481V106.165H134.892V98.7776Z" fill="#FFD300"/>
<path d="M134.892 91.3888H127.481V98.7776H134.892V91.3888Z" fill="#FFD300"/>
<path d="M134.892 84H127.481V91.3888H134.892V84Z" fill="#FFD300"/>
<path d="M127.481 202.223H120.07V209.611L127.481 209.612V202.223Z" fill="#FFD300"/>
<path d="M127.481 194.836H120.07V202.223H127.481V194.836Z" fill="#FFD300"/>
<path d="M127.481 187.447H120.07V194.836H127.481V187.447Z" fill="#FFD300"/>
<path d="M127.481 180.06H120.07V187.447H127.481V180.06Z" fill="#FFD300"/>
<path d="M127.481 172.671H120.07V180.06H127.481V172.671Z" fill="#FFD300"/>
<path d="M127.481 165.282H120.07V172.671H127.481V165.282Z" fill="#FFD300"/>
<path d="M127.481 157.895H120.07V165.282H127.481V157.895Z" fill="#FFD300"/>
<path d="M127.481 150.506H120.07V157.895H127.481V150.506Z" fill="#FFD300"/>
<path d="M127.481 143.107H120.07V150.511H127.481V143.107Z" fill="#FFD300"/>
<path d="M127.481 135.719H120.07V143.107H127.481V135.719Z" fill="#FFD300"/>
<path d="M127.481 128.327H120.07V135.715H127.481V128.327Z" fill="#FFD300"/>
<path d="M127.481 120.94H120.07V128.327H127.481V120.94Z" fill="#FFD300"/>
<path d="M127.481 113.555H120.07V120.943H127.481V113.555Z" fill="#FFD300"/>
<path d="M127.481 106.165H120.07V113.555H127.481V106.165Z" fill="#FFD300"/>
<path d="M127.481 98.7776H120.07V106.165H127.481V98.7776Z" fill="#FFD300"/>
<path d="M127.481 91.3888H120.07V98.7776H127.481V91.3888Z" fill="#FFD300"/>
<path d="M127.481 84H120.07V91.3888H127.481V84Z" fill="#FFD300"/>
<path d="M120.07 194.836H112.66V202.224L120.07 202.223V194.836Z" fill="#FFD300"/>
<path d="M120.07 187.447H112.66V194.836H120.07V187.447Z" fill="#FFD300"/>
<path d="M120.07 180.06H112.66V187.447H120.07V180.06Z" fill="#FFD300"/>
<path d="M120.07 172.671H112.66V180.06H120.07V172.671Z" fill="#FFD300"/>
<path d="M120.07 165.282H112.66V172.671H120.07V165.282Z" fill="#FFD300"/>
<path d="M120.07 157.895H112.66V165.282H120.07V157.895Z" fill="#FFD300"/>
<path d="M120.07 150.506H112.66V157.895H120.07V150.506Z" fill="#FFD300"/>
<path d="M120.07 143.107H112.66V150.511H120.07V143.107Z" fill="#FFD300"/>
<path d="M120.07 135.719H112.66V143.107H120.07V135.719Z" fill="#FFD300"/>
<path d="M120.07 128.327H112.66V135.715H120.07V128.327Z" fill="#FFD300"/>
<path d="M120.07 120.94H112.66V128.327H120.07V120.94Z" fill="#FFD300"/>
<path d="M120.07 113.555H112.66V120.943H120.07V113.555Z" fill="#FFD300"/>
<path d="M120.07 106.165H112.66V113.555H120.07V106.165Z" fill="#FFD300"/>
<path d="M120.07 98.7776H112.66V106.165H120.07V98.7776Z" fill="#FFD300"/>
<path d="M120.07 91.3888H112.66V98.7776H120.07V91.3888Z" fill="#FFD300"/>
<path d="M112.66 187.447H105.247V194.835L112.66 194.836V187.447Z" fill="#FFD300"/>
<path d="M112.66 180.06H105.247V187.447H112.66V180.06Z" fill="#FFD300"/>
<path d="M112.66 172.671H105.247V180.06H112.66V172.671Z" fill="#FFD300"/>
<path d="M112.66 165.282H105.247V172.671H112.66V165.282Z" fill="#FFD300"/>
<path d="M112.66 157.895H105.247V165.282H112.66V157.895Z" fill="#FFD300"/>
<path d="M112.66 150.506H105.247V157.895H112.66V150.506Z" fill="#FFD300"/>
<path d="M112.66 143.107H105.247V150.511H112.66V143.107Z" fill="#FFD300"/>
<path d="M112.66 135.719H105.247V143.107H112.66V135.719Z" fill="#FFD300"/>
<path d="M112.66 128.327H105.247V135.715H112.66V128.327Z" fill="#FFD300"/>
<path d="M112.66 120.94H105.247V128.327H112.66V120.94Z" fill="#FFD300"/>
<path d="M112.66 113.555H105.247V120.943H112.66V113.555Z" fill="#FFD300"/>
<path d="M112.66 106.165H105.247V113.555L112.658 113.553L112.66 106.165Z" fill="#FFD300"/>
<path d="M112.66 98.7776H105.247V106.165H112.66V98.7776Z" fill="#FFD300"/>
<path d="M105.247 180.06H97.8369V187.448L105.247 187.447V180.06Z" fill="#FFD300"/>
<path d="M105.247 172.671H97.8369V180.06H105.247V172.671Z" fill="#FFD300"/>
<path d="M105.247 165.282H97.8369V172.671H105.247V165.282Z" fill="#FFD300"/>
<path d="M105.247 157.895H97.8369V165.282H105.247V157.895Z" fill="#FFD300"/>
<path d="M105.247 150.506H97.8369V157.895H105.247V150.506Z" fill="#FFD300"/>
<path d="M105.247 143.107H97.8369V150.511H105.247V143.107Z" fill="#FFD300"/>
<path d="M105.247 135.719H97.8369V143.107H105.247V135.719Z" fill="#FFD300"/>
<path d="M105.247 128.327H97.8369V135.715H105.247V128.327Z" fill="#FFD300"/>
<path d="M105.247 120.94H97.8369V128.327H105.247V120.94Z" fill="#FFD300"/>
<path d="M105.247 113.555H97.8369V120.943H105.247V113.555Z" fill="#FFD300"/>
<path d="M105.247 106.165H97.8369V113.555H105.247V106.165Z" fill="#FFD300"/>
<path d="M97.8369 172.671H90.4105V180.059L97.8369 180.06V172.671Z" fill="#FFD300"/>
<path d="M97.8369 165.282H90.4105V172.671H97.8369V165.282Z" fill="#FFD300"/>
<path d="M97.8369 157.895H90.4105V165.282H97.8369V157.895Z" fill="#FFD300"/>
<path d="M97.8369 150.506H90.4105V157.895H97.8369V150.506Z" fill="#FFD300"/>
<path d="M97.8369 143.107H90.4105V150.511H97.8369V143.107Z" fill="#FFD300"/>
<path d="M97.8369 135.719H90.4105V143.107H97.8369V135.719Z" fill="#FFD300"/>
<path d="M97.8369 128.327H90.4105V135.715H97.8369V128.327Z" fill="#FFD300"/>
<path d="M97.8369 120.94H90.4105V128.327H97.8369V120.94Z" fill="#FFD300"/>
<path d="M97.8369 113.555H90.4105V120.943H97.8369V113.555Z" fill="#FFD300"/>
<path d="M90.4105 165.282H83V172.67L90.4105 172.671V165.282Z" fill="#FFD300"/>
<path d="M90.4105 157.895H83V165.282H90.4105V157.895Z" fill="#FFD300"/>
<path d="M90.4105 150.506H83V157.895H90.4105V150.506Z" fill="#FFD300"/>
<path d="M90.4105 143.107H83V150.511H90.4105V143.107Z" fill="#FFD300"/>
<path d="M90.4105 135.719H83V143.107H90.4105V135.719Z" fill="#FFD300"/>
<path d="M90.4105 128.327H83V135.715H90.4105V128.327Z" fill="#FFD300"/>
<path d="M90.4105 120.94H83V128.327H90.4105V120.94Z" fill="#FFD300"/>
</g>
</g>
<defs>
<filter id="filter0_f_0_7780" x="0.599998" y="0.599998" width="290.8" height="299.8" filterUnits="userSpaceOnUse" colorInterpolationFilters="sRGB">
<feFlood floodOpacity="0" result="BackgroundImageFix"/>
<feBlend mode="normal" in="SourceGraphic" in2="BackgroundImageFix" result="shape"/>
<feGaussianBlur stdDeviation="25.7" result="effect1_foregroundBlur_0_7780"/>
</filter>
</defs>
</svg>
