<svg width="75" height="110" viewBox="0 0 75 110" fill="none" xmlns="http://www.w3.org/2000/svg">
<path d="M63 100H60.917V102.083H63V100Z" fill="#F29214"/>
<path d="M63 97.9162H60.917V100H63V97.9162Z" fill="#D8C625"/>
<path d="M63 95.8332H60.917V97.9162H63V95.8332Z" fill="#D8C625"/>
<path d="M63 93.7494H60.917V95.8332H63V93.7494Z" fill="#D8C625"/>
<path d="M63 85.4166H60.917V87.4996H63V85.4166Z" fill="#D8C625"/>
<path d="M63 83.3328H60.917V85.4166H63V83.3328Z" fill="#D8C625"/>
<path d="M63 81.2498H60.917V83.3328H63V81.2498Z" fill="#D8C625"/>
<path d="M63 79.1668H60.917V81.2498H63V79.1668Z" fill="#D8C625"/>
<path d="M60.917 112.5H58.8331V114.583H60.917V112.5Z" fill="#845D25"/>
<path d="M60.917 110.417H58.8331V112.5H60.917V110.417Z" fill="#845D25"/>
<path d="M60.917 108.333H58.8331V110.417H60.917V108.333Z" fill="#845D25"/>
<path d="M60.917 106.25H58.8331V108.333H60.917V106.25Z" fill="#845D25"/>
<path d="M60.917 104.167H58.8331V106.25H60.917V104.167Z" fill="#845D25"/>
<path d="M60.917 102.083H58.8331V104.167H60.917V102.083Z" fill="#F29214"/>
<path d="M60.917 100H58.8331V102.083H60.917V100Z" fill="#D8C625"/>
<path d="M60.917 97.9162H58.8331V100H60.917V97.9162Z" fill="#F6CD25"/>
<path d="M60.917 95.8332H58.8331V97.9162H60.917V95.8332Z" fill="#F6CD25"/>
<path d="M60.917 93.7494H58.8331V95.8332H60.917V93.7494Z" fill="#F6CD25"/>
<path d="M60.917 91.6664H58.8331V93.7494H60.917V91.6664Z" fill="#F6CD25"/>
<path d="M60.917 89.5834H58.8331V91.6664H60.917V89.5834Z" fill="#D8C625"/>
<path d="M60.917 87.4996L58.8331 87.4996V89.5834H60.917V87.4996Z" fill="#D8C625"/>
<path d="M60.917 85.4166H58.8331V87.4996L60.917 87.4996V85.4166Z" fill="#F6CD25"/>
<path d="M60.917 83.3328H58.8331V85.4166H60.917V83.3328Z" fill="#F6CD25"/>
<path d="M60.917 81.2498H58.8331V83.3328H60.917V81.2498Z" fill="#F6CD25"/>
<path d="M60.917 79.1668H58.8331V81.2498H60.917V79.1668Z" fill="#D8C625"/>
<path d="M60.917 77.083H58.8331V79.1668H60.917V77.083Z" fill="#D8C625"/>
<path d="M58.8331 116.666H56.7501V118.749H58.8331V116.666Z" fill="#845D25"/>
<path d="M58.8331 114.583H56.7501V116.666H58.8331L58.8331 114.583Z" fill="#845D25"/>
<path d="M58.8331 112.5H56.7501V114.583H58.8331V112.5Z" fill="#845D25"/>
<path d="M58.8331 110.417H56.7501V112.5H58.8331V110.417Z" fill="#845D25"/>
<path d="M58.8331 108.333H56.7501V110.417H58.8331V108.333Z" fill="#845D25"/>
<path d="M58.8331 106.25H56.7501V108.333H58.8331V106.25Z" fill="#845D25"/>
<path d="M58.8331 104.167H56.7501V106.25H58.8331V104.167Z" fill="#845D25"/>
<path d="M58.8331 102.083H56.7501V104.167H58.8331V102.083Z" fill="#845D25"/>
<path d="M58.8331 100H56.7501V102.083H58.8331V100Z" fill="#F29214"/>
<path d="M58.8331 97.9162H56.7501V100H58.8331V97.9162Z" fill="#D8C625"/>
<path d="M58.8331 95.8332H56.7501V97.9162H58.8331V95.8332Z" fill="#F6CD25"/>
<path d="M58.8331 93.7494H56.7501V95.8332H58.8331V93.7494Z" fill="#F6CD25"/>
<path d="M58.8331 91.6664H56.7501V93.7494H58.8331V91.6664Z" fill="#F6CD25"/>
<path d="M58.8331 89.5834H56.7501V91.6664H58.8331V89.5834Z" fill="#F6CD25"/>
<path d="M58.8331 87.4996H56.7501V89.5834H58.8331V87.4996Z" fill="#F6CD25"/>
<path d="M58.8331 85.4166H56.7501V87.4996H58.8331V85.4166Z" fill="#F6CD25"/>
<path d="M58.8331 83.3328H56.7501V85.4166H58.8331V83.3328Z" fill="#F6CD25"/>
<path d="M58.8331 81.2498H56.7501V83.3328H58.8331V81.2498Z" fill="#F6CD25"/>
<path d="M58.8331 79.1668H56.7501V81.2498H58.8331V79.1668Z" fill="#F6CD25"/>
<path d="M58.8331 77.083H56.7501V79.1668H58.8331V77.083Z" fill="#D8C625"/>
<path d="M56.7501 118.749H54.6671V120.832H56.7501L56.7501 118.749Z" fill="#845D25"/>
<path d="M56.7501 116.666H54.6671V118.749H56.7501V116.666Z" fill="#845D25"/>
<path d="M56.7501 114.583H54.6671V116.666H56.7501V114.583Z" fill="#845D25"/>
<path d="M56.7501 112.5H54.6671V114.583H56.7501V112.5Z" fill="#9B702C"/>
<path d="M56.7501 110.417H54.6671V112.5H56.7501V110.417Z" fill="#9B702C"/>
<path d="M56.7501 108.333H54.6671V110.417H56.7501V108.333Z" fill="#9B702C"/>
<path d="M56.7501 106.25H54.6671V108.333H56.7501V106.25Z" fill="#9B702C"/>
<path d="M56.7501 104.167H54.6671V106.25H56.7501V104.167Z" fill="#9B702C"/>
<path d="M56.7501 102.083H54.6671V104.167H56.7501V102.083Z" fill="#9B702C"/>
<path d="M56.7501 100H54.6671V102.083H56.7501V100Z" fill="#845D25"/>
<path d="M56.7501 97.9162H54.6671V100H56.7501V97.9162Z" fill="#F29214"/>
<path d="M56.7501 95.8332H54.6671V97.9162H56.7501V95.8332Z" fill="#D8C625"/>
<path d="M56.7501 93.7494H54.6671V95.8332H56.7501V93.7494Z" fill="#F6CD25"/>
<path d="M56.7501 91.6664H54.6671V93.7494H56.7501V91.6664Z" fill="#F6CD25"/>
<path d="M56.7501 89.5834H54.6671V91.6664H56.7501V89.5834Z" fill="#F6CD25"/>
<path d="M56.7501 87.4996H54.6671V89.5834H56.7501V87.4996Z" fill="#FFFCE6"/>
<path d="M56.7501 85.4166H54.6671V87.4996H56.7501V85.4166Z" fill="#F6CD25"/>
<path d="M56.7501 83.3328H54.6671V85.4166H56.7501V83.3328Z" fill="#F6CD25"/>
<path d="M56.7501 81.2498H54.6671V83.3328H56.7501V81.2498Z" fill="#F6CD25"/>
<path d="M56.7501 79.1668H54.6671V81.2498H56.7501V79.1668Z" fill="#F6CD25"/>
<path d="M56.7501 77.083H54.6671V79.1668H56.7501V77.083Z" fill="#F6CD25"/>
<path d="M54.6671 120.832H52.5832V122.916H54.6671V120.832Z" fill="#845D25"/>
<path d="M54.6671 118.749H52.5832V120.832H54.6671V118.749Z" fill="#845D25"/>
<path d="M54.6671 116.666H52.5832V118.749H54.6671V116.666Z" fill="#9B702C"/>
<path d="M54.6671 114.583H52.5832V116.666H54.6671V114.583Z" fill="#9B702C"/>
<path d="M54.6671 112.5H52.5832V114.583H54.6671V112.5Z" fill="#9B702C"/>
<path d="M54.6671 110.417H52.5832V112.5H54.6671V110.417Z" fill="#9B702C"/>
<path d="M54.6671 108.333H52.5832V110.417H54.6671V108.333Z" fill="#9B702C"/>
<path d="M54.6671 106.25H52.5832V108.333H54.6671V106.25Z" fill="#9B702C"/>
<path d="M54.6671 104.167H52.5832V106.25H54.6671V104.167Z" fill="#9B702C"/>
<path d="M54.6671 102.083H52.5832V104.167H54.6671V102.083Z" fill="#9B702C"/>
<path d="M54.6671 100H52.5832V102.083H54.6671V100Z" fill="#9B702C"/>
<path d="M54.6671 97.9162H52.5832V100H54.6671V97.9162Z" fill="#845D25"/>
<path d="M54.6671 95.8332H52.5832V97.9162H54.6671V95.8332Z" fill="#F29214"/>
<path d="M54.6671 93.7494H52.5832V95.8332H54.6671V93.7494Z" fill="#D8C625"/>
<path d="M54.6671 91.6664H52.5832V93.7494H54.6671V91.6664Z" fill="#F6CD25"/>
<path d="M54.6671 89.5834H52.5832V91.6664H54.6671V89.5834Z" fill="#FFFCE6"/>
<path d="M54.6671 87.4996H52.5832V89.5834H54.6671V87.4996Z" fill="#F6CD25"/>
<path d="M54.6671 85.4166H52.5832V87.4996H54.6671V85.4166Z" fill="#F6CD25"/>
<path d="M54.6671 83.3328H52.5832V85.4166H54.6671V83.3328Z" fill="#C67B20"/>
<path d="M54.6671 81.2498H52.5832V83.3328H54.6671V81.2498Z" fill="#C67B20"/>
<path d="M54.6671 79.1668H52.5832V81.2498H54.6671V79.1668Z" fill="#F6CD25"/>
<path d="M54.6671 77.083H52.5832V79.1668H54.6671V77.083Z" fill="#F6CD25"/>
<path d="M54.6671 75H52.5832V77.083H54.6671V75Z" fill="#F6CD25"/>
<path d="M52.5832 122.916H50.5002V125H52.5832V122.916Z" fill="#845D25"/>
<path d="M52.5832 120.832H50.5002V122.916H52.5832V120.832Z" fill="#845D25"/>
<path d="M52.5832 118.749H50.5002V120.832H52.5832V118.749Z" fill="#845D25"/>
<path d="M52.5832 116.666H50.5002V118.749H52.5832V116.666Z" fill="#9B702C"/>
<path d="M52.5832 114.583H50.5002V116.666H52.5832V114.583Z" fill="#9B702C"/>
<path d="M52.5832 112.5H50.5002V114.583H52.5832V112.5Z" fill="#9B702C"/>
<path d="M52.5832 110.417H50.5002V112.5H52.5832V110.417Z" fill="#9B702C"/>
<path d="M52.5832 108.333H50.5002V110.417H52.5832V108.333Z" fill="#9B702C"/>
<path d="M52.5832 106.25H50.5002V108.333H52.5832V106.25Z" fill="#9B702C"/>
<path d="M52.5832 104.167H50.5002V106.25H52.5832V104.167Z" fill="#9B702C"/>
<path d="M52.5832 102.083H50.5002V104.167H52.5832V102.083Z" fill="#9B702C"/>
<path d="M52.5832 100H50.5002V102.083H52.5832V100Z" fill="#845D25"/>
<path d="M52.5832 97.9162H50.5002V100H52.5832V97.9162Z" fill="#F29214"/>
<path d="M52.5832 95.8332H50.5002V97.9162H52.5832V95.8332Z" fill="#D8C625"/>
<path d="M52.5832 93.7494H50.5002V95.8332H52.5832V93.7494Z" fill="#F6CD25"/>
<path d="M52.5832 91.6664H50.5002V93.7494H52.5832V91.6664Z" fill="#F6CD25"/>
<path d="M52.5832 89.5834H50.5002V91.6664H52.5832V89.5834Z" fill="#F6CD25"/>
<path d="M52.5832 87.4996H50.5002V89.5834H52.5832V87.4996Z" fill="#F6CD25"/>
<path d="M52.5832 85.4166H50.5002V87.4996H52.5832V85.4166Z" fill="#C67B20"/>
<path d="M52.5832 83.3328H50.5002V85.4166H52.5832V83.3328Z" fill="#D8AA2B"/>
<path d="M52.5832 81.2498H50.5002V83.3328H52.5832V81.2498Z" fill="#D8AA2B"/>
<path d="M52.5832 79.1668H50.5002V81.2498H52.5832V79.1668Z" fill="#C67B20"/>
<path d="M52.5832 77.083H50.5002V79.1668H52.5832V77.083Z" fill="#F6CD25"/>
<path d="M52.5832 75H50.5002V77.083H52.5832V75Z" fill="#F6CD25"/>
<path d="M50.5002 122.916H48.4164V125H50.5002V122.916Z" fill="#845D25"/>
<path d="M50.5002 120.832H48.4164V122.916H50.5002V120.832Z" fill="#845D25"/>
<path d="M50.5002 118.749H48.4164V120.832H50.5002V118.749Z" fill="#9B702C"/>
<path d="M50.5002 116.666H48.4164V118.749H50.5002V116.666Z" fill="#9B702C"/>
<path d="M50.5002 114.583H48.4164V116.666H50.5002V114.583Z" fill="#9B702C"/>
<path d="M50.5002 112.5H48.4164V114.583H50.5002V112.5Z" fill="#9B702C"/>
<path d="M50.5002 110.417H48.4164V112.5H50.5002V110.417Z" fill="#9B702C"/>
<path d="M50.5002 108.333H48.4164V110.417H50.5002V108.333Z" fill="#9B702C"/>
<path d="M50.5002 106.25H48.4164V108.333H50.5002V106.25Z" fill="#9B702C"/>
<path d="M50.5002 104.167H48.4164V106.25H50.5002V104.167Z" fill="#9B702C"/>
<path d="M50.5002 102.083H48.4164V104.167H50.5002V102.083Z" fill="#9B702C"/>
<path d="M50.5002 100H48.4164V102.083H50.5002V100Z" fill="#845D25"/>
<path d="M50.5002 97.9162H48.4164V100H50.5002V97.9162Z" fill="#F29214"/>
<path d="M50.5002 95.8332H48.4164V97.9162H50.5002V95.8332Z" fill="#D8C625"/>
<path d="M50.5002 93.7494H48.4164V95.8332H50.5002V93.7494Z" fill="#F6CD25"/>
<path d="M50.5002 91.6664H48.4164V93.7494H50.5002V91.6664Z" fill="#F6CD25"/>
<path d="M50.5002 89.5834H48.4164V91.6664H50.5002V89.5834Z" fill="#FFFCE6"/>
<path d="M50.5002 87.4996H48.4164V89.5834H50.5002V87.4996Z" fill="#F6CD25"/>
<path d="M50.5002 85.4166H48.4164V87.4996H50.5002V85.4166Z" fill="#C67B20"/>
<path d="M50.5002 83.3328H48.4164V85.4166H50.5002V83.3328Z" fill="#D8AA2B"/>
<path d="M50.5002 81.2498H48.4164V83.3328H50.5002V81.2498Z" fill="#D8AA2B"/>
<path d="M50.5002 79.1668H48.4164V81.2498H50.5002V79.1668Z" fill="#F6CD25"/>
<path d="M50.5002 77.083H48.4164V79.1668H50.5002V77.083Z" fill="#F6CD25"/>
<path d="M50.5002 75H48.4164V77.083H50.5002V75Z" fill="#F6CD25"/>
<path d="M48.4164 122.916H46.3333V125H48.4164V122.916Z" fill="#845D25"/>
<path d="M48.4164 120.832H46.3333V122.916H48.4164V120.832Z" fill="#845D25"/>
<path d="M48.4164 118.749H46.3333V120.832H48.4164V118.749Z" fill="#9B702C"/>
<path d="M48.4164 116.666H46.3333V118.749H48.4164V116.666Z" fill="#9B702C"/>
<path d="M48.4164 114.583H46.3333V116.666H48.4164V114.583Z" fill="#9B702C"/>
<path d="M48.4164 112.5H46.3333V114.583H48.4164V112.5Z" fill="#9B702C"/>
<path d="M48.4164 110.417H46.3333V112.5H48.4164V110.417Z" fill="#9B702C"/>
<path d="M48.4164 108.333H46.3333V110.417H48.4164V108.333Z" fill="#9B702C"/>
<path d="M48.4164 106.25H46.3333V108.333H48.4164V106.25Z" fill="#9B702C"/>
<path d="M48.4164 104.167H46.3333V106.25H48.4164V104.167Z" fill="#9B702C"/>
<path d="M48.4164 102.083H46.3333V104.167H48.4164V102.083Z" fill="#9B702C"/>
<path d="M48.4164 100H46.3333V102.083H48.4164V100Z" fill="#9B702C"/>
<path d="M48.4164 97.9162H46.3333V100H48.4164V97.9162Z" fill="#845D25"/>
<path d="M48.4164 95.8332H46.3333V97.9162H48.4164V95.8332Z" fill="#F29214"/>
<path d="M48.4164 93.7494H46.3333V95.8332H48.4164V93.7494Z" fill="#F6CD25"/>
<path d="M48.4164 91.6664H46.3333V93.7494H48.4164V91.6664Z" fill="#F6CD25"/>
<path d="M48.4164 89.5834H46.3333V91.6664H48.4164V89.5834Z" fill="#FFFCE6"/>
<path d="M48.4164 87.4996H46.3333V89.5834H48.4164V87.4996Z" fill="#F6CD25"/>
<path d="M48.4164 85.4166H46.3333V87.4996H48.4164V85.4166Z" fill="#C67B20"/>
<path d="M48.4164 83.3328H46.3333V85.4166H48.4164V83.3328Z" fill="#D8AA2B"/>
<path d="M48.4164 81.2498H46.3333V83.3328H48.4164V81.2498Z" fill="#D8AA2B"/>
<path d="M48.4164 79.1668H46.3333V81.2498H48.4164V79.1668Z" fill="#F6CD25"/>
<path d="M48.4164 77.083H46.3333V79.1668H48.4164V77.083Z" fill="#F6CD25"/>
<path d="M48.4164 75H46.3333V77.083H48.4164V75Z" fill="#F6CD25"/>
<path d="M46.3333 122.916H44.2503V125H46.3333V122.916Z" fill="#845D25"/>
<path d="M46.3333 120.832H44.2503V122.916H46.3333V120.832Z" fill="#9B702C"/>
<path d="M46.3333 118.749H44.2503V120.832H46.3333V118.749Z" fill="#9B702C"/>
<path d="M46.3333 116.666H44.2503V118.749H46.3333V116.666Z" fill="#9B702C"/>
<path d="M46.3333 114.583H44.2503V116.666H46.3333V114.583Z" fill="#9B702C"/>
<path d="M46.3333 112.5H44.2503V114.583H46.3333V112.5Z" fill="#9B702C"/>
<path d="M46.3333 110.417H44.2503V112.5H46.3333V110.417Z" fill="#9B702C"/>
<path d="M46.3333 108.333H44.2503V110.417H46.3333V108.333Z" fill="#9B702C"/>
<path d="M46.3333 106.25H44.2503V108.333H46.3333V106.25Z" fill="#9B702C"/>
<path d="M46.3333 104.167H44.2503V106.25H46.3333V104.167Z" fill="#9B702C"/>
<path d="M46.3333 102.083H44.2503V104.167H46.3333V102.083Z" fill="#9B702C"/>
<path d="M46.3333 100H44.2503V102.083H46.3333V100Z" fill="#9B702C"/>
<path d="M46.3333 97.9162H44.2503V100H46.3333V97.9162Z" fill="#845D25"/>
<path d="M46.3333 95.8332H44.2503V97.9162H46.3333V95.8332Z" fill="#F29214"/>
<path d="M46.3333 93.7494H44.2503V95.8332H46.3333V93.7494Z" fill="#F6CD25"/>
<path d="M46.3333 91.6664H44.2503V93.7494H46.3333V91.6664Z" fill="#F6CD25"/>
<path d="M46.3333 89.5834H44.2503V91.6664H46.3333V89.5834Z" fill="#FFFCE6"/>
<path d="M46.3333 87.4996H44.2503V89.5834H46.3333V87.4996Z" fill="#F6CD25"/>
<path d="M46.3333 85.4166H44.2503V87.4996H46.3333V85.4166Z" fill="#C67B20"/>
<path d="M46.3333 83.3328H44.2503V85.4166H46.3333V83.3328Z" fill="#D8AA2B"/>
<path d="M46.3333 81.2498H44.2503V83.3328H46.3333V81.2498Z" fill="#F6CD25"/>
<path d="M46.3333 79.1668H44.2503V81.2498H46.3333V79.1668Z" fill="#F6CD25"/>
<path d="M46.3333 77.083H44.2503V79.1668H46.3333V77.083Z" fill="#FFFCE6"/>
<path d="M46.3333 75H44.2503V77.083H46.3333V75Z" fill="#F6CD25"/>
<path d="M44.2503 122.916H42.1665V125H44.2503V122.916Z" fill="#845D25"/>
<path d="M44.2503 120.832H42.1665V122.916H44.2503V120.832Z" fill="#9B702C"/>
<path d="M44.2503 118.749H42.1665V120.832H44.2503V118.749Z" fill="#9B702C"/>
<path d="M44.2503 116.666H42.1665V118.749H44.2503V116.666Z" fill="#9B702C"/>
<path d="M44.2503 114.583H42.1665V116.666H44.2503V114.583Z" fill="#9B702C"/>
<path d="M44.2503 112.5H42.1665V114.583H44.2503V112.5Z" fill="#9B702C"/>
<path d="M44.2503 110.417H42.1665V112.5H44.2503V110.417Z" fill="#9B702C"/>
<path d="M44.2503 108.333H42.1665V110.417H44.2503V108.333Z" fill="#9B702C"/>
<path d="M44.2503 106.25H42.1665V108.333H44.2503V106.25Z" fill="#9B702C"/>
<path d="M44.2503 104.167H42.1665V106.25H44.2503V104.167Z" fill="#845D25"/>
<path d="M44.2503 102.083H42.1665V104.167H44.2503V102.083Z" fill="#F29214"/>
<path d="M44.2503 100H42.1665V102.083H44.2503V100Z" fill="#F29214"/>
<path d="M44.2503 97.9162H42.1665V100H44.2503V97.9162Z" fill="#F29214"/>
<path d="M44.2503 95.8332H42.1665V97.9162H44.2503V95.8332Z" fill="#F6CD25"/>
<path d="M44.2503 93.7494H42.1665V95.8332H44.2503V93.7494Z" fill="#F6CD25"/>
<path d="M44.2503 91.6664H42.1665V93.7494H44.2503V91.6664Z" fill="#F6CD25"/>
<path d="M44.2503 89.5834H42.1665V91.6664H44.2503V89.5834Z" fill="#FFFCE6"/>
<path d="M44.2503 87.4996H42.1665V89.5834H44.2503V87.4996Z" fill="#F6CD25"/>
<path d="M44.2503 85.4166H42.1665V87.4996H44.2503V85.4166Z" fill="#C67B20"/>
<path d="M44.2503 83.3328H42.1665V85.4166H44.2503V83.3328Z" fill="#D8AA2B"/>
<path d="M44.2503 81.2498H42.1665V83.3328H44.2503V81.2498Z" fill="#F6CD25"/>
<path d="M44.2503 79.1668H42.1665V81.2498H44.2503V79.1668Z" fill="#F6CD25"/>
<path d="M44.2503 77.083H42.1665V79.1668H44.2503V77.083Z" fill="#F6CD25"/>
<path d="M44.2503 75H42.1665V77.083H44.2503V75Z" fill="#F6CD25"/>
<path d="M42.1665 122.916H40.0834V125H42.1665V122.916Z" fill="#9B702C"/>
<path d="M42.1665 120.832H40.0834V122.916H42.1665V120.832Z" fill="#9B702C"/>
<path d="M42.1665 118.749H40.0834V120.832H42.1665V118.749Z" fill="#9B702C"/>
<path d="M42.1665 116.666H40.0834V118.749H42.1665V116.666Z" fill="#9B702C"/>
<path d="M42.1665 114.583H40.0834V116.666H42.1665V114.583Z" fill="#9B702C"/>
<path d="M42.1665 112.5H40.0834V114.583H42.1665V112.5Z" fill="#9B702C"/>
<path d="M42.1665 110.417H40.0834V112.5H42.1665V110.417Z" fill="#9B702C"/>
<path d="M42.1665 108.333H40.0834V110.417H42.1665V108.333Z" fill="#9B702C"/>
<path d="M42.1665 106.25H40.0834V108.333H42.1665V106.25Z" fill="#845D25"/>
<path d="M42.1665 104.167H40.0834V106.25H42.1665V104.167Z" fill="#F29214"/>
<path d="M42.1665 102.083H40.0834V104.167H42.1665V102.083Z" fill="#F6CD25"/>
<path d="M42.1665 100H40.0834V102.083H42.1665V100Z" fill="#F6CD25"/>
<path d="M42.1665 97.9162H40.0834V100H42.1665V97.9162Z" fill="#F6CD25"/>
<path d="M42.1665 95.8332H40.0834V97.9162H42.1665V95.8332Z" fill="#F6CD25"/>
<path d="M42.1665 93.7494H40.0834V95.8332H42.1665V93.7494Z" fill="#F6CD25"/>
<path d="M42.1665 91.6664H40.0834V93.7494H42.1665V91.6664Z" fill="#F6CD25"/>
<path d="M42.1665 89.5834H40.0834V91.6664H42.1665V89.5834Z" fill="#FFFCE6"/>
<path d="M42.1665 87.4996H40.0834V89.5834H42.1665V87.4996Z" fill="#F6CD25"/>
<path d="M42.1665 85.4166H40.0834V87.4996H42.1665V85.4166Z" fill="#C67B20"/>
<path d="M42.1665 83.3328H40.0834V85.4166H42.1665V83.3328Z" fill="#D8AA2B"/>
<path d="M42.1665 81.2498H40.0834V83.3328H42.1665V81.2498Z" fill="#F6CD25"/>
<path d="M42.1665 79.1668H40.0834V81.2498H42.1665V79.1668Z" fill="#F6CD25"/>
<path d="M42.1665 77.083H40.0834V79.1668H42.1665V77.083Z" fill="#FFFCE6"/>
<path d="M42.1665 75H40.0834V77.083H42.1665V75Z" fill="#F6CD25"/>
<path d="M40.0834 122.916H37.9996V125H40.0834V122.916Z" fill="#9B702C"/>
<path d="M40.0834 120.832H37.9996V122.916H40.0834V120.832Z" fill="#9B702C"/>
<path d="M40.0834 118.749H37.9996V120.832H40.0834V118.749Z" fill="#9B702C"/>
<path d="M40.0834 116.666H37.9996V118.749H40.0834V116.666Z" fill="#9B702C"/>
<path d="M40.0834 114.583H37.9996V116.666H40.0834V114.583Z" fill="#9B702C"/>
<path d="M40.0834 112.5H37.9996V114.583H40.0834V112.5Z" fill="#9B702C"/>
<path d="M40.0834 110.417H37.9996V112.5H40.0834V110.417Z" fill="#9B702C"/>
<path d="M40.0834 108.333H37.9996V110.417H40.0834V108.333Z" fill="#9B702C"/>
<path d="M40.0834 106.25H37.9996V108.333H40.0834V106.25Z" fill="#9B702C"/>
<path d="M40.0834 104.167H37.9996V106.25H40.0834V104.167Z" fill="#845D25"/>
<path d="M40.0834 102.083H37.9996V104.167H40.0834V102.083Z" fill="#F29214"/>
<path d="M40.0834 100H37.9996V102.083H40.0834V100Z" fill="#F6CD25"/>
<path d="M40.0834 97.9162H37.9996V100H40.0834V97.9162Z" fill="#F6CD25"/>
<path d="M40.0834 95.8332H37.9996V97.9162H40.0834V95.8332Z" fill="#F6CD25"/>
<path d="M40.0834 93.7494H37.9996V95.8332H40.0834V93.7494Z" fill="#F6CD25"/>
<path d="M40.0834 91.6664H37.9996V93.7494H40.0834V91.6664Z" fill="#F6CD25"/>
<path d="M40.0834 89.5834H37.9996V91.6664H40.0834V89.5834Z" fill="#FFFCE6"/>
<path d="M40.0834 87.4996H37.9996V89.5834H40.0834V87.4996Z" fill="#F6CD25"/>
<path d="M40.0834 85.4166H37.9996V87.4996H40.0834V85.4166Z" fill="#C67B20"/>
<path d="M40.0834 83.3328H37.9996V85.4166H40.0834V83.3328Z" fill="#D8AA2B"/>
<path d="M40.0834 81.2498H37.9996V83.3328H40.0834V81.2498Z" fill="#F6CD25"/>
<path d="M40.0834 79.1668H37.9996V81.2498H40.0834V79.1668Z" fill="#F6CD25"/>
<path d="M40.0834 77.083H37.9996V79.1668H40.0834V77.083Z" fill="#FFFCE6"/>
<path d="M40.0834 75H37.9996V77.083H40.0834V75Z" fill="#F6CD25"/>
<path d="M37.9996 122.916H35.9166V125H37.9996V122.916Z" fill="#9B702C"/>
<path d="M37.9996 120.832H35.9166V122.916H37.9996V120.832Z" fill="#9B702C"/>
<path d="M37.9996 118.749H35.9166V120.832H37.9996V118.749Z" fill="#9B702C"/>
<path d="M37.9996 116.666H35.9166V118.749H37.9996V116.666Z" fill="#9B702C"/>
<path d="M37.9996 114.583H35.9166V116.666H37.9996V114.583Z" fill="#9B702C"/>
<path d="M37.9996 112.5H35.9166V114.583H37.9996V112.5Z" fill="#9B702C"/>
<path d="M37.9996 110.417H35.9166V112.5H37.9996V110.417Z" fill="#9B702C"/>
<path d="M37.9996 108.333H35.9166V110.417H37.9996V108.333Z" fill="#9B702C"/>
<path d="M37.9996 106.25H35.9166V108.333H37.9996V106.25Z" fill="#9B702C"/>
<path d="M37.9996 104.167H35.9166V106.25H37.9996V104.167Z" fill="#9B702C"/>
<path d="M37.9996 102.083H35.9166V104.167H37.9996V102.083Z" fill="#845D25"/>
<path d="M37.9996 100H35.9166V102.083H37.9996V100Z" fill="#F29214"/>
<path d="M37.9996 97.9162H35.9166V100H37.9996V97.9162Z" fill="#F29214"/>
<path d="M37.9996 95.8332H35.9166V97.9162H37.9996V95.8332Z" fill="#F29214"/>
<path d="M37.9996 93.7494H35.9166V95.8332H37.9996V93.7494Z" fill="#F6CD25"/>
<path d="M37.9996 91.6664H35.9166V93.7494H37.9996V91.6664Z" fill="#F6CD25"/>
<path d="M37.9996 89.5834H35.9166V91.6664H37.9996V89.5834Z" fill="#F6CD25"/>
<path d="M37.9996 87.4996H35.9166V89.5834H37.9996V87.4996Z" fill="#F6CD25"/>
<path d="M37.9996 85.4166H35.9166V87.4996H37.9996V85.4166Z" fill="#C67B20"/>
<path d="M37.9996 83.3328H35.9166V85.4166H37.9996V83.3328Z" fill="#D8AA2B"/>
<path d="M37.9996 81.2498H35.9166V83.3328H37.9996V81.2498Z" fill="#F6CD25"/>
<path d="M37.9996 79.1668H35.9166V81.2498H37.9996V79.1668Z" fill="#F6CD25"/>
<path d="M37.9996 77.083H35.9166V79.1668H37.9996V77.083Z" fill="#FFFCE6"/>
<path d="M37.9996 75H35.9166V77.083H37.9996V75Z" fill="#F6CD25"/>
<path d="M35.9166 122.916H33.8327V125H35.9166V122.916Z" fill="#E0A958"/>
<path d="M35.9166 120.832H33.8327V122.916H35.9166V120.832Z" fill="#9B702C"/>
<path d="M35.9166 118.749H33.8327V120.832H35.9166V118.749Z" fill="#9B702C"/>
<path d="M35.9166 116.666H33.8327V118.749H35.9166V116.666Z" fill="#9B702C"/>
<path d="M35.9166 114.583H33.8327V116.666H35.9166V114.583Z" fill="#9B702C"/>
<path d="M35.9166 112.5H33.8327V114.583H35.9166V112.5Z" fill="#9B702C"/>
<path d="M35.9166 110.417H33.8327V112.5H35.9166V110.417Z" fill="#9B702C"/>
<path d="M35.9166 108.333H33.8327V110.417H35.9166V108.333Z" fill="#9B702C"/>
<path d="M35.9166 106.25H33.8327V108.333H35.9166V106.25Z" fill="#9B702C"/>
<path d="M35.9166 104.167H33.8327V106.25H35.9166V104.167Z" fill="#9B702C"/>
<path d="M35.9166 102.083H33.8327V104.167H35.9166V102.083Z" fill="#9B702C"/>
<path d="M35.9166 100H33.8327V102.083H35.9166V100Z" fill="#9B702C"/>
<path d="M35.9166 97.9162H33.8327V100H35.9166V97.9162Z" fill="#9B702C"/>
<path d="M35.9166 95.8332H33.8327V97.9162H35.9166V95.8332Z" fill="#845D25"/>
<path d="M35.9166 93.7494H33.8327V95.8332H35.9166V93.7494Z" fill="#F29214"/>
<path d="M35.9166 91.6664H33.8327V93.7494H35.9166V91.6664Z" fill="#F29214"/>
<path d="M35.9166 89.5834H33.8327V91.6664H35.9166V89.5834Z" fill="#F6CD25"/>
<path d="M35.9166 87.4996H33.8327V89.5834H35.9166V87.4996Z" fill="#F6CD25"/>
<path d="M35.9166 85.4166H33.8327V87.4996H35.9166V85.4166Z" fill="#C67B20"/>
<path d="M35.9166 83.3328H33.8327V85.4166H35.9166V83.3328Z" fill="#D8AA2B"/>
<path d="M35.9166 81.2498H33.8327V83.3328H35.9166V81.2498Z" fill="#F6CD25"/>
<path d="M35.9166 79.1668H33.8327V81.2498H35.9166V79.1668Z" fill="#F6CD25"/>
<path d="M35.9166 77.083H33.8327V79.1668H35.9166V77.083Z" fill="#FFFCE6"/>
<path d="M35.9166 75H33.8327V77.083H35.9166V75Z" fill="#F6CD25"/>
<path d="M33.8327 122.916H31.7497V125H33.8327V122.916Z" fill="#E0A958"/>
<path d="M33.8327 120.832H31.7497V122.916H33.8327V120.832Z" fill="#9B702C"/>
<path d="M33.8327 118.749H31.7497V120.832H33.8327V118.749Z" fill="#9B702C"/>
<path d="M33.8327 116.666H31.7497V118.749H33.8327V116.666Z" fill="#9B702C"/>
<path d="M33.8327 114.583H31.7497V116.666H33.8327V114.583Z" fill="#9B702C"/>
<path d="M33.8327 112.5H31.7497V114.583H33.8327V112.5Z" fill="#9B702C"/>
<path d="M33.8327 110.417H31.7497V112.5H33.8327V110.417Z" fill="#9B702C"/>
<path d="M33.8327 108.333H31.7497V110.417H33.8327V108.333Z" fill="#9B702C"/>
<path d="M33.8327 106.25H31.7497V108.333H33.8327V106.25Z" fill="#9B702C"/>
<path d="M33.8327 104.167H31.7497V106.25H33.8327V104.167Z" fill="#9B702C"/>
<path d="M33.8327 102.083H31.7497V104.167H33.8327V102.083Z" fill="#9B702C"/>
<path d="M33.8327 100H31.7497V102.083H33.8327V100Z" fill="#9B702C"/>
<path d="M33.8327 97.9162H31.7497V100H33.8327V97.9162Z" fill="#9B702C"/>
<path d="M33.8327 95.8332H31.7497V97.9162H33.8327V95.8332Z" fill="#9B702C"/>
<path d="M33.8327 93.7494H31.7497V95.8332H33.8327V93.7494Z" fill="#9B702C"/>
<path d="M33.8327 91.6664H31.7497V93.7494H33.8327V91.6664Z" fill="#845D25"/>
<path d="M33.8327 89.5834H31.7497V91.6664H33.8327V89.5834Z" fill="#F29214"/>
<path d="M33.8327 87.4996H31.7497V89.5834H33.8327V87.4996Z" fill="#F6CD25"/>
<path d="M33.8327 85.4166H31.7497V87.4996H33.8327V85.4166Z" fill="#C67B20"/>
<path d="M33.8327 83.3328H31.7497V85.4166H33.8327V83.3328Z" fill="#D8AA2B"/>
<path d="M33.8327 81.2498H31.7497V83.3328H33.8327V81.2498Z" fill="#F6CD25"/>
<path d="M33.8327 79.1668H31.7497V81.2498H33.8327V79.1668Z" fill="#F6CD25"/>
<path d="M33.8327 77.083H31.7497V79.1668H33.8327V77.083Z" fill="#FFFCE6"/>
<path d="M33.8327 75H31.7497V77.083H33.8327V75Z" fill="#F6CD25"/>
<path d="M31.7497 122.916H29.6667V125H31.7497V122.916Z" fill="#E0A958"/>
<path d="M31.7497 120.832H29.6667V122.916H31.7497V120.832Z" fill="#9B702C"/>
<path d="M31.7497 118.749H29.6667V120.832H31.7497V118.749Z" fill="#9B702C"/>
<path d="M31.7497 116.666H29.6667V118.749H31.7497V116.666Z" fill="#9B702C"/>
<path d="M31.7497 114.583H29.6667V116.666H31.7497V114.583Z" fill="#9B702C"/>
<path d="M31.7497 112.5H29.6667V114.583H31.7497V112.5Z" fill="#9B702C"/>
<path d="M31.7497 110.417H29.6667V112.5H31.7497V110.417Z" fill="#9B702C"/>
<path d="M31.7497 108.333H29.6667V110.417H31.7497V108.333Z" fill="#9B702C"/>
<path d="M31.7497 106.25H29.6667V108.333H31.7497V106.25Z" fill="#9B702C"/>
<path d="M31.7497 104.167H29.6667V106.25H31.7497V104.167Z" fill="#9B702C"/>
<path d="M31.7497 102.083H29.6667V104.167H31.7497V102.083Z" fill="#9B702C"/>
<path d="M31.7497 100H29.6667V102.083H31.7497V100Z" fill="#9B702C"/>
<path d="M31.7497 97.9162H29.6667V100H31.7497V97.9162Z" fill="#9B702C"/>
<path d="M31.7497 95.8332H29.6667V97.9162H31.7497V95.8332Z" fill="#9B702C"/>
<path d="M31.7497 93.7494H29.6667V95.8332H31.7497V93.7494Z" fill="#9B702C"/>
<path d="M31.7497 91.6664H29.6667V93.7494H31.7497V91.6664Z" fill="#845D25"/>
<path d="M31.7497 89.5834H29.6667V91.6664H31.7497V89.5834Z" fill="#F29214"/>
<path d="M31.7497 87.4996H29.6667V89.5834H31.7497V87.4996Z" fill="#F6CD25"/>
<path d="M31.7497 85.4166H29.6667V87.4996H31.7497V85.4166Z" fill="#C67B20"/>
<path d="M31.7497 83.3328H29.6667V85.4166H31.7497V83.3328Z" fill="#D8AA2B"/>
<path d="M31.7497 81.2498H29.6667V83.3328H31.7497V81.2498Z" fill="#F6CD25"/>
<path d="M31.7497 79.1668H29.6667V81.2498H31.7497V79.1668Z" fill="#F6CD25"/>
<path d="M31.7497 77.083H29.6667V79.1668H31.7497V77.083Z" fill="#FFFCE6"/>
<path d="M31.7497 75H29.6667V77.083H31.7497V75Z" fill="#F6CD25"/>
<path d="M29.6667 122.916H27.5828V125H29.6667V122.916Z" fill="#E0A958"/>
<path d="M29.6667 120.832H27.5828V122.916H29.6667V120.832Z" fill="#9B702C"/>
<path d="M29.6667 118.749H27.5828V120.832H29.6667V118.749Z" fill="#9B702C"/>
<path d="M29.6667 116.666H27.5828V118.749H29.6667V116.666Z" fill="#9B702C"/>
<path d="M29.6667 114.583H27.5828V116.666H29.6667V114.583Z" fill="#9B702C"/>
<path d="M29.6667 112.5H27.5828V114.583H29.6667V112.5Z" fill="#9B702C"/>
<path d="M29.6667 110.417H27.5828V112.5H29.6667V110.417Z" fill="#9B702C"/>
<path d="M29.6667 108.333H27.5828V110.417H29.6667V108.333Z" fill="#9B702C"/>
<path d="M29.6667 106.25H27.5828V108.333H29.6667V106.25Z" fill="#9B702C"/>
<path d="M29.6667 104.167H27.5828V106.25H29.6667V104.167Z" fill="#9B702C"/>
<path d="M29.6667 102.083H27.5828V104.167H29.6667V102.083Z" fill="#9B702C"/>
<path d="M29.6667 100H27.5828V102.083H29.6667V100Z" fill="#9B702C"/>
<path d="M29.6667 97.9162H27.5828V100H29.6667V97.9162Z" fill="#9B702C"/>
<path d="M29.6667 95.8332H27.5828V97.9162H29.6667V95.8332Z" fill="#9B702C"/>
<path d="M29.6667 93.7494H27.5828V95.8332H29.6667V93.7494Z" fill="#9B702C"/>
<path d="M29.6667 91.6664H27.5828V93.7494H29.6667V91.6664Z" fill="#845D25"/>
<path d="M29.6667 89.5834H27.5828V91.6664H29.6667V89.5834Z" fill="#F29214"/>
<path d="M29.6667 87.4996H27.5828V89.5834H29.6667V87.4996Z" fill="#F6CD25"/>
<path d="M29.6667 85.4166H27.5828V87.4996H29.6667V85.4166Z" fill="#C67B20"/>
<path d="M29.6667 83.3328H27.5828V85.4166H29.6667V83.3328Z" fill="#F6CD25"/>
<path d="M29.6667 81.2498H27.5828V83.3328H29.6667V81.2498Z" fill="#F6CD25"/>
<path d="M29.6667 79.1668H27.5828V81.2498H29.6667V79.1668Z" fill="#F6CD25"/>
<path d="M29.6667 77.083H27.5828V79.1668H29.6667V77.083Z" fill="#F6CD25"/>
<path d="M29.6667 75H27.5828V77.083H29.6667V75Z" fill="#F6CD25"/>
<path d="M27.5828 122.916H25.4998V125H27.5828V122.916Z" fill="#E0A958"/>
<path d="M27.5828 120.832H25.4998V122.916H27.5828V120.832Z" fill="#9B702C"/>
<path d="M27.5828 118.749H25.4998V120.832H27.5828V118.749Z" fill="#9B702C"/>
<path d="M27.5828 116.666H25.4998V118.749H27.5828V116.666Z" fill="#9B702C"/>
<path d="M27.5828 114.583H25.4998V116.666H27.5828V114.583Z" fill="#9B702C"/>
<path d="M27.5828 112.5H25.4998V114.583H27.5828V112.5Z" fill="#9B702C"/>
<path d="M27.5828 110.417H25.4998V112.5H27.5828V110.417Z" fill="#9B702C"/>
<path d="M27.5828 108.333H25.4998V110.417H27.5828V108.333Z" fill="#9B702C"/>
<path d="M27.5828 106.25H25.4998V108.333H27.5828V106.25Z" fill="#9B702C"/>
<path d="M27.5828 104.167H25.4998V106.25H27.5828V104.167Z" fill="#9B702C"/>
<path d="M27.5828 102.083H25.4998V104.167H27.5828V102.083Z" fill="#9B702C"/>
<path d="M27.5828 100H25.4998V102.083H27.5828V100Z" fill="#9B702C"/>
<path d="M27.5828 97.9162H25.4998V100H27.5828V97.9162Z" fill="#9B702C"/>
<path d="M27.5828 95.8332H25.4998V97.9162H27.5828V95.8332Z" fill="#9B702C"/>
<path d="M27.5828 93.7494H25.4998V95.8332H27.5828V93.7494Z" fill="#845D25"/>
<path d="M27.5828 91.6664H25.4998V93.7494H27.5828V91.6664Z" fill="#F29214"/>
<path d="M27.5828 89.5834H25.4998V91.6664H27.5828V89.5834Z" fill="#F6CD25"/>
<path d="M27.5828 87.4996H25.4998V89.5834H27.5828V87.4996Z" fill="#F6CD25"/>
<path d="M27.5828 85.4166H25.4998V87.4996H27.5828V85.4166Z" fill="#F29214"/>
<path d="M27.5828 83.3328H25.4998V85.4166H27.5828V83.3328Z" fill="#F6CD25"/>
<path d="M27.5828 81.2498H25.4998V83.3328H27.5828V81.2498Z" fill="#F6CD25"/>
<path d="M27.5828 79.1668H25.4998V81.2498H27.5828V79.1668Z" fill="#F6CD25"/>
<path d="M27.5828 77.083H25.4998V79.1668H27.5828V77.083Z" fill="#F6CD25"/>
<path d="M27.5828 75H25.4998V77.083H27.5828V75Z" fill="#F6CD25"/>
<path d="M25.4998 122.916H23.4168V125H25.4998V122.916Z" fill="#E0A958"/>
<path d="M25.4998 120.832H23.4168V122.916H25.4998V120.832Z" fill="#9B702C"/>
<path d="M25.4998 118.749H23.4168V120.832H25.4998V118.749Z" fill="#E0A958"/>
<path d="M25.4998 116.666H23.4168V118.749H25.4998V116.666Z" fill="#E0A958"/>
<path d="M25.4998 114.583H23.4168V116.666H25.4998V114.583Z" fill="#9B702C"/>
<path d="M25.4998 112.5H23.4168V114.583H25.4998V112.5Z" fill="#9B702C"/>
<path d="M25.4998 110.417H23.4168V112.5H25.4998V110.417Z" fill="#9B702C"/>
<path d="M25.4998 108.333H23.4168V110.417H25.4998V108.333Z" fill="#9B702C"/>
<path d="M25.4998 106.25H23.4168V108.333H25.4998V106.25Z" fill="#9B702C"/>
<path d="M25.4998 104.167H23.4168V106.25H25.4998V104.167Z" fill="#9B702C"/>
<path d="M25.4998 102.083H23.4168V104.167H25.4998V102.083Z" fill="#9B702C"/>
<path d="M25.4998 100H23.4168V102.083H25.4998V100Z" fill="#845D25"/>
<path d="M25.4998 97.9162H23.4168V100H25.4998V97.9162Z" fill="#F29214"/>
<path d="M25.4998 95.8332H23.4168V97.9162H25.4998V95.8332Z" fill="#F29214"/>
<path d="M25.4998 93.7494H23.4168V95.8332H25.4998V93.7494Z" fill="#F29214"/>
<path d="M25.4998 91.6664H23.4168V93.7494H25.4998V91.6664Z" fill="#F6CD25"/>
<path d="M25.4998 89.5834H23.4168V91.6664H25.4998V89.5834Z" fill="#F6CD25"/>
<path d="M25.4998 87.4996H23.4168V89.5834H25.4998V87.4996Z" fill="#F6CD25"/>
<path d="M25.4998 85.4166H23.4168V87.4996H25.4998V85.4166Z" fill="#F29214"/>
<path d="M25.4998 83.3328H23.4168V85.4166H25.4998V83.3328Z" fill="#F6CD25"/>
<path d="M25.4998 81.2498H23.4168V83.3328H25.4998V81.2498Z" fill="#F6CD25"/>
<path d="M25.4998 79.1668H23.4168V81.2498H25.4998V79.1668Z" fill="#F29214"/>
<path d="M25.4998 77.083H23.4168V79.1668H25.4998V77.083Z" fill="#F6CD25"/>
<path d="M25.4998 75H23.4168V77.083H25.4998V75Z" fill="#FFFCE6"/>
<path d="M23.4168 120.832H21.3329V122.916H23.4168V120.832Z" fill="#E0A958"/>
<path d="M23.4168 118.749H21.3329V120.832H23.4168V118.749Z" fill="#E0A958"/>
<path d="M23.4168 116.666H21.3329V118.749H23.4168V116.666Z" fill="#E0A958"/>
<path d="M23.4168 114.583H21.3329V116.666H23.4168V114.583Z" fill="#E0A958"/>
<path d="M23.4168 112.5H21.3329V114.583H23.4168V112.5Z" fill="#9B702C"/>
<path d="M23.4168 110.417H21.3329V112.5H23.4168V110.417Z" fill="#9B702C"/>
<path d="M23.4168 108.333H21.3329V110.417H23.4168V108.333Z" fill="#9B702C"/>
<path d="M23.4168 106.25H21.3329V108.333H23.4168V106.25Z" fill="#9B702C"/>
<path d="M23.4168 104.167H21.3329V106.25H23.4168V104.167Z" fill="#9B702C"/>
<path d="M23.4168 102.083H21.3329V104.167H23.4168V102.083Z" fill="#845D25"/>
<path d="M23.4168 100H21.3329V102.083H23.4168V100Z" fill="#F29214"/>
<path d="M23.4168 97.9162H21.3329V100H23.4168V97.9162Z" fill="#F6CD25"/>
<path d="M23.4168 95.8332H21.3329V97.9162H23.4168V95.8332Z" fill="#F6CD25"/>
<path d="M23.4168 93.7494H21.3329V95.8332H23.4168V93.7494Z" fill="#F6CD25"/>
<path d="M23.4168 91.6664H21.3329V93.7494H23.4168V91.6664Z" fill="#F6CD25"/>
<path d="M23.4168 89.5834H21.3329V91.6664H23.4168V89.5834Z" fill="#F6CD25"/>
<path d="M23.4168 87.4996H21.3329V89.5834H23.4168V87.4996Z" fill="#F6CD25"/>
<path d="M23.4168 85.4166H21.3329V87.4996H23.4168V85.4166Z" fill="#F6CD25"/>
<path d="M23.4168 83.3328H21.3329V85.4166H23.4168V83.3328Z" fill="#F29214"/>
<path d="M23.4168 81.2498H21.3329V83.3328H23.4168V81.2498Z" fill="#F29214"/>
<path d="M23.4168 79.1668H21.3329V81.2498H23.4168V79.1668Z" fill="#F6CD25"/>
<path d="M23.4168 77.083H21.3329V79.1668H23.4168V77.083Z" fill="#F6CD25"/>
<path d="M23.4168 75H21.3329V77.083H23.4168V75Z" fill="#FFFCE6"/>
<path d="M21.3329 118.749H19.2499V120.832H21.3329V118.749Z" fill="#E0A958"/>
<path d="M21.3329 116.666H19.2499V118.749H21.3329V116.666Z" fill="#E0A958"/>
<path d="M21.3329 114.583H19.2499V116.666H21.3329V114.583Z" fill="#E0A958"/>
<path d="M21.3329 112.5H19.2499V114.583H21.3329V112.5Z" fill="#9B702C"/>
<path d="M21.3329 110.417H19.2499V112.5H21.3329V110.417Z" fill="#9B702C"/>
<path d="M21.3329 108.333H19.2499V110.417H21.3329V108.333Z" fill="#9B702C"/>
<path d="M21.3329 106.25H19.2499V108.333H21.3329V106.25Z" fill="#9B702C"/>
<path d="M21.3329 104.167H19.2499V106.25H21.3329V104.167Z" fill="#845D25"/>
<path d="M21.3329 102.083H19.2499V104.167H21.3329V102.083Z" fill="#845D25"/>
<path d="M21.3329 100H19.2499V102.083H21.3329V100Z" fill="#F29214"/>
<path d="M21.3329 97.9162H19.2499V100H21.3329V97.9162Z" fill="#F6CD25"/>
<path d="M21.3329 95.8332H19.2499V97.9162H21.3329V95.8332Z" fill="#F6CD25"/>
<path d="M21.3329 93.7494H19.2499V95.8332H21.3329V93.7494Z" fill="#F6CD25"/>
<path d="M21.3329 91.6664H19.2499V93.7494H21.3329V91.6664Z" fill="#F6CD25"/>
<path d="M21.3329 89.5834H19.2499V91.6664H21.3329V89.5834Z" fill="#F6CD25"/>
<path d="M21.3329 87.4996H19.2499V89.5834H21.3329V87.4996Z" fill="#F6CD25"/>
<path d="M21.3329 85.4166H19.2499V87.4996H21.3329V85.4166Z" fill="#F6CD25"/>
<path d="M21.3329 83.3328H19.2499V85.4166H21.3329V83.3328Z" fill="#F6CD25"/>
<path d="M21.3329 81.2498H19.2499V83.3328H21.3329V81.2498Z" fill="#F6CD25"/>
<path d="M21.3329 79.1668H19.2499V81.2498H21.3329V79.1668Z" fill="#F6CD25"/>
<path d="M21.3329 77.083H19.2499V79.1668H21.3329V77.083Z" fill="#FFFCE6"/>
<path d="M19.2499 116.666H17.1669V118.749H19.2499V116.666Z" fill="#E0A958"/>
<path d="M19.2499 114.583H17.1669V116.666H19.2499V114.583Z" fill="#9B702C"/>
<path d="M19.2499 112.5H17.1669V114.583H19.2499V112.5Z" fill="#9B702C"/>
<path d="M19.2499 110.417H17.1669V112.5H19.2499V110.417Z" fill="#9B702C"/>
<path d="M19.2499 108.333H17.1669V110.417H19.2499V108.333Z" fill="#9B702C"/>
<path d="M19.2499 106.25H17.1669V108.333H19.2499V106.25Z" fill="#9B702C"/>
<path d="M19.2499 104.167H17.1669V106.25H19.2499V104.167Z" fill="#845D25"/>
<path d="M19.2499 102.083H17.1669V104.167H19.2499V102.083Z" fill="#F29214"/>
<path d="M19.2499 100H17.1669V102.083H19.2499V100Z" fill="#FFFCE6"/>
<path d="M19.2499 97.9162H17.1669V100H19.2499V97.9162Z" fill="#F6CD25"/>
<path d="M19.2499 95.8332H17.1669V97.9162H19.2499V95.8332Z" fill="#F6CD25"/>
<path d="M19.2499 93.7494H17.1669V95.8332H19.2499V93.7494Z" fill="#F6CD25"/>
<path d="M19.2499 91.6664H17.1669V93.7494H19.2499V91.6664Z" fill="#F6CD25"/>
<path d="M19.2499 89.5834H17.1669V91.6664H19.2499V89.5834Z" fill="#F6CD25"/>
<path d="M19.2499 87.4996H17.1669V89.5834H19.2499V87.4996Z" fill="#F6CD25"/>
<path d="M19.2499 85.4166H17.1669V87.4996H19.2499V85.4166Z" fill="#F6CD25"/>
<path d="M19.2499 83.3328H17.1669V85.4166H19.2499V83.3328Z" fill="#F6CD25"/>
<path d="M19.2499 81.2498H17.1669V83.3328H19.2499V81.2498Z" fill="#F6CD25"/>
<path d="M19.2499 79.1668H17.1669V81.2498H19.2499V79.1668Z" fill="#F6CD25"/>
<path d="M19.2499 77.083H17.1669V79.1668H19.2499V77.083Z" fill="#FFFCE6"/>
<path d="M17.1669 112.5H15.083V114.583H17.1669V112.5Z" fill="#E0A958"/>
<path d="M17.1669 110.417H15.083V112.5H17.1669V110.417Z" fill="#E0A958"/>
<path d="M17.1669 108.333H15.083V110.417H17.1669V108.333Z" fill="#E0A958"/>
<path d="M17.1669 106.25H15.083V108.333H17.1669V106.25Z" fill="#9B702C"/>
<path d="M17.1669 104.167H15.083V106.25H17.1669V104.167Z" fill="#845D25"/>
<path d="M17.1669 102.083H15.083V104.167H17.1669V102.083Z" fill="#F29214"/>
<path d="M17.1669 100H15.083V102.083H17.1669V100Z" fill="#FFFCE6"/>
<path d="M17.1669 97.9162H15.083V100H17.1669V97.9162Z" fill="#F6CD25"/>
<path d="M17.1669 95.8332H15.083V97.9162H17.1669V95.8332Z" fill="#F6CD25"/>
<path d="M17.1669 93.7494H15.083V95.8332H17.1669V93.7494Z" fill="#F6CD25"/>
<path d="M17.1669 91.6664H15.083V93.7494H17.1669V91.6664Z" fill="#F6CD25"/>
<path d="M17.1669 89.5834H15.083V91.6664H17.1669V89.5834Z" fill="#FFFCE6"/>
<path d="M17.1669 87.4996H15.083V89.5834H17.1669V87.4996Z" fill="#FFFCE6"/>
<path d="M17.1669 85.4166H15.083V87.4996H17.1669V85.4166Z" fill="#F6CD25"/>
<path d="M17.1669 83.3328H15.083V85.4166H17.1669V83.3328Z" fill="#F6CD25"/>
<path d="M17.1669 81.2498H15.083V83.3328H17.1669V81.2498Z" fill="#F6CD25"/>
<path d="M17.1669 79.1668H15.083V81.2498H17.1669V79.1668Z" fill="#F6CD25"/>
<path d="M17.1669 77.083H15.083V79.1668H17.1669V77.083Z" fill="#FFFCE6"/>
<path d="M15.083 100H13V102.083H15.083V100Z" fill="#F29214"/>
<path d="M15.083 97.9162H13V100H15.083V97.9162Z" fill="#FFFCE6"/>
<path d="M15.083 95.8332H13V97.9162H15.083V95.8332Z" fill="#FFFCE6"/>
<path d="M15.083 93.7494H13V95.8332H15.083V93.7494Z" fill="#FFFCE6"/>
<path d="M15.083 85.4166H13V87.4996L15.083 87.4996V85.4166Z" fill="#FFFCE6"/>
<path d="M15.083 83.3328H13V85.4166H15.083V83.3328Z" fill="#FFFCE6"/>
<path d="M15.083 81.2498H13V83.3328H15.083V81.2498Z" fill="#FFFCE6"/>
<path d="M15.083 79.1668H13V81.2498H15.083V79.1668Z" fill="#FFFCE6"/>
<path d="M0 14.0625H4.68748V9.37502H0V14.0625Z" fill="#000902"/>
<path d="M0 18.75H4.68748V14.0625H0V18.75Z" fill="#000902"/>
<path d="M0 23.4375H4.68748V18.75H0V23.4375Z" fill="#000902"/>
<path d="M0 28.125H4.68748V23.4375H0V28.125Z" fill="#000902"/>
<path d="M0 32.8125H4.68748V28.125H0V32.8125Z" fill="#000902"/>
<path d="M0 37.5H4.68748V32.8125H0V37.5Z" fill="#000902"/>
<path d="M0 42.1875H4.68748V37.5H0V42.1875Z" fill="#000902"/>
<path d="M0 46.875H4.68748V42.1875H0V46.875Z" fill="#000902"/>
<path d="M4.68748 9.37502L9.37501 9.375V4.68752H4.68753L4.68748 9.37502Z" fill="#000902"/>
<path d="M9.37501 4.68752L14.0625 4.6875V2.15783e-05H9.37501V4.68752Z" fill="#000902"/>
<path d="M0 51.5625H4.68748V46.875H0V51.5625Z" fill="#000902"/>
<path d="M0 56.25H4.68748V51.5625H0V56.25Z" fill="#000902"/>
<path d="M0 60.9374H4.68748V56.25H0V60.9374Z" fill="#000902"/>
<path d="M0 65.625H4.68748V60.9374H0V65.625Z" fill="#000902"/>
<path d="M18.75 4.68748V0L14.0625 2.15783e-05V4.6875L18.75 4.68748Z" fill="#000902"/>
<path d="M23.4375 4.68749V0H18.75V4.68748L23.4375 4.68749Z" fill="#000902"/>
<path d="M28.125 4.68748V0H23.4375V4.68749L28.125 4.68748Z" fill="#000902"/>
<path d="M32.8125 4.68748V0H28.125V4.68748H32.8125Z" fill="#000902"/>
<path d="M37.5 4.68748V0H32.8125V4.68748H37.5Z" fill="#000902"/>
<path d="M42.1875 4.68748V0H37.5V4.68748H42.1875Z" fill="#000902"/>
<path d="M46.875 4.68748V0H42.1875V4.68748H46.875Z" fill="#000902"/>
<path d="M51.5625 4.68748V0H46.875V4.68748H51.5625Z" fill="#000902"/>
<path d="M56.25 4.68748V0H51.5625V4.68748H56.25Z" fill="#000902"/>
<path d="M60.9375 4.68748V0H56.25V4.68748H60.9375Z" fill="#000902"/>
<path d="M65.625 4.68749V0H60.9375V4.68748L65.625 4.68749Z" fill="#000902"/>
<path d="M70.3125 9.37498V4.6875L65.625 4.68749L65.625 9.37498H70.3125Z" fill="#000902"/>
<path d="M4.68753 70.3124H9.37501V65.6249L4.68748 65.625L4.68753 70.3124Z" fill="#000902"/>
<path d="M70.3125 14.0625H75V9.37502L70.3125 9.37498L70.3125 14.0625Z" fill="#000902"/>
<path d="M70.3125 18.75H75V14.0625H70.3125V18.75Z" fill="#000902"/>
<path d="M70.3125 23.4375H75V18.75H70.3125V23.4375Z" fill="#000902"/>
<path d="M70.3125 28.125H75V23.4375H70.3125V28.125Z" fill="#000902"/>
<path d="M70.3125 32.8125H75V28.125H70.3125V32.8125Z" fill="#000902"/>
<path d="M70.3125 37.5H75V32.8125H70.3125V37.5Z" fill="#000902"/>
<path d="M70.3125 42.1875H75V37.5H70.3125V42.1875Z" fill="#000902"/>
<path d="M70.3125 46.875H75V42.1875H70.3125V46.875Z" fill="#000902"/>
<path d="M70.3125 51.5625H75V46.875H70.3125V51.5625Z" fill="#000902"/>
<path d="M70.3125 56.25H75V51.5625H70.3125V56.25Z" fill="#000902"/>
<path d="M70.3125 60.9374H75V56.25H70.3125V60.9374Z" fill="#000902"/>
<path d="M70.3125 65.625H75V60.9374H70.3125V65.625Z" fill="#000902"/>
<path d="M65.625 70.3124H70.3125L70.3125 65.625L65.625 65.6249V70.3124Z" fill="#000902"/>
<path d="M9.37501 75H14.0625V70.3125L9.37501 70.3124V75Z" fill="#000902"/>
<path d="M18.75 75V70.3125L14.0625 70.3125V75L18.75 75Z" fill="#000902"/>
<path d="M23.4375 74.9999V70.3124L18.75 70.3125V75L23.4375 74.9999Z" fill="#000902"/>
<path d="M28.125 74.9999V70.3124H23.4375V74.9999L28.125 74.9999Z" fill="#000902"/>
<path d="M32.8125 75V70.3125L28.125 70.3124V74.9999L32.8125 75Z" fill="#000902"/>
<path d="M37.5 74.9999V70.3124L32.8125 70.3125V75L37.5 74.9999Z" fill="#000902"/>
<path d="M42.1875 74.9999V70.3124H37.5V74.9999H42.1875Z" fill="#000902"/>
<path d="M46.875 75V70.3125L42.1875 70.3124V74.9999L46.875 75Z" fill="#000902"/>
<path d="M51.5625 74.9999V70.3124L46.875 70.3125V75L51.5625 74.9999Z" fill="#000902"/>
<path d="M56.25 75V70.3125L51.5625 70.3124V74.9999L56.25 75Z" fill="#000902"/>
<path d="M60.9375 74.9999V70.3124L56.25 70.3125V75L60.9375 74.9999Z" fill="#000902"/>
<path d="M65.625 74.9999L65.625 70.3124H60.9375V74.9999L65.625 74.9999Z" fill="#000902"/>
<path d="M28.125 9.37498L28.125 4.68748L23.4375 4.68749L23.4375 9.37498H28.125Z" fill="#CBA425"/>
<path d="M32.8125 9.37498L32.8125 4.68748H28.125L28.125 9.37498H32.8125Z" fill="#CBA425"/>
<path d="M37.5 9.37498L37.5 4.68748H32.8125L32.8125 9.37498H37.5Z" fill="#CBA425"/>
<path d="M42.1875 9.37498L42.1875 4.68748H37.5L37.5 9.37498H42.1875Z" fill="#CBA425"/>
<path d="M46.875 9.37498L46.875 4.68748H42.1875L42.1875 9.37498H46.875Z" fill="#CBA425"/>
<path d="M51.5625 9.37498L51.5625 4.68748H46.875L46.875 9.37498H51.5625Z" fill="#CBA425"/>
<path d="M56.25 9.37498L56.25 4.68748H51.5625L51.5625 9.37498H56.25Z" fill="#CBA425"/>
<path d="M60.9375 9.37498L60.9375 4.68748H56.25L56.25 9.37498H60.9375Z" fill="#CBA425"/>
<path d="M65.625 9.37498L65.625 4.68749L60.9375 4.68748L60.9375 9.37498H65.625Z" fill="#805715"/>
<path d="M4.68748 14.0625H9.37501V9.375L4.68748 9.37502V14.0625Z" fill="white"/>
<path d="M9.37501 9.375H14.0625V4.6875L9.37501 4.68752V9.375Z" fill="white"/>
<path d="M18.75 9.37498L18.75 4.68748L14.0625 4.6875V9.375L18.75 9.37498Z" fill="white"/>
<path d="M23.4375 9.37498L23.4375 4.68749L18.75 4.68748L18.75 9.37498H23.4375Z" fill="white"/>
<path d="M9.37501 14.0625H14.0625V9.375H9.37501V14.0625Z" fill="white"/>
<path d="M4.68748 18.75H9.37501V14.0625H4.68748V18.75Z" fill="white"/>
<path d="M4.68748 23.4375H9.37501V18.75H4.68748V23.4375Z" fill="white"/>
<path d="M4.68748 28.125H9.37501V23.4375H4.68748V28.125Z" fill="#CBA425"/>
<path d="M4.68748 32.8125H9.37501V28.125H4.68748V32.8125Z" fill="white"/>
<path d="M4.68748 37.5H9.37501V32.8125H4.68748V37.5Z" fill="#CBA425"/>
<path d="M4.68748 42.1875L9.37501 42.1876V37.5H4.68748V42.1875Z" fill="#CBA425"/>
<path d="M4.68748 46.875H9.37501V42.1876L4.68748 42.1875V46.875Z" fill="#CBA425"/>
<path d="M4.68748 51.5625H9.37501V46.875H4.68748V51.5625Z" fill="#CBA425"/>
<path d="M4.68748 56.25H9.37501V51.5625H4.68748V56.25Z" fill="#CBA425"/>
<path d="M4.68748 60.9374H9.37501V56.25H4.68748V60.9374Z" fill="#CBA425"/>
<path d="M4.68748 65.625L9.37501 65.6249V60.9374H4.68748V65.625Z" fill="#805715"/>
<path d="M65.625 14.0625H70.3125L70.3125 9.37498H65.625L65.625 14.0625Z" fill="#805715"/>
<path d="M65.625 18.75H70.3125V14.0625H65.625V18.75Z" fill="#805715"/>
<path d="M65.625 23.4375H70.3125V18.75H65.625V23.4375Z" fill="#805715"/>
<path d="M65.625 28.125H70.3125V23.4375H65.625V28.125Z" fill="#805715"/>
<path d="M65.625 32.8125H70.3125V28.125H65.625V32.8125Z" fill="#805715"/>
<path d="M65.625 37.5H70.3125V32.8125H65.625V37.5Z" fill="#805715"/>
<path d="M65.625 42.1875H70.3125V37.5H65.625V42.1875Z" fill="#805715"/>
<path d="M65.625 46.875H70.3125V42.1875H65.625V46.875Z" fill="#805715"/>
<path d="M65.625 51.5625H70.3125V46.875H65.625V51.5625Z" fill="#805715"/>
<path d="M65.625 56.25H70.3125V51.5625H65.625V56.25Z" fill="#805715"/>
<path d="M65.625 60.9374H70.3125V56.25H65.625V60.9374Z" fill="#805715"/>
<path d="M65.625 65.6249L70.3125 65.625V60.9374H65.625V65.6249Z" fill="#805715"/>
<path d="M9.37501 70.3124L14.0625 70.3125V65.6249H9.37501V70.3124Z" fill="#805715"/>
<path d="M28.125 70.3124L28.125 65.625H23.4375L23.4375 70.3124H28.125Z" fill="#805715"/>
<path d="M32.8125 70.3125L32.8125 65.625H28.125L28.125 70.3124L32.8125 70.3125Z" fill="#805715"/>
<path d="M37.5 70.3124L37.5 65.6249L32.8125 65.625L32.8125 70.3125L37.5 70.3124Z" fill="#805715"/>
<path d="M42.1875 70.3124L42.1875 65.625L37.5 65.6249L37.5 70.3124H42.1875Z" fill="#805715"/>
<path d="M46.875 70.3125L46.875 65.625H42.1875L42.1875 70.3124L46.875 70.3125Z" fill="#805715"/>
<path d="M51.5625 70.3124L51.5625 65.6249L46.875 65.625L46.875 70.3125L51.5625 70.3124Z" fill="#805715"/>
<path d="M56.25 70.3125L56.25 65.625L51.5625 65.6249L51.5625 70.3124L56.25 70.3125Z" fill="#805715"/>
<path d="M60.9375 70.3124L60.9375 65.6249L56.25 65.625L56.25 70.3125L60.9375 70.3124Z" fill="#805715"/>
<path d="M65.625 70.3124V65.6249L60.9375 65.6249L60.9375 70.3124H65.625Z" fill="#805715"/>
<path d="M18.75 70.3125L18.75 65.625L14.0625 65.6249V70.3125L18.75 70.3125Z" fill="#805715"/>
<path d="M23.4375 70.3124L23.4375 65.625H18.75L18.75 70.3125L23.4375 70.3124Z" fill="#805715"/>
<path d="M56.25 14.0625H60.9375L60.9375 9.37498H56.25L56.25 14.0625Z" fill="#F6CD25"/>
<path d="M51.5625 14.0625H56.25L56.25 9.37498H51.5625L51.5625 14.0625Z" fill="#F6CD25"/>
<path d="M46.875 14.0625H51.5625L51.5625 9.37498H46.875L46.875 14.0625Z" fill="#000902"/>
<path d="M42.1875 14.0625H46.875L46.875 9.37498H42.1875L42.1875 14.0625Z" fill="#000902"/>
<path d="M37.5 18.75H42.1874L42.1875 14.0625L37.5 14.0625V18.75Z" fill="white"/>
<path d="M32.8125 23.4375H37.5L37.5 18.75L32.8125 18.75V23.4375Z" fill="white"/>
<path d="M32.8125 28.1231H37.5V23.4357H32.8125V28.1231Z" fill="#000902"/>
<path d="M37.5009 32.8116H42.1884V28.1241H37.5009V32.8116Z" fill="#000902"/>
<path d="M42.1884 32.8116H46.875V28.1241H42.1884V32.8116Z" fill="white"/>
<path d="M46.875 32.8116H51.5625V28.1241H46.875V32.8116Z" fill="white"/>
<path d="M60.9375 14.0625H65.625L65.625 9.37498H60.9375L60.9375 14.0625Z" fill="#F6CD25"/>
<path d="M46.875 37.5H51.5625V32.8116H46.875L46.875 37.5Z" fill="white"/>
<path d="M46.875 42.1884H51.5625V37.5H46.875V42.1884Z" fill="#000902"/>
<path d="M51.562 46.8754H56.2495V42.1879L51.5625 42.1884L51.562 46.8754Z" fill="#F6CD25"/>
<path d="M46.8746 51.5629H51.562V46.8754L46.8746 46.8754V51.5629Z" fill="#F6CD25"/>
<path d="M46.8746 56.25H51.562V51.5629H46.8746V56.25Z" fill="#F6CD25"/>
<path d="M51.562 60.9374H56.2495V56.2499L51.562 56.25V60.9374Z" fill="#F6CD25"/>
<path d="M56.2495 60.9374H60.9375V56.2499H56.2495V60.9374Z" fill="#F6CD25"/>
<path d="M60.9375 60.9374H65.625V56.25L60.9375 56.2499V60.9374Z" fill="#F6CD25"/>
<path d="M56.2495 46.8754H60.9375V42.1879H56.2495V46.8754Z" fill="#F6CD25"/>
<path d="M60.9375 46.8754L65.625 46.875V42.1875L60.9375 42.1879V46.8754Z" fill="#F6CD25"/>
<path d="M51.5625 32.8116H56.2504V28.1241H51.5625V32.8116Z" fill="white"/>
<path d="M56.2504 32.8116H60.9375V28.1241H56.2504V32.8116Z" fill="#000902"/>
<path d="M60.9375 32.8116L65.625 32.8125V28.125L60.9375 28.1241V32.8116Z" fill="#F6CD25"/>
<path d="M51.5625 28.1241H56.2504V23.4375H51.5629L51.5625 28.1241Z" fill="white"/>
<path d="M56.2504 28.1241H60.9375V23.4375H56.2504V28.1241Z" fill="#000902"/>
<path d="M60.9375 28.1241L65.625 28.125V23.4375L60.9375 23.4375V28.1241Z" fill="#F6CD25"/>
<path d="M18.75 28.1231H23.4375V23.4357H18.75V28.1231Z" fill="white"/>
<path d="M18.75 32.8116H23.4375V28.1231H18.75V32.8116Z" fill="#000902"/>
<path d="M18.75 37.5H23.4375V32.8116H18.75V37.5Z" fill="#F6CD25"/>
<path d="M18.75 42.1884H23.4375V37.5H18.75V42.1884Z" fill="#F6CD25"/>
<path d="M37.5 23.4375H42.1874V18.75H37.5L37.5 23.4375Z" fill="white"/>
<path d="M37.5 28.1231H42.1874V23.4357H37.5V28.1231Z" fill="#000902"/>
<path d="M42.1874 23.4375H46.875V18.75L42.1874 18.75V23.4375Z" fill="white"/>
<path d="M42.1874 28.1231L46.875 28.1241V23.4357H42.1874V28.1231Z" fill="white"/>
<path d="M46.875 23.4375L51.5629 23.4375L51.562 18.75H46.875V23.4375Z" fill="white"/>
<path d="M46.875 28.1241L51.562 28.1231V23.4357H46.875V28.1241Z" fill="white"/>
<path d="M42.1874 18.75L46.875 18.75L46.875 14.0625H42.1875L42.1874 18.75Z" fill="white"/>
<path d="M46.875 18.75H51.562L51.5625 14.0625H46.875L46.875 18.75Z" fill="white"/>
<path d="M51.5629 23.4375H56.2504L56.2507 18.75H51.5632L51.5629 23.4375Z" fill="white"/>
<path d="M56.2504 23.4375H60.9375L60.9377 18.75H56.2507L56.2504 23.4375Z" fill="#000902"/>
<path d="M51.5632 18.75H56.2507L56.25 14.0625H51.5625L51.5632 18.75Z" fill="#000902"/>
<path d="M56.2507 18.75H60.9377L60.9375 14.0625H56.25L56.2507 18.75Z" fill="#F6CD25"/>
<path d="M60.9375 23.4375L65.625 23.4375V18.75L60.9377 18.75L60.9375 23.4375Z" fill="#F6CD25"/>
<path d="M60.9377 18.75L65.625 18.75V14.0625H60.9375L60.9377 18.75Z" fill="#F6CD25"/>
<path d="M51.5625 42.1884H56.2507V37.501H51.5632L51.5625 42.1884Z" fill="#F6CD25"/>
<path d="M56.2495 42.1879H60.9375L60.9377 37.501H56.2507L56.2495 42.1879Z" fill="#F6CD25"/>
<path d="M51.5632 37.501H56.2507V32.8135H51.5632V37.501Z" fill="#000902"/>
<path d="M56.2507 37.501H60.9377V32.8135H56.2507V37.501Z" fill="#F6CD25"/>
<path d="M60.9375 42.1879L65.625 42.1875V37.5L60.9377 37.501L60.9375 42.1879Z" fill="#F6CD25"/>
<path d="M60.9377 37.501L65.625 37.5V32.8125L60.9377 32.8135V37.501Z" fill="#F6CD25"/>
<path d="M51.5632 56.2504H56.2507V51.5629H51.5632V56.2504Z" fill="#F6CD25"/>
<path d="M56.2495 56.2499H60.9375L60.9377 51.5629H56.2507L56.2495 56.2499Z" fill="#F6CD25"/>
<path d="M51.5632 51.5629H56.2507V46.8754H51.5632V51.5629Z" fill="#F6CD25"/>
<path d="M56.2507 51.5629H60.9377L60.9375 46.8754H56.2495L56.2507 51.5629Z" fill="#F6CD25"/>
<path d="M60.9375 56.2499L65.625 56.25V51.5625L60.9377 51.5629L60.9375 56.2499Z" fill="#F6CD25"/>
<path d="M60.9377 51.5629L65.625 51.5625V46.875L60.9375 46.8754L60.9377 51.5629Z" fill="#F6CD25"/>
<path d="M9.37501 65.6249H14.0625V60.9375L9.37501 60.9374V65.6249Z" fill="#CBA425"/>
<path d="M28.125 65.625L28.125 60.9374H23.4375L23.4375 65.625H28.125Z" fill="#CBA425"/>
<path d="M32.8125 65.625L32.8125 60.9375L28.125 60.9374L28.125 65.625H32.8125Z" fill="#CBA425"/>
<path d="M37.5 65.6249L37.5 60.9374L32.8125 60.9375L32.8125 65.625L37.5 65.6249Z" fill="#CBA425"/>
<path d="M42.1875 65.625L42.1875 60.9374H37.5L37.5 65.6249L42.1875 65.625Z" fill="#CBA425"/>
<path d="M46.875 65.625L46.875 60.9375L42.1875 60.9374L42.1875 65.625H46.875Z" fill="#CBA425"/>
<path d="M51.5625 65.6249L51.562 60.9374L46.875 60.9375L46.875 65.625L51.5625 65.6249Z" fill="#CBA425"/>
<path d="M56.25 65.625L56.2495 60.9374H51.562L51.5625 65.6249L56.25 65.625Z" fill="#CBA425"/>
<path d="M60.9375 65.6249L60.9375 60.9374H56.2495L56.25 65.625L60.9375 65.6249Z" fill="#CBA425"/>
<path d="M65.625 65.6249V60.9374H60.9375L60.9375 65.6249L65.625 65.6249Z" fill="#CBA425"/>
<path d="M23.4375 65.625L23.4375 60.9374H18.75L18.75 65.625H23.4375Z" fill="#CBA425"/>
<path d="M18.75 65.625L18.75 60.9374L14.0625 60.9375V65.6249L18.75 65.625Z" fill="#CBA425"/>
<path d="M9.37501 18.75H14.0625V14.0625H9.37501V18.75Z" fill="#F6CD25"/>
<path d="M9.37501 23.4375H14.0625V18.75H9.37501V23.4375Z" fill="#000902"/>
<path d="M9.37501 28.125H14.0625V23.4375H9.37501V28.125Z" fill="#000902"/>
<path d="M9.37501 32.8125H14.0625V28.125H9.37501V32.8125Z" fill="#F6CD25"/>
<path d="M9.37501 37.5H14.0625V32.8125H9.37501V37.5Z" fill="#F6CD25"/>
<path d="M9.37501 42.1876H14.0625V37.5H9.37501V42.1876Z" fill="#F6CD25"/>
<path d="M9.37501 46.875H14.0625V42.1876H9.37501V46.875Z" fill="#F6CD25"/>
<path d="M9.37501 51.5625H14.0625V46.875H9.37501V51.5625Z" fill="#F6CD25"/>
<path d="M9.37501 56.25H14.0625V51.5625H9.37501V56.25Z" fill="#F6CD25"/>
<path d="M9.37501 60.9374L14.0625 60.9375V56.25H9.37501V60.9374Z" fill="#F6CD25"/>
<path d="M14.0625 18.75H18.75V14.0625L14.0625 14.0625V18.75Z" fill="#000902"/>
<path d="M14.0625 23.4375H18.75V18.75H14.0625V23.4375Z" fill="white"/>
<path d="M14.0625 28.125H18.75V23.4375H14.0625V28.125Z" fill="white"/>
<path d="M14.0625 32.8125L18.75 32.8116L18.75 28.125H14.0625V32.8125Z" fill="#000902"/>
<path d="M14.0625 37.5H18.75V32.8116L14.0625 32.8125V37.5Z" fill="#F6CD25"/>
<path d="M14.0625 42.1876L18.75 42.1884V37.5H14.0625V42.1876Z" fill="#F6CD25"/>
<path d="M14.0625 46.875H18.75L18.75 42.1884L14.0625 42.1876V46.875Z" fill="#F6CD25"/>
<path d="M14.0625 51.5625H18.75V46.875H14.0625V51.5625Z" fill="#F6CD25"/>
<path d="M14.0625 56.25H18.75V51.5625H14.0625V56.25Z" fill="#F6CD25"/>
<path d="M14.0625 60.9375L18.75 60.9374L18.75 56.25H14.0625V60.9375Z" fill="#F6CD25"/>
<path d="M14.0625 14.0625L18.75 14.0625L18.75 9.37498L14.0625 9.375V14.0625Z" fill="#F6CD25"/>
<path d="M18.75 18.75H23.4375V14.0625H18.75V18.75Z" fill="white"/>
<path d="M18.75 23.4375H23.4375V18.75H18.75V23.4375Z" fill="white"/>
<path d="M18.75 14.0625H23.4375L23.4375 9.37498H18.75L18.75 14.0625Z" fill="#000902"/>
<path d="M23.4375 18.75H28.125V14.0625H23.4375V18.75Z" fill="white"/>
<path d="M23.4375 23.4375H28.125V18.75H23.4375V23.4375Z" fill="white"/>
<path d="M23.4375 14.0625H28.125L28.125 9.37498H23.4375L23.4375 14.0625Z" fill="#000902"/>
<path d="M28.125 18.75L32.8125 18.75L32.8125 14.0625H28.125V18.75Z" fill="white"/>
<path d="M28.125 23.4375H32.8125V18.75L28.125 18.75V23.4375Z" fill="white"/>
<path d="M28.125 14.0625H32.8125V9.37498H28.125L28.125 14.0625Z" fill="#000902"/>
<path d="M32.8125 18.75L37.5 18.75V14.0625H32.8125L32.8125 18.75Z" fill="white"/>
<path d="M32.8125 14.0625H37.5L37.5 9.37498H32.8125V14.0625Z" fill="#000902"/>
<path d="M37.5 14.0625L42.1875 14.0625L42.1875 9.37498H37.5L37.5 14.0625Z" fill="#000902"/>
<path d="M23.4375 32.8131H28.125V28.1256H23.4375V32.8131Z" fill="#000902"/>
<path d="M23.4375 37.5L28.125 37.5007V32.8131H23.4375L23.4375 37.5Z" fill="#000902"/>
<path d="M23.4375 28.1256H28.125V23.4375H23.4375L23.4375 28.1256Z" fill="white"/>
<path d="M28.125 32.8131H32.8125V28.1256H28.125V32.8131Z" fill="#000902"/>
<path d="M28.125 37.5007H32.8125V32.8131H28.125V37.5007Z" fill="white"/>
<path d="M28.125 28.1256H32.8125L32.8125 23.4375H28.125V28.1256Z" fill="#000902"/>
<path d="M23.4375 46.8756H28.125V42.1881L23.4375 42.1884L23.4375 46.8756Z" fill="#F6CD25"/>
<path d="M23.4375 51.5631H28.125V46.8756H23.4375V51.5631Z" fill="#000902"/>
<path d="M23.4375 42.1884L28.125 42.1881V37.5007L23.4375 37.5V42.1884Z" fill="#000902"/>
<path d="M28.125 46.8756H32.8125V42.1881H28.125V46.8756Z" fill="#000902"/>
<path d="M28.125 51.5631H32.8125V46.8756H28.125V51.5631Z" fill="white"/>
<path d="M28.125 42.1881H32.8125V37.5007H28.125V42.1881Z" fill="white"/>
<path d="M23.4375 60.9389H28.125V56.2514H23.4375V60.9389Z" fill="#F6CD25"/>
<path d="M23.4375 56.2514H28.125V51.5631H23.4375V56.2514Z" fill="#000902"/>
<path d="M28.125 60.9389H32.8125V56.2514H28.125V60.9389Z" fill="#000902"/>
<path d="M28.125 56.2514H32.8125V51.5631H28.125V56.2514Z" fill="white"/>
<path d="M18.75 46.875L23.4375 46.8756L23.4375 42.1884H18.75L18.75 46.875Z" fill="#F6CD25"/>
<path d="M18.75 51.5625L23.4375 51.5631V46.8756L18.75 46.875V51.5625Z" fill="#F6CD25"/>
<path d="M18.75 60.9389H23.4375V56.2514H18.75V60.9389Z" fill="#F6CD25"/>
<path d="M18.75 56.2514H23.4375V51.5631L18.75 51.5639V56.2514Z" fill="#F6CD25"/>
<path d="M32.8125 32.8131H37.4998V28.1256H32.8125V32.8131Z" fill="#000902"/>
<path d="M32.8125 37.5007H37.4998V32.8131H32.8125V37.5007Z" fill="white"/>
<path d="M37.4998 37.5007H42.1872V32.8132L37.4998 32.8131V37.5007Z" fill="white"/>
<path d="M32.8125 46.8756H37.4998V42.1881H32.8125V46.8756Z" fill="#000902"/>
<path d="M32.8125 51.5631H37.4998V46.8756H32.8125V51.5631Z" fill="white"/>
<path d="M32.8125 42.1881H37.4998V37.5007H32.8125V42.1881Z" fill="white"/>
<path d="M37.4998 46.8756H42.1872V42.1881H37.4998V46.8756Z" fill="#000902"/>
<path d="M37.4998 51.5631H42.1872V46.8756H37.4998V51.5631Z" fill="white"/>
<path d="M37.4998 42.1881H42.1872V37.5007H37.4998V42.1881Z" fill="white"/>
<path d="M32.8125 60.9389H37.4998V56.2514H32.8125V60.9389Z" fill="#000902"/>
<path d="M32.8125 56.2514H37.4998V51.5631H32.8125V56.2514Z" fill="white"/>
<path d="M37.4998 60.9389H42.1872V56.2514H37.4998V60.9389Z" fill="#000902"/>
<path d="M37.4998 56.2514H42.1872V51.5631H37.4998V56.2514Z" fill="white"/>
<path d="M42.1872 37.5007L46.875 37.5L46.875 32.8132H42.1872V37.5007Z" fill="white"/>
<path d="M42.1872 46.8756L46.8746 46.8754L46.875 42.1884L42.1872 42.1881V46.8756Z" fill="#F6CD25"/>
<path d="M42.1872 51.5631L46.8746 51.5629V46.8754L42.1872 46.8756V51.5631Z" fill="#000902"/>
<path d="M42.1872 42.1881L46.875 42.1884V37.5L42.1872 37.5007V42.1881Z" fill="#000902"/>
<path d="M42.1872 60.9389H46.875V56.2514H42.1872V60.9389Z" fill="#F6CD25"/>
<path d="M42.1872 56.2514H46.875L46.8746 51.5629L42.1872 51.5631V56.2514Z" fill="#000902"/>
<path d="M46.8746 46.8754L51.562 46.8754L51.5625 42.1884H46.875L46.8746 46.8754Z" fill="#F6CD25"/>
<path d="M46.875 60.9389H51.562V56.2514H46.875V60.9389Z" fill="#F6CD25"/>
</svg>
