<svg width="37" height="36" viewBox="0 0 37 36" fill="none" xmlns="http://www.w3.org/2000/svg">
<g filter="url(#filter0_d_0_53)">
<path d="M16.1292 6.51839C15.995 6.50411 15.8608 6.48983 15.7266 6.47555C14.9985 6.22029 14.2615 6.25064 13.519 6.41308C13.1666 6.67905 13.1755 7.02178 13.3115 7.39128C13.4349 7.568 13.5977 7.4966 13.7462 7.44483C14.0378 7.34309 14.206 7.46447 14.2543 7.73937C14.3026 8.00891 14.4064 8.31058 14.036 8.47302C13.2006 8.83896 13.1666 8.90679 13.2614 9.8957C13.2865 9.9796 13.3276 10.0528 13.401 10.1028C13.6711 10.076 13.9108 9.93676 14.1792 9.89035C14.4922 9.8368 14.6264 9.59582 14.6479 9.30485C14.6711 8.99961 14.8196 8.85859 15.1238 8.83717C15.5084 8.81039 15.7105 8.57655 15.7356 8.20348C15.7571 7.88753 15.9216 7.76079 16.2258 7.76257C16.478 7.76436 16.7267 7.68581 16.9807 7.69474C17.2526 7.70366 17.3492 7.88395 17.3904 8.11601C17.4244 8.30701 17.3475 8.40519 17.1578 8.47481C16.4315 8.73899 16.3224 9.02282 16.6265 9.76897C16.8537 9.9796 17.1739 9.87964 17.4244 10.0099C17.4655 10.0456 17.5281 10.0796 17.5335 10.126C17.5961 10.7811 18.0899 10.9971 18.6141 11.0346C19.2438 11.081 19.5372 11.3898 19.6499 11.9574C19.7787 12.0985 19.9486 12.1591 20.1275 12.1895C20.3565 12.2288 20.4782 12.3501 20.5032 12.5804C20.5497 13.0285 20.8378 13.232 21.2475 13.3141C21.4961 13.4265 21.455 13.6586 21.4729 13.8639C21.4943 14.0906 21.4711 14.3298 21.6804 14.494C22.5641 14.6529 23.4515 14.5618 24.3388 14.544C24.4444 14.5422 24.5499 14.5208 24.6555 14.5493C24.8165 14.5707 24.9757 14.5975 25.1385 14.6029C25.4176 14.6118 25.5768 14.735 25.5875 15.0241C25.6036 15.4597 25.829 15.681 26.2691 15.6846C26.5303 15.6864 26.6573 15.8167 26.6806 16.0791C26.7003 16.3094 26.7128 16.5539 26.9615 16.686C27.2745 16.7664 27.5876 16.7699 27.9007 16.6825C28.4213 16.1701 28.4696 15.8488 28.1082 15.3276C27.915 14.9527 28.0152 14.5493 28.0062 14.1602C27.9866 13.3676 27.9812 13.3498 27.2101 13.2766C27.1386 13.2694 27.0706 13.2445 27.0008 13.2302C26.9454 13.2141 26.8881 13.2034 26.8327 13.1927C26.1206 13.1231 26.1171 13.1249 25.9632 12.4126C25.9113 12.1734 25.8487 11.9164 25.5625 11.9039C25.092 11.8842 24.9399 11.6361 24.9471 11.2131C24.9489 11.106 24.897 11.0042 24.8183 10.9221C24.2154 10.8221 23.7824 10.5615 23.786 9.86714C23.786 9.80288 23.7091 9.75111 23.6554 9.7047C23.3763 9.50478 22.9541 9.72969 22.7216 9.39411C22.6357 9.23167 22.5391 9.07637 22.3817 8.97997C22.0328 8.76577 21.8432 8.46945 21.8235 8.05175C21.8074 7.70545 21.6124 7.47875 21.2618 7.41984C21.0113 7.377 20.8807 7.24134 20.8557 6.99143C20.8163 6.61836 20.5802 6.55231 20.2456 6.55588C19.0524 6.57016 17.8609 6.56302 16.6676 6.55945C16.4887 6.55945 16.3063 6.59693 16.1327 6.52018L16.1292 6.51839Z" fill="#F7B201"/>
<path d="M25.8809 24.9097C26.4766 24.9061 27.0706 24.8954 27.6663 24.9043C28.0116 24.9097 28.3479 24.8472 28.6878 24.8115C28.8578 24.7936 28.9114 24.7347 28.9222 24.5723C28.9347 24.3938 28.9257 24.2135 28.9347 24.0332C28.9472 23.8011 29.0027 23.7422 29.2227 23.7333C29.4034 23.7262 29.5841 23.7387 29.763 23.7297C29.9222 23.7226 29.9956 23.653 29.9991 23.4977C30.0081 23.121 30.0081 22.7426 30.0117 22.366C30.0117 22.2946 30.0117 22.2214 30.0081 22.15C29.9974 21.6752 30.0188 21.6662 30.4196 21.6377C30.4679 21.6341 30.5144 21.5913 30.5627 21.5663C29.9687 21.2735 29.6664 21.4431 29.6771 22.0625C29.6789 22.1821 29.7451 22.3428 29.5752 22.382C29.4106 22.4195 29.373 22.2589 29.339 22.1428C29.2621 21.8769 29.1887 21.6162 28.8739 21.5306C28.0491 21.4342 27.9991 21.4574 27.745 22.1946C27.6931 22.3463 27.6144 22.4588 27.4677 22.4909C27.0276 22.5909 26.7772 22.839 26.7647 23.3049C26.7593 23.4888 26.643 23.5744 26.4641 23.628C25.6787 23.869 25.6304 23.9547 25.7664 24.7597C25.7914 24.8186 25.8308 24.8668 25.8827 24.9061L25.8809 24.9097Z" fill="#8B122F"/>
<path d="M13.5029 6.5058C14.2454 6.49509 14.986 6.48448 15.7266 6.47555C15.5692 6.37202 15.5692 6.21484 15.5621 6.04883C15.5549 5.85783 15.6533 5.63113 15.4905 5.48476C15.3527 5.36159 15.1452 5.44906 14.9699 5.42942C14.9162 5.42406 14.8626 5.42585 14.8089 5.41871C14.6336 5.3955 14.5549 5.33124 14.5298 5.14738C14.4994 4.91711 14.4922 4.68327 14.4744 4.45121C14.3831 4.30127 14.4153 4.13347 14.4314 3.97818C14.4708 3.58903 14.3652 3.31414 13.9573 3.19989C13.553 3.08565 13.6121 2.63939 13.3938 2.39127V2.3877C13.3258 2.35557 13.2704 2.36806 13.2239 2.42518C13.1362 2.54657 13.1058 2.68759 13.0986 2.83039C13.0843 3.1035 12.9609 3.25702 12.68 3.29093C12.2864 3.34091 12.1469 3.58725 12.1487 3.96568C12.1487 4.48513 12.1773 5.00458 12.1272 5.52224C12.1147 5.85069 12.0825 6.18092 12.2077 6.49866C12.6371 6.85567 13.07 6.71465 13.5029 6.5058Z" fill="#AD2528"/>
<path d="M28.9061 21.6591C29.0438 21.7287 29.1315 21.8322 29.1404 21.9929C29.1476 22.1357 29.1315 22.282 29.1995 22.4159C29.2478 22.5123 29.2996 22.6105 29.4231 22.6283C29.856 22.689 29.9204 22.5819 29.8936 22.2124C29.8864 22.1089 29.8363 22.0071 29.8059 21.9054C29.7523 21.7269 29.7988 21.6394 29.9741 21.5912C30.1691 21.5377 30.3659 21.5591 30.5627 21.5716H30.5591C30.8364 21.5162 30.9545 21.3842 30.9473 21.0664C30.933 20.4059 30.8847 19.7401 30.9777 19.0797C30.9831 19.0279 30.9956 18.9743 30.9938 18.9226C30.9795 18.6994 30.9491 18.6602 30.7595 18.6512C30.6002 18.6441 30.441 18.6512 30.2836 18.6495C30.1745 18.6495 30.0725 18.6298 30.0045 18.5316C29.9616 18.4906 29.9097 18.4674 29.8506 18.462C29.0367 18.728 28.5035 19.6527 28.754 20.447C28.8649 20.8004 28.8953 21.1414 28.8578 21.5002C28.8578 21.5591 28.8756 21.6126 28.9079 21.6626L28.9061 21.6591Z" fill="#A72129"/>
<path d="M13.3903 9.85288C13.3939 9.62082 13.3903 9.38698 13.4028 9.15671C13.4207 8.84968 13.5638 8.71044 13.8698 8.67653C14.487 8.6087 14.4959 8.59085 14.4852 7.95715C14.4816 7.73224 14.4136 7.53767 14.3045 7.35024C14.1936 7.16102 14.0612 7.11104 13.8537 7.20743C13.6926 7.28241 13.5459 7.38594 13.3921 7.47698C13.367 7.47162 13.3438 7.46627 13.3187 7.46091C13.1041 7.40022 12.8715 7.48233 12.6622 7.38594C12.367 7.12532 12.4833 6.638 12.1273 6.40952C11.4743 6.29349 11.392 6.35775 11.3884 6.98787C11.3884 7.11283 11.3938 7.23956 11.3795 7.36452C11.3204 7.75723 11.2847 8.14994 11.324 8.54801C11.7409 8.86396 12.1416 9.13172 12.3133 9.72435C12.4135 10.0707 12.9985 9.99568 13.3903 9.85466V9.85288Z" fill="#FDD61E"/>
<path d="M27.9525 9.85993C27.9454 8.2034 27.9382 6.54688 27.931 4.88857C27.931 4.69043 27.9239 4.49943 27.8541 4.30486C27.7772 4.08887 27.9543 3.81397 27.77 3.63368C27.609 3.47659 27.3514 3.6069 27.1457 3.5355C27.033 3.49623 26.9578 3.42304 26.9525 3.30345C26.9417 3.08745 26.9471 2.87146 26.94 2.65547C26.9328 2.44484 26.8863 2.3895 26.6913 2.38593C26.5124 2.38058 26.3317 2.39664 26.1528 2.40378C26.0848 2.66261 26.3263 2.60549 26.4372 2.66083C26.5786 2.73044 26.677 2.80363 26.6537 2.97321C26.6322 3.12494 26.5124 3.15886 26.3889 3.18563C26.219 3.22312 26.0347 3.22669 25.9184 3.38913C25.8379 3.8586 25.6429 4.15313 25.1009 4.25488C24.5427 4.36198 24.4926 4.92962 24.9291 5.49191C25.3191 5.69184 25.7395 5.59902 26.1474 5.61687C26.7289 5.64186 26.7611 5.65971 26.7736 6.22735C26.7843 6.76465 26.77 7.30195 26.7789 7.83925C26.7825 8.08737 26.7628 8.34621 26.9453 8.55327C27.3443 8.50508 27.2584 8.17484 27.2673 7.941C27.2977 7.11452 27.2709 6.28805 27.2852 5.46157C27.2888 5.25986 27.2316 5.03137 27.4498 4.83502C27.686 5.10813 27.6287 5.4223 27.6341 5.70612C27.6609 7.14308 27.6377 8.58183 27.6484 10.0188C27.6502 10.3008 27.6055 10.6007 27.8291 10.8381C28.1797 10.5507 27.9668 10.1919 27.9561 9.85814L27.9525 9.85993Z" fill="#D9631C"/>
<path d="M16.1291 6.51824C16.2811 6.66104 16.4726 6.60571 16.6461 6.60571C17.7105 6.61106 18.7768 6.60749 19.8412 6.60749C19.9128 6.60749 19.9861 6.60749 20.0577 6.60749C20.6266 6.60749 20.691 6.57715 20.6677 7.18763C20.6642 7.25903 20.6713 7.33222 20.6838 7.40184C20.6999 7.5018 20.7679 7.56428 20.8645 7.5732C21.0076 7.58748 21.1525 7.58213 21.2975 7.59462C21.539 7.61604 21.6213 7.69637 21.6427 7.92486C21.6517 8.01411 21.6588 8.10693 21.6463 8.1944C21.5908 8.61924 21.8234 8.91199 22.1633 9.05301C22.4227 9.16011 22.4925 9.35468 22.6142 9.54211C22.8449 9.37253 22.7626 9.12084 22.7877 8.89771C22.8467 8.35684 22.8002 7.74992 23.5891 7.68031C23.675 7.67317 23.7376 7.58391 23.7358 7.48038C23.1419 7.34115 22.8109 6.99842 22.8467 6.35758C22.8503 6.28975 22.7787 6.2362 22.7143 6.20229C22.6982 6.25227 22.675 6.30225 22.666 6.3558C22.6481 6.45398 22.6052 6.52359 22.4979 6.53073C22.4263 6.53609 22.3547 6.52538 22.2814 6.52538C20.301 6.5111 18.3224 6.49682 16.342 6.48432C16.2704 6.48432 16.2006 6.50396 16.1291 6.51288V6.51824Z" fill="#E78604"/>
<path d="M27.9525 9.85993C27.9507 10.092 27.949 10.3239 27.9472 10.5542C27.9472 10.6613 27.9543 10.772 27.8416 10.8363C27.1332 10.5435 26.6734 10.7934 26.677 11.536C26.6788 12.1304 26.4802 12.7605 26.872 13.3175L26.8649 13.3282C27.2083 13.471 27.584 13.2961 27.9257 13.4389C28.2567 13.546 28.5823 13.562 28.8989 13.3889C28.9562 13.3389 28.9687 13.28 28.9329 13.2122C28.9311 12.9069 28.9329 12.6017 28.924 12.2964C28.9168 12.0929 28.8614 12.0394 28.6699 12.0197C28.6342 12.0162 28.5984 12.0144 28.5626 12.0144C28.0187 12.0305 28.0456 11.9412 28.0492 11.4485C28.051 11.054 28.0581 10.6595 28.0581 10.265C28.0581 10.1222 28.0652 9.97417 27.9525 9.85993Z" fill="#891631"/>
<path d="M11.3776 7.36441C11.4599 7.2341 11.4367 7.08773 11.442 6.94671C11.454 6.65991 11.6108 6.51175 11.9125 6.50223C12.002 6.49866 12.0914 6.50223 12.1809 6.50223C12.2256 6.57542 12.2614 6.57185 12.2918 6.49152C12.2936 6.172 12.2954 5.85069 12.2972 5.53116C12.2542 4.76716 12.1773 4.00673 12.3562 3.24452C12.4188 2.97676 12.4796 2.67509 12.2632 2.42339C11.9948 2.40376 11.7265 2.38055 11.4581 2.36627C11.2846 2.35735 11.2363 2.40911 11.2542 2.5894C11.3401 3.48193 11.3257 4.37802 11.3365 5.27233C11.3436 5.89888 11.3418 6.52544 11.3454 7.15199C11.3454 7.2216 11.3651 7.29301 11.3758 7.36262L11.3776 7.36441Z" fill="#F7E846"/>
<path d="M13.3903 9.85288C13.1595 9.71721 12.9054 9.77425 12.6586 9.76354C12.3705 9.75104 12.3187 9.70285 12.3079 9.41724C12.3008 9.25837 12.3097 9.09771 12.3008 8.93706C12.29 8.74071 12.2328 8.6818 12.0449 8.67109C11.9394 8.66395 11.8303 8.66395 11.7247 8.67109C11.5744 8.68001 11.4475 8.62298 11.324 8.54801C11.2918 8.56229 11.2596 8.56755 11.2238 8.56398C11.188 8.61218 11.163 8.66395 11.1522 8.72285C11.1594 9.06558 11.12 9.41545 11.256 9.74569C11.3777 9.95632 11.5905 9.99916 11.8034 10.0331C12.0092 10.067 12.1308 10.1652 12.1165 10.3883C12.104 10.5989 11.9519 10.64 11.7838 10.6668C11.6263 10.6918 11.4599 10.6953 11.3419 10.831C11.315 10.8863 11.324 10.9363 11.3633 10.9827C11.4617 11.072 11.5852 11.1059 11.7104 11.113C11.9966 11.1291 12.1201 11.2808 12.1416 11.5575C12.1612 11.7949 12.2256 12.0198 12.4689 12.1394C12.8088 12.2394 13.1416 12.2769 13.4475 12.0377C13.6676 11.3772 13.7159 10.7203 13.4153 10.067C13.4064 9.99559 13.3974 9.92419 13.3885 9.851L13.3903 9.85288Z" fill="#FDED91"/>
<path d="M8.08772 11.7039C8.13781 11.8127 8.11456 11.9252 8.10382 12.0377C8.05373 12.159 8.14497 12.2001 8.22547 12.2483C8.66199 12.3643 9.03231 12.3054 9.25235 11.8574C9.23625 11.1541 9.80694 11.1309 10.2721 10.9863C10.3597 10.8934 10.4098 10.7738 10.4009 10.6543C10.3723 10.2687 10.5637 10.0402 10.9 9.89739C10.934 9.84384 10.9376 9.79029 10.9107 9.73138C10.7104 9.56002 10.4599 9.57073 10.2202 9.54574C9.88923 9.57787 9.5368 9.51539 9.25056 9.75637C9.23446 9.78315 9.22194 9.81171 9.21478 9.84206C9.02336 10.3633 8.66378 10.7221 8.15391 10.9381C8.09846 11.1344 8.17001 11.3451 8.08593 11.5396C8.1235 11.595 8.12171 11.6485 8.08772 11.7056V11.7039Z" fill="#FBEF45"/>
<path d="M24.8559 5.44903C24.8452 5.19913 24.8291 4.94743 24.8219 4.69753C24.8165 4.49403 24.8613 4.42799 25.0509 4.40478C25.2817 4.37622 25.516 4.36908 25.7504 4.35123C25.8756 4.34052 25.9508 4.26733 25.9579 4.14595C25.9722 3.87819 25.9758 3.60865 25.983 3.33911C26.2674 3.04993 26.178 2.73398 26.0456 2.41624C25.9991 2.4091 25.9543 2.40196 25.9078 2.3966C25.7218 2.69173 25.389 2.98329 24.9096 3.27127C24.8738 3.32661 24.838 3.38016 24.8004 3.4355C24.7307 4.02635 24.3568 4.3191 23.8093 4.44048C23.7485 4.77429 23.8093 5.10987 23.804 5.44546C24.0813 5.67038 24.4104 5.54186 24.7146 5.58113C24.7861 5.56328 24.8953 5.58648 24.8577 5.45082L24.8559 5.44903Z" fill="#FCF487"/>
<path d="M24.804 5.46686C24.4713 5.39011 24.1349 5.45258 23.8004 5.44366C23.5159 5.53648 23.2297 5.43473 22.9435 5.44723C22.7717 5.45437 22.7181 5.49542 22.7109 5.66679C22.7037 5.84529 22.7109 6.02558 22.7109 6.20409C22.7181 6.41829 22.7324 6.63071 22.7324 6.84313C22.7359 7.46969 22.7324 7.46969 23.337 7.47861C23.4623 7.4804 23.5875 7.48575 23.7127 7.48932C23.9882 7.22157 23.7968 6.8467 23.9292 6.54682C24.0079 6.31655 23.9614 6.06485 24.0473 5.83637C24.219 5.54719 24.5643 5.76675 24.7754 5.5936C24.8112 5.57039 24.8273 5.54362 24.8237 5.51327C24.8201 5.48114 24.813 5.46329 24.804 5.46329V5.46686Z" fill="#F9CE12"/>
<path d="M23.7193 24.6888C23.4548 24.8253 23.1225 24.7877 22.8115 24.7957C22.6007 24.8016 22.3862 24.7996 22.1754 24.8115C21.9288 24.8234 21.7858 24.9065 21.7787 25.041C21.7572 25.3161 21.7537 25.5892 21.7465 25.8643C22.9295 25.8722 24.1124 25.884 25.2953 25.886C25.7421 25.886 25.8493 25.8187 25.8564 25.5575C25.8672 25.3003 25.8564 25.041 25.8564 24.7818C25.8457 24.7402 25.835 24.6967 25.8207 24.6552C25.1059 24.3959 24.4019 24.3781 23.7157 24.6868L23.7193 24.6888Z" fill="#B42822"/>
<path d="M12.2649 2.42339C12.1612 3.39089 12.2023 4.36196 12.2291 5.33124C12.2309 5.39907 12.2739 5.46512 12.2989 5.53116C12.3597 5.03314 12.3079 4.53332 12.3132 4.03351C12.3168 3.51049 12.2935 3.45158 12.8732 3.46586C12.9447 3.46586 13.0163 3.46408 13.0879 3.45337C13.2095 3.43552 13.2775 3.35876 13.2864 3.23738C13.2954 3.13027 13.2918 3.02317 13.2936 2.91607C13.2972 2.73756 13.299 2.56084 13.3025 2.38234C13.3455 2.29309 13.3473 2.15921 13.2614 2.15564C12.9483 2.14136 12.6013 1.95393 12.3383 2.2913C12.315 2.33414 12.2918 2.37877 12.2685 2.42161L12.2649 2.42339Z" fill="#DC720E"/>
<path d="M28.9328 13.2123C28.9275 13.2534 28.9221 13.2962 28.9167 13.3372C28.7056 14.0334 28.813 14.3369 29.4338 14.6153C29.6985 14.7332 29.6949 14.9331 29.6967 15.1437C29.711 16.022 29.6967 16.9002 29.7057 17.7784C29.7093 18.0426 29.6771 18.3229 29.906 18.5317C29.9382 18.5317 29.9704 18.5317 30.0009 18.5317C30.008 17.2429 30.0277 15.9541 30.0116 14.6671C30.008 14.2976 29.8971 13.9299 29.906 13.5515C29.9096 13.4033 29.8273 13.3444 29.6574 13.3337C29.5321 13.3265 29.4069 13.3265 29.2817 13.3301C29.1493 13.3337 29.0366 13.2855 28.931 13.2141L28.9328 13.2123Z" fill="#751638"/>
<path d="M8.18423 10.9042C8.42395 10.8256 8.67441 10.8506 8.92129 10.8381C9.11807 10.8274 9.16459 10.7792 9.17711 10.5793C9.19321 10.333 9.20037 10.0866 9.21289 9.84028C8.91771 9.75639 8.61358 9.80815 8.31482 9.79209C8.18601 9.78495 8.11982 9.86527 8.11445 9.98844C8.10372 10.2169 8.09835 10.4472 8.08941 10.6757C8.11267 10.756 8.11445 10.8453 8.18601 10.906L8.18423 10.9042Z" fill="#FBF8EA"/>
<path d="M23.8074 4.44046C24.0221 4.43689 24.2386 4.44224 24.4533 4.42975C24.7001 4.41547 24.8021 4.34407 24.7949 4.11201C24.7878 3.88531 24.9542 3.66039 24.7985 3.43548C24.5838 3.42477 24.3692 3.41406 24.1545 3.39978C23.7591 3.37479 23.743 3.38014 23.7466 3.75143C23.7466 3.9817 23.7162 4.21733 23.8074 4.44046Z" fill="#FCF9E0"/>
<path d="M13.3956 2.39113C13.3813 2.60533 13.3866 2.81954 13.4546 3.02482C13.5137 3.20332 13.6228 3.32471 13.8232 3.36933C14.4296 3.50321 14.3885 3.43181 14.3831 4.10299C14.3831 4.22616 14.3724 4.35468 14.4779 4.45107C14.4833 4.20116 14.494 3.95126 14.4922 3.70135C14.4922 3.59603 14.4922 3.47465 14.4421 3.38897C14.3133 3.16405 14.2668 2.92843 14.2525 2.67316C14.2418 2.48752 14.1201 2.40719 13.9233 2.39113C13.748 2.37685 13.5709 2.4893 13.3974 2.39113H13.3956Z" fill="#431C2D"/>
<path d="M24.9059 3.27122C25.1581 3.26408 25.4104 3.25873 25.6626 3.24623C25.7878 3.24088 25.8612 3.16769 25.8701 3.04095C25.8844 2.82496 25.8934 2.61076 25.9041 2.39476C25.5893 2.36442 25.2744 2.33407 24.9399 2.30194C24.8683 2.6411 24.8772 2.95527 24.9077 3.27122H24.9059Z" fill="#FAFAD3"/>
<path d="M26.0419 2.41799C25.9453 2.72145 26.0061 3.03383 25.9793 3.34086C26.0848 3.348 26.1922 3.36585 26.2959 3.36049C26.4659 3.35157 26.6859 3.44261 26.7915 3.27124C26.9131 3.0731 26.8648 2.82676 26.8201 2.60363C26.8058 2.53223 26.7271 2.51081 26.6555 2.49296C26.4891 2.4519 26.2977 2.5483 26.1492 2.40728C26.1134 2.41085 26.0777 2.41442 26.0401 2.41977L26.0419 2.41799Z" fill="#F6CA06"/>
<path d="M30.9777 19.078C30.865 19.194 30.8847 19.3404 30.8847 19.4814C30.8811 19.9794 30.8579 20.4792 30.8901 20.9755C30.908 21.27 30.7881 21.436 30.5591 21.5699C30.6128 21.5735 30.6665 21.586 30.7201 21.5806C30.9491 21.5556 30.9831 21.5217 30.9992 21.3343C30.9992 21.3164 31.001 21.2986 30.9992 21.2807C30.992 20.5471 30.9849 19.8116 30.9759 19.078H30.9777Z" fill="#8B122F"/>
<path d="M12.3347 2.29308C12.5905 2.14135 12.8732 2.19133 13.1469 2.20026C13.2489 2.20383 13.2757 2.30022 13.299 2.38412C13.3294 2.38412 13.3616 2.38769 13.392 2.38769C13.3795 2.30022 13.3759 2.21097 13.3526 2.12707C13.333 2.05567 13.2632 1.99497 13.1952 2.00033C12.9465 2.01639 12.6997 2.04317 12.4528 2.08244C12.3526 2.09851 12.3258 2.1949 12.3329 2.29129L12.3347 2.29308Z" fill="#431C2D"/>
<path d="M8.18423 10.9042C8.15202 10.8274 8.11977 10.7506 8.08757 10.6739C8.08757 10.9613 8.08578 11.2487 8.08399 11.5378C8.18239 11.3361 8.11982 11.1112 8.18423 10.9042Z" fill="#08153D"/>
<path d="M14.58 2.25912C14.5531 2.26626 14.5245 2.26983 14.4977 2.26804C14.5013 2.33409 14.537 2.36979 14.6032 2.37872C14.5961 2.33944 14.5889 2.29839 14.5818 2.25912H14.58Z" fill="#431C2D"/>
<path d="M24.8093 24.824C25.16 24.8151 25.5124 24.8044 25.8631 24.7955C25.8738 24.5438 25.8827 24.2921 25.897 24.0422C25.9042 23.9172 25.9722 23.8405 26.0974 23.8315C26.296 23.819 26.4946 23.8226 26.6914 23.8066C26.8416 23.7941 26.9221 23.7137 26.9364 23.5674C26.9508 23.4067 26.9454 23.2443 26.9543 23.0818C26.9686 22.7998 26.9883 22.7784 27.2567 22.7373C27.4177 22.7123 27.5769 22.6891 27.7379 22.6659C27.8631 22.6481 27.9293 22.5731 27.9329 22.4499C27.9365 22.2696 27.9293 22.0893 27.9347 21.9108C27.9419 21.7163 27.9955 21.6609 28.2013 21.6556C28.4356 21.6484 28.67 21.6556 28.9043 21.6591C28.9133 21.627 28.9204 21.5967 28.9294 21.5645C29.0385 20.838 29.0403 20.8344 28.3605 20.4596C28.1852 20.3632 28.1655 20.2168 28.1708 20.049C28.1744 19.8902 28.2335 19.7331 28.3998 19.7313C29.0009 19.7259 29.0421 19.2458 29.0671 18.8691C29.1262 17.9373 29.2478 17.0002 29.1369 16.0666C29.051 15.3365 28.7505 15.1883 28.0009 15.4275C27.9794 15.4525 27.9597 15.4775 27.9383 15.5007C27.9955 15.5364 28.051 15.581 28.1136 15.6078C28.2048 15.6489 28.2549 15.7042 28.2191 15.8078C28.1279 16.0702 28.0349 16.3308 27.9436 16.5914C27.6502 16.9966 27.8381 17.4643 27.7737 17.8998C27.7325 18.1819 27.763 18.4728 27.72 18.7602C27.6681 19.1083 27.5662 19.4314 27.2567 19.6385C27.0187 19.7991 26.9776 20.0954 26.7826 20.2829C26.6806 20.3703 26.5536 20.3953 26.4266 20.3953C25.9722 20.3953 25.7038 20.5899 25.6949 21.0665C25.6895 21.3628 25.5053 21.4646 25.2423 21.4985C24.99 21.5306 24.77 21.6431 24.7682 21.9287C24.7628 22.3928 24.5106 22.5213 24.1009 22.4892C24.0115 22.482 23.9202 22.4963 23.8326 22.5195C23.7771 22.5392 23.7288 22.5677 23.6841 22.6052C23.6501 22.6463 23.6018 22.6909 23.6036 22.7391C23.6232 23.3442 23.2976 23.612 22.727 23.6495C22.3441 23.9993 22.5015 24.3796 22.6679 24.758C22.693 24.7776 22.718 24.7973 22.7413 24.8169C23.43 24.8169 24.1188 24.8187 24.8076 24.8205L24.8093 24.824Z" fill="#E88B07"/>
<path d="M26.8703 13.3177C26.8649 12.6376 26.8577 11.9593 26.8577 11.2792C26.8577 10.9954 26.8828 10.9739 27.1493 10.9329C27.3783 10.8972 27.6109 10.8686 27.8399 10.8365C27.8399 9.17819 27.8399 7.5181 27.8381 5.85979C27.8381 5.64379 27.8596 5.4278 27.7952 5.21538C27.7755 5.14934 27.7755 5.07258 27.7898 5.00475C27.8166 4.86551 27.89 4.70486 27.7397 4.61025C27.5805 4.51207 27.3909 4.54063 27.2155 4.59062C27.1386 4.61204 27.1028 4.68165 27.0957 4.75484C27.0849 4.89764 27.0814 5.04223 27.0814 5.18682C27.0814 6.14182 27.0814 7.09861 27.0778 8.05361C27.0778 8.22854 27.1297 8.41955 26.9651 8.56056C26.6788 8.80155 26.9472 9.21568 26.6788 9.46201C26.5303 9.59054 26.3407 9.57269 26.1672 9.60303C25.9257 9.64409 25.7289 9.7744 25.7486 10.0172C25.7987 10.6526 25.4104 10.8044 24.9006 10.849C24.8487 10.8758 24.8111 10.9168 24.7861 10.9722C24.7932 11.2399 24.7968 11.5077 24.8093 11.7737C24.8183 11.9647 24.8773 12.0182 25.0795 12.0289C25.2405 12.0378 25.4015 12.0325 25.5625 12.0396C25.6842 12.0468 25.7736 12.1182 25.7718 12.2395C25.7682 12.5234 25.9096 12.7929 25.8273 13.0857C25.7951 13.2035 25.897 13.2963 26.0115 13.3034C26.296 13.3195 26.5822 13.3159 26.8685 13.3195L26.8703 13.3177Z" fill="#DD6710"/>
<path d="M13.4171 10.0688C13.4099 10.5258 13.4028 10.9828 13.3938 11.4415C13.3903 11.6343 13.3849 11.8289 13.3795 12.0217C13.4618 12.243 13.6568 12.2841 13.8554 12.3108C14.0164 12.3323 14.1774 12.318 14.3402 12.3019C15.119 12.2198 15.5615 11.8057 15.6676 11.0595C15.6891 11.0042 15.7034 10.9471 15.7124 10.8882C15.7195 10.8185 15.7392 10.7454 15.732 10.6757C15.6837 10.1813 15.843 9.87068 16.4029 9.89924C16.4745 9.90281 16.5407 9.86175 16.6015 9.82248C16.6194 9.80106 16.6373 9.78143 16.6534 9.76C16.6534 9.49046 16.648 9.22092 16.657 8.95138C16.6641 8.75145 16.7249 8.69433 16.9164 8.68005C17.0595 8.66934 17.2044 8.67826 17.3475 8.66755C17.5568 8.65327 17.6158 8.57652 17.623 8.35517C17.6302 8.13383 17.5371 7.93568 17.4942 7.72505C17.4745 7.63044 17.3886 7.58582 17.3064 7.54476C17.1543 7.468 16.9825 7.44837 16.8323 7.49656C16.5156 7.59474 16.1936 7.58403 15.8698 7.59474C15.6372 7.60188 15.58 7.659 15.5657 7.88035C15.5549 8.041 15.5657 8.20344 15.5514 8.3641C15.5335 8.55688 15.4369 8.64792 15.2347 8.66398C15.0558 8.67826 14.8751 8.67112 14.6944 8.68362C14.571 8.69076 14.4959 8.76752 14.4869 8.89069C14.4762 9.03349 14.4798 9.17808 14.4726 9.32088C14.4547 9.65826 14.3814 9.73501 14.0629 9.75822C14.0093 9.76179 13.9538 9.76714 13.9019 9.75822C13.6407 9.71359 13.503 9.85461 13.4117 10.0706L13.4171 10.0688Z" fill="#EE8902"/>
<path d="M23.8254 22.648C24.0598 22.6552 24.2959 22.6694 24.5303 22.6659C24.8362 22.6605 24.8827 22.6123 24.897 22.3267C24.9042 22.1821 24.897 22.0375 24.906 21.8947C24.9167 21.7323 24.9757 21.677 25.1457 21.6645C25.3085 21.652 25.4713 21.6555 25.6323 21.6377C25.7843 21.6216 25.8577 21.5449 25.8684 21.3913C25.881 21.2111 25.8738 21.0308 25.8827 20.8505C25.8935 20.6452 25.9436 20.5934 26.1439 20.5881C26.3246 20.5827 26.5053 20.5899 26.686 20.5916C26.7969 20.5916 26.9025 20.5774 26.9758 20.4792C27.1154 19.8134 27.2102 19.144 27.1726 18.4603C27.1547 18.1551 27.2102 17.9123 27.559 17.782C27.8632 17.6677 28.0224 17.0501 27.8828 16.7574C27.8238 16.6342 27.7182 16.6431 27.6109 16.6324C27.398 16.6128 27.1798 16.6842 26.974 16.5824C26.8738 16.4825 26.8846 16.3539 26.881 16.229C26.8774 16.0665 26.881 15.9041 26.8667 15.7435C26.8542 15.5828 26.788 15.5185 26.6287 15.5096C26.4481 15.5007 26.2674 15.5096 26.0885 15.5025C25.8702 15.4918 25.8112 15.4293 25.7987 15.2008C25.7897 15.0384 25.7987 14.8759 25.7879 14.7153C25.7754 14.5421 25.6931 14.4582 25.5124 14.4422C25.2441 14.4189 24.9721 14.4082 24.7038 14.394C24.6573 14.4368 24.6305 14.4904 24.6179 14.551C24.5965 14.7313 24.6179 14.9116 24.6215 15.0919C24.6287 15.49 24.7897 15.7542 25.2172 15.7827C25.5106 15.8024 25.6842 15.9309 25.7182 16.2379C25.7504 16.5199 25.9149 16.7127 26.203 16.7413C26.6126 16.7841 26.6932 17.0412 26.6806 17.3839C26.6753 17.5464 26.6735 17.7088 26.6806 17.8712C26.6967 18.1961 26.6162 18.4282 26.2388 18.4853C25.8792 18.5406 25.7378 18.8048 25.7146 19.1458C25.7003 19.3617 25.6949 19.5795 25.7038 19.7955C25.7164 20.1472 25.618 20.3881 25.2137 20.4238C24.9543 20.4471 24.8058 20.6077 24.7467 20.8755C24.6966 21.104 24.6161 21.3307 24.6287 21.5663C24.6555 22.0286 24.5678 22.3856 24.0061 22.4195C23.9059 22.4267 23.8022 22.5016 23.8308 22.6445L23.8254 22.648Z" fill="#F6D583"/>
<path d="M15.5818 10.8381C15.5585 10.8899 15.5353 10.9417 15.5138 10.9934C15.5049 11.4379 15.5353 11.8788 15.4065 12.3251C15.3188 12.6268 15.3295 12.9748 15.6444 13.2033C15.7088 13.2337 15.7768 13.2533 15.8465 13.2587C16.7249 13.3408 16.9521 13.0748 16.7732 12.1841C16.6534 11.9538 16.4441 11.877 16.2008 11.8556C15.9664 11.8342 15.8519 11.7003 15.8555 11.4647C15.8591 11.2844 15.9199 11.1541 16.1256 11.1327C16.3707 11.1077 16.4494 11.2773 16.5604 11.4504C16.6927 11.6557 16.5317 11.9217 16.7339 12.0966C17.0326 12.259 17.3332 12.2216 17.6337 12.1055C17.7232 12.0538 17.7912 11.9841 17.8377 11.8913C17.9665 11.4825 17.9987 11.0738 17.7733 10.6918C17.598 10.3954 17.7894 10.0474 17.6069 9.75997C17.2885 9.75997 16.9718 9.7564 16.6534 9.75461H16.657C16.4208 10.1866 15.9897 10.6186 15.5782 10.8364L15.5818 10.8381Z" fill="#FCECA2"/>
<path d="M26.9723 16.5841C27.0635 16.7002 27.1923 16.6859 27.3175 16.6895C27.4249 16.6912 27.5322 16.693 27.6395 16.702C27.7129 16.7091 27.7862 16.743 27.8041 16.818C27.8542 17.0286 27.8632 17.2446 27.7934 17.4517C27.7737 17.5088 27.7004 17.5659 27.6395 17.5891C27.5429 17.6284 27.4338 17.6552 27.3301 17.6605C27.0599 17.6784 26.9758 17.6891 26.9758 18.0639C26.9758 18.869 26.9758 19.6741 26.9758 20.4792C26.9991 20.4524 27.0402 20.4256 27.042 20.397C27.0599 20.0686 27.2048 19.8294 27.509 19.6812C27.7183 19.5795 27.7952 19.3885 27.8471 19.1635C27.9473 18.7226 27.9562 18.2782 27.9526 17.8301C27.949 17.4178 27.949 17.0054 27.949 16.5931C27.6252 16.5895 27.2996 16.5859 26.9758 16.5824L26.9723 16.5841Z" fill="#ECB643"/>
<path d="M17.6087 9.76164C17.6588 10.4774 17.7106 11.1932 17.7607 11.9073C18.4084 12.1607 19.0542 12.2125 19.6946 11.8805C19.6911 11.6324 19.7268 11.3789 19.5784 11.1504C19.505 11.0379 19.412 10.9362 19.2796 10.9558C18.8502 11.0165 18.4835 10.7809 18.081 10.7256C17.8824 10.6988 17.8037 10.5667 17.7697 10.406C17.7393 10.2686 17.7482 10.1222 17.7393 9.97941C17.7339 9.88481 17.6945 9.80805 17.6087 9.76164Z" fill="#FCD210"/>
<path d="M23.8093 6.47207C23.7127 6.56668 23.7127 6.68806 23.7144 6.81301C23.718 7.03971 23.7144 7.26642 23.7144 7.49312C23.6339 7.58415 23.5266 7.58951 23.4157 7.58951C23.2708 7.59129 23.1259 7.58951 22.9827 7.59843C22.8164 7.60914 22.7591 7.66627 22.7394 7.8287C22.6679 8.39992 22.6035 8.96935 22.6142 9.54592C22.6428 9.6798 22.7198 9.76013 22.8629 9.76191C23.1044 9.7637 23.3459 9.7637 23.5874 9.76548C23.6411 9.81011 23.6894 9.80654 23.7341 9.75477C23.752 9.69944 23.7413 9.64767 23.7037 9.60304C23.5588 9.47987 23.3745 9.49059 23.201 9.46381C23.0132 9.43346 22.9201 9.33172 22.9309 9.13893C22.9398 8.97114 23.0293 8.88545 23.1921 8.85689C23.3978 8.81941 23.6214 8.83904 23.7985 8.69088C24.0705 8.37314 24.0132 7.99828 23.9917 7.62878C24.0007 7.28784 24.0454 6.94332 23.9363 6.60952C23.9094 6.55061 23.8665 6.50598 23.811 6.47207H23.8093Z" fill="#D35714"/>
<path d="M24.6948 14.501C24.6948 14.4653 24.6948 14.4296 24.6984 14.3957C24.6197 14.3457 24.5338 14.3385 24.4426 14.3439C23.5177 14.4064 22.5928 14.4224 21.6661 14.3849C21.3494 14.1779 20.9845 14.1243 20.709 14.3689C20.3727 14.6688 20.5033 15.0954 20.5891 15.481C20.8933 15.8594 21.2618 15.8469 21.6589 15.6541C21.7538 15.5631 21.8164 15.4435 21.8128 15.3203C21.7967 14.8009 22.099 14.6973 22.5409 14.7134C23.0454 14.7312 23.5499 14.7277 24.0544 14.7116C24.2834 14.7045 24.532 14.7241 24.6931 14.4992L24.6948 14.501Z" fill="#EFD79C"/>
<path d="M20.675 15.4828C20.6679 15.3935 20.6518 15.3061 20.6553 15.2186C20.6625 14.9723 20.5552 14.676 20.6983 14.4885C20.8611 14.2779 21.1652 14.4618 21.4049 14.4296C21.4926 14.4171 21.5784 14.3992 21.6661 14.3849C21.6625 14.0601 21.6643 13.7352 21.6554 13.4121C21.6482 13.1676 21.6357 13.1622 21.319 13.1194C21.0883 13.3086 20.8163 12.9623 20.5856 13.1765C20.4711 13.9102 20.2886 14.6385 20.455 15.3882C20.4836 15.4471 20.5283 15.4899 20.5856 15.5203C20.6142 15.5078 20.6446 15.4953 20.6732 15.4846L20.675 15.4828Z" fill="#5F432F"/>
<path d="M23.7324 9.74567C23.6841 9.75281 23.6358 9.75816 23.5875 9.7653C23.7521 9.94202 23.7145 10.1634 23.7181 10.374C23.7288 10.8935 23.7538 10.9184 24.2548 10.9363C24.4319 10.9417 24.6108 10.9595 24.7879 10.9702C24.8004 10.9524 24.8111 10.9363 24.8219 10.9184C24.8523 10.8595 24.8666 10.7971 24.8612 10.7292C24.8523 10.6043 24.8541 10.4811 24.8523 10.3562C24.8308 9.58858 24.4515 9.37973 23.736 9.74567H23.7324Z" fill="#D55B1A"/>
<path d="M20.6839 13.105C20.895 13.2121 21.1043 13.296 21.3208 13.1175C20.9177 13.0592 20.7012 12.8289 20.6714 12.4267C20.6678 12.3732 20.6678 12.3196 20.6607 12.2661C20.6392 12.1001 20.5891 12.0376 20.4245 12.034C20.1705 12.0269 19.9218 12.0126 19.6946 11.8823C19.0506 11.8912 18.4065 11.9001 17.7607 11.9091C17.7178 11.9376 17.6748 11.9662 17.6301 11.9947C17.6462 12.0215 17.6605 12.0483 17.6766 12.0751C18.131 12.325 18.6266 12.1786 19.1042 12.2179C19.3476 12.2375 19.5354 12.2625 19.6302 12.5588C19.8234 13.1693 20.0148 13.2496 20.6839 13.105Z" fill="#AB6830"/>
<path d="M12.2918 6.49152C12.2542 6.49509 12.2185 6.49866 12.1809 6.50223C12.3133 6.76106 12.3204 7.03961 12.324 7.32165C12.3258 7.51622 12.3401 7.51801 12.6317 7.57691C12.875 7.45553 13.1541 7.61976 13.3938 7.47695L13.3921 7.47698C13.4136 7.1521 13.333 6.8147 13.5029 6.50767C13.1487 6.51303 12.7927 6.48804 12.4385 6.54159C12.3938 6.54873 12.3419 6.51124 12.2918 6.49339L12.2918 6.49152Z" fill="#DC720E"/>
<path d="M27.949 13.3336C27.5876 13.3336 27.2262 13.33 26.8649 13.3282C26.9257 13.4014 27.0062 13.4318 27.0993 13.4353C27.2066 13.4371 27.3139 13.4353 27.4195 13.4389C27.8148 13.4514 27.8345 13.471 27.8399 13.8744C27.8453 14.2832 27.8399 14.692 27.8399 15.1026C27.8399 15.2436 27.8256 15.39 27.9383 15.5042L27.9544 15.4899C28.2603 14.7705 28.2693 14.0512 27.9454 13.3354L27.949 13.3336Z" fill="#E88B07"/>
<path d="M21.6411 15.5988C21.4497 15.5988 21.2601 15.5953 21.0686 15.5953C20.9255 15.5953 20.7931 15.5649 20.675 15.4828L20.6643 15.506C20.4711 15.6952 20.5176 15.9398 20.5176 16.1683C20.5176 16.411 20.4425 16.552 20.1706 16.5128C19.0149 16.4771 17.861 16.4592 16.7089 16.5146C16.1865 16.5021 15.6677 16.4485 15.1471 16.3985C14.8483 16.37 14.6784 16.2664 14.6658 15.9487C14.648 15.4649 14.3492 15.3132 13.9073 15.3079C12.825 15.2936 11.7444 15.3614 10.6639 15.34C10.4099 15.3346 10.1648 15.2971 9.91609 15.2579C9.52072 15.1936 9.33467 15.0133 9.40265 14.6081C9.40265 14.5456 9.39013 14.485 9.37582 14.426C9.3633 14.3671 9.34362 14.31 9.32215 14.2565C9.3132 14.2297 9.30068 14.2029 9.29174 14.1761C9.23807 14.0423 9.21481 13.903 9.20765 13.7567C9.17008 13.0087 9.14504 12.9891 8.37935 13.0016C8.30064 12.7213 8.44733 12.3804 8.17004 12.1483C8.14678 12.1108 8.12529 12.0751 8.10382 12.0377C7.8158 12.0305 7.52779 12.0216 7.24156 12.0162C7.1038 12.0144 7.03761 12.068 7.03225 12.2019C7.01614 12.5785 7.00899 12.9534 6.99647 13.33C6.91954 13.3961 6.93743 13.4603 7.00362 13.521C7.09307 13.7816 7.07339 14.0548 7.08592 14.3243C7.09307 14.4707 7.04119 14.5224 6.89986 14.5242C6.6655 14.5278 6.42936 14.5224 6.195 14.5242C6.09303 14.5242 6.02505 14.5796 6.0161 14.6849C6.00716 14.792 6.00358 14.9009 6.00358 15.0098C6.00179 17.1215 6 19.2332 6 21.3431C6 21.4502 6.01252 21.5591 6.01968 21.6662C6.08766 21.7947 6.16459 21.9536 6.31486 21.9536C6.72454 21.9572 6.83725 22.2606 6.98037 22.5444C7.15927 22.9157 6.9267 23.3334 7.11275 23.7047C7.2183 23.7208 7.32206 23.7333 7.42761 23.7529C7.64587 23.7922 7.92495 23.6583 8.07523 23.8636C8.19688 24.0314 8.10027 24.2777 8.11458 24.4884C8.11995 24.5758 8.12174 24.6651 8.13784 24.7526C8.14321 24.7811 8.18256 24.8043 8.20582 24.8293C8.88742 25.0292 9.57082 25.1149 10.2614 24.8597C10.51 24.5169 10.4725 24.1528 10.3419 23.7833C10.3132 23.7404 10.2846 23.6744 10.2345 23.6726C9.6066 23.6298 9.38655 23.2317 9.34719 22.673C9.31678 22.6248 9.27564 22.5873 9.22733 22.5605C9.16293 22.5284 9.09316 22.4927 9.02339 22.4998C8.46344 22.5552 8.29348 22.2517 8.32568 21.7572C8.32032 21.7037 8.30779 21.6537 8.29348 21.6019C8.24697 21.4645 8.22013 21.3235 8.23266 21.1789C8.27023 20.713 8.10027 20.4095 7.59757 20.3649C7.41151 20.3488 7.29702 20.2614 7.29523 20.0579C7.29523 19.8455 7.42761 19.7705 7.6083 19.7723C8.11816 19.7812 8.25234 19.4742 8.24876 19.0404C8.26665 18.6477 8.18614 18.3157 7.71922 18.2443C7.47591 18.2068 7.3972 18.0461 7.38289 17.8266C7.37931 17.7552 7.36858 17.6838 7.35963 17.6124C7.28688 17.0602 7.51289 16.7073 8.03765 16.5538C8.51531 15.8844 8.7783 15.8184 9.56008 16.1986C9.9644 16.395 10.3651 16.5253 10.8034 16.32C10.8696 16.2896 10.977 16.2486 11.0092 16.2932C11.2936 16.6752 11.7713 16.5467 12.1273 16.7359C12.1559 16.7823 12.1845 16.8269 12.2078 16.8751C12.3151 17.2678 12.2436 17.6659 12.2579 18.0586C12.2811 18.6816 12.3938 18.8012 13.0307 18.828C13.2114 18.8351 13.3921 18.8405 13.571 18.8315C13.9717 18.8083 14.2454 18.9012 14.3599 19.3581C14.4709 19.8008 14.8698 19.7848 15.2508 19.7562C16.2384 19.683 17.2277 19.5955 18.2152 19.7205C18.3422 19.7598 18.4674 19.8026 18.5605 19.9026C18.7447 20.1328 18.641 20.4024 18.666 20.6559C18.5623 22.1071 19.1598 22.507 20.5928 22.5034C20.9702 22.5034 21.3119 22.4231 21.5749 22.1357C21.8737 21.809 22.2029 21.834 22.5499 22.0446C22.6268 22.091 22.702 22.1446 22.7807 22.1856C23.3084 22.4552 23.6215 22.2678 23.6322 21.6805C23.6448 20.9325 23.6591 20.9147 24.3711 20.9593C24.6484 20.9772 24.7861 20.8772 24.8792 20.6023C25.0348 20.14 24.9668 19.6723 24.9722 19.2082C24.9776 18.7548 25.0527 18.3924 25.4767 18.0961C26.0527 17.6927 25.9544 16.9358 25.3193 16.6252C25.0903 16.5128 25.0187 16.3521 24.9668 16.129C24.7772 15.3257 24.5053 15.1418 23.7002 15.2614C23.1814 15.3382 22.668 15.44 22.1402 15.4292C21.956 15.4257 21.7806 15.4703 21.6393 15.5988H21.6411Z" fill="#FFFFFC"/>
<path d="M8.19861 24.9133C8.32384 24.9097 8.44907 24.8973 8.57251 24.908C8.76214 24.9222 9.00007 24.7884 9.1253 24.9597C9.21475 25.0829 9.17718 25.2989 9.19686 25.4738C9.20223 25.5274 9.20939 25.5791 9.21833 25.6327C9.23801 25.7523 9.30778 25.8237 9.43122 25.8308C9.60833 25.8415 9.78723 25.8451 9.96434 25.8612C10.0699 25.8701 10.1736 25.8969 10.2792 25.9165C10.5976 25.9022 10.9161 25.888 11.2345 25.8737C11.603 25.6202 11.553 25.2935 11.3526 24.9829C11.1576 24.6795 10.6692 24.6259 10.2363 24.8169C9.55824 24.8241 8.88021 24.8294 8.20218 24.8366C8.18966 24.8633 8.18787 24.8901 8.19682 24.9187L8.19861 24.9133Z" fill="#F9E8A8"/>
<path d="M7.11264 23.7066C7.10727 23.4281 7.1037 23.1514 7.09654 22.873C7.09296 22.7516 7.09654 22.6266 6.97847 22.5445C6.98741 22.8587 6.99457 23.1728 7.00351 23.487C7.0053 23.5763 7.01783 23.6602 7.11264 23.7066Z" fill="#969AA8"/>
<path d="M27.949 13.3336C27.9508 14.0512 27.9544 14.7706 27.9562 15.4882C28.2084 15.4935 28.4607 15.4953 28.7129 15.5078C28.8364 15.5132 28.9186 15.5917 28.9204 15.7149C28.924 15.9684 28.9723 16.2147 29.0206 16.461C29.0385 16.5467 29.0421 16.6467 29.017 16.7288C28.8829 17.1697 28.9437 17.6231 28.933 18.0694C28.9222 18.4656 28.9258 18.8619 28.9133 19.2564C28.9079 19.4189 28.8381 19.4778 28.6771 19.4938C28.6056 19.501 28.5322 19.4992 28.4607 19.5028C28.1172 19.517 27.9436 19.6884 27.9401 20.0169C27.9401 20.0526 27.9401 20.0883 27.9401 20.1257C27.9454 20.6345 27.9776 20.6684 28.4911 20.697C28.9008 20.7202 28.9061 20.7237 28.9186 21.1343C28.924 21.2789 28.9258 21.4217 28.9276 21.5663C29.1065 21.2235 29.0743 20.863 28.9347 20.5327C28.8167 20.2561 28.7952 20.0204 28.9526 19.7669C28.9813 19.7223 29.0117 19.667 29.0099 19.617C28.9902 19.0511 29.4124 18.8262 29.806 18.5781C29.8364 18.5585 29.8722 18.5478 29.9044 18.5335C29.9044 17.4 29.908 16.2665 29.9097 15.133C29.9097 15.0437 29.9133 14.9527 29.9115 14.8634C29.9062 14.4564 29.9008 14.4493 29.4875 14.4279C29.4339 14.4243 29.3784 14.4279 29.3247 14.4243C29.0904 14.4064 29.0314 14.36 29.0242 14.1351C29.0153 13.8656 29.0153 13.5943 28.9133 13.339C28.5895 13.339 28.2675 13.3372 27.9436 13.3354L27.949 13.3336Z" fill="#D25510"/>
<path d="M13.3938 7.4751C13.2363 7.47867 13.0807 7.48403 12.9233 7.48581C12.8159 7.48581 12.714 7.50009 12.6317 7.57507C12.8088 7.57685 12.9859 7.58221 13.163 7.58221C13.256 7.58221 13.3347 7.54829 13.3938 7.4751Z" fill="#F7B201"/>
<path d="M10.238 24.8114C10.5296 24.7847 10.8033 24.8739 11.0806 24.9364C11.2434 24.9721 11.3168 25.0863 11.3257 25.2452C11.3383 25.4594 11.3597 25.6754 11.2345 25.8682C11.3383 25.886 11.442 25.9039 11.5458 25.9218C11.9966 25.9128 12.4456 25.8985 12.8965 25.8985C13.8518 25.8985 14.8071 25.9057 15.7624 25.9093C16.2669 25.911 16.766 26.0449 17.2705 25.9842C18.403 25.8486 19.539 25.9342 20.6732 25.8985C20.9093 25.5469 20.8628 25.1827 20.7304 24.8132C20.5158 24.6008 20.2367 24.624 19.9701 24.6222C19.2152 24.6133 18.462 24.6222 17.707 24.6187C16.7481 24.6133 16.7267 24.5758 16.8716 23.6458C16.9414 23.1978 17.097 22.7265 16.7464 22.3124C16.385 22.4141 16.0165 22.4855 15.6426 22.5266C15.1631 22.6676 14.6729 22.573 14.1881 22.5962C13.918 22.6087 13.646 22.5837 13.3759 22.6141C13.2525 22.6283 13.1058 22.6533 13.0861 22.8033C13.07 22.93 13.2024 22.9746 13.2954 23.0193C13.494 23.1103 13.6818 23.2067 13.7641 23.4316C13.5834 23.5994 13.3759 23.5405 13.1863 23.5423C12.4635 23.5512 11.7408 23.5369 11.018 23.5512C10.7497 23.5566 10.4724 23.5476 10.2416 23.7315C10.238 24.0921 10.2362 24.4527 10.2327 24.8132L10.238 24.8114Z" fill="#F2D28B"/>
<path d="M23.7324 9.74567C23.9453 9.74567 24.1581 9.74019 24.371 9.74554C24.6411 9.75268 24.6841 9.79374 24.6984 10.049C24.7073 10.2257 24.7055 10.4024 24.7073 10.5792C24.7073 10.6684 24.7199 10.7559 24.795 10.8184C25.0061 10.6434 24.9721 10.3971 24.9811 10.1668C24.9936 9.85978 24.9739 9.55275 24.9936 9.24751C25.0025 9.10471 24.9972 8.95298 25.1188 8.84588C25.4802 8.52814 26.5679 8.84587 26.6949 9.3082C26.7289 9.43137 26.7504 9.55632 26.8649 9.63487C26.9489 9.55275 26.9418 9.44565 26.9436 9.34212C26.9507 9.0815 26.9579 8.82088 26.965 8.55848C26.965 7.73558 26.9632 6.91267 26.9615 6.08976C26.9615 5.96481 26.9668 5.83807 26.9615 5.71312C26.9507 5.46321 26.8988 5.40252 26.6305 5.4043C26.0383 5.40966 25.4462 5.43108 24.854 5.44714C24.8379 5.45964 24.8218 5.46678 24.8022 5.46499C24.8183 5.48641 24.8165 5.50784 24.8004 5.52926C24.6662 5.82379 24.829 6.15045 24.6948 6.44499C24.6787 6.49497 24.668 6.54495 24.659 6.59671C24.7825 7.25718 24.2994 7.41784 23.8343 7.59277C23.8254 7.78199 23.8093 7.97299 23.8075 8.1622C23.8075 8.33714 23.8111 8.51029 23.7091 8.6638C23.464 8.99225 23.464 9.3207 23.7073 9.65093C23.7145 9.68306 23.7216 9.71341 23.7323 9.74375L23.7324 9.74567Z" fill="#650941"/>
<path d="M20.7841 25.8968C21.2689 25.9432 21.743 25.8378 22.2189 25.7736C22.3172 25.7611 22.3799 25.7004 22.3995 25.604C22.4461 25.3791 22.5498 25.1631 22.5194 24.9239C22.0221 24.624 21.4872 24.7847 20.9666 24.8061C20.8091 24.8132 20.7215 24.9453 20.7322 25.1095C20.7483 25.372 20.6696 25.6397 20.7841 25.895V25.8968Z" fill="#E88B07"/>
<path d="M20.7841 25.8968C20.7841 25.6629 20.7805 25.4292 20.7912 25.1953C20.8002 25.0008 20.861 24.9365 21.0578 24.9329C21.5444 24.924 22.0328 24.9276 22.5194 24.9258C22.5552 24.9258 22.591 24.9258 22.6267 24.9222C22.6643 24.8562 22.6518 24.799 22.591 24.7508C22.0131 24.5134 21.4228 24.6759 20.8378 24.7044C20.7751 24.733 20.7268 24.7776 20.6946 24.8365C20.6875 25.1918 20.6821 25.5452 20.675 25.9004H20.7286L20.7823 25.8951L20.7841 25.8968Z" fill="#EA9922"/>
<path d="M22.6286 24.815C22.6286 24.8507 22.6286 24.8846 22.6286 24.9203C22.668 24.8864 22.7055 24.8542 22.7449 24.8203L22.7073 24.7828C22.6697 24.765 22.6447 24.7757 22.6304 24.815H22.6286Z" fill="#E88B07"/>
<path d="M15.6729 13.1267C15.5405 12.9928 15.587 12.8232 15.5799 12.6662C15.5566 12.1092 15.5351 11.5505 15.5119 10.9936C15.4045 11.2524 15.4904 11.5237 15.4582 11.7879C15.4439 11.9039 15.401 12.02 15.2775 12.0128C14.8267 11.9896 14.3956 12.1414 13.9483 12.1396C13.7479 12.1396 13.5547 12.1253 13.3794 12.0218C13.061 12.02 12.7443 12.0182 12.4259 12.0164C12.1021 12.3716 12.3651 12.8304 12.2094 13.216C12.1915 13.2731 12.179 13.332 12.1683 13.3909C12.1593 13.7461 12.0377 14.1067 12.204 14.4584C12.3024 14.5458 12.4259 14.5619 12.5475 14.5869C13.3186 14.6047 14.0914 14.6315 14.8625 14.6476C15.1917 14.6547 15.3634 14.7083 15.3992 15.0635C15.4171 15.2366 15.3723 15.5312 15.7248 15.474C15.9913 14.7547 15.8947 14.0228 15.7963 13.2909C15.7641 13.2302 15.723 13.1749 15.6747 13.1267H15.6729Z" fill="#FDD009"/>
<path d="M12.3025 13.3229C12.4242 13.2372 12.4134 13.1069 12.4152 12.9819C12.4188 12.6588 12.4224 12.3357 12.426 12.0144C12.299 11.8431 12.3133 11.6449 12.3133 11.4486C12.3133 11.3593 12.3168 11.2701 12.3097 11.1808C12.2972 11.0201 12.2399 10.963 12.0753 10.9505C11.8267 10.9309 11.5744 10.9737 11.3275 10.9041C11.2774 10.9434 11.2399 10.9916 11.213 11.0487C11.0699 11.8663 11.12 11.9787 11.8392 12.2286C12.0557 12.3036 12.0968 12.4393 12.1165 12.6249C12.1415 12.8659 12.0914 13.1301 12.3025 13.3246V13.3229Z" fill="#E6BD50"/>
<path d="M11.222 8.65314C10.9572 8.65492 10.6924 8.65671 10.4277 8.66028C10.3024 8.66206 10.2291 8.72633 10.2291 8.85485C10.2291 9.11904 10.2309 9.38322 10.2327 9.64741C10.4277 9.81878 10.6692 9.73845 10.891 9.7688C11.0091 9.8634 11.1361 9.89196 11.2756 9.81699C11.2953 9.79736 11.3132 9.77772 11.3329 9.7563C11.3329 9.50461 11.3329 9.25292 11.3329 9.00122C11.3329 8.87449 11.3293 8.74775 11.2255 8.65314H11.222Z" fill="#FDFDF6"/>
<path d="M10.9107 9.84751C10.8928 9.84929 10.8749 9.85286 10.857 9.85465C10.2381 9.8957 10.2327 9.77254 10.2434 10.5348C10.2434 10.6597 10.2524 10.7847 10.2559 10.9096C10.603 11.2523 10.9644 11.1899 11.3293 10.9417V10.906C11.3204 10.8846 11.324 10.8632 11.3401 10.8453C11.3454 10.815 11.3526 10.7864 11.358 10.7561C11.3955 10.5615 11.3884 10.367 11.3705 10.1724C11.3454 9.89035 11.2184 9.73862 10.9125 9.84751H10.9107Z" fill="#F6D70F"/>
<path d="M11.3383 10.8452C11.5727 10.8434 11.807 10.847 12.0414 10.8381C12.2489 10.8292 12.299 10.7738 12.3151 10.581C12.3187 10.5453 12.3205 10.5096 12.3187 10.4739C12.3151 9.90093 12.3509 9.82774 11.7462 9.85273C11.5977 9.85809 11.46 9.82238 11.3294 9.75634L11.3329 9.75277C11.2363 10.1098 11.2507 10.4686 11.3276 10.8256L11.3365 10.8452H11.3383Z" fill="#FFFDF2"/>
<path d="M11.3294 10.9415C10.9716 10.9308 10.6138 10.9201 10.256 10.9094C9.98943 10.9254 9.72108 10.9415 9.45452 10.9611C9.28636 10.9736 9.23448 11.0183 9.2148 11.1861C9.18975 11.3985 9.17544 11.6109 9.15576 11.8233C8.96255 12.2624 8.91783 12.6926 9.07884 13.171C9.19691 13.5191 9.06989 13.9154 9.13251 14.2885C9.16292 14.3081 9.17723 14.3349 9.17723 14.3706C9.2148 14.367 9.24879 14.3777 9.27741 14.4045C9.50461 14.5509 9.6048 14.3867 9.70856 14.2296C9.76223 13.6744 9.9447 13.1443 10.0198 12.5909C10.0592 12.2981 10.2846 12.2267 10.544 12.2482C10.7945 12.2696 10.8034 12.4552 10.7891 12.6462C10.7819 12.7408 10.748 12.8372 10.6603 12.8694C9.85347 13.1514 10.0503 13.7637 10.1612 14.351C10.4188 14.6776 10.7712 14.5527 11.0968 14.5473C11.1541 14.5348 11.2059 14.5116 11.256 14.4813C11.299 14.4241 11.2703 14.5134 11.2936 14.4473C11.485 13.9422 11.8106 13.5585 12.3025 13.3229V13.3246C12.3097 12.9837 12.3205 12.6427 12.3205 12.3017C12.3205 12.0697 12.2919 12.0572 12.0808 12.0393C11.8571 12.0197 11.5798 12.1553 11.4242 11.9447C11.299 11.7769 11.3902 11.527 11.3741 11.3128C11.3652 11.1896 11.3455 11.0647 11.3312 10.9415H11.3294Z" fill="#060B34"/>
<path d="M9.13239 14.287C9.17175 13.9121 9.17353 13.5372 9.1628 13.1606C9.14849 12.7143 9.15743 12.2681 9.15564 11.8218C8.99821 12.0628 8.78353 12.1806 8.48835 12.1431C8.38459 12.1288 8.27725 12.1431 8.16991 12.1467C8.16991 12.3805 8.16633 12.6144 8.16991 12.8482C8.1723 13.141 8.30886 13.254 8.57959 13.1874C8.64936 13.1695 8.71734 13.1445 8.7889 13.1356C8.93381 13.1142 9.04473 13.1945 9.05367 13.3355C9.06441 13.5337 9.05725 13.7318 9.06083 13.9299C9.06262 14.0531 9.03578 14.1834 9.13418 14.2887L9.13239 14.287Z" fill="#FAE79E"/>
<path d="M11.3293 10.8256C11.3311 10.4686 11.3329 10.1098 11.3347 9.75277C11.1862 9.75812 11.0377 9.76348 10.8893 9.76883C10.8946 9.79561 10.9018 9.82239 10.9107 9.84916C11.2113 9.90985 11.2184 9.90985 11.2292 10.1062C11.2399 10.2669 11.2381 10.4275 11.2399 10.5864C11.2399 10.6774 11.2506 10.7649 11.3276 10.8274L11.3293 10.8256Z" fill="#FDED91"/>
<path d="M23.8236 5.63654C23.8183 5.91501 23.8129 6.19348 23.8075 6.47194C23.8165 6.49158 23.8236 6.50943 23.829 6.52907C24.1582 6.7522 24.482 6.74327 24.8004 6.50765L24.7861 6.47373C24.9632 5.62762 24.7897 5.47767 23.8218 5.63476L23.8236 5.63654Z" fill="#F1791B"/>
<path d="M23.8236 5.63654C24.0168 5.63654 24.2118 5.63298 24.405 5.6419C24.6161 5.65261 24.7378 5.74722 24.7682 5.95072C24.795 6.12208 24.7825 6.30059 24.7879 6.47552C24.8111 6.45053 24.8523 6.42911 24.8576 6.40233C24.9077 6.1078 24.931 5.81505 24.8022 5.53123C24.5535 5.53123 24.303 5.52766 24.0544 5.52945C23.9631 5.52945 23.879 5.55265 23.8254 5.63655L23.8236 5.63654Z" fill="#DD6710"/>
<path d="M21.6411 15.5988C21.8397 15.5988 22.04 15.5917 22.2367 15.606C22.7305 15.6434 23.2028 15.5131 23.684 15.4489C23.7556 15.4399 23.8236 15.4007 23.8934 15.3971C24.4479 15.3596 24.7431 15.3935 24.7968 16.154C24.8326 16.6823 24.8308 16.6823 25.3621 16.8019C25.5678 16.8484 25.6448 16.9233 25.6609 17.125C25.6716 17.2678 25.6752 17.4142 25.6609 17.557C25.6412 17.7659 25.5625 17.9354 25.3353 18.0033C24.922 18.1264 24.7896 18.4335 24.7968 18.8369C24.8057 19.2689 24.7968 19.7026 24.7968 20.1364C24.7968 20.2631 24.8004 20.3899 24.7932 20.5148C24.7753 20.8004 24.6197 20.904 24.3639 20.8004C24.2637 20.7594 24.1671 20.7112 24.0705 20.6594C23.9613 20.6023 23.8611 20.6148 23.7717 20.6969C23.7055 20.7576 23.6447 20.8254 23.5767 20.8843C23.3906 21.045 23.3495 21.2503 23.4121 21.4734C23.4568 21.6305 23.5105 21.7822 23.4819 21.9482C23.4497 22.1285 23.294 22.2321 23.1241 22.1767C22.9667 22.125 22.8325 22.0375 22.7126 21.9232C22.5051 21.7233 22.2528 21.6573 21.9666 21.668C21.768 21.6751 21.6249 21.734 21.5212 21.9143C21.344 22.2249 21.0775 22.3588 20.7072 22.3267C20.3494 22.2963 19.9916 22.332 19.6338 22.2267C19.1078 22.0714 18.8502 21.7858 18.8252 21.2324C18.8162 21.0164 18.8198 20.8004 18.818 20.5827C18.7894 20.5737 18.7607 20.5666 18.7321 20.5577C18.6785 20.588 18.6391 20.6291 18.6123 20.6844C18.5568 21.161 18.4817 21.6073 17.8627 21.6823C17.6641 21.7073 17.6051 21.9161 17.6176 22.1125C17.6355 22.3731 17.7804 22.5552 18.0201 22.6373C18.3618 22.7569 18.7214 22.8015 19.0828 22.8176C19.3404 22.8283 19.598 22.8533 19.7805 23.055C20.2742 23.603 20.9218 23.7779 21.6195 23.8511C21.6732 23.8547 21.7269 23.8511 21.7788 23.8457C21.9255 23.8154 22.0722 23.7922 22.2242 23.8243C22.2994 23.8315 22.3745 23.8261 22.4478 23.8083C22.7251 23.6904 22.9613 23.5548 22.8844 23.1817C22.8343 22.9318 22.9702 22.8033 23.2189 22.8354C23.4318 22.8622 23.6 22.8015 23.752 22.6605H23.7896L23.8236 22.6462C23.9327 22.5141 24.0866 22.5516 24.2279 22.5462C24.337 22.5427 24.4461 22.5462 24.5535 22.5391C24.7109 22.5266 24.7682 22.4659 24.7789 22.2945C24.7861 22.1874 24.7843 22.0785 24.7807 21.9697C24.77 21.5698 24.8522 21.1807 24.9149 20.7897C24.9345 20.663 25.0133 20.6023 25.1349 20.5952C25.2798 20.588 25.4247 20.5952 25.5678 20.5791C25.7628 20.5613 25.8612 20.4649 25.8738 20.2667C25.8881 20.0329 25.8827 19.7973 25.8845 19.5634C25.8863 19.3831 25.8845 19.2028 25.8952 19.0225C25.9113 18.7441 25.9865 18.6673 26.2494 18.6441C26.3747 18.6334 26.5035 18.6388 26.6287 18.628C26.7504 18.6191 26.8398 18.5531 26.8416 18.4281C26.8505 17.9051 26.8541 17.3821 26.8505 16.8591C26.8505 16.7145 26.7539 16.6234 26.6126 16.6074C26.4516 16.5877 26.287 16.5931 26.126 16.5806C25.9578 16.5681 25.8934 16.5092 25.8809 16.3521C25.8666 16.1915 25.8738 16.0272 25.8559 15.8666C25.8362 15.6952 25.745 15.6095 25.5714 15.597C25.3907 15.5845 25.21 15.5935 25.0294 15.5792C24.8666 15.5667 24.8022 15.5024 24.7932 15.34C24.7825 15.1775 24.7861 15.0151 24.7861 14.8527C24.7861 14.7259 24.7825 14.5992 24.693 14.4939C23.8611 14.501 23.0275 14.5099 22.1956 14.5171C22.1044 14.5171 22.0149 14.5135 21.9237 14.5206C21.7251 14.5331 21.6625 14.5885 21.6553 14.7813C21.6446 15.0508 21.6446 15.3221 21.6392 15.5935L21.6411 15.5988Z" fill="#FDF8E2"/>
<path d="M22.4103 23.7279C22.3388 23.7279 22.2654 23.7279 22.1939 23.7279C22.0847 23.6547 21.9756 23.6547 21.8683 23.7279C21.8343 23.7297 21.7985 23.7315 21.7645 23.7333C21.6894 23.7815 21.5802 23.8154 21.5695 23.9046C21.5194 24.3313 21.2833 24.5633 20.8646 24.6365C20.7913 24.649 20.7662 24.7293 20.7841 24.8096C21.3995 24.8096 22.015 24.8132 22.6304 24.8132C22.6536 24.7972 22.6787 24.7864 22.7073 24.7811C22.6948 24.5865 22.6894 24.3919 22.6679 24.1974C22.65 24.0331 22.659 23.8779 22.7467 23.735C22.6375 23.6458 22.5248 23.6565 22.4103 23.7243V23.7279Z" fill="#FCDA90"/>
<path d="M22.4103 23.7279C22.523 23.7315 22.6339 23.735 22.7466 23.7386C22.9809 23.7404 23.2135 23.7511 23.4479 23.744C23.7019 23.7368 23.7502 23.6851 23.7556 23.4155C23.7609 23.1656 23.7556 22.9139 23.7556 22.6622C23.616 22.6872 23.4854 22.7408 23.3334 22.6872C23.2189 22.6479 23.0847 22.6497 22.9613 22.6551C22.7734 22.664 22.6464 22.8425 22.675 23.0317C22.6768 23.0496 22.6858 23.0657 22.6893 23.0835C22.7215 23.2209 22.8164 23.3566 22.7609 23.4976C22.7037 23.644 22.4926 23.594 22.4121 23.7261L22.4103 23.7279Z" fill="#FCF0C5"/>
<path d="M26.8648 9.63664C26.8559 9.38495 26.8505 9.13326 26.838 8.87978C26.8326 8.7816 26.7808 8.70485 26.6788 8.68878C26.1976 8.61202 25.7199 8.52634 25.2279 8.56204C24.8898 8.58703 24.8039 8.65129 24.7986 8.97974C24.7914 9.41172 24.8057 9.84549 24.8057 10.2775C24.8057 10.4578 24.7968 10.6381 24.7914 10.8166C24.8039 10.8487 24.8129 10.8808 24.8165 10.9165C25.0669 10.913 25.3156 10.9165 25.566 10.9058C25.7932 10.8951 25.8523 10.8344 25.8612 10.6184C25.8702 10.4238 25.8612 10.2275 25.8684 10.0311C25.8791 9.79551 25.9256 9.7491 26.151 9.74196C26.312 9.7366 26.4713 9.74196 26.6323 9.74196C26.7235 9.74196 26.8094 9.72411 26.8613 9.63664H26.8648Z" fill="#08073E"/>
<path d="M15.5818 10.838C15.868 10.8308 16.1543 10.8273 16.4405 10.8165C16.5675 10.813 16.6355 10.7362 16.6391 10.6113C16.648 10.3257 16.6534 10.04 16.6588 9.75622C16.4101 9.75979 16.1614 9.75444 15.9128 9.76693C15.6784 9.77943 15.589 9.86511 15.5782 10.0936C15.5675 10.3417 15.5782 10.5898 15.5818 10.838Z" fill="#F3BA07"/>
<path d="M16.6533 12.0323C16.6873 11.9627 16.7499 11.9306 16.8197 11.9073C16.9235 11.8716 16.9771 11.7949 16.9002 11.7056C16.7553 11.5361 16.639 11.3647 16.639 11.1308C16.639 11.0327 16.5621 10.9648 16.4619 10.9595C15.6211 10.9166 15.6515 10.9006 15.6765 11.6699C15.6855 11.9288 15.7767 12.0055 16.0576 12.0198C16.2562 12.0305 16.4548 12.0269 16.6533 12.0287H16.6515L16.6533 12.0323Z" fill="#FEF8E8"/>
<path d="M15.673 13.1264C15.664 13.1603 15.6658 13.1943 15.6819 13.2246C16.3438 13.6798 16.8823 13.2246 17.4136 12.9497C17.7535 12.773 17.7661 12.3981 17.6587 12.0429C17.6498 12.0268 17.6408 12.0108 17.6319 11.9947C17.3063 12.0072 16.9807 12.0197 16.6551 12.0322L16.6569 12.0304C16.6605 12.316 16.6694 12.6034 16.6641 12.889C16.6605 13.0532 16.6014 13.0996 16.4261 13.1068C16.1757 13.1157 15.9234 13.1211 15.673 13.1264Z" fill="#82644B"/>
<path d="M24.8022 6.50922C24.4784 6.51636 24.1546 6.5235 23.8308 6.52886C23.8308 6.88408 23.8343 7.23933 23.8343 7.59277C24.0508 7.58742 24.2673 7.59275 24.482 7.57668C24.6752 7.5624 24.7736 7.46065 24.7861 7.26251C24.8022 7.01082 24.7968 6.75913 24.8022 6.50744V6.50922Z" fill="#A21F3F"/>
<path d="M23.7073 9.65295C23.7073 9.3245 23.7073 8.99427 23.7091 8.66582C23.4783 8.66582 23.2457 8.66046 23.015 8.67117C22.7949 8.6801 22.7448 8.739 22.7359 8.97106C22.7305 9.11208 22.7323 9.25488 22.7412 9.39769C22.7538 9.58512 22.811 9.64045 23.0132 9.64938C23.2439 9.6583 23.4765 9.65295 23.7073 9.65473V9.65295Z" fill="#981E35"/>
<path d="M17.6588 12.043C17.5247 12.1876 17.5354 12.3715 17.5139 12.5482C17.4799 12.8195 17.4513 12.8534 17.1937 12.8981C17.0148 12.9302 16.8377 12.9373 16.7303 13.1212C16.6695 13.2247 16.5479 13.2194 16.4387 13.2194C16.1865 13.2194 15.9342 13.2229 15.6838 13.2229C15.6051 13.3764 15.6516 13.5389 15.648 13.6995C15.6355 14.2886 15.7214 14.8812 15.623 15.4685C15.9396 15.7863 16.301 15.7166 16.6659 15.5881C16.9432 15.4239 16.9343 15.1454 16.9414 14.8759C16.9486 14.6063 16.9522 14.3386 16.9414 14.069C16.9325 13.7763 17.0184 13.5835 17.3511 13.571C17.539 13.5639 17.6857 13.455 17.8252 13.3354C17.9934 13.1926 18.1866 13.1712 18.378 13.264C18.5319 13.339 18.5211 13.5014 18.505 13.6442C18.4764 13.887 18.2707 13.8905 18.0989 13.9137C17.7608 13.9602 17.5443 14.1512 17.5819 14.4832C17.6463 15.0526 17.3923 15.3418 16.8609 15.4471C16.8073 15.5221 16.7196 15.5738 16.7107 15.6774C16.7321 15.9094 16.9182 15.9915 17.0899 15.9773C18.2385 15.8773 19.412 16.0469 20.5337 15.6649C20.591 15.6167 20.6089 15.556 20.5856 15.4846C20.557 15.0598 20.5087 14.6385 20.6429 14.2172C20.6894 14.0708 20.6661 13.9013 20.6697 13.7406C20.6751 13.5282 20.6786 13.314 20.6822 13.1016C20.5516 12.923 20.362 12.9873 20.1902 12.9802C19.9004 12.9695 19.8593 12.9266 19.8146 12.6446C19.7841 12.4554 19.8736 12.2215 19.7197 12.0823C19.5355 11.9163 19.2761 12.0073 19.0507 12.0073C18.5873 12.0073 18.1222 12.027 17.6588 12.0377V12.043Z" fill="#020C38"/>
<path d="M20.5855 15.4881L20.5229 15.6274C20.319 15.9576 20.3995 16.3342 20.3458 16.6895C20.5891 16.7823 20.6696 16.7555 20.6732 16.5627C20.6804 16.2111 20.6678 15.8594 20.6643 15.5078C20.6374 15.5006 20.6124 15.4935 20.5855 15.4881Z" fill="#EFD79C"/>
<path d="M8.07163 16.461C7.82117 16.4699 7.57071 16.4788 7.32025 16.4895C7.19502 16.4949 7.11631 16.5627 7.1181 16.6895C7.1181 16.8858 7.1181 17.084 7.13957 17.2785C7.17714 17.6141 7.26837 17.9444 7.22007 18.2871C7.20934 18.3692 7.26479 18.421 7.34709 18.4245C7.54388 18.4317 7.74067 18.4317 7.93745 18.4388C8.01975 18.4406 8.07521 18.4942 8.08057 18.5691C8.0931 18.7458 8.0931 18.9244 8.09846 19.1029C8.09668 19.4831 8.19328 19.7562 8.66557 19.7044C8.85163 19.6848 8.96433 19.8062 8.96254 20.0043C8.96254 20.1525 8.93929 20.3524 8.77291 20.3399C7.90883 20.281 8.1575 20.8986 8.13424 21.3502C8.12888 21.452 8.09846 21.5662 8.19686 21.6483L8.21117 21.6698C8.26126 21.7197 8.31135 21.7822 8.38112 21.7876C8.78543 21.8161 9.02695 21.9982 9.03768 22.4302C9.03947 22.5159 9.11103 22.5855 9.19154 22.6283C9.21837 22.6283 9.24163 22.639 9.25773 22.6605C9.40264 22.7818 9.57259 22.839 9.75864 22.8425C10.7175 22.864 11.6907 22.9586 12.6318 22.8175C13.5728 22.6765 14.503 22.7461 15.4351 22.7015C15.5872 22.7015 15.6856 22.5891 15.6856 22.4748C15.6856 21.8251 16.1489 21.834 16.5997 21.8143C16.6623 21.8072 16.7232 21.7929 16.784 21.7804C16.8913 21.7626 16.9951 21.7322 17.1042 21.7215C17.7053 21.6608 17.8395 21.5055 17.7858 20.945C17.7465 20.5398 17.4423 20.2667 16.9772 20.3774C16.5049 20.4898 16.0112 20.4738 15.555 20.6505C15.3814 21.3145 14.9163 21.4323 14.2973 21.3824C13.4261 21.3127 12.5441 21.4484 11.6746 21.2967C11.2954 21.2181 10.9823 20.9932 10.6567 20.8094C10.324 20.6237 10.4331 20.2738 10.4438 19.9757C10.4546 19.7026 10.6782 19.6919 10.875 19.6669C11.1863 19.6294 11.3795 19.4813 11.3795 19.1475C11.3795 18.9708 11.4296 18.828 11.6085 18.7583C12.367 18.6245 12.3741 18.6245 12.3634 17.8373C12.358 17.4267 12.4135 17.0126 12.324 16.6038L12.3062 16.5877C10.9 16.3985 9.4903 16.2932 8.07342 16.4592L8.07163 16.461Z" fill="#010B39"/>
<path d="M16.7302 15.6167C16.775 15.581 16.8179 15.5453 16.8626 15.5078C16.8376 15.4668 16.809 15.465 16.7785 15.5007C16.3939 15.4543 16.0057 15.5596 15.6211 15.4703C15.4994 15.2115 15.5889 14.9366 15.562 14.6706C15.5441 14.5046 15.4887 14.4457 15.3295 14.4332C15.3116 14.4332 15.2919 14.4261 15.2758 14.4314C14.8107 14.5689 14.3509 14.3957 13.8893 14.4064C13.4385 14.4172 12.9859 14.4154 12.5351 14.4189C12.3365 14.4814 12.1683 14.576 12.1791 14.817C12.1934 15.1669 11.9859 15.2276 11.6978 15.2169C11.4116 15.2062 11.1254 15.2258 10.8409 15.2079C10.6853 15.199 10.4974 15.2097 10.4706 14.9866C10.4437 14.7617 10.6173 14.742 10.7765 14.6956C10.9482 14.6474 11.1933 14.7046 11.2273 14.4243C11.0109 14.4225 10.7944 14.4189 10.5779 14.4189C10.4491 14.4189 10.3257 14.4029 10.2201 14.3208C10.0681 14.1333 9.89095 14.144 9.70132 14.2565C9.58146 14.3654 9.41687 14.3458 9.27912 14.4011C9.24692 14.5778 9.20219 14.7527 9.18251 14.9313C9.14852 15.2419 9.24871 15.3525 9.55641 15.3972C10.4885 15.5328 11.4295 15.4971 12.3669 15.5025C12.9448 15.506 13.5226 15.4918 14.1004 15.4935C14.4439 15.4935 14.4797 15.5346 14.4904 15.8595C14.4958 16.0398 14.4904 16.2201 14.4994 16.3986C14.5048 16.5003 14.5763 16.561 14.6747 16.5717C14.7642 16.5824 14.8554 16.5806 14.9448 16.5806C15.1792 16.5806 15.4082 16.6092 15.6425 16.6413C15.9789 16.6895 16.3259 16.6628 16.6676 16.6681C16.9861 16.3343 16.7213 15.963 16.7338 15.6114L16.7302 15.6167Z" fill="#FAE58C"/>
<path d="M12.3204 16.6056C12.3186 17.0501 12.3168 17.4945 12.3114 17.9372C12.3114 18.0783 12.3061 18.2211 12.2935 18.3621C12.2846 18.4656 12.2113 18.5192 12.1146 18.5245C11.9733 18.5317 11.8302 18.5245 11.6871 18.5281C11.5636 18.5281 11.4366 18.4995 11.3221 18.5745C11.2541 18.7869 11.2488 18.9993 11.3257 19.2118C11.9143 19.3028 12.3401 19.8062 12.9573 19.8365C13.1612 19.8472 13.1898 20.0418 13.2113 20.2025C13.2685 20.6273 13.5423 20.779 13.9305 20.7665C14.4833 20.7469 15.0468 20.879 15.5853 20.6505C15.7624 20.6362 15.9431 20.6291 16.1184 20.6469C16.4941 20.6862 16.7535 20.5541 16.8268 20.1721C16.8895 19.8419 17.1184 19.8258 17.3814 19.8044C17.7249 19.7776 18.1024 19.9008 18.394 19.6063C18.3099 19.5241 18.2026 19.5116 18.0934 19.5116C17.2455 19.5116 16.3993 19.5116 15.5513 19.5152C15.4439 19.5152 15.3384 19.5473 15.2311 19.5598C15.0879 19.5759 14.9448 19.5973 14.8017 19.5938C14.5995 19.5884 14.5047 19.4956 14.4833 19.2992C14.469 19.1743 14.4797 19.0475 14.4636 18.9226C14.4421 18.753 14.3545 18.6691 14.1827 18.6477C14.0754 18.6352 13.9662 18.6352 13.8589 18.6352C13.5888 18.6352 13.3186 18.6388 13.0467 18.6405C12.6233 18.6429 12.4104 18.4406 12.408 18.0336C12.408 17.6552 12.408 17.2786 12.4062 16.9001C12.4062 16.793 12.4134 16.6823 12.315 16.6038L12.3204 16.6056Z" fill="#F9E6AF"/>
<path d="M15.5693 22.6569C15.2813 22.6676 14.995 22.689 14.707 22.6873C13.1416 22.6765 11.5763 22.6605 10.0109 22.648C9.75867 22.6462 9.50821 22.6551 9.25596 22.6605C9.25417 22.9425 9.24702 23.2263 9.2506 23.5084C9.2506 23.628 9.32573 23.7065 9.44917 23.7119C9.71394 23.7226 9.9805 23.7244 10.2453 23.7297C10.2793 23.7404 10.315 23.7619 10.349 23.7601C11.4081 23.6994 12.469 23.7494 13.5299 23.7244C13.7302 23.719 14.0111 23.8386 14.1113 23.5923C14.1989 23.3799 13.9234 23.2763 13.8215 23.1157C13.7052 22.93 13.5531 22.8336 13.3295 22.8586C13.2794 22.864 13.2204 22.8551 13.1971 22.7604C13.8322 22.7604 14.4601 22.764 15.0881 22.7587C15.2831 22.7587 15.4852 22.7979 15.6713 22.6944C15.6605 22.6194 15.6265 22.6069 15.5693 22.6569Z" fill="#E7BD6C"/>
<path d="M16.7304 15.6167C16.6588 15.6845 16.6445 15.772 16.6481 15.863C16.6535 16.1325 16.6588 16.4039 16.666 16.6734C17.3154 16.6806 17.9648 16.6913 18.6142 16.6948C19.192 16.6966 19.7699 16.6913 20.3459 16.6877C20.4729 16.6466 20.5731 16.5806 20.566 16.4271C20.5534 16.1611 20.5372 15.8933 20.5229 15.6274C20.2546 15.597 19.9881 15.6024 19.7251 15.6791C19.6232 15.7077 19.514 15.722 19.4085 15.7256C18.6034 15.7559 17.7984 15.7791 16.9934 15.813C16.8413 15.8184 16.7608 15.7595 16.7304 15.6167Z" fill="#F1BF2F"/>
<path d="M18.3957 19.6062C18.0039 19.6097 17.6104 19.6151 17.2186 19.6187C17.1112 19.6187 17.0039 19.6187 16.8966 19.6276C16.7212 19.6419 16.6801 19.6829 16.6604 19.8543C16.6407 20.031 16.6354 20.2095 16.6121 20.3862C16.5996 20.4826 16.5334 20.5505 16.435 20.5558C16.1488 20.5719 15.8643 20.5808 15.5781 20.5915C15.5459 20.6165 15.5351 20.6415 15.5459 20.6665C15.5566 20.6915 15.5673 20.704 15.5763 20.704C16.0039 20.6897 16.4314 20.7308 16.8429 20.5326C17.0307 20.4416 17.2633 20.5647 17.4744 20.5969C17.5155 20.6022 17.5621 20.6594 17.5817 20.704C17.6032 20.7504 17.6014 20.8093 17.6032 20.8629C17.6139 21.634 17.7374 21.5912 16.9645 21.5858C16.8572 21.5858 16.7463 21.5751 16.664 21.6679C17.3402 22.0428 17.7732 21.8839 17.9234 21.1806C17.9771 20.9325 18.0773 20.7968 18.3295 20.77C18.4744 20.754 18.605 20.6933 18.7142 20.5933L18.7195 20.5844C18.7947 20.297 18.809 20.0096 18.7106 19.724C18.6229 19.6401 18.5102 19.6187 18.3957 19.6044V19.6062Z" fill="#967C65"/>
<path d="M8.19503 21.6482C8.14851 21.2912 8.16819 20.936 8.18608 20.5397C8.42938 20.5397 8.65659 20.5451 8.88379 20.5379C9.05374 20.5326 9.11278 20.4719 9.12888 20.3148C9.13604 20.2434 9.13604 20.172 9.13782 20.0988C9.15035 19.4705 9.21296 19.5044 8.57429 19.5276C8.5564 19.5276 8.53851 19.5294 8.52062 19.5312C8.30714 19.5395 8.17952 19.4282 8.13778 19.1974C8.13241 19.1634 8.11094 19.1331 8.09663 19.101C8.04654 19.458 7.84021 19.6157 7.47765 19.574C7.42398 19.5686 7.3721 19.5544 7.31843 19.5562C7.21824 19.5615 7.14489 19.6204 7.13416 19.7168C7.11806 19.8757 7.11269 20.0363 7.11627 20.197C7.127 20.5129 7.18425 20.5611 7.50269 20.5433C7.57246 20.5397 7.64402 20.5236 7.71379 20.5308C7.98214 20.5558 8.05549 20.6325 8.06443 20.8949C8.0698 21.0734 8.06443 21.2519 8.06801 21.4305C8.06801 21.5251 8.10558 21.6018 8.19503 21.6482Z" fill="#D6BC89"/>
<path d="M8.07163 16.461C8.21654 16.5574 8.38107 16.5449 8.54208 16.5449C9.33281 16.5432 10.1235 16.5378 10.9143 16.5325C10.9858 16.5325 11.0663 16.5021 11.1272 16.5253C11.5136 16.6645 11.9125 16.5646 12.3025 16.5914C12.2668 16.5235 12.2095 16.4825 12.1326 16.4807C12.0252 16.4771 11.9161 16.47 11.8088 16.4807C11.485 16.511 11.2327 16.4503 11.1969 16.0594C11.1898 15.9809 11.0968 15.9612 11.0234 15.9987C10.959 16.0309 10.9018 16.0755 10.8427 16.1183C10.5118 16.3575 10.1701 16.3182 9.82478 16.154C9.74249 16.1148 9.65304 16.0862 9.58506 16.0291C9.20579 15.7203 8.76213 15.8291 8.33814 15.8345C8.19502 15.8363 8.1163 15.947 8.09841 16.0862C8.08231 16.2111 8.08052 16.3379 8.07158 16.4628L8.07163 16.461Z" fill="#C3C6CC"/>
<path d="M9.19154 22.6283C9.18796 22.3463 9.1825 22.066 9.18071 21.7839C9.18071 21.6983 9.13241 21.6536 9.05369 21.6501C8.77282 21.634 8.49016 21.6197 8.20929 21.6697C8.20035 21.9018 8.18246 22.1356 8.18603 22.3676C8.18961 22.589 8.25044 22.6425 8.48837 22.6443C8.72273 22.6461 8.9553 22.6336 9.18966 22.6283L9.19154 22.6283Z" fill="#F0D97E"/>
<path d="M18.7124 19.7258C18.716 20.0132 18.7196 20.2988 18.7214 20.5862H18.7715C18.7715 20.5862 18.8216 20.5862 18.8216 20.5844C18.8216 20.3916 18.8216 20.1988 18.8216 20.0078C18.8216 19.9007 18.8072 19.799 18.7124 19.7276V19.7258Z" fill="#FCF0C5"/>
<path d="M9.27747 14.4028C9.256 14.3547 9.21843 14.3547 9.17728 14.3689C9.19875 14.4171 9.23274 14.4243 9.27747 14.4028Z" fill="#FAE58C"/>
<path d="M18.7178 20.5952C18.4674 20.6041 18.2187 20.6077 17.97 20.6202C17.7822 20.6309 17.7232 20.6951 17.7196 20.8897C17.716 21.086 17.7285 21.2806 17.7249 21.477C17.7214 21.5984 17.648 21.6823 17.5264 21.684C17.2419 21.6858 16.9557 21.6751 16.6712 21.6698H16.6533C16.4852 21.8875 16.453 22.1053 16.6605 22.3195C16.7499 22.3981 16.7607 22.5016 16.7696 22.6123C16.8054 23.0853 16.7177 23.5423 16.6229 24.001C16.605 24.0885 16.5693 24.1742 16.5603 24.2617C16.5281 24.5758 16.6981 24.7775 17.0183 24.8043C17.1435 24.815 17.2705 24.8097 17.3976 24.8097C18.301 24.8114 19.2044 24.8114 20.1079 24.8168C20.3064 24.8168 20.505 24.8293 20.7036 24.8364C20.7322 24.8293 20.7609 24.8222 20.7895 24.8114C20.9737 24.6401 21.2027 24.7365 21.4103 24.7043C21.5731 24.6794 21.6339 24.6276 21.6518 24.4687C21.6768 24.2206 21.6178 23.96 21.7698 23.7333C21.4568 23.6619 21.1455 23.578 20.8288 23.5226C20.5676 23.478 20.3565 23.3638 20.1776 23.1746C20.1401 23.1353 20.0971 23.1014 20.0649 23.0603C19.8145 22.7372 19.4996 22.5837 19.0828 22.6444C18.7572 22.6908 18.4531 22.5284 18.1275 22.5177C17.8985 22.5105 17.7661 22.3124 17.7554 22.066C17.7482 21.8911 17.8162 21.8108 18.0004 21.7858C18.0899 21.7733 18.1829 21.7858 18.267 21.7608C18.7393 21.6287 18.7304 21.6216 18.7268 21.186C18.7268 20.9897 18.7268 20.7915 18.725 20.5952H18.7178Z" fill="#FCF0C5"/>
<path d="M16.657 22.3196C16.6212 22.1036 16.614 21.8858 16.6498 21.6698C16.3797 21.6752 16.1095 21.6752 15.8394 21.6877C15.6426 21.6966 15.5925 21.7519 15.5853 21.9572C15.5764 22.191 15.5747 22.4231 15.5693 22.6569C15.6033 22.6694 15.6373 22.6819 15.6713 22.6944C15.8752 22.6176 16.0881 22.6569 16.2974 22.648C16.5729 22.6373 16.5729 22.6373 16.6552 22.3196H16.657Z" fill="#5A5B6E"/>
<path d="M11.2256 14.4243C11.1451 14.5135 11.036 14.5207 10.9268 14.5207C10.7819 14.5207 10.637 14.5153 10.4939 14.5225C10.3383 14.5314 10.2774 14.5974 10.256 14.7617C10.2542 14.7795 10.2506 14.7974 10.2506 14.8152C10.2274 15.3364 10.2274 15.3775 10.764 15.3739C11.0718 15.3739 11.3795 15.3882 11.6854 15.3936C11.8482 15.3954 12.011 15.3971 12.1738 15.3864C12.3366 15.3775 12.4063 15.2936 12.3849 15.1419C12.3723 15.0526 12.3473 14.9652 12.3276 14.8777C12.2829 14.6724 12.3831 14.5332 12.5351 14.4171C12.4242 14.4136 12.3133 14.41 12.2024 14.4064C11.8875 14.1387 11.5691 14.2154 11.2524 14.4029L11.2273 14.4243L11.2256 14.4243Z" fill="#FCE230"/>
<path d="M11.2506 14.4029C11.5672 14.4029 11.8839 14.4065 12.2005 14.4083C12.2953 14.2512 12.3132 14.0798 12.3078 13.9013C12.3025 13.7085 12.3043 13.5156 12.3025 13.3229C12.1075 13.3568 11.9143 13.3944 11.7193 13.4265C11.4795 13.4658 11.4795 13.464 11.4205 13.7264C11.3686 13.9531 11.3597 14.1905 11.2506 14.4029Z" fill="#E0A525"/>
<path d="M9.69956 14.2564C9.8731 14.2778 10.0466 14.2992 10.2184 14.3189C10.3221 13.9315 10.2184 13.5388 10.2434 13.1193C10.408 13.0372 10.5869 13.1086 10.7569 13.0979C10.8839 13.089 10.9626 13.0336 10.9697 12.9087C10.9805 12.6945 10.9805 12.4785 10.9823 12.2643C10.9823 12.1857 10.9519 12.109 10.8767 12.0965C10.5547 12.0465 10.2345 12.0161 9.93571 12.1964C9.85163 12.2482 9.8069 12.3196 9.81048 12.416C9.81406 12.5767 9.823 12.7373 9.83016 12.8997C9.83374 13.0086 9.83016 13.1157 9.76039 13.2068C9.49383 13.5441 9.56539 13.8994 9.69956 14.2582V14.2564Z" fill="#E8EFF3"/>
<path d="M21.8664 23.7296C21.9755 23.7296 22.0846 23.7296 22.192 23.7296C22.0828 23.6011 21.9737 23.5993 21.8664 23.7296Z" fill="#FCF0C5"/>
<path d="M16.7785 15.5007L16.8215 15.4971C16.8215 15.4971 16.8644 15.506 16.8626 15.506C17.131 15.5096 17.4011 15.531 17.6677 15.4685C17.8179 15.2168 17.7267 14.9419 17.7374 14.6795C17.7643 14.0887 17.6623 14.119 18.2867 14.1208C18.3582 14.1208 18.4316 14.1208 18.5031 14.1172C18.6266 14.1119 18.7089 14.0619 18.7071 13.9244C18.7071 13.8709 18.7089 13.8155 18.7071 13.762C18.6445 12.873 18.7679 12.9837 17.8305 13.0391C17.7321 13.0444 17.6516 13.0944 17.639 13.1961C17.6194 13.3639 17.5156 13.3961 17.3743 13.3889C17.1954 13.3782 17.0165 13.3711 16.8376 13.3604C16.7428 13.7852 16.7141 14.8794 16.7768 15.4988L16.7785 15.5007Z" fill="#E5EAF3"/>
<path d="M15.5781 20.706C15.5781 20.6685 15.5781 20.631 15.5781 20.5935C15.02 20.5935 14.4618 20.5918 13.9054 20.5882C13.7981 20.5882 13.6889 20.5828 13.5834 20.5703C13.4832 20.5578 13.417 20.49 13.4099 20.3936C13.3938 20.2151 13.3991 20.0348 13.3848 19.8563C13.3723 19.6974 13.3097 19.6385 13.1451 19.626C13.0199 19.6171 12.8928 19.6153 12.7676 19.6189C12.5422 19.626 12.3615 19.6082 12.2524 19.344C12.1629 19.1316 11.9071 19.1173 11.6889 19.1227C11.5833 19.1262 11.4778 19.1584 11.3722 19.178C11.0717 19.7046 11.1218 20.2776 11.1522 20.847C11.1683 21.1219 11.3239 21.3129 11.5493 21.4575C11.7962 21.5985 12.0717 21.6021 12.3401 21.6039C13.2435 21.611 14.1469 21.6092 15.0486 21.6003C15.4529 21.5967 15.5101 21.536 15.5531 21.138C15.5692 20.9952 15.5692 20.8506 15.5781 20.7078V20.706Z" fill="#EDC779"/>
<path d="M11.5493 21.4574C11.3991 21.2539 11.3132 21.0379 11.3275 20.7701C11.3543 20.24 11.3025 19.7062 11.3722 19.1761C11.3561 18.9744 11.34 18.7744 11.3239 18.5727C11.1898 18.7869 11.2756 19.0226 11.2559 19.2493C11.2327 19.4938 11.2094 19.5259 10.9697 19.5331C10.9518 19.5331 10.9339 19.5331 10.916 19.5331C10.1575 19.4867 10.2505 19.4956 10.2362 20.2328C10.2255 20.8629 10.1253 20.8737 10.8409 21.0968C11.1021 21.1789 11.2828 21.4002 11.5511 21.4574H11.5493Z" fill="#CD9E73"/>
</g>
<defs>
<filter id="filter0_d_0_53" x="0.0999999" y="0.0999999" width="36.8" height="35.8" filterUnits="userSpaceOnUse" colorInterpolationFilters="sRGB">
<feFlood floodOpacity="0" result="BackgroundImageFix"/>
<feColorMatrix in="SourceAlpha" type="matrix" values="0 0 0 0 0 0 0 0 0 0 0 0 0 0 0 0 0 0 127 0" result="hardAlpha"/>
<feOffset dy="4"/>
<feGaussianBlur stdDeviation="2.95"/>
<feComposite in2="hardAlpha" operator="out"/>
<feColorMatrix type="matrix" values="0 0 0 0 0 0 0 0 0 0 0 0 0 0 0 0 0 0 0.4 0"/>
<feBlend mode="normal" in2="BackgroundImageFix" result="effect1_dropShadow_0_53"/>
<feBlend mode="normal" in="SourceGraphic" in2="effect1_dropShadow_0_53" result="shape"/>
</filter>
</defs>
</svg>
