<svg width="20" height="33" viewBox="0 0 20 33" fill="none" xmlns="http://www.w3.org/2000/svg">
<path d="M19.0382 15.2311H17.769V16.4999H19.0382V15.2311Z" fill="#FAFFCC"/>
<path d="M19.0382 13.9612H17.769V15.2311H19.0382V13.9612Z" fill="#FAFFCC"/>
<path d="M19.0382 12.6923H17.769V13.9612H19.0382V12.6923Z" fill="#FAFFCC"/>
<path d="M19.0382 2.53874H17.769V3.80796H19.0382V2.53874Z" fill="#FAFFCC"/>
<path d="M19.0382 1.26937H17.769V2.53874H19.0382V1.26937Z" fill="#FAFFCC"/>
<path d="M17.769 16.4999L16.4998 16.5V17.7692H17.769L17.769 16.4999Z" fill="#FAFFCC"/>
<path d="M17.769 15.2311H16.4998V16.5L17.769 16.4999V15.2311Z" fill="#F3F90D"/>
<path d="M17.769 13.9612H16.4998V15.2311H17.769V13.9612Z" fill="#F3F90D"/>
<path d="M17.769 12.6923H16.4998V13.9612H17.769V12.6923Z" fill="#F3F90D"/>
<path d="M17.769 3.80796L16.4998 3.80719V5.0764H17.769L17.769 3.80796Z" fill="#FAFFCC"/>
<path d="M17.769 2.53874H16.4998V3.80719L17.769 3.80796V2.53874Z" fill="#F3F90D"/>
<path d="M17.769 1.26937L16.4998 1.26922L16.4998 2.53874H17.769V1.26937Z" fill="#F3F90D"/>
<path d="M16.4998 17.7692L15.2302 17.7689V19.0385H16.4998L16.4998 17.7692Z" fill="#FAFFCC"/>
<path d="M16.4998 16.5H15.2302V17.7689L16.4998 17.7692V16.5Z" fill="#F3F90D"/>
<path d="M16.4998 15.2311H15.2302V16.5H16.4998V15.2311Z" fill="#F3F90D"/>
<path d="M16.4998 13.9612H15.2302V15.2311H16.4998V13.9612Z" fill="#F3F90D"/>
<path d="M16.4998 12.6923H15.2302V13.9612H16.4998V12.6923Z" fill="#F3F90D"/>
<path d="M16.4998 5.0764L15.2302 5.07702V6.34661H16.4998L16.4998 5.0764Z" fill="#FAFFCC"/>
<path d="M16.4998 3.80719H15.2302V5.07702L16.4998 5.0764V3.80719Z" fill="#F3F90D"/>
<path d="M16.4998 2.53874H15.2302V3.80719H16.4998V2.53874Z" fill="#F3F90D"/>
<path d="M16.4998 1.26922H15.2302V2.53874H16.4998L16.4998 1.26922Z" fill="#F3F90D"/>
<path d="M15.2302 19.0385L13.9614 19.0383V20.3075H15.2302L15.2302 19.0385Z" fill="#FAFFCC"/>
<path d="M15.2302 17.7689H13.9614V19.0383L15.2302 19.0385V17.7689Z" fill="#F3F90D"/>
<path d="M15.2302 16.5H13.9614V17.7689H15.2302V16.5Z" fill="#F3F90D"/>
<path d="M15.2302 15.2311H13.9614V16.5H15.2302V15.2311Z" fill="#F3F90D"/>
<path d="M15.2302 13.9612H13.9614V15.2311H15.2302V13.9612Z" fill="#F3F90D"/>
<path d="M15.2302 12.6923H13.9614V13.9612H15.2302V12.6923Z" fill="#F3F90D"/>
<path d="M15.2302 6.34661L13.9614 6.34639V7.61524H15.2302L15.2302 6.34661Z" fill="#FAFFCC"/>
<path d="M15.2302 5.07702H13.9614V6.34639L15.2302 6.34661V5.07702Z" fill="#F3F90D"/>
<path d="M15.2302 3.80719H13.9614V5.07702H15.2302V3.80719Z" fill="#F3F90D"/>
<path d="M15.2302 2.53874H13.9614V3.80719H15.2302V2.53874Z" fill="#F3F90D"/>
<path d="M15.2302 1.26922L13.9614 1.26937V2.53874H15.2302V1.26922Z" fill="#F3F90D"/>
<path d="M13.9614 20.3075L12.6921 20.3076V21.5765H13.9614L13.9614 20.3075Z" fill="#FAFFCC"/>
<path d="M13.9614 19.0383H12.6921V20.3076L13.9614 20.3075V19.0383Z" fill="#F3F90D"/>
<path d="M13.9614 17.7689H12.6921V19.0383H13.9614V17.7689Z" fill="#F3F90D"/>
<path d="M13.9614 16.5H12.6921V17.7689H13.9614V16.5Z" fill="#F3F90D"/>
<path d="M13.9614 15.2311H12.6921V16.5H13.9614V15.2311Z" fill="#F3F90D"/>
<path d="M13.9614 13.9612H12.6921V15.2311H13.9614V13.9612Z" fill="#F3F90D"/>
<path d="M13.9614 12.6923H12.6921V13.9612H13.9614V12.6923Z" fill="#F3F90D"/>
<path d="M13.9614 7.61524L12.6921 7.6153V8.88452H13.9614L13.9614 7.61524Z" fill="#FAFFCC"/>
<path d="M13.9614 6.34639H12.6921V7.6153L13.9614 7.61524V6.34639Z" fill="#F3F90D"/>
<path d="M13.9614 5.07702H12.6921V6.34639H13.9614V5.07702Z" fill="#F3F90D"/>
<path d="M13.9614 3.80719H12.6921V5.07702H13.9614V3.80719Z" fill="#F3F90D"/>
<path d="M13.9614 2.53874H12.6921V3.80719H13.9614V2.53874Z" fill="#F3F90D"/>
<path d="M13.9614 1.26937H12.6921V2.53874H13.9614V1.26937Z" fill="#F3F90D"/>
<path d="M12.6921 21.5765L11.4226 21.577V22.8466H12.6922L12.6921 21.5765Z" fill="#FAFFCC"/>
<path d="M12.6921 20.3076H11.4226V21.577L12.6921 21.5765V20.3076Z" fill="#F3F90D"/>
<path d="M12.6921 19.0383H11.4226V20.3076H12.6921V19.0383Z" fill="#F3F90D"/>
<path d="M12.6921 17.7689H11.4226V19.0383H12.6921V17.7689Z" fill="#F3F90D"/>
<path d="M12.6921 16.5H11.4226V17.7689H12.6921V16.5Z" fill="#F3F90D"/>
<path d="M12.6921 15.2311H11.4226V16.5H12.6921V15.2311Z" fill="#F3F90D"/>
<path d="M12.6921 13.9612H11.4226V15.2311H12.6921V13.9612Z" fill="#F3F90D"/>
<path d="M12.6921 12.6923H11.4226V13.9612H12.6921V12.6923Z" fill="#F3F90D"/>
<path d="M12.6922 11.4234H11.4226V12.6923H12.6921L12.6922 11.4234Z" fill="#FAFFCC"/>
<path d="M12.6921 8.88452L11.4226 8.88467V10.1539H12.6922L12.6921 8.88452Z" fill="#FAFFCC"/>
<path d="M12.6921 7.6153H11.4226V8.88467L12.6921 8.88452V7.6153Z" fill="#F3F90D"/>
<path d="M12.6921 6.34639H11.4226V7.6153H12.6921V6.34639Z" fill="#F3F90D"/>
<path d="M12.6921 5.07702H11.4226V6.34639H12.6921V5.07702Z" fill="#F3F90D"/>
<path d="M12.6921 3.80719H11.4226V5.07702H12.6921V3.80719Z" fill="#F3F90D"/>
<path d="M12.6921 2.53874H11.4226V3.80719H12.6921V2.53874Z" fill="#F3F90D"/>
<path d="M12.6921 1.26937H11.4226V2.53874H12.6921V1.26937Z" fill="#F3F90D"/>
<path d="M11.4226 22.8466L10.1537 22.8464V24.1156H11.4226L11.4226 22.8466Z" fill="#FAFFCC"/>
<path d="M11.4226 21.577H10.1537V22.8464L11.4226 22.8466V21.577Z" fill="#F3F90D"/>
<path d="M11.4226 20.3076H10.1537V21.577H11.4226V20.3076Z" fill="#F3F90D"/>
<path d="M11.4226 19.0383H10.1537V20.3076H11.4226V19.0383Z" fill="#F3F90D"/>
<path d="M11.4226 17.7689H10.1537V19.0383H11.4226V17.7689Z" fill="#F3F90D"/>
<path d="M11.4226 16.5H10.1537V17.7689H11.4226V16.5Z" fill="#F3F90D"/>
<path d="M11.4226 15.2311H10.1537V16.5H11.4226V15.2311Z" fill="#F3F90D"/>
<path d="M11.4226 13.9612H10.1537V15.2311H11.4226V13.9612Z" fill="#F3F90D"/>
<path d="M11.4226 12.6923H10.1537V13.9612H11.4226V12.6923Z" fill="#F3F90D"/>
<path d="M11.4226 11.4234H10.1537V12.6923H11.4226V11.4234Z" fill="#F3F90D"/>
<path d="M11.4226 10.1539L10.1537 10.154V11.4234H11.4226V10.1539Z" fill="#FAFFCC"/>
<path d="M11.4226 8.88467H10.1537V10.154L11.4226 10.1539V8.88467Z" fill="#F3F90D"/>
<path d="M11.4226 7.6153H10.1537V8.88467H11.4226V7.6153Z" fill="#F3F90D"/>
<path d="M11.4226 6.34639H10.1537V7.6153H11.4226V6.34639Z" fill="#F3F90D"/>
<path d="M11.4226 5.07702H10.1537V6.34639H11.4226V5.07702Z" fill="#F3F90D"/>
<path d="M11.4226 3.80719H10.1537V5.07702H11.4226V3.80719Z" fill="#F3F90D"/>
<path d="M11.4226 2.53874H10.1537V3.80719H11.4226V2.53874Z" fill="#F3F90D"/>
<path d="M11.4226 1.26937H10.1537V2.53874H11.4226V1.26937Z" fill="#F3F90D"/>
<path d="M10.1537 24.1156L8.88453 24.1153V25.3841H10.1537L10.1537 24.1156Z" fill="#FAFFCC"/>
<path d="M10.1537 22.8464H8.88453V24.1153L10.1537 24.1156V22.8464Z" fill="#F3F90D"/>
<path d="M10.1537 21.577H8.88453V22.8464H10.1537V21.577Z" fill="#F3F90D"/>
<path d="M10.1537 20.3076H8.88453V21.577H10.1537V20.3076Z" fill="#F3F90D"/>
<path d="M10.1537 19.0383H8.88453V20.3076H10.1537V19.0383Z" fill="#F3F90D"/>
<path d="M10.1537 17.7689H8.88453V19.0383H10.1537V17.7689Z" fill="#F3F90D"/>
<path d="M10.1537 16.5H8.88453V17.7689H10.1537V16.5Z" fill="#F3F90D"/>
<path d="M10.1537 15.2311H8.88453V16.5H10.1537V15.2311Z" fill="#F3F90D"/>
<path d="M10.1537 13.9612H8.88453V15.2311H10.1537V13.9612Z" fill="#F3F90D"/>
<path d="M10.1537 12.6923H8.88453V13.9612H10.1537V12.6923Z" fill="#F3F90D"/>
<path d="M10.1537 11.4234H8.88453V12.6923H10.1537V11.4234Z" fill="#F3F90D"/>
<path d="M10.1537 10.154H8.88453V11.4234H10.1537V10.154Z" fill="#F3F90D"/>
<path d="M10.1537 8.88467H8.88453V10.154H10.1537V8.88467Z" fill="#F3F90D"/>
<path d="M10.1537 7.6153H8.88453V8.88467H10.1537V7.6153Z" fill="#F3F90D"/>
<path d="M10.1537 6.34639H8.88453V7.6153H10.1537V6.34639Z" fill="#F3F90D"/>
<path d="M10.1537 5.07702H8.88453V6.34639H10.1537V5.07702Z" fill="#F3F90D"/>
<path d="M10.1537 3.80719H8.88453V5.07702H10.1537V3.80719Z" fill="#F3F90D"/>
<path d="M10.1537 2.53874H8.88453V3.80719H10.1537V2.53874Z" fill="#F3F90D"/>
<path d="M10.1537 1.26937H8.88453V2.53874H10.1537V1.26937Z" fill="#F3F90D"/>
<path d="M8.88453 25.3841L7.61492 25.3846V26.6539H8.8845L8.88453 25.3841Z" fill="#FAFFCC"/>
<path d="M8.88453 24.1153H7.61492V25.3846L8.88453 25.3841V24.1153Z" fill="#F3F90D"/>
<path d="M8.88453 22.8464H7.61492V24.1153H8.88453V22.8464Z" fill="#F3F90D"/>
<path d="M8.88453 21.577H7.61492V22.8464H8.88453V21.577Z" fill="#F3F90D"/>
<path d="M8.88453 20.3076H7.61492V21.577H8.88453V20.3076Z" fill="#F3F90D"/>
<path d="M8.88453 19.0383H7.61492V20.3076H8.88453V19.0383Z" fill="#F3F90D"/>
<path d="M8.88453 17.7689H7.61492V19.0383H8.88453V17.7689Z" fill="#F3F90D"/>
<path d="M8.88453 16.5H7.61492V17.7689H8.88453V16.5Z" fill="#F3F90D"/>
<path d="M8.88453 15.2311H7.61492V16.5H8.88453V15.2311Z" fill="#F3F90D"/>
<path d="M8.88453 13.9612H7.61492V15.2311H8.88453V13.9612Z" fill="#F3F90D"/>
<path d="M8.88453 12.6923H7.61492V13.9612H8.88453V12.6923Z" fill="#F3F90D"/>
<path d="M8.88453 11.4234H7.61492V12.6923H8.88453V11.4234Z" fill="#F3F90D"/>
<path d="M8.88453 10.154H7.61492V11.4234H8.88453V10.154Z" fill="#F3F90D"/>
<path d="M8.88453 8.88467H7.61492V10.154H8.88453V8.88467Z" fill="#F3F90D"/>
<path d="M8.88453 7.6153H7.61492V8.88467H8.88453V7.6153Z" fill="#F3F90D"/>
<path d="M8.88453 6.34639H7.61492V7.6153H8.88453V6.34639Z" fill="#F3F90D"/>
<path d="M8.88453 5.07702H7.61492V6.34639H8.88453V5.07702Z" fill="#F3F90D"/>
<path d="M8.88453 3.80719H7.61492V5.07702H8.88453V3.80719Z" fill="#F3F90D"/>
<path d="M8.88453 2.53874H7.61492V3.80719H8.88453V2.53874Z" fill="#F3F90D"/>
<path d="M8.88453 1.26937H7.61492V2.53874H8.88453V1.26937Z" fill="#F3F90D"/>
<path d="M7.61492 26.6539L6.34573 26.6536V27.9231H7.61494L7.61492 26.6539Z" fill="#FAFFCC"/>
<path d="M7.61492 25.3846H6.34573V26.6536L7.61492 26.6539V25.3846Z" fill="#F3F90D"/>
<path d="M7.61492 24.1153H6.34573V25.3846H7.61492V24.1153Z" fill="#F3F90D"/>
<path d="M7.61492 22.8464H6.34573V24.1153H7.61492V22.8464Z" fill="#F3F90D"/>
<path d="M7.61492 21.577H6.34573V22.8464H7.61492V21.577Z" fill="#F3F90D"/>
<path d="M7.61492 20.3076H6.34573V21.577H7.61492V20.3076Z" fill="#F3F90D"/>
<path d="M7.61492 19.0383H6.34573V20.3076H7.61492V19.0383Z" fill="#F3F90D"/>
<path d="M7.61492 17.7689H6.34573V19.0383H7.61492V17.7689Z" fill="#F7B50F"/>
<path d="M7.61492 16.5H6.34573V17.7689H7.61492V16.5Z" fill="#F7B50F"/>
<path d="M7.61492 15.2311H6.34573V16.5H7.61492V15.2311Z" fill="#F3F90D"/>
<path d="M7.61492 13.9612H6.34573V15.2311H7.61492V13.9612Z" fill="#F3F90D"/>
<path d="M7.61492 12.6923H6.34573V13.9612H7.61492V12.6923Z" fill="#F3F90D"/>
<path d="M7.61492 11.4234V12.6923H6.34573V11.4234H7.61492Z" fill="#F3F90D"/>
<path d="M7.61492 10.154V11.4234H6.34573V10.154H7.61492Z" fill="#F3F90D"/>
<path d="M7.61492 8.88467H6.34573V10.154H7.61492V8.88467Z" fill="#F3F90D"/>
<path d="M7.61492 7.6153H6.34573V8.88467H7.61492V7.6153Z" fill="#F3F90D"/>
<path d="M7.61492 6.34639H6.34573V7.6153H7.61492V6.34639Z" fill="#F3F90D"/>
<path d="M7.61492 5.07702H6.34573V6.34639H7.61492V5.07702Z" fill="#F3F90D"/>
<path d="M7.61492 3.80719H6.34573V5.07702H7.61492V3.80719Z" fill="#F3F90D"/>
<path d="M7.61492 2.53874H6.34573V3.80719H7.61492V2.53874Z" fill="#F3F90D"/>
<path d="M7.61492 1.26937H6.34573V2.53874H7.61492V1.26937Z" fill="#F3F90D"/>
<path d="M6.34573 27.9231L5.07688 27.9229V29.1921H6.34573L6.34573 27.9231Z" fill="#FAFFCC"/>
<path d="M6.34573 26.6536H5.07688V27.9229L6.34573 27.9231V26.6536Z" fill="#F3F90D"/>
<path d="M6.34573 25.3846H5.07688V26.6536H6.34573V25.3846Z" fill="#F3F90D"/>
<path d="M6.34573 24.1153H5.07688V25.3846H6.34573V24.1153Z" fill="#F3F90D"/>
<path d="M6.34573 22.8464H5.07688V24.1153H6.34573V22.8464Z" fill="#F3F90D"/>
<path d="M6.34573 21.577H5.07688V22.8464H6.34573V21.577Z" fill="#F7B50F"/>
<path d="M6.34573 20.3076H5.07688V21.577H6.34573V20.3076Z" fill="#F7B50F"/>
<path d="M6.34573 19.0383H5.07688V20.3076H6.34573V19.0383Z" fill="#F7B50F"/>
<path d="M6.34573 15.2311H5.07688V16.4999L6.34573 16.5V15.2311Z" fill="#F7B50F"/>
<path d="M6.34573 13.9612H5.07688V15.2311H6.34573V13.9612Z" fill="#F3F90D"/>
<path d="M6.34573 12.6923H5.07688V13.9612H6.34573V12.6923Z" fill="#F3F90D"/>
<path d="M6.34573 11.4234H5.07688V12.6923H6.34573V11.4234Z" fill="#F3F90D"/>
<path d="M6.34573 10.154H5.07688V11.4234H6.34573V10.154Z" fill="#F3F90D"/>
<path d="M6.34573 8.88467H5.07688V10.154H6.34573V8.88467Z" fill="#F3F90D"/>
<path d="M6.34573 7.6153H5.07688V8.88467H6.34573V7.6153Z" fill="#F3F90D"/>
<path d="M6.34573 6.34639H5.07688V7.6153H6.34573V6.34639Z" fill="#F3F90D"/>
<path d="M6.34573 5.07702H5.07688V6.34639H6.34573V5.07702Z" fill="#F3F90D"/>
<path d="M6.34573 3.80719H5.07688V5.07702H6.34573V3.80719Z" fill="#F3F90D"/>
<path d="M6.34573 2.53874H5.07688V3.80719H6.34573V2.53874Z" fill="#F3F90D"/>
<path d="M6.34573 1.26937H5.07688V2.53874H6.34573V1.26937Z" fill="#F3F90D"/>
<path d="M5.07688 29.1921L3.80765 29.1923V30.4611H5.07687L5.07688 29.1921Z" fill="#FAFFCC"/>
<path d="M5.07688 27.9229H3.80765V29.1923L5.07688 29.1921V27.9229Z" fill="#F3F90D"/>
<path d="M5.07688 26.6536H3.80765V27.9229H5.07688V26.6536Z" fill="#F3F90D"/>
<path d="M5.07688 25.3846H3.80765V26.6536H5.07688V25.3846Z" fill="#F7B50F"/>
<path d="M5.07688 24.1153H3.80765V25.3846H5.07688V24.1153Z" fill="#F7B50F"/>
<path d="M5.07688 22.8464H3.80765V24.1153H5.07688V22.8464Z" fill="#F7B50F"/>
<path d="M5.07688 15.2311H3.80765V16.4999H5.07688V15.2311Z" fill="#F7B50F"/>
<path d="M5.07688 13.9612H3.80765V15.2311H5.07688V13.9612Z" fill="#F3F90D"/>
<path d="M5.07688 12.6923H3.80765V13.9612H5.07688V12.6923Z" fill="#F3F90D"/>
<path d="M5.07688 11.4234H3.80765V12.6923H5.07688V11.4234Z" fill="#F3F90D"/>
<path d="M5.07688 10.154H3.80765V11.4234H5.07688V10.154Z" fill="#F3F90D"/>
<path d="M5.07688 8.88467H3.80765V10.154H5.07688V8.88467Z" fill="#F3F90D"/>
<path d="M5.07688 7.6153H3.80765V8.88467H5.07688V7.6153Z" fill="#F3F90D"/>
<path d="M5.07688 6.34639H3.80765V7.6153H5.07688V6.34639Z" fill="#F3F90D"/>
<path d="M5.07688 5.07702H3.80765V6.34639H5.07688V5.07702Z" fill="#F3F90D"/>
<path d="M5.07688 3.80719H3.80765V5.07702H5.07688V3.80719Z" fill="#F3F90D"/>
<path d="M5.07688 2.53874H3.80765V3.80719H5.07688V2.53874Z" fill="#F7B50F"/>
<path d="M5.07688 1.26937H3.80765V2.53874H5.07688V1.26937Z" fill="#F7B50F"/>
<path d="M3.80765 30.4611L2.53808 30.4617V31.7312H3.80766L3.80765 30.4611Z" fill="#FAFFCC"/>
<path d="M3.80765 29.1923H2.53808V30.4617L3.80765 30.4611V29.1923Z" fill="#F7B50F"/>
<path d="M3.80765 27.9229H2.53808V29.1923H3.80765V27.9229Z" fill="#F7B50F"/>
<path d="M3.80765 26.6536H2.53808V27.9229H3.80765V26.6536Z" fill="#F7B50F"/>
<path d="M3.80765 15.2311H2.53808V16.4999H3.80765V15.2311Z" fill="#F7B50F"/>
<path d="M3.80765 13.9612H2.53808V15.2311H3.80765V13.9612Z" fill="#F3F90D"/>
<path d="M3.80765 12.6923H2.53808V13.9612H3.80765V12.6923Z" fill="#F3F90D"/>
<path d="M3.80765 11.4234H2.53808V12.6923H3.80765V11.4234Z" fill="#F3F90D"/>
<path d="M3.80765 10.154H2.53808V11.4234H3.80765V10.154Z" fill="#F3F90D"/>
<path d="M3.80765 8.88467H2.53808V10.154H3.80765V8.88467Z" fill="#F3F90D"/>
<path d="M3.80765 7.6153H2.53808V8.88467H3.80765V7.6153Z" fill="#F3F90D"/>
<path d="M3.80765 6.34639H2.53808V7.6153H3.80765V6.34639Z" fill="#F7B50F"/>
<path d="M3.80765 5.07702H2.53808V6.34639H3.80765V5.07702Z" fill="#F7B50F"/>
<path d="M3.80765 3.80719H2.53808V5.07702H3.80765V3.80719Z" fill="#F7B50F"/>
<path d="M2.53808 31.7312L1.26885 31.731V33.0003H2.53807L2.53808 31.7312Z" fill="#FAFFCC"/>
<path d="M2.53808 30.4617H1.26885V31.731L2.53808 31.7312V30.4617Z" fill="#F7B50F"/>
<path d="M2.53808 15.2311H1.26923V16.4999H2.53808V15.2311Z" fill="#F7B50F"/>
<path d="M2.53808 13.9612H1.26923V15.2311H2.53808V13.9612Z" fill="#F3F90D"/>
<path d="M2.53808 12.6923H1.26923V13.9612H2.53808V12.6923Z" fill="#F3F90D"/>
<path d="M2.53808 11.4234H1.26923V12.6923H2.53808V11.4234Z" fill="#F3F90D"/>
<path d="M2.53808 10.154H1.26923V11.4234H2.53808V10.154Z" fill="#F7B50F"/>
<path d="M2.53808 8.88467H1.26923V10.154H2.53808V8.88467Z" fill="#F7B50F"/>
<path d="M2.53808 7.6153H1.26923V8.88467H2.53808V7.6153Z" fill="#F7B50F"/>
<path d="M1.26923 15.2311H0V16.4999H1.26923V15.2311Z" fill="#F7B50F"/>
<path d="M1.26923 13.9612H0V15.2311H1.26923V13.9612Z" fill="#F7B50F"/>
<path d="M1.26923 12.6923H0V13.9612H1.26923V12.6923Z" fill="#F7B50F"/>
<path d="M1.26923 11.4234H0V12.6923H1.26923V11.4234Z" fill="#F7B50F"/>
</svg>
