<svg width="35" height="36" viewBox="0 0 35 36" fill="none" xmlns="http://www.w3.org/2000/svg">
<g clip-path="url(#clip0_130_23705)">
<path d="M16.4095 9.22596C11.8342 9.22596 8.14172 13.1445 8.14172 17.9999C8.14172 22.8552 11.8342 26.7739 16.4095 26.7739C20.9848 26.7739 24.6772 22.8552 24.6772 17.9999C24.6772 13.1445 20.9848 9.22596 16.4095 9.22596ZM16.4095 23.7023C13.4507 23.7023 11.036 21.1399 11.036 17.9999C11.036 14.8599 13.4507 12.2975 16.4095 12.2975C19.3683 12.2975 21.783 14.8599 21.783 17.9999C21.783 21.1399 19.3683 23.7023 16.4095 23.7023ZM25.016 6.82178C23.9476 6.82178 23.0849 7.73725 23.0849 8.87088C23.0849 10.0045 23.9476 10.92 25.016 10.92C26.0841 10.92 26.9468 10.0088 26.9468 8.87088C26.947 8.6017 26.8974 8.33509 26.8003 8.08633C26.7035 7.83756 26.5614 7.61155 26.3818 7.4212C26.2025 7.23086 25.9896 7.07993 25.7551 6.97707C25.5208 6.87422 25.2695 6.82144 25.016 6.82178ZM32.5259 17.9999C32.5259 15.6385 32.5459 13.2985 32.4209 10.9414C32.2961 8.20353 31.7074 5.7737 29.8208 3.77163C27.9302 1.76531 25.6446 1.14501 23.0649 1.0124C20.8396 0.879785 18.6346 0.901175 16.4135 0.901175C14.1883 0.901175 11.9833 0.879785 9.76221 1.0124C7.18231 1.14501 4.89266 1.76959 3.0061 3.77163C1.11553 5.77798 0.531021 8.20353 0.406056 10.9414C0.281092 13.3028 0.301248 15.6428 0.301248 17.9999C0.301248 20.357 0.281092 22.7013 0.406056 25.0584C0.531021 27.7963 1.11956 30.2262 3.0061 32.2282C4.8967 34.2344 7.18231 34.8547 9.76221 34.9875C11.9874 35.12 14.1924 35.0986 16.4135 35.0986C18.6387 35.0986 20.8437 35.12 23.0649 34.9875C25.6446 34.8547 27.9343 34.2302 29.8208 32.2282C31.7115 30.2219 32.2961 27.7963 32.4209 25.0584C32.55 22.7013 32.5259 20.3613 32.5259 17.9999ZM28.9785 28.0872C28.6841 28.8657 28.3295 29.4475 27.7609 30.0464C27.1926 30.6496 26.6484 31.026 25.9148 31.3383C23.7944 32.2324 18.7596 32.0313 16.4095 32.0313C14.0594 32.0313 9.02049 32.2324 6.90014 31.3426C6.16648 31.0303 5.61826 30.6539 5.05389 30.0507C4.48551 29.4475 4.13079 28.8699 3.83652 28.0915C2.99804 25.837 3.18751 20.4939 3.18751 17.9999C3.18751 15.5059 2.99804 10.1585 3.83652 7.90836C4.13079 7.12977 4.48551 6.54799 5.05389 5.94908C5.6223 5.35018 6.16648 4.96945 6.90014 4.65716C9.02049 3.76736 14.0594 3.96841 16.4095 3.96841C18.7596 3.96841 23.7984 3.76736 25.9188 4.65716C26.6524 4.96945 27.2007 5.3459 27.765 5.94908C28.3334 6.55226 28.6882 7.12977 28.9825 7.90836C29.8208 10.1585 29.6315 15.5059 29.6315 17.9999C29.6315 20.4939 29.8208 25.837 28.9785 28.0872Z" fill="white"/>
</g>
<defs>
<clipPath id="clip0_130_23705">
<rect width="34.2" height="34.2" fill="white" transform="translate(0.300049 0.899902)"/>
</clipPath>
</defs>
</svg>
