<svg width="27" height="29" viewBox="0 0 27 29" fill="none" xmlns="http://www.w3.org/2000/svg">
<path d="M10.6125 13.6697L14.4639 16.6033C14.5949 16.7031 14.6202 16.8902 14.5204 17.0212L13.1429 18.8297C13.0431 18.9607 12.856 18.986 12.725 18.8863L11.879 18.2418C11.748 18.1421 11.5609 18.1674 11.4611 18.2984L11.4231 18.3483C11.3233 18.4793 11.1362 18.5046 11.0052 18.4049L10.6057 18.1006C10.4747 18.0008 10.2876 18.0261 10.1879 18.1571L9.44625 19.1308C9.34647 19.2618 9.37177 19.4489 9.50278 19.5487L9.90219 19.8529C10.0332 19.9527 10.0585 20.1398 9.95872 20.2708C9.85894 20.4018 9.88425 20.5889 10.0152 20.6887L10.8613 21.3331C10.9923 21.4329 11.0176 21.62 10.9178 21.751L8.12236 25.421C8.02258 25.552 7.83548 25.5773 7.70448 25.4775L6.01596 24.1914C5.88496 24.0916 5.69786 24.1169 5.59807 24.2479L5.28112 24.664C5.18134 24.795 4.99424 24.8203 4.86324 24.7205L3.17472 23.4344C3.04372 23.3346 3.01841 23.1475 3.11819 23.0165L10.1942 13.7267C10.2943 13.5952 10.4814 13.5699 10.6125 13.6697Z" fill="#F2A00E"/>
<path d="M3.11835 23.0164L8.22373 16.3138C8.4515 16.0147 8.87864 15.9569 9.17778 16.1847C9.4768 16.4125 9.53469 16.8396 9.30683 17.1388L4.02077 24.0786L3.17488 23.4343C3.04388 23.3345 3.01857 23.1474 3.11835 23.0164Z" fill="#FDCB2C"/>
<path d="M15.4908 19.2763L7.76321 13.3902C7.08013 12.8699 6.94817 11.8944 7.46846 11.2113L15.066 1.23684C15.5863 0.553766 16.5618 0.421802 17.2449 0.942098L24.9725 6.82815C25.6555 7.34845 25.7875 8.32402 25.2672 9.00709L17.6697 18.9815C17.1494 19.6646 16.1738 19.7966 15.4908 19.2763Z" fill="#FDCB2C"/>
<path d="M8.47302 9.89262L7.46854 11.2113C6.94825 11.8944 7.08021 12.87 7.76329 13.3903L15.491 19.2764C16.174 19.7967 17.1496 19.6648 17.6699 18.9817L19.5036 16.5743L10.391 9.63328C9.7896 9.17517 8.93094 9.29143 8.47302 9.89262Z" fill="#F2A00E"/>
<path d="M19.5431 8.10259C19.4747 8.25019 19.3773 8.38899 19.2492 8.51136C18.8269 8.9147 18.1699 8.99457 17.6635 8.7035C17.1069 8.38353 16.8787 7.75212 17.0302 7.18782C17.0869 6.97694 16.9801 6.75897 16.7766 6.67985C16.7717 6.67802 16.7669 6.67606 16.762 6.67423C16.5269 6.58268 16.2663 6.71394 16.2 6.95738C15.969 7.80465 16.2586 8.74489 17.0074 9.30394C17.9159 9.9822 19.2288 9.84681 19.9792 8.99688C20.1249 8.83188 20.2402 8.65212 20.3272 8.46373C20.4294 8.24212 20.3292 7.97727 20.1029 7.88615C20.1001 7.885 20.0975 7.88395 20.0947 7.8828C19.8808 7.79685 19.6402 7.89329 19.5431 8.10259Z" fill="#F2A00E"/>
<path d="M17.5132 8.6037C18.1029 9.05282 18.9449 8.93891 19.3941 8.34928C19.8432 7.75966 19.7293 6.91759 19.1396 6.46847C18.55 6.01935 17.7079 6.13326 17.2588 6.72289C16.8097 7.31251 16.9236 8.15458 17.5132 8.6037Z" fill="black"/>
<path d="M19.5426 4.23818L19.3727 4.10883C19.0593 3.8701 18.6059 4.07313 18.5753 4.46592L18.574 4.4816C18.561 4.64926 18.6338 4.81214 18.7676 4.91404L18.933 5.03999C19.1685 5.21938 19.5067 5.15496 19.6607 4.90217C19.6625 4.89932 19.6641 4.89638 19.6659 4.89354C19.7987 4.6755 19.7455 4.39279 19.5426 4.23818Z" fill="#F4E391"/>
<path d="M23.4837 7.23979L20.8192 5.2102C20.584 5.03109 20.2456 5.09466 20.0914 5.34684L20.0855 5.35653C19.9525 5.57405 20.0057 5.85688 20.2085 6.01139L22.8733 8.04116C23.0946 8.20968 23.4106 8.16694 23.5791 7.94569C23.7477 7.72433 23.7051 7.4084 23.4837 7.23979Z" fill="#F4E391"/>
</svg>
