<svg width="81" height="80" viewBox="0 0 81 80" fill="none" xmlns="http://www.w3.org/2000/svg">
<path d="M40.5 6.66675C33.9073 6.66675 27.4626 8.62171 21.981 12.2844C16.4993 15.9471 12.2269 21.1531 9.70399 27.244C7.18107 33.3348 6.52096 40.0371 7.80713 46.5031C9.09331 52.9691 12.268 58.9086 16.9297 63.5703C21.5915 68.2321 27.5309 71.4068 33.997 72.6929C40.463 73.9791 47.1652 73.319 53.2561 70.7961C59.347 68.2732 64.5529 64.0007 68.2156 58.5191C71.8783 53.0375 73.8333 46.5928 73.8333 40.0001C73.8333 35.6227 72.9711 31.2882 71.296 27.244C69.6208 23.1998 67.1655 19.5251 64.0702 16.4299C60.9749 13.3346 57.3003 10.8793 53.2561 9.2041C49.2119 7.52894 44.8774 6.66675 40.5 6.66675ZM40.5 66.6668C35.2258 66.6668 30.0701 65.1028 25.6848 62.1726C21.2995 59.2424 17.8815 55.0777 15.8632 50.205C13.8449 45.3323 13.3168 39.9705 14.3457 34.7977C15.3746 29.6248 17.9144 24.8733 21.6438 21.1439C25.3732 17.4145 30.1247 14.8747 35.2976 13.8458C40.4704 12.8169 45.8322 13.345 50.7049 15.3633C55.5776 17.3816 59.7423 20.7996 62.6725 25.1849C65.6027 29.5702 67.1666 34.7259 67.1666 40.0001C67.1666 47.0725 64.3571 53.8553 59.3562 58.8563C54.3552 63.8572 47.5724 66.6668 40.5 66.6668Z" fill="#FDD009"/>
<path d="M67.1667 40.0001H73.8333C73.8333 35.6227 72.9711 31.2882 71.296 27.244C69.6208 23.1998 67.1655 19.5251 64.0702 16.4299C60.9749 13.3346 57.3003 10.8793 53.2561 9.2041C49.2119 7.52894 44.8774 6.66675 40.5 6.66675V13.3334C47.5724 13.3334 54.3552 16.1429 59.3562 21.1439C64.3572 26.1449 67.1667 32.9276 67.1667 40.0001Z" fill="white"/>
</svg>
