<svg width="202" height="71" viewBox="0 0 202 71" fill="none" xmlns="http://www.w3.org/2000/svg">
<path d="M15.6893 4.93056V0H27.9466V7.88889H37.7524V5.91667H72.5631V12.3264H78.9369V15.2847H83.3495V11.3403H87.7621V6.90278H115.218V11.3403H118.16V14.2986H122.573V6.90278H137.772V15.2847H140.714V11.3403H144.636V5.91667H162.286V10.3542H165.228V6.90278H192.194V11.3403H197.587V17.2569H202V52.7569H197.587V57.6875H193.665V61.1389H165.228V56.2083H160.325V61.1389H145.617V56.2083H141.694V53.7431H137.772V61.1389H121.102V54.7292H118.16V57.6875H112.767V62.125H89.233V56.2083H83.3495V52.7569H77.466V57.6875H72.5631V63.6042H45.1068V57.6875H33.8301V61.1389H27.9466V71H13.7282V61.1389H6.86408V56.2083H1.96116V37.4722H6.86408V34.5139H0V10.3542H5.88349V4.93056H15.6893Z" fill="#020B31"/>
<path d="M198.46 26.7775C198.793 29.2034 198.578 31.6391 198.646 34.0748C198.862 34.765 198.636 35.2581 198.009 35.5835C193.792 35.4356 191.184 36.7471 192.057 41.7171C192.223 42.6835 191.645 43.8866 190.243 44.0443C189.311 43.5217 188.929 42.6145 188.625 41.6678C187.34 37.891 188.095 33.9762 187.958 30.1303C187.889 28.1877 187.85 26.5409 185.242 26.5803C184.104 26.6 183.506 25.5942 183.349 24.5785C183.055 22.6359 181.79 22.2612 180.143 22.3006C178.956 22.3302 177.77 22.2809 176.583 22.3203C176.093 22.3302 175.23 22.2809 175.171 22.5175C174.328 25.8407 169.719 26.5113 169.729 30.4261C169.729 32.0828 170.003 33.8381 168.797 35.2877C165.463 36.5597 162.08 36.3527 158.678 35.6525C158.129 32.5266 158.335 29.4104 158.776 26.2943C161.051 25.5942 162.335 24.2925 163.698 22.0541C165.091 19.786 167.915 18.1392 169.454 15.5753C169.65 15.2499 170.131 15.1316 170.523 15.1316C176.22 15.1316 181.927 14.5103 187.605 15.4668C187.899 15.7232 188.242 16.0289 188.291 16.3938C188.595 18.8689 190.096 19.8649 192.42 20.0128C192.998 20.0523 193.498 20.4566 193.851 20.9595C193.979 23.3853 194.459 25.5153 197.489 25.7717C197.921 25.8111 198.195 26.393 198.47 26.7973L198.46 26.7775Z" fill="#FCEA35"/>
<path d="M78.7309 26.8953C79.0447 29.6071 79.1035 32.3189 78.8486 35.0307C75.7794 36.855 72.6121 36.2929 69.435 35.4251C67.8562 33.9164 68.2975 31.9343 68.2877 30.0903C68.2779 28.5125 68.2975 27.1023 66.2579 26.7671C65.0518 26.5698 64.4144 25.6035 64.2183 24.4596C63.9143 22.6846 62.7376 22.3197 61.2079 22.3197C51.8139 22.3 53.275 21.6196 53.0887 29.7846C52.971 34.8433 53.4417 39.9119 52.8043 44.9608C52.0983 46.44 50.9314 47.6135 50.1077 49.0137C49.637 49.1715 49.1958 49.1025 48.8133 48.7771C48.6074 48.5305 48.4603 48.2643 48.3623 47.9586C47.8818 45.5229 48.6466 43.2548 49.3134 40.9671C50.5293 36.8254 50.0292 36.1351 45.7441 35.9675C44.8616 35.9379 43.9692 35.9478 43.1161 35.6224C42.6651 35.4251 42.3415 35.0898 42.1061 34.656C42.0375 31.2637 41.9885 27.8715 42.4003 24.4892C42.9985 24.5089 43.5672 24.6864 44.1556 24.785C46.1756 25.1104 47.215 24.6469 47.2836 22.2014C47.4895 14.8154 47.5974 14.8154 54.9714 14.8154C58.3446 14.8154 61.708 14.8055 65.0812 14.8351C67.3856 14.8548 69.2192 15.5451 69.6899 18.109C69.9547 19.529 70.8568 20.0517 72.1512 20.2686C73.3769 20.4757 74.6909 20.9589 74.6517 22.3887C74.5732 24.854 75.9755 25.633 77.9758 26.0472C78.3779 26.1261 78.6132 26.491 78.7505 26.8854L78.7309 26.8953Z" fill="#FDED39"/>
<path d="M120.72 26.4421C120.68 29.3412 120.798 32.2404 120.455 35.1297C119.327 36.1356 117.915 36.0961 116.581 35.9975C114.13 35.82 112.944 36.7765 113.081 39.3207C113.12 40.0899 112.885 40.8689 112.326 41.4803C112.051 41.7071 111.757 41.7465 111.433 41.5986C110.002 39.7152 109.992 37.526 110.227 35.3269C110.404 33.6407 110.531 31.9643 110.551 30.2682C110.57 28.4932 110.208 27.1521 108.139 26.8365C106.815 26.6393 106.177 25.6039 105.883 24.3515C105.158 21.2453 102.638 22.5174 100.765 22.2906C99.0487 22.0736 97.6072 22.3892 97.4405 24.6178C97.3522 25.8307 96.558 26.6788 95.3617 26.8365C93.2926 27.1127 92.9298 28.4439 92.92 30.2288C92.9004 31.9742 93.2828 33.8576 91.91 35.3565C89.586 36.5004 87.1444 36.1158 84.7322 35.8989C83.4182 35.7806 82.5945 35.0804 82.6926 33.5717C82.771 32.3982 82.6533 31.2247 82.7612 30.0512C82.4866 29.1539 82.516 28.2368 82.6337 27.3099C82.6631 27.1126 82.6729 26.8168 82.8102 26.7576C85.2028 25.7025 87.5562 24.6276 87.4582 21.3932C90.547 20.6931 91.7531 18.3757 92.7043 15.6343C92.9789 14.8553 94.283 15.0032 95.1754 15.0032C99.2252 14.9736 103.275 15.0032 107.325 15.0032C109.492 15.0032 111.002 15.7921 111.227 18.139C111.384 19.7464 112.277 20.3578 113.777 20.4071C115.071 20.4564 116.346 20.9692 116.346 22.3596C116.346 24.9826 117.827 25.7321 120.004 25.9589C120.288 25.9885 120.514 26.2547 120.739 26.4421H120.72Z" fill="#FCEA36"/>
<path d="M78.7309 26.8953C77.6032 26.3332 76.3968 26.6882 75.2299 26.5798C73.965 26.4614 73.5041 25.9289 73.6218 24.6174C73.7002 23.7299 73.8964 22.8522 73.9748 21.9746C74.014 21.5309 73.7198 21.2153 73.2786 21.1857C72.298 21.1266 71.3076 21.1463 70.327 21.0773C69.1699 20.9984 68.7875 20.5842 68.6502 19.4107C68.6404 19.3121 68.6306 19.2135 68.6306 19.1149C68.7875 15.6931 67.9736 15.9988 65.1594 15.9692C60.7173 15.9199 56.2753 15.8607 51.8332 15.8114C51.0488 15.8114 50.2545 15.8114 49.47 15.8706C48.9307 15.9199 48.4895 16.2946 48.5287 16.8271C48.715 19.105 47.9011 21.3336 48.3228 23.6214C48.411 24.0948 48.3522 24.6174 48.2835 25.1006C48.2149 25.6528 47.8227 25.9881 47.303 26.067C45.9301 26.2741 44.5377 26.1952 43.1845 25.9486C42.4491 25.8204 42.5962 25.0118 42.3804 24.499C42.3804 23.0199 42.3804 21.5309 42.3804 20.0517C42.4098 16.9948 42.4295 13.9477 42.0568 10.9893C42.606 10.5949 43.1061 10.6343 43.5964 10.6343C49.7054 10.6343 55.8144 10.5061 61.9136 10.7822C63.7767 10.871 65.6595 10.8809 67.5029 10.447C68.1011 10.0821 68.6894 10.0131 69.2582 10.5061C69.7387 10.9795 69.572 11.5909 69.5916 12.1529C69.6504 14.5919 70.9873 15.6503 73.6022 15.3282C75.2397 15.5156 75.2986 15.5254 75.0927 16.6693C74.8966 17.7442 74.8377 18.8092 74.8965 19.8939C74.9259 20.3673 75.2299 20.6039 75.6418 20.6434C76.3184 20.7025 77.0048 20.6729 77.6912 20.7025C79.1425 20.7617 79.368 20.949 79.2601 22.4972C79.1621 23.9665 78.9169 25.4161 78.7306 26.8756L78.7309 26.8953Z" fill="#FCFCF8"/>
<path d="M194.341 47.6141C193.9 48.9947 194.302 50.3851 194.341 51.7657C194.361 52.7617 194.116 53.0279 193.175 53.0279C191.998 53.0279 190.831 53.0279 189.448 53.0279C189.448 54.1324 189.468 55.1974 189.448 56.2525C189.438 56.7949 189.125 57.1794 188.615 57.3668C187.771 57.6626 186.909 57.8796 186.006 57.8697C180.858 57.8303 175.71 57.7908 170.562 57.7514C170.268 57.7514 169.974 57.7218 169.68 57.6824C169.121 57.6035 168.778 57.2288 168.748 56.6963C168.699 55.7989 168.758 54.9015 168.748 54.014C168.738 53.2251 168.454 52.8997 167.719 52.8701C166.924 52.8406 166.13 52.8701 165.346 52.8701C163.306 52.8603 163.267 52.8011 163.286 50.6119C163.296 49.616 163.326 48.62 163.345 47.624C164.561 45.2968 167.013 46.2928 168.817 45.5532C170.445 45.3461 171.896 45.5729 173.102 46.9041C174.308 48.2453 175.985 47.8903 177.534 47.91C179.005 47.9297 180.476 47.9297 181.947 47.9001C182.565 47.8015 183.182 47.8015 183.8 47.8311C184.232 47.8607 184.663 47.9199 185.095 47.91C186.899 47.91 187.899 46.3322 189.399 45.711C191.458 45.2869 192.91 46.4703 194.371 47.6339L194.341 47.6141Z" fill="#F16D11"/>
<path d="M116.346 47.574C115.826 47.8699 115.287 48.146 115.356 48.8954C115.424 49.6843 115.532 50.4732 115.562 51.2719C115.62 52.8103 115.385 53.0667 113.953 53.0568C113.267 53.0568 112.571 52.9779 111.884 52.9779C111.168 52.9779 110.815 53.3921 110.796 54.0823C110.766 55.0783 110.796 56.0644 110.747 57.0604C110.708 57.7605 110.237 58.1254 109.56 58.1057C107.982 58.0465 106.403 57.8887 104.834 57.8789C101.676 57.869 98.519 57.938 95.3517 57.9676C94.7634 57.9676 94.1652 57.9972 93.5768 57.938C93.0473 57.8789 92.6453 57.5732 92.6355 56.9914C92.6061 56.1039 92.6453 55.2065 92.6159 54.319C92.5963 53.5794 92.2335 53.2244 91.5176 53.2343C90.3311 53.2639 89.1544 53.3723 87.9679 53.3822C86.8795 53.3822 86.5951 53.0667 86.5853 51.9425C86.5853 51.3508 86.6245 50.7493 86.6637 50.1576C86.7912 48.3333 86.7912 48.3432 84.8693 48.0178C84.3888 47.9389 83.9279 47.7811 83.4572 47.6529C85.9577 46.085 88.9975 46.4597 91.6157 45.3355C91.9099 45.3355 92.1844 45.4046 92.459 45.5131C93.0375 45.8779 93.3513 46.5386 93.9691 46.864C94.8222 47.3768 95.7832 47.4458 96.7343 47.5839C100.588 47.9093 104.432 47.9586 108.266 47.505C109.805 47.3176 111.149 46.7654 112.09 45.4539C112.443 45.0101 112.669 44.4776 113.022 44.024C113.238 43.7873 113.502 43.6394 113.806 43.5507C116.532 43.7085 116.934 45.3454 116.366 47.6036L116.346 47.574Z" fill="#F87510"/>
<path d="M37.007 35.2283C37.1933 36.0073 37.1835 36.7962 37.0266 37.5851C36.6637 38.7487 36.7814 39.9616 36.8795 41.1252C37.056 43.275 36.6736 44.8626 34.1437 45.0598C33.2513 45.1288 32.8493 45.8783 32.4571 46.5784C31.7412 47.8407 30.7999 48.7972 29.2898 49.0043C27.8875 48.669 28.0444 47.4265 27.7895 46.4108C27.7503 46.115 27.7601 45.8093 27.7993 45.5135C28.0444 44.5076 27.9954 43.4821 27.8973 42.4565C27.8679 41.6972 27.8189 40.928 27.917 40.1687C27.9072 36.4215 27.8287 36.1355 24.2398 36.0764C20.7097 36.0271 17.4443 34.0055 13.7868 34.9226C12.7473 35.179 11.8256 34.3901 11.8452 33.1969C11.9237 29.7159 9.04074 28.5819 6.91288 26.9351C6.01074 26.235 4.96152 25.9391 5.47142 24.5191C5.41259 23.6316 5.39298 22.754 5.65774 21.8961C6.65793 19.8548 8.4622 20.3282 10.0704 20.6141C11.7962 20.9297 11.9825 22.4089 11.9727 23.8782C11.9727 24.2825 12.0609 24.667 12.2178 25.0319C12.3649 25.2489 12.512 25.4855 12.6493 25.7123C12.9631 26.2547 13.2474 26.8266 13.875 27.0929C14.1202 27.1915 14.3457 27.3 14.5908 27.3986C15.1204 27.5958 15.6695 27.6155 16.2186 27.7141C20.4547 28.079 24.5438 29.3215 28.7406 29.9132C29.633 30.0414 30.7018 30.2583 30.9568 31.1557C31.6236 33.4632 33.1631 34.183 35.3596 34.1732C36.046 34.1732 36.703 34.4986 37.0168 35.2283H37.007Z" fill="#FBDC19"/>
<path d="M139.39 42.8213C138.076 43.0875 136.889 42.9495 135.928 41.845C135.487 41.3421 134.967 40.8096 134.153 41.0463C133.575 42.486 133.996 43.9947 133.879 45.464C133.82 46.1445 134.006 46.8742 133.634 47.5053C132.957 48.6689 128.329 49.1817 125.985 48.4323C123.808 47.7321 124.279 46.1248 124.583 44.547C124.661 41.4013 124.73 38.2556 124.808 35.1C125.034 34.8239 125.299 34.607 125.603 34.4295C130.015 33.8378 134.438 34.2224 138.86 34.2027C140.331 34.2027 141.272 35.0409 141.704 36.382C142.165 37.8217 142.949 39.0543 143.783 40.2673C146.715 41.1054 147.509 44.6456 150.441 45.5528C151.186 45.7796 150.833 46.5291 150.402 46.9827C149.774 47.6335 148.96 47.9786 148.087 48.1759C145.705 48.6689 143.4 47.5349 141.017 47.8505C139.89 47.9984 139.909 47.0615 139.821 46.2332C139.694 45.0992 140.311 43.8665 139.39 42.841V42.8213Z" fill="#FED20C"/>
<path d="M30.0843 53.008C30.0548 54.2012 30.0548 55.3944 29.9862 56.5876C29.947 57.268 29.5057 57.6822 28.8291 57.7117C27.9466 57.761 27.0543 57.7117 26.1619 57.7413C25.2598 57.761 24.9068 58.0963 24.9068 59.0134C24.9068 60.8969 24.9656 62.7902 24.995 64.6737C25.0048 65.8373 24.7891 66.0641 23.6418 66.0838C22.0631 66.1035 20.4746 66.1232 18.8958 66.1035C18.0035 66.0937 17.6014 65.7189 17.6799 64.8117C17.8466 62.9282 17.5524 61.0349 17.9643 59.1613C18.1604 58.2738 17.7976 57.8892 16.8464 57.8695C15.4638 57.8301 14.0812 57.8892 12.6985 57.8498C11.7866 57.8301 11.4924 57.4948 11.4336 56.5678C11.4042 56.0748 11.4336 55.5719 11.4336 55.0788C11.3747 53.2742 11.2277 53.1855 9.30572 53.1362C8.06038 53.1066 6.50126 53.8067 5.63834 52.8206C4.8931 51.9725 5.7364 50.5525 5.72659 49.3692C5.72659 48.9748 5.78542 48.5803 5.81484 48.176C6.38358 47.3477 7.33475 47.2491 8.17805 46.9533C8.99193 46.7955 9.78621 46.8448 10.5413 47.2294C10.8354 47.4069 11.0806 47.6337 11.2963 47.9098C11.4924 48.1958 11.6395 48.5014 11.7572 48.8269C11.9631 51.1738 13.2771 51.9824 15.552 51.9233C19.1115 51.8345 22.6809 51.8542 26.2502 51.9233C27.6034 51.9529 29.0645 51.7458 30.1039 52.9883L30.0843 53.008Z" fill="#F26A09"/>
<path d="M24.681 3.92905C25.0438 5.69419 24.8084 7.47905 24.779 9.25405C24.7594 9.97391 25.132 10.3585 25.8478 10.3684C27.7207 10.4078 29.5937 10.4374 31.4666 10.4768C32.251 10.4966 33.0453 10.4965 33.8298 10.536C34.3985 10.5656 34.7613 10.9107 34.7515 11.4728C34.7221 12.952 34.6437 14.4311 34.575 15.9103C33.4179 17.0443 32.0353 16.7189 30.6821 16.4822C28.0738 16.0188 25.4752 15.5257 22.9159 14.796C19.2681 13.7606 16.2283 15.5849 13.1983 17.2218C11.6686 20.0092 9.16486 21.163 5.68706 20.6831C5.59881 19.8942 5.51056 19.1053 5.42231 18.3263C5.08891 15.5652 4.98104 15.575 7.63842 15.7328C8.12871 15.7624 8.62881 15.7525 9.10929 15.6736C9.65842 15.5849 9.99182 15.1806 9.9526 14.6382C9.86434 13.3661 9.70745 12.0941 9.58978 10.8516C10.1683 10.3782 10.7763 10.6149 11.345 10.5952C13.2179 10.5261 15.0908 10.467 16.9638 10.4275C17.7286 10.4177 17.9345 9.89503 18.1208 9.31322C18.5719 8.70184 18.3758 7.99182 18.415 7.31141C18.6308 3.11057 20.9253 1.87794 24.7006 3.92905H24.681Z" fill="#FDFDFA"/>
<path d="M49.2152 58.2536C48.6661 57.0505 48.921 55.7587 48.8328 54.5162C48.7543 53.4611 48.4602 53.1258 47.3913 53.116C46.1362 53.0962 44.8712 53.1455 43.6259 53.2343C43.0277 53.2737 42.4786 53.2343 41.9393 52.9681C42.0766 51.0057 42.057 49.0335 41.9785 47.0612C41.8216 42.9294 41.6843 38.7976 42.0864 34.6757C42.2433 34.8137 42.4002 34.9518 42.5571 35.0899C44.1456 37.1114 43.4396 39.4978 43.5082 41.7264C43.6259 45.6905 43.5474 45.7004 47.254 47.0514C47.9208 47.2979 48.4896 47.6628 48.9701 48.1854C49.0191 48.3531 49.0681 48.5108 49.1073 48.6785C56.0107 52.3369 63.5023 51.1635 70.8272 51.3311C72.1805 51.3607 73.6219 51.1832 74.6417 52.4454C74.2789 53.0962 73.6415 52.8892 73.0826 52.9385C72.0236 53.0272 70.9351 52.6623 69.9153 53.1653C69.8075 53.3329 69.6506 53.5006 69.6309 53.6781C69.2191 58.0564 69.2191 57.9972 64.9143 58.0761C60.1977 58.155 55.4811 57.7606 50.7743 58.3029C50.2546 58.2931 49.7251 58.2832 49.2054 58.2733L49.2152 58.2536Z" fill="#F76B12"/>
<path d="M134.732 28.5025C135.036 27.9897 135.281 27.4375 135.644 26.974C136.37 26.0372 137.311 25.6822 138.527 25.8893C139.4 26.0372 139.625 25.7611 139.655 25.0313C139.704 23.5226 139.38 22.073 139.007 20.7319C139.341 20.0219 139.87 20.1994 140.331 20.1797C141.223 20.1402 142.106 20.0909 142.998 20.0515C144.871 18.9964 143.214 16.4325 144.999 15.3477C146.058 14.7955 147.646 15.8408 148.274 14.7166C148.735 13.8883 148.352 12.5866 148.372 11.5019C148.382 10.9201 148.715 10.6045 149.313 10.6144C151.686 10.6637 154.069 10.6933 156.442 10.7623C157.56 10.7919 157.854 11.0779 157.913 12.1823C157.972 13.3755 158.001 14.5786 157.933 15.7619C157.893 16.4325 157.305 16.3733 156.805 16.2944C153.118 16.0972 152.294 16.5705 150.745 19.7951C150.529 20.2487 150.333 20.8601 149.902 20.9883C146.401 22.073 144.705 25.4061 141.92 27.3783C140.586 27.8615 139.929 28.7687 139.792 30.2282C139.37 34.7248 139.321 34.715 134.624 34.6854C133.045 34.3698 132.859 33.1668 132.849 31.8651C132.869 31.5791 132.928 31.2932 133.006 31.017C133.124 30.6325 133.3 30.2577 133.487 29.8929C133.595 29.6661 133.732 29.4491 133.889 29.2421C134.144 28.9758 134.457 28.749 134.722 28.4827L134.732 28.5025Z" fill="#F9FAF6"/>
<path d="M30.0843 53.008C24.8577 52.9981 19.6312 52.9978 14.3949 52.9682C11.1982 52.9584 10.9923 52.7513 10.953 49.6549C10.953 49.1618 10.953 48.6589 10.953 48.1658C11.6983 47.3178 12.6887 47.3375 13.6889 47.3967C17.9152 47.6235 22.1317 48.2152 26.3874 47.9095C27.3091 47.8405 28.1426 48.1264 28.8487 48.7575C29.3193 48.4124 29.7606 47.9785 30.2803 47.732C31.2707 47.2587 31.712 46.5486 31.8492 45.4442C32.0159 44.1721 32.2415 43.9552 33.2711 44.0045C36.909 44.1721 36.4874 43.4621 36.5756 40.4249C36.6051 39.4684 36.2521 38.4329 37.0169 37.5849C37.3601 38.5414 37.2032 39.5374 37.2523 40.5136C37.3503 42.3873 37.3895 44.2609 37.517 46.1246C37.6543 48.1955 37.6739 48.1954 35.4676 48.1856C35.1734 48.1856 34.8792 48.1461 34.5851 48.156C33.4084 48.1757 33.1632 48.3927 33.3789 49.5366C34.134 53.5106 33.2515 52.8203 30.6627 52.9781C30.4666 52.9879 30.2705 52.9978 30.0744 53.0077L30.0843 53.008Z" fill="#F98F0C"/>
<path d="M92.5082 45.8094C92.1257 45.8982 91.7139 45.908 91.3805 46.0855C89.1546 47.2393 86.8208 47.7619 84.3203 47.5252C84.0359 47.4957 83.7417 47.5943 83.4476 47.6337C82.8004 47.7915 82.2415 47.7126 82.1042 46.9434C82.0355 46.5589 82.1042 46.1546 82.1434 45.7601C82.5062 41.1155 82.7219 36.4611 82.5847 31.7968C82.5651 31.215 82.6925 30.6233 82.7514 30.0513C83.1926 31.2051 82.8494 32.4082 82.9573 33.5816C83.0455 34.6171 83.3691 34.9819 84.438 35.0214C85.6147 35.0707 86.8012 35.0411 87.9877 35.0411C89.2722 35.0411 90.547 35.051 91.8316 35.0608C93.6162 36.964 92.8317 39.2419 92.7533 41.4114C92.214 42.8511 93.0671 44.3697 92.518 45.8094H92.5082Z" fill="#FCC30D"/>
<path d="M168.836 46.3215C167.973 46.7948 167.061 47.0216 166.081 46.9822C165.11 46.9428 164.169 47.0907 163.325 47.6133C162.374 47.0118 161.394 47.209 160.403 47.5048C159.795 47.6429 159.178 47.6725 158.57 47.5048C158.217 47.2287 157.913 46.9132 157.952 46.4102L158.168 45.0199C158.374 44.5071 158.197 43.9252 158.462 43.4223C158.53 40.8289 158.589 38.2354 158.658 35.6518C159.442 35.1587 160.295 35.0207 161.207 35.0305C163.669 35.07 166.13 35.0798 168.601 35.0995C169.425 35.6518 169.425 36.49 169.376 37.338C168.934 38.8961 168.925 40.4837 169.023 42.0911C169.081 43.5111 169.366 44.941 168.846 46.3314L168.836 46.3215Z" fill="#FCBD0B"/>
<path d="M74.6418 52.4361C69.6408 52.4163 64.63 52.3966 59.6291 52.3868C58.4524 52.3868 57.2659 52.3276 56.099 52.3868C54.8536 52.4558 53.7554 52.1304 52.8532 51.2922C51.7256 50.2469 50.4116 49.4777 49.1172 48.679C49.4604 48.6593 49.8036 48.6395 50.1468 48.6198C51.1863 47.6239 52.51 47.7718 53.7652 47.7422C56.2166 47.6929 58.6779 47.6238 61.1196 47.752C63.4632 47.8802 65.5224 47.1604 67.5522 46.1545C68.3759 45.9475 69.2976 46.0263 69.9742 45.3459C70.2684 45.06 70.5626 44.774 70.8371 44.4683C72.8571 41.7466 73.4062 41.6579 75.1223 44.5176C76.3284 46.5293 77.8875 45.839 79.4761 45.7009C79.5643 45.8784 79.7114 46.0461 79.731 46.2236C79.8193 47.3675 79.6624 47.6239 78.7995 47.6633C77.7208 47.7126 76.6422 47.6929 75.5635 47.7323C74.9752 47.7521 74.681 48.1465 74.7006 48.6987C74.7398 49.4876 74.8379 50.2666 74.9262 51.0555C74.9752 51.5486 75.0438 52.0416 74.6516 52.4459L74.6418 52.4361Z" fill="#FB9211"/>
<path d="M12.1982 15.8908C13.9731 15.5949 15.6597 15.023 17.258 14.2045C19.4349 13.0902 21.6412 13.1691 23.8377 14.0369C24.6712 14.3623 25.4851 14.6778 26.3774 14.806C28.0444 15.0328 29.7114 15.2301 31.3196 15.7823C32.3688 16.1471 33.467 16.0682 34.5555 15.9105C34.5751 16.1373 34.5947 16.3739 34.6143 16.6008C33.722 18.1785 32.1531 18.0109 30.7116 18.07C26.6978 18.2213 24.5143 20.2428 24.1613 24.1346C24.0731 24.7362 23.9946 25.3377 23.9064 25.9392C22.0923 27.6353 20.2488 26.8957 18.4053 26.0181C17.3855 25.1996 17.7483 24.0557 17.7679 23.0203C17.8137 20.371 16.6958 19.5558 14.4143 20.5748C11.502 20.3085 11.3843 20.0521 12.1884 15.9105L12.1982 15.8908Z" fill="#FCE628"/>
<path d="M5.47142 24.5191C5.65773 25.3179 5.83411 26.1066 6.91275 26.0573C7.30498 26.0375 7.70702 26.0573 8.09925 26.0868C10.031 26.2446 10.1781 26.3925 10.0506 28.4634C10.0114 29.055 10.1291 29.4396 10.6782 29.6073C11.8255 29.9524 12.1785 30.7807 12.1491 31.895C12.1491 32.1908 12.1491 32.4966 12.1981 32.7825C12.3648 33.7489 12.7962 34.2124 13.7376 34.3011C14.424 34.3702 15.1202 34.3406 15.8066 34.3504C17.7776 34.3702 19.7388 34.3504 21.6901 34.8435C22.6217 35.0802 23.6513 34.9717 24.6417 34.9717C25.5438 34.9717 26.3969 35.0604 27.2402 35.445C28.2502 35.9085 28.8288 36.6086 28.819 37.7328C28.819 38.6203 28.7601 39.5078 28.7307 40.3953C27.3873 40.5827 27.3481 38.0188 25.9361 38.8668C24.5436 39.6952 25.0928 41.3716 24.9947 42.7225C24.9064 43.8763 25.4556 45.1188 24.4946 46.1542C22.2785 46.9924 20.082 47.6136 18.111 45.602C18.1502 42.4267 18.1993 39.2416 18.2189 36.0663C18.2189 35.3661 17.8168 34.9914 17.0716 35.0506C15.9929 35.1393 14.9143 35.3267 13.8357 35.4352C12.0314 35.6258 11.1816 34.8468 11.2861 33.0981C11.3156 32.605 11.3646 32.1021 11.3646 31.6091C11.3646 30.8695 11.041 30.5145 10.2958 30.4652C9.0112 30.3961 7.72664 30.3863 6.44208 30.3173C6.04984 30.2975 5.55955 30.1003 5.61838 29.6467C5.80469 28.1675 5.638 26.7377 5.20654 25.3177C5.1379 25.1007 5.39285 24.7852 5.50071 24.5189L5.47142 24.5191Z" fill="#F09A08"/>
<path d="M124.583 44.5367C124.946 47.5739 124.946 47.5838 127.858 47.6035C129.339 47.6035 130.819 47.6035 132.29 47.5542C133.173 47.5148 133.496 47.1598 133.555 46.2328C133.624 45.0495 133.604 43.8563 133.624 42.6631C133.624 42.0616 133.624 41.4699 134.163 41.0459C134.183 43.4323 134.212 45.8187 134.242 48.2051C134.536 51.3803 134.859 54.5655 134.075 57.721L134.163 57.6323C131.182 58.5296 128.123 57.8394 125.103 58.0366C124.053 58.1056 123.74 57.4647 123.779 56.5377C123.877 54.1612 123.553 51.7748 123.965 49.4081C124.446 47.8205 123.887 46.0948 124.593 44.5367H124.583Z" fill="#F3760E"/>
<path d="M18.4447 25.1304C20.1803 26.0376 22.0238 26.1658 23.9164 25.9291C24.3184 26.6687 25.0342 26.6095 25.7206 26.6588C27.8779 26.8067 30.045 26.9546 32.2023 27.1223C33.2907 27.2012 34.0458 27.5956 34.085 28.8973C34.1242 30.0905 34.9969 30.8399 35.8402 31.5302C37.0366 32.5262 37.4188 33.7393 37.0168 35.2283C35.3694 34.824 33.6928 34.9915 32.0258 34.8928C30.9471 34.8337 30.6235 34.4885 30.5745 33.4531C30.5353 32.684 30.9962 31.8359 30.3882 31.1752C29.7018 30.4356 28.7212 30.7216 27.8681 30.692C26.4757 30.6526 25.1421 30.3469 23.7987 30.0708C20.9158 29.489 18.0231 28.9565 15.1303 28.3944C14.7871 28.0492 14.2674 28.1479 13.9046 27.8717C13.2476 27.3294 12.6201 26.7673 12.1396 26.0474C11.3551 24.2922 12.6201 23.8484 13.8164 23.3652C14.0811 23.3258 14.3459 23.3356 14.6106 23.4047C15.0813 23.6019 15.5422 23.8484 16.0325 23.9963C16.8954 24.2626 17.7877 24.4499 18.4741 25.1106L18.4447 25.1304Z" fill="#FAF9EF"/>
<path d="M79.4661 45.6911C79.2798 46.2729 79.0739 46.8547 78.3483 46.9139C77.7599 46.9632 77.1618 46.9829 76.5734 46.9632C75.1418 46.9238 75.132 46.9139 74.5926 45.346C74.3377 44.5867 74.0926 43.8175 73.4846 43.2653C73.161 42.9695 72.6805 42.9399 72.4746 43.3442C72.1118 44.0542 71.9058 44.8431 71.1214 45.2276C70.9939 45.129 70.8664 45.0304 70.739 44.9417C69.4446 42.4172 70.5036 39.7547 70.1898 37.2697C70.131 38.4235 70.3075 39.7153 70.1016 40.9676C69.9741 41.7664 69.4838 41.8946 68.8857 41.2931C68.0718 39.1236 67.6109 36.9936 69.474 35.0806C72.6021 35.0608 75.7203 35.0411 78.8484 35.0214C78.9268 35.7018 79.0543 36.3822 79.0837 37.0725C79.221 39.9421 79.3387 42.8117 79.4661 45.6812V45.6911Z" fill="#FCC60F"/>
<path d="M194.341 47.6141C193.086 47.6536 191.919 47.4556 191.027 46.4202C190.566 45.8877 189.978 46.2131 189.439 46.292C189.272 46.1243 189.164 45.9271 189.135 45.6905C189.135 45.4538 189.174 45.227 189.242 45.01C189.37 44.6846 189.566 44.3987 189.821 44.1521C189.919 44.093 190.027 44.0437 190.125 43.9943C191.096 43.2646 191.292 42.2095 191.341 41.0952C191.4 39.6062 191.331 38.1467 190.87 36.6873C190.576 35.7406 191.076 35.1489 192.076 35.1193C194.145 35.07 196.214 35.0996 198.293 35.0898C199.342 38.975 198.558 42.9293 198.705 46.8541C198.744 47.781 198.048 47.9684 197.244 47.6725C196.273 47.6528 195.312 47.6339 194.341 47.6141Z" fill="#FBA70A"/>
<path d="M141.91 26.5898C142.684 25.8404 143.547 25.2093 144.018 24.1443C144.322 23.4441 144.93 22.8722 145.43 22.2608C146.009 21.5508 146.715 21.1662 147.695 21.0676C149.558 20.8803 149.921 20.4365 150.245 18.7996C150.411 17.9416 150.009 16.8964 150.764 16.2554C151.578 15.5553 152.657 15.8708 153.618 15.9201C154.687 15.9793 155.805 15.7722 156.815 16.3047C156.422 16.3737 156.04 16.4723 155.648 16.5118C155.089 16.5611 154.716 16.778 154.657 17.3796C154.608 17.8726 154.589 18.3755 154.52 18.8686C154.383 19.8448 154.638 21.0183 153.981 21.748C153.196 22.6257 152.167 21.4127 151.216 21.6691C151.127 21.6987 151.039 21.7382 150.921 21.7776C150.46 22.8328 150.833 23.9175 150.912 24.9923C150.98 25.939 150.715 26.1855 149.705 26.156C149.215 26.1362 148.715 26.0672 148.225 26.0475C146.675 25.9686 146.587 26.0672 146.666 27.7239C146.715 28.7198 146.783 29.7158 146.783 30.7019C146.783 31.1457 146.42 31.3528 145.979 31.3922C145.018 31.481 144.057 30.7019 143.106 31.4119C142.547 31.9641 142.233 32.7432 141.478 33.0982C140.331 33.6307 139.507 33.325 139.301 32.0529C138.909 29.6468 139.243 27.5266 141.92 26.58L141.91 26.5898Z" fill="#F7DB26"/>
<path d="M18.1016 45.6019C20.2392 46.2922 22.3867 46.1837 24.5342 45.6512C25.7893 44.6552 27.015 44.6848 28.2114 45.7597C28.937 46.6472 28.9957 47.6827 28.8487 48.7575C23.6516 49.3196 18.4644 49.211 13.2967 48.3728C12.522 48.2447 11.7375 48.2349 10.953 48.1658C10.8059 47.9785 10.6197 47.8601 10.3942 47.8108C9.61951 47.2487 8.78601 47.4558 7.95252 47.6333C7.11902 48.0178 6.27572 47.9784 5.43242 47.6628C4.77543 45.8484 5.30495 43.9846 4.90291 42.1899C6.77583 41.9532 8.32514 41.7363 9.87446 41.5785C10.453 41.5194 11.0512 41.549 11.6395 41.5983C12.4044 41.6574 12.6887 42.0322 12.5024 42.7717C12.2867 43.6297 11.9729 44.4679 12.1298 45.5427C13.0614 46.016 14.14 45.7794 15.1598 45.7892C16.1404 45.7892 17.121 45.6709 18.0917 45.6019H18.1016Z" fill="#F9F5DF"/>
<path d="M139.39 42.8213C140.223 43.3143 140.164 44.1424 140.125 44.9214C139.997 47.6036 140.556 47.574 142.802 47.5149C144.165 47.4853 145.538 47.7219 146.901 47.2683C147.411 47.1007 148.048 47.3571 148.627 47.4162C149.529 47.1697 150.401 47.2683 151.264 47.5839C152.627 48.0177 153.882 48.639 154.079 50.2562C154.324 52.189 156.422 51.8439 157.256 53.0173C157.285 54.2007 157.324 55.384 157.324 56.5674C157.324 57.2379 156.971 57.7309 156.275 57.7507C154.206 57.8197 152.137 57.8493 150.068 57.8493C149.333 57.8493 149.156 57.4844 149.048 56.7054C148.901 55.6601 149.931 54.4472 148.93 53.6386C148.175 53.0272 147.028 53.471 146.048 53.4611C145.047 53.4512 144.891 53.2836 144.93 52.2383C144.959 51.3508 145.057 50.4633 145.057 49.566C145.057 48.3136 144.783 48.0769 143.439 48.0572C142.459 48.0473 141.468 48.1065 140.488 48.0769C139.742 48.0572 139.399 47.7022 139.458 46.9528C139.566 45.5624 139.625 44.1818 139.38 42.8111L139.39 42.8213Z" fill="#F47E15"/>
<path d="M116.346 47.574C116.13 46.9331 115.836 46.3123 115.728 45.6516C115.502 44.2809 114.649 43.9358 113.433 44.0442C112.58 43.6399 112.404 42.7919 112.139 42.003C112.139 41.8649 112.139 41.7269 112.129 41.5888C112.149 39.9026 112.129 38.2163 112.198 36.5301C112.237 35.4552 112.58 35.0805 113.649 35.0706C115.914 35.0509 118.19 35.11 120.455 35.1297C120.778 38.9559 120.611 42.7919 120.543 46.618C120.523 47.5449 120.19 47.8309 119.268 47.8013C118.297 47.7717 117.317 47.6529 116.346 47.574Z" fill="#FCBE11"/>
<path d="M92.047 12.8833C91.9882 12.696 91.9 12.4987 91.8901 12.3114C91.8019 10.7829 91.8901 10.6448 93.1747 10.6448C96.6362 10.6251 100.107 10.6448 103.569 10.6054C105.648 10.5857 107.727 10.5068 109.805 10.4673C110.825 10.4476 111.002 10.6153 111.012 11.6704C111.012 13.0608 110.982 14.4611 110.972 15.8515C108.403 15.0429 105.785 15.6839 103.196 15.5853C100.46 15.4867 97.705 15.3683 94.979 15.6247C92.7335 15.8318 91.998 14.9246 92.0372 12.8932L92.047 12.8833Z" fill="#FAFBFA"/>
<path d="M124.73 26.0966C124.71 21.3435 124.691 16.6003 124.671 11.8472C124.671 11.157 124.955 10.7428 125.71 10.7329C127.975 10.7329 130.241 10.6738 132.506 10.7034C133.967 10.7231 134.124 10.9006 134.163 12.4882C134.192 13.8688 134.124 15.2493 134.094 16.6397C133.781 16.8764 133.437 17.0736 133.035 17.1131C129.231 17.4977 129.24 17.4977 129.201 21.2942C129.182 22.7635 129.348 24.2525 128.77 25.6824C128.613 25.9881 128.397 26.2346 128.113 26.4318C126.926 26.9841 125.789 27.0136 124.74 26.0966H124.73Z" fill="#F7F7E9"/>
<path d="M168.66 12.2911C168.542 12.0249 168.376 11.7685 168.337 11.4924C168.278 11.0881 168.395 10.7133 168.886 10.6246C169.072 10.595 169.278 10.5851 169.474 10.6049C175.357 11.1965 181.221 10.8218 187.095 10.4274C188.919 11.8572 187.929 13.6815 187.772 15.3776C182.153 15.7819 176.515 15.3481 170.896 15.5946C168.042 15.7228 169.572 13.2674 168.68 12.2911H168.66Z" fill="#F8FAF9"/>
<path d="M92.047 12.8833C93.0178 15.2401 93.0178 15.2497 95.5869 15.2497C98.813 15.2497 102.049 15.2497 105.275 15.2497C106.158 15.2497 107.05 15.3483 107.883 14.9736C109.168 14.3917 110.149 14.8158 110.972 15.8413C111.227 16.147 110.894 15.7723 111.178 16.0484C112.188 17.0838 112.698 18.9574 114.159 19.1152C116.228 19.3322 114.944 16.5908 116.326 15.9301C116.483 16.0287 116.748 16.1174 116.767 16.2358C116.826 16.7288 116.777 17.2317 116.836 17.7149C116.964 18.7701 116.326 20.0816 117.258 20.8212C117.993 21.4129 119.15 20.9297 120.131 20.9494C120.925 20.9592 121.2 21.1959 121.17 21.9947C121.111 23.4738 121.121 24.9727 120.729 26.4223C119.346 26.6294 117.964 26.5998 116.591 26.442C115.807 26.3533 115.355 25.7912 115.355 25.0319C115.355 24.8347 115.395 24.6374 115.404 24.4402C115.434 23.4837 116.15 22.4483 115.395 21.6002C114.757 20.8804 113.708 21.2551 112.855 21.117C112.463 21.0579 112.07 21.0283 111.688 20.9494C110.933 20.7817 110.482 20.3183 110.453 19.5097C110.453 19.4111 110.433 19.3124 110.453 19.2138C110.639 15.9005 110.129 16.0583 107.05 15.9794C102.902 15.8709 98.7542 15.8512 94.5965 15.8216C92.8119 15.8216 92.5863 15.9893 92.6648 17.6262C92.802 20.7324 92.7628 21.2058 89.2621 21.1565C89.1641 21.1565 89.066 21.1565 88.968 21.1762C87.958 21.2847 87.7324 21.4918 87.7128 22.4286C87.703 22.9216 87.752 23.4245 87.752 23.9176C87.7422 26.3138 87.5461 26.511 85.281 26.511C84.7907 26.511 84.2906 26.4519 83.8003 26.4913C83.2708 26.5308 82.8982 26.8562 82.653 27.3197C82.6236 26.8858 82.5942 26.4618 82.5648 26.0279C83.565 23.9669 85.9183 22.9216 86.5557 20.5944C86.6146 20.2295 86.6636 19.8647 86.7224 19.4899C90.0662 20.4761 91.0468 18.1883 91.8901 15.723C91.9587 14.7862 92.0176 13.8395 92.0862 12.9027L92.047 12.8833Z" fill="#FBFBF8"/>
<path d="M168.66 12.2911C169.337 12.7447 169.258 13.4751 169.366 14.1456C169.474 14.8359 169.905 15.1712 170.562 15.2205C171.151 15.2599 171.739 15.2599 172.327 15.2599C177.436 15.2599 182.535 15.2599 187.644 15.2501C187.85 15.3782 187.928 15.5163 187.879 15.6741C187.83 15.8319 187.771 15.9107 187.713 15.9107C182.486 15.9107 177.25 15.9108 172.023 15.9305C169.562 15.9403 168.787 15.6839 168.836 19.1156C168.856 20.7032 168.503 20.9005 166.875 21.0681C165.934 21.1667 164.767 20.6737 164.12 21.6499C163.62 22.3994 164.002 23.3953 163.963 24.273C163.963 24.4702 163.963 24.6674 163.963 24.8647C163.894 25.8902 163.541 26.3339 162.57 26.4523C161.296 26.6101 160.011 26.689 158.756 26.2748C158.589 24.5984 158.383 22.9319 158.266 21.2555C158.227 20.6934 158.619 20.3187 159.207 20.368C160.286 20.4666 161.355 20.6737 162.433 20.7624C162.865 20.8019 163.149 20.5258 163.071 20.013C162.884 18.7409 162.708 17.4787 162.541 16.246C163.728 15.5558 164.826 15.9699 165.885 15.891C166.473 15.8516 167.071 15.891 167.66 15.8516C168.366 15.8023 168.689 15.3585 168.68 14.6683C168.68 13.8794 168.68 13.0806 168.67 12.2917L168.66 12.2911Z" fill="#F8F9F2"/>
<path d="M128.201 25.9985C128.201 23.2078 128.162 20.427 128.201 17.6363C128.221 16.2557 128.692 15.7824 130.006 15.9106C131.378 16.0486 132.722 16.3839 134.085 16.6305C134.32 19.9832 134.261 23.3261 133.987 26.6691C131.937 27.4284 129.996 27.3495 128.191 25.9886L128.201 25.9985Z" fill="#FAF57C"/>
<path d="M150.901 48.3235C150.146 48.0277 149.382 47.722 148.627 47.4262C149.156 47.0021 149.695 46.588 150.284 46.1147C149.391 45.237 148.46 46.5485 147.617 46.0358C146.911 45.0299 147.195 43.6198 146.45 42.7126C145.675 41.7659 144.155 42.2886 143.184 41.5391C142.92 39.8824 141.635 38.1074 143.714 36.7071C147.999 35.1885 147.666 35.3463 147.097 39.2907C147.028 39.7739 146.96 40.267 146.95 40.7601C146.94 41.2531 147.293 41.4898 147.705 41.3912C148.852 41.1151 149.999 40.9277 151.264 41.0658C151.666 42.2294 151.362 43.4226 151.451 44.5862C151.5 45.2666 151.774 45.6808 152.49 45.7695C153.951 45.9569 155.412 46.164 156.873 46.3612C157.216 48.6983 155.618 48.9546 154.03 48.7574C153 48.6292 151.931 48.5602 150.911 48.3137L150.901 48.3235Z" fill="#F4F0C1"/>
<path d="M128.201 25.9985C130.143 26.1464 132.143 25.7518 133.996 26.6787C134.036 27.3493 134.085 28.0297 134.124 28.7003C134.575 28.9468 134.477 29.2426 134.192 29.5483L134.134 29.6469C133.81 29.9723 133.918 30.495 133.604 30.8303C132.741 32.7236 131.712 34.1436 129.231 34.114C125.112 34.0746 124.563 33.5519 124.946 29.4596C125.142 27.3099 126.23 26.304 128.211 25.9885L128.191 25.9886L128.201 25.9985Z" fill="#FDF14F"/>
<path d="M187.713 15.9107C187.693 15.6938 187.664 15.467 187.644 15.2501C187.673 14.1653 187.703 13.0805 187.733 12.0056C187.742 11.3942 187.585 10.842 187.085 10.4278C187.978 10.1813 188.36 10.2898 188.36 10.8223C188.36 12.0056 188.291 13.1988 188.291 14.3821C188.291 15.3189 188.556 15.595 189.547 15.5655C190.723 15.526 191.9 15.3781 193.077 15.3091C193.812 15.2598 194.185 15.5852 194.224 16.3149C194.273 17.3996 194.263 18.4942 194.283 19.5789C194.302 20.3086 194.714 20.6341 195.41 20.6439C196.195 20.6538 196.989 20.6636 197.774 20.6735C198.509 20.6834 198.843 21.0975 198.813 21.7977C198.764 22.8725 198.99 23.977 198.568 25.0321C197.627 22.8429 195.528 22.202 193.626 21.2948C192.851 20.7327 191.959 20.782 191.067 20.782C190.38 20.782 189.684 20.782 189.007 20.6735C188.37 20.5749 187.919 20.1213 187.86 19.4803C187.762 18.297 187.752 17.1039 187.713 15.9107Z" fill="#ECEFEF"/>
<path d="M143.704 36.7076C142.822 38.2459 143.047 39.8928 143.175 41.5396C142.812 41.3325 142.567 41.0367 142.518 40.6126C142.439 39.804 142.174 39.1039 141.576 38.5023C141.243 38.1671 140.978 37.7134 140.821 37.2697C140.586 36.6386 140.86 35.8398 140.253 35.3468C139.576 34.7945 138.742 35.0805 137.978 35.0707C133.751 35.0115 129.525 34.972 125.299 34.9227C125.357 34.6565 125.259 34.2325 125.622 34.1832C128.486 33.7887 131.368 33.197 134.202 34.4001C135.183 34.4001 136.173 34.4494 137.154 34.4198C138.644 34.3705 138.889 34.1141 138.899 32.6843C138.899 31.5009 138.88 30.3077 138.87 29.1244C138.87 28.1383 139.164 27.3889 140.233 27.1226C140.802 26.9845 141.361 26.7775 141.919 26.6C141.753 27.093 141.429 27.4579 140.988 27.7143C140.38 28.0594 139.713 28.4045 139.645 29.1836C139.546 30.2584 139.341 31.3629 139.85 32.3983C140.056 32.8125 140.439 32.9308 140.831 32.6843C141.566 32.2208 142.086 31.3728 143.106 31.4319C143.42 33.0294 143.312 34.6368 143.273 36.2441C143.341 36.3427 143.41 36.4512 143.479 36.5498L143.655 36.5301L143.714 36.7071L143.704 36.7076Z" fill="#FDF14F"/>
<path d="M24.1711 24.1245C23.8377 22.3593 24.0142 20.5843 24.0828 18.8093C24.1417 17.3597 24.4555 17.0343 25.8283 16.9949C27.6914 16.9357 29.5643 16.9456 31.4274 16.9456C32.506 16.9456 33.5945 17.0047 34.6241 16.5905C34.7025 16.768 34.8202 16.9456 34.8496 17.1231C35.2419 19.4306 35.2321 19.4108 32.9669 19.5489C30.6233 19.6869 28.2797 19.8743 25.9361 20.0518C24.8477 20.1406 24.7006 20.3378 24.5633 21.5408C24.4653 22.4086 24.73 23.3257 24.1613 24.1146L24.1711 24.1245Z" fill="#CC6C09"/>
<path d="M193.625 21.2844C194.704 21.2844 195.793 21.245 196.871 21.2844C197.999 21.3337 198.283 21.6098 198.391 22.665C198.47 23.4538 198.519 24.2427 198.577 25.0218C198.823 25.6233 198.705 26.1952 198.46 26.7672C197.362 26.2248 196.175 26.1952 194.979 26.1262C193.204 26.0375 192.939 25.7219 193.125 23.9075C193.214 23.02 193.459 22.1522 193.635 21.2745L193.625 21.2844Z" fill="#F9FAF8"/>
<path d="M91.851 15.7133C91.851 16.6895 91.9393 17.6756 91.8118 18.6322C91.6255 20.0719 90.9293 20.5452 89.4486 20.6537C88.2915 20.7424 87.3403 20.4762 86.6735 19.4703C86.5264 18.6026 86.3696 17.7348 86.2421 16.867C86.2029 16.5909 86.2617 16.3148 86.2911 15.8809C88.164 15.8217 90.0075 15.7626 91.8412 15.7133H91.851Z" fill="#FAFBFA"/>
<path d="M150.901 48.3235C152.078 48.2742 153.265 48.2548 154.441 48.1463C155.569 48.0378 156.579 47.6828 156.863 46.3713C157.109 46.4502 157.344 46.5291 157.579 46.608C157.687 46.8841 157.687 47.1503 157.579 47.4264C157.471 49.2902 157.364 51.1536 157.256 53.0173C156.295 52.9779 155.324 52.9585 154.363 52.8796C153.706 52.8303 153.333 52.4162 153.245 51.7555C153.235 51.6568 153.196 51.5582 153.225 51.4695C153.706 49.4775 152.568 48.7084 150.901 48.3336V48.3235Z" fill="#F3CC3E"/>
<path d="M14.6203 23.5425C13.5612 24.144 12.2374 24.499 12.11 26.0472C11.3549 25.7908 11.0509 25.1991 11.0411 24.4595C11.0411 23.7791 11.1392 23.0888 11.1588 22.4084C11.1784 21.8069 10.8058 21.4716 10.2665 21.4716C8.71715 21.4716 7.1286 21.1462 5.64792 21.8956C5.64792 21.4913 5.65773 21.0969 5.66754 20.6926C6.9521 20.6926 8.23666 20.7419 9.51142 20.6827C10.8352 20.6236 11.2863 20.1897 11.4432 18.9274C11.5216 18.2372 11.5216 17.5469 11.5706 16.8468C11.6001 16.4227 11.8256 16.117 12.1786 15.9001C12.1786 16.4917 12.1492 17.0834 12.159 17.6751C12.1786 19.0885 12.9304 19.8084 14.4143 19.8347C14.5026 19.8347 14.5908 19.9135 14.6791 19.9629C15.6106 21.1856 15.5714 22.3788 14.6104 23.5622L14.6203 23.5425Z" fill="#F3EAA2"/>
<path d="M134.202 34.4001C131.967 34.4001 129.731 34.3896 127.485 34.3995C126.721 34.3995 125.907 34.262 125.299 34.9227C125.142 34.9819 124.975 35.0408 124.808 35.1C124.416 32.1022 124.534 29.1041 124.73 26.1063C125.887 26.0767 127.054 26.0472 128.211 26.0077C128.152 26.0866 128.103 26.1852 128.035 26.2444C127.309 26.836 126.181 26.836 125.848 28.0292C125.446 29.4788 125.063 30.889 125.426 32.3977C125.534 32.8316 125.858 33.1077 126.26 33.1176C127.731 33.1669 129.211 33.1767 130.682 33.1669C131.221 33.1669 131.574 32.8119 131.888 32.4076C132.369 31.7863 132.849 31.1454 133.624 30.8397C133.693 32.0526 133.379 33.3148 134.212 34.3995L134.202 34.4001Z" fill="#FAF57C"/>
<path d="M116.326 15.9397C116.326 16.9258 116.346 17.9119 116.307 18.898C116.238 20.4167 114.787 21.3436 113.728 20.3476C112.453 19.1544 110.609 18.1196 110.972 15.8515C112.757 15.8811 114.542 15.9101 116.317 15.9397H116.326Z" fill="#FAFBFA"/>
<path d="M86.5164 20.5745C86.5262 21.1661 86.5262 21.7578 86.5556 22.3495C86.5949 23.3159 86.3693 24.0653 85.2809 24.3513C84.2219 24.6274 83.3884 25.3571 82.5353 26.008C82.4764 25.722 82.3588 25.436 82.3784 25.15C82.4568 23.73 81.8391 22.2804 82.5059 20.8802C83.8198 20.4561 85.1926 20.6928 86.5262 20.5745H86.5164Z" fill="#FAFBFA"/>
<path d="M50.7844 58.2836C51.4904 57.8103 52.2945 57.9286 53.0692 57.8991C57.874 57.7511 62.6887 57.5145 67.5033 57.7215C67.7975 57.7314 68.0917 57.7314 68.3859 57.7215C68.9546 57.692 69.3174 57.3764 69.3664 56.8242C69.4449 55.9367 69.4449 55.0492 69.4645 54.1617C69.4743 53.7574 69.5528 53.3827 69.9254 53.146C69.9058 54.4378 69.9254 55.7296 69.8665 57.0115C69.8273 57.8695 69.4253 58.2146 68.5624 58.3132C68.3663 58.3329 68.1701 58.3428 67.974 58.3428C62.2474 58.3231 56.5208 58.3033 50.7942 58.2738L50.7844 58.2836Z" fill="#F87510"/>
<path d="M123.955 49.4086C123.985 51.795 123.994 54.1715 124.034 56.5579C124.053 57.5046 124.328 57.8398 125.259 57.8497C128.221 57.8892 131.192 57.9779 134.153 57.6328C133.879 58.0864 133.467 58.3329 132.947 58.3329C130.309 58.3428 127.662 58.3724 125.024 58.3329C123.945 58.3132 123.514 57.9385 123.504 56.9622C123.475 54.704 123.504 52.4458 123.563 50.1876C123.563 49.9312 123.818 49.6749 123.955 49.4185V49.4086Z" fill="#F3760E"/>
<path d="M197.244 47.6725C197.93 47.4359 198.45 47.071 198.44 46.2328C198.381 42.5151 198.342 38.8074 198.283 35.0996C198.401 34.7544 198.519 34.3994 198.626 34.0642C199.078 35.7307 198.803 37.4169 198.862 39.0835C198.96 41.6769 198.979 44.2704 198.999 46.854C198.999 48.0275 198.813 48.1064 197.234 47.6725L197.244 47.6725Z" fill="#F16D11"/>
<path d="M144.999 15.3477C144.969 16.3338 144.93 17.3205 144.911 18.3066C144.891 19.8943 144.891 19.8937 142.998 20.0515C143.018 19.0752 143.047 18.0897 143.067 17.1134C143.093 16.0879 143.737 15.4989 144.999 15.3477Z" fill="#F7F7E9"/>
<path d="M134.065 57.7218C134.124 54.5465 134.183 51.3712 134.232 48.2058C134.595 48.5707 134.761 49.0144 134.761 49.5174C134.761 51.7558 134.761 53.9943 134.761 56.2229C134.761 56.8343 134.614 57.3766 134.055 57.7218H134.065Z" fill="#F3760E"/>
<path d="M160.403 47.5048C161.404 46.854 162.384 46.7061 163.325 47.6133C162.355 47.5739 161.384 47.5443 160.403 47.5048Z" fill="#F16D11"/>
<path d="M5.43212 47.6529C6.27542 47.4458 7.10892 47.3867 7.96202 47.6233C7.38348 48.3629 6.54998 48.0967 5.79494 48.1756C5.5596 48.077 5.32425 47.9882 5.43212 47.6529Z" fill="#F98F0C"/>
<path d="M157.579 47.4264C157.579 47.1503 157.579 46.8742 157.579 46.608C157.648 46.4305 157.775 46.3619 157.952 46.4013C158.403 46.6281 158.55 47.0226 158.57 47.4959C158.226 47.6635 157.893 47.6434 157.579 47.4264Z" fill="#F16D11"/>
<path d="M69.2584 10.5164C68.67 10.4967 68.0915 10.4769 67.5031 10.4572C68.1503 9.97731 68.7354 9.99703 69.2584 10.5164Z" fill="#2C3B51"/>
<path d="M158.472 43.413C158.638 43.9948 158.707 44.5569 158.178 45.0105C158.04 44.4287 158.099 43.8962 158.472 43.413Z" fill="#F16D11"/>
<path d="M134.192 29.558C134.173 29.272 134.143 28.9959 134.124 28.7099C134.33 28.6409 134.526 28.5715 134.732 28.5025C134.761 28.9659 134.614 29.3312 134.192 29.558Z" fill="#FAF57C"/>
<path d="M81.1825 58.4117C81.3786 58.599 81.5649 58.7864 81.7512 58.9738C81.5551 58.7864 81.3688 58.599 81.1825 58.4117Z" fill="#101F42"/>
<path d="M143.469 36.5493C143.302 36.5198 143.233 36.4113 143.263 36.2338L143.508 36.3127L143.469 36.5493Z" fill="#F7DB26"/>
<path d="M13.2965 70.0479L13.0808 70.0577V69.8309L13.2867 69.8408L13.2965 70.0479Z" fill="#DB581B"/>
<path d="M168.591 37.3978C168.836 36.6287 168.846 35.8595 168.591 35.0903C168.934 32.8124 168.768 30.5246 168.758 28.2368C168.758 26.2646 168.63 25.6236 170.954 25.8998C171.151 25.9195 171.347 25.9195 171.553 25.8998C172.71 25.8603 172.808 25.7025 172.906 24.4699C172.994 23.4246 172.327 22.0539 173.367 21.4228C174.102 20.9692 175.279 21.2256 176.259 21.2059C178.534 21.1763 180.809 21.1664 183.094 21.1664C183.79 21.1664 184.143 21.5116 184.231 22.2413C184.369 23.395 183.908 24.6277 184.673 25.6927C185.751 25.6631 186.83 25.6434 187.909 25.6138C188.477 25.6039 188.86 25.8406 188.889 26.452C188.919 27.0436 188.899 27.6452 188.899 28.2368C188.899 31.1261 188.879 34.0056 188.87 36.8949C188.87 38.4924 188.958 40.08 189.301 41.6381C187.497 42.6242 185.251 43.0186 185.134 45.8586C185.085 46.8941 183.712 47.2294 182.702 47.0814C179.76 46.6673 176.769 46.9927 173.837 46.4898C173.563 46.401 173.141 46.3122 173.092 46.1052C172.464 43.561 170.572 42.2692 168.424 41.2141C168.474 39.9321 168.238 38.6304 168.591 37.3584V37.3978Z" fill="#020B31"/>
<path d="M173.376 46.0062C177.112 45.7301 180.839 46.0555 184.653 46.2626C185.094 44.6552 184.182 43.2648 184.359 41.7363C186.006 41.1249 187.673 41.9828 189.311 41.6574C190.134 42.2392 190.066 43.1366 190.125 43.9846L190.134 43.9649C189.772 44.2903 189.899 44.8721 189.517 45.1877L189.536 45.1581C188.693 46.7951 186.899 47.298 185.634 48.432C185.134 48.5306 184.555 48.3531 184.143 48.8067C183.584 48.8067 183.015 48.8067 182.457 48.8067C179.78 48.0967 177.054 48.6194 174.347 48.4912C172.053 48.3827 172.121 47.4656 173.376 46.016V46.0062Z" fill="#EBF0DE"/>
<path d="M69.4739 35.0899C69.1699 37.1903 69.2778 39.2809 69.5328 41.3714C69.4347 41.7363 69.2288 42.0124 68.8954 42.1899C67.4931 42.6928 66.189 43.2549 65.9046 45.0299C65.7575 45.9371 65.1496 46.6865 64.1199 46.726C60.4035 46.8542 56.6871 47.1204 52.9903 46.509C52.5 46.4301 52.1078 46.1047 51.8627 45.6413C51.9117 42.8604 51.9803 40.0697 51.9999 37.2889C52.0294 33.6107 51.9999 29.9227 52.0294 26.2445C52.0392 24.9527 52.147 23.6609 52.2353 22.3691C52.2745 21.807 52.6373 21.5013 53.1864 21.4224C53.2845 21.4125 53.3826 21.4027 53.4806 21.4027C56.9421 21.3829 60.4133 21.3533 63.8748 21.3632C64.7965 21.3632 65.0025 21.7083 65.1005 22.655C65.2182 23.7989 64.6004 25.0118 65.4241 26.0867C66.5126 26.0275 67.5912 25.9585 68.6796 25.9092C68.866 25.9092 69.0621 25.9684 69.4641 26.0374C69.5622 29.0253 69.0621 32.0724 69.4739 35.0899Z" fill="#040C31"/>
<path d="M48.9703 48.166C47.2053 47.9688 45.4402 47.7716 43.6752 47.5645C42.9986 47.4856 42.5966 47.101 42.5475 46.4107C42.4985 45.7205 42.4691 45.0203 42.4691 44.3202C42.4887 41.2337 42.5279 38.1472 42.5573 35.0606C44.7342 35.0409 46.9111 34.9817 49.088 35.0212C50.5001 35.0409 50.7844 35.3565 50.8138 36.8455C50.8531 38.6205 50.706 40.287 49.9411 42.0324C49.137 43.8765 48.9115 46.0557 48.9605 48.166H48.9703Z" fill="#FED70D"/>
<path d="M51.8729 45.6417C54.1086 45.7206 56.3541 45.8094 58.5899 45.8784C59.4724 45.908 60.3549 45.8784 61.2374 45.8981C62.4926 45.9178 63.7477 45.9474 65.0029 45.977C65.6893 44.7542 64.7871 43.492 65.1205 42.2594C65.1499 42.1608 65.1696 42.072 65.2186 41.8945C66.5326 41.4015 67.876 41.8353 69.2194 41.9537C71.2884 42.7031 70.3568 44.271 70.2196 45.6319C69.7979 46.2926 69.1998 46.6969 68.4839 46.9631C67.6995 46.8744 66.8562 46.6969 66.4345 47.6139C65.9246 48.7381 64.9636 48.7874 63.9732 48.7874C60.5412 48.7776 57.119 48.7578 53.6869 48.7282C52.5102 48.7184 51.3335 48.6592 50.1568 48.6198C49.7352 47.8605 49.7254 47.1603 50.4804 46.5982C50.9315 46.263 51.412 45.9671 51.8827 45.6516L51.8729 45.6417Z" fill="#F5F5DF"/>
<path d="M91.9099 41.9729C91.9001 39.6654 92.1844 37.348 91.8118 35.0504C92.2727 33.1866 91.9883 31.2933 92.0668 29.4197C92.106 28.5322 92.0668 27.6349 92.1158 26.7375C92.1452 26.1557 92.5473 25.8599 93.0866 25.85C93.9691 25.8401 94.8614 25.9092 95.7538 25.9092C96.6951 25.9092 96.9305 25.6133 96.7932 24.6075C96.6657 23.6312 96.4794 22.655 96.3225 21.6984C96.5971 21.1166 97.107 21.1561 97.5777 21.1561C100.245 21.1364 102.912 21.1166 105.569 21.1166C106.756 21.1166 106.874 21.2646 106.942 22.5071C106.991 23.3946 106.991 24.2919 107.05 25.1794C107.08 25.6133 107.374 25.8796 107.795 25.9683C107.982 26.0078 108.188 26.0078 108.384 26.0176C109.266 26.0669 110.315 25.6725 110.982 26.2346C111.786 26.9248 111.355 28.0983 111.394 29.0647C111.443 30.3565 111.473 31.6483 111.355 32.9303C111.1 35.8097 111.237 38.6793 111.551 41.539C110.894 42.535 109.737 42.2786 108.835 42.6632C108.001 42.9196 107.423 43.4028 107.423 44.3396C107.423 46.7753 105.844 47.3472 103.873 47.3275C101.52 47.2979 99.1172 47.791 96.8422 46.7753C96.6755 46.6569 96.45 46.5386 96.4304 46.371C96.1264 43.6592 94.4398 42.3871 91.9295 41.9532L91.9099 41.9729Z" fill="#030B2F"/>
<path d="M109.051 41.9931C109.884 41.8452 110.718 41.7071 111.541 41.5592C111.737 41.5789 111.933 41.5888 112.129 41.5888L112.159 41.6184C112.492 41.9635 112.541 42.3579 112.326 42.782C112.1 42.9693 111.845 43.0877 111.551 43.1271C110.61 43.1468 109.688 43.0581 108.903 42.4368C108.59 42.1903 108.933 42.5551 108.737 42.2199C108.521 41.8451 108.796 41.8649 109.051 41.9931Z" fill="#F9F067"/>
<path d="M173.376 46.0062C173.288 46.1837 173.151 46.3512 173.112 46.5385C172.857 47.7021 173.083 48.1459 174.053 48.1755C175.818 48.2248 177.593 48.1755 179.358 48.2248C180.408 48.2544 181.545 47.929 182.447 48.8066C179.603 48.8362 176.76 48.8658 173.916 48.8756C173.19 48.8756 172.386 48.6883 172.308 47.8994C172.171 46.5583 171.416 46.3019 170.308 46.361C169.817 46.3906 169.327 46.3413 168.837 46.3315C167.915 45.1087 168.18 43.6887 168.189 42.3081C168.337 42.032 168.337 41.6277 168.797 41.6179C169.19 41.5981 169.582 41.5587 169.964 41.5488C170.925 41.5291 172.043 40.9473 172.798 41.5488C173.622 42.2095 173.014 43.383 173.043 44.3395C173.063 44.9312 172.945 45.523 173.376 46.016V46.0062Z" fill="#F8F2A6"/>
<path d="M185.496 48.274C186.33 46.5681 188.115 46.0851 189.536 45.1581C189.507 45.5328 189.478 45.9172 189.439 46.292C188.223 47.3175 187.134 48.5501 185.408 48.7276C185.036 48.5008 185.055 48.3529 185.487 48.274H185.496Z" fill="#FCEA35"/>
<path d="M185.496 48.274C185.457 48.422 185.428 48.5703 185.418 48.728C184.997 48.7478 184.575 48.7771 184.143 48.8067C184.477 48.3334 184.948 48.2054 185.497 48.2843L185.496 48.274Z" fill="#F8F2A6"/>
<path d="M109.051 41.9931C110.051 42.3284 111.227 42.032 112.1 42.8308C113.169 43.8761 112.531 44.8129 111.786 45.582C110.913 46.4695 110.099 47.4162 109.138 48.215C107.932 48.6883 106.658 48.8165 105.383 48.846C103.226 48.8954 101.068 48.8756 98.911 48.8756C97.9206 48.8756 96.9498 48.7376 96.0771 48.2248C94.7631 46.9429 95.2436 46.3512 96.8616 46.2033C99.7053 46.223 102.539 46.2329 105.383 46.2526C106.393 46.2526 106.579 46.0751 106.471 45.0397C106.354 43.9747 106.187 42.9097 106.05 41.8545C107.197 41.4206 108.138 41.7362 109.07 41.9827L109.051 41.9931Z" fill="#F9F8CE"/>
<path d="M96.8421 46.2132C96.11 46.7589 95.8485 47.4327 96.0577 48.2347C95.0085 48.3038 93.9886 48.2545 93.1159 47.5346C92.5374 47.081 93.0767 46.2231 92.4786 45.7793L92.4982 45.8089C92.204 45.2172 91.9294 44.6256 91.6255 44.0438C91.2332 43.2844 91.2823 42.5942 91.9 41.9828C92.3805 41.9039 92.861 41.825 93.3415 41.756C97.0677 41.2531 96.6166 41.3319 96.6656 44.4678C96.6656 45.0496 96.7735 45.6413 96.8324 46.2231L96.8421 46.2132Z" fill="#F6F08A"/>
<path d="M109.139 48.2253C109.57 47.1307 109.6 45.8783 111.022 45.3162C111.963 44.9514 112.228 43.8863 112.1 42.8411L112.277 42.7129C113.483 42.9298 112.885 43.8962 113.042 44.5569C113.042 45.0105 113.091 45.4839 112.718 45.8487C111.816 47.0912 110.737 48.0675 109.129 48.2253H109.139Z" fill="#F9F067"/>
<path d="M112.875 44.6657C112.786 43.9853 112.826 43.2552 112.277 42.7129C112.238 42.348 112.198 41.9835 112.159 41.6285C113.296 42.0624 113.355 43.0584 113.434 44.0544C113.404 44.2318 113.375 44.4192 113.355 44.5967C113.228 44.8432 113.071 44.863 112.885 44.6657H112.875Z" fill="#FCEA36"/>
<path d="M92.4884 45.78C93.2728 46.1547 93.1846 46.8549 93.1258 47.5353C92.459 47.1113 92.508 46.4308 92.4884 45.78Z" fill="#FCC30D"/>
<path d="M112.875 44.6657C113.032 44.6263 113.189 44.6063 113.346 44.5965C113.365 45.129 113.159 45.543 112.718 45.8487C112.767 45.4543 112.826 45.0698 112.875 44.6754L112.875 44.6657Z" fill="#FCBE11"/>
<path d="M28.2114 45.7597C26.9856 45.7202 25.7599 45.6906 24.5342 45.6512C24.0537 43.2944 24.0831 40.9279 24.3675 38.5514C24.4754 37.654 24.9068 37.3582 25.7697 37.3976C26.26 37.4272 26.7503 37.4963 27.2406 37.5554C27.8976 37.6343 28.3192 37.9795 28.4271 38.6599C28.5252 39.2417 28.6232 39.8235 28.7213 40.3954C28.7115 41.204 28.7017 42.0225 28.6821 42.8311C28.2996 43.6792 28.6428 44.5963 28.4369 45.464C28.2702 45.4838 28.1918 45.5824 28.2114 45.75L28.2114 45.7597Z" fill="#06071F"/>
<path d="M28.4465 45.4739C28.4171 44.5864 28.2798 43.689 28.6917 42.8409C28.8388 43.7383 29.1231 44.6554 28.4465 45.4739Z" fill="#F09A08"/>
<path d="M12.1199 26.0578C13.0024 26.3734 13.5515 27.0143 13.8849 27.8821C12.8553 27.7046 12.2473 27.1228 12.1199 26.0578Z" fill="#F3EAA2"/>
<path d="M13.8948 27.8818C14.4047 27.8128 14.8361 27.941 15.1205 28.4045C14.6106 28.4833 14.1791 28.3552 13.8948 27.8818Z" fill="#F3EAA2"/>
<path d="M10.4038 47.8112C10.698 47.7619 10.8647 47.9 10.9628 48.1662C10.7765 48.0479 10.5902 47.9296 10.4038 47.8112Z" fill="#F98F0C"/>
<path d="M133.604 30.8399C133.565 30.3468 133.663 29.9228 134.134 29.6565C134.173 30.1496 134.026 30.5539 133.604 30.8399Z" fill="#FAF57C"/>
<path d="M168.797 41.6088C168.591 41.8356 168.395 42.0624 168.189 42.299C168.238 40.6621 167.709 38.966 168.601 37.3981C168.67 38.7984 168.738 40.2085 168.807 41.6088H168.797Z" fill="#FCEA35"/>
<path d="M68.4641 46.9626C68.9152 46.5681 69.376 46.1736 69.8271 45.7693C69.9448 45.5623 70.1213 45.4932 70.3566 45.5623C70.4155 45.651 70.4841 45.7398 70.5429 45.8384C70.0723 46.6273 69.3957 47.0414 68.4641 46.9626Z" fill="#FCC60F"/>
<path d="M71.1312 45.2369C70.9351 45.4341 70.739 45.6313 70.5429 45.8286L70.484 45.7793C70.2585 45.1777 70.5331 45.0594 71.0626 45.1679L71.1312 45.2369Z" fill="#FCC60F"/>
<path d="M14.6203 23.5425C14.934 22.3493 14.7869 21.1468 14.6888 19.9438C15.5779 18.9511 16.8592 18.32 18.5327 18.0505C18.719 20.4171 18.5817 22.7739 18.4346 25.1209C17.2383 25.3378 16.1401 24.9236 15.032 24.5686C14.7967 24.2728 14.7869 23.8784 14.6202 23.5529V23.5332L14.6203 23.5425Z" fill="#1D1924"/>
<path d="M14.6304 23.5627C14.9343 23.8388 15.0716 24.1741 15.0422 24.5784C14.4931 24.4107 14.4931 24.0163 14.6304 23.5627Z" fill="#F3EAA2"/>
<path d="M71.0626 45.1679C70.8665 45.375 70.6802 45.5722 70.484 45.7793C70.2683 45.7793 70.0526 45.7797 69.8271 45.7797C69.984 44.4485 70.4155 43.0679 69.1995 41.9635C69.3172 41.7761 69.4251 41.5789 69.5329 41.3915C69.9644 40.8886 69.8859 40.2772 69.8859 39.6954C69.8957 38.6206 69.8859 37.5457 69.8859 36.3821C70.592 36.53 70.4449 36.954 70.4547 37.24C70.5135 39.2122 70.3468 41.1845 70.994 43.1172C71.1999 43.7385 71.043 44.4879 71.0528 45.1782L71.0626 45.1679Z" fill="#FDED39"/>
<path d="M189.517 45.1877C189.487 44.6552 189.654 44.2312 190.134 43.9649C190.164 44.4974 190.007 44.9313 189.517 45.1877Z" fill="#FCEA35"/>
<path d="M174.063 34.6264C174.063 33.5318 174.024 32.4372 174.063 31.3525C174.151 29.3309 175.416 27.9602 177.358 27.8616C178.839 27.7827 180.319 27.8025 181.8 27.8814C182.888 27.9307 183.496 28.4829 183.526 29.5479C183.585 32.2301 183.634 34.9123 183.496 37.5847C183.398 39.409 182.545 39.9415 180.721 40.4543C178.917 40.9572 177.23 40.7107 175.534 40.1782C174.602 39.8823 174.044 39.271 174.063 38.206C174.093 37.0128 174.063 35.8196 174.063 34.6264Z" fill="#3F3F3F"/>
<path d="M63.9044 35.2082C63.9044 35.997 63.9633 36.6972 63.8946 37.3875C63.6593 39.547 62.4238 40.76 60.2469 40.967C59.5605 41.0361 58.8642 41.0065 58.1778 40.967C57.2953 40.9079 56.854 40.5529 56.8442 39.7147C56.805 36.2436 56.805 32.7823 56.8344 29.3112C56.8344 28.2857 57.3738 27.7729 58.2955 27.9011C59.4624 28.0589 60.6293 28.2857 61.7373 28.6505C62.6199 28.9365 63.1396 29.6761 63.3259 30.6425C63.6201 32.1907 64.1496 33.7093 63.8946 35.2279L63.9044 35.2082Z" fill="#1C2B4F"/>
<path d="M97.3029 33.641C97.3029 32.152 97.2636 30.6728 97.3127 29.1837C97.3421 28.2864 97.7147 27.9018 98.5874 27.8821C100.558 27.8328 102.529 27.8131 104.5 27.8821C105.569 27.9215 106.138 28.4935 106.158 29.5979C106.207 32.3689 106.177 35.1399 106.158 37.9207C106.158 38.7786 105.765 39.4788 104.961 39.8042C103.863 40.2381 102.765 40.6917 101.617 40.9382C100.431 41.1847 99.313 40.9086 98.3031 40.0902C97.6166 39.5379 97.2538 38.9758 97.2636 38.1081C97.2832 36.619 97.2636 35.1399 97.2636 33.6509C97.2734 33.6509 97.2832 33.6509 97.2931 33.6509L97.3029 33.641Z" fill="#26324C"/>
</svg>
