<svg width="32" height="34" viewBox="0 0 32 34" fill="none" xmlns="http://www.w3.org/2000/svg">
<path d="M18.8258 31.3633L18.0399 30.6705L17.3463 31.4573L18.1322 32.1501L18.8258 31.3633Z" fill="#F3DD3E"/>
<path d="M19.5191 30.5768L18.7332 29.884L18.0398 30.6707L18.8257 31.3634L19.5191 30.5768Z" fill="#C10C22"/>
<path d="M20.2128 29.7899L19.4269 29.0971L18.7333 29.8839L19.5192 30.5766L20.2128 29.7899Z" fill="#C10C22"/>
<path d="M20.9061 29.0033L20.1202 28.3105L19.4268 29.0972L20.2127 29.79L20.9061 29.0033Z" fill="#C10C22"/>
<path d="M21.5998 28.2164L20.8139 27.5236L20.1203 28.3104L20.9062 29.0032L21.5998 28.2164Z" fill="#C10C22"/>
<path d="M22.2934 27.4296L21.5074 26.7368L20.8139 27.5236L21.5998 28.2164L22.2934 27.4296Z" fill="#C10C22"/>
<path d="M22.9868 26.6429L22.2009 25.9502L21.5074 26.7368L22.2934 27.4296L22.9868 26.6429Z" fill="#C10C22"/>
<path d="M23.6804 25.8562L22.8944 25.1634L22.2009 25.9502L22.9868 26.6429L23.6804 25.8562Z" fill="#C10C22"/>
<path d="M24.3738 25.0695L23.5879 24.3767L22.8944 25.1634L23.6804 25.8562L24.3738 25.0695Z" fill="#C10C22"/>
<path d="M18.0399 30.6705L17.2541 29.9779L16.5605 30.7646L17.3463 31.4573L18.0399 30.6705Z" fill="#F3DD3E"/>
<path d="M18.7332 29.884L17.9474 29.1913L17.254 29.978L18.0398 30.6707L18.7332 29.884Z" fill="#C10C22"/>
<path d="M19.4269 29.0971L18.6411 28.4044L17.9475 29.1912L18.7333 29.8839L19.4269 29.0971Z" fill="#C10C22"/>
<path d="M20.1202 28.3105L19.3344 27.6178L18.641 28.4045L19.4268 29.0972L20.1202 28.3105Z" fill="#E52939"/>
<path d="M20.8139 27.5236L20.0281 26.8309L19.3345 27.6177L20.1203 28.3104L20.8139 27.5236Z" fill="#E52939"/>
<path d="M21.5074 26.7368L20.7216 26.0441L20.0281 26.8309L20.8139 27.5236L21.5074 26.7368Z" fill="#E52939"/>
<path d="M22.2009 25.9502L21.4151 25.2575L20.7216 26.0441L21.5074 26.7368L22.2009 25.9502Z" fill="#E52939"/>
<path d="M22.8944 25.1634L22.1086 24.4707L21.4151 25.2575L22.2009 25.9502L22.8944 25.1634Z" fill="#E52939"/>
<path d="M23.5879 24.3767L22.8021 23.684L22.1086 24.4707L22.8944 25.1634L23.5879 24.3767Z" fill="#E52939"/>
<path d="M24.2814 23.5899L23.4957 22.8972L22.8021 23.684L23.5879 24.3767L24.2814 23.5899Z" fill="#E52939"/>
<path d="M17.2541 29.9779L16.4682 29.2851L15.7746 30.0719L16.5605 30.7646L17.2541 29.9779Z" fill="#F3DD3E"/>
<path d="M17.9474 29.1913L17.1615 28.4985L16.4681 29.2852L17.254 29.978L17.9474 29.1913Z" fill="#C10C22"/>
<path d="M18.6411 28.4044L17.8552 27.7116L17.1616 28.4984L17.9475 29.1912L18.6411 28.4044Z" fill="#C10C22"/>
<path d="M19.3344 27.6178L18.5485 26.9251L17.8551 27.7117L18.641 28.4045L19.3344 27.6178Z" fill="#E52939"/>
<path d="M20.0281 26.8309L19.2422 26.1382L18.5486 26.9249L19.3345 27.6177L20.0281 26.8309Z" fill="#E52939"/>
<path d="M20.7216 26.0441L19.9357 25.3514L19.2422 26.1382L20.0281 26.8309L20.7216 26.0441Z" fill="#E52939"/>
<path d="M21.4151 25.2575L20.6292 24.5647L19.9357 25.3514L20.7216 26.0441L21.4151 25.2575Z" fill="#E52939"/>
<path d="M22.1086 24.4707L21.3227 23.7779L20.6292 24.5647L21.4151 25.2575L22.1086 24.4707Z" fill="#E52939"/>
<path d="M22.8021 23.684L22.0162 22.9912L21.3227 23.7779L22.1086 24.4707L22.8021 23.684Z" fill="#E52939"/>
<path d="M17.1615 28.4985L16.3757 27.8058L15.6823 28.5925L16.4681 29.2852L17.1615 28.4985Z" fill="#E6E6E6"/>
<path d="M17.8552 27.7116L17.0694 27.0189L16.3758 27.8057L17.1616 28.4984L17.8552 27.7116Z" fill="#E6E6E6"/>
<path d="M18.5485 26.9251L17.7627 26.2324L17.0693 27.0191L17.8551 27.7117L18.5485 26.9251Z" fill="#E6E6E6"/>
<path d="M19.2422 26.1382L18.4564 25.4455L17.7628 26.2323L18.5486 26.9249L19.2422 26.1382Z" fill="#E6E6E6"/>
<path d="M19.9357 25.3514L19.1499 24.6587L18.4564 25.4455L19.2422 26.1382L19.9357 25.3514Z" fill="#E6E6E6"/>
<path d="M20.6292 24.5647L19.8434 23.872L19.1499 24.6587L19.9357 25.3514L20.6292 24.5647Z" fill="#E6E6E6"/>
<path d="M21.3227 23.7779L20.5369 23.0852L19.8434 23.872L20.6292 24.5647L21.3227 23.7779Z" fill="#E6E6E6"/>
<path d="M22.0162 22.9912L21.2304 22.2986L20.5369 23.0852L21.3227 23.7779L22.0162 22.9912Z" fill="#E6E6E6"/>
<path d="M22.7097 22.2044L21.9239 21.5118L21.2304 22.2986L22.0162 22.9912L22.7097 22.2044Z" fill="#E6E6E6"/>
<path d="M17.0693 27.0188L16.2833 26.326L15.5898 27.1128L16.3757 27.8056L17.0693 27.0188Z" fill="#C6C6C4"/>
<path d="M17.7626 26.2323L16.9767 25.5395L16.2832 26.3262L17.0691 27.0189L17.7626 26.2323Z" fill="#C6C6C4"/>
<path d="M18.4563 25.4454L17.6703 24.7526L16.9768 25.5394L17.7627 26.2322L18.4563 25.4454Z" fill="#C6C6C4"/>
<path d="M19.1498 24.6586L18.3639 23.9658L17.6703 24.7526L18.4563 25.4454L19.1498 24.6586Z" fill="#C6C6C4"/>
<path d="M19.8433 23.8719L19.0573 23.1791L18.3639 23.9658L19.1498 24.6586L19.8433 23.8719Z" fill="#C6C6C4"/>
<path d="M20.5368 23.0851L19.7509 22.3923L19.0573 23.1791L19.8433 23.8719L20.5368 23.0851Z" fill="#C6C6C4"/>
<path d="M21.2303 22.2985L20.4443 21.6057L19.7509 22.3923L20.5368 23.0851L21.2303 22.2985Z" fill="#C6C6C4"/>
<path d="M21.9238 21.5117L21.1379 20.8189L20.4443 21.6057L21.2303 22.2985L21.9238 21.5117Z" fill="#C6C6C4"/>
<path d="M22.6173 20.725L21.8314 20.0322L21.1379 20.8189L21.9238 21.5117L22.6173 20.725Z" fill="#C6C6C4"/>
<path d="M16.2833 26.326L15.4974 25.6332L14.8039 26.42L15.5898 27.1128L16.2833 26.326Z" fill="#C10C22"/>
<path d="M16.9767 25.5395L16.1908 24.8467L15.4973 25.6334L16.2832 26.3262L16.9767 25.5395Z" fill="#E6E6E6"/>
<path d="M17.6703 24.7526L16.8844 24.0598L16.1909 24.8466L16.9768 25.5394L17.6703 24.7526Z" fill="#E6E6E6"/>
<path d="M18.3639 23.9658L17.578 23.273L16.8844 24.0598L17.6703 24.7526L18.3639 23.9658Z" fill="#E6E6E6"/>
<path d="M19.0573 23.1791L18.2714 22.4863L17.578 23.273L18.3639 23.9658L19.0573 23.1791Z" fill="#E6E6E6"/>
<path d="M19.7509 22.3923L18.965 21.6995L18.2714 22.4863L19.0573 23.1791L19.7509 22.3923Z" fill="#E6E6E6"/>
<path d="M20.4443 21.6057L19.6584 20.9129L18.965 21.6995L19.7509 22.3923L20.4443 21.6057Z" fill="#E6E6E6"/>
<path d="M21.1379 20.8189L20.352 20.1261L19.6584 20.9129L20.4443 21.6057L21.1379 20.8189Z" fill="#E6E6E6"/>
<path d="M21.8314 20.0322L21.0454 19.3394L20.352 20.1261L21.1379 20.8189L21.8314 20.0322Z" fill="#E6E6E6"/>
<path d="M22.5249 19.2454L21.739 18.5526L21.0454 19.3394L21.8314 20.0322L22.5249 19.2454Z" fill="#E6E6E6"/>
<path d="M23.2186 18.4585L22.4327 17.7657L21.7391 18.5525L22.525 19.2453L23.2186 18.4585Z" fill="#E6E6E6"/>
<path d="M23.912 17.6718L23.1261 16.9791L22.4327 17.7657L23.2186 18.4585L23.912 17.6718Z" fill="#E6E6E6"/>
<path d="M24.6056 16.8851L23.8197 16.1923L23.1261 16.9791L23.912 17.6718L24.6056 16.8851Z" fill="#E6E6E6"/>
<path d="M25.299 16.0984L24.5131 15.4056L23.8197 16.1923L24.6056 16.8851L25.299 16.0984Z" fill="#E6E6E6"/>
<path d="M25.9926 15.3116L25.2067 14.6188L24.5131 15.4056L25.299 16.0984L25.9926 15.3116Z" fill="#E6E6E6"/>
<path d="M26.686 14.5249L25.9001 13.8321L25.2067 14.6188L25.9926 15.3116L26.686 14.5249Z" fill="#E6E6E6"/>
<path d="M27.3796 13.7381L26.5937 13.0454L25.9001 13.8321L26.686 14.5249L27.3796 13.7381Z" fill="#E6E6E6"/>
<path d="M28.0732 12.9512L27.2873 12.2584L26.5938 13.0452L27.3797 13.738L28.0732 12.9512Z" fill="#E6E6E6"/>
<path d="M28.7666 12.1647L27.9807 11.4719L27.2872 12.2586L28.0731 12.9513L28.7666 12.1647Z" fill="#E6E6E6"/>
<path d="M29.4602 11.3778L28.6743 10.685L27.9808 11.4718L28.7667 12.1646L29.4602 11.3778Z" fill="#E6E6E6"/>
<path d="M30.1536 10.5912L29.3677 9.89844L28.6742 10.6851L29.4601 11.3779L30.1536 10.5912Z" fill="#E6E6E6"/>
<path d="M30.8473 9.80432L30.0613 9.11153L29.3678 9.89832L30.1537 10.5911L30.8473 9.80432Z" fill="#E6E6E6"/>
<path d="M10.6427 31.1405L9.85695 30.4478L9.16339 31.2346L9.94919 31.9273L10.6427 31.1405Z" fill="#D34216"/>
<path d="M11.3362 30.3539L10.5504 29.6612L9.85695 30.4478L10.6427 31.1405L11.3362 30.3539Z" fill="#D34216"/>
<path d="M12.7234 28.7802L11.9376 28.0875L11.2441 28.8743L12.0299 29.567L12.7234 28.7802Z" fill="#C10C22"/>
<path d="M14.1104 27.2067L13.3246 26.514L12.6311 27.3008L13.4169 27.9935L14.1104 27.2067Z" fill="#E6E6E6"/>
<path d="M14.8038 26.4202L14.018 25.7275L13.3245 26.5141L14.1103 27.2068L14.8038 26.4202Z" fill="#C6C6C4"/>
<path d="M15.4974 25.6332L14.7116 24.9406L14.0181 25.7274L14.8039 26.42L15.4974 25.6332Z" fill="#C10C22"/>
<path d="M16.1908 24.8467L15.405 24.154L14.7115 24.9407L15.4973 25.6334L16.1908 24.8467Z" fill="white"/>
<path d="M16.8844 24.0598L16.0986 23.3671L15.4051 24.1539L16.1909 24.8466L16.8844 24.0598Z" fill="white"/>
<path d="M17.578 23.273L16.7922 22.5803L16.0986 23.3671L16.8844 24.0598L17.578 23.273Z" fill="white"/>
<path d="M18.2714 22.4863L17.4856 21.7937L16.7922 22.5803L17.578 23.273L18.2714 22.4863Z" fill="white"/>
<path d="M18.965 21.6995L18.1792 21.0069L17.4856 21.7937L18.2714 22.4863L18.965 21.6995Z" fill="white"/>
<path d="M19.6584 20.9129L18.8726 20.2202L18.1792 21.0069L18.965 21.6995L19.6584 20.9129Z" fill="white"/>
<path d="M20.352 20.1261L19.5662 19.4334L18.8726 20.2202L19.6584 20.9129L20.352 20.1261Z" fill="white"/>
<path d="M21.0454 19.3394L20.2596 18.6467L19.5662 19.4334L20.352 20.1261L21.0454 19.3394Z" fill="white"/>
<path d="M21.739 18.5526L20.9532 17.86L20.2596 18.6467L21.0454 19.3394L21.739 18.5526Z" fill="white"/>
<path d="M22.4327 17.7657L21.6469 17.073L20.9533 17.8598L21.7391 18.5525L22.4327 17.7657Z" fill="white"/>
<path d="M23.1261 16.9791L22.3403 16.2864L21.6469 17.073L22.4327 17.7657L23.1261 16.9791Z" fill="white"/>
<path d="M23.8197 16.1923L23.0339 15.4996L22.3403 16.2864L23.1261 16.9791L23.8197 16.1923Z" fill="white"/>
<path d="M24.5131 15.4056L23.7273 14.7129L23.0339 15.4996L23.8197 16.1923L24.5131 15.4056Z" fill="white"/>
<path d="M25.2067 14.6188L24.4209 13.9261L23.7273 14.7129L24.5131 15.4056L25.2067 14.6188Z" fill="white"/>
<path d="M25.9001 13.8321L25.1143 13.1395L24.4209 13.9261L25.2067 14.6188L25.9001 13.8321Z" fill="white"/>
<path d="M26.5937 13.0454L25.8079 12.3527L25.1143 13.1395L25.9001 13.8321L26.5937 13.0454Z" fill="white"/>
<path d="M27.2873 12.2584L26.5015 11.5658L25.808 12.3526L26.5938 13.0452L27.2873 12.2584Z" fill="white"/>
<path d="M27.9807 11.4719L27.1949 10.7792L26.5014 11.5659L27.2872 12.2586L27.9807 11.4719Z" fill="white"/>
<path d="M28.6743 10.685L27.8885 9.99231L27.195 10.7791L27.9808 11.4718L28.6743 10.685Z" fill="white"/>
<path d="M29.3677 9.89844L28.5819 9.20576L27.8884 9.99243L28.6742 10.6851L29.3677 9.89844Z" fill="white"/>
<path d="M30.0613 9.11153L29.2755 8.41885L28.582 9.20564L29.3678 9.89832L30.0613 9.11153Z" fill="#E6E6E6"/>
<path d="M30.7547 8.32498L29.9689 7.6323L29.2754 8.41897L30.0612 9.11165L30.7547 8.32498Z" fill="#E6E6E6"/>
<path d="M31.4483 7.53807L30.6625 6.84539L29.969 7.63218L30.7548 8.32486L31.4483 7.53807Z" fill="#E6E6E6"/>
<path d="M7.77639 32.8081L6.99047 32.1153L6.29702 32.902L7.08294 33.5948L7.77639 32.8081Z" fill="#D34216"/>
<path d="M8.46995 32.0213L7.68403 31.3285L6.99047 32.1153L7.77639 32.8081L8.46995 32.0213Z" fill="#D34216"/>
<path d="M9.16339 31.2346L8.37748 30.5419L7.68403 31.3285L8.46995 32.0213L9.16339 31.2346Z" fill="#F5A22B"/>
<path d="M9.85695 30.4478L9.07103 29.7551L8.37748 30.5419L9.16339 31.2346L9.85695 30.4478Z" fill="#F5A22B"/>
<path d="M10.5504 29.6612L9.76448 28.9684L9.07103 29.7551L9.85695 30.4478L10.5504 29.6612Z" fill="#F5A22B"/>
<path d="M11.244 28.8744L10.458 28.1816L9.76448 28.9684L10.5504 29.6612L11.244 28.8744Z" fill="#F5A22B"/>
<path d="M11.9376 28.0875L11.1517 27.3947L10.4581 28.1815L11.2441 28.8743L11.9376 28.0875Z" fill="#C10C22"/>
<path d="M12.631 27.3009L11.845 26.6081L11.1516 27.3948L11.9375 28.0876L12.631 27.3009Z" fill="#C6C6C4"/>
<path d="M13.3246 26.514L12.5387 25.8212L11.8451 26.608L12.6311 27.3008L13.3246 26.514Z" fill="#E6E6E6"/>
<path d="M14.018 25.7275L13.232 25.0347L12.5386 25.8214L13.3245 26.5141L14.018 25.7275Z" fill="#C6C6C4"/>
<path d="M14.7116 24.9406L13.9257 24.2478L13.2322 25.0346L14.0181 25.7274L14.7116 24.9406Z" fill="#C10C22"/>
<path d="M15.405 24.154L14.619 23.4612L13.9256 24.2479L14.7115 24.9407L15.405 24.154Z" fill="white"/>
<path d="M16.0986 23.3671L15.3127 22.6743L14.6192 23.4611L15.4051 24.1539L16.0986 23.3671Z" fill="white"/>
<path d="M16.7922 22.5803L16.0063 21.8875L15.3127 22.6743L16.0986 23.3671L16.7922 22.5803Z" fill="white"/>
<path d="M17.4856 21.7937L16.6997 21.1009L16.0063 21.8875L16.7922 22.5803L17.4856 21.7937Z" fill="white"/>
<path d="M18.1792 21.0069L17.3933 20.3141L16.6997 21.1009L17.4856 21.7937L18.1792 21.0069Z" fill="white"/>
<path d="M18.8726 20.2202L18.0867 19.5274L17.3933 20.3141L18.1792 21.0069L18.8726 20.2202Z" fill="white"/>
<path d="M19.5662 19.4334L18.7803 18.7406L18.0867 19.5274L18.8726 20.2202L19.5662 19.4334Z" fill="white"/>
<path d="M20.2596 18.6467L19.4737 17.954L18.7803 18.7406L19.5662 19.4334L20.2596 18.6467Z" fill="white"/>
<path d="M20.9532 17.86L20.1673 17.1672L19.4737 17.954L20.2596 18.6467L20.9532 17.86Z" fill="white"/>
<path d="M21.6469 17.073L20.8609 16.3803L20.1674 17.167L20.9533 17.8598L21.6469 17.073Z" fill="white"/>
<path d="M22.3403 16.2864L21.5544 15.5936L20.8609 16.3803L21.6469 17.073L22.3403 16.2864Z" fill="white"/>
<path d="M23.0339 15.4996L22.2479 14.8068L21.5544 15.5936L22.3403 16.2864L23.0339 15.4996Z" fill="white"/>
<path d="M23.7273 14.7129L22.9414 14.0201L22.2479 14.8068L23.0339 15.4996L23.7273 14.7129Z" fill="white"/>
<path d="M24.4209 13.9261L23.6349 13.2333L22.9414 14.0201L23.7273 14.7129L24.4209 13.9261Z" fill="white"/>
<path d="M25.1143 13.1395L24.3284 12.4467L23.6349 13.2333L24.4209 13.9261L25.1143 13.1395Z" fill="white"/>
<path d="M25.8079 12.3527L25.022 11.6599L24.3284 12.4467L25.1143 13.1395L25.8079 12.3527Z" fill="white"/>
<path d="M26.5015 11.5658L25.7156 10.873L25.0221 11.6598L25.808 12.3526L26.5015 11.5658Z" fill="white"/>
<path d="M27.1949 10.7792L26.409 10.0864L25.7155 10.8731L26.5014 11.5659L27.1949 10.7792Z" fill="white"/>
<path d="M27.8885 9.99231L27.1026 9.29952L26.4091 10.0863L27.195 10.7791L27.8885 9.99231Z" fill="white"/>
<path d="M28.5819 9.20576L27.796 8.51297L27.1025 9.29964L27.8884 9.99243L28.5819 9.20576Z" fill="white"/>
<path d="M29.2755 8.41885L28.4896 7.72606L27.7961 8.51285L28.582 9.20564L29.2755 8.41885Z" fill="white"/>
<path d="M29.9689 7.6323L29.183 6.93951L28.4895 7.72618L29.2754 8.41897L29.9689 7.6323Z" fill="white"/>
<path d="M30.6625 6.84539L29.8766 6.15261L29.1831 6.93939L29.969 7.63218L30.6625 6.84539Z" fill="#E6E6E6"/>
<path d="M31.356 6.05872L30.5701 5.36594L29.8766 6.15261L30.6625 6.84539L31.356 6.05872Z" fill="#E6E6E6"/>
<path d="M7.68403 31.3285L6.89823 30.6358L6.20467 31.4226L6.99047 32.1153L7.68403 31.3285Z" fill="#D34216"/>
<path d="M8.37748 30.5419L7.59168 29.8492L6.89823 30.6358L7.68403 31.3285L8.37748 30.5419Z" fill="#F5A22B"/>
<path d="M9.07103 29.7551L8.28524 29.0624L7.59168 29.8492L8.37748 30.5419L9.07103 29.7551Z" fill="#FFD862"/>
<path d="M9.76448 28.9684L8.97869 28.2757L8.28524 29.0624L9.07103 29.7551L9.76448 28.9684Z" fill="#FFD862"/>
<path d="M10.458 28.1816L9.67224 27.4889L8.97869 28.2757L9.76448 28.9684L10.458 28.1816Z" fill="#FFD862"/>
<path d="M11.1517 27.3947L10.3659 26.702L9.67235 27.4888L10.4581 28.1815L11.1517 27.3947Z" fill="#E52939"/>
<path d="M11.845 26.6081L11.0592 25.9155L10.3658 26.7021L11.1516 27.3948L11.845 26.6081Z" fill="#C6C6C4"/>
<path d="M12.5387 25.8212L11.7529 25.1286L11.0594 25.9153L11.8451 26.608L12.5387 25.8212Z" fill="#E6E6E6"/>
<path d="M13.232 25.0347L12.4462 24.342L11.7528 25.1287L12.5386 25.8214L13.232 25.0347Z" fill="#C6C6C4"/>
<path d="M13.9257 24.2478L13.1399 23.5551L12.4464 24.3419L13.2322 25.0346L13.9257 24.2478Z" fill="#C10C22"/>
<path d="M14.619 23.4612L13.8333 22.7686L13.1398 23.5552L13.9256 24.2479L14.619 23.4612Z" fill="white"/>
<path d="M15.3127 22.6743L14.5269 21.9816L13.8334 22.7684L14.6192 23.4611L15.3127 22.6743Z" fill="white"/>
<path d="M16.0063 21.8875L15.2205 21.1949L14.5269 21.9816L15.3127 22.6743L16.0063 21.8875Z" fill="white"/>
<path d="M16.6997 21.1009L15.9139 20.4082L15.2205 21.1949L16.0063 21.8875L16.6997 21.1009Z" fill="white"/>
<path d="M17.3933 20.3141L16.6075 19.6214L15.9139 20.4082L16.6997 21.1009L17.3933 20.3141Z" fill="white"/>
<path d="M18.0867 19.5274L17.3009 18.8347L16.6075 19.6214L17.3933 20.3141L18.0867 19.5274Z" fill="white"/>
<path d="M18.7803 18.7406L17.9945 18.0479L17.3009 18.8347L18.0867 19.5274L18.7803 18.7406Z" fill="#C10C22"/>
<path d="M19.4737 17.954L18.6879 17.2613L17.9945 18.0479L18.7803 18.7406L19.4737 17.954Z" fill="#C10C22"/>
<path d="M20.1673 17.1672L19.3815 16.4745L18.6879 17.2613L19.4737 17.954L20.1673 17.1672Z" fill="#C10C22"/>
<path d="M20.8609 16.3803L20.0751 15.6876L19.3816 16.4744L20.1674 17.167L20.8609 16.3803Z" fill="white"/>
<path d="M21.5544 15.5936L20.7686 14.9009L20.0751 15.6876L20.8609 16.3803L21.5544 15.5936Z" fill="white"/>
<path d="M22.2479 14.8068L21.4621 14.1141L20.7686 14.9009L21.5544 15.5936L22.2479 14.8068Z" fill="white"/>
<path d="M22.9414 14.0201L22.1556 13.3275L21.4621 14.1141L22.2479 14.8068L22.9414 14.0201Z" fill="white"/>
<path d="M23.6349 13.2333L22.8492 12.5407L22.1556 13.3275L22.9414 14.0201L23.6349 13.2333Z" fill="white"/>
<path d="M24.3284 12.4467L23.5426 11.754L22.8492 12.5407L23.6349 13.2333L24.3284 12.4467Z" fill="#C10C22"/>
<path d="M25.022 11.6599L24.2362 10.9672L23.5426 11.754L24.3284 12.4467L25.022 11.6599Z" fill="#C10C22"/>
<path d="M25.7156 10.873L24.9298 10.1803L24.2363 10.9671L25.0221 11.6598L25.7156 10.873Z" fill="#C10C22"/>
<path d="M26.409 10.0864L25.6232 9.39375L24.9297 10.1804L25.7155 10.8731L26.409 10.0864Z" fill="white"/>
<path d="M27.1026 9.29952L26.3168 8.60684L25.6233 9.39363L26.4091 10.0863L27.1026 9.29952Z" fill="white"/>
<path d="M27.796 8.51297L27.0102 7.82029L26.3167 8.60696L27.1025 9.29964L27.796 8.51297Z" fill="white"/>
<path d="M28.4896 7.72606L27.7038 7.03338L27.0103 7.82017L27.7961 8.51285L28.4896 7.72606Z" fill="white"/>
<path d="M29.183 6.93951L28.3972 6.24683L27.7037 7.0335L28.4895 7.72618L29.183 6.93951Z" fill="white"/>
<path d="M29.8766 6.15261L29.0908 5.45993L28.3973 6.24671L29.1831 6.93939L29.8766 6.15261Z" fill="white"/>
<path d="M30.5701 5.36594L29.7843 4.67326L29.0908 5.45993L29.8766 6.15261L30.5701 5.36594Z" fill="white"/>
<path d="M31.2636 4.57915L30.4778 3.88647L29.7843 4.67326L30.5701 5.36594L31.2636 4.57915Z" fill="#C10C22"/>
<path d="M7.59168 29.8492L6.80576 29.1564L6.11232 29.943L6.89823 30.6358L7.59168 29.8492Z" fill="#D34216"/>
<path d="M8.28524 29.0624L7.49932 28.3696L6.80576 29.1564L7.59168 29.8492L8.28524 29.0624Z" fill="#F5A22B"/>
<path d="M8.97869 28.2757L8.19277 27.5829L7.49932 28.3696L8.28524 29.0624L8.97869 28.2757Z" fill="#FFD862"/>
<path d="M9.67224 27.4889L8.88632 26.7961L8.19277 27.5829L8.97869 28.2757L9.67224 27.4889Z" fill="#FFD862"/>
<path d="M10.3659 26.702L9.57999 26.0092L8.88643 26.796L9.67235 27.4888L10.3659 26.702Z" fill="#E52939"/>
<path d="M11.0592 25.9155L10.2733 25.2227L9.57988 26.0094L10.3658 26.7021L11.0592 25.9155Z" fill="#C6C6C4"/>
<path d="M11.7529 25.1286L10.967 24.4358L10.2734 25.2226L11.0594 25.9153L11.7529 25.1286Z" fill="#E6E6E6"/>
<path d="M12.4462 24.342L11.6603 23.6492L10.9669 24.4359L11.7528 25.1287L12.4462 24.342Z" fill="#C6C6C4"/>
<path d="M13.1399 23.5551L12.354 22.8623L11.6604 23.6491L12.4464 24.3419L13.1399 23.5551Z" fill="#E52939"/>
<path d="M13.8333 22.7686L13.0473 22.0758L12.3539 22.8624L13.1398 23.5552L13.8333 22.7686Z" fill="white"/>
<path d="M14.5269 21.9816L13.741 21.2889L13.0474 22.0756L13.8334 22.7684L14.5269 21.9816Z" fill="white"/>
<path d="M15.2205 21.1949L14.4346 20.5021L13.741 21.2889L14.5269 21.9816L15.2205 21.1949Z" fill="white"/>
<path d="M15.9139 20.4082L15.128 19.7154L14.4346 20.5021L15.2205 21.1949L15.9139 20.4082Z" fill="white"/>
<path d="M16.6075 19.6214L15.8216 18.9286L15.128 19.7154L15.9139 20.4082L16.6075 19.6214Z" fill="white"/>
<path d="M17.3009 18.8347L16.515 18.1419L15.8216 18.9286L16.6075 19.6214L17.3009 18.8347Z" fill="#C10C22"/>
<path d="M17.9945 18.0479L17.2086 17.3552L16.515 18.1419L17.3009 18.8347L17.9945 18.0479Z" fill="#FBD914"/>
<path d="M18.6879 17.2613L17.902 16.5685L17.2086 17.3552L17.9945 18.0479L18.6879 17.2613Z" fill="#FBD914"/>
<path d="M19.3815 16.4745L18.5956 15.7817L17.902 16.5685L18.6879 17.2613L19.3815 16.4745Z" fill="#FBD914"/>
<path d="M20.0751 15.6876L19.2892 14.9948L18.5957 15.7816L19.3816 16.4744L20.0751 15.6876Z" fill="#E52939"/>
<path d="M20.7686 14.9009L19.9827 14.2081L19.2892 14.9948L20.0751 15.6876L20.7686 14.9009Z" fill="white"/>
<path d="M21.4621 14.1141L20.6762 13.4213L19.9827 14.2081L20.7686 14.9009L21.4621 14.1141Z" fill="white"/>
<path d="M22.1556 13.3275L21.3697 12.6347L20.6762 13.4213L21.4621 14.1141L22.1556 13.3275Z" fill="white"/>
<path d="M22.8492 12.5407L22.0632 11.8479L21.3697 12.6347L22.1556 13.3275L22.8492 12.5407Z" fill="#C10C22"/>
<path d="M23.5426 11.754L22.7567 11.0612L22.0632 11.8479L22.8492 12.5407L23.5426 11.754Z" fill="#FBD914"/>
<path d="M24.2362 10.9672L23.4502 10.2744L22.7567 11.0612L23.5426 11.754L24.2362 10.9672Z" fill="#FBD914"/>
<path d="M24.9298 10.1803L24.1439 9.48751L23.4503 10.2743L24.2363 10.9671L24.9298 10.1803Z" fill="#FBD914"/>
<path d="M25.6232 9.39375L24.8372 8.70096L24.1438 9.48763L24.9297 10.1804L25.6232 9.39375Z" fill="#E52939"/>
<path d="M26.3168 8.60684L25.5309 7.91405L24.8374 8.70084L25.6233 9.39363L26.3168 8.60684Z" fill="white"/>
<path d="M27.0102 7.82029L26.2243 7.12751L25.5308 7.91417L26.3167 8.60696L27.0102 7.82029Z" fill="white"/>
<path d="M27.7038 7.03338L26.9179 6.3406L26.2244 7.12738L27.0103 7.82017L27.7038 7.03338Z" fill="white"/>
<path d="M28.3972 6.24683L27.6113 5.55405L26.9178 6.34072L27.7037 7.0335L28.3972 6.24683Z" fill="white"/>
<path d="M29.0908 5.45993L28.3049 4.76714L27.6114 5.55393L28.3973 6.24671L29.0908 5.45993Z" fill="white"/>
<path d="M29.7843 4.67326L28.9984 3.98047L28.3049 4.76714L29.0908 5.45993L29.7843 4.67326Z" fill="white"/>
<path d="M30.4778 3.88647L29.6919 3.19368L28.9984 3.98047L29.7843 4.67326L30.4778 3.88647Z" fill="#E52939"/>
<path d="M31.1714 3.09968L30.3855 2.40689L29.6919 3.19368L30.4778 3.88647L31.1714 3.09968Z" fill="#C10C22"/>
<path d="M6.80576 29.1564L6.01997 28.4637L5.32652 29.2504L6.11232 29.943L6.80576 29.1564Z" fill="#F5A22B"/>
<path d="M7.49932 28.3696L6.71352 27.6769L6.01997 28.4637L6.80576 29.1564L7.49932 28.3696Z" fill="#F5A22B"/>
<path d="M8.19277 27.5829L7.40697 26.8902L6.71352 27.6769L7.49932 28.3696L8.19277 27.5829Z" fill="#FFD862"/>
<path d="M8.88632 26.7961L8.10053 26.1035L7.40697 26.8902L8.19277 27.5829L8.88632 26.7961Z" fill="#FFD862"/>
<path d="M9.57999 26.0092L8.79419 25.3165L8.10063 26.1033L8.88643 26.796L9.57999 26.0092Z" fill="#E52939"/>
<path d="M10.2733 25.2227L9.48753 24.53L8.79408 25.3167L9.57988 26.0094L10.2733 25.2227Z" fill="#C6C6C4"/>
<path d="M10.967 24.4358L10.1812 23.7431L9.48764 24.5299L10.2734 25.2226L10.967 24.4358Z" fill="#E6E6E6"/>
<path d="M11.6603 23.6492L10.8745 22.9565L10.1811 23.7432L10.9669 24.4359L11.6603 23.6492Z" fill="#C6C6C4"/>
<path d="M12.354 22.8623L11.5682 22.1696L10.8746 22.9564L11.6604 23.6491L12.354 22.8623Z" fill="#E52939"/>
<path d="M13.0473 22.0758L12.2615 21.3831L11.5681 22.1698L12.3539 22.8624L13.0473 22.0758Z" fill="white"/>
<path d="M13.741 21.2889L12.9552 20.5962L12.2616 21.383L13.0474 22.0756L13.741 21.2889Z" fill="white"/>
<path d="M14.4346 20.5021L13.6488 19.8094L12.9552 20.5962L13.741 21.2889L14.4346 20.5021Z" fill="white"/>
<path d="M15.128 19.7154L14.3422 19.0227L13.6488 19.8094L14.4346 20.5021L15.128 19.7154Z" fill="white"/>
<path d="M15.8216 18.9286L15.0358 18.2359L14.3422 19.0227L15.128 19.7154L15.8216 18.9286Z" fill="white"/>
<path d="M16.515 18.1419L15.7292 17.4493L15.0358 18.2359L15.8216 18.9286L16.515 18.1419Z" fill="#C10C22"/>
<path d="M17.2086 17.3552L16.4228 16.6625L15.7292 17.4493L16.515 18.1419L17.2086 17.3552Z" fill="#FBD914"/>
<path d="M17.902 16.5685L17.1162 15.8758L16.4228 16.6625L17.2086 17.3552L17.902 16.5685Z" fill="#FBD914"/>
<path d="M18.5956 15.7817L17.8098 15.089L17.1162 15.8758L17.902 16.5685L18.5956 15.7817Z" fill="#FBD914"/>
<path d="M19.2892 14.9948L18.5034 14.3021L17.8099 15.0889L18.5957 15.7816L19.2892 14.9948Z" fill="#E52939"/>
<path d="M19.9827 14.2081L19.1969 13.5154L18.5034 14.3021L19.2892 14.9948L19.9827 14.2081Z" fill="white"/>
<path d="M20.6762 13.4213L19.8904 12.7287L19.1969 13.5154L19.9827 14.2081L20.6762 13.4213Z" fill="white"/>
<path d="M21.3697 12.6347L20.5839 11.942L19.8904 12.7287L20.6762 13.4213L21.3697 12.6347Z" fill="white"/>
<path d="M22.0632 11.8479L21.2774 11.1552L20.5839 11.942L21.3697 12.6347L22.0632 11.8479Z" fill="#C10C22"/>
<path d="M22.7567 11.0612L21.9709 10.3685L21.2774 11.1552L22.0632 11.8479L22.7567 11.0612Z" fill="#FBD914"/>
<path d="M23.4502 10.2744L22.6644 9.58174L21.9709 10.3685L22.7567 11.0612L23.4502 10.2744Z" fill="#FBD914"/>
<path d="M24.1439 9.48751L23.3581 8.79483L22.6646 9.58162L23.4503 10.2743L24.1439 9.48751Z" fill="#FBD914"/>
<path d="M24.8372 8.70096L24.0514 8.00828L23.358 8.79495L24.1438 9.48763L24.8372 8.70096Z" fill="#E52939"/>
<path d="M25.5309 7.91405L24.7451 7.22137L24.0516 8.00816L24.8374 8.70084L25.5309 7.91405Z" fill="white"/>
<path d="M26.2243 7.12751L25.4385 6.43482L24.745 7.22149L25.5308 7.91417L26.2243 7.12751Z" fill="white"/>
<path d="M26.9179 6.3406L26.1321 5.64792L25.4386 6.4347L26.2244 7.12738L26.9179 6.3406Z" fill="white"/>
<path d="M27.6113 5.55405L26.8255 4.86137L26.132 5.64804L26.9178 6.34072L27.6113 5.55405Z" fill="white"/>
<path d="M28.3049 4.76714L27.5191 4.07446L26.8256 4.86125L27.6114 5.55393L28.3049 4.76714Z" fill="white"/>
<path d="M28.9984 3.98047L28.2126 3.28779L27.5191 4.07446L28.3049 4.76714L28.9984 3.98047Z" fill="white"/>
<path d="M29.6919 3.19368L28.9061 2.501L28.2126 3.28779L28.9984 3.98047L29.6919 3.19368Z" fill="#E52939"/>
<path d="M30.3855 2.40689L29.5997 1.71421L28.9061 2.501L29.6919 3.19368L30.3855 2.40689Z" fill="#E52939"/>
<path d="M31.0789 1.62023L30.2931 0.927545L29.5997 1.71421L30.3855 2.40689L31.0789 1.62023Z" fill="#C10C22"/>
<path d="M2.5523 32.3975L1.76638 31.7047L1.07293 32.4914L1.85885 33.1842L2.5523 32.3975Z" fill="#D34216"/>
<path d="M3.24596 31.6106L2.46004 30.9178L1.76649 31.7046L2.55241 32.3974L3.24596 31.6106Z" fill="#D34216"/>
<path d="M3.93952 30.8238L3.1536 30.131L2.46004 30.9178L3.24596 31.6106L3.93952 30.8238Z" fill="#D34216"/>
<path d="M4.63297 30.0372L3.84705 29.3444L3.1536 30.131L3.93952 30.8238L4.63297 30.0372Z" fill="#D34216"/>
<path d="M5.32652 29.2504L4.5406 28.5576L3.84705 29.3444L4.63297 30.0372L5.32652 29.2504Z" fill="#F5A22B"/>
<path d="M6.01997 28.4637L5.23405 27.7709L4.5406 28.5576L5.32652 29.2504L6.01997 28.4637Z" fill="#F5A22B"/>
<path d="M6.71352 27.6769L5.92761 26.9841L5.23405 27.7709L6.01997 28.4637L6.71352 27.6769Z" fill="#FFD862"/>
<path d="M7.40697 26.8902L6.62106 26.1975L5.92761 26.9841L6.71352 27.6769L7.40697 26.8902Z" fill="#FFD862"/>
<path d="M8.10053 26.1035L7.31461 25.4107L6.62106 26.1975L7.40697 26.8902L8.10053 26.1035Z" fill="#FFD862"/>
<path d="M8.79419 25.3165L8.00827 24.6238L7.31472 25.4106L8.10063 26.1033L8.79419 25.3165Z" fill="#E52939"/>
<path d="M9.48753 24.53L8.70161 23.8372L8.00817 24.6239L8.79408 25.3167L9.48753 24.53Z" fill="#C6C6C4"/>
<path d="M10.1812 23.7431L9.39528 23.0503L8.70172 23.8371L9.48764 24.5299L10.1812 23.7431Z" fill="#E6E6E6"/>
<path d="M10.8745 22.9565L10.0886 22.2638L9.39517 23.0504L10.1811 23.7432L10.8745 22.9565Z" fill="#C6C6C4"/>
<path d="M11.5682 22.1696L10.7823 21.4768L10.0887 22.2636L10.8746 22.9564L11.5682 22.1696Z" fill="#E52939"/>
<path d="M12.2615 21.3831L11.4756 20.6903L10.7822 21.477L11.5681 22.1698L12.2615 21.3831Z" fill="white"/>
<path d="M12.9552 20.5962L12.1693 19.9034L11.4757 20.6902L12.2616 21.383L12.9552 20.5962Z" fill="white"/>
<path d="M13.6488 19.8094L12.8628 19.1166L12.1693 19.9034L12.9552 20.5962L13.6488 19.8094Z" fill="white"/>
<path d="M14.3422 19.0227L13.5563 18.3299L12.8628 19.1166L13.6488 19.8094L14.3422 19.0227Z" fill="white"/>
<path d="M15.0358 18.2359L14.2498 17.5431L13.5563 18.3299L14.3422 19.0227L15.0358 18.2359Z" fill="white"/>
<path d="M15.7292 17.4493L14.9433 16.7565L14.2498 17.5431L15.0358 18.2359L15.7292 17.4493Z" fill="#C10C22"/>
<path d="M16.4228 16.6625L15.6369 15.9697L14.9433 16.7565L15.7292 17.4493L16.4228 16.6625Z" fill="#FBD914"/>
<path d="M17.1162 15.8758L16.3303 15.183L15.6369 15.9697L16.4228 16.6625L17.1162 15.8758Z" fill="#FBD914"/>
<path d="M17.8098 15.089L17.0239 14.3962L16.3303 15.183L17.1162 15.8758L17.8098 15.089Z" fill="white"/>
<path d="M18.5034 14.3021L17.7175 13.6093L17.024 14.3961L17.8099 15.0889L18.5034 14.3021Z" fill="#E52939"/>
<path d="M19.1969 13.5154L18.411 12.8227L17.7175 13.6093L18.5034 14.3021L19.1969 13.5154Z" fill="white"/>
<path d="M19.8904 12.7287L19.1045 12.0359L18.411 12.8227L19.1969 13.5154L19.8904 12.7287Z" fill="white"/>
<path d="M20.5839 11.942L19.798 11.2492L19.1045 12.0359L19.8904 12.7287L20.5839 11.942Z" fill="white"/>
<path d="M21.2774 11.1552L20.4915 10.4624L19.798 11.2492L20.5839 11.942L21.2774 11.1552Z" fill="#C10C22"/>
<path d="M21.9709 10.3685L21.185 9.67574L20.4915 10.4624L21.2774 11.1552L21.9709 10.3685Z" fill="#FBD914"/>
<path d="M22.6644 9.58174L21.8785 8.88895L21.185 9.67574L21.9709 10.3685L22.6644 9.58174Z" fill="#FBD914"/>
<path d="M23.3581 8.79483L22.5722 8.10204L21.8786 8.88883L22.6646 9.58162L23.3581 8.79483Z" fill="white"/>
<path d="M24.0514 8.00828L23.2655 7.3155L22.5721 8.10216L23.358 8.79495L24.0514 8.00828Z" fill="#E52939"/>
<path d="M24.7451 7.22137L23.9592 6.52859L23.2656 7.31538L24.0516 8.00816L24.7451 7.22137Z" fill="white"/>
<path d="M25.4385 6.43482L24.6525 5.74204L23.9591 6.52871L24.745 7.22149L25.4385 6.43482Z" fill="white"/>
<path d="M26.1321 5.64792L25.3462 4.95513L24.6526 5.74192L25.4386 6.4347L26.1321 5.64792Z" fill="white"/>
<path d="M26.8255 4.86137L26.0395 4.16858L25.3461 4.95525L26.132 5.64804L26.8255 4.86137Z" fill="white"/>
<path d="M27.5191 4.07446L26.7332 3.38167L26.0396 4.16846L26.8256 4.86125L27.5191 4.07446Z" fill="white"/>
<path d="M28.2126 3.28779L27.4267 2.595L26.7332 3.38167L27.5191 4.07446L28.2126 3.28779Z" fill="white"/>
<path d="M28.9061 2.501L28.1202 1.80822L27.4267 2.595L28.2126 3.28779L28.9061 2.501Z" fill="#E52939"/>
<path d="M29.5997 1.71421L28.8138 1.02143L28.1202 1.80822L28.9061 2.501L29.5997 1.71421Z" fill="#E52939"/>
<path d="M2.45992 30.9177L1.67401 30.2249L0.980453 31.0117L1.76637 31.7045L2.45992 30.9177Z" fill="#D34216"/>
<path d="M3.15348 30.1309L2.36756 29.4381L1.67401 30.2249L2.45992 30.9177L3.15348 30.1309Z" fill="#F5A22B"/>
<path d="M3.84693 29.3443L3.06101 28.6515L2.36756 29.4381L3.15348 30.1309L3.84693 29.3443Z" fill="#F5A22B"/>
<path d="M4.54048 28.5575L3.75457 27.8647L3.06101 28.6515L3.84693 29.3443L4.54048 28.5575Z" fill="#F5A22B"/>
<path d="M5.23393 27.7708L4.44801 27.078L3.75457 27.8647L4.54048 28.5575L5.23393 27.7708Z" fill="#F5A22B"/>
<path d="M5.92749 26.984L5.14157 26.2912L4.44801 27.078L5.23393 27.7708L5.92749 26.984Z" fill="#FFD862"/>
<path d="M6.62094 26.1974L5.83502 25.5046L5.14157 26.2912L5.92749 26.984L6.62094 26.1974Z" fill="#FFD862"/>
<path d="M7.31449 25.4106L6.52857 24.7178L5.83502 25.5046L6.62094 26.1974L7.31449 25.4106Z" fill="#FFD862"/>
<path d="M8.00815 24.6237L7.22224 23.9309L6.52868 24.7177L7.3146 25.4104L8.00815 24.6237Z" fill="#E52939"/>
<path d="M8.70149 23.8371L7.91558 23.1443L7.22213 23.931L8.00804 24.6238L8.70149 23.8371Z" fill="#C6C6C4"/>
<path d="M9.39516 23.0502L8.60924 22.3574L7.91568 23.1442L8.7016 23.837L9.39516 23.0502Z" fill="#E6E6E6"/>
<path d="M10.0885 22.2637L9.30258 21.5709L8.60913 22.3575L9.39505 23.0503L10.0885 22.2637Z" fill="#C6C6C4"/>
<path d="M10.7822 21.4767L9.99624 20.784L9.30269 21.5707L10.0886 22.2635L10.7822 21.4767Z" fill="#C10C22"/>
<path d="M11.4755 20.6902L10.6896 19.9974L9.99614 20.7841L10.7821 21.4769L11.4755 20.6902Z" fill="white"/>
<path d="M12.1692 19.9033L11.3832 19.2105L10.6897 19.9973L11.4756 20.6901L12.1692 19.9033Z" fill="white"/>
<path d="M12.8627 19.1165L12.0768 18.4237L11.3832 19.2105L12.1692 19.9033L12.8627 19.1165Z" fill="white"/>
<path d="M13.5562 18.3298L12.7703 17.637L12.0768 18.4237L12.8627 19.1165L13.5562 18.3298Z" fill="white"/>
<path d="M14.2497 17.543L13.4638 16.8503L12.7703 17.637L13.5562 18.3298L14.2497 17.543Z" fill="white"/>
<path d="M14.9432 16.7564L14.1573 16.0636L13.4638 16.8503L14.2497 17.543L14.9432 16.7564Z" fill="white"/>
<path d="M15.6367 15.9696L14.8508 15.2768L14.1573 16.0636L14.9432 16.7564L15.6367 15.9696Z" fill="#E52939"/>
<path d="M16.3302 15.1829L15.5443 14.4901L14.8508 15.2768L15.6367 15.9696L16.3302 15.1829Z" fill="#E52939"/>
<path d="M17.0237 14.3961L16.2378 13.7033L15.5443 14.4901L16.3302 15.1829L17.0237 14.3961Z" fill="#E52939"/>
<path d="M17.7174 13.6092L16.9315 12.9164L16.2379 13.7032L17.0238 14.396L17.7174 13.6092Z" fill="white"/>
<path d="M18.4108 12.8225L17.6249 12.1298L16.9315 12.9164L17.7174 13.6092L18.4108 12.8225Z" fill="white"/>
<path d="M19.1044 12.0358L18.3185 11.343L17.6249 12.1298L18.4108 12.8225L19.1044 12.0358Z" fill="white"/>
<path d="M19.7978 11.2491L19.0119 10.5563L18.3185 11.343L19.1044 12.0358L19.7978 11.2491Z" fill="white"/>
<path d="M20.4914 10.4623L19.7055 9.76952L19.0119 10.5563L19.7978 11.2491L20.4914 10.4623Z" fill="white"/>
<path d="M21.1849 9.67564L20.3989 8.98285L19.7055 9.76952L20.4914 10.4623L21.1849 9.67564Z" fill="#E52939"/>
<path d="M21.8784 8.88885L21.0925 8.19606L20.3989 8.98285L21.1849 9.67564L21.8784 8.88885Z" fill="#E52939"/>
<path d="M22.5721 8.10194L21.7862 7.40915L21.0926 8.19594L21.8785 8.88873L22.5721 8.10194Z" fill="#E52939"/>
<path d="M23.2654 7.31539L22.4795 6.6226L21.786 7.40927L22.572 8.10206L23.2654 7.31539Z" fill="white"/>
<path d="M23.9591 6.52848L23.1732 5.83569L22.4796 6.62248L23.2655 7.31527L23.9591 6.52848Z" fill="white"/>
<path d="M24.6524 5.74193L23.8665 5.04915L23.1731 5.83581L23.959 6.5286L24.6524 5.74193Z" fill="white"/>
<path d="M25.3461 4.95502L24.5602 4.26224L23.8666 5.04903L24.6525 5.74181L25.3461 4.95502Z" fill="white"/>
<path d="M26.0394 4.16848L25.2535 3.47569L24.5601 4.26236L25.346 4.95514L26.0394 4.16848Z" fill="white"/>
<path d="M26.7331 3.38157L25.9472 2.68878L25.2536 3.47557L26.0395 4.16836L26.7331 3.38157Z" fill="white"/>
<path d="M27.4265 2.5949L26.6406 1.90211L25.9472 2.68878L26.7331 3.38157L27.4265 2.5949Z" fill="white"/>
<path d="M28.1201 1.80811L27.3342 1.11532L26.6406 1.90211L27.4265 2.5949L28.1201 1.80811Z" fill="#E52939"/>
<path d="M3.75469 27.8648L2.96889 27.1721L2.27533 27.9589L3.06113 28.6516L3.75469 27.8648Z" fill="#D34216"/>
<path d="M4.44814 27.0781L3.66234 26.3855L2.96889 27.1721L3.75469 27.8648L4.44814 27.0781Z" fill="#F5A22B"/>
<path d="M5.14169 26.2913L4.35589 25.5987L3.66234 26.3855L4.44814 27.0781L5.14169 26.2913Z" fill="#F5A22B"/>
<path d="M5.83514 25.5047L5.04934 24.812L4.35589 25.5987L5.14169 26.2913L5.83514 25.5047Z" fill="#F5A22B"/>
<path d="M6.5287 24.7179L5.7429 24.0252L5.04934 24.812L5.83514 25.5047L6.5287 24.7179Z" fill="#F5A22B"/>
<path d="M7.22236 23.931L6.43656 23.2383L5.74301 24.0251L6.5288 24.7178L7.22236 23.931Z" fill="#C10C22"/>
<path d="M7.9157 23.1444L7.1299 22.4518L6.43645 23.2384L7.22225 23.9311L7.9157 23.1444Z" fill="#C6C6C4"/>
<path d="M8.60936 22.3575L7.82357 21.6648L7.13001 22.4516L7.91581 23.1443L8.60936 22.3575Z" fill="#E6E6E6"/>
<path d="M9.3027 21.571L8.51691 20.8783L7.82346 21.665L8.60925 22.3576L9.3027 21.571Z" fill="#C6C6C4"/>
<path d="M9.99637 20.7841L9.21057 20.0914L8.51702 20.8782L9.30281 21.5709L9.99637 20.7841Z" fill="#C10C22"/>
<path d="M10.6897 19.9975L9.90391 19.3048L9.21046 20.0915L9.99626 20.7842L10.6897 19.9975Z" fill="white"/>
<path d="M11.3834 19.2106L10.5976 18.5179L9.90402 19.3047L10.6898 19.9974L11.3834 19.2106Z" fill="white"/>
<path d="M12.0769 18.4238L11.2911 17.7311L10.5976 18.5179L11.3834 19.2106L12.0769 18.4238Z" fill="white"/>
<path d="M12.7704 17.6371L11.9846 16.9445L11.2911 17.7311L12.0769 18.4238L12.7704 17.6371Z" fill="white"/>
<path d="M13.4639 16.8504L12.6781 16.1577L11.9846 16.9445L12.7704 17.6371L13.4639 16.8504Z" fill="white"/>
<path d="M14.1574 16.0637L13.3716 15.371L12.6781 16.1577L13.4639 16.8504L14.1574 16.0637Z" fill="white"/>
<path d="M14.8509 15.2769L14.0651 14.5842L13.3716 15.371L14.1574 16.0637L14.8509 15.2769Z" fill="white"/>
<path d="M15.5444 14.4902L14.7586 13.7976L14.0651 14.5842L14.8509 15.2769L15.5444 14.4902Z" fill="white"/>
<path d="M16.2379 13.7034L15.4521 13.0108L14.7586 13.7976L15.5444 14.4902L16.2379 13.7034Z" fill="white"/>
<path d="M16.9316 12.9165L16.1458 12.2239L15.4522 13.0106L16.238 13.7033L16.9316 12.9165Z" fill="white"/>
<path d="M17.625 12.1299L16.8393 11.4372L16.1458 12.2239L16.9316 12.9165L17.625 12.1299Z" fill="white"/>
<path d="M18.3186 11.3431L17.5328 10.6504L16.8393 11.4372L17.625 12.1299L18.3186 11.3431Z" fill="white"/>
<path d="M19.0121 10.5564L18.2263 9.86373L17.5328 10.6504L18.3186 11.3431L19.0121 10.5564Z" fill="white"/>
<path d="M19.7056 9.76962L18.9198 9.07694L18.2263 9.86373L19.0121 10.5564L19.7056 9.76962Z" fill="white"/>
<path d="M20.3991 8.98296L19.6133 8.29028L18.9198 9.07694L19.7056 9.76962L20.3991 8.98296Z" fill="white"/>
<path d="M21.0926 8.19617L20.3068 7.50349L19.6133 8.29028L20.3991 8.98296L21.0926 8.19617Z" fill="white"/>
<path d="M21.7863 7.40926L21.0005 6.71658L20.3069 7.50337L21.0927 8.19605L21.7863 7.40926Z" fill="white"/>
<path d="M22.4796 6.62271L21.6938 5.93003L21.0004 6.7167L21.7862 7.40938L22.4796 6.62271Z" fill="white"/>
<path d="M23.1733 5.8358L22.3875 5.14312L21.6939 5.92991L22.4797 6.62259L23.1733 5.8358Z" fill="white"/>
<path d="M23.8666 5.04925L23.0808 4.35657L22.3874 5.14324L23.1732 5.83592L23.8666 5.04925Z" fill="white"/>
<path d="M24.5603 4.26234L23.7745 3.56966L23.0809 4.35645L23.8667 5.04913L24.5603 4.26234Z" fill="white"/>
<path d="M25.2536 3.4758L24.4678 2.78312L23.7744 3.56978L24.5602 4.26246L25.2536 3.4758Z" fill="white"/>
<path d="M25.9473 2.68889L25.1615 1.99621L24.4679 2.78299L25.2537 3.47567L25.9473 2.68889Z" fill="white"/>
<path d="M26.6407 1.90222L25.8549 1.20954L25.1615 1.99621L25.9473 2.68889L26.6407 1.90222Z" fill="#E6E6E6"/>
<path d="M3.66222 26.3853L2.8763 25.6926L2.18286 26.4792L2.96877 27.172L3.66222 26.3853Z" fill="#D34216"/>
<path d="M4.35577 25.5986L3.56986 24.9058L2.8763 25.6926L3.66222 26.3853L4.35577 25.5986Z" fill="#D34216"/>
<path d="M5.04922 24.8119L4.26331 24.1191L3.56986 24.9058L4.35577 25.5986L5.04922 24.8119Z" fill="#D34216"/>
<path d="M6.43644 23.2382L5.65052 22.5454L4.95697 23.3322L5.74288 24.025L6.43644 23.2382Z" fill="#C10C22"/>
<path d="M7.82344 21.6647L7.03753 20.9719L6.34397 21.7587L7.12989 22.4515L7.82344 21.6647Z" fill="#E6E6E6"/>
<path d="M8.51679 20.8782L7.73087 20.1854L7.03742 20.9721L7.82334 21.6649L8.51679 20.8782Z" fill="#C6C6C4"/>
<path d="M9.21045 20.0913L8.42453 19.3985L7.73098 20.1853L8.51689 20.8781L9.21045 20.0913Z" fill="#C10C22"/>
<path d="M9.90379 19.3047L9.11787 18.6119L8.42442 19.3986L9.21034 20.0914L9.90379 19.3047Z" fill="white"/>
<path d="M10.5975 18.5178L9.81154 17.825L9.11798 18.6118L9.9039 19.3046L10.5975 18.5178Z" fill="white"/>
<path d="M11.291 17.731L10.5051 17.0382L9.81154 17.825L10.5975 18.5178L11.291 17.731Z" fill="white"/>
<path d="M11.9845 16.9444L11.1985 16.2516L10.5051 17.0382L11.291 17.731L11.9845 16.9444Z" fill="white"/>
<path d="M12.678 16.1576L11.8921 15.4648L11.1985 16.2516L11.9845 16.9444L12.678 16.1576Z" fill="white"/>
<path d="M13.3715 15.3709L12.5855 14.6781L11.8921 15.4648L12.678 16.1576L13.3715 15.3709Z" fill="white"/>
<path d="M14.065 14.5841L13.2791 13.8913L12.5855 14.6781L13.3715 15.3709L14.065 14.5841Z" fill="white"/>
<path d="M14.7585 13.7974L13.9726 13.1047L13.2791 13.8913L14.065 14.5841L14.7585 13.7974Z" fill="white"/>
<path d="M15.452 13.0107L14.6661 12.3179L13.9726 13.1047L14.7585 13.7974L15.452 13.0107Z" fill="white"/>
<path d="M16.1457 12.2238L15.3598 11.531L14.6662 12.3178L15.4521 13.0105L16.1457 12.2238Z" fill="white"/>
<path d="M16.8391 11.4371L16.0532 10.7443L15.3598 11.531L16.1457 12.2238L16.8391 11.4371Z" fill="white"/>
<path d="M17.5327 10.6503L16.7468 9.95751L16.0532 10.7443L16.8391 11.4371L17.5327 10.6503Z" fill="white"/>
<path d="M18.2261 9.86362L17.4402 9.17084L16.7468 9.95751L17.5327 10.6503L18.2261 9.86362Z" fill="white"/>
<path d="M18.9197 9.07684L18.1338 8.38405L17.4402 9.17084L18.2261 9.86362L18.9197 9.07684Z" fill="white"/>
<path d="M19.6131 8.29017L18.8272 7.59738L18.1338 8.38405L18.9197 9.07684L19.6131 8.29017Z" fill="white"/>
<path d="M20.3067 7.50338L19.5208 6.81059L18.8272 7.59738L19.6131 8.29017L20.3067 7.50338Z" fill="white"/>
<path d="M21.0004 6.71647L20.2144 6.02368L19.5209 6.81047L20.3068 7.50326L21.0004 6.71647Z" fill="white"/>
<path d="M21.6937 5.92992L20.9078 5.23714L20.2143 6.0238L21.0003 6.71659L21.6937 5.92992Z" fill="white"/>
<path d="M22.3874 5.14301L21.6014 4.45023L20.9079 5.23702L21.6938 5.9298L22.3874 5.14301Z" fill="white"/>
<path d="M23.0807 4.35647L22.2948 3.66368L21.6013 4.45035L22.3873 5.14313L23.0807 4.35647Z" fill="white"/>
<path d="M23.7744 3.56956L22.9885 2.87677L22.2949 3.66356L23.0808 4.35634L23.7744 3.56956Z" fill="white"/>
<path d="M24.4677 2.78301L23.6818 2.09022L22.9883 2.87689L23.7743 3.56968L24.4677 2.78301Z" fill="#E6E6E6"/>
<path d="M25.1614 1.9961L24.3755 1.30331L23.6819 2.0901L24.4678 2.78289L25.1614 1.9961Z" fill="#E6E6E6"/>
<path d="M8.42465 19.3986L7.63886 18.7059L6.9453 19.4927L7.7311 20.1854L8.42465 19.3986Z" fill="#C10C22"/>
<path d="M9.118 18.612L8.3322 17.9194L7.63875 18.706L8.42455 19.3987L9.118 18.612Z" fill="white"/>
<path d="M9.81166 17.8251L9.02586 17.1325L8.33231 17.9192L9.1181 18.6119L9.81166 17.8251Z" fill="white"/>
<path d="M10.5052 17.0383L9.71942 16.3457L9.02586 17.1325L9.81166 17.8251L10.5052 17.0383Z" fill="white"/>
<path d="M11.1987 16.2517L10.4129 15.559L9.71942 16.3457L10.5052 17.0383L11.1987 16.2517Z" fill="white"/>
<path d="M11.8922 15.4649L11.1064 14.7722L10.4129 15.559L11.1987 16.2517L11.8922 15.4649Z" fill="white"/>
<path d="M12.5857 14.6782L11.7999 13.9855L11.1064 14.7722L11.8922 15.4649L12.5857 14.6782Z" fill="white"/>
<path d="M13.2792 13.8914L12.4934 13.1988L11.7999 13.9855L12.5857 14.6782L13.2792 13.8914Z" fill="white"/>
<path d="M13.9727 13.1048L13.1869 12.4121L12.4934 13.1988L13.2792 13.8914L13.9727 13.1048Z" fill="white"/>
<path d="M14.6662 12.318L13.8804 11.6253L13.1869 12.4121L13.9727 13.1048L14.6662 12.318Z" fill="white"/>
<path d="M15.3599 11.5311L14.5741 10.8384L13.8805 11.6252L14.6663 12.3179L15.3599 11.5311Z" fill="white"/>
<path d="M16.0533 10.7444L15.2675 10.0517L14.5741 10.8384L15.3599 11.5311L16.0533 10.7444Z" fill="white"/>
<path d="M16.7469 9.95761L15.9611 9.26493L15.2675 10.0517L16.0533 10.7444L16.7469 9.95761Z" fill="white"/>
<path d="M17.4403 9.17094L16.6545 8.47826L15.9611 9.26493L16.7469 9.95761L17.4403 9.17094Z" fill="white"/>
<path d="M18.1339 8.38416L17.3481 7.69148L16.6545 8.47826L17.4403 9.17094L18.1339 8.38416Z" fill="white"/>
<path d="M18.8273 7.59749L18.0415 6.90481L17.3481 7.69148L18.1339 8.38416L18.8273 7.59749Z" fill="white"/>
<path d="M19.5209 6.8107L18.7351 6.11802L18.0415 6.90481L18.8273 7.59749L19.5209 6.8107Z" fill="white"/>
<path d="M20.2146 6.02379L19.4288 5.33111L18.7352 6.1179L19.521 6.81058L20.2146 6.02379Z" fill="white"/>
<path d="M20.9079 5.23724L20.1221 4.54456L19.4287 5.33123L20.2145 6.02391L20.9079 5.23724Z" fill="white"/>
<path d="M21.6016 4.45033L20.8158 3.75765L20.1222 4.54444L20.908 5.23712L21.6016 4.45033Z" fill="white"/>
<path d="M22.2949 3.66379L21.5091 2.97111L20.8157 3.75777L21.6015 4.45045L22.2949 3.66379Z" fill="white"/>
<path d="M22.9886 2.87688L22.2028 2.1842L21.5092 2.97098L22.295 3.66366L22.9886 2.87688Z" fill="#E6E6E6"/>
<path d="M7.63874 18.7058L6.85282 18.013L6.15927 18.7998L6.94518 19.4926L7.63874 18.7058Z" fill="#C6C6C4"/>
<path d="M8.33208 17.9193L7.54616 17.2265L6.85271 18.0131L7.63863 18.7059L8.33208 17.9193Z" fill="#C6C6C4"/>
<path d="M9.02574 17.1324L8.23982 16.4396L7.54627 17.2264L8.33219 17.9191L9.02574 17.1324Z" fill="#C6C6C4"/>
<path d="M9.7193 16.3456L8.93338 15.6528L8.23982 16.4396L9.02574 17.1324L9.7193 16.3456Z" fill="#C6C6C4"/>
<path d="M10.4127 15.5589L9.62683 14.8661L8.93338 15.6528L9.7193 16.3456L10.4127 15.5589Z" fill="#C6C6C4"/>
<path d="M11.1063 14.7721L10.3204 14.0793L9.62683 14.8661L10.4127 15.5589L11.1063 14.7721Z" fill="#C6C6C4"/>
<path d="M11.7997 13.9854L11.0138 13.2927L10.3204 14.0793L11.1063 14.7721L11.7997 13.9854Z" fill="#C6C6C4"/>
<path d="M12.4933 13.1986L11.7074 12.5059L11.0138 13.2927L11.7997 13.9854L12.4933 13.1986Z" fill="#C6C6C4"/>
<path d="M13.1868 12.412L12.4008 11.7192L11.7074 12.5059L12.4933 13.1986L13.1868 12.412Z" fill="#C6C6C4"/>
<path d="M6.15916 18.7999L5.37336 18.1073L4.67991 18.8939L5.46571 19.5866L6.15916 18.7999Z" fill="#E6E6E6"/>
<path d="M6.85282 18.013L6.06702 17.3203L5.37347 18.1071L6.15927 18.7998L6.85282 18.013Z" fill="#E6E6E6"/>
<path d="M7.54616 17.2265L6.76037 16.5338L6.06692 17.3205L6.85271 18.0131L7.54616 17.2265Z" fill="#E6E6E6"/>
<path d="M8.23982 16.4396L7.45403 15.7469L6.76047 16.5337L7.54627 17.2264L8.23982 16.4396Z" fill="#E6E6E6"/>
<path d="M8.93338 15.6528L8.14758 14.9601L7.45403 15.7469L8.23982 16.4396L8.93338 15.6528Z" fill="#E6E6E6"/>
<path d="M9.62683 14.8661L8.84103 14.1734L8.14758 14.9601L8.93338 15.6528L9.62683 14.8661Z" fill="#E6E6E6"/>
<path d="M10.3204 14.0793L9.53459 13.3866L8.84103 14.1734L9.62683 14.8661L10.3204 14.0793Z" fill="#E6E6E6"/>
<path d="M11.0138 13.2927L10.228 12.6L9.53459 13.3866L10.3204 14.0793L11.0138 13.2927Z" fill="#E6E6E6"/>
<path d="M11.7074 12.5059L10.9216 11.8132L10.228 12.6L11.0138 13.2927L11.7074 12.5059Z" fill="#E6E6E6"/>
<path d="M4.68002 18.8938L3.8941 18.201L3.20055 18.9878L3.98646 19.6806L4.68002 18.8938Z" fill="#F3DD3E"/>
<path d="M5.37336 18.1073L4.58745 17.4145L3.894 18.2011L4.67991 18.8939L5.37336 18.1073Z" fill="#C10C22"/>
<path d="M6.06702 17.3203L5.28111 16.6276L4.58755 17.4143L5.37347 18.1071L6.06702 17.3203Z" fill="#C10C22"/>
<path d="M6.76037 16.5338L5.97445 15.841L5.281 16.6277L6.06692 17.3205L6.76037 16.5338Z" fill="#E52939"/>
<path d="M7.45403 15.7469L6.66811 15.0541L5.97456 15.8409L6.76047 16.5337L7.45403 15.7469Z" fill="#E52939"/>
<path d="M8.14758 14.9601L7.36167 14.2673L6.66811 15.0541L7.45403 15.7469L8.14758 14.9601Z" fill="#E52939"/>
<path d="M8.84103 14.1734L8.05512 13.4806L7.36167 14.2673L8.14758 14.9601L8.84103 14.1734Z" fill="#E52939"/>
<path d="M9.53459 13.3866L8.74867 12.6939L8.05512 13.4806L8.84103 14.1734L9.53459 13.3866Z" fill="#E52939"/>
<path d="M10.228 12.6L9.44212 11.9072L8.74867 12.6939L9.53459 13.3866L10.228 12.6Z" fill="#E52939"/>
<path d="M3.8941 18.201L3.10819 17.5082L2.41463 18.295L3.20055 18.9878L3.8941 18.201Z" fill="#F3DD3E"/>
<path d="M4.58745 17.4145L3.80153 16.7217L3.10808 17.5083L3.894 18.2011L4.58745 17.4145Z" fill="#C10C22"/>
<path d="M5.28111 16.6276L4.49519 15.9348L3.80164 16.7216L4.58755 17.4143L5.28111 16.6276Z" fill="#C10C22"/>
<path d="M5.97445 15.841L5.18853 15.1482L4.49508 15.9349L5.281 16.6277L5.97445 15.841Z" fill="#E52939"/>
<path d="M6.66811 15.0541L5.88219 14.3613L5.18864 15.1481L5.97456 15.8409L6.66811 15.0541Z" fill="#E52939"/>
<path d="M7.36167 14.2673L6.57575 13.5745L5.88219 14.3613L6.66811 15.0541L7.36167 14.2673Z" fill="#E52939"/>
<path d="M8.05512 13.4806L7.2692 12.7879L6.57575 13.5745L7.36167 14.2673L8.05512 13.4806Z" fill="#E52939"/>
<path d="M8.74867 12.6939L7.96276 12.0011L7.2692 12.7879L8.05512 13.4806L8.74867 12.6939Z" fill="#E52939"/>
<path d="M9.44212 11.9072L8.6562 11.2144L7.96276 12.0011L8.74867 12.6939L9.44212 11.9072Z" fill="#E52939"/>
<path d="M10.1357 11.1204L9.34976 10.4276L8.6562 11.2144L9.44212 11.9072L10.1357 11.1204Z" fill="#E52939"/>
<path d="M3.10819 17.5082L2.32239 16.8155L1.62884 17.6023L2.41463 18.295L3.10819 17.5082Z" fill="#F3DD3E"/>
<path d="M3.80153 16.7217L3.01573 16.029L2.32228 16.8157L3.10808 17.5083L3.80153 16.7217Z" fill="#C10C22"/>
<path d="M4.49519 15.9348L3.7094 15.2421L3.01584 16.0289L3.80164 16.7216L4.49519 15.9348Z" fill="#C10C22"/>
<path d="M5.18853 15.1482L4.40274 14.4555L3.70929 15.2422L4.49508 15.9349L5.18853 15.1482Z" fill="#C10C22"/>
<path d="M5.88219 14.3613L5.0964 13.6686L4.40284 14.4554L5.18864 15.1481L5.88219 14.3613Z" fill="#C10C22"/>
<path d="M6.57575 13.5745L5.78996 12.8818L5.0964 13.6686L5.88219 14.3613L6.57575 13.5745Z" fill="#C10C22"/>
<path d="M7.2692 12.7879L6.4834 12.0952L5.78996 12.8818L6.57575 13.5745L7.2692 12.7879Z" fill="#C10C22"/>
<path d="M7.96276 12.0011L7.17696 11.3084L6.4834 12.0952L7.2692 12.7879L7.96276 12.0011Z" fill="#C10C22"/>
<path d="M8.6562 11.2144L7.87041 10.5217L7.17696 11.3084L7.96276 12.0011L8.6562 11.2144Z" fill="#C10C22"/>
</svg>
