<svg width="37" height="38" viewBox="0 0 37 38" fill="none" xmlns="http://www.w3.org/2000/svg">
<path d="M19.2497 16.36C17.9205 14.9614 16.118 14.1758 14.2386 14.1758C12.3592 14.1758 10.5568 14.9614 9.22757 16.36L4.21491 21.6348C2.88567 23.034 2.13892 24.9317 2.13892 26.9105C2.13892 28.8892 2.88567 30.7869 4.21491 32.1861C5.54414 33.5852 7.34694 34.3715 9.22676 34.3715C11.1066 34.3715 12.9094 33.5852 14.2386 32.1861L16.7442 29.5487" stroke="white" stroke-width="2.53333" stroke-linecap="round" stroke-linejoin="round"/>
<path d="M14.231 21.6354C15.5602 23.034 17.3626 23.8196 19.242 23.8196C21.1214 23.8196 22.9239 23.034 24.2531 21.6354L29.2658 16.3606C30.5951 14.9614 31.3418 13.0637 31.3418 11.0849C31.3418 9.10619 30.5951 7.20847 29.2658 5.80928C27.9365 4.41009 26.1337 3.62402 24.2539 3.62402C22.3741 3.62402 20.5713 4.41009 19.242 5.80928L16.7365 8.44667" stroke="white" stroke-width="2.53333" stroke-linecap="round" stroke-linejoin="round"/>
</svg>
