<svg width="38" height="28" viewBox="0 0 38 28" fill="none" xmlns="http://www.w3.org/2000/svg">
<path d="M28.16 6.72013V5.0401H27.3199V4.20008H26.4799V3.36006H25.6399V2.52005H24.7998V1.68003H23.9598V0.840016H21.4397V6.14967e-09H15.5599V0.840016H13.0398V1.68003H12.1998V2.52005H11.3597V3.36006H10.5197V4.20008H9.67966V5.0401H8.83963V7.56014H8V13.4399H8.83963V15.9599H9.67966V16.7999H10.5197V17.6399H11.3597V18.48H12.1998V19.32H13.0398V20.16H14.7199V21H22.2797V20.16H23.9598V19.32H24.7998V18.48H25.6399V17.6399H26.4799V16.7999H27.3199V15.9599H28.16V14.2799H29V6.72013H28.16Z" fill="#FDEB19"/>
<path d="M22.2797 20.16H21.4397V21L22.2797 21V20.16Z" fill="#F7AC3D"/>
<path d="M21.4401 20.16H15.5599V21H21.4401V20.16Z" fill="#F4960A"/>
<path d="M15.5599 20.16H14.7199V21L15.5599 21V20.16Z" fill="#F7AC3D"/>
<path d="M23.9598 19.32H22.2797L22.2797 20.16H23.9598V19.32Z" fill="#F4960A"/>
<path d="M22.2797 19.32H21.4397V20.16H22.2797L22.2797 19.32Z" fill="#FFD101"/>
<path d="M15.5599 19.32H14.7199L14.7199 20.16H15.5599V19.32Z" fill="#FAB60A"/>
<path d="M14.7199 19.32H13.8798V20.16H14.7199L14.7199 19.32Z" fill="#F4960A"/>
<path d="M13.8798 19.32H13.0398V20.16H13.8798V19.32Z" fill="#F7AC3D"/>
<path d="M24.7998 18.48L23.9598 18.4799V19.32H24.7998V18.48Z" fill="#F4960A"/>
<path d="M23.9598 18.4799H23.1198V19.32L23.9598 19.32V18.4799Z" fill="#FFEB0F"/>
<path d="M13.8798 18.4799H13.0398V19.32H13.8798V18.4799Z" fill="#FFD000"/>
<path d="M13.0398 18.4799L12.1998 18.48V19.32H13.0398V18.4799Z" fill="#F4960A"/>
<path d="M25.6399 17.6399L24.7998 17.6399V18.48H25.6399V17.6399Z" fill="#F4960A"/>
<path d="M12.1998 17.6399L11.3597 17.6399V18.48H12.1998V17.6399Z" fill="#F4960A"/>
<path d="M26.4799 16.7999H25.6399V17.6399H26.4799V16.7999Z" fill="#F4960A"/>
<path d="M11.3597 16.7999H10.5197V17.6399H11.3597V16.7999Z" fill="#F4960A"/>
<path d="M27.3199 15.9599L26.4799 15.9599V16.7999H27.3199V15.9599Z" fill="#F4960A"/>
<path d="M21.4401 15.9599H16.3999V16.7999H21.4401V15.9599Z" fill="#F4960A"/>
<path d="M16.3999 15.9599H15.5599V16.7999H16.3999V15.9599Z" fill="#F49807"/>
<path d="M10.5197 15.9599L9.67966 15.9599V16.7999H10.5197V15.9599Z" fill="#F4960A"/>
<path d="M28.16 15.1199H27.3199V15.9599H28.16V15.1199Z" fill="#FAB95E"/>
<path d="M23.1198 15.1199H22.2797V15.9599H23.1198V15.1199Z" fill="#FFE703"/>
<path d="M22.2797 15.1199H21.4397V15.9599H22.2797V15.1199Z" fill="#F4960A"/>
<path d="M15.5599 15.1199H14.7199V15.9599H15.5599V15.1199Z" fill="#F4960A"/>
<path d="M10.5197 15.1199H9.67966L9.67966 15.9599L10.5197 15.9599V15.1199Z" fill="#FFD301"/>
<path d="M9.67966 15.1199H8.83963V15.9599H9.67966L9.67966 15.1199Z" fill="#F7AC3D"/>
<path d="M28.16 14.2799H27.3199V15.1199H28.16V14.2799Z" fill="#F4960A"/>
<path d="M23.9598 14.2799H23.1198V15.1199L23.9598 15.1199V14.2799Z" fill="#F6A306"/>
<path d="M23.1198 14.2799H22.2797V15.1199H23.1198V14.2799Z" fill="#F4960A"/>
<path d="M14.7199 14.2799H13.8798V15.1199L14.7199 15.1199L14.7199 14.2799Z" fill="#F4960A"/>
<path d="M13.8798 14.2799H13.0398V15.1199H13.8798V14.2799Z" fill="#F9B757"/>
<path d="M9.67966 13.4399H8.83963V15.1199H9.67966V13.4399Z" fill="#F4960A"/>
<path d="M29 13.4399H28.16V14.2799H29V13.4399Z" fill="#F7AC3D"/>
<path d="M28.16 13.4399H27.3199V14.2799H28.16V13.4399Z" fill="#FFCD00"/>
<path d="M23.9598 13.4399H23.1198V14.2799H23.9598V13.4399Z" fill="#F4960A"/>
<path d="M13.8798 14.2799L15.5599 14.2799V13.4399H14.7199V12.5998H15.5599V11.7598H14.7199V10.9202H15.5599V10.0802H14.7199V9.24018H15.5599V8.40016H14.7199V7.56014H15.5599V6.72013H16.3999V5.88011H18.08V5.0401H15.5599V5.88011H14.7199V6.72013H13.8798V7.56014H13.0398V13.4399H13.8798V14.2799Z" fill="#FFF37F"/>
<path d="M13.8798 13.4399H13.0398V14.2799H13.8798V13.4399Z" fill="#F4960A"/>
<path d="M13.0398 12.5998H12.1998V13.4399H13.0398V12.5998Z" fill="#FCBD02"/>
<path d="M24.7998 8.40016H23.9598V13.4403H24.7998V8.40016Z" fill="#F4960A"/>
<path d="M13.0398 8.40016H12.1998V12.6002H13.0398V8.40016Z" fill="#F4960A"/>
<path d="M8.84003 7.56014L8 7.56014L8 13.4403H8.84003V7.56014Z" fill="#F4960A"/>
<path d="M21.4397 8.40016V9.24018H22.2797V10.0802H23.1198V8.40016H21.4397Z" fill="#F2F2F2"/>
<path d="M29 7.56014H28.16V13.4403H29V7.56014Z" fill="#F4960A"/>
<path d="M24.7998 7.56014H23.9598V8.40016H24.7998V7.56014Z" fill="#F59C06"/>
<path d="M13.0398 7.56014L12.1998 7.56014V8.40016H13.0398V7.56014Z" fill="#F9B757"/>
<path d="M29 6.72013H28.16V7.56014H29V6.72013Z" fill="#F7AC3D"/>
<path d="M28.16 6.72013H27.3199V7.56014L28.16 7.56014V6.72013Z" fill="#F9AE05"/>
<path d="M23.9598 6.72013H23.1198V7.56014L23.9598 7.56014V6.72013Z" fill="#F4960A"/>
<path d="M13.8798 6.72013H13.0398V7.56014H13.8798V6.72013Z" fill="#F4960A"/>
<path d="M9.67966 5.88011H8.83963V7.56014L9.67966 7.56014V5.88011Z" fill="#F4960A"/>
<path d="M28.16 5.88011H27.3199V6.72013H28.16V5.88011Z" fill="#F4960A"/>
<path d="M23.9598 5.88011H23.1198V6.72013H23.9598V5.88011Z" fill="#F9B757"/>
<path d="M23.1198 5.88011H22.2797V6.72013H23.1198V5.88011Z" fill="#F4960A"/>
<path d="M14.7199 5.88011H13.8798V6.72013H14.7199V5.88011Z" fill="#F4960A"/>
<path d="M28.16 5.0401H27.3199V5.88011H28.16V5.0401Z" fill="#F9B757"/>
<path d="M23.1198 5.0401H22.2797V5.88011H23.1198V5.0401Z" fill="#F9B757"/>
<path d="M22.2797 5.0401H21.4397V5.88011H22.2797V5.0401Z" fill="#F4960A"/>
<path d="M15.5599 5.0401H14.7199L14.7199 5.88011H15.5599V5.0401Z" fill="#F4960A"/>
<path d="M10.5197 5.0401L9.67966 5.0401L9.67966 5.88011H10.5197V5.0401Z" fill="#FFD500"/>
<path d="M9.67966 5.0401H8.83963V5.88011H9.67966L9.67966 5.0401Z" fill="#F7AC3D"/>
<path d="M27.3199 4.20008H26.4799V5.0401L27.3199 5.0401V4.20008Z" fill="#F4960A"/>
<path d="M21.4397 4.20008H20.5997V5.0401H21.4397V4.20008Z" fill="#FDC602"/>
<path d="M20.6001 4.20008H16.3999V5.0401H20.6001V4.20008Z" fill="#F4960A"/>
<path d="M16.3999 4.20008H15.5599L15.5599 5.0401H16.3999V4.20008Z" fill="#F9B757"/>
<path d="M10.5197 4.20008H9.67966V5.0401L10.5197 5.0401V4.20008Z" fill="#F4960A"/>
<path d="M26.4799 3.36006H25.6399V4.20008H26.4799V3.36006Z" fill="#F4960A"/>
<path d="M11.3597 3.36006H10.5197V4.20008H11.3597V3.36006Z" fill="#F4960A"/>
<path d="M25.6399 2.52005H24.7998V3.36006L25.6399 3.36006V2.52005Z" fill="#F4960A"/>
<path d="M12.1998 2.52005H11.3597V3.36006L12.1998 3.36006V2.52005Z" fill="#F4960A"/>
<path d="M24.7998 1.68003H23.9598V2.52005H24.7998V1.68003Z" fill="#F4960A"/>
<path d="M23.9598 1.68003H23.1198V2.52005H23.9598V1.68003Z" fill="#FEEB15"/>
<path d="M13.8798 1.68003H13.0398V2.52005H13.8798V1.68003Z" fill="#FFD301"/>
<path d="M13.0398 1.68003H12.1998V2.52005H13.0398V1.68003Z" fill="#F4960A"/>
<path d="M23.9598 0.840016H23.1198V1.68003H23.9598V0.840016Z" fill="#F7AC3D"/>
<path d="M23.1198 0.840016H21.4397V1.68003H23.1198V0.840016Z" fill="#F4960A"/>
<path d="M15.5599 0.840016H13.8798V1.68003H15.5599V0.840016Z" fill="#F4960A"/>
<path d="M13.8798 0.840016H13.0398V1.68003H13.8798V0.840016Z" fill="#F7AC3D"/>
<path d="M21.4401 0H16.3999V0.840016H21.4401V0Z" fill="#F4960A"/>
<path d="M16.3999 0L15.5599 6.14967e-09V0.840016H16.3999V0Z" fill="#F4980A"/>
<path d="M2.95146 14.9722V14H5.25728V15.5556H7.10194V15.1667H13.6505V16.4306H14.8495V17.0139H15.6796V16.2361H16.5097V15.3611H21.6748V16.2361H22.2282V16.8194H23.0583V15.3611H25.9175V17.0139H26.4709V16.2361H27.2087V15.1667H30.5291V16.0417H31.0825V15.3611H36.1553V16.2361H37.1699V17.4028H38V24.4028H37.1699V25.375H36.432V26.0556H31.0825V25.0833H30.1602V26.0556H27.3932V25.0833H26.6553V24.5972H25.9175V26.0556H22.7816V24.7917H22.2282V25.375H21.2136V26.25H16.7864V25.0833H15.6796V24.4028H14.5728V25.375H13.6505V26.5417H8.48544V25.375H6.36408V26.0556H5.25728V28H2.58252V26.0556H1.29126V25.0833H0.368932V21.3889H1.29126V20.8056H0V16.0417H1.1068V14.9722H2.95146Z" fill="#020B31"/>
<path d="M37.3341 19.2801C37.3968 19.7584 37.3562 20.2387 37.3691 20.719C37.4097 20.8551 37.3673 20.9523 37.2492 21.0165C36.456 20.9873 35.9653 21.2459 36.1295 22.2259C36.1608 22.4165 36.052 22.6537 35.7882 22.6848C35.613 22.5817 35.541 22.4029 35.4839 22.2162C35.2422 21.4715 35.3842 20.6995 35.3584 19.9412C35.3455 19.5581 35.3381 19.2334 34.8475 19.2412C34.6335 19.2451 34.521 19.0467 34.4914 18.8465C34.4361 18.4634 34.1981 18.3895 33.8882 18.3973C33.665 18.4031 33.4418 18.3934 33.2186 18.4012C33.1264 18.4031 32.9641 18.3934 32.953 18.4401C32.7943 19.0954 31.9274 19.2276 31.9292 19.9995C31.9292 20.3262 31.9809 20.6723 31.754 20.9581C31.1268 21.209 30.4904 21.1681 29.8503 21.0301C29.747 20.4137 29.7857 19.7992 29.8687 19.1848C30.2967 19.0467 30.5383 18.7901 30.7947 18.3487C31.0567 17.9015 31.5879 17.5767 31.8776 17.0712C31.9144 17.007 32.0048 16.9837 32.0786 16.9837C33.1504 16.9837 34.224 16.8612 35.292 17.0498C35.3474 17.1004 35.4119 17.1606 35.4211 17.2326C35.4783 17.7206 35.7606 17.917 36.1977 17.9462C36.3066 17.954 36.4007 18.0337 36.4671 18.1329C36.491 18.6112 36.5814 19.0312 37.1514 19.0817C37.2326 19.0895 37.2842 19.2042 37.3359 19.284L37.3341 19.2801Z" fill="#FCEA35"/>
<path d="M14.8108 19.3033C14.8698 19.838 14.8809 20.3727 14.8329 20.9075C14.2555 21.2672 13.6597 21.1563 13.062 20.9852C12.765 20.6877 12.848 20.2969 12.8462 19.9333C12.8444 19.6222 12.848 19.3441 12.4644 19.278C12.2375 19.2391 12.1176 19.0486 12.0807 18.823C12.0235 18.473 11.8021 18.4011 11.5144 18.4011C9.74717 18.3972 10.022 18.263 9.98698 19.873C9.96484 20.8705 10.0534 21.87 9.93348 22.8655C9.80066 23.1572 9.58115 23.3886 9.4262 23.6647C9.33766 23.6958 9.25465 23.6822 9.18271 23.618C9.14397 23.5694 9.1163 23.5169 9.09785 23.4566C9.00746 22.9763 9.15135 22.5291 9.27678 22.078C9.50552 21.2613 9.41144 21.1252 8.60533 21.0922C8.43931 21.0863 8.27144 21.0883 8.11096 21.0241C8.0261 20.9852 7.96523 20.9191 7.92096 20.8336C7.90804 20.1647 7.89882 19.4958 7.9763 18.8288C8.08882 18.8327 8.19581 18.8677 8.30649 18.8872C8.68649 18.9513 8.88202 18.86 8.89494 18.3777C8.93368 16.9213 8.95397 16.9213 10.3412 16.9213C10.9757 16.9213 11.6084 16.9194 12.243 16.9252C12.6765 16.9291 13.0214 17.0652 13.11 17.5708C13.1598 17.8508 13.3295 17.9538 13.573 17.9966C13.8036 18.0375 14.0508 18.1327 14.0434 18.4147C14.0286 18.9008 14.2924 19.0544 14.6687 19.1361C14.7444 19.1516 14.7886 19.2236 14.8145 19.3013L14.8108 19.3033Z" fill="#FDED39"/>
<path d="M22.7096 19.2139C22.7022 19.7856 22.7244 20.3573 22.6598 20.927C22.4477 21.1253 22.182 21.1175 21.9312 21.0981C21.47 21.0631 21.2468 21.2517 21.2726 21.7534C21.28 21.905 21.2357 22.0587 21.1306 22.1792C21.0789 22.2239 21.0236 22.2317 20.9627 22.2025C20.6934 21.8312 20.6916 21.3995 20.7358 20.9659C20.769 20.6334 20.793 20.3028 20.7967 19.9684C20.8004 19.6184 20.7321 19.3539 20.3429 19.2917C20.0939 19.2528 19.974 19.0487 19.9186 18.8017C19.7821 18.1892 19.3081 18.44 18.9557 18.3953C18.6329 18.3525 18.3618 18.4148 18.3304 18.8542C18.3138 19.0934 18.1644 19.2606 17.9393 19.2917C17.5501 19.3462 17.4818 19.6087 17.48 19.9606C17.4763 20.3048 17.5483 20.6762 17.29 20.9717C16.8528 21.1973 16.3935 21.1214 15.9397 21.0787C15.6925 21.0553 15.5376 20.9173 15.556 20.6198C15.5708 20.3884 15.5486 20.157 15.5689 19.9256C15.5173 19.7487 15.5228 19.5678 15.545 19.385C15.5505 19.3462 15.5523 19.2878 15.5782 19.2762C16.0283 19.0681 16.471 18.8562 16.4525 18.2184C17.0336 18.0803 17.2605 17.6234 17.4394 17.0828C17.4911 16.9292 17.7364 16.9584 17.9043 16.9584C18.6661 16.9525 19.428 16.9584 20.1898 16.9584C20.5975 16.9584 20.8816 17.1139 20.924 17.5767C20.9535 17.8937 21.1214 18.0142 21.4036 18.0239C21.6471 18.0337 21.8869 18.1348 21.8869 18.4089C21.8869 18.9262 22.1654 19.0739 22.575 19.1187C22.6285 19.1245 22.6709 19.177 22.7133 19.2139H22.7096Z" fill="#FCEA36"/>
<path d="M14.8108 19.3033C14.5986 19.1925 14.3717 19.2625 14.1522 19.2411C13.9142 19.2177 13.8275 19.1127 13.8496 18.8541C13.8644 18.6791 13.9013 18.5061 13.9161 18.333C13.9234 18.2455 13.8681 18.1833 13.7851 18.1775C13.6006 18.1658 13.4143 18.1697 13.2298 18.1561C13.0122 18.1405 12.9402 18.0589 12.9144 17.8275C12.9126 17.808 12.9107 17.7886 12.9107 17.7691C12.9402 17.0944 12.7871 17.1547 12.2577 17.1489C11.4221 17.1391 10.5864 17.1275 9.75081 17.1177C9.60324 17.1177 9.45382 17.1177 9.30625 17.1294C9.20479 17.1391 9.12178 17.213 9.12916 17.318C9.16421 17.7672 9.0111 18.2066 9.09042 18.6577C9.10702 18.7511 9.09595 18.8541 9.08304 18.9494C9.07013 19.0583 8.99634 19.1244 8.89858 19.14C8.64032 19.1808 8.37838 19.1652 8.12382 19.1166C7.98547 19.0914 8.01314 18.9319 7.97256 18.8308C7.97256 18.5391 7.97256 18.2455 7.97256 17.9539C7.97809 17.3511 7.98178 16.7502 7.91168 16.1669C8.01498 16.0891 8.10906 16.0969 8.20129 16.0969C9.35052 16.0969 10.4997 16.0716 11.6471 16.1261C11.9976 16.1436 12.3518 16.1455 12.6986 16.06C12.8111 15.988 12.9218 15.9744 13.0288 16.0716C13.1192 16.165 13.0878 16.2855 13.0915 16.3964C13.1026 16.8773 13.354 17.086 13.846 17.0225C14.154 17.0594 14.1651 17.0614 14.1263 17.2869C14.0894 17.4989 14.0784 17.7089 14.0894 17.9227C14.095 18.0161 14.1522 18.0627 14.2296 18.0705C14.3569 18.0822 14.4861 18.0764 14.6152 18.0822C14.8882 18.0939 14.9306 18.1308 14.9103 18.4361C14.8919 18.7258 14.8458 19.0116 14.8107 19.2994L14.8108 19.3033Z" fill="#FCFCF8"/>
<path d="M36.5593 23.3887C36.4763 23.6609 36.5519 23.9351 36.5593 24.2073C36.563 24.4037 36.5168 24.4562 36.3398 24.4562C36.1184 24.4562 35.8989 24.4562 35.6388 24.4562C35.6388 24.674 35.6425 24.884 35.6388 25.092C35.6369 25.199 35.5779 25.2748 35.482 25.3118C35.3234 25.3701 35.161 25.4129 34.9913 25.4109C34.0229 25.4032 33.0544 25.3954 32.086 25.3876C32.0306 25.3876 31.9753 25.3818 31.92 25.374C31.8148 25.3584 31.7502 25.2845 31.7447 25.1795C31.7355 25.0026 31.7466 24.8257 31.7447 24.6507C31.7429 24.4951 31.6894 24.4309 31.551 24.4251C31.4016 24.4193 31.2522 24.4251 31.1046 24.4251C30.7209 24.4232 30.7135 24.4115 30.7172 23.9798C30.7191 23.7834 30.7246 23.587 30.7283 23.3907C30.957 22.9318 31.4182 23.1282 31.7576 22.9823C32.0638 22.9415 32.3368 22.9862 32.5637 23.2487C32.7906 23.5132 33.1061 23.4432 33.3975 23.447C33.6742 23.4509 33.9509 23.4509 34.2276 23.4451C34.3438 23.4257 34.4601 23.4257 34.5763 23.4315C34.6574 23.4373 34.7386 23.449 34.8198 23.447C35.1592 23.447 35.3473 23.1359 35.6296 23.0134C36.0169 22.9298 36.29 23.1632 36.5648 23.3926L36.5593 23.3887Z" fill="#F16D11"/>
<path d="M21.8869 23.3808C21.7891 23.4391 21.6876 23.4936 21.7006 23.6413C21.7135 23.7969 21.7338 23.9525 21.7393 24.11C21.7504 24.4133 21.7061 24.4638 21.4368 24.4619C21.3076 24.4619 21.1767 24.4463 21.0475 24.4463C20.9129 24.4463 20.8465 24.528 20.8428 24.6641C20.8373 24.8605 20.8428 25.055 20.8336 25.2513C20.8262 25.3894 20.7376 25.4613 20.6104 25.4575C20.3134 25.4458 20.0164 25.4147 19.7212 25.4127C19.1273 25.4108 18.5333 25.4244 17.9374 25.4302C17.8268 25.4302 17.7142 25.4361 17.6036 25.4244C17.504 25.4127 17.4283 25.3525 17.4265 25.2377C17.4209 25.0627 17.4283 24.8858 17.4228 24.7108C17.4191 24.565 17.3508 24.495 17.2162 24.4969C16.993 24.5027 16.7716 24.5241 16.5484 24.5261C16.3437 24.5261 16.2902 24.4638 16.2883 24.2422C16.2883 24.1255 16.2957 24.0069 16.3031 23.8902C16.3271 23.5305 16.3271 23.5325 15.9655 23.4683C15.8751 23.4527 15.7884 23.4216 15.6999 23.3963C16.1703 23.0872 16.7421 23.1611 17.2346 22.9394C17.29 22.9394 17.3416 22.953 17.3933 22.9744C17.5021 23.0463 17.5611 23.1766 17.6774 23.2408C17.8378 23.3419 18.0186 23.3555 18.1975 23.3827C18.9225 23.4469 19.6456 23.4566 20.3669 23.3672C20.6565 23.3302 20.9092 23.2213 21.0863 22.9627C21.1527 22.8752 21.1951 22.7702 21.2615 22.6808C21.3021 22.6341 21.3519 22.605 21.4091 22.5875C21.9219 22.6186 21.9975 22.9413 21.8906 23.3866L21.8869 23.3808Z" fill="#F87510"/>
<path d="M6.96171 20.9464C6.99675 21.1 6.99491 21.2556 6.96539 21.4111C6.89714 21.6406 6.91928 21.8798 6.93772 22.1092C6.97093 22.5331 6.89899 22.8461 6.42307 22.885C6.2552 22.8986 6.17957 23.0464 6.10578 23.1845C5.97112 23.4334 5.79404 23.622 5.50996 23.6628C5.24617 23.5967 5.27569 23.3517 5.22773 23.1514C5.22035 23.0931 5.22219 23.0328 5.22957 22.9745C5.27569 22.7762 5.26646 22.5739 5.24802 22.3717C5.24248 22.222 5.23326 22.0703 5.2517 21.9206C5.24986 21.1817 5.2351 21.1253 4.55996 21.1136C3.89588 21.1039 3.28161 20.7053 2.59355 20.8861C2.39802 20.9367 2.22462 20.7811 2.22831 20.5459C2.24306 19.8595 1.70073 19.6359 1.30044 19.3111C1.13073 19.1731 0.933355 19.1148 1.02928 18.8348C1.01821 18.6598 1.01452 18.4867 1.06433 18.3175C1.25248 17.915 1.5919 18.0084 1.89442 18.0648C2.21908 18.127 2.25413 18.4187 2.25229 18.7084C2.25229 18.7881 2.26889 18.8639 2.2984 18.9359C2.32607 18.9786 2.35374 19.0253 2.37957 19.07C2.4386 19.177 2.49209 19.2898 2.61015 19.3423C2.65627 19.3617 2.6987 19.3831 2.74481 19.4025C2.84442 19.4414 2.94772 19.4453 3.05103 19.4648C3.84792 19.5367 4.61714 19.7817 5.40666 19.8984C5.57452 19.9236 5.77559 19.9664 5.82355 20.1434C5.94899 20.5984 6.2386 20.7403 6.6518 20.7384C6.78093 20.7384 6.90452 20.8025 6.96355 20.9464H6.96171Z" fill="#FBDC19"/>
<path d="M26.2218 22.4436C25.9746 22.4961 25.7514 22.4689 25.5706 22.2511C25.4876 22.152 25.3899 22.047 25.2368 22.0936C25.1279 22.3775 25.2073 22.675 25.1851 22.9647C25.174 23.0989 25.2091 23.2428 25.139 23.3672C25.0117 23.5967 24.141 23.6978 23.7002 23.55C23.2906 23.412 23.3792 23.095 23.4364 22.7839C23.4511 22.1636 23.464 21.5434 23.4788 20.9211C23.5212 20.8667 23.571 20.8239 23.6282 20.7889C24.4583 20.6722 25.2903 20.7481 26.1222 20.7442C26.3989 20.7442 26.576 20.9095 26.6572 21.1739C26.7439 21.4578 26.8914 21.7009 27.0482 21.94C27.5998 22.1053 27.7492 22.8034 28.3007 22.9822C28.4409 23.027 28.3745 23.1747 28.2934 23.2642C28.1753 23.3925 28.0222 23.4606 27.858 23.4995C27.4098 23.5967 26.9763 23.3731 26.528 23.4353C26.3159 23.4645 26.3196 23.2797 26.303 23.1164C26.279 22.8928 26.3952 22.6497 26.2218 22.4475V22.4436Z" fill="#FED20C"/>
<path d="M5.65941 24.4523C5.65388 24.6876 5.65388 24.9228 5.64097 25.1581C5.63359 25.2923 5.55058 25.3739 5.4233 25.3798C5.25728 25.3895 5.08941 25.3798 4.92155 25.3856C4.75184 25.3895 4.68543 25.4556 4.68543 25.6364C4.68543 26.0078 4.6965 26.3812 4.70204 26.7526C4.70388 26.982 4.6633 27.0267 4.44747 27.0306C4.15048 27.0345 3.85165 27.0384 3.55466 27.0345C3.38679 27.0326 3.31116 26.9587 3.32592 26.7798C3.35728 26.4084 3.30194 26.0351 3.37942 25.6656C3.41631 25.4906 3.34806 25.4148 3.16912 25.4109C2.90903 25.4031 2.64893 25.4148 2.38883 25.407C2.21728 25.4031 2.16194 25.337 2.15087 25.1542C2.14534 25.057 2.15087 24.9578 2.15087 24.8606C2.1398 24.5048 2.11213 24.4873 1.75058 24.4776C1.51631 24.4717 1.22301 24.6098 1.06068 24.4153C0.920484 24.2481 1.07912 23.9681 1.07728 23.7348C1.07728 23.657 1.08835 23.5792 1.09388 23.4995C1.20087 23.3362 1.3798 23.3167 1.53844 23.2584C1.69155 23.2273 1.84097 23.237 1.98301 23.3128C2.03835 23.3478 2.08446 23.3926 2.12505 23.447C2.16194 23.5034 2.18961 23.5637 2.21175 23.6278C2.25048 24.0906 2.49767 24.2501 2.92563 24.2384C3.59524 24.2209 4.2667 24.2248 4.93815 24.2384C5.19272 24.2442 5.46757 24.2034 5.66311 24.4484L5.65941 24.4523Z" fill="#F26A09"/>
<path d="M4.64295 14.7747C4.7112 15.1228 4.66693 15.4747 4.6614 15.8247C4.65771 15.9667 4.7278 16.0425 4.86246 16.0445C5.21479 16.0522 5.56713 16.0581 5.91946 16.0659C6.06703 16.0697 6.21645 16.0697 6.36402 16.0775C6.47101 16.0834 6.53926 16.1514 6.53742 16.2622C6.53188 16.5539 6.51713 16.8456 6.50421 17.1372C6.28654 17.3609 6.02645 17.2967 5.77188 17.25C5.2812 17.1586 4.79237 17.0614 4.31091 16.9175C3.6247 16.7134 3.05285 17.0731 2.48285 17.3959C2.19509 17.9455 1.72408 18.173 1.06984 18.0784C1.05324 17.9228 1.03664 17.7672 1.02004 17.6136C0.95732 17.0692 0.937028 17.0711 1.43693 17.1022C1.52916 17.1081 1.62324 17.1061 1.71363 17.0906C1.81693 17.0731 1.87965 16.9934 1.87227 16.8864C1.85567 16.6356 1.82615 16.3847 1.80402 16.1397C1.91285 16.0464 2.02722 16.0931 2.13421 16.0892C2.48654 16.0756 2.83887 16.0639 3.1912 16.0561C3.33509 16.0542 3.37382 15.9511 3.40887 15.8364C3.49373 15.7159 3.45683 15.5759 3.46421 15.4417C3.5048 14.6134 3.93645 14.3703 4.64664 14.7747H4.64295Z" fill="#FDFDFA"/>
<path d="M9.25831 25.4866C9.15501 25.2494 9.20297 24.9947 9.18637 24.7497C9.17161 24.5416 9.11627 24.4755 8.9152 24.4736C8.67908 24.4697 8.44112 24.4794 8.20685 24.4969C8.09433 24.5047 7.99103 24.4969 7.88957 24.4444C7.9154 24.0575 7.91171 23.6686 7.89695 23.2797C7.86743 22.465 7.84161 21.6502 7.91724 20.8375C7.94675 20.8647 7.97627 20.8919 8.00578 20.9191C8.30462 21.3177 8.1718 21.7883 8.18472 22.2277C8.20685 23.0094 8.19209 23.0113 8.88938 23.2777C9.01481 23.3263 9.1218 23.3983 9.21219 23.5013C9.22141 23.5344 9.23064 23.5655 9.23802 23.5986C10.5367 24.32 11.946 24.0886 13.3239 24.1216C13.5785 24.1275 13.8497 24.0925 14.0415 24.3413C13.9733 24.4697 13.8534 24.4288 13.7482 24.4386C13.549 24.4561 13.3442 24.3841 13.1524 24.4833C13.1321 24.5163 13.1026 24.5494 13.0989 24.5844C13.0214 25.4477 13.0214 25.4361 12.2116 25.4516C11.3243 25.4672 10.437 25.3894 9.55161 25.4964C9.45384 25.4944 9.35423 25.4925 9.25646 25.4905L9.25831 25.4866Z" fill="#F76B12"/>
<path d="M25.3456 19.6202C25.4028 19.5191 25.4489 19.4102 25.5172 19.3188C25.6537 19.1341 25.8308 19.0641 26.0595 19.1049C26.2237 19.1341 26.2661 19.0796 26.2716 18.9358C26.2809 18.6383 26.22 18.3524 26.1499 18.088C26.2126 17.948 26.3122 17.983 26.3989 17.9791C26.5668 17.9713 26.7328 17.9616 26.9007 17.9538C27.253 17.7458 26.9413 17.2402 27.277 17.0263C27.4762 16.9174 27.775 17.1235 27.8931 16.9019C27.9798 16.7385 27.9079 16.4819 27.9116 16.268C27.9134 16.1533 27.9761 16.091 28.0886 16.093C28.535 16.1027 28.9833 16.1085 29.4297 16.1221C29.64 16.128 29.6953 16.1844 29.7064 16.4021C29.7175 16.6374 29.723 16.8746 29.7101 17.108C29.7027 17.2402 29.592 17.2285 29.498 17.213C28.8044 17.1741 28.6494 17.2674 28.358 17.9033C28.3174 17.9927 28.2805 18.1133 28.1993 18.1385C27.5408 18.3524 27.2216 19.0096 26.6978 19.3985C26.4469 19.4938 26.3233 19.6727 26.2975 19.9605C26.2182 20.8471 26.2089 20.8452 25.3253 20.8394C25.0283 20.7771 24.9933 20.5399 24.9915 20.2833C24.9951 20.2269 25.0062 20.1705 25.021 20.116C25.0431 20.0402 25.0763 19.9663 25.1114 19.8944C25.1316 19.8496 25.1575 19.8069 25.187 19.766C25.2349 19.7135 25.294 19.6688 25.3438 19.6163L25.3456 19.6202Z" fill="#F9FAF6"/>
<path d="M5.65941 24.4523C4.67621 24.4503 3.69299 24.4503 2.70795 24.4444C2.10659 24.4425 2.06785 24.4017 2.06047 23.7911C2.06047 23.6939 2.06047 23.5947 2.06047 23.4975C2.20067 23.3303 2.38698 23.3342 2.57513 23.3458C3.37018 23.3905 4.16338 23.5072 4.96397 23.4469C5.13736 23.4333 5.29416 23.4897 5.42698 23.6142C5.51552 23.5461 5.59853 23.4606 5.6963 23.4119C5.88261 23.3186 5.96562 23.1786 5.99144 22.9608C6.0228 22.71 6.06523 22.6672 6.25892 22.6769C6.94329 22.71 6.86397 22.57 6.88057 21.9711C6.8861 21.7825 6.81969 21.5783 6.96358 21.4111C7.02814 21.5997 6.99863 21.7961 7.00785 21.9886C7.0263 22.3581 7.03367 22.7275 7.05765 23.095C7.08348 23.5033 7.08717 23.5033 6.67212 23.5014C6.61678 23.5014 6.56144 23.4936 6.5061 23.4956C6.28474 23.4994 6.23863 23.5422 6.27921 23.7678C6.42125 24.5514 6.25523 24.4153 5.76824 24.4464C5.73134 24.4483 5.69445 24.4503 5.65756 24.4522L5.65941 24.4523Z" fill="#F98F0C"/>
<path d="M17.4025 23.0328C17.3306 23.0503 17.2531 23.0523 17.1904 23.0873C16.7717 23.3148 16.3326 23.4178 15.8622 23.3712C15.8087 23.3653 15.7534 23.3848 15.6981 23.3926C15.5763 23.4237 15.4712 23.4081 15.4453 23.2565C15.4324 23.1806 15.4453 23.1009 15.4527 23.0231C15.521 22.1073 15.5616 21.1895 15.5357 20.2698C15.532 20.1551 15.556 20.0384 15.5671 19.9256C15.6501 20.1531 15.5855 20.3903 15.6058 20.6217C15.6224 20.8259 15.6833 20.8978 15.8844 20.9056C16.1057 20.9153 16.3289 20.9095 16.5521 20.9095C16.7938 20.9095 17.0336 20.9115 17.2752 20.9134C17.611 21.2887 17.4634 21.7378 17.4486 22.1656C17.3472 22.4495 17.5077 22.749 17.4044 23.0328H17.4025Z" fill="#FCC30D"/>
<path d="M31.7613 23.1338C31.599 23.2271 31.4274 23.2719 31.2429 23.2641C31.0603 23.2563 30.8832 23.2855 30.7246 23.3885C30.5457 23.2699 30.3612 23.3088 30.1749 23.3672C30.0605 23.3944 29.9443 23.4002 29.8299 23.3672C29.7635 23.3127 29.7063 23.2505 29.7137 23.1513L29.7543 22.8772C29.793 22.776 29.7598 22.6613 29.8096 22.5621C29.8226 22.0508 29.8336 21.5394 29.8465 21.0299C29.9941 20.9327 30.1546 20.9055 30.3262 20.9074C30.7892 20.9152 31.2522 20.9171 31.717 20.921C31.872 21.0299 31.872 21.1952 31.8627 21.3624C31.7797 21.6697 31.7779 21.9827 31.7963 22.2997C31.8074 22.5797 31.8609 22.8616 31.7631 23.1358L31.7613 23.1338Z" fill="#FCBD0B"/>
<path d="M14.0415 24.3395C13.1007 24.3356 12.1581 24.3317 11.2174 24.3298C10.996 24.3298 10.7728 24.3181 10.5533 24.3298C10.319 24.3434 10.1124 24.2792 9.94269 24.114C9.73055 23.9078 9.48337 23.7562 9.23987 23.5987C9.30444 23.5948 9.369 23.5909 9.43356 23.587C9.6291 23.3906 9.87813 23.4198 10.1142 23.4139C10.5754 23.4042 11.0384 23.3906 11.4977 23.4159C11.9386 23.4412 12.326 23.2992 12.7078 23.1009C12.8628 23.0601 13.0362 23.0756 13.1635 22.9415C13.2188 22.8851 13.2741 22.8287 13.3258 22.7684C13.7058 22.2317 13.8091 22.2142 14.1319 22.7781C14.3588 23.1748 14.6521 23.0387 14.9509 23.0114C14.9675 23.0464 14.9952 23.0795 14.9989 23.1145C15.0155 23.3401 14.986 23.3906 14.8237 23.3984C14.6207 23.4081 14.4178 23.4042 14.2149 23.412C14.1042 23.4159 14.0489 23.4937 14.0526 23.6026C14.06 23.7581 14.0784 23.9117 14.095 24.0673C14.1042 24.1645 14.1172 24.2617 14.0434 24.3415L14.0415 24.3395Z" fill="#FB9211"/>
<path d="M2.29471 17.1334C2.62859 17.0751 2.94588 16.9623 3.24656 16.8009C3.65607 16.5812 4.07112 16.5967 4.48432 16.7678C4.64112 16.832 4.79423 16.8942 4.96209 16.9195C5.27568 16.9642 5.58927 17.0031 5.8918 17.112C6.08918 17.1839 6.29578 17.1684 6.50054 17.1373C6.50423 17.182 6.50792 17.2287 6.5116 17.2734C6.34374 17.5845 6.0486 17.5514 5.77743 17.5631C5.02235 17.5929 4.61161 17.9915 4.5452 18.7589C4.5286 18.8776 4.51384 18.9962 4.49724 19.1148C4.15597 19.4492 3.80918 19.3034 3.46238 19.1303C3.27054 18.9689 3.33879 18.7434 3.34248 18.5392C3.35109 18.0168 3.1408 17.8561 2.7116 18.057C2.16374 18.0045 2.1416 17.9539 2.29287 17.1373L2.29471 17.1334Z" fill="#FCE628"/>
<path d="M1.02928 18.8348C1.06433 18.9923 1.09751 19.1478 1.30042 19.138C1.3742 19.1342 1.44984 19.138 1.52362 19.1439C1.88702 19.175 1.91469 19.2042 1.89071 19.6125C1.88333 19.7292 1.90547 19.805 2.00877 19.8381C2.22459 19.9061 2.291 20.0694 2.28547 20.2892C2.28547 20.3475 2.28547 20.4078 2.29469 20.4642C2.32605 20.6547 2.40721 20.7461 2.5843 20.7636C2.71343 20.7772 2.8444 20.7714 2.97353 20.7733C3.3443 20.7772 3.71323 20.7733 4.08032 20.8706C4.25556 20.9172 4.44925 20.8958 4.63556 20.8958C4.80527 20.8958 4.96576 20.9133 5.1244 20.9892C5.3144 21.0805 5.42323 21.2186 5.42139 21.4403C5.42139 21.6153 5.41032 21.7903 5.40479 21.9653C5.15207 22.0022 5.14469 21.4967 4.87906 21.6639C4.61712 21.8272 4.72042 22.1578 4.70197 22.4242C4.68537 22.6517 4.78867 22.8967 4.60789 23.1008C4.191 23.2661 3.7778 23.3886 3.40702 22.9919C3.4144 22.3658 3.42362 21.7378 3.42731 21.1117C3.42731 20.9736 3.35168 20.8997 3.21149 20.9114C3.00857 20.9289 2.80566 20.9658 2.60275 20.9872C2.26333 21.0248 2.10346 20.8712 2.12314 20.5264C2.12867 20.4292 2.13789 20.33 2.13789 20.2328C2.13789 20.0869 2.07702 20.0169 1.93683 20.0072C1.69518 19.9936 1.45353 19.9917 1.21188 19.9781C1.13809 19.9742 1.04586 19.9353 1.05692 19.8458C1.09197 19.5542 1.06061 19.2722 0.979448 18.9922C0.966535 18.9494 1.0145 18.8872 1.03479 18.8347L1.02928 18.8348Z" fill="#F09A08"/>
<path d="M23.4364 22.7819C23.5046 23.3808 23.5046 23.3827 24.0525 23.3866C24.3311 23.3866 24.6096 23.3866 24.8863 23.3769C25.0523 23.3691 25.1132 23.2991 25.1243 23.1163C25.1372 22.883 25.1335 22.6477 25.1372 22.4124C25.1372 22.2938 25.1372 22.1772 25.2386 22.0936C25.2423 22.5641 25.2479 23.0347 25.2534 23.5052C25.3087 24.1313 25.3696 24.7594 25.222 25.3816L25.2386 25.3641C24.6779 25.5411 24.1023 25.4049 23.5342 25.4438C23.3368 25.4574 23.2778 25.3311 23.2851 25.1483C23.3036 24.6797 23.2427 24.2091 23.3202 23.7424C23.4106 23.4294 23.3054 23.0891 23.4382 22.7819H23.4364Z" fill="#F3760E"/>
<path d="M3.4698 18.9553C3.7963 19.1342 4.1431 19.1594 4.49912 19.1128C4.57475 19.2586 4.70941 19.2469 4.83854 19.2567C5.24436 19.2858 5.65203 19.315 6.05786 19.3481C6.26261 19.3636 6.40465 19.4414 6.41203 19.6981C6.41941 19.9333 6.58358 20.0811 6.74223 20.2172C6.96727 20.4136 7.03918 20.6528 6.96355 20.9464C6.65365 20.8667 6.33824 20.8997 6.02465 20.8803C5.82174 20.8686 5.76087 20.8006 5.75164 20.5964C5.74426 20.4447 5.83096 20.2775 5.71659 20.1472C5.58747 20.0014 5.403 20.0578 5.24252 20.0519C4.98058 20.0442 4.7297 19.9839 4.47698 19.9294C3.93465 19.8147 3.39048 19.7097 2.8463 19.5989C2.78174 19.5308 2.68397 19.5503 2.61572 19.4958C2.49213 19.3889 2.37407 19.2781 2.28368 19.1361C2.13611 18.79 2.37407 18.7025 2.59912 18.6072C2.64892 18.5994 2.69873 18.6014 2.74854 18.615C2.83708 18.6539 2.92378 18.7025 3.01601 18.7317C3.17834 18.7842 3.34621 18.8211 3.47533 18.9514L3.4698 18.9553Z" fill="#FAF9EF"/>
<path d="M14.9491 23.0095C14.914 23.1242 14.8753 23.239 14.7388 23.2506C14.6281 23.2603 14.5156 23.2642 14.4049 23.2604C14.1356 23.2526 14.1337 23.2506 14.0323 22.9415C13.9843 22.7917 13.9382 22.6401 13.8238 22.5312C13.763 22.4729 13.6726 22.467 13.6338 22.5467C13.5656 22.6867 13.5268 22.8423 13.3793 22.9181C13.3553 22.8987 13.3313 22.8792 13.3073 22.8617C13.0638 22.364 13.2631 21.839 13.204 21.349C13.193 21.5765 13.2262 21.8312 13.1874 22.0781C13.1634 22.2356 13.0712 22.2609 12.9587 22.1423C12.8056 21.7145 12.7189 21.2945 13.0694 20.9173C13.6578 20.9134 14.2444 20.9095 14.8329 20.9056C14.8476 21.0398 14.8716 21.174 14.8771 21.3101C14.903 21.8759 14.9251 22.4417 14.9491 23.0076V23.0095Z" fill="#FCC60F"/>
<path d="M36.5593 23.3887C36.3232 23.3965 36.1037 23.3574 35.9358 23.1533C35.8491 23.0483 35.7384 23.1124 35.637 23.128C35.6056 23.0949 35.5853 23.0561 35.5798 23.0094C35.5798 22.9627 35.5872 22.918 35.6001 22.8752C35.6241 22.8111 35.6609 22.7547 35.7089 22.7061C35.7274 22.6944 35.7476 22.6847 35.7661 22.6749C35.9487 22.5311 35.9856 22.323 35.9948 22.1033C36.0059 21.8097 35.993 21.5219 35.9063 21.2341C35.8509 21.0474 35.945 20.9308 36.1332 20.9249C36.5224 20.9152 36.9116 20.9211 37.3027 20.9191C37.5001 21.6852 37.3525 22.4649 37.3802 23.2388C37.3875 23.4216 37.2566 23.4585 37.1053 23.4002C36.9227 23.3963 36.7419 23.3926 36.5593 23.3887Z" fill="#FBA70A"/>
<path d="M26.6959 19.2431C26.8416 19.0953 27.004 18.9708 27.0925 18.7608C27.1497 18.6228 27.2641 18.51 27.3581 18.3895C27.467 18.2495 27.5998 18.1736 27.7843 18.1542C28.1347 18.1172 28.203 18.0297 28.2639 17.707C28.2952 17.5378 28.2196 17.3317 28.3616 17.2053C28.5147 17.0672 28.7177 17.1295 28.8984 17.1392C29.0995 17.1508 29.3098 17.11 29.4998 17.215C29.426 17.2286 29.3541 17.2481 29.2803 17.2558C29.1751 17.2656 29.105 17.3083 29.094 17.427C29.0847 17.5242 29.0811 17.6233 29.0681 17.7206C29.0423 17.9131 29.0903 18.1445 28.9667 18.2883C28.8191 18.4614 28.6254 18.2222 28.4465 18.2728C28.4299 18.2786 28.4133 18.2864 28.3911 18.2942C28.3044 18.5022 28.3745 18.7161 28.3893 18.9281C28.4022 19.1147 28.3524 19.1633 28.1624 19.1575C28.0702 19.1536 27.9761 19.14 27.8839 19.1361C27.5924 19.1206 27.5758 19.14 27.5906 19.4667C27.5998 19.6631 27.6127 19.8595 27.6127 20.0539C27.6127 20.1414 27.5444 20.1822 27.4614 20.19C27.2807 20.2075 27.0999 20.0539 26.921 20.1939C26.8158 20.3028 26.7568 20.4564 26.6147 20.5264C26.3989 20.6314 26.244 20.5711 26.2052 20.3203C26.1314 19.8458 26.1942 19.4278 26.6978 19.2411L26.6959 19.2431Z" fill="#F7DB26"/>
<path d="M3.40524 22.9919C3.80738 23.128 4.21136 23.1066 4.61534 23.0016C4.85146 22.8053 5.08204 22.8111 5.30709 23.023C5.44359 23.198 5.45465 23.4022 5.42698 23.6142C4.44931 23.725 3.47349 23.7036 2.50136 23.5383C2.35563 23.513 2.20804 23.5111 2.06047 23.4975C2.0328 23.4605 1.99777 23.4372 1.95534 23.4275C1.80961 23.3166 1.65281 23.3575 1.49602 23.3925C1.33922 23.4683 1.18058 23.4605 1.02194 23.3983C0.898348 23.0405 0.997961 22.673 0.92233 22.3191C1.27466 22.2725 1.56612 22.2297 1.85757 22.1986C1.96641 22.1869 2.07893 22.1928 2.18961 22.2025C2.33349 22.2141 2.38699 22.288 2.35194 22.4339C2.31136 22.603 2.25233 22.7683 2.28184 22.9803C2.45709 23.0736 2.66 23.0269 2.85184 23.0289C3.03631 23.0289 3.22078 23.0055 3.4034 22.9919H3.40524Z" fill="#F9F5DF"/>
<path d="M26.2218 22.4436C26.3786 22.5409 26.3675 22.7041 26.3601 22.8577C26.3361 23.3866 26.4413 23.3808 26.8637 23.3691C27.1201 23.3633 27.3784 23.41 27.6348 23.3205C27.7307 23.2875 27.8506 23.338 27.9594 23.3497C28.1292 23.3011 28.2933 23.3205 28.4557 23.3827C28.7121 23.4683 28.9482 23.5908 28.9851 23.9097C29.0312 24.2908 29.426 24.2227 29.5828 24.4541C29.5883 24.6875 29.5957 24.9208 29.5957 25.1541C29.5957 25.2863 29.5293 25.3836 29.3983 25.3875C29.0091 25.4011 28.6198 25.4069 28.2306 25.4069C28.0923 25.4069 28.0591 25.335 28.0388 25.1813C28.0111 24.9752 28.2048 24.7361 28.0166 24.5766C27.8746 24.4561 27.6588 24.5436 27.4743 24.5416C27.2861 24.5397 27.2566 24.5066 27.264 24.3005C27.2695 24.1255 27.288 23.9505 27.288 23.7736C27.288 23.5266 27.2363 23.48 26.9836 23.4761C26.7992 23.4741 26.6128 23.4858 26.4284 23.48C26.2882 23.4761 26.2236 23.4061 26.2347 23.2583C26.255 22.9841 26.2661 22.7119 26.2199 22.4416L26.2218 22.4436Z" fill="#F47E15"/>
<path d="M21.8869 23.3808C21.8463 23.2544 21.7909 23.132 21.7706 23.0017C21.7282 22.7314 21.5677 22.6634 21.339 22.6848C21.1785 22.6051 21.1453 22.4378 21.0955 22.2823C21.0955 22.2551 21.0955 22.2278 21.0936 22.2006C21.0973 21.8681 21.0936 21.5356 21.1065 21.2031C21.1139 20.9912 21.1785 20.9173 21.3795 20.9153C21.8057 20.9114 22.2337 20.9231 22.6598 20.927C22.7207 21.6814 22.6892 22.4378 22.6763 23.1923C22.6726 23.3751 22.6099 23.4314 22.4365 23.4256C22.2539 23.4198 22.0695 23.3963 21.8869 23.3808Z" fill="#FCBE11"/>
<path d="M17.3158 16.5404C17.3047 16.5034 17.2881 16.4645 17.2863 16.4276C17.2697 16.1262 17.2863 16.099 17.5279 16.099C18.1791 16.0951 18.8321 16.099 19.4833 16.0912C19.8743 16.0873 20.2654 16.0718 20.6565 16.064C20.8483 16.0601 20.8815 16.0931 20.8834 16.3012C20.8834 16.5754 20.8778 16.8515 20.876 17.1256C20.3927 16.9662 19.9002 17.0926 19.4132 17.0732C18.8985 17.0537 18.3801 17.0304 17.8673 17.0809C17.4449 17.1218 17.3066 16.9429 17.3139 16.5423L17.3158 16.5404Z" fill="#FAFBFA"/>
<path d="M23.464 19.1458C23.4603 18.2086 23.4566 17.2733 23.4529 16.3361C23.4529 16.2 23.5064 16.1183 23.6485 16.1164C24.0746 16.1164 24.5007 16.1047 24.9268 16.1105C25.2017 16.1144 25.2312 16.1494 25.2386 16.4625C25.2441 16.7347 25.2312 17.0069 25.2257 17.2811C25.1666 17.3277 25.1021 17.3666 25.0264 17.3744C24.3107 17.4502 24.3126 17.4502 24.3052 18.1989C24.3015 18.4886 24.3328 18.7822 24.224 19.0641C24.1945 19.1244 24.1539 19.173 24.1004 19.2119C23.8772 19.3208 23.6632 19.3266 23.4659 19.1458H23.464Z" fill="#F7F7E9"/>
<path d="M31.7281 16.4236C31.706 16.3711 31.6747 16.3205 31.6673 16.2661C31.6562 16.1864 31.6783 16.1125 31.7706 16.095C31.8056 16.0892 31.8444 16.0872 31.8813 16.0911C32.988 16.2078 34.0912 16.1339 35.1961 16.0561C35.5392 16.338 35.3529 16.6978 35.3234 17.0322C34.2664 17.1119 33.2057 17.0264 32.1487 17.075C31.6119 17.1003 31.8997 16.6161 31.7318 16.4236H31.7281Z" fill="#F8FAF9"/>
<path d="M17.3158 16.5404C17.4984 17.0051 17.4984 17.007 17.9817 17.007C18.5886 17.007 19.1973 17.007 19.8042 17.007C19.9702 17.007 20.1381 17.0264 20.2949 16.9525C20.5365 16.8378 20.721 16.9214 20.876 17.1236C20.9239 17.1839 20.8612 17.11 20.9147 17.1645C21.1047 17.3686 21.2006 17.7381 21.4755 17.7692C21.8647 17.812 21.6231 17.2714 21.8831 17.1411C21.9127 17.1606 21.9625 17.1781 21.9662 17.2014C21.9772 17.2986 21.968 17.3978 21.9791 17.4931C22.0031 17.7011 21.8832 17.9598 22.0584 18.1056C22.1967 18.2223 22.4144 18.127 22.5989 18.1309C22.7483 18.1328 22.7999 18.1795 22.7944 18.337C22.7833 18.6286 22.7852 18.9242 22.7114 19.21C22.4513 19.2509 22.1912 19.245 21.933 19.2139C21.7854 19.1964 21.7005 19.0856 21.7005 18.9359C21.7005 18.897 21.7079 18.8581 21.7098 18.8192C21.7153 18.6306 21.8499 18.4264 21.7079 18.2592C21.588 18.1173 21.3906 18.1911 21.2301 18.1639C21.1564 18.1523 21.0826 18.1464 21.0106 18.1309C20.8686 18.0978 20.7837 18.0064 20.7782 17.847C20.7782 17.8275 20.7745 17.8081 20.7782 17.7886C20.8132 17.1353 20.7173 17.1664 20.1381 17.1509C19.3578 17.1295 18.5775 17.1256 17.7954 17.1198C17.4597 17.1198 17.4172 17.1528 17.432 17.4756C17.4578 18.0881 17.4504 18.1814 16.7919 18.1717C16.7734 18.1717 16.755 18.1717 16.7365 18.1756C16.5465 18.197 16.5041 18.2378 16.5004 18.4225C16.4986 18.5198 16.5078 18.6189 16.5078 18.7161C16.506 19.1886 16.4691 19.2275 16.043 19.2275C15.9507 19.2275 15.8566 19.2159 15.7644 19.2236C15.6648 19.2314 15.5947 19.2956 15.5486 19.387C15.5431 19.3014 15.5375 19.2178 15.532 19.1323C15.7201 18.7259 16.1629 18.5198 16.2828 18.0609C16.2938 17.9889 16.3031 17.917 16.3141 17.8431C16.9432 18.0375 17.1276 17.5864 17.2863 17.1003C17.2992 16.9156 17.3102 16.7289 17.3232 16.5442L17.3158 16.5404Z" fill="#FBFBF8"/>
<path d="M31.7281 16.4236C31.8554 16.513 31.8406 16.6571 31.8609 16.7893C31.8812 16.9254 31.9624 16.9915 32.086 17.0012C32.1966 17.009 32.3073 17.009 32.418 17.009C33.3791 17.009 34.3383 17.009 35.2994 17.0071C35.3381 17.0323 35.3529 17.0596 35.3436 17.0907C35.3344 17.1218 35.3233 17.1373 35.3123 17.1373C34.3291 17.1373 33.344 17.1373 32.3608 17.1412C31.8978 17.1432 31.7521 17.0926 31.7613 17.7693C31.765 18.0823 31.6986 18.1212 31.3924 18.1543C31.2153 18.1737 30.9958 18.0765 30.874 18.269C30.7799 18.4168 30.8519 18.6132 30.8445 18.7862C30.8445 18.8251 30.8445 18.864 30.8445 18.9029C30.8316 19.1051 30.7652 19.1926 30.5826 19.2159C30.3428 19.2471 30.1011 19.2626 29.865 19.1809C29.8336 18.8504 29.7949 18.5218 29.7728 18.1912C29.7654 18.0804 29.8392 18.0065 29.9499 18.0162C30.1528 18.0357 30.3538 18.0765 30.5567 18.094C30.6379 18.1018 30.6914 18.0473 30.6766 17.9462C30.6416 17.6954 30.6084 17.4465 30.577 17.2034C30.8002 17.0673 31.0068 17.149 31.2061 17.1334C31.3167 17.1257 31.4293 17.1334 31.5399 17.1257C31.6728 17.1159 31.7336 17.0284 31.7318 16.8923C31.7318 16.7368 31.7318 16.5793 31.7299 16.4237L31.7281 16.4236Z" fill="#F8F9F2"/>
<path d="M24.1171 19.1265C24.1171 18.5762 24.1097 18.0279 24.1171 17.4776C24.1208 17.2054 24.2093 17.112 24.4565 17.1373C24.7147 17.1645 24.9675 17.2306 25.2239 17.2792C25.2681 17.9404 25.2571 18.5995 25.2054 19.2587C24.8199 19.4084 24.4547 19.3929 24.1152 19.1245L24.1171 19.1265Z" fill="#FAF57C"/>
<path d="M28.3874 23.5286C28.2454 23.4702 28.1015 23.41 27.9594 23.3516C28.0591 23.268 28.1605 23.1864 28.2712 23.093C28.1033 22.92 27.9281 23.1786 27.7694 23.0775C27.6366 22.8791 27.6901 22.6011 27.5499 22.4222C27.4042 22.2355 27.1183 22.3386 26.9357 22.1908C26.8859 21.8641 26.6442 21.5141 27.0353 21.238C27.8414 20.9386 27.7787 20.9697 27.6717 21.7475C27.6588 21.8427 27.6459 21.94 27.644 22.0372C27.6422 22.1344 27.7086 22.1811 27.786 22.1616C28.0019 22.1072 28.2177 22.0703 28.4557 22.0975C28.5313 22.3269 28.4741 22.5622 28.4907 22.7916C28.4999 22.9258 28.5516 23.0075 28.6862 23.025C28.9611 23.0619 29.236 23.1028 29.5108 23.1416C29.5754 23.6025 29.2747 23.653 28.9759 23.6141C28.7822 23.5889 28.5811 23.5753 28.3893 23.5266L28.3874 23.5286Z" fill="#F4F0C1"/>
<path d="M24.1171 19.1265C24.4823 19.1556 24.8586 19.0778 25.2072 19.2606C25.2146 19.3928 25.2238 19.527 25.2312 19.6592C25.3161 19.7078 25.2976 19.7662 25.2441 19.8264L25.2331 19.8459C25.1722 19.91 25.1925 20.0131 25.1335 20.0792C24.9711 20.4525 24.7774 20.7325 24.3107 20.7267C23.536 20.7189 23.4327 20.6159 23.5046 19.8089C23.5415 19.385 23.7463 19.1867 24.1189 19.1245L24.1152 19.1245L24.1171 19.1265Z" fill="#FDF14F"/>
<path d="M35.3123 17.1373C35.3086 17.0946 35.3031 17.0498 35.2994 17.0071C35.3049 16.7932 35.3105 16.5792 35.316 16.3673C35.3179 16.2467 35.2884 16.1379 35.1943 16.0562C35.3621 16.0076 35.4341 16.029 35.4341 16.134C35.4341 16.3673 35.4212 16.6026 35.4212 16.8359C35.4212 17.0206 35.471 17.0751 35.6573 17.0692C35.8786 17.0615 36.1 17.0323 36.3214 17.0187C36.4597 17.009 36.5298 17.0731 36.5372 17.217C36.5464 17.4309 36.5446 17.6467 36.5483 17.8606C36.5519 18.0045 36.6294 18.0687 36.7604 18.0706C36.908 18.0726 37.0574 18.0745 37.205 18.0765C37.3433 18.0784 37.406 18.1601 37.4005 18.2981C37.3913 18.5101 37.4337 18.7279 37.3544 18.9359C37.1773 18.5042 36.7825 18.3779 36.4247 18.199C36.2789 18.0881 36.1111 18.0979 35.9432 18.0979C35.8141 18.0979 35.6831 18.0979 35.5558 18.0765C35.4359 18.057 35.3511 17.9676 35.34 17.8412C35.3216 17.6079 35.3197 17.3726 35.3123 17.1373Z" fill="#ECEFEF"/>
<path d="M27.0335 21.2381C26.8674 21.5415 26.9099 21.8662 26.9338 22.1909C26.8656 22.1501 26.8195 22.0917 26.8103 22.0081C26.7955 21.8487 26.7457 21.7106 26.6332 21.592C26.5704 21.5259 26.5206 21.4365 26.4911 21.349C26.4469 21.2245 26.4985 21.067 26.3841 20.9698C26.2569 20.8609 26.1001 20.9173 25.9562 20.9153C25.1611 20.9037 24.3661 20.8959 23.571 20.8862C23.5821 20.8337 23.5637 20.7501 23.6319 20.7403C24.1705 20.6626 24.7129 20.5459 25.246 20.7831C25.4304 20.7831 25.6168 20.7928 25.8012 20.787C26.0816 20.7773 26.1277 20.7267 26.1296 20.4448C26.1296 20.2115 26.1259 19.9762 26.124 19.7428C26.124 19.5484 26.1794 19.4006 26.3804 19.3481C26.4874 19.3209 26.5926 19.2801 26.6977 19.2451C26.6664 19.3423 26.6055 19.4142 26.5225 19.4648C26.4081 19.5328 26.2827 19.6009 26.2698 19.7545C26.2513 19.9665 26.2126 20.1842 26.3085 20.3884C26.3472 20.4701 26.4192 20.4934 26.493 20.4448C26.6313 20.3534 26.7291 20.1862 26.9209 20.1978C26.98 20.5128 26.9597 20.8298 26.9523 21.1467C26.9652 21.1662 26.9781 21.1876 26.991 21.207L27.0242 21.2031L27.0353 21.238L27.0335 21.2381Z" fill="#FDF14F"/>
<path d="M4.54704 18.7569C4.48432 18.4089 4.51752 18.0589 4.53044 17.7089C4.5415 17.423 4.60053 17.3589 4.85879 17.3511C5.20927 17.3394 5.5616 17.3414 5.91209 17.3414C6.115 17.3414 6.31976 17.353 6.51345 17.2714C6.5282 17.3064 6.55034 17.3414 6.55587 17.3764C6.62966 17.8314 6.62781 17.8275 6.2017 17.8547C5.76082 17.8819 5.31995 17.9189 4.87908 17.9539C4.67432 17.9714 4.64665 18.0103 4.62082 18.2475C4.60238 18.4186 4.65218 18.5994 4.54519 18.755L4.54704 18.7569Z" fill="#CC6C09"/>
<path d="M36.4246 18.1969C36.6275 18.1969 36.8323 18.1891 37.0352 18.1969C37.2473 18.2066 37.3008 18.2611 37.3211 18.4691C37.3359 18.6247 37.3451 18.7803 37.3562 18.9339C37.4023 19.0525 37.3801 19.1653 37.334 19.278C37.1274 19.1711 36.9042 19.1653 36.6792 19.1516C36.3453 19.1341 36.2955 19.0719 36.3305 18.7141C36.3471 18.5391 36.3932 18.368 36.4264 18.195L36.4246 18.1969Z" fill="#F9FAF8"/>
<path d="M17.2789 17.0984C17.2789 17.2909 17.2955 17.4853 17.2715 17.6739C17.2365 17.9578 17.1055 18.0512 16.827 18.0726C16.6093 18.0901 16.4304 18.0376 16.3049 17.8392C16.2773 17.6681 16.2477 17.497 16.2238 17.3259C16.2164 17.2714 16.2274 17.217 16.233 17.1314C16.5853 17.1198 16.9321 17.1081 17.2771 17.0984H17.2789Z" fill="#FAFBFA"/>
<path d="M28.3874 23.5286C28.6088 23.5189 28.832 23.515 29.0533 23.4936C29.2655 23.4722 29.4555 23.4022 29.509 23.1436C29.5551 23.1592 29.5994 23.1747 29.6436 23.1903C29.6639 23.2447 29.6639 23.2972 29.6436 23.3517C29.6233 23.7192 29.603 24.0866 29.5828 24.4541C29.402 24.4463 29.2194 24.4425 29.0386 24.427C28.915 24.4172 28.8449 24.3356 28.8283 24.2053C28.8264 24.1859 28.8191 24.1664 28.8246 24.1489C28.915 23.7561 28.701 23.6045 28.3874 23.5306V23.5286Z" fill="#F3CC3E"/>
<path d="M2.75035 18.6422C2.55112 18.7608 2.30209 18.8308 2.27811 19.1361C2.13607 19.0855 2.07889 18.9688 2.07704 18.823C2.07704 18.6888 2.09549 18.5527 2.09918 18.4186C2.10287 18.2999 2.03277 18.2338 1.93132 18.2338C1.63986 18.2338 1.34102 18.1697 1.06248 18.3174C1.06248 18.2377 1.06433 18.1599 1.06617 18.0802C1.30782 18.0802 1.54947 18.09 1.78928 18.0783C2.03831 18.0666 2.12316 17.9811 2.15268 17.7322C2.16743 17.5961 2.16743 17.46 2.17666 17.3219C2.18219 17.2383 2.22462 17.178 2.29103 17.1352C2.29103 17.2519 2.28549 17.3686 2.28734 17.4852C2.29102 17.7639 2.43245 17.9059 2.71161 17.9111C2.72821 17.9111 2.74481 17.9266 2.76141 17.9363C2.93666 18.1774 2.92928 18.4127 2.7485 18.6461L2.75035 18.6422Z" fill="#F3EAA2"/>
<path d="M25.246 20.7831C24.8254 20.7831 24.4048 20.7811 23.9824 20.783C23.8385 20.783 23.6854 20.7559 23.571 20.8862C23.5415 20.8978 23.5102 20.9095 23.4788 20.9211C23.405 20.33 23.4272 19.7388 23.4641 19.1477C23.6817 19.1419 23.9012 19.1361 24.1189 19.1283C24.1078 19.1438 24.0986 19.1633 24.0857 19.1749C23.9492 19.2916 23.7371 19.2916 23.6743 19.5269C23.5987 19.8127 23.5268 20.0908 23.595 20.3883C23.6153 20.4738 23.6762 20.5283 23.7518 20.5302C24.0285 20.5399 24.3071 20.5419 24.5838 20.5399C24.6852 20.5399 24.7516 20.4699 24.8107 20.3902C24.901 20.2677 24.9914 20.1413 25.1372 20.0811C25.1501 20.3202 25.091 20.5691 25.2478 20.783L25.246 20.7831Z" fill="#FAF57C"/>
<path d="M21.8832 17.143C21.8832 17.3375 21.8869 17.5319 21.8795 17.7264C21.8666 18.0258 21.5936 18.2086 21.3944 18.0122C21.1545 17.7769 20.8077 17.5729 20.876 17.1256C21.2117 17.1315 21.5475 17.1372 21.8813 17.143H21.8832Z" fill="#FAFBFA"/>
<path d="M16.2754 18.0569C16.2772 18.1736 16.2772 18.2903 16.2827 18.4069C16.2901 18.5975 16.2477 18.7453 16.0429 18.8017C15.8437 18.8561 15.6869 19 15.5264 19.1283C15.5154 19.0719 15.4932 19.0155 15.4969 18.9592C15.5117 18.6792 15.3955 18.3933 15.5209 18.1172C15.7681 18.0336 16.0263 18.0803 16.2772 18.0569H16.2754Z" fill="#FAFBFA"/>
<path d="M9.5535 25.4925C9.68632 25.3992 9.83758 25.4225 9.98331 25.4167C10.8872 25.3875 11.7929 25.3409 12.6986 25.3817C12.754 25.3837 12.8093 25.3837 12.8647 25.3817C12.9717 25.3759 13.0399 25.3137 13.0491 25.2048C13.0639 25.0298 13.0639 24.8548 13.0676 24.6798C13.0694 24.6 13.0842 24.5262 13.1543 24.4795C13.1506 24.7342 13.1543 24.9889 13.1432 25.2417C13.1358 25.4109 13.0602 25.4789 12.8979 25.4984C12.861 25.5023 12.8241 25.5042 12.7872 25.5042C11.7099 25.5003 10.6326 25.4964 9.55535 25.4906L9.5535 25.4925Z" fill="#F87510"/>
<path d="M23.3183 23.7425C23.3238 24.2131 23.3257 24.6817 23.3331 25.1523C23.3368 25.3389 23.3884 25.405 23.5636 25.407C24.1207 25.4148 24.6797 25.4323 25.2368 25.3642C25.1851 25.4537 25.1076 25.5023 25.0099 25.5023C24.5136 25.5042 24.0156 25.51 23.5194 25.5023C23.3165 25.4984 23.2353 25.4245 23.2335 25.232C23.2279 24.7867 23.2334 24.3414 23.2445 23.8962C23.2445 23.8456 23.2925 23.795 23.3183 23.7445V23.7425Z" fill="#F3760E"/>
<path d="M37.1053 23.4002C37.2344 23.3535 37.3322 23.2816 37.3303 23.1163C37.3193 22.3833 37.3119 21.6522 37.3008 20.921C37.3229 20.853 37.3451 20.783 37.3654 20.7169C37.4502 21.0455 37.3986 21.378 37.4096 21.7066C37.4281 22.218 37.4318 22.7294 37.4355 23.2388C37.4355 23.4702 37.4004 23.4858 37.1034 23.4002L37.1053 23.4002Z" fill="#F16D11"/>
<path d="M27.277 17.0263C27.2715 17.2208 27.2641 17.4153 27.2604 17.6098C27.2567 17.9228 27.2567 17.9227 26.9007 17.9538C26.9044 17.7613 26.9099 17.567 26.9136 17.3745C26.9185 17.1723 27.0396 17.0561 27.277 17.0263Z" fill="#F7F7E9"/>
<path d="M25.2202 25.3818C25.2313 24.7556 25.2423 24.1295 25.2515 23.5054C25.3198 23.5773 25.3512 23.6648 25.3512 23.764C25.3512 24.2054 25.3512 24.6468 25.3512 25.0862C25.3512 25.2068 25.3235 25.3137 25.2183 25.3818H25.2202Z" fill="#F3760E"/>
<path d="M30.1749 23.3672C30.363 23.2388 30.5475 23.2096 30.7246 23.3885C30.542 23.3808 30.3594 23.3749 30.1749 23.3672Z" fill="#F16D11"/>
<path d="M1.02188 23.3964C1.18052 23.3555 1.33732 23.3439 1.49781 23.3905C1.38897 23.5364 1.23218 23.4839 1.09014 23.4994C1.04586 23.48 1.00159 23.4625 1.02188 23.3964Z" fill="#F98F0C"/>
<path d="M29.6436 23.3517C29.6436 23.2972 29.6436 23.2428 29.6436 23.1903C29.6565 23.1553 29.6805 23.1418 29.7137 23.1496C29.7986 23.1943 29.8263 23.2721 29.8299 23.3654C29.7654 23.3984 29.7027 23.3945 29.6436 23.3517Z" fill="#F16D11"/>
<path d="M13.0288 16.0737C12.9181 16.0698 12.8093 16.0659 12.6986 16.062C12.8204 15.9674 12.9304 15.9712 13.0288 16.0737Z" fill="#2C3B51"/>
<path d="M29.8115 22.5603C29.8429 22.675 29.8558 22.7859 29.7562 22.8753C29.7303 22.7606 29.7414 22.6556 29.8115 22.5603Z" fill="#F16D11"/>
<path d="M25.2441 19.8283C25.2404 19.7719 25.2349 19.7175 25.2312 19.6611C25.27 19.6475 25.3069 19.6338 25.3456 19.6202C25.3512 19.7116 25.3235 19.7836 25.2441 19.8283Z" fill="#FAF57C"/>
<path d="M15.2719 25.5178C15.3088 25.5547 15.3439 25.5917 15.3789 25.6286C15.342 25.5917 15.307 25.5547 15.2719 25.5178Z" fill="#101F42"/>
<path d="M26.9891 21.2069C26.9578 21.2011 26.9449 21.1797 26.9504 21.1447L26.9965 21.1602L26.9891 21.2069Z" fill="#F7DB26"/>
<path d="M2.50133 27.8123L2.46075 27.8142V27.7695L2.49949 27.7714L2.50133 27.8123Z" fill="#DB581B"/>
<path d="M31.7152 21.3742C31.7613 21.2226 31.7631 21.0709 31.7152 20.9192C31.7797 20.4701 31.7484 20.0189 31.7465 19.5678C31.7465 19.1789 31.7226 19.0525 32.1597 19.107C32.1966 19.1109 32.2335 19.1109 32.2723 19.107C32.4899 19.0992 32.5084 19.0681 32.5268 18.825C32.5434 18.6189 32.418 18.3487 32.6135 18.2242C32.7519 18.1348 32.9732 18.1853 33.1577 18.1814C33.5857 18.1756 34.0136 18.1737 34.4434 18.1737C34.5744 18.1737 34.6408 18.2417 34.6574 18.3856C34.6832 18.6131 34.5965 18.8562 34.7404 19.0662C34.9433 19.0603 35.1462 19.0564 35.3492 19.0506C35.4562 19.0487 35.5281 19.0953 35.5336 19.2159C35.5392 19.3325 35.5355 19.4512 35.5355 19.5678C35.5355 20.1375 35.5318 20.7053 35.5299 21.275C35.5299 21.59 35.5465 21.9031 35.6111 22.2103C35.2717 22.4048 34.8493 22.4825 34.8271 23.0425C34.8179 23.2467 34.5596 23.3128 34.3696 23.2837C33.8162 23.202 33.2536 23.2662 32.7021 23.167C32.6504 23.1495 32.5711 23.132 32.5619 23.0912C32.4438 22.5895 32.0878 22.3348 31.6838 22.1267C31.693 21.8739 31.6488 21.6173 31.7152 21.3664V21.3742Z" fill="#020B31"/>
<path d="M32.6154 23.0716C33.3182 23.0172 34.0191 23.0814 34.7367 23.1222C34.8197 22.8052 34.6482 22.5311 34.6814 22.2297C34.9913 22.1091 35.3049 22.2783 35.6129 22.2141C35.7679 22.3289 35.755 22.5058 35.766 22.673L35.7679 22.6691C35.6996 22.7333 35.7236 22.848 35.6517 22.9102L35.6554 22.9044C35.4967 23.2272 35.1591 23.3264 34.9212 23.55C34.8271 23.5694 34.7183 23.5344 34.6408 23.6239C34.5356 23.6239 34.4287 23.6239 34.3235 23.6239C33.8199 23.4839 33.3071 23.5869 32.798 23.5616C32.3663 23.5403 32.3792 23.3594 32.6154 23.0736V23.0716Z" fill="#EBF0DE"/>
<path d="M13.0694 20.9191C13.0122 21.3333 13.0325 21.7455 13.0804 22.1577C13.062 22.2297 13.0232 22.2841 12.9605 22.3191C12.6967 22.4183 12.4514 22.5291 12.3979 22.8791C12.3702 23.058 12.2559 23.2058 12.0622 23.2136C11.363 23.2389 10.6639 23.2914 9.96848 23.1708C9.87624 23.1552 9.80246 23.0911 9.75634 22.9997C9.76557 22.4514 9.77848 21.9011 9.78217 21.3527C9.7877 20.6275 9.78217 19.9002 9.7877 19.175C9.78955 18.9202 9.80984 18.6655 9.82644 18.4108C9.83382 18.3 9.90207 18.2397 10.0054 18.2241C10.0238 18.2222 10.0423 18.2202 10.0607 18.2202C10.7119 18.2164 11.3649 18.2105 12.0161 18.2125C12.1894 18.2125 12.2282 18.2805 12.2466 18.4672C12.2688 18.6927 12.1526 18.9319 12.3075 19.1439C12.5123 19.1322 12.7152 19.1186 12.9199 19.1089C12.955 19.1089 12.9919 19.1205 13.0675 19.1341C13.086 19.7233 12.9919 20.3241 13.0694 20.9191Z" fill="#040C31"/>
<path d="M9.21224 23.4975C8.8802 23.4586 8.54817 23.4198 8.21613 23.3789C8.08885 23.3634 8.01322 23.2875 8.00399 23.1514C7.99477 23.0153 7.98923 22.8772 7.98923 22.7392C7.99292 22.1306 8.0003 21.522 8.00584 20.9134C8.41535 20.9095 8.82487 20.8978 9.23438 20.9056C9.50001 20.9095 9.5535 20.9717 9.55904 21.2653C9.56642 21.6153 9.53875 21.9439 9.39486 22.2881C9.2436 22.6517 9.20117 23.0814 9.2104 23.4975H9.21224Z" fill="#FED70D"/>
<path d="M9.75826 22.9998C10.1788 23.0153 10.6013 23.0328 11.0219 23.0464C11.1879 23.0523 11.3539 23.0464 11.5199 23.0503C11.756 23.0542 11.9921 23.0601 12.2283 23.0659C12.3574 22.8248 12.1877 22.5759 12.2504 22.3328C12.2559 22.3134 12.2596 22.2959 12.2688 22.2609C12.516 22.1637 12.7687 22.2492 13.0215 22.2726C13.4107 22.4203 13.2354 22.7295 13.2096 22.9978C13.1303 23.1281 13.0178 23.2078 12.8831 23.2603C12.7355 23.2428 12.5769 23.2078 12.4976 23.3887C12.4017 23.6103 12.2209 23.6201 12.0346 23.6201C11.3889 23.6181 10.7452 23.6142 10.0995 23.6084C9.87816 23.6064 9.6568 23.5948 9.43544 23.587C9.35612 23.4373 9.35428 23.2992 9.49632 23.1884C9.58117 23.1223 9.67156 23.0639 9.76011 23.0017L9.75826 22.9998Z" fill="#F5F5DF"/>
<path d="M17.29 22.2763C17.2881 21.8213 17.3416 21.3644 17.2715 20.9113C17.3582 20.5438 17.3047 20.1705 17.3195 19.8011C17.3269 19.6261 17.3195 19.4491 17.3287 19.2722C17.3343 19.1575 17.4099 19.0991 17.5113 19.0972C17.6774 19.0952 17.8452 19.1088 18.0131 19.1088C18.1902 19.1088 18.2344 19.0505 18.2086 18.8522C18.1846 18.6597 18.1496 18.4672 18.1201 18.2786C18.1717 18.1638 18.2676 18.1716 18.3562 18.1716C18.8579 18.1677 19.3597 18.1638 19.8596 18.1638C20.0828 18.1638 20.1049 18.193 20.1178 18.438C20.1271 18.613 20.1271 18.79 20.1381 18.965C20.1437 19.0505 20.199 19.103 20.2783 19.1205C20.3134 19.1283 20.3521 19.1283 20.389 19.1302C20.555 19.14 20.7524 19.0622 20.8778 19.173C21.0291 19.3091 20.9479 19.5405 20.9553 19.7311C20.9645 19.9858 20.9701 20.2405 20.9479 20.4933C20.9 21.0611 20.9258 21.6269 20.9848 22.1908C20.8612 22.3872 20.6436 22.3366 20.4739 22.4125C20.3171 22.463 20.2082 22.5583 20.2082 22.743C20.2082 23.2233 19.9112 23.3361 19.5405 23.3322C19.0977 23.3263 18.6458 23.4236 18.2178 23.2233C18.1865 23.2 18.1441 23.1766 18.1404 23.1436C18.0832 22.6088 17.7659 22.358 17.2937 22.2725L17.29 22.2763Z" fill="#030B2F"/>
<path d="M20.5145 22.2803C20.6712 22.2512 20.828 22.2239 20.983 22.1948C21.0199 22.1987 21.0567 22.2006 21.0936 22.2006L21.0992 22.2064C21.1619 22.2745 21.1712 22.3523 21.1306 22.4359C21.0881 22.4728 21.0402 22.4962 20.9848 22.5039C20.8078 22.5078 20.6344 22.4903 20.4868 22.3678C20.4278 22.3192 20.4923 22.3912 20.4554 22.325C20.4148 22.2512 20.4665 22.255 20.5145 22.2803Z" fill="#F9F067"/>
<path d="M32.6154 23.0716C32.5988 23.1066 32.573 23.1397 32.5656 23.1766C32.5177 23.4061 32.5601 23.4936 32.7427 23.4994C33.0748 23.5091 33.4086 23.4994 33.7407 23.5091C33.9381 23.515 34.152 23.4508 34.3217 23.6238C33.7868 23.6297 33.2518 23.6355 32.7169 23.6374C32.5804 23.6374 32.4291 23.6005 32.4144 23.4449C32.3885 23.1805 32.2465 23.1299 32.0381 23.1416C31.9458 23.1474 31.8536 23.1377 31.7614 23.1358C31.588 22.8947 31.6378 22.6147 31.6396 22.3425C31.6673 22.288 31.6673 22.2083 31.754 22.2063C31.8278 22.2024 31.9016 22.1947 31.9735 22.1927C32.1543 22.1888 32.3646 22.0741 32.5066 22.1927C32.6616 22.323 32.5472 22.5544 32.5527 22.743C32.5564 22.8597 32.5342 22.9764 32.6154 23.0736V23.0716Z" fill="#F8F2A6"/>
<path d="M34.8954 23.5188C35.0522 23.1824 35.3879 23.0872 35.6554 22.9044C35.6498 22.9783 35.6443 23.0541 35.637 23.128C35.4082 23.3302 35.2034 23.5733 34.8788 23.6083C34.8087 23.5635 34.8124 23.5344 34.8935 23.5188H34.8954Z" fill="#FCEA35"/>
<path d="M34.8954 23.5188C34.888 23.548 34.8825 23.5772 34.8807 23.6083C34.8014 23.6122 34.722 23.618 34.6408 23.6239C34.7035 23.5305 34.7921 23.5053 34.8954 23.5208L34.8954 23.5188Z" fill="#F8F2A6"/>
<path d="M20.5145 22.2803C20.7026 22.3464 20.9239 22.288 21.0881 22.4455C21.2892 22.6516 21.1693 22.8363 21.0291 22.988C20.8649 23.163 20.7118 23.3497 20.531 23.5072C20.3041 23.6005 20.0643 23.6258 19.8245 23.6316C19.4187 23.6413 19.0128 23.6374 18.607 23.6374C18.4207 23.6374 18.2381 23.6102 18.0739 23.5091C17.8267 23.2563 17.9171 23.1397 18.2215 23.1105C18.7564 23.1144 19.2895 23.1163 19.8245 23.1202C20.0145 23.1202 20.0495 23.0852 20.0293 22.8811C20.0071 22.6711 19.9758 22.4611 19.9499 22.253C20.1658 22.1674 20.3428 22.2297 20.5181 22.2783L20.5145 22.2803Z" fill="#F9F8CE"/>
<path d="M18.2178 23.1125C18.0801 23.2201 18.0309 23.3529 18.0703 23.5111C17.8729 23.5247 17.681 23.515 17.5169 23.373C17.408 23.2836 17.5095 23.1144 17.397 23.0269L17.4006 23.0327C17.3453 22.9161 17.2937 22.7994 17.2365 22.6847C17.1627 22.535 17.1719 22.3989 17.2881 22.2783C17.3785 22.2627 17.4689 22.2472 17.5593 22.2336C18.2603 22.1344 18.1754 22.15 18.1846 22.7683C18.1846 22.883 18.2049 22.9997 18.216 23.1144L18.2178 23.1125Z" fill="#F6F08A"/>
<path d="M20.5311 23.5092C20.6122 23.2934 20.6178 23.0464 20.8853 22.9356C21.0623 22.8636 21.1121 22.6536 21.0882 22.4475L21.1214 22.4223C21.3483 22.465 21.2357 22.6556 21.2653 22.7859C21.2653 22.8753 21.2745 22.9686 21.2044 23.0406C21.0347 23.2856 20.8318 23.4781 20.5292 23.5092H20.5311Z" fill="#F9F067"/>
<path d="M21.2339 22.8073C21.2173 22.6732 21.2247 22.5292 21.1214 22.4223C21.114 22.3503 21.1066 22.2784 21.0992 22.2084C21.3132 22.294 21.3243 22.4904 21.339 22.6868C21.3335 22.7218 21.3279 22.7587 21.3243 22.7937C21.3003 22.8423 21.2708 22.8462 21.2357 22.8073H21.2339Z" fill="#FCEA36"/>
<path d="M17.3988 23.027C17.5464 23.1009 17.5298 23.239 17.5187 23.3732C17.3933 23.2895 17.4025 23.1554 17.3988 23.027Z" fill="#FCC30D"/>
<path d="M21.2339 22.8073C21.2634 22.7996 21.2929 22.7956 21.3225 22.7937C21.3262 22.8987 21.2874 22.9803 21.2044 23.0406C21.2136 22.9628 21.2247 22.887 21.2339 22.8092L21.2339 22.8073Z" fill="#FCBE11"/>
<path d="M5.30709 23.023C5.0765 23.0153 4.84592 23.0094 4.61534 23.0016C4.52495 22.5369 4.53049 22.0703 4.58398 21.6017C4.60428 21.4247 4.68544 21.3664 4.84777 21.3742C4.94 21.38 5.03224 21.3936 5.12447 21.4053C5.24806 21.4209 5.32738 21.4889 5.34767 21.6231C5.36612 21.7378 5.38457 21.8525 5.40301 21.9653C5.40117 22.1247 5.39932 22.2861 5.39563 22.4456C5.32369 22.6128 5.38826 22.7936 5.34952 22.9647C5.31816 22.9686 5.3034 22.9881 5.30709 23.0211L5.30709 23.023Z" fill="#06071F"/>
<path d="M5.35133 22.9667C5.34579 22.7917 5.31997 22.6147 5.39744 22.4475C5.42511 22.6245 5.47861 22.8053 5.35133 22.9667Z" fill="#F09A08"/>
<path d="M2.27997 19.1382C2.44599 19.2004 2.5493 19.3268 2.61201 19.4979C2.41832 19.4629 2.30396 19.3482 2.27997 19.1382Z" fill="#F3EAA2"/>
<path d="M2.61387 19.4978C2.70979 19.4842 2.79096 19.5095 2.84445 19.6009C2.74853 19.6164 2.66736 19.5912 2.61387 19.4978Z" fill="#F3EAA2"/>
<path d="M1.95716 23.4276C2.0125 23.4178 2.04386 23.4451 2.0623 23.4976C2.02726 23.4742 1.99221 23.4509 1.95716 23.4276Z" fill="#F98F0C"/>
<path d="M25.1334 20.0811C25.1261 19.9839 25.1445 19.9003 25.233 19.8478C25.2404 19.945 25.2128 20.0247 25.1334 20.0811Z" fill="#FAF57C"/>
<path d="M31.7539 22.2045C31.7152 22.2493 31.6783 22.294 31.6396 22.3407C31.6488 22.0179 31.5492 21.6834 31.717 21.3743C31.73 21.6504 31.7429 21.9284 31.7558 22.2045H31.7539Z" fill="#FCEA35"/>
<path d="M12.8794 23.2602C12.9642 23.1824 13.0509 23.1047 13.1358 23.0249C13.1579 22.9841 13.1911 22.9705 13.2354 22.9841C13.2465 23.0016 13.2594 23.0191 13.2705 23.0386C13.1819 23.1941 13.0546 23.2758 12.8794 23.2602Z" fill="#FCC60F"/>
<path d="M13.3811 22.92C13.3442 22.9588 13.3073 22.9977 13.2704 23.0366L13.2594 23.0269C13.2169 22.9083 13.2686 22.885 13.3682 22.9063L13.3811 22.92Z" fill="#FCC60F"/>
<path d="M2.75035 18.6422C2.80937 18.4069 2.78169 18.1698 2.76324 17.9326C2.93049 17.7368 3.17152 17.6124 3.48635 17.5592C3.52139 18.0259 3.49557 18.4906 3.4679 18.9534C3.24285 18.9962 3.03625 18.9145 2.8278 18.8445C2.78353 18.7862 2.78169 18.7084 2.75033 18.6442V18.6404L2.75035 18.6422Z" fill="#1D1924"/>
<path d="M2.75224 18.6462C2.80943 18.7006 2.83525 18.7667 2.82972 18.8464C2.72642 18.8134 2.72642 18.7356 2.75224 18.6462Z" fill="#F3EAA2"/>
<path d="M13.3682 22.9063C13.3313 22.9472 13.2963 22.9861 13.2594 23.0269C13.2188 23.0269 13.1782 23.027 13.1358 23.027C13.1653 22.7645 13.2465 22.4923 13.0177 22.2745C13.0399 22.2375 13.0602 22.1987 13.0805 22.1617C13.1616 22.0625 13.1469 21.942 13.1469 21.8273C13.1487 21.6153 13.1469 21.4034 13.1469 21.1739C13.2797 21.2031 13.252 21.2867 13.2539 21.3431C13.2649 21.732 13.2336 22.1209 13.3553 22.502C13.394 22.6245 13.3645 22.7723 13.3664 22.9084L13.3682 22.9063Z" fill="#FDED39"/>
<path d="M35.6517 22.9102C35.6461 22.8052 35.6775 22.7216 35.7679 22.6691C35.7734 22.7741 35.7439 22.8597 35.6517 22.9102Z" fill="#FCEA35"/>
<path d="M32.7446 20.8277C32.7446 20.6119 32.7372 20.3961 32.7446 20.1822C32.7612 19.7836 32.9991 19.5133 33.3644 19.4938C33.6429 19.4783 33.9214 19.4822 34.2 19.4977C34.4048 19.5075 34.5191 19.6163 34.5247 19.8263C34.5357 20.3552 34.5449 20.8841 34.5191 21.4111C34.5007 21.7708 34.3402 21.8758 33.9971 21.9769C33.6577 22.0761 33.3404 22.0275 33.0213 21.9225C32.846 21.8641 32.7409 21.7436 32.7446 21.5336C32.7501 21.2983 32.7446 21.063 32.7446 20.8277Z" fill="#3F3F3F"/>
<path d="M12.0216 20.9425C12.0216 21.098 12.0327 21.2361 12.0198 21.3722C11.9755 21.798 11.7431 22.0372 11.3336 22.078C11.2044 22.0916 11.0735 22.0858 10.9443 22.078C10.7783 22.0663 10.6953 21.9963 10.6935 21.8311C10.6861 21.1466 10.6861 20.4641 10.6916 19.7797C10.6916 19.5775 10.7931 19.4763 10.9665 19.5016C11.186 19.5327 11.4055 19.5775 11.614 19.6494C11.78 19.7058 11.8777 19.8516 11.9128 20.0422C11.9681 20.3475 12.0677 20.6469 12.0198 20.9463L12.0216 20.9425Z" fill="#1C2B4F"/>
<path d="M18.3045 20.6334C18.3045 20.3398 18.2971 20.0482 18.3063 19.7545C18.3119 19.5776 18.382 19.5018 18.5461 19.4979C18.9169 19.4882 19.2877 19.4843 19.6585 19.4979C19.8595 19.5057 19.9665 19.6184 19.9702 19.8362C19.9794 20.3826 19.9739 20.929 19.9702 21.4773C19.9702 21.6465 19.8964 21.7845 19.7452 21.8487C19.5386 21.9343 19.332 22.0237 19.1161 22.0723C18.8929 22.1209 18.6827 22.0665 18.4927 21.9051C18.3635 21.7962 18.2953 21.6854 18.2971 21.5143C18.3008 21.2207 18.2971 20.929 18.2971 20.6354C18.299 20.6354 18.3008 20.6354 18.3027 20.6354L18.3045 20.6334Z" fill="#26324C"/>
</svg>
