<svg width="30" height="24" viewBox="0 0 30 24" fill="none" xmlns="http://www.w3.org/2000/svg">
<path d="M22.3515 16.8402V17.5431H21.1378V16.8402H22.3515Z" fill="#4E4F50"/>
<path d="M22.3515 14.7316V15.4345H21.1378V14.7316H22.3515Z" fill="#4E4F50"/>
<path d="M25.9928 16.1373L25.9928 16.8402H24.7791L24.7791 16.1373H25.9928Z" fill="#4E4F50"/>
<path d="M25.9928 15.4345V16.1373H24.7791V15.4345H25.9928Z" fill="#4E4F50"/>
<path d="M27.2067 14.0287V14.7316H25.9929V14.0287H27.2067Z" fill="#4E4F50"/>
<path d="M27.2067 13.3258V14.0287H25.9929V13.3258H27.2067Z" fill="#4E4F50"/>
<path d="M24.7791 16.8402V17.5431H23.5653V16.8402H24.7791Z" fill="#4E4F50"/>
<path d="M23.5653 16.8402V17.5431H22.3515V16.8402H23.5653Z" fill="#4E4F50"/>
<path d="M22.3515 17.5431V18.246H21.1378V17.5431H22.3515Z" fill="#4E4F50"/>
<path d="M21.1378 17.5431V18.246H19.924V17.5431H21.1378Z" fill="#4E4F50"/>
<path d="M19.924 17.5431V18.246L18.7102 18.246V17.5431H19.924Z" fill="#4E4F50"/>
<path d="M25.9929 14.7316L25.9928 15.4345H24.7791V14.7316L25.9929 14.7316Z" fill="#4E4F50"/>
<path d="M25.9929 14.0287V14.7316L24.7791 14.7316V14.0287H25.9929Z" fill="#4E4F50"/>
<path d="M22.3515 11.2172V11.9201H21.1378V11.2172H22.3515Z" fill="#4E4F50"/>
<path d="M25.9928 9.81145V10.5143H24.7791V9.81145H25.9928Z" fill="#4E4F50"/>
<path d="M25.9928 10.5143V11.2172H24.7791V10.5143H25.9928Z" fill="#4E4F50"/>
<path d="M27.2067 11.9201V12.623H25.9929V11.9201H27.2067Z" fill="#4E4F50"/>
<path d="M27.2067 12.623V13.3258H25.9929V12.623H27.2067Z" fill="#4E4F50"/>
<path d="M24.7791 9.10857V9.81145L23.5653 9.81145V9.10857H24.7791Z" fill="#4E4F50"/>
<path d="M23.5653 9.10857V9.81145H22.3515V9.10857H23.5653Z" fill="#4E4F50"/>
<path d="M22.3515 8.4057V9.10857H21.1378V8.4057L22.3515 8.4057Z" fill="#4E4F50"/>
<path d="M21.1378 8.4057V9.10857H19.924V8.4057H21.1378Z" fill="#4E4F50"/>
<path d="M19.924 8.4057V9.10857L18.7102 9.10857V8.4057H19.924Z" fill="#4E4F50"/>
<path d="M25.9928 11.2172L25.9929 11.9201L24.7791 11.9201V11.2172H25.9928Z" fill="#4E4F50"/>
<path d="M15.0689 16.1373V16.8402H13.8551V16.1373H15.0689Z" fill="#4E4F50"/>
<path d="M17.4964 16.8402V17.5431H16.2827V16.8402H17.4964Z" fill="#4E4F50"/>
<path d="M24.7791 16.1373L24.7791 16.8402H23.5653L23.5653 16.1373H24.7791Z" fill="#4E4F50"/>
<path d="M24.7791 15.4345V16.1373H23.5653V15.4345H24.7791Z" fill="#4E4F50"/>
<path d="M23.5653 16.1373L23.5653 16.8402H22.3515V16.1373H23.5653Z" fill="#4E4F50"/>
<path d="M21.1378 16.8402V17.5431H19.924V16.8402H21.1378Z" fill="#4E4F50"/>
<path d="M19.924 16.8402V17.5431H18.7102V16.8402H19.924Z" fill="#4E4F50"/>
<path d="M23.5653 15.4345V16.1373H22.3515V15.4345H23.5653Z" fill="#4E4F50"/>
<path d="M22.3515 16.1373V16.8402H21.1378V16.1373H22.3515Z" fill="#4E4F50"/>
<path d="M21.1378 16.1373V16.8402H19.924L19.924 16.1373H21.1378Z" fill="#4E4F50"/>
<path d="M19.924 16.1373L19.924 16.8402H18.7102L18.7102 16.1373H19.924Z" fill="#4E4F50"/>
<path d="M22.3515 15.4345V16.1373H21.1378V15.4345H22.3515Z" fill="#4E4F50"/>
<path d="M21.1378 15.4345V16.1373H19.924V15.4345H21.1378Z" fill="#4E4F50"/>
<path d="M19.924 15.4345V16.1373H18.7102V15.4345H19.924Z" fill="#4E4F50"/>
<path d="M24.7791 13.3258V14.0287L23.5653 14.0287V13.3258H24.7791Z" fill="#4E4F50"/>
<path d="M24.7791 14.0287V14.7316H23.5653V14.0287L24.7791 14.0287Z" fill="#4E4F50"/>
<path d="M24.7791 14.7316V15.4345H23.5653V14.7316H24.7791Z" fill="#4E4F50"/>
<path d="M23.5653 13.3258V14.0287H22.3515V13.3258H23.5653Z" fill="#4E4F50"/>
<path d="M23.5653 14.0287V14.7316H22.3515V14.0287H23.5653Z" fill="#4E4F50"/>
<path d="M21.1378 14.7316V15.4345H19.924V14.7316H21.1378Z" fill="#4E4F50"/>
<path d="M19.924 14.7316V15.4345H18.7102V14.7316H19.924Z" fill="#4E4F50"/>
<path d="M21.1378 14.0287V14.7316H19.924V14.0287H21.1378Z" fill="#4E4F50"/>
<path d="M22.3515 13.3258V14.0287H21.1378V13.3258L22.3515 13.3258Z" fill="#4E4F50"/>
<path d="M22.3515 14.0287V14.7316H21.1378V14.0287H22.3515Z" fill="#4E4F50"/>
<path d="M23.5653 14.7316V15.4345H22.3515V14.7316H23.5653Z" fill="#4E4F50"/>
<path d="M25.9929 13.3258V14.0287H24.7791V13.3258L25.9929 13.3258Z" fill="#4E4F50"/>
<path d="M22.3515 14.7316V15.4345H21.1378V14.7316H22.3515Z" fill="#4E4F50"/>
<path d="M24.7791 12.623V13.3258H23.5653V12.623H24.7791Z" fill="#4E4F50"/>
<path d="M24.7791 11.9201V12.623H23.5653V11.9201L24.7791 11.9201Z" fill="#4E4F50"/>
<path d="M23.5653 12.623V13.3258H22.3515V12.623H23.5653Z" fill="#4E4F50"/>
<path d="M25.9929 11.9201V12.623H24.7791V11.9201L25.9929 11.9201Z" fill="#4E4F50"/>
<path d="M25.9929 12.623V13.3258L24.7791 13.3258V12.623H25.9929Z" fill="#4E4F50"/>
<path d="M18.7102 16.8402V17.5431H17.4964V16.8402H18.7102Z" fill="#4E4F50"/>
<path d="M17.4964 16.1373V16.8402H16.2827V16.1373H17.4964Z" fill="#4E4F50"/>
<path d="M18.7102 16.1373L18.7102 16.8402H17.4964V16.1373H18.7102Z" fill="#4E4F50"/>
<path d="M18.7102 15.4345V16.1373H17.4964V15.4345H18.7102Z" fill="#4E4F50"/>
<path d="M17.4964 14.7316V15.4345L16.2827 15.4345V14.7316H17.4964Z" fill="#4E4F50"/>
<path d="M13.8551 15.4345V16.1373H12.6414V15.4345H13.8551Z" fill="#4E4F50"/>
<path d="M12.6414 14.0287V14.7316H11.4276V14.0287H12.6414Z" fill="#4E4F50"/>
<path d="M12.6414 14.7316L12.6414 15.4345L11.4276 15.4345V14.7316H12.6414Z" fill="#4E4F50"/>
<path d="M12.6414 13.3258V14.0287H11.4276V13.3258L12.6414 13.3258Z" fill="#4E4F50"/>
<path d="M16.2827 16.8402V17.5431H15.0689V16.8402H16.2827Z" fill="#4E4F50"/>
<path d="M18.7102 17.5431V18.246H17.4964V17.5431H18.7102Z" fill="#4E4F50"/>
<path d="M13.8551 14.7316V15.4345H12.6414L12.6414 14.7316H13.8551Z" fill="#4E4F50"/>
<path d="M28.4204 14.7316V15.4345H27.2067V14.7316H28.4204Z" fill="#4E4F50"/>
<path d="M28.4204 14.0287V14.7316H27.2067V14.0287L28.4204 14.0287Z" fill="#4E4F50"/>
<path d="M28.4204 13.3258V14.0287L27.2067 14.0287V13.3258L28.4204 13.3258Z" fill="#4E4F50"/>
<path d="M27.2067 16.1373V16.8402H25.9928L25.9928 16.1373H27.2067Z" fill="#4E4F50"/>
<path d="M25.9928 16.8402V17.5431H24.7791V16.8402H25.9928Z" fill="#4E4F50"/>
<path d="M24.7791 17.5431V18.246H23.5653V17.5431H24.7791Z" fill="#4E4F50"/>
<path d="M23.5653 17.5431V18.246H22.3515V17.5431H23.5653Z" fill="#4E4F50"/>
<path d="M22.3515 18.246V18.9489H21.1378V18.246H22.3515Z" fill="#4E4F50"/>
<path d="M21.1378 18.246V18.9489H19.924L19.924 18.246H21.1378Z" fill="#4E4F50"/>
<path d="M19.924 18.246L19.924 18.9489H18.7102V18.246L19.924 18.246Z" fill="#4E4F50"/>
<path d="M27.2067 15.4345V16.1373H25.9928V15.4345H27.2067Z" fill="#4E4F50"/>
<path d="M27.2067 14.7316V15.4345H25.9928L25.9929 14.7316H27.2067Z" fill="#4E4F50"/>
<path d="M28.4204 11.2172V11.9201H27.2067V11.2172H28.4204Z" fill="#4E4F50"/>
<path d="M28.4204 11.9201V12.623H27.2067V11.9201H28.4204Z" fill="#4E4F50"/>
<path d="M28.4204 12.623V13.3258L27.2067 13.3258V12.623H28.4204Z" fill="#4E4F50"/>
<path d="M27.2067 9.81145V10.5143H25.9928V9.81145L27.2067 9.81145Z" fill="#4E4F50"/>
<path d="M25.9928 9.10857V9.81145H24.7791V9.10857H25.9928Z" fill="#4E4F50"/>
<path d="M24.7791 8.4057V9.10857H23.5653V8.4057H24.7791Z" fill="#4E4F50"/>
<path d="M23.5653 8.4057V9.10857H22.3515V8.4057H23.5653Z" fill="#4E4F50"/>
<path d="M22.3515 7.70288V8.4057L21.1378 8.4057V7.70288H22.3515Z" fill="#4E4F50"/>
<path d="M21.1378 7.70288V8.4057H19.924V7.70288H21.1378Z" fill="#4E4F50"/>
<path d="M19.924 7.70288V8.4057H18.7102V7.70288H19.924Z" fill="#4E4F50"/>
<path d="M27.2067 10.5143V11.2172H25.9928V10.5143H27.2067Z" fill="#4E4F50"/>
<path d="M27.2067 11.2172V11.9201H25.9929L25.9928 11.2172H27.2067Z" fill="#4E4F50"/>
<path d="M11.4276 14.7316V15.4345H10.2138V14.7316H11.4276Z" fill="#4E4F50"/>
<path d="M11.4276 14.0287V14.7316H10.2138V14.0287L11.4276 14.0287Z" fill="#4E4F50"/>
<path d="M11.4276 13.3258V14.0287L10.2138 14.0287V13.3258L11.4276 13.3258Z" fill="#4E4F50"/>
<path d="M12.6414 16.1373V16.8402H11.4276V16.1373L12.6414 16.1373Z" fill="#4E4F50"/>
<path d="M13.8551 16.8402V17.5431H12.6414V16.8402H13.8551Z" fill="#4E4F50"/>
<path d="M15.0689 17.5431V18.246H13.8551V17.5431H15.0689Z" fill="#4E4F50"/>
<path d="M16.2827 17.5431V18.246L15.0689 18.246V17.5431H16.2827Z" fill="#4E4F50"/>
<path d="M17.4964 18.246V18.9489H16.2827V18.246L17.4964 18.246Z" fill="#4E4F50"/>
<path d="M18.7102 18.246V18.9489H17.4964V18.246H18.7102Z" fill="#4E4F50"/>
<path d="M12.6414 15.4345V16.1373L11.4276 16.1373L11.4276 15.4345L12.6414 15.4345Z" fill="#4E4F50"/>
<path d="M13.8551 16.1373V16.8402H12.6414V16.1373H13.8551Z" fill="#4E4F50"/>
<path d="M15.0689 16.8402V17.5431H13.8551V16.8402H15.0689Z" fill="#4E4F50"/>
<path d="M17.4964 17.5431V18.246L16.2827 18.246V17.5431H17.4964Z" fill="#4E4F50"/>
<path d="M11.4275 11.2172V11.9201H10.2138V11.2172H11.4275Z" fill="#4E4F50"/>
<path d="M11.4275 11.9201V12.623H10.2138V11.9201H11.4275Z" fill="#4E4F50"/>
<path d="M11.4275 12.623L11.4276 13.3258L10.2138 13.3258V12.623H11.4275Z" fill="#4E4F50"/>
<path d="M12.6414 9.81145V10.5143H11.4276V9.81145H12.6414Z" fill="#4E4F50"/>
<path d="M13.8551 9.10857V9.81145H12.6414V9.10857H13.8551Z" fill="#4E4F50"/>
<path d="M15.0689 8.4057V9.10857L13.8551 9.10857V8.4057H15.0689Z" fill="#4E4F50"/>
<path d="M16.2827 8.4057L16.2827 9.10857H15.0689V8.4057H16.2827Z" fill="#4E4F50"/>
<path d="M17.4964 7.70288V8.40576L16.2827 8.4057V7.70288L17.4964 7.70288Z" fill="#4E4F50"/>
<path d="M18.7102 7.70288V8.4057L17.4964 8.40576V7.70288H18.7102Z" fill="#4E4F50"/>
<path d="M12.6414 10.5143V11.2172H11.4275L11.4276 10.5143H12.6414Z" fill="#4E4F50"/>
<path d="M29.6342 14.7316V15.4345H28.4204V14.7316L29.6342 14.7316Z" fill="#4E4F50"/>
<path d="M29.6342 14.0287V14.7316L28.4204 14.7316V14.0287L29.6342 14.0287Z" fill="#4E4F50"/>
<path d="M29.6342 13.3258V14.0287L28.4204 14.0287V13.3258L29.6342 13.3258Z" fill="#4E4F50"/>
<path d="M19.924 18.9489L19.924 19.6517H18.7102V18.9489H19.924Z" fill="#4E4F50"/>
<path d="M21.1378 18.9489L21.1378 19.6517H19.924L19.924 18.9489H21.1378Z" fill="#4E4F50"/>
<path d="M22.3515 18.9489V19.6517H21.1378L21.1378 18.9489H22.3515Z" fill="#4E4F50"/>
<path d="M23.5653 18.246V18.9489H22.3515V18.246H23.5653Z" fill="#4E4F50"/>
<path d="M24.7791 18.246V18.9489H23.5653V18.246H24.7791Z" fill="#4E4F50"/>
<path d="M25.9928 17.5431V18.246H24.7791V17.5431H25.9928Z" fill="#4E4F50"/>
<path d="M27.2067 16.8402V17.5431H25.9928V16.8402H27.2067Z" fill="#4E4F50"/>
<path d="M28.4204 15.4345V16.1373H27.2067V15.4345H28.4204Z" fill="#4E4F50"/>
<path d="M28.4204 16.1373V16.8402H27.2067V16.1373H28.4204Z" fill="#4E4F50"/>
<path d="M29.6342 11.2172V11.9201L28.4204 11.9201V11.2172H29.6342Z" fill="#4E4F50"/>
<path d="M29.6342 11.9201V12.623H28.4204V11.9201L29.6342 11.9201Z" fill="#4E4F50"/>
<path d="M29.6342 12.623V13.3258L28.4204 13.3258V12.623H29.6342Z" fill="#4E4F50"/>
<path d="M19.924 7V7.70288H18.7102V7H19.924Z" fill="#4E4F50"/>
<path d="M21.1378 7V7.70288H19.924V7H21.1378Z" fill="#4E4F50"/>
<path d="M22.3515 7V7.70288H21.1378V7H22.3515Z" fill="#4E4F50"/>
<path d="M23.5653 7.70288V8.4057H22.3515V7.70288L23.5653 7.70288Z" fill="#4E4F50"/>
<path d="M24.7791 7.70288V8.4057H23.5653V7.70288H24.7791Z" fill="#4E4F50"/>
<path d="M25.9928 8.4057V9.10857H24.7791V8.4057H25.9928Z" fill="#4E4F50"/>
<path d="M27.2067 9.10857V9.81145L25.9928 9.81145V9.10857H27.2067Z" fill="#4E4F50"/>
<path d="M28.4204 10.5143V11.2172H27.2067V10.5143H28.4204Z" fill="#4E4F50"/>
<path d="M28.4204 9.81145V10.5143H27.2067V9.81145L28.4204 9.81145Z" fill="#4E4F50"/>
<path d="M10.2138 14.7316V15.4345H9V14.7316L10.2138 14.7316Z" fill="#4E4F50"/>
<path d="M10.2138 15.4345V19.5132H9V15.4345H10.2138Z" fill="#4E4F50"/>
<path d="M10.2138 14.0287V14.7316L9 14.7316V14.0287L10.2138 14.0287Z" fill="#4E4F50"/>
<path d="M10.2138 13.3258V14.0287L9 14.0287V13.3258L10.2138 13.3258Z" fill="#4E4F50"/>
<path d="M18.7102 18.9489V19.6517H17.4964V18.9489H18.7102Z" fill="#4E4F50"/>
<path d="M17.4964 18.9489V19.6517H16.2827V18.9489H17.4964Z" fill="#4E4F50"/>
<path d="M16.2827 18.246V18.9489H15.0689V18.246L16.2827 18.246Z" fill="#4E4F50"/>
<path d="M15.0689 18.246V18.9489H13.8551V18.246H15.0689Z" fill="#4E4F50"/>
<path d="M13.8551 17.5431V18.246H12.6414V17.5431H13.8551Z" fill="#4E4F50"/>
<path d="M12.6414 16.8402V17.5431H11.4276L11.4276 16.8402H12.6414Z" fill="#4E4F50"/>
<path d="M11.4276 15.4345L11.4276 16.1373L10.2138 16.1373V15.4345H11.4276Z" fill="#4E4F50"/>
<path d="M11.4276 16.1373V16.8402H10.2138V16.1373L11.4276 16.1373Z" fill="#4E4F50"/>
<path d="M11.4276 16.8402L11.4275 20.7448H10.2138V16.8402H11.4276Z" fill="#4E4F50"/>
<path d="M10.2138 11.2172V11.9201H9V11.2172H10.2138Z" fill="#4E4F50"/>
<path d="M10.2138 11.9201V12.623H9V11.9201H10.2138Z" fill="#4E4F50"/>
<path d="M10.2138 12.623V13.3258L9 13.3258V12.623H10.2138Z" fill="#4E4F50"/>
<path d="M18.7102 7V7.70288H17.4964V7H18.7102Z" fill="#4E4F50"/>
<path d="M17.4964 7V7.70288L16.2827 7.70288V7L17.4964 7Z" fill="#4E4F50"/>
<path d="M16.2827 7.70288V8.4057H15.0689V7.70288L16.2827 7.70288Z" fill="#4E4F50"/>
<path d="M15.0689 7.70288V8.4057H13.8551V7.70288H15.0689Z" fill="#4E4F50"/>
<path d="M13.8551 8.4057V9.10857H12.6414V8.4057L13.8551 8.4057Z" fill="#4E4F50"/>
<path d="M12.6414 9.10857V9.81145H11.4276L11.4276 9.10857H12.6414Z" fill="#4E4F50"/>
<path d="M11.4276 10.5143L11.4275 11.2172H10.2138V10.5143L11.4276 10.5143Z" fill="#4E4F50"/>
<path d="M11.4276 9.81145V10.5143L10.2138 10.5143V9.81145L11.4276 9.81145Z" fill="#4E4F50"/>
<path d="M17.4964 11.2172L17.4964 11.9201H16.2827V11.2172H17.4964Z" fill="#4E4F50"/>
<path d="M19.924 14.0287V14.7316H18.7102V14.0287H19.924Z" fill="#4E4F50"/>
<path d="M21.1378 13.3258V14.0287H19.924V13.3258H21.1378Z" fill="#4E4F50"/>
<path d="M19.924 13.3258V14.0287H18.7102V13.3258H19.924Z" fill="#4E4F50"/>
<path d="M24.7791 9.81145V10.5143H23.5653V9.81145L24.7791 9.81145Z" fill="#4E4F50"/>
<path d="M24.7791 10.5143V11.2172H23.5653V10.5143H24.7791Z" fill="#4E4F50"/>
<path d="M23.5653 9.81145V10.5143H22.3515V9.81145H23.5653Z" fill="#4E4F50"/>
<path d="M22.3515 9.10857V9.81145L21.1378 9.81145V9.10857H22.3515Z" fill="#4E4F50"/>
<path d="M23.5653 10.5143V11.2172H22.3515V10.5143H23.5653Z" fill="#4E4F50"/>
<path d="M22.3515 9.81145V10.5143H21.1378V9.81145L22.3515 9.81145Z" fill="#4E4F50"/>
<path d="M21.1378 9.81145V10.5143H19.924V9.81145H21.1378Z" fill="#4E4F50"/>
<path d="M22.3515 10.5143V11.2172H21.1378V10.5143H22.3515Z" fill="#4E4F50"/>
<path d="M21.1378 10.5143V11.2172H19.924V10.5143H21.1378Z" fill="#4E4F50"/>
<path d="M19.924 10.5143V11.2172L18.7102 11.2172V10.5143H19.924Z" fill="#4E4F50"/>
<path d="M24.7791 11.2172V11.9201L23.5653 11.9201V11.2172H24.7791Z" fill="#4E4F50"/>
<path d="M23.5653 11.9201V12.623H22.3515V11.9201L23.5653 11.9201Z" fill="#4E4F50"/>
<path d="M21.1378 11.2172V11.9201L19.924 11.9201V11.2172H21.1378Z" fill="#4E4F50"/>
<path d="M19.924 11.2172V11.9201H18.7102V11.2172L19.924 11.2172Z" fill="#4E4F50"/>
<path d="M21.1378 11.9201V12.623H19.924V11.9201L21.1378 11.9201Z" fill="#4E4F50"/>
<path d="M19.924 11.9201V12.623L18.7102 12.623V11.9201H19.924Z" fill="#4E4F50"/>
<path d="M22.3515 12.623V13.3258L21.1378 13.3258V12.623H22.3515Z" fill="#4E4F50"/>
<path d="M21.1378 12.623V13.3258H19.924V12.623H21.1378Z" fill="#4E4F50"/>
<path d="M19.924 12.623V13.3258H18.7102V12.623L19.924 12.623Z" fill="#4E4F50"/>
<path d="M22.3515 11.9201V12.623H21.1378V11.9201H22.3515Z" fill="#4E4F50"/>
<path d="M23.5653 11.2172V11.9201L22.3515 11.9201V11.2172H23.5653Z" fill="#4E4F50"/>
<path d="M22.3515 11.2172V11.9201H21.1378V11.2172H22.3515Z" fill="#4E4F50"/>
<path d="M15.0689 15.4345V16.1373H13.8551V15.4345L15.0689 15.4345Z" fill="#4E4F50"/>
<path d="M16.2827 16.1373V16.8402H15.0689V16.1373H16.2827Z" fill="#4E4F50"/>
<path d="M16.2827 15.4345V16.1373H15.0689V15.4345H16.2827Z" fill="#4E4F50"/>
<path d="M17.4964 15.4345V16.1373H16.2827V15.4345L17.4964 15.4345Z" fill="#4E4F50"/>
<path d="M15.0689 13.3258V14.0287H13.8551V13.3258H15.0689Z" fill="#4E4F50"/>
<path d="M15.0689 14.0287V14.7316H13.8551V14.0287H15.0689Z" fill="#4E4F50"/>
<path d="M15.0689 14.7316V15.4345L13.8551 15.4345V14.7316H15.0689Z" fill="#4E4F50"/>
<path d="M16.2827 13.3258V14.0287H15.0689V13.3258H16.2827Z" fill="#4E4F50"/>
<path d="M16.2827 14.0287V14.7316H15.0689V14.0287H16.2827Z" fill="#4E4F50"/>
<path d="M18.7102 14.7316V15.4345H17.4964V14.7316H18.7102Z" fill="#4E4F50"/>
<path d="M18.7102 14.0287V14.7316H17.4964V14.0287H18.7102Z" fill="#4E4F50"/>
<path d="M17.4964 13.3258V14.0287H16.2827V13.3258H17.4964Z" fill="#4E4F50"/>
<path d="M18.7102 13.3258V14.0287H17.4964V13.3258H18.7102Z" fill="#4E4F50"/>
<path d="M17.4964 14.0287V14.7316H16.2827V14.0287H17.4964Z" fill="#4E4F50"/>
<path d="M16.2827 14.7316V15.4345H15.0689V14.7316H16.2827Z" fill="#4E4F50"/>
<path d="M13.8551 14.0287V14.7316H12.6414V14.0287H13.8551Z" fill="#4E4F50"/>
<path d="M17.4964 14.7316V15.4345L16.2827 15.4345V14.7316H17.4964Z" fill="#4E4F50"/>
<path d="M16.2827 12.623V13.3258H15.0689V12.623H16.2827Z" fill="#4E4F50"/>
<path d="M18.7102 11.2172V11.9201H17.4964L17.4964 11.2172L18.7102 11.2172Z" fill="#4E4F50"/>
<path d="M18.7102 11.9201V12.623H17.4964V11.9201H18.7102Z" fill="#4E4F50"/>
<path d="M17.4964 12.623V13.3258H16.2827V12.623H17.4964Z" fill="#4E4F50"/>
<path d="M18.7102 12.623V13.3258H17.4964V12.623H18.7102Z" fill="#4E4F50"/>
<path d="M17.4964 11.9201V12.623H16.2827V11.9201H17.4964Z" fill="#4E4F50"/>
<path d="M13.8551 9.81145V10.5143L12.6414 10.5143V9.81145H13.8551Z" fill="#4E4F50"/>
<path d="M13.8551 10.5143V11.2172H12.6414V10.5143L13.8551 10.5143Z" fill="#4E4F50"/>
<path d="M12.6414 11.9201V12.623H11.4275V11.9201H12.6414Z" fill="#4E4F50"/>
<path d="M12.6414 11.2172L12.6414 11.9201H11.4275V11.2172H12.6414Z" fill="#4E4F50"/>
<path d="M12.6414 12.623V13.3258L11.4276 13.3258L11.4275 12.623H12.6414Z" fill="#4E4F50"/>
<path d="M15.0689 9.10857V9.81145H13.8551V9.10857L15.0689 9.10857Z" fill="#4E4F50"/>
<path d="M16.2827 9.10857L16.2827 9.81145H15.0689V9.10857H16.2827Z" fill="#4E4F50"/>
<path d="M17.4964 8.40576V9.10857L16.2827 9.10857L16.2827 8.4057L17.4964 8.40576Z" fill="#4E4F50"/>
<path d="M18.7102 8.4057V9.10857H17.4964V8.40576L18.7102 8.4057Z" fill="#4E4F50"/>
<path d="M21.1378 9.10857V9.81145H19.924V9.10857H21.1378Z" fill="#4E4F50"/>
<path d="M19.924 9.10857V9.81145H18.7102V9.10857L19.924 9.10857Z" fill="#4E4F50"/>
<path d="M19.924 9.81145V10.5143H18.7102V9.81145H19.924Z" fill="#4E4F50"/>
<path d="M13.8551 13.3258V14.0287H12.6414V13.3258H13.8551Z" fill="#4E4F50"/>
<path d="M15.0689 9.81145V10.5143L13.8551 10.5143V9.81145H15.0689Z" fill="#4E4F50"/>
<path d="M15.0689 10.5143V11.2172H13.8551V10.5143L15.0689 10.5143Z" fill="#4E4F50"/>
<path d="M16.2827 9.81145L16.2827 10.5143H15.0689V9.81145H16.2827Z" fill="#4E4F50"/>
<path d="M17.4964 9.10857L17.4964 9.81145H16.2827L16.2827 9.10857L17.4964 9.10857Z" fill="#4E4F50"/>
<path d="M18.7102 9.10857V9.81145H17.4964L17.4964 9.10857H18.7102Z" fill="#4E4F50"/>
<path d="M16.2827 10.5143V11.2172L15.0689 11.2172V10.5143H16.2827Z" fill="#4E4F50"/>
<path d="M17.4964 9.81145V10.5143H16.2827L16.2827 9.81145H17.4964Z" fill="#4E4F50"/>
<path d="M18.7102 9.81145V10.5143H17.4964V9.81145H18.7102Z" fill="#4E4F50"/>
<path d="M17.4964 10.5143L17.4964 11.2172H16.2827V10.5143H17.4964Z" fill="#4E4F50"/>
<path d="M18.7102 10.5143V11.2172L17.4964 11.2172L17.4964 10.5143H18.7102Z" fill="#4E4F50"/>
<path d="M15.0689 12.623V13.3258H13.8551V12.623H15.0689Z" fill="#4E4F50"/>
<path d="M15.0689 11.9201V12.623H13.8551V11.9201H15.0689Z" fill="#4E4F50"/>
<path d="M15.0689 11.2172V11.9201H13.8551V11.2172H15.0689Z" fill="#4E4F50"/>
<path d="M16.2827 11.9201V12.623H15.0689V11.9201H16.2827Z" fill="#4E4F50"/>
<path d="M16.2827 11.2172V11.9201H15.0689V11.2172L16.2827 11.2172Z" fill="#4E4F50"/>
<path d="M13.8551 11.2172V11.9201H12.6414L12.6414 11.2172H13.8551Z" fill="#4E4F50"/>
<path d="M13.8551 11.9201V12.623H12.6414V11.9201H13.8551Z" fill="#4E4F50"/>
<path d="M13.8551 12.623V13.3258H12.6414V12.623H13.8551Z" fill="#4E4F50"/>
<path d="M17.4964 11.2172L17.4964 11.9201H16.2827V11.2172H17.4964Z" fill="#4E4F50"/>
<path d="M12.6414 17.5431L12.6414 21.2913H11.4276V17.5431H12.6414Z" fill="#4E4F50"/>
<path d="M13.8551 18.246V22.1148H12.6414V18.246H13.8551Z" fill="#4E4F50"/>
<path d="M15.0689 18.9489L15.0689 22.8948H13.8551L13.8551 18.9489H15.0689Z" fill="#4E4F50"/>
<path d="M16.2827 18.9489V22.8948H15.0689L15.0689 18.9489H16.2827Z" fill="#4E4F50"/>
<path d="M29.6342 15.4345V19.5132H28.4204V15.4345H29.6342Z" fill="#4E4F50"/>
<path d="M28.4204 16.8402V20.7447H27.2067V16.8402H28.4204Z" fill="#4E4F50"/>
<path d="M27.2067 17.5431V21.2913H25.9929L25.9928 17.5431H27.2067Z" fill="#4E4F50"/>
<path d="M25.9928 18.246V22.1148H24.7791V18.246H25.9928Z" fill="#4E4F50"/>
<path d="M24.7791 18.9489V22.8948H22.3515L22.3515 18.9489H24.7791Z" fill="#4E4F50"/>
<path d="M21.1378 19.6517V23.6774H17.4964V19.6517H21.1378Z" fill="#4E4F50"/>
<path d="M17.4964 19.6517V23.6774L16.2827 23.6774V19.6517H17.4964Z" fill="#4E4F50"/>
<path d="M22.3515 19.6517L22.3515 23.6774H21.1378V19.6517H22.3515Z" fill="#4E4F50"/>
<path d="M13.3515 9.84023V10.5431H12.1378V9.84023H13.3515Z" fill="#4E4F50"/>
<path d="M13.3515 7.73159V8.43447H12.1378V7.73159H13.3515Z" fill="#4E4F50"/>
<path d="M16.9928 9.13735L16.9928 9.84023H15.7791V9.13735H16.9928Z" fill="#4E4F50"/>
<path d="M16.9928 8.43447V9.13735H15.7791V8.43447H16.9928Z" fill="#4E4F50"/>
<path d="M18.2067 7.02872V7.73159H16.9929V7.02872H18.2067Z" fill="#4E4F50"/>
<path d="M18.2067 6.32584V7.02872H16.9929V6.32584H18.2067Z" fill="#4E4F50"/>
<path d="M15.7791 9.84023V10.5431H14.5653V9.84023H15.7791Z" fill="#4E4F50"/>
<path d="M14.5653 9.84023V10.5431H13.3515V9.84023H14.5653Z" fill="#4E4F50"/>
<path d="M13.3515 10.5431V11.246H12.1378V10.5431H13.3515Z" fill="#4E4F50"/>
<path d="M12.1378 10.5431V11.246H10.924V10.5431L12.1378 10.5431Z" fill="#4E4F50"/>
<path d="M10.924 10.5431V11.246H9.71024V10.5431H10.924Z" fill="#4E4F50"/>
<path d="M16.9929 7.73159L16.9928 8.43447H15.7791V7.73159L16.9929 7.73159Z" fill="#4E4F50"/>
<path d="M16.9929 7.02872V7.73159L15.7791 7.73159V7.02872H16.9929Z" fill="#4E4F50"/>
<path d="M13.3515 4.21721L13.3515 4.92008H12.1378L12.1378 4.21721H13.3515Z" fill="#4E4F50"/>
<path d="M16.9928 2.81145V3.51433H15.7791V2.81145L16.9928 2.81145Z" fill="#4E4F50"/>
<path d="M16.9928 3.51433V4.21721L15.7791 4.21721V3.51433H16.9928Z" fill="#4E4F50"/>
<path d="M18.2067 4.92008V5.62296H16.9929V4.92008H18.2067Z" fill="#4E4F50"/>
<path d="M18.2067 5.62296V6.32584H16.9929V5.62296H18.2067Z" fill="#4E4F50"/>
<path d="M15.7791 2.10857V2.81145L14.5653 2.81145V2.10857H15.7791Z" fill="#4E4F50"/>
<path d="M14.5653 2.10857V2.81145L13.3515 2.81145V2.10857H14.5653Z" fill="#4E4F50"/>
<path d="M13.3515 1.4057L13.3515 2.10857L12.1378 2.10857V1.4057H13.3515Z" fill="#4E4F50"/>
<path d="M12.1378 1.4057V2.10857H10.924V1.4057L12.1378 1.4057Z" fill="#4E4F50"/>
<path d="M10.924 1.4057V2.10857H9.71024V1.4057H10.924Z" fill="#4E4F50"/>
<path d="M16.9928 4.21721L16.9929 4.92008L15.7791 4.92008V4.21721L16.9928 4.21721Z" fill="#4E4F50"/>
<path d="M6.06889 9.13735L6.06889 9.84023H4.85512L4.85512 9.13735H6.06889Z" fill="#4E4F50"/>
<path d="M8.49642 9.84023V10.5431H7.28265V9.84023H8.49642Z" fill="#4E4F50"/>
<path d="M15.7791 9.13735V9.84023H14.5653V9.13735L15.7791 9.13735Z" fill="#4E4F50"/>
<path d="M15.7791 8.43447V9.13735L14.5653 9.13735V8.43447H15.7791Z" fill="#4E4F50"/>
<path d="M14.5653 9.13735V9.84023H13.3515V9.13735H14.5653Z" fill="#4E4F50"/>
<path d="M12.1378 9.84023V10.5431L10.924 10.5431V9.84023H12.1378Z" fill="#4E4F50"/>
<path d="M10.924 9.84023V10.5431H9.71024V9.84023H10.924Z" fill="#4E4F50"/>
<path d="M14.5653 8.43447V9.13735H13.3515V8.43447H14.5653Z" fill="#4E4F50"/>
<path d="M13.3515 9.13735V9.84023H12.1378V9.13735H13.3515Z" fill="#4E4F50"/>
<path d="M12.1378 9.13735V9.84023H10.924V9.13735H12.1378Z" fill="#4E4F50"/>
<path d="M10.924 9.13735V9.84023H9.71024V9.13735H10.924Z" fill="#4E4F50"/>
<path d="M13.3515 8.43447V9.13735H12.1378V8.43447H13.3515Z" fill="#4E4F50"/>
<path d="M12.1378 8.43447V9.13735H10.924V8.43447H12.1378Z" fill="#4E4F50"/>
<path d="M10.924 8.43447V9.13735H9.71024V8.43447H10.924Z" fill="#4E4F50"/>
<path d="M15.7791 6.32584V7.02872L14.5653 7.02872V6.32584H15.7791Z" fill="#4E4F50"/>
<path d="M15.7791 7.02872V7.73159H14.5653V7.02872L15.7791 7.02872Z" fill="#4E4F50"/>
<path d="M15.7791 7.73159V8.43447H14.5653V7.73159H15.7791Z" fill="#4E4F50"/>
<path d="M14.5653 6.32584V7.02872H13.3515V6.32584H14.5653Z" fill="#4E4F50"/>
<path d="M14.5653 7.02872V7.73159H13.3515V7.02872H14.5653Z" fill="#4E4F50"/>
<path d="M12.1378 7.73159V8.43447H10.924V7.73159H12.1378Z" fill="#4E4F50"/>
<path d="M10.924 7.73159V8.43447H9.71024V7.73159H10.924Z" fill="#4E4F50"/>
<path d="M12.1378 7.02872V7.73159H10.924V7.02872H12.1378Z" fill="#4E4F50"/>
<path d="M13.3515 6.32584V7.02872H12.1378V6.32584H13.3515Z" fill="#4E4F50"/>
<path d="M13.3515 7.02872V7.73159H12.1378V7.02872H13.3515Z" fill="#4E4F50"/>
<path d="M14.5653 7.73159V8.43447H13.3515V7.73159H14.5653Z" fill="#4E4F50"/>
<path d="M16.9929 6.32584V7.02872H15.7791V6.32584L16.9929 6.32584Z" fill="#4E4F50"/>
<path d="M13.3515 7.73159V8.43447H12.1378V7.73159H13.3515Z" fill="#4E4F50"/>
<path d="M15.7791 5.62296V6.32584H14.5653V5.62296H15.7791Z" fill="#4E4F50"/>
<path d="M15.7791 4.92008V5.62296H14.5653V4.92008L15.7791 4.92008Z" fill="#4E4F50"/>
<path d="M14.5653 5.62296V6.32584H13.3515V5.62296H14.5653Z" fill="#4E4F50"/>
<path d="M16.9929 4.92008V5.62296H15.7791V4.92008L16.9929 4.92008Z" fill="#4E4F50"/>
<path d="M16.9929 5.62296V6.32584L15.7791 6.32584V5.62296H16.9929Z" fill="#4E4F50"/>
<path d="M9.71024 9.84023V10.5431H8.49642V9.84023H9.71024Z" fill="#4E4F50"/>
<path d="M8.49642 9.13735L8.49642 9.84023H7.28265L7.28265 9.13735H8.49642Z" fill="#4E4F50"/>
<path d="M9.71024 9.13735V9.84023H8.49642L8.49642 9.13735H9.71024Z" fill="#4E4F50"/>
<path d="M9.71024 8.43447V9.13735H8.49642L8.49642 8.43447H9.71024Z" fill="#4E4F50"/>
<path d="M8.49642 7.73159V8.43447L7.28265 8.43447V7.73159L8.49642 7.73159Z" fill="#4E4F50"/>
<path d="M4.85512 8.43447V9.13735H3.64135V8.43447H4.85512Z" fill="#4E4F50"/>
<path d="M3.64136 7.02872V7.73159H2.42759V7.02872H3.64136Z" fill="#4E4F50"/>
<path d="M3.64136 7.73159L3.64135 8.43447L2.42759 8.43447V7.73159H3.64136Z" fill="#4E4F50"/>
<path d="M3.64136 6.32584L3.64136 7.02872H2.42759L2.42759 6.32584H3.64136Z" fill="#4E4F50"/>
<path d="M7.28265 9.84023V10.5431H6.06889V9.84023H7.28265Z" fill="#4E4F50"/>
<path d="M9.71024 10.5431V11.246H8.49642V10.5431H9.71024Z" fill="#4E4F50"/>
<path d="M4.85512 7.73159V8.43447H3.64135L3.64136 7.73159L4.85512 7.73159Z" fill="#4E4F50"/>
<path d="M19.4204 7.73159V8.43447H18.2067V7.73159L19.4204 7.73159Z" fill="#4E4F50"/>
<path d="M19.4204 7.02872V7.73159L18.2067 7.73159V7.02872H19.4204Z" fill="#4E4F50"/>
<path d="M19.4204 6.32584V7.02872H18.2067V6.32584L19.4204 6.32584Z" fill="#4E4F50"/>
<path d="M18.2067 9.13735V9.84023H16.9928L16.9928 9.13735H18.2067Z" fill="#4E4F50"/>
<path d="M16.9928 9.84023V10.5431H15.7791V9.84023H16.9928Z" fill="#4E4F50"/>
<path d="M15.7791 10.5431V11.246H14.5653V10.5431H15.7791Z" fill="#4E4F50"/>
<path d="M14.5653 10.5431V11.246H13.3515V10.5431H14.5653Z" fill="#4E4F50"/>
<path d="M13.3515 11.246V11.9489H12.1378V11.246H13.3515Z" fill="#4E4F50"/>
<path d="M12.1378 11.246V11.9489H10.924V11.246H12.1378Z" fill="#4E4F50"/>
<path d="M10.924 11.246V11.9489H9.71024V11.246H10.924Z" fill="#4E4F50"/>
<path d="M18.2067 8.43447V9.13735H16.9928V8.43447H18.2067Z" fill="#4E4F50"/>
<path d="M18.2067 7.73159V8.43447H16.9928L16.9929 7.73159H18.2067Z" fill="#4E4F50"/>
<path d="M19.4204 4.21721V4.92008L18.2067 4.92008V4.21721L19.4204 4.21721Z" fill="#4E4F50"/>
<path d="M19.4204 4.92008V5.62296H18.2067V4.92008L19.4204 4.92008Z" fill="#4E4F50"/>
<path d="M19.4204 5.62296V6.32584L18.2067 6.32584V5.62296H19.4204Z" fill="#4E4F50"/>
<path d="M18.2067 2.81145V3.51433L16.9928 3.51433V2.81145L18.2067 2.81145Z" fill="#4E4F50"/>
<path d="M16.9928 2.10857V2.81145L15.7791 2.81145V2.10857L16.9928 2.10857Z" fill="#4E4F50"/>
<path d="M15.7791 1.4057V2.10857H14.5653V1.4057L15.7791 1.4057Z" fill="#4E4F50"/>
<path d="M14.5653 1.4057V2.10857H13.3515L13.3515 1.4057L14.5653 1.4057Z" fill="#4E4F50"/>
<path d="M13.3515 0.702878V1.4057H12.1378V0.702878L13.3515 0.702878Z" fill="#4E4F50"/>
<path d="M12.1378 0.702878V1.4057L10.924 1.4057L10.924 0.702878L12.1378 0.702878Z" fill="#4E4F50"/>
<path d="M10.924 0.702878L10.924 1.4057H9.71024V0.702878L10.924 0.702878Z" fill="#4E4F50"/>
<path d="M18.2067 3.51433V4.21721L16.9928 4.21721V3.51433L18.2067 3.51433Z" fill="#4E4F50"/>
<path d="M18.2067 4.21721V4.92008H16.9929L16.9928 4.21721L18.2067 4.21721Z" fill="#4E4F50"/>
<path d="M2.42759 7.73159V8.43447H1.21377L1.21377 7.73159L2.42759 7.73159Z" fill="#4E4F50"/>
<path d="M2.42759 7.02872V7.73159L1.21377 7.73159V7.02872L2.42759 7.02872Z" fill="#4E4F50"/>
<path d="M2.42759 6.32584L2.42759 7.02872L1.21377 7.02872V6.32584L2.42759 6.32584Z" fill="#4E4F50"/>
<path d="M3.64135 9.13735L3.64136 9.84023H2.42759L2.42759 9.13735H3.64135Z" fill="#4E4F50"/>
<path d="M4.85512 9.84023V10.5431H3.64136V9.84023H4.85512Z" fill="#4E4F50"/>
<path d="M6.06889 10.5431V11.246H4.85512V10.5431H6.06889Z" fill="#4E4F50"/>
<path d="M7.28265 10.5431V11.246H6.06889V10.5431H7.28265Z" fill="#4E4F50"/>
<path d="M8.49642 11.246V11.9489H7.28265V11.246H8.49642Z" fill="#4E4F50"/>
<path d="M9.71024 11.246V11.9489H8.49642V11.246H9.71024Z" fill="#4E4F50"/>
<path d="M3.64135 8.43447V9.13735H2.42759L2.42759 8.43447L3.64135 8.43447Z" fill="#4E4F50"/>
<path d="M4.85512 9.13735L4.85512 9.84023H3.64136L3.64135 9.13735H4.85512Z" fill="#4E4F50"/>
<path d="M6.06889 9.84023V10.5431H4.85512V9.84023H6.06889Z" fill="#4E4F50"/>
<path d="M8.49642 10.5431V11.246H7.28265V10.5431H8.49642Z" fill="#4E4F50"/>
<path d="M2.42753 4.21721V4.92008H1.21377V4.21721H2.42753Z" fill="#4E4F50"/>
<path d="M2.42753 4.92008V5.62296H1.21377L1.21377 4.92008H2.42753Z" fill="#4E4F50"/>
<path d="M2.42753 5.62296L2.42759 6.32584L1.21377 6.32584V5.62296H2.42753Z" fill="#4E4F50"/>
<path d="M3.64135 2.81145V3.51433L2.42759 3.51433V2.81145H3.64135Z" fill="#4E4F50"/>
<path d="M4.85512 2.10857V2.81145L3.64135 2.81145V2.10857H4.85512Z" fill="#4E4F50"/>
<path d="M6.06889 1.4057V2.10857L4.85512 2.10857V1.4057H6.06889Z" fill="#4E4F50"/>
<path d="M7.28265 1.4057V2.10857H6.06889V1.4057L7.28265 1.4057Z" fill="#4E4F50"/>
<path d="M8.49642 0.702878V1.40576L7.28265 1.4057V0.702878H8.49642Z" fill="#4E4F50"/>
<path d="M9.71024 0.702878V1.4057L8.49642 1.40576V0.702878L9.71024 0.702878Z" fill="#4E4F50"/>
<path d="M3.64135 3.51433L3.64135 4.21721H2.42753L2.42759 3.51433L3.64135 3.51433Z" fill="#4E4F50"/>
<path d="M20.6342 7.73159V8.43447H19.4204V7.73159H20.6342Z" fill="#4E4F50"/>
<path d="M20.6342 7.02872V7.73159H19.4204V7.02872L20.6342 7.02872Z" fill="#4E4F50"/>
<path d="M20.6342 6.32584V7.02872L19.4204 7.02872V6.32584L20.6342 6.32584Z" fill="#4E4F50"/>
<path d="M10.924 11.9489V12.6517L9.71024 12.6517V11.9489H10.924Z" fill="#4E4F50"/>
<path d="M12.1378 11.9489V12.6517H10.924V11.9489H12.1378Z" fill="#4E4F50"/>
<path d="M13.3515 11.9489V12.6517H12.1378V11.9489H13.3515Z" fill="#4E4F50"/>
<path d="M14.5653 11.246V11.9489H13.3515V11.246H14.5653Z" fill="#4E4F50"/>
<path d="M15.7791 11.246V11.9489H14.5653V11.246H15.7791Z" fill="#4E4F50"/>
<path d="M16.9928 10.5431V11.246H15.7791V10.5431H16.9928Z" fill="#4E4F50"/>
<path d="M18.2067 9.84023V10.5431H16.9928V9.84023H18.2067Z" fill="#4E4F50"/>
<path d="M19.4204 8.43447V9.13735H18.2067V8.43447H19.4204Z" fill="#4E4F50"/>
<path d="M19.4204 9.13735V9.84023H18.2067V9.13735H19.4204Z" fill="#4E4F50"/>
<path d="M20.6342 4.2172V4.92008L19.4204 4.92008V4.21721L20.6342 4.2172Z" fill="#4E4F50"/>
<path d="M20.6342 4.92008V5.62296H19.4204V4.92008L20.6342 4.92008Z" fill="#4E4F50"/>
<path d="M20.6342 5.62296V6.32584L19.4204 6.32584V5.62296H20.6342Z" fill="#4E4F50"/>
<path d="M10.924 1.06111e-07L10.924 0.702878L9.71024 0.702878V1.59166e-07L10.924 1.06111e-07Z" fill="#4E4F50"/>
<path d="M12.1378 5.30554e-08L12.1378 0.702878L10.924 0.702878L10.924 1.06111e-07L12.1378 5.30554e-08Z" fill="#4E4F50"/>
<path d="M13.3515 0V0.702878L12.1378 0.702878L12.1378 5.30554e-08L13.3515 0Z" fill="#4E4F50"/>
<path d="M14.5653 0.702878V1.4057L13.3515 1.4057V0.702878L14.5653 0.702878Z" fill="#4E4F50"/>
<path d="M15.7791 0.702878V1.4057L14.5653 1.4057V0.702878L15.7791 0.702878Z" fill="#4E4F50"/>
<path d="M16.9928 1.4057V2.10857L15.7791 2.10857V1.4057L16.9928 1.4057Z" fill="#4E4F50"/>
<path d="M18.2067 2.10857V2.81145L16.9928 2.81145V2.10857L18.2067 2.10857Z" fill="#4E4F50"/>
<path d="M19.4204 3.51433V4.21721L18.2067 4.21721V3.51433H19.4204Z" fill="#4E4F50"/>
<path d="M19.4204 2.81145V3.51433H18.2067V2.81145L19.4204 2.81145Z" fill="#4E4F50"/>
<path d="M1.21377 7.73159L1.21377 8.43447H1.84342e-07L1.53619e-07 7.73159H1.21377Z" fill="#4E4F50"/>
<path d="M1.21377 8.43447V12.5132H3.6263e-07L1.84342e-07 8.43447H1.21377Z" fill="#4E4F50"/>
<path d="M1.21377 7.02872V7.73159H1.53619e-07L1.22895e-07 7.02872L1.21377 7.02872Z" fill="#4E4F50"/>
<path d="M1.21377 6.32584V7.02872L1.22895e-07 7.02872L9.21714e-08 6.32584L1.21377 6.32584Z" fill="#4E4F50"/>
<path d="M9.71024 11.9489V12.6517H8.49642V11.9489H9.71024Z" fill="#4E4F50"/>
<path d="M8.49642 11.9489V12.6517H7.28265V11.9489H8.49642Z" fill="#4E4F50"/>
<path d="M7.28265 11.246V11.9489H6.06889V11.246H7.28265Z" fill="#4E4F50"/>
<path d="M6.06889 11.246V11.9489H4.85512V11.246H6.06889Z" fill="#4E4F50"/>
<path d="M4.85512 10.5431V11.246H3.64135L3.64136 10.5431H4.85512Z" fill="#4E4F50"/>
<path d="M3.64136 9.84023V10.5431H2.42759L2.42759 9.84023H3.64136Z" fill="#4E4F50"/>
<path d="M2.42759 8.43447L2.42759 9.13735H1.21377L1.21377 8.43447H2.42759Z" fill="#4E4F50"/>
<path d="M2.42759 9.13735L2.42759 9.84023H1.21377V9.13735H2.42759Z" fill="#4E4F50"/>
<path d="M2.42759 9.84023L2.42753 13.7448H1.21377L1.21377 9.84023H2.42759Z" fill="#4E4F50"/>
<path d="M1.21377 4.21721V4.92008L3.07238e-08 4.92008L0 4.21721L1.21377 4.21721Z" fill="#4E4F50"/>
<path d="M1.21377 4.92008L1.21377 5.62296H6.14476e-08L3.07238e-08 4.92008L1.21377 4.92008Z" fill="#4E4F50"/>
<path d="M1.21377 5.62296V6.32584L9.21714e-08 6.32584L6.14476e-08 5.62296H1.21377Z" fill="#4E4F50"/>
<path d="M9.71024 1.59166e-07V0.702878L8.49642 0.702878V2.12224e-07L9.71024 1.59166e-07Z" fill="#4E4F50"/>
<path d="M8.49642 2.12224e-07V0.702878H7.28265V2.6528e-07L8.49642 2.12224e-07Z" fill="#4E4F50"/>
<path d="M7.28265 0.702878V1.4057L6.06889 1.4057V0.702878L7.28265 0.702878Z" fill="#4E4F50"/>
<path d="M6.06889 0.702878V1.4057H4.85512V0.702878L6.06889 0.702878Z" fill="#4E4F50"/>
<path d="M4.85512 1.4057V2.10857H3.64135L3.64135 1.4057L4.85512 1.4057Z" fill="#4E4F50"/>
<path d="M3.64135 2.10857V2.81145H2.42759L2.42759 2.10857L3.64135 2.10857Z" fill="#4E4F50"/>
<path d="M2.42759 3.51433L2.42753 4.21721H1.21377L1.21377 3.51433H2.42759Z" fill="#4E4F50"/>
<path d="M2.42759 2.81145V3.51433H1.21377L1.21377 2.81145L2.42759 2.81145Z" fill="#4E4F50"/>
<path d="M8.49642 4.21721V4.92008H7.28265V4.21721L8.49642 4.21721Z" fill="#4E4F50"/>
<path d="M10.924 7.02872V7.73159H9.71024V7.02872H10.924Z" fill="#4E4F50"/>
<path d="M12.1378 6.32584V7.02872H10.924V6.32584H12.1378Z" fill="#4E4F50"/>
<path d="M10.924 6.32584V7.02872H9.71024V6.32584H10.924Z" fill="#4E4F50"/>
<path d="M15.7791 2.81145V3.51433L14.5653 3.51433V2.81145L15.7791 2.81145Z" fill="#4E4F50"/>
<path d="M15.7791 3.51433V4.21721H14.5653V3.51433L15.7791 3.51433Z" fill="#4E4F50"/>
<path d="M14.5653 2.81145V3.51433L13.3515 3.51433V2.81145L14.5653 2.81145Z" fill="#4E4F50"/>
<path d="M13.3515 2.10857V2.81145L12.1378 2.81145L12.1378 2.10857L13.3515 2.10857Z" fill="#4E4F50"/>
<path d="M14.5653 3.51433V4.21721L13.3515 4.21721L13.3515 3.51433L14.5653 3.51433Z" fill="#4E4F50"/>
<path d="M13.3515 2.81145V3.51433H12.1378V2.81145L13.3515 2.81145Z" fill="#4E4F50"/>
<path d="M12.1378 2.81145V3.51433H10.924V2.81145L12.1378 2.81145Z" fill="#4E4F50"/>
<path d="M13.3515 3.51433L13.3515 4.21721H12.1378L12.1378 3.51433H13.3515Z" fill="#4E4F50"/>
<path d="M12.1378 3.51433L12.1378 4.21721L10.924 4.21721V3.51433H12.1378Z" fill="#4E4F50"/>
<path d="M10.924 3.51433V4.21721H9.71024L9.71024 3.51433L10.924 3.51433Z" fill="#4E4F50"/>
<path d="M15.7791 4.21721V4.92008L14.5653 4.92008V4.21721H15.7791Z" fill="#4E4F50"/>
<path d="M14.5653 4.92008V5.62296H13.3515V4.92008L14.5653 4.92008Z" fill="#4E4F50"/>
<path d="M12.1378 4.21721L12.1378 4.92008L10.924 4.92008V4.21721L12.1378 4.21721Z" fill="#4E4F50"/>
<path d="M10.924 4.21721V4.92008H9.71024V4.21721H10.924Z" fill="#4E4F50"/>
<path d="M12.1378 4.92008V5.62296H10.924V4.92008L12.1378 4.92008Z" fill="#4E4F50"/>
<path d="M10.924 4.92008V5.62296H9.71024V4.92008H10.924Z" fill="#4E4F50"/>
<path d="M13.3515 5.62296V6.32584H12.1378V5.62296L13.3515 5.62296Z" fill="#4E4F50"/>
<path d="M12.1378 5.62296V6.32584H10.924V5.62296H12.1378Z" fill="#4E4F50"/>
<path d="M10.924 5.62296V6.32584H9.71024V5.62296H10.924Z" fill="#4E4F50"/>
<path d="M13.3515 4.92008V5.62296L12.1378 5.62296V4.92008H13.3515Z" fill="#4E4F50"/>
<path d="M14.5653 4.21721V4.92008L13.3515 4.92008L13.3515 4.21721L14.5653 4.21721Z" fill="#4E4F50"/>
<path d="M13.3515 4.21721L13.3515 4.92008H12.1378L12.1378 4.21721H13.3515Z" fill="#4E4F50"/>
<path d="M6.06889 8.43447V9.13735H4.85512V8.43447L6.06889 8.43447Z" fill="#4E4F50"/>
<path d="M7.28265 9.13735L7.28265 9.84023H6.06889L6.06889 9.13735H7.28265Z" fill="#4E4F50"/>
<path d="M7.28265 8.43447L7.28265 9.13735H6.06889V8.43447H7.28265Z" fill="#4E4F50"/>
<path d="M8.49642 8.43447L8.49642 9.13735H7.28265L7.28265 8.43447L8.49642 8.43447Z" fill="#4E4F50"/>
<path d="M6.06889 6.32584V7.02872L4.85512 7.02872V6.32584H6.06889Z" fill="#4E4F50"/>
<path d="M6.06889 7.02872V7.73159L4.85512 7.73159V7.02872L6.06889 7.02872Z" fill="#4E4F50"/>
<path d="M6.06889 7.73159V8.43447L4.85512 8.43447V7.73159L6.06889 7.73159Z" fill="#4E4F50"/>
<path d="M7.28265 6.32584V7.02872H6.06889V6.32584H7.28265Z" fill="#4E4F50"/>
<path d="M7.28265 7.02872V7.73159L6.06889 7.73159V7.02872H7.28265Z" fill="#4E4F50"/>
<path d="M9.71024 7.73159V8.43447H8.49642V7.73159H9.71024Z" fill="#4E4F50"/>
<path d="M9.71024 7.02872V7.73159H8.49642L8.49642 7.02872H9.71024Z" fill="#4E4F50"/>
<path d="M8.49642 6.32584V7.02872H7.28265V6.32584L8.49642 6.32584Z" fill="#4E4F50"/>
<path d="M9.71024 6.32584V7.02872H8.49642V6.32584H9.71024Z" fill="#4E4F50"/>
<path d="M8.49642 7.02872L8.49642 7.73159L7.28265 7.73159V7.02872H8.49642Z" fill="#4E4F50"/>
<path d="M7.28265 7.73159V8.43447H6.06889V7.73159L7.28265 7.73159Z" fill="#4E4F50"/>
<path d="M4.85512 7.02872V7.73159L3.64136 7.73159V7.02872L4.85512 7.02872Z" fill="#4E4F50"/>
<path d="M8.49642 7.73159V8.43447L7.28265 8.43447V7.73159L8.49642 7.73159Z" fill="#4E4F50"/>
<path d="M7.28265 5.62296V6.32584H6.06889V5.62296H7.28265Z" fill="#4E4F50"/>
<path d="M9.71024 4.21721V4.92008L8.49642 4.92008V4.21721L9.71024 4.21721Z" fill="#4E4F50"/>
<path d="M9.71024 4.92008V5.62296H8.49642L8.49642 4.92008L9.71024 4.92008Z" fill="#4E4F50"/>
<path d="M8.49642 5.62296V6.32584L7.28265 6.32584V5.62296H8.49642Z" fill="#4E4F50"/>
<path d="M9.71024 5.62296V6.32584H8.49642V5.62296H9.71024Z" fill="#4E4F50"/>
<path d="M8.49642 4.92008L8.49642 5.62296H7.28265V4.92008H8.49642Z" fill="#4E4F50"/>
<path d="M4.85512 2.81145V3.51433L3.64135 3.51433V2.81145L4.85512 2.81145Z" fill="#4E4F50"/>
<path d="M4.85512 3.51433V4.21721H3.64135L3.64135 3.51433L4.85512 3.51433Z" fill="#4E4F50"/>
<path d="M3.64136 4.92008V5.62296H2.42753V4.92008H3.64136Z" fill="#4E4F50"/>
<path d="M3.64135 4.21721L3.64136 4.92008H2.42753V4.21721H3.64135Z" fill="#4E4F50"/>
<path d="M3.64136 5.62296V6.32584H2.42759L2.42753 5.62296H3.64136Z" fill="#4E4F50"/>
<path d="M6.06889 2.10857V2.81145L4.85512 2.81145V2.10857L6.06889 2.10857Z" fill="#4E4F50"/>
<path d="M7.28265 2.10857V2.81145H6.06889V2.10857H7.28265Z" fill="#4E4F50"/>
<path d="M8.49642 1.40576V2.10857L7.28265 2.10857V1.4057L8.49642 1.40576Z" fill="#4E4F50"/>
<path d="M9.71024 1.4057V2.10857H8.49642V1.40576L9.71024 1.4057Z" fill="#4E4F50"/>
<path d="M12.1378 2.10857L12.1378 2.81145L10.924 2.81145V2.10857H12.1378Z" fill="#4E4F50"/>
<path d="M10.924 2.10857V2.81145L9.71024 2.81145V2.10857H10.924Z" fill="#4E4F50"/>
<path d="M10.924 2.81145V3.51433L9.71024 3.51433L9.71024 2.81145L10.924 2.81145Z" fill="#4E4F50"/>
<path d="M4.85512 6.32584V7.02872L3.64136 7.02872L3.64136 6.32584L4.85512 6.32584Z" fill="#4E4F50"/>
<path d="M6.06889 2.81145V3.51433L4.85512 3.51433V2.81145L6.06889 2.81145Z" fill="#4E4F50"/>
<path d="M6.06889 3.51433V4.21721L4.85512 4.21721V3.51433L6.06889 3.51433Z" fill="#4E4F50"/>
<path d="M7.28265 2.81145L7.28265 3.51433H6.06889V2.81145H7.28265Z" fill="#4E4F50"/>
<path d="M8.49642 2.10857V2.81145L7.28265 2.81145V2.10857L8.49642 2.10857Z" fill="#4E4F50"/>
<path d="M9.71024 2.10857V2.81145H8.49642V2.10857H9.71024Z" fill="#4E4F50"/>
<path d="M7.28265 3.51433L7.28265 4.21721H6.06889V3.51433H7.28265Z" fill="#4E4F50"/>
<path d="M8.49642 2.81145V3.51433L7.28265 3.51433L7.28265 2.81145L8.49642 2.81145Z" fill="#4E4F50"/>
<path d="M9.71024 2.81145L9.71024 3.51433H8.49642V2.81145H9.71024Z" fill="#4E4F50"/>
<path d="M8.49642 3.51433V4.21721L7.28265 4.21721L7.28265 3.51433L8.49642 3.51433Z" fill="#4E4F50"/>
<path d="M9.71024 3.51433L9.71024 4.21721L8.49642 4.21721V3.51433H9.71024Z" fill="#4E4F50"/>
<path d="M6.06889 5.62296V6.32584H4.85512V5.62296H6.06889Z" fill="#4E4F50"/>
<path d="M6.06889 4.92008V5.62296H4.85512V4.92008H6.06889Z" fill="#4E4F50"/>
<path d="M6.06889 4.21721V4.92008H4.85512V4.21721L6.06889 4.21721Z" fill="#4E4F50"/>
<path d="M7.28265 4.92008V5.62296H6.06889V4.92008L7.28265 4.92008Z" fill="#4E4F50"/>
<path d="M7.28265 4.21721V4.92008L6.06889 4.92008V4.21721H7.28265Z" fill="#4E4F50"/>
<path d="M4.85512 4.21721V4.92008L3.64136 4.92008L3.64135 4.21721H4.85512Z" fill="#4E4F50"/>
<path d="M4.85512 4.92008V5.62296L3.64136 5.62296V4.92008L4.85512 4.92008Z" fill="#4E4F50"/>
<path d="M4.85512 5.62296V6.32584L3.64136 6.32584V5.62296L4.85512 5.62296Z" fill="#4E4F50"/>
<path d="M8.49642 4.21721V4.92008H7.28265V4.21721L8.49642 4.21721Z" fill="#4E4F50"/>
<path d="M3.64136 10.5431L3.64136 14.2913H2.42759L2.42759 10.5431H3.64136Z" fill="#4E4F50"/>
<path d="M4.85512 11.246V15.1148H3.64136L3.64135 11.246H4.85512Z" fill="#4E4F50"/>
<path d="M6.06889 11.9489V15.8948H4.85512V11.9489H6.06889Z" fill="#4E4F50"/>
<path d="M7.28265 11.9489V15.8948H6.06889V11.9489H7.28265Z" fill="#4E4F50"/>
<path d="M20.6342 8.43447V12.5132H19.4204V8.43447H20.6342Z" fill="#4E4F50"/>
<path d="M19.4204 9.84023V13.7448H18.2067V9.84023H19.4204Z" fill="#4E4F50"/>
<path d="M18.2067 10.5431V14.2913H16.9929L16.9928 10.5431H18.2067Z" fill="#4E4F50"/>
<path d="M16.9928 11.246V15.1148H15.7791V11.246H16.9928Z" fill="#4E4F50"/>
<path d="M15.7791 11.9489L15.7791 15.8948H13.3515L13.3515 11.9489H15.7791Z" fill="#4E4F50"/>
<path d="M12.1378 12.6517L12.1378 16.6774H8.49642L8.49642 12.6517L12.1378 12.6517Z" fill="#4E4F50"/>
<path d="M8.49642 12.6517L8.49642 16.6774L7.28265 16.6774V12.6517H8.49642Z" fill="#4E4F50"/>
<path d="M13.3515 12.6517V16.6774H12.1378L12.1378 12.6517H13.3515Z" fill="#4E4F50"/>
</svg>
