<svg width="30" height="22" viewBox="0 0 30 22" fill="none" xmlns="http://www.w3.org/2000/svg">
<path d="M21.8038 13.2687L21.8038 13.692L20.48 13.692L20.48 13.2687L21.8038 13.2687Z" fill="#FF943D"/>
<path d="M21.8038 11.9987L21.8038 12.4221L20.48 12.4221L20.48 11.9987L21.8038 11.9987Z" fill="#FFA72F"/>
<path d="M25.7754 12.8454L25.7754 13.2687L24.4516 13.2687L24.4516 12.8454L25.7754 12.8454Z" fill="#FF943D"/>
<path d="M25.7754 12.422L25.7754 12.8454L24.4516 12.8454L24.4516 12.422L25.7754 12.422Z" fill="#FF943D"/>
<path d="M27.0986 11.5754L27.0986 11.9988L25.7749 11.9988L25.7749 11.5754L27.0986 11.5754Z" fill="#FF8D2F"/>
<path d="M27.0986 11.1521L27.0986 11.5754L25.7749 11.5754L25.7749 11.1521L27.0986 11.1521Z" fill="#FF8D2F"/>
<path d="M24.4516 13.2687L24.4515 13.692L23.1277 13.692L23.1277 13.2687L24.4516 13.2687Z" fill="#FF943D"/>
<path d="M23.1277 13.2687L23.1277 13.692L21.8038 13.692L21.8038 13.2687L23.1277 13.2687Z" fill="#FF943D"/>
<path d="M21.8038 13.692L21.8038 14.1153L20.48 14.1153L20.48 13.692L21.8038 13.692Z" fill="#FF943D"/>
<path d="M20.48 13.692L20.48 14.1153L19.1562 14.1153L19.1562 13.692L20.48 13.692Z" fill="#FF8D2F"/>
<path d="M19.1566 13.692L19.1566 14.1153L17.8329 14.1153L17.8329 13.692L19.1566 13.692Z" fill="#FF8D2F"/>
<path d="M25.7754 11.9987L25.7754 12.422L24.4516 12.422L24.4516 11.9987L25.7754 11.9987Z" fill="#FF8D2F"/>
<path d="M25.7754 11.5754L25.7754 11.9987L24.4516 11.9987L24.4516 11.5754L25.7754 11.5754Z" fill="#FF8D2F"/>
<path d="M21.8038 9.88216L21.8038 10.3055L20.48 10.3055L20.48 9.88216L21.8038 9.88216Z" fill="#FFA72F"/>
<path d="M25.7754 9.03553L25.7754 9.45885L24.4516 9.45885L24.4516 9.03553L25.7754 9.03553Z" fill="#FF8D2F"/>
<path d="M25.7754 9.45885L25.7754 9.88221L24.4516 9.88221L24.4516 9.45885L25.7754 9.45885Z" fill="#FF8D2F"/>
<path d="M27.0986 10.3055L27.0986 10.7288L25.7749 10.7288L25.7749 10.3055L27.0986 10.3055Z" fill="#FF8D2F"/>
<path d="M27.0986 10.7288L27.0986 11.1521L25.7749 11.1521L25.7749 10.7288L27.0986 10.7288Z" fill="#FF8D2F"/>
<path d="M24.4515 8.61223L24.4516 9.03553L23.1277 9.03555L23.1277 8.61223L24.4515 8.61223Z" fill="#FF8D2F"/>
<path d="M23.1277 8.61223L23.1277 9.03555L21.8039 9.03555L21.8039 8.61223L23.1277 8.61223Z" fill="#FF8D2F"/>
<path d="M21.8038 8.1889L21.8039 8.61223L20.48 8.61222L20.48 8.1889L21.8038 8.1889Z" fill="#FF8D2F"/>
<path d="M20.48 8.1889L20.48 8.61222L19.1562 8.61222L19.1562 8.1889L20.48 8.1889Z" fill="#FF8D2F"/>
<path d="M19.1566 8.1889L19.1566 8.61222L17.8329 8.61222L17.8329 8.1889L19.1566 8.1889Z" fill="#FF8D2F"/>
<path d="M25.7754 9.88221L25.7754 10.3055L24.4516 10.3055L24.4516 9.88221L25.7754 9.88221Z" fill="#FF8D2F"/>
<path d="M13.8613 12.8454L13.8613 13.2687L12.5375 13.2687L12.5375 12.8454L13.8613 12.8454Z" fill="#FF8D2F"/>
<path d="M16.509 13.2687L16.509 13.692L15.1852 13.692L15.1852 13.2687L16.509 13.2687Z" fill="#FF8D2F"/>
<path d="M24.4516 12.8454L24.4516 13.2687L23.1277 13.2687L23.1277 12.8454L24.4516 12.8454Z" fill="#FFA82F"/>
<path d="M24.4516 12.422L24.4516 12.8454L23.1277 12.8454L23.1277 12.4221L24.4516 12.422Z" fill="#FFA82F"/>
<path d="M23.1277 12.8454L23.1277 13.2687L21.8038 13.2687L21.8039 12.8454L23.1277 12.8454Z" fill="#FFA82F"/>
<path d="M20.4804 13.2687L20.4804 13.692L19.1566 13.692L19.1567 13.2687L20.4804 13.2687Z" fill="#FFA82F"/>
<path d="M19.1567 13.2687L19.1566 13.692L17.8329 13.692L17.8328 13.2687L19.1567 13.2687Z" fill="#FFA82F"/>
<path d="M23.1277 12.4221L23.1277 12.8454L21.8039 12.8454L21.8038 12.4221L23.1277 12.4221Z" fill="#FFA82F"/>
<path d="M21.8043 12.8454L21.8043 13.2687L20.4804 13.2687L20.4805 12.8454L21.8043 12.8454Z" fill="#FFA82F"/>
<path d="M20.4805 12.8454L20.4804 13.2687L19.1567 13.2687L19.1567 12.8454L20.4805 12.8454Z" fill="#FFA82F"/>
<path d="M19.1567 12.8454L19.1567 13.2687L17.8328 13.2687L17.8328 12.8454L19.1567 12.8454Z" fill="#FFA82F"/>
<path d="M21.8043 12.4221L21.8043 12.8454L20.4805 12.8454L20.4805 12.4221L21.8043 12.4221Z" fill="#FFA82F"/>
<path d="M20.4805 12.4221L20.4805 12.8454L19.1567 12.8454L19.1567 12.4221L20.4805 12.4221Z" fill="#FFA82F"/>
<path d="M19.1567 12.4221L19.1567 12.8454L17.8328 12.8454L17.8328 12.4221L19.1567 12.4221Z" fill="#FFA82F"/>
<path d="M24.4514 11.1521L24.4516 11.5754L23.1277 11.5755L23.1277 11.1521L24.4514 11.1521Z" fill="#FFA82F"/>
<path d="M24.4516 11.5754L24.4516 11.9987L23.1277 11.9987L23.1277 11.5755L24.4516 11.5754Z" fill="#FFA82F"/>
<path d="M24.4516 11.9987L24.4516 12.422L23.1277 12.4221L23.1277 11.9987L24.4516 11.9987Z" fill="#FFA82F"/>
<path d="M23.1277 11.1521L23.1277 11.5755L21.8039 11.5755L21.8039 11.1521L23.1277 11.1521Z" fill="#FFA82F"/>
<path d="M23.1277 11.5755L23.1277 11.9987L21.8038 11.9987L21.8039 11.5755L23.1277 11.5755Z" fill="#FFA82F"/>
<path d="M20.4804 11.9988L20.4805 12.4221L19.1567 12.4221L19.1567 11.9988L20.4804 11.9988Z" fill="#FFA82F"/>
<path d="M19.1567 11.9988L19.1567 12.4221L17.8328 12.4221L17.8328 11.9988L19.1567 11.9988Z" fill="#FFA82F"/>
<path d="M20.4804 11.5754L20.4804 11.9988L19.1567 11.9988L19.1567 11.5754L20.4804 11.5754Z" fill="#FFA82F"/>
<path d="M21.8043 11.1521L21.8043 11.5755L20.4804 11.5754L20.4805 11.1521L21.8043 11.1521Z" fill="#FFA82F"/>
<path d="M21.8043 11.5755L21.8043 11.9987L20.4804 11.9988L20.4804 11.5754L21.8043 11.5755Z" fill="#FFA82F"/>
<path d="M23.1277 11.9987L23.1277 12.4221L21.8038 12.4221L21.8038 11.9987L23.1277 11.9987Z" fill="#FFA82F"/>
<path d="M25.7753 11.1521L25.7754 11.5754L24.4516 11.5754L24.4514 11.1521L25.7753 11.1521Z" fill="#FFA82F"/>
<path d="M21.8043 11.9987L21.8043 12.4221L20.4805 12.4221L20.4804 11.9988L21.8043 11.9987Z" fill="#FFA82F"/>
<path d="M24.4514 10.7288L24.4514 11.1521L23.1277 11.1521L23.1277 10.7288L24.4514 10.7288Z" fill="#FFA82F"/>
<path d="M24.4516 10.3055L24.4514 10.7288L23.1277 10.7288L23.1277 10.3055L24.4516 10.3055Z" fill="#FFA82F"/>
<path d="M23.1277 10.7288L23.1277 11.1521L21.8039 11.1521L21.8039 10.7288L23.1277 10.7288Z" fill="#FFA82F"/>
<path d="M25.7754 10.3055L25.7753 10.7288L24.4514 10.7288L24.4516 10.3055L25.7754 10.3055Z" fill="#FFA82F"/>
<path d="M25.7753 10.7288L25.7753 11.1521L24.4514 11.1521L24.4514 10.7288L25.7753 10.7288Z" fill="#FFA82F"/>
<path d="M17.8328 13.2687L17.8329 13.692L16.509 13.692L16.509 13.2687L17.8328 13.2687Z" fill="#FFA82F"/>
<path d="M16.5089 12.8454L16.509 13.2687L15.1852 13.2687L15.1852 12.8454L16.5089 12.8454Z" fill="#FFA82F"/>
<path d="M17.8328 12.8454L17.8328 13.2687L16.509 13.2687L16.5089 12.8454L17.8328 12.8454Z" fill="#FFA82F"/>
<path d="M17.8328 12.4221L17.8328 12.8454L16.5089 12.8454L16.509 12.4221L17.8328 12.4221Z" fill="#FFA82F"/>
<path d="M16.509 11.9987L16.509 12.4221L15.1852 12.4221L15.1852 11.9987L16.509 11.9987Z" fill="#FFA72F"/>
<path d="M12.5374 12.422L12.5375 12.8454L11.2137 12.8453L11.2137 12.422L12.5374 12.422Z" fill="#FF8D2F"/>
<path d="M11.2141 11.5754L11.2141 11.9988L9.89037 11.9988L9.89037 11.5754L11.2141 11.5754Z" fill="#FF8D2F"/>
<path d="M11.2141 11.9988L11.2141 12.4221L9.89037 12.4221L9.89037 11.9988L11.2141 11.9988Z" fill="#FF8D2F"/>
<path d="M11.2141 11.1521L11.2141 11.5754L9.89037 11.5754L9.89037 11.1521L11.2141 11.1521Z" fill="#FF8D2F"/>
<path d="M15.1852 13.2687L15.1852 13.692L13.8614 13.692L13.8613 13.2687L15.1852 13.2687Z" fill="#FF8D2F"/>
<path d="M17.8329 13.692L17.8329 14.1153L16.5091 14.1153L16.509 13.692L17.8329 13.692Z" fill="#FF8D2F"/>
<path d="M12.5374 11.9987L12.5374 12.422L11.2137 12.422L11.2137 11.9987L12.5374 11.9987Z" fill="#FF8D2F"/>
<path d="M28.4226 11.9988L28.4226 12.4221L27.0989 12.4221L27.0986 11.9988L28.4226 11.9988Z" fill="#FFD92F"/>
<path d="M28.4226 11.5755L28.4226 11.9988L27.0986 11.9988L27.0986 11.5754L28.4226 11.5755Z" fill="#FFD92F"/>
<path d="M28.4226 11.1521L28.4226 11.5755L27.0986 11.5754L27.0986 11.1521L28.4226 11.1521Z" fill="#FFD92F"/>
<path d="M19.1562 14.1153L19.1561 14.5387L17.8324 14.5387L17.8324 14.1153L19.1562 14.1153Z" fill="#FFD92F"/>
<path d="M28.4226 9.8822L28.4226 10.3055L27.0986 10.3055L27.0989 9.8822L28.4226 9.8822Z" fill="#FFD92F"/>
<path d="M28.4226 10.3055L28.4226 10.7288L27.0986 10.7288L27.0986 10.3055L28.4226 10.3055Z" fill="#FFD92F"/>
<path d="M28.4226 10.7288L28.4226 11.1521L27.0986 11.1521L27.0986 10.7288L28.4226 10.7288Z" fill="#FFD92F"/>
<path d="M27.0987 9.03557L27.0987 9.45888L25.775 9.45888L25.775 9.03557L27.0987 9.03557Z" fill="#FFD92F"/>
<path d="M25.7749 8.61227L25.775 9.03557L24.4512 9.03558L24.4512 8.61227L25.7749 8.61227Z" fill="#FFD92F"/>
<path d="M24.4515 8.18891L24.4515 8.61223L23.1277 8.61223L23.1278 8.18891L24.4515 8.18891Z" fill="#FFD92F"/>
<path d="M23.1278 8.18891L23.1277 8.61223L21.8039 8.61223L21.8038 8.1889L23.1278 8.18891Z" fill="#FFD92F"/>
<path d="M21.8038 7.76564L21.8038 8.1889L20.48 8.1889L20.4801 7.76564L21.8038 7.76564Z" fill="#FFD92F"/>
<path d="M20.4801 7.76564L20.48 8.1889L19.1562 8.1889L19.1563 7.76564L20.4801 7.76564Z" fill="#FFD92F"/>
<path d="M19.1563 7.76564L19.1562 8.1889L17.8324 8.18896L17.8324 7.76564L19.1563 7.76564Z" fill="#FFD92F"/>
<path d="M27.0987 9.45888L27.0989 9.8822L25.775 9.88221L25.775 9.45888L27.0987 9.45888Z" fill="#FFD92F"/>
<path d="M27.0989 9.8822L27.0986 10.3055L25.7749 10.3055L25.775 9.88221L27.0989 9.8822Z" fill="#FFD92F"/>
<path d="M9.89037 11.9988L9.89037 12.4221L8.56657 12.4221L8.56657 11.9988L9.89037 11.9988Z" fill="#FFD92F"/>
<path d="M9.89037 11.5754L9.89037 11.9988L8.56657 11.9988L8.56657 11.5755L9.89037 11.5754Z" fill="#FFD92F"/>
<path d="M9.89037 11.1521L9.89037 11.5754L8.56657 11.5755L8.56657 11.1521L9.89037 11.1521Z" fill="#FFD92F"/>
<path d="M11.2137 12.8453L11.2136 13.2687L9.88991 13.2687L9.88991 12.8454L11.2137 12.8453Z" fill="#FFD92F"/>
<path d="M12.5375 13.2687L12.5375 13.692L11.2137 13.692L11.2136 13.2687L12.5375 13.2687Z" fill="#FFD92F"/>
<path d="M13.8614 13.692L13.8613 14.1154L12.5376 14.1154L12.5375 13.692L13.8614 13.692Z" fill="#FFD92F"/>
<path d="M15.1852 13.692L15.1852 14.1154L13.8613 14.1154L13.8614 13.692L15.1852 13.692Z" fill="#FFD92F"/>
<path d="M16.5091 14.1153L16.509 14.5387L15.1853 14.5387L15.1852 14.1154L16.5091 14.1153Z" fill="#FFD92F"/>
<path d="M17.8324 14.1153L17.8324 14.5387L16.5086 14.5387L16.5086 14.1153L17.8324 14.1153Z" fill="#FFD92F"/>
<path d="M11.2137 12.422L11.2137 12.8453L9.88991 12.8454L9.88991 12.4221L11.2137 12.422Z" fill="#FFD92F"/>
<path d="M12.5375 12.8454L12.5375 13.2687L11.2136 13.2687L11.2137 12.8453L12.5375 12.8454Z" fill="#FFD92F"/>
<path d="M13.8613 13.2687L13.8614 13.692L12.5375 13.692L12.5375 13.2687L13.8613 13.2687Z" fill="#FFD92F"/>
<path d="M16.509 13.692L16.5091 14.1153L15.1852 14.1154L15.1852 13.692L16.509 13.692Z" fill="#FFD92F"/>
<path d="M9.8903 9.8822L9.8903 10.3055L8.56657 10.3055L8.56657 9.8822L9.8903 9.8822Z" fill="#FFD92F"/>
<path d="M9.8903 10.3055L9.8903 10.7288L8.56657 10.7288L8.56657 10.3055L9.8903 10.3055Z" fill="#FFD92F"/>
<path d="M9.8903 10.7288L9.89037 11.1521L8.56657 11.1521L8.56657 10.7288L9.8903 10.7288Z" fill="#FFD92F"/>
<path d="M11.2136 9.03557L11.2136 9.45888L9.88991 9.45888L9.88991 9.03557L11.2136 9.03557Z" fill="#FFD92F"/>
<path d="M12.5375 8.61227L12.5375 9.03558L11.2136 9.03557L11.2137 8.61227L12.5375 8.61227Z" fill="#FFD92F"/>
<path d="M13.8613 8.18891L13.8613 8.61223L12.5375 8.61227L12.5376 8.18891L13.8613 8.18891Z" fill="#FFD92F"/>
<path d="M15.1852 8.18891L15.1852 8.61223L13.8613 8.61223L13.8613 8.18891L15.1852 8.18891Z" fill="#FFD92F"/>
<path d="M16.509 7.76564L16.509 8.18896L15.1852 8.18891L15.1853 7.76564L16.509 7.76564Z" fill="#FFD92F"/>
<path d="M17.8324 7.76564L17.8324 8.18896L16.5086 8.18896L16.5086 7.76564L17.8324 7.76564Z" fill="#FFD92F"/>
<path d="M11.2136 9.45888L11.2136 9.88221L9.88991 9.88221L9.88991 9.45888L11.2136 9.45888Z" fill="#FFD92F"/>
<path d="M27.0987 12.8454L27.0987 13.2687L25.775 13.2687L25.775 12.8454L27.0987 12.8454Z" fill="#FFE880"/>
<path d="M25.775 13.2687L25.7749 13.692L24.4512 13.692L24.4512 13.2687L25.775 13.2687Z" fill="#FFE880"/>
<path d="M24.4515 13.692L24.4515 14.1154L23.1278 14.1154L23.1277 13.692L24.4515 13.692Z" fill="#FFE880"/>
<path d="M23.1277 13.692L23.1278 14.1154L21.8038 14.1153L21.8038 13.692L23.1277 13.692Z" fill="#FFE880"/>
<path d="M21.8038 14.1153L21.8038 14.5387L20.4801 14.5387L20.48 14.1153L21.8038 14.1153Z" fill="#FFE880"/>
<path d="M20.48 14.1153L20.4801 14.5387L19.1561 14.5387L19.1562 14.1153L20.48 14.1153Z" fill="#FFE880"/>
<path d="M27.0989 12.4221L27.0987 12.8454L25.775 12.8454L25.775 12.4221L27.0989 12.4221Z" fill="#FFE880"/>
<path d="M27.0986 11.9988L27.0989 12.4221L25.775 12.4221L25.7749 11.9988L27.0986 11.9988Z" fill="#FFE880"/>
<path d="M29.7463 11.5754L29.7463 11.9988L28.4226 11.9988L28.4226 11.5755L29.7463 11.5754Z" fill="#FF8D2F"/>
<path d="M29.7463 11.1521L29.7463 11.5754L28.4226 11.5755L28.4226 11.1521L29.7463 11.1521Z" fill="#FF8D2F"/>
<path d="M19.1566 14.5386L19.1566 14.9619L17.8329 14.9619L17.8329 14.5386L19.1566 14.5386Z" fill="#FF8D2F"/>
<path d="M20.4801 14.5387L20.48 14.9619L19.1562 14.9619L19.1561 14.5387L20.4801 14.5387Z" fill="#FF8D2F"/>
<path d="M29.7463 9.88216L29.7463 10.3055L28.4226 10.3055L28.4226 9.8822L29.7463 9.88216Z" fill="#FFA52F"/>
<path d="M29.7463 10.3055L29.7463 10.7288L28.4226 10.7288L28.4226 10.3055L29.7463 10.3055Z" fill="#FFA52F"/>
<path d="M29.7463 10.7288L29.7463 11.1521L28.4226 11.1521L28.4226 10.7288L29.7463 10.7288Z" fill="#FF8D2F"/>
<path d="M19.1566 7.34225L19.1566 7.76556L17.8329 7.76556L17.8329 7.34225L19.1566 7.34225Z" fill="#FF8D2F"/>
<path d="M20.48 7.34225L20.4801 7.76564L19.1563 7.76564L19.1562 7.34225L20.48 7.34225Z" fill="#FF8D2F"/>
<path d="M21.8038 7.34225L21.8038 7.76564L20.4801 7.76564L20.48 7.34225L21.8038 7.34225Z" fill="#FF8D2F"/>
<path d="M23.1277 7.7656L23.1278 8.18891L21.8038 8.1889L21.8038 7.76564L23.1277 7.7656Z" fill="#FF8D2F"/>
<path d="M24.4515 7.7656L24.4515 8.18891L23.1278 8.18891L23.1277 7.7656L24.4515 7.7656Z" fill="#FF8D2F"/>
<path d="M25.7754 8.1889L25.7754 8.61222L24.4515 8.61223L24.4515 8.18891L25.7754 8.1889Z" fill="#FF8D2F"/>
<path d="M27.0986 8.61223L27.0987 9.03557L25.775 9.03557L25.7749 8.61227L27.0986 8.61223Z" fill="#FFA52F"/>
<path d="M28.4225 9.45889L28.4226 9.8822L27.0989 9.8822L27.0987 9.45888L28.4225 9.45889Z" fill="#FFA52F"/>
<path d="M28.4225 9.03553L28.4225 9.45889L27.0987 9.45888L27.0987 9.03557L28.4225 9.03553Z" fill="#FFA52F"/>
<path d="M8.56657 11.9988L8.56657 12.4221L7.24268 12.4221L7.24268 11.9987L8.56657 11.9988Z" fill="#FF8D2F"/>
<path d="M8.56657 11.5755L8.56657 11.9988L7.24268 11.9987L7.24268 11.5754L8.56657 11.5755Z" fill="#FF8D2F"/>
<path d="M8.56657 11.1521L8.56657 11.5755L7.24268 11.5754L7.24268 11.1521L8.56657 11.1521Z" fill="#FF8D2F"/>
<path d="M17.8329 14.5386L17.8329 14.9619L16.5091 14.9619L16.509 14.5387L17.8329 14.5386Z" fill="#FF8D2F"/>
<path d="M16.509 14.5387L16.5091 14.9619L15.1852 14.9619L15.1853 14.5387L16.509 14.5387Z" fill="#FF8D2F"/>
<path d="M15.1852 14.1154L15.1853 14.5387L13.8614 14.5386L13.8613 14.1154L15.1852 14.1154Z" fill="#FF8D2F"/>
<path d="M13.8613 14.1154L13.8614 14.5386L12.5375 14.5386L12.5376 14.1154L13.8613 14.1154Z" fill="#FF8D2F"/>
<path d="M12.5375 13.692L12.5376 14.1154L11.2137 14.1153L11.2137 13.692L12.5375 13.692Z" fill="#FF8D2F"/>
<path d="M11.2141 13.2687L11.2141 13.692L9.89037 13.692L9.89037 13.2687L11.2141 13.2687Z" fill="#FF8D2F"/>
<path d="M9.89037 12.4221L9.89023 12.8453L8.56649 12.8453L8.56657 12.4221L9.89037 12.4221Z" fill="#FF8D2F"/>
<path d="M9.89023 12.8453L9.89037 13.2687L8.56649 13.2687L8.56649 12.8453L9.89023 12.8453Z" fill="#FF8D2F"/>
<path d="M8.56657 9.8822L8.56657 10.3055L7.24268 10.3055L7.24268 9.88216L8.56657 9.8822Z" fill="#FF8D2F"/>
<path d="M8.56657 10.3055L8.56657 10.7288L7.24268 10.7288L7.24268 10.3055L8.56657 10.3055Z" fill="#FF8D2F"/>
<path d="M8.56657 10.7288L8.56657 11.1521L7.24268 11.1521L7.24268 10.7288L8.56657 10.7288Z" fill="#FF8D2F"/>
<path d="M17.8329 7.34225L17.8329 7.76556L16.509 7.76564L16.5091 7.34225L17.8329 7.34225Z" fill="#FF8D2F"/>
<path d="M16.5091 7.34225L16.509 7.76564L15.1853 7.76564L15.1852 7.34225L16.5091 7.34225Z" fill="#FF8D2F"/>
<path d="M15.1853 7.76564L15.1852 8.18891L13.8613 8.18891L13.8614 7.7656L15.1853 7.76564Z" fill="#FF8D2F"/>
<path d="M13.8614 7.7656L13.8613 8.18891L12.5376 8.18891L12.5375 7.7656L13.8614 7.7656Z" fill="#FF8D2F"/>
<path d="M12.5376 8.18891L12.5375 8.61227L11.2137 8.61227L11.2137 8.1889L12.5376 8.18891Z" fill="#FF8D2F"/>
<path d="M11.2141 8.61223L11.2141 9.03555L9.89037 9.03555L9.89037 8.61223L11.2141 8.61223Z" fill="#FF8D2F"/>
<path d="M9.89023 9.45889L9.8903 9.8822L8.56657 9.8822L8.56649 9.45889L9.89023 9.45889Z" fill="#FF8D2F"/>
<path d="M9.89037 9.03555L9.89023 9.45889L8.56649 9.45889L8.56649 9.03553L9.89037 9.03555Z" fill="#FF8D2F"/>
<path d="M16.509 9.88216L16.509 10.3055L15.1852 10.3055L15.1852 9.88216L16.509 9.88216Z" fill="#FFA72F"/>
<path d="M19.1567 11.5754L19.1567 11.9988L17.8328 11.9988L17.8328 11.5755L19.1567 11.5754Z" fill="#FFC12F"/>
<path d="M20.4805 11.1521L20.4804 11.5754L19.1567 11.5754L19.1567 11.1521L20.4805 11.1521Z" fill="#FFC12F"/>
<path d="M19.1567 11.1521L19.1567 11.5754L17.8328 11.5755L17.8328 11.1521L19.1567 11.1521Z" fill="#FFC12F"/>
<path d="M24.4512 9.03558L24.4516 9.45885L23.1277 9.45888L23.1277 9.03555L24.4512 9.03558Z" fill="#FFC12F"/>
<path d="M24.4516 9.45885L24.4516 9.88221L23.1277 9.88221L23.1277 9.45888L24.4516 9.45885Z" fill="#FFC12F"/>
<path d="M23.1277 9.03555L23.1277 9.45888L21.8039 9.45888L21.8039 9.03555L23.1277 9.03555Z" fill="#FFC12F"/>
<path d="M21.8039 8.61223L21.8039 9.03555L20.48 9.03558L20.48 8.61222L21.8039 8.61223Z" fill="#FFC12F"/>
<path d="M23.1277 9.45888L23.1277 9.88221L21.8038 9.88216L21.8039 9.45888L23.1277 9.45888Z" fill="#FFC12F"/>
<path d="M21.8039 9.03555L21.8039 9.45888L20.48 9.45888L20.48 9.03558L21.8039 9.03555Z" fill="#FFC12F"/>
<path d="M20.4805 9.03557L20.4805 9.45888L19.1567 9.45888L19.1567 9.03557L20.4805 9.03557Z" fill="#FFC12F"/>
<path d="M21.8039 9.45888L21.8038 9.88216L20.48 9.88216L20.48 9.45888L21.8039 9.45888Z" fill="#FFC12F"/>
<path d="M20.4805 9.45888L20.4805 9.88221L19.1567 9.88221L19.1567 9.45888L20.4805 9.45888Z" fill="#FFC12F"/>
<path d="M19.1567 9.45888L19.1567 9.88221L17.8328 9.88221L17.8328 9.4589L19.1567 9.45888Z" fill="#FFC12F"/>
<path d="M24.4516 9.88221L24.4516 10.3055L23.1277 10.3055L23.1277 9.88221L24.4516 9.88221Z" fill="#FFC12F"/>
<path d="M23.1277 10.3055L23.1277 10.7288L21.8039 10.7288L21.8038 10.3055L23.1277 10.3055Z" fill="#FFC12F"/>
<path d="M20.4805 9.88221L20.4805 10.3055L19.1567 10.3055L19.1567 9.88221L20.4805 9.88221Z" fill="#FFC12F"/>
<path d="M19.1567 9.88221L19.1567 10.3055L17.8328 10.3055L17.8328 9.88221L19.1567 9.88221Z" fill="#FFC12F"/>
<path d="M20.4805 10.3055L20.4805 10.7289L19.1567 10.7289L19.1567 10.3055L20.4805 10.3055Z" fill="#FFC12F"/>
<path d="M19.1567 10.3055L19.1567 10.7289L17.8328 10.7289L17.8328 10.3055L19.1567 10.3055Z" fill="#FFC12F"/>
<path d="M21.8039 10.7288L21.8039 11.1521L20.48 11.1522L20.48 10.7289L21.8039 10.7288Z" fill="#FFC12F"/>
<path d="M20.4805 10.7289L20.4805 11.1521L19.1567 11.1521L19.1567 10.7289L20.4805 10.7289Z" fill="#FFC12F"/>
<path d="M19.1567 10.7289L19.1567 11.1521L17.8328 11.1521L17.8328 10.7289L19.1567 10.7289Z" fill="#FFC12F"/>
<path d="M21.8038 10.3055L21.8039 10.7288L20.48 10.7289L20.48 10.3055L21.8038 10.3055Z" fill="#FFC12F"/>
<path d="M23.1277 9.88221L23.1277 10.3055L21.8038 10.3055L21.8038 9.88216L23.1277 9.88221Z" fill="#FFC12F"/>
<path d="M21.8038 9.88216L21.8038 10.3055L20.48 10.3055L20.48 9.88216L21.8038 9.88216Z" fill="#FFC12F"/>
<path d="M13.8618 12.4221L13.8618 12.8454L12.538 12.8454L12.538 12.4221L13.8618 12.4221Z" fill="#FFC12F"/>
<path d="M15.1852 12.8454L15.1852 13.2687L13.8613 13.2687L13.8613 12.8454L15.1852 12.8454Z" fill="#FFC12F"/>
<path d="M15.1852 12.4221L15.1852 12.8454L13.8613 12.8454L13.8613 12.4221L15.1852 12.4221Z" fill="#FFC12F"/>
<path d="M16.509 12.4221L16.5089 12.8454L15.1852 12.8454L15.1852 12.4221L16.509 12.4221Z" fill="#FFC12F"/>
<path d="M13.8618 11.1521L13.8618 11.5754L12.538 11.5754L12.538 11.1521L13.8618 11.1521Z" fill="#FFC12F"/>
<path d="M13.8618 11.5754L13.8618 11.9988L12.538 11.9988L12.538 11.5754L13.8618 11.5754Z" fill="#FFC12F"/>
<path d="M13.8618 11.9988L13.8618 12.4221L12.538 12.4221L12.538 11.9988L13.8618 11.9988Z" fill="#FFC12F"/>
<path d="M15.1851 11.1521L15.1851 11.5754L13.8613 11.5754L13.8613 11.1521L15.1851 11.1521Z" fill="#FFC12F"/>
<path d="M15.1851 11.5754L15.1852 11.9987L13.8613 11.9988L13.8613 11.5754L15.1851 11.5754Z" fill="#FFC12F"/>
<path d="M17.8328 11.9988L17.8328 12.4221L16.509 12.4221L16.509 11.9987L17.8328 11.9988Z" fill="#FFC12F"/>
<path d="M17.8328 11.5755L17.8328 11.9988L16.509 11.9987L16.509 11.5755L17.8328 11.5755Z" fill="#FFC12F"/>
<path d="M16.5089 11.1521L16.509 11.5755L15.1851 11.5754L15.1851 11.1521L16.5089 11.1521Z" fill="#FFC12F"/>
<path d="M17.8328 11.1521L17.8328 11.5755L16.509 11.5755L16.5089 11.1521L17.8328 11.1521Z" fill="#FFC12F"/>
<path d="M16.509 11.5755L16.509 11.9987L15.1852 11.9987L15.1851 11.5754L16.509 11.5755Z" fill="#FFC12F"/>
<path d="M15.1852 11.9987L15.1852 12.4221L13.8613 12.4221L13.8613 11.9988L15.1852 11.9987Z" fill="#FFC12F"/>
<path d="M12.538 11.5754L12.538 11.9988L11.2141 11.9988L11.2141 11.5754L12.538 11.5754Z" fill="#FFC12F"/>
<path d="M16.509 11.9987L16.509 12.4221L15.1852 12.4221L15.1852 11.9987L16.509 11.9987Z" fill="#FFC12F"/>
<path d="M15.1851 10.7289L15.1851 11.1521L13.8613 11.1521L13.8613 10.7289L15.1851 10.7289Z" fill="#FFC12F"/>
<path d="M17.8328 9.88221L17.8328 10.3055L16.509 10.3055L16.509 9.88216L17.8328 9.88221Z" fill="#FFC12F"/>
<path d="M17.8328 10.3055L17.8328 10.7289L16.509 10.7289L16.509 10.3055L17.8328 10.3055Z" fill="#FFC12F"/>
<path d="M16.509 10.7289L16.5089 11.1521L15.1851 11.1521L15.1851 10.7289L16.509 10.7289Z" fill="#FFC12F"/>
<path d="M17.8328 10.7289L17.8328 11.1521L16.5089 11.1521L16.509 10.7289L17.8328 10.7289Z" fill="#FFC12F"/>
<path d="M16.509 10.3055L16.509 10.7289L15.1851 10.7289L15.1852 10.3055L16.509 10.3055Z" fill="#FFC12F"/>
<path d="M12.5375 9.03558L12.5374 9.45885L11.2136 9.45888L11.2136 9.03557L12.5375 9.03558Z" fill="#FF8D2F"/>
<path d="M12.5374 9.45885L12.5374 9.88221L11.2136 9.88221L11.2136 9.45888L12.5374 9.45885Z" fill="#FF8D2F"/>
<path d="M11.2141 10.3055L11.2141 10.7288L9.8903 10.7288L9.8903 10.3055L11.2141 10.3055Z" fill="#FF8D2F"/>
<path d="M11.2141 9.88216L11.2141 10.3055L9.8903 10.3055L9.8903 9.8822L11.2141 9.88216Z" fill="#FF8D2F"/>
<path d="M11.2141 10.7288L11.2141 11.1521L9.89037 11.1521L9.8903 10.7288L11.2141 10.7288Z" fill="#FF8D2F"/>
<path d="M13.8613 8.61223L13.8613 9.03555L12.5375 9.03558L12.5375 8.61227L13.8613 8.61223Z" fill="#FF8D2F"/>
<path d="M15.1852 8.61223L15.1851 9.03555L13.8613 9.03555L13.8613 8.61223L15.1852 8.61223Z" fill="#FF8D2F"/>
<path d="M16.509 8.18896L16.509 8.61222L15.1852 8.61223L15.1852 8.18891L16.509 8.18896Z" fill="#FF8D2F"/>
<path d="M17.8329 8.1889L17.8329 8.61222L16.509 8.61222L16.509 8.18896L17.8329 8.1889Z" fill="#FF8D2F"/>
<path d="M20.48 8.61222L20.48 9.03558L19.1562 9.03547L19.1562 8.61222L20.48 8.61222Z" fill="#FFD92F"/>
<path d="M19.1562 8.61222L19.1562 9.03547L17.8323 9.03547L17.8323 8.61216L19.1562 8.61222Z" fill="#FFD92F"/>
<path d="M19.1562 9.03547L19.1561 9.45883L17.8323 9.45883L17.8323 9.03547L19.1562 9.03547Z" fill="#FFD92F"/>
<path d="M12.5374 11.1521L12.5374 11.5754L11.2136 11.5754L11.2136 11.1521L12.5374 11.1521Z" fill="#FFD92F"/>
<path d="M13.8613 9.03555L13.8613 9.45883L12.5374 9.45885L12.5375 9.03558L13.8613 9.03555Z" fill="#FFD92F"/>
<path d="M13.8613 9.45883L13.8613 9.8821L12.5374 9.88221L12.5374 9.45885L13.8613 9.45883Z" fill="#FFD92F"/>
<path d="M15.1851 9.03555L15.1851 9.45883L13.8613 9.45883L13.8613 9.03555L15.1851 9.03555Z" fill="#FFD92F"/>
<path d="M16.509 8.61222L16.509 9.03547L15.1851 9.03555L15.1852 8.61223L16.509 8.61222Z" fill="#FFD92F"/>
<path d="M17.8323 8.61216L17.8323 9.03547L16.5085 9.03547L16.5085 8.61216L17.8323 8.61216Z" fill="#FFD92F"/>
<path d="M15.1851 9.45883L15.1852 9.88216L13.8613 9.8821L13.8613 9.45883L15.1851 9.45883Z" fill="#FFD92F"/>
<path d="M16.509 9.03547L16.509 9.45883L15.1851 9.45883L15.1851 9.03555L16.509 9.03547Z" fill="#FFD92F"/>
<path d="M17.8323 9.03547L17.8323 9.45883L16.5085 9.45883L16.5085 9.03547L17.8323 9.03547Z" fill="#FFD92F"/>
<path d="M16.509 9.45883L16.509 9.88216L15.1852 9.88216L15.1851 9.45883L16.509 9.45883Z" fill="#FFD92F"/>
<path d="M17.8323 9.45883L17.8322 9.8821L16.5085 9.8821L16.5085 9.45883L17.8323 9.45883Z" fill="#FFD92F"/>
<path d="M13.8613 10.7289L13.8613 11.1521L12.5374 11.1521L12.5375 10.7288L13.8613 10.7289Z" fill="#FFD92F"/>
<path d="M13.8613 10.3054L13.8613 10.7289L12.5375 10.7288L12.5375 10.3054L13.8613 10.3054Z" fill="#FFD92F"/>
<path d="M13.8613 9.8821L13.8613 10.3054L12.5375 10.3054L12.5374 9.88221L13.8613 9.8821Z" fill="#FFD92F"/>
<path d="M15.1852 10.3055L15.1851 10.7289L13.8613 10.7289L13.8613 10.3054L15.1852 10.3055Z" fill="#FFD92F"/>
<path d="M15.1852 9.88216L15.1852 10.3055L13.8613 10.3054L13.8613 9.8821L15.1852 9.88216Z" fill="#FFD92F"/>
<path d="M12.5374 9.88221L12.5375 10.3054L11.2136 10.3055L11.2136 9.88221L12.5374 9.88221Z" fill="#FFD92F"/>
<path d="M12.5375 10.3054L12.5375 10.7288L11.2136 10.7288L11.2136 10.3055L12.5375 10.3054Z" fill="#FFD92F"/>
<path d="M12.5375 10.7288L12.5374 11.1521L11.2136 11.1521L11.2136 10.7288L12.5375 10.7288Z" fill="#FFD92F"/>
<path d="M16.509 9.88216L16.509 10.3055L15.1852 10.3055L15.1852 9.88216L16.509 9.88216Z" fill="#FFD92F"/>
<path d="M8.56657 12.4221L8.56641 17.3047L7.24268 17.3047L7.24268 12.4221L8.56657 12.4221Z" fill="#FF8D2F"/>
<path d="M9.89023 13.1739L9.89023 18.7138L8.56649 18.7138L8.56649 13.1739L9.89023 13.1739Z" fill="#FFD92F"/>
<path d="M11.2141 13.55L11.2141 20.0659L9.89037 20.0659L9.89037 13.55L11.2141 13.55Z" fill="#FFA52F"/>
<path d="M12.5376 14.1154L12.5374 20.603L11.2137 20.603L11.2137 14.1153L12.5376 14.1154Z" fill="#FF8D2F"/>
<path d="M13.8613 14.5125L13.8613 20.603L12.5374 20.603L12.5375 14.5125L13.8613 14.5125Z" fill="#FFA52F"/>
<path d="M15.1853 14.5387L15.1851 21.0284L13.8614 21.0284L13.8614 14.5386L15.1853 14.5387Z" fill="#FFD92F"/>
<path d="M29.7463 12.4221L29.7463 17.3047L28.4226 17.3047L28.4226 12.4221L29.7463 12.4221Z" fill="#FFA52F"/>
<path d="M27.0986 13.55L27.0986 20.0659L25.7749 20.0659L25.7749 13.55L27.0986 13.55Z" fill="#FFA52F"/>
<path d="M24.4515 14.5125L24.4515 20.603L21.804 20.603L21.804 14.5125L24.4515 14.5125Z" fill="#FFBD2F"/>
<path d="M20.48 14.9619L20.48 21.0284L16.5087 21.0284L16.5087 14.9619L20.48 14.9619Z" fill="#FFBD2F"/>
<path d="M16.5087 14.9619L16.5087 21.0284L15.1851 21.0284L15.1852 14.9619L16.5087 14.9619Z" fill="#FFA52F"/>
<path d="M21.8038 14.5387L21.8038 14.9619L20.48 14.9619L20.4801 14.5387L21.8038 14.5387Z" fill="#FF943D"/>
<path d="M23.1278 14.1154L23.1277 14.5386L21.8038 14.5387L21.8038 14.1153L23.1278 14.1154Z" fill="#FF943D"/>
<path d="M24.4515 14.1154L24.4515 14.5386L23.1277 14.5386L23.1278 14.1154L24.4515 14.1154Z" fill="#FF943D"/>
<path d="M25.7754 13.692L25.7754 14.1153L24.4515 14.1154L24.4515 13.692L25.7754 13.692Z" fill="#FF943D"/>
<path d="M27.0987 13.2687L27.0986 13.692L25.7749 13.692L25.775 13.2687L27.0987 13.2687Z" fill="#FF943D"/>
<path d="M29.7463 11.9988L29.7463 12.4221L28.4226 12.4221L28.4226 11.9988L29.7463 11.9988Z" fill="#FF8D2F"/>
<path d="M28.4226 12.4221L28.4225 12.8453L27.0987 12.8454L27.0989 12.4221L28.4226 12.4221Z" fill="#FF8D2F"/>
<path d="M28.4225 12.8453L28.4225 13.2687L27.0987 13.2687L27.0987 12.8454L28.4225 12.8453Z" fill="#FF8D2F"/>
<path d="M28.4225 13.1739L28.4225 18.7138L27.0988 18.7138L27.0988 13.1739L28.4225 13.1739Z" fill="#FFE880"/>
<path d="M25.7754 14.1153L25.7754 20.603L24.4515 20.603L24.4515 14.1154L25.7754 14.1153Z" fill="#FFE880"/>
<path d="M21.8038 14.9619L21.8038 21.0284L20.48 21.0284L20.48 14.9619L21.8038 14.9619Z" fill="#FFE880"/>
<path d="M14.5611 6.43792L14.5611 6.86124L13.2374 6.86124L13.2374 6.43792L14.5611 6.43792Z" fill="#FF943D"/>
<path d="M14.5611 5.168L14.5611 5.59131L13.2374 5.59131L13.2374 5.168L14.5611 5.168Z" fill="#FFA72F"/>
<path d="M18.5327 6.01463L18.5327 6.43794L17.2089 6.43794L17.2089 6.01463L18.5327 6.01463Z" fill="#FF943D"/>
<path d="M18.5327 5.59127L18.5327 6.01463L17.2089 6.01463L17.2089 5.59127L18.5327 5.59127Z" fill="#FF943D"/>
<path d="M19.856 4.7447L19.856 5.16801L18.5322 5.16801L18.5322 4.7447L19.856 4.7447Z" fill="#FF8D2F"/>
<path d="M19.856 4.32134L19.856 4.7447L18.5322 4.7447L18.5322 4.32134L19.856 4.32134Z" fill="#FF8D2F"/>
<path d="M17.2089 6.43794L17.2088 6.86124L15.8851 6.86124L15.8851 6.43792L17.2089 6.43794Z" fill="#FF943D"/>
<path d="M15.8851 6.43792L15.8851 6.86124L14.5611 6.86124L14.5611 6.43792L15.8851 6.43792Z" fill="#FF943D"/>
<path d="M14.5611 6.86124L14.5611 7.2846L13.2374 7.2846L13.2374 6.86124L14.5611 6.86124Z" fill="#FF943D"/>
<path d="M13.2374 6.86124L13.2374 7.2846L11.9135 7.2846L11.9135 6.86128L13.2374 6.86124Z" fill="#FF8D2F"/>
<path d="M11.9139 6.86128L11.9139 7.2846L10.5902 7.2846L10.5902 6.86128L11.9139 6.86128Z" fill="#FF8D2F"/>
<path d="M18.5327 5.168L18.5327 5.59127L17.2089 5.59127L17.2089 5.168L18.5327 5.168Z" fill="#FF8D2F"/>
<path d="M18.5327 4.7447L18.5327 5.168L17.2089 5.168L17.2089 4.7447L18.5327 4.7447Z" fill="#FF8D2F"/>
<path d="M14.5611 3.05141L14.5611 3.47473L13.2374 3.47473L13.2374 3.05141L14.5611 3.05141Z" fill="#FFA72F"/>
<path d="M18.5327 2.20478L18.5327 2.6281L17.2089 2.6281L17.2089 2.20478L18.5327 2.20478Z" fill="#FF8D2F"/>
<path d="M18.5327 2.6281L18.5327 3.05146L17.2089 3.05146L17.2089 2.6281L18.5327 2.6281Z" fill="#FF8D2F"/>
<path d="M19.856 3.47471L19.856 3.89802L18.5322 3.89802L18.5322 3.47471L19.856 3.47471Z" fill="#FF8D2F"/>
<path d="M19.856 3.89802L19.856 4.32134L18.5322 4.32134L18.5322 3.89802L19.856 3.89802Z" fill="#FF8D2F"/>
<path d="M17.2088 1.78148L17.2089 2.20478L15.8851 2.2048L15.8851 1.78148L17.2088 1.78148Z" fill="#FF8D2F"/>
<path d="M15.8851 1.78148L15.8851 2.2048L14.5612 2.2048L14.5612 1.78148L15.8851 1.78148Z" fill="#FF8D2F"/>
<path d="M14.5611 1.35815L14.5612 1.78148L13.2374 1.78147L13.2374 1.35815L14.5611 1.35815Z" fill="#FF8D2F"/>
<path d="M13.2374 1.35815L13.2374 1.78147L11.9135 1.78147L11.9135 1.35815L13.2374 1.35815Z" fill="#FF8D2F"/>
<path d="M11.9139 1.35815L11.9139 1.78147L10.5902 1.78147L10.5902 1.35815L11.9139 1.35815Z" fill="#FF8D2F"/>
<path d="M18.5327 3.05146L18.5327 3.47472L17.2089 3.47472L17.2089 3.05146L18.5327 3.05146Z" fill="#FF8D2F"/>
<path d="M6.6186 6.01463L6.6186 6.43794L5.29486 6.43794L5.29486 6.01463L6.6186 6.01463Z" fill="#FF8D2F"/>
<path d="M9.2663 6.43792L9.2663 6.86124L7.94256 6.86124L7.94256 6.43792L9.2663 6.43792Z" fill="#FF8D2F"/>
<path d="M17.2089 6.01463L17.2089 6.43794L15.8851 6.43792L15.885 6.01465L17.2089 6.01463Z" fill="#FFA82F"/>
<path d="M17.2089 5.59127L17.2089 6.01463L15.885 6.01465L15.885 5.59133L17.2089 5.59127Z" fill="#FFA82F"/>
<path d="M15.885 6.01465L15.8851 6.43792L14.5611 6.43792L14.5612 6.01465L15.885 6.01465Z" fill="#FFA82F"/>
<path d="M13.2378 6.43795L13.2378 6.86126L11.9139 6.86128L11.914 6.43795L13.2378 6.43795Z" fill="#FFA82F"/>
<path d="M11.914 6.43795L11.9139 6.86128L10.5902 6.86128L10.5902 6.43795L11.914 6.43795Z" fill="#FFA82F"/>
<path d="M15.885 5.59133L15.885 6.01465L14.5612 6.01465L14.5611 5.59131L15.885 5.59133Z" fill="#FFA82F"/>
<path d="M14.5616 6.01465L14.5616 6.43796L13.2378 6.43795L13.2379 6.01465L14.5616 6.01465Z" fill="#FFA82F"/>
<path d="M13.2379 6.01465L13.2378 6.43795L11.914 6.43795L11.914 6.01465L13.2379 6.01465Z" fill="#FFA82F"/>
<path d="M11.914 6.01465L11.914 6.43795L10.5902 6.43795L10.5902 6.01465L11.914 6.01465Z" fill="#FFA82F"/>
<path d="M14.5616 5.59133L14.5616 6.01465L13.2379 6.01465L13.2379 5.59133L14.5616 5.59133Z" fill="#FFA82F"/>
<path d="M13.2379 5.59133L13.2379 6.01465L11.914 6.01465L11.914 5.59133L13.2379 5.59133Z" fill="#FFA82F"/>
<path d="M11.914 5.59133L11.914 6.01465L10.5902 6.01465L10.5902 5.59133L11.914 5.59133Z" fill="#FFA82F"/>
<path d="M17.2088 4.32139L17.2089 4.7447L15.885 4.74471L15.885 4.32139L17.2088 4.32139Z" fill="#FFA82F"/>
<path d="M17.2089 4.7447L17.2089 5.168L15.885 5.16798L15.885 4.74471L17.2089 4.7447Z" fill="#FFA82F"/>
<path d="M17.2089 5.168L17.2089 5.59127L15.885 5.59133L15.885 5.16798L17.2089 5.168Z" fill="#FFA82F"/>
<path d="M15.885 4.32139L15.885 4.74471L14.5612 4.74471L14.5612 4.32139L15.885 4.32139Z" fill="#FFA82F"/>
<path d="M15.885 4.74471L15.885 5.16798L14.5611 5.168L14.5612 4.74471L15.885 4.74471Z" fill="#FFA82F"/>
<path d="M13.2378 5.16802L13.2379 5.59133L11.914 5.59133L11.914 5.16802L13.2378 5.16802Z" fill="#FFA82F"/>
<path d="M11.914 5.16802L11.914 5.59133L10.5902 5.59133L10.5902 5.16802L11.914 5.16802Z" fill="#FFA82F"/>
<path d="M13.2378 4.74466L13.2378 5.16802L11.914 5.16802L11.914 4.74466L13.2378 4.74466Z" fill="#FFA82F"/>
<path d="M14.5616 4.32139L14.5616 4.74471L13.2378 4.74466L13.2379 4.32139L14.5616 4.32139Z" fill="#FFA82F"/>
<path d="M14.5616 4.74471L14.5616 5.16798L13.2378 5.16802L13.2378 4.74466L14.5616 4.74471Z" fill="#FFA82F"/>
<path d="M15.885 5.16798L15.885 5.59133L14.5611 5.59131L14.5611 5.168L15.885 5.16798Z" fill="#FFA82F"/>
<path d="M18.5326 4.32139L18.5327 4.7447L17.2089 4.7447L17.2088 4.32139L18.5326 4.32139Z" fill="#FFA82F"/>
<path d="M14.5616 5.16798L14.5616 5.59133L13.2379 5.59133L13.2378 5.16802L14.5616 5.16798Z" fill="#FFA82F"/>
<path d="M17.2088 3.89809L17.2088 4.32139L15.885 4.32139L15.885 3.89809L17.2088 3.89809Z" fill="#FFA82F"/>
<path d="M17.2089 3.47472L17.2088 3.89809L15.885 3.89809L15.885 3.47473L17.2089 3.47472Z" fill="#FFA82F"/>
<path d="M15.885 3.89809L15.885 4.32139L14.5612 4.32139L14.5612 3.89809L15.885 3.89809Z" fill="#FFA82F"/>
<path d="M18.5327 3.47472L18.5326 3.89805L17.2088 3.89809L17.2089 3.47472L18.5327 3.47472Z" fill="#FFA82F"/>
<path d="M18.5326 3.89805L18.5326 4.32139L17.2088 4.32139L17.2088 3.89809L18.5326 3.89805Z" fill="#FFA82F"/>
<path d="M10.5902 6.43795L10.5902 6.86128L9.2663 6.86124L9.2663 6.43792L10.5902 6.43795Z" fill="#FFA82F"/>
<path d="M9.26625 6.01465L9.2663 6.43792L7.94256 6.43792L7.94252 6.01465L9.26625 6.01465Z" fill="#FFA82F"/>
<path d="M10.5902 6.01465L10.5902 6.43795L9.2663 6.43792L9.26625 6.01465L10.5902 6.01465Z" fill="#FFA82F"/>
<path d="M10.5902 5.59133L10.5902 6.01465L9.26625 6.01465L9.26634 5.59133L10.5902 5.59133Z" fill="#FFA82F"/>
<path d="M9.2663 5.168L9.26634 5.59133L7.94256 5.59131L7.94256 5.168L9.2663 5.168Z" fill="#FFA72F"/>
<path d="M5.29472 5.59127L5.29486 6.01463L3.97098 6.01458L3.97098 5.59128L5.29472 5.59127Z" fill="#FF8D2F"/>
<path d="M3.97143 4.7447L3.97143 5.16801L2.6477 5.16801L2.6477 4.7447L3.97143 4.7447Z" fill="#FF8D2F"/>
<path d="M3.97143 5.16801L3.97143 5.59131L2.6477 5.59131L2.6477 5.16801L3.97143 5.16801Z" fill="#FF8D2F"/>
<path d="M3.97143 4.32134L3.97143 4.7447L2.6477 4.7447L2.6477 4.32134L3.97143 4.32134Z" fill="#FF8D2F"/>
<path d="M7.94256 6.43792L7.94256 6.86124L6.61868 6.86124L6.6186 6.43794L7.94256 6.43792Z" fill="#FF8D2F"/>
<path d="M10.5902 6.86128L10.5902 7.2846L9.26638 7.2846L9.2663 6.86124L10.5902 6.86128Z" fill="#FF8D2F"/>
<path d="M5.29472 5.168L5.29472 5.59127L3.97098 5.59128L3.97098 5.168L5.29472 5.168Z" fill="#FF8D2F"/>
<path d="M21.1799 5.16803L21.1799 5.59135L19.8562 5.59135L19.856 5.16801L21.1799 5.16803Z" fill="#FFD92F"/>
<path d="M21.1799 4.74473L21.1799 5.16803L19.856 5.16801L19.856 4.7447L21.1799 4.74473Z" fill="#FFD92F"/>
<path d="M21.1799 4.32137L21.1799 4.74473L19.856 4.7447L19.856 4.32134L21.1799 4.32137Z" fill="#FFD92F"/>
<path d="M11.9135 7.2846L11.9135 7.7079L10.5897 7.7079L10.5897 7.28459L11.9135 7.2846Z" fill="#FFD92F"/>
<path d="M21.1799 3.05145L21.1799 3.47476L19.856 3.47471L19.8562 3.05145L21.1799 3.05145Z" fill="#FFD92F"/>
<path d="M21.1799 3.47476L21.1799 3.89806L19.856 3.89802L19.856 3.47471L21.1799 3.47476Z" fill="#FFD92F"/>
<path d="M21.1799 3.89806L21.1799 4.32137L19.856 4.32134L19.856 3.89802L21.1799 3.89806Z" fill="#FFD92F"/>
<path d="M19.856 2.20482L19.856 2.62813L18.5323 2.62813L18.5323 2.20482L19.856 2.20482Z" fill="#FFD92F"/>
<path d="M18.5322 1.78152L18.5323 2.20482L17.2085 2.20483L17.2085 1.78152L18.5322 1.78152Z" fill="#FFD92F"/>
<path d="M17.2089 1.35816L17.2088 1.78148L15.8851 1.78148L15.8851 1.35816L17.2089 1.35816Z" fill="#FFD92F"/>
<path d="M15.8851 1.35816L15.8851 1.78148L14.5612 1.78148L14.5611 1.35815L15.8851 1.35816Z" fill="#FFD92F"/>
<path d="M14.5612 0.934891L14.5611 1.35815L13.2374 1.35815L13.2374 0.934891L14.5612 0.934891Z" fill="#FFD92F"/>
<path d="M13.2374 0.934891L13.2374 1.35815L11.9135 1.35815L11.9136 0.934891L13.2374 0.934891Z" fill="#FFD92F"/>
<path d="M11.9136 0.934891L11.9135 1.35815L10.5897 1.35821L10.5897 0.934891L11.9136 0.934891Z" fill="#FFD92F"/>
<path d="M19.856 2.62813L19.8562 3.05145L18.5323 3.05146L18.5323 2.62813L19.856 2.62813Z" fill="#FFD92F"/>
<path d="M19.8562 3.05145L19.856 3.47471L18.5322 3.47471L18.5323 3.05146L19.8562 3.05145Z" fill="#FFD92F"/>
<path d="M2.6477 5.16801L2.6477 5.59131L1.32389 5.59135L1.32389 5.16803L2.6477 5.16801Z" fill="#FFD92F"/>
<path d="M2.6477 4.7447L2.6477 5.16801L1.32389 5.16803L1.32389 4.74473L2.6477 4.7447Z" fill="#FFD92F"/>
<path d="M2.6477 4.32134L2.6477 4.7447L1.32389 4.74473L1.32389 4.32138L2.6477 4.32134Z" fill="#FFD92F"/>
<path d="M3.97098 6.01458L3.97097 6.43798L2.64723 6.43798L2.64723 6.01466L3.97098 6.01458Z" fill="#FFD92F"/>
<path d="M5.29486 6.43794L5.29479 6.86128L3.97105 6.86128L3.97097 6.43798L5.29486 6.43794Z" fill="#FFD92F"/>
<path d="M6.61868 6.86124L6.61867 7.2846L5.29493 7.2846L5.29479 6.86128L6.61868 6.86124Z" fill="#FFD92F"/>
<path d="M7.94256 6.86124L7.94249 7.2846L6.61867 7.2846L6.61868 6.86124L7.94256 6.86124Z" fill="#FFD92F"/>
<path d="M9.26638 7.2846L9.26637 7.7079L7.94263 7.7079L7.94249 7.2846L9.26638 7.2846Z" fill="#FFD92F"/>
<path d="M10.5897 7.28459L10.5897 7.7079L9.26592 7.7079L9.26592 7.28459L10.5897 7.28459Z" fill="#FFD92F"/>
<path d="M3.97098 5.59128L3.97098 6.01458L2.64723 6.01466L2.64723 5.59131L3.97098 5.59128Z" fill="#FFD92F"/>
<path d="M5.29486 6.01463L5.29486 6.43794L3.97097 6.43798L3.97098 6.01458L5.29486 6.01463Z" fill="#FFD92F"/>
<path d="M6.6186 6.43794L6.61868 6.86124L5.29479 6.86128L5.29486 6.43794L6.6186 6.43794Z" fill="#FFD92F"/>
<path d="M9.2663 6.86124L9.26638 7.2846L7.94249 7.2846L7.94256 6.86124L9.2663 6.86124Z" fill="#FFD92F"/>
<path d="M2.64763 3.05145L2.64763 3.47476L1.32389 3.47476L1.32389 3.05145L2.64763 3.05145Z" fill="#FFD92F"/>
<path d="M2.64763 3.47476L2.64763 3.89806L1.32389 3.89806L1.32389 3.47476L2.64763 3.47476Z" fill="#FFD92F"/>
<path d="M2.64763 3.89806L2.6477 4.32134L1.32389 4.32138L1.32389 3.89806L2.64763 3.89806Z" fill="#FFD92F"/>
<path d="M3.97097 2.20482L3.97097 2.62813L2.64723 2.62813L2.64723 2.20482L3.97097 2.20482Z" fill="#FFD92F"/>
<path d="M5.29479 1.78152L5.29479 2.20483L3.97097 2.20482L3.97105 1.78152L5.29479 1.78152Z" fill="#FFD92F"/>
<path d="M6.61867 1.35816L6.61867 1.78148L5.29479 1.78152L5.29493 1.35816L6.61867 1.35816Z" fill="#FFD92F"/>
<path d="M7.94249 1.35816L7.94249 1.78148L6.61867 1.78148L6.61867 1.35816L7.94249 1.35816Z" fill="#FFD92F"/>
<path d="M9.26637 0.934891L9.26637 1.35821L7.94249 1.35816L7.94263 0.934891L9.26637 0.934891Z" fill="#FFD92F"/>
<path d="M10.5897 0.934891L10.5897 1.35821L9.26592 1.35821L9.26592 0.934891L10.5897 0.934891Z" fill="#FFD92F"/>
<path d="M3.97097 2.62813L3.97097 3.05146L2.64723 3.05146L2.64723 2.62813L3.97097 2.62813Z" fill="#FFD92F"/>
<path d="M19.856 6.01466L19.856 6.43798L18.5323 6.43798L18.5323 6.01466L19.856 6.01466Z" fill="#FFE880"/>
<path d="M18.5323 6.43798L18.5322 6.86127L17.2085 6.86127L17.2085 6.43796L18.5323 6.43798Z" fill="#FFE880"/>
<path d="M17.2088 6.86124L17.2089 7.2846L15.8851 7.2846L15.8851 6.86124L17.2088 6.86124Z" fill="#FFE880"/>
<path d="M15.8851 6.86124L15.8851 7.2846L14.5611 7.2846L14.5611 6.86124L15.8851 6.86124Z" fill="#FFE880"/>
<path d="M14.5611 7.2846L14.5612 7.7079L13.2374 7.7079L13.2374 7.2846L14.5611 7.2846Z" fill="#FFE880"/>
<path d="M13.2374 7.2846L13.2374 7.7079L11.9135 7.7079L11.9135 7.2846L13.2374 7.2846Z" fill="#FFE880"/>
<path d="M19.8562 5.59135L19.856 6.01466L18.5323 6.01466L18.5323 5.59131L19.8562 5.59135Z" fill="#FFE880"/>
<path d="M19.856 5.16801L19.8562 5.59135L18.5323 5.59131L18.5322 5.16801L19.856 5.16801Z" fill="#FFE880"/>
<path d="M22.5037 4.7447L22.5037 5.16801L21.1799 5.16803L21.1799 4.74473L22.5037 4.7447Z" fill="#FF8D2F"/>
<path d="M22.5037 4.32134L22.5037 4.7447L21.1799 4.74473L21.1799 4.32137L22.5037 4.32134Z" fill="#FF8D2F"/>
<path d="M11.9139 7.70785L11.9139 8.13117L10.5902 8.13117L10.5902 7.70785L11.9139 7.70785Z" fill="#FF8D2F"/>
<path d="M13.2374 7.7079L13.2373 8.13117L11.9135 8.13117L11.9135 7.7079L13.2374 7.7079Z" fill="#FF8D2F"/>
<path d="M22.5037 3.05141L22.5037 3.47472L21.1799 3.47476L21.1799 3.05145L22.5037 3.05141Z" fill="#FFA52F"/>
<path d="M22.5037 3.47472L22.5037 3.89802L21.1799 3.89806L21.1799 3.47476L22.5037 3.47472Z" fill="#FFA52F"/>
<path d="M22.5037 3.89802L22.5037 4.32134L21.1799 4.32137L21.1799 3.89806L22.5037 3.89802Z" fill="#FF8D2F"/>
<path d="M11.9139 0.511497L11.9139 0.934811L10.5902 0.934811L10.5902 0.511497L11.9139 0.511497Z" fill="#FF8D2F"/>
<path d="M13.2373 0.511497L13.2374 0.934891L11.9136 0.934891L11.9135 0.511497L13.2373 0.511497Z" fill="#FF8D2F"/>
<path d="M14.5611 0.511497L14.5612 0.934891L13.2374 0.934891L13.2373 0.511497L14.5611 0.511497Z" fill="#FF8D2F"/>
<path d="M15.885 0.934855L15.8851 1.35816L14.5611 1.35815L14.5612 0.934891L15.885 0.934855Z" fill="#FF8D2F"/>
<path d="M17.2088 0.934855L17.2089 1.35816L15.8851 1.35816L15.885 0.934855L17.2088 0.934855Z" fill="#FF8D2F"/>
<path d="M18.5327 1.35815L18.5327 1.78147L17.2088 1.78148L17.2089 1.35816L18.5327 1.35815Z" fill="#FF8D2F"/>
<path d="M19.856 1.78148L19.856 2.20482L18.5323 2.20482L18.5322 1.78152L19.856 1.78148Z" fill="#FFA52F"/>
<path d="M21.1798 2.62814L21.1799 3.05145L19.8562 3.05145L19.856 2.62813L21.1798 2.62814Z" fill="#FFA52F"/>
<path d="M21.1798 2.20478L21.1798 2.62814L19.856 2.62813L19.856 2.20482L21.1798 2.20478Z" fill="#FFA52F"/>
<path d="M1.32389 5.16803L1.32389 5.59135L-3.76194e-07 5.59131L-3.94698e-07 5.168L1.32389 5.16803Z" fill="#FF8D2F"/>
<path d="M1.32389 4.74473L1.32389 5.16803L-3.94698e-07 5.168L-4.13201e-07 4.7447L1.32389 4.74473Z" fill="#FF8D2F"/>
<path d="M1.32389 4.32138L1.32389 4.74473L-4.13201e-07 4.7447L-4.31706e-07 4.32134L1.32389 4.32138Z" fill="#FF8D2F"/>
<path d="M10.5902 7.70785L10.5902 8.13117L9.26638 8.13117L9.26637 7.7079L10.5902 7.70785Z" fill="#FF8D2F"/>
<path d="M9.26637 7.7079L9.26638 8.13117L7.94256 8.13117L7.94263 7.7079L9.26637 7.7079Z" fill="#FF8D2F"/>
<path d="M7.94249 7.2846L7.94263 7.7079L6.61868 7.70787L6.61867 7.2846L7.94249 7.2846Z" fill="#FF8D2F"/>
<path d="M6.61867 7.2846L6.61868 7.70787L5.29486 7.70787L5.29493 7.2846L6.61867 7.2846Z" fill="#FF8D2F"/>
<path d="M5.29479 6.86128L5.29493 7.2846L3.97098 7.2846L3.97105 6.86128L5.29479 6.86128Z" fill="#FF8D2F"/>
<path d="M3.97143 6.43792L3.97143 6.86124L2.6477 6.86124L2.6477 6.43792L3.97143 6.43792Z" fill="#FF8D2F"/>
<path d="M2.6477 5.59131L2.64755 6.01458L1.32382 6.01458L1.32389 5.59135L2.6477 5.59131Z" fill="#FF8D2F"/>
<path d="M2.64755 6.01458L2.6477 6.43792L1.32382 6.43794L1.32382 6.01458L2.64755 6.01458Z" fill="#FF8D2F"/>
<path d="M1.32389 3.05145L1.32389 3.47476L-4.68713e-07 3.47473L-4.87217e-07 3.05141L1.32389 3.05145Z" fill="#FF8D2F"/>
<path d="M1.32389 3.47476L1.32389 3.89806L-4.5021e-07 3.89803L-4.68713e-07 3.47473L1.32389 3.47476Z" fill="#FF8D2F"/>
<path d="M1.32389 3.89806L1.32389 4.32138L-4.31706e-07 4.32134L-4.5021e-07 3.89803L1.32389 3.89806Z" fill="#FF8D2F"/>
<path d="M10.5902 0.511497L10.5902 0.934811L9.26637 0.934891L9.26638 0.511497L10.5902 0.511497Z" fill="#FF8D2F"/>
<path d="M9.26638 0.511497L9.26637 0.934891L7.94263 0.934891L7.94256 0.511497L9.26638 0.511497Z" fill="#FF8D2F"/>
<path d="M7.94263 0.934891L7.94249 1.35816L6.61867 1.35816L6.61868 0.934855L7.94263 0.934891Z" fill="#FF8D2F"/>
<path d="M6.61868 0.934855L6.61867 1.35816L5.29493 1.35816L5.29486 0.934855L6.61868 0.934855Z" fill="#FF8D2F"/>
<path d="M5.29493 1.35816L5.29479 1.78152L3.97105 1.78152L3.97098 1.35816L5.29493 1.35816Z" fill="#FF8D2F"/>
<path d="M3.97143 1.78148L3.97143 2.2048L2.6477 2.2048L2.6477 1.78148L3.97143 1.78148Z" fill="#FF8D2F"/>
<path d="M2.64755 2.62814L2.64763 3.05145L1.32389 3.05145L1.32382 2.62814L2.64755 2.62814Z" fill="#FF8D2F"/>
<path d="M2.6477 2.2048L2.64755 2.62814L1.32382 2.62814L1.32382 2.20478L2.6477 2.2048Z" fill="#FF8D2F"/>
<path d="M9.2663 3.05141L9.2663 3.47473L7.94256 3.47473L7.94256 3.05141L9.2663 3.05141Z" fill="#FFA72F"/>
<path d="M11.914 4.74466L11.914 5.16802L10.5902 5.16802L10.5902 4.74473L11.914 4.74466Z" fill="#FFC12F"/>
<path d="M13.2379 4.32139L13.2378 4.74466L11.914 4.74466L11.914 4.32137L13.2379 4.32139Z" fill="#FFC12F"/>
<path d="M11.914 4.32137L11.914 4.74466L10.5902 4.74473L10.5902 4.32137L11.914 4.32137Z" fill="#FFC12F"/>
<path d="M17.2085 2.20483L17.2089 2.6281L15.885 2.62813L15.8851 2.2048L17.2085 2.20483Z" fill="#FFC12F"/>
<path d="M17.2089 2.6281L17.2089 3.05146L15.885 3.05146L15.885 2.62813L17.2089 2.6281Z" fill="#FFC12F"/>
<path d="M15.8851 2.2048L15.885 2.62813L14.5612 2.62813L14.5612 2.2048L15.8851 2.2048Z" fill="#FFC12F"/>
<path d="M14.5612 1.78148L14.5612 2.2048L13.2373 2.20483L13.2374 1.78147L14.5612 1.78148Z" fill="#FFC12F"/>
<path d="M15.885 2.62813L15.885 3.05146L14.5611 3.05141L14.5612 2.62813L15.885 2.62813Z" fill="#FFC12F"/>
<path d="M14.5612 2.2048L14.5612 2.62813L13.2373 2.62813L13.2373 2.20483L14.5612 2.2048Z" fill="#FFC12F"/>
<path d="M13.2378 2.20482L13.2378 2.62813L11.914 2.62813L11.914 2.20482L13.2378 2.20482Z" fill="#FFC12F"/>
<path d="M14.5612 2.62813L14.5611 3.05141L13.2374 3.05141L13.2373 2.62813L14.5612 2.62813Z" fill="#FFC12F"/>
<path d="M13.2378 2.62813L13.2378 3.05146L11.914 3.05146L11.914 2.62813L13.2378 2.62813Z" fill="#FFC12F"/>
<path d="M11.914 2.62813L11.914 3.05146L10.5902 3.05146L10.5902 2.62815L11.914 2.62813Z" fill="#FFC12F"/>
<path d="M17.2089 3.05146L17.2089 3.47472L15.885 3.47473L15.885 3.05146L17.2089 3.05146Z" fill="#FFC12F"/>
<path d="M15.885 3.47473L15.885 3.89809L14.5612 3.89809L14.5611 3.47473L15.885 3.47473Z" fill="#FFC12F"/>
<path d="M13.2378 3.05146L13.2378 3.47476L11.914 3.47476L11.914 3.05146L13.2378 3.05146Z" fill="#FFC12F"/>
<path d="M11.914 3.05146L11.914 3.47476L10.5902 3.47476L10.5902 3.05146L11.914 3.05146Z" fill="#FFC12F"/>
<path d="M13.2378 3.47476L13.2378 3.89812L11.914 3.89812L11.914 3.47476L13.2378 3.47476Z" fill="#FFC12F"/>
<path d="M11.914 3.47476L11.914 3.89812L10.5902 3.89812L10.5902 3.47476L11.914 3.47476Z" fill="#FFC12F"/>
<path d="M14.5612 3.89809L14.5612 4.32139L13.2373 4.32142L13.2373 3.8981L14.5612 3.89809Z" fill="#FFC12F"/>
<path d="M13.2378 3.89812L13.2379 4.32139L11.914 4.32137L11.914 3.89812L13.2378 3.89812Z" fill="#FFC12F"/>
<path d="M11.914 3.89812L11.914 4.32137L10.5902 4.32137L10.5902 3.89812L11.914 3.89812Z" fill="#FFC12F"/>
<path d="M14.5611 3.47473L14.5612 3.89809L13.2373 3.8981L13.2374 3.47473L14.5611 3.47473Z" fill="#FFC12F"/>
<path d="M15.885 3.05146L15.885 3.47473L14.5611 3.47473L14.5611 3.05141L15.885 3.05146Z" fill="#FFC12F"/>
<path d="M14.5611 3.05141L14.5611 3.47473L13.2374 3.47473L13.2374 3.05141L14.5611 3.05141Z" fill="#FFC12F"/>
<path d="M6.6191 5.59137L6.6191 6.01467L5.29537 6.01467L5.29537 5.59137L6.6191 5.59137Z" fill="#FFC12F"/>
<path d="M7.94252 6.01465L7.94256 6.43792L6.6186 6.43794L6.6186 6.01463L7.94252 6.01465Z" fill="#FFC12F"/>
<path d="M7.94256 5.59131L7.94252 6.01465L6.6186 6.01463L6.61865 5.59137L7.94256 5.59131Z" fill="#FFC12F"/>
<path d="M9.26634 5.59133L9.26625 6.01465L7.94252 6.01465L7.94256 5.59131L9.26634 5.59133Z" fill="#FFC12F"/>
<path d="M6.6191 4.32137L6.6191 4.74469L5.29537 4.74469L5.29537 4.32137L6.6191 4.32137Z" fill="#FFC12F"/>
<path d="M6.6191 4.74469L6.6191 5.16805L5.29537 5.16805L5.29537 4.74469L6.6191 4.74469Z" fill="#FFC12F"/>
<path d="M6.6191 5.16805L6.6191 5.59137L5.29537 5.59137L5.29537 5.16805L6.6191 5.16805Z" fill="#FFC12F"/>
<path d="M7.94239 4.32137L7.94239 4.74469L6.61865 4.74469L6.61865 4.32137L7.94239 4.32137Z" fill="#FFC12F"/>
<path d="M7.94239 4.74469L7.94256 5.168L6.61865 5.16805L6.61865 4.74469L7.94239 4.74469Z" fill="#FFC12F"/>
<path d="M10.5902 5.16802L10.5902 5.59133L9.26634 5.59133L9.2663 5.168L10.5902 5.16802Z" fill="#FFC12F"/>
<path d="M10.5902 4.74473L10.5902 5.16802L9.2663 5.168L9.26635 4.74473L10.5902 4.74473Z" fill="#FFC12F"/>
<path d="M9.26627 4.32137L9.26635 4.74473L7.94239 4.74469L7.94239 4.32137L9.26627 4.32137Z" fill="#FFC12F"/>
<path d="M10.5902 4.32137L10.5902 4.74473L9.26635 4.74473L9.26627 4.32137L10.5902 4.32137Z" fill="#FFC12F"/>
<path d="M9.26635 4.74473L9.2663 5.168L7.94256 5.168L7.94239 4.74469L9.26635 4.74473Z" fill="#FFC12F"/>
<path d="M7.94256 5.168L7.94256 5.59131L6.61865 5.59137L6.61865 5.16805L7.94256 5.168Z" fill="#FFC12F"/>
<path d="M5.29537 4.74469L5.29537 5.16805L3.97143 5.16801L3.97143 4.7447L5.29537 4.74469Z" fill="#FFC12F"/>
<path d="M9.2663 5.168L9.26634 5.59133L7.94256 5.59131L7.94256 5.168L9.2663 5.168Z" fill="#FFC12F"/>
<path d="M7.94239 3.8981L7.94239 4.32137L6.61865 4.32137L6.61865 3.8981L7.94239 3.8981Z" fill="#FFC12F"/>
<path d="M10.5902 3.05146L10.5902 3.47476L9.2663 3.47473L9.2663 3.05141L10.5902 3.05146Z" fill="#FFC12F"/>
<path d="M10.5902 3.47476L10.5902 3.89812L9.26635 3.89812L9.2663 3.47473L10.5902 3.47476Z" fill="#FFC12F"/>
<path d="M9.26635 3.89812L9.26627 4.32137L7.94239 4.32137L7.94239 3.8981L9.26635 3.89812Z" fill="#FFC12F"/>
<path d="M10.5902 3.89812L10.5902 4.32137L9.26627 4.32137L9.26635 3.89812L10.5902 3.89812Z" fill="#FFC12F"/>
<path d="M9.2663 3.47473L9.26635 3.89812L7.94239 3.8981L7.94256 3.47473L9.2663 3.47473Z" fill="#FFC12F"/>
<path d="M5.29479 2.20483L5.29472 2.6281L3.97097 2.62813L3.97097 2.20482L5.29479 2.20483Z" fill="#FF8D2F"/>
<path d="M5.29472 2.6281L5.29472 3.05146L3.97097 3.05146L3.97097 2.62813L5.29472 2.6281Z" fill="#FF8D2F"/>
<path d="M3.97143 3.47471L3.97143 3.89803L2.64763 3.89806L2.64763 3.47476L3.97143 3.47471Z" fill="#FF8D2F"/>
<path d="M3.97143 3.05141L3.97143 3.47471L2.64763 3.47476L2.64763 3.05145L3.97143 3.05141Z" fill="#FF8D2F"/>
<path d="M3.97143 3.89803L3.97143 4.32134L2.6477 4.32134L2.64763 3.89806L3.97143 3.89803Z" fill="#FF8D2F"/>
<path d="M6.61867 1.78148L6.6186 2.2048L5.29479 2.20483L5.29479 1.78152L6.61867 1.78148Z" fill="#FF8D2F"/>
<path d="M7.94249 1.78148L7.94242 2.2048L6.6186 2.2048L6.61867 1.78148L7.94249 1.78148Z" fill="#FF8D2F"/>
<path d="M9.26637 1.35821L9.2663 1.78147L7.94249 1.78148L7.94249 1.35816L9.26637 1.35821Z" fill="#FF8D2F"/>
<path d="M10.5902 1.35815L10.5902 1.78147L9.2663 1.78147L9.26637 1.35821L10.5902 1.35815Z" fill="#FF8D2F"/>
<path d="M13.2374 1.78147L13.2373 2.20483L11.9135 2.20472L11.9135 1.78147L13.2374 1.78147Z" fill="#FFD92F"/>
<path d="M11.9135 1.78147L11.9135 2.20472L10.5896 2.20472L10.5896 1.78141L11.9135 1.78147Z" fill="#FFD92F"/>
<path d="M11.9135 2.20472L11.9134 2.62808L10.5896 2.62808L10.5896 2.20472L11.9135 2.20472Z" fill="#FFD92F"/>
<path d="M5.2947 4.32132L5.2947 4.74464L3.97096 4.74464L3.97096 4.32132L5.2947 4.32132Z" fill="#FFD92F"/>
<path d="M6.6186 2.2048L6.61858 2.62808L5.29472 2.6281L5.29479 2.20483L6.6186 2.2048Z" fill="#FFD92F"/>
<path d="M6.61858 2.62808L6.61858 3.05135L5.29472 3.05146L5.29472 2.6281L6.61858 2.62808Z" fill="#FFD92F"/>
<path d="M7.94242 2.2048L7.9424 2.62808L6.61858 2.62808L6.6186 2.2048L7.94242 2.2048Z" fill="#FFD92F"/>
<path d="M9.2663 1.78147L9.26628 2.20472L7.94242 2.2048L7.94249 1.78148L9.2663 1.78147Z" fill="#FFD92F"/>
<path d="M10.5896 1.78141L10.5896 2.20472L9.26582 2.20472L9.26582 1.78141L10.5896 1.78141Z" fill="#FFD92F"/>
<path d="M7.9424 2.62808L7.94256 3.05141L6.61858 3.05135L6.61858 2.62808L7.9424 2.62808Z" fill="#FFD92F"/>
<path d="M9.26628 2.20472L9.26628 2.62808L7.9424 2.62808L7.94242 2.2048L9.26628 2.20472Z" fill="#FFD92F"/>
<path d="M10.5896 2.20472L10.5896 2.62808L9.26582 2.62808L9.26582 2.20472L10.5896 2.20472Z" fill="#FFD92F"/>
<path d="M9.26628 2.62808L9.2663 3.05141L7.94256 3.05141L7.9424 2.62808L9.26628 2.62808Z" fill="#FFD92F"/>
<path d="M10.5896 2.62808L10.5896 3.05135L9.26582 3.05135L9.26582 2.62808L10.5896 2.62808Z" fill="#FFD92F"/>
<path d="M6.61865 3.8981L6.61865 4.32137L5.2947 4.32132L5.29484 3.89805L6.61865 3.8981Z" fill="#FFD92F"/>
<path d="M6.61858 3.47469L6.61865 3.8981L5.29484 3.89805L5.29484 3.47469L6.61858 3.47469Z" fill="#FFD92F"/>
<path d="M6.61858 3.05135L6.61858 3.47469L5.29484 3.47469L5.29472 3.05146L6.61858 3.05135Z" fill="#FFD92F"/>
<path d="M7.94256 3.47473L7.94239 3.8981L6.61865 3.8981L6.61858 3.47469L7.94256 3.47473Z" fill="#FFD92F"/>
<path d="M7.94256 3.05141L7.94256 3.47473L6.61858 3.47469L6.61858 3.05135L7.94256 3.05141Z" fill="#FFD92F"/>
<path d="M5.29472 3.05146L5.29484 3.47469L3.97096 3.47471L3.97097 3.05146L5.29472 3.05146Z" fill="#FFD92F"/>
<path d="M5.29484 3.47469L5.29484 3.89805L3.97096 3.89801L3.97096 3.47471L5.29484 3.47469Z" fill="#FFD92F"/>
<path d="M5.29484 3.89805L5.2947 4.32132L3.97096 4.32132L3.97096 3.89801L5.29484 3.89805Z" fill="#FFD92F"/>
<path d="M9.2663 3.05141L9.2663 3.47473L7.94256 3.47473L7.94256 3.05141L9.2663 3.05141Z" fill="#FFD92F"/>
<path d="M1.32389 5.59135L1.32374 10.474L-1.62765e-07 10.474L-3.76194e-07 5.59131L1.32389 5.59135Z" fill="#FF8D2F"/>
<path d="M2.64755 6.34319L2.64755 11.8831L1.32382 11.8831L1.32382 6.34319L2.64755 6.34319Z" fill="#FFD92F"/>
<path d="M3.97143 6.71926L3.97143 13.2351L2.6477 13.2351L2.6477 6.71926L3.97143 6.71926Z" fill="#FFA52F"/>
<path d="M5.29493 7.2846L5.29472 13.7723L3.97098 13.7723L3.97098 7.2846L5.29493 7.2846Z" fill="#FF8D2F"/>
<path d="M6.6186 7.68179L6.6186 13.7723L5.29472 13.7723L5.29486 7.68179L6.6186 7.68179Z" fill="#FFA52F"/>
<path d="M7.94263 7.7079L7.94242 14.1976L6.61868 14.1976L6.61868 7.70787L7.94263 7.7079Z" fill="#FFD92F"/>
<path d="M22.5037 5.59131L22.5037 10.474L21.1799 10.474L21.1799 5.59135L22.5037 5.59131Z" fill="#FFA52F"/>
<path d="M19.856 6.71926L19.856 13.2351L18.5322 13.2351L18.5322 6.71926L19.856 6.71926Z" fill="#FFA52F"/>
<path d="M17.2088 7.68179L17.2088 13.7723L14.5613 13.7723L14.5613 7.68179L17.2088 7.68179Z" fill="#FFBD2F"/>
<path d="M13.2373 8.13117L13.2373 14.1976L9.26601 14.1976L9.26601 8.13119L13.2373 8.13117Z" fill="#FFBD2F"/>
<path d="M9.26601 8.13119L9.26601 14.1976L7.94242 14.1976L7.94256 8.13117L9.26601 8.13119Z" fill="#FFA52F"/>
<path d="M14.5612 7.7079L14.5611 8.13117L13.2373 8.13117L13.2374 7.7079L14.5612 7.7079Z" fill="#FF943D"/>
<path d="M15.8851 7.2846L15.885 7.70787L14.5612 7.7079L14.5611 7.2846L15.8851 7.2846Z" fill="#FF943D"/>
<path d="M17.2089 7.2846L17.2088 7.70787L15.885 7.70787L15.8851 7.2846L17.2089 7.2846Z" fill="#FF943D"/>
<path d="M18.5327 6.86128L18.5327 7.2846L17.2089 7.2846L17.2088 6.86124L18.5327 6.86128Z" fill="#FF943D"/>
<path d="M19.856 6.43798L19.856 6.86124L18.5322 6.86127L18.5323 6.43798L19.856 6.43798Z" fill="#FF943D"/>
<path d="M22.5037 5.16801L22.5037 5.59131L21.1799 5.59135L21.1799 5.16803L22.5037 5.16801Z" fill="#FF8D2F"/>
<path d="M21.1799 5.59135L21.1798 6.01458L19.856 6.01466L19.8562 5.59135L21.1799 5.59135Z" fill="#FF8D2F"/>
<path d="M21.1798 6.01458L21.1798 6.43794L19.856 6.43798L19.856 6.01466L21.1798 6.01458Z" fill="#FF8D2F"/>
<path d="M21.1798 6.34319L21.1798 11.8831L19.8561 11.8831L19.8561 6.34319L21.1798 6.34319Z" fill="#FFE880"/>
<path d="M18.5327 7.2846L18.5327 13.7723L17.2088 13.7723L17.2089 7.2846L18.5327 7.2846Z" fill="#FFE880"/>
<path d="M14.5611 8.13117L14.5611 14.1976L13.2373 14.1976L13.2373 8.13117L14.5611 8.13117Z" fill="#FFE880"/>
</svg>
