<svg width="32" height="29" viewBox="0 0 32 29" fill="none" xmlns="http://www.w3.org/2000/svg">
<g opacity="0.5">
<path d="M27.4545 0.908885L28.2121 0.909237L28.2105 1.66646C27.9775 1.6213 27.6986 1.64397 27.4595 1.64157L27.4545 0.908885Z" fill="#511313"/>
<path d="M18.3636 9.1057C18.9158 9.06208 19.4763 9.12772 20.0303 9.1317L20.0278 9.84838L19.2973 9.84389L19.2963 9.14025C18.9854 9.13743 18.6726 9.14259 18.3636 9.1057Z" fill="#F3C59F"/>
<path d="M19.7961 13.492L20.7879 13.4848L20.7734 14.3306L20.7544 14.4421L20.7493 14.4816C20.1534 14.4765 19.3953 14.3912 18.8182 14.5454L18.8203 13.5021L19.7961 13.492Z" fill="#CA40A6"/>
<path d="M19.8788 13.4917L20.7879 13.4848L20.7746 14.288L20.7572 14.3939L19.8842 14.3922L19.8788 13.4917Z" fill="#952FA1"/>
<path d="M21.8313 11.2122C21.8681 11.5533 21.8557 11.9002 21.8542 12.2429L21.8632 14.1934C22.0595 14.1915 22.2587 14.1825 22.4545 14.1932C22.2498 14.2337 22.0623 14.2335 21.8554 14.2285C21.4994 14.2377 21.144 14.2432 20.7879 14.2424L20.803 13.4386C20.8756 13.0475 20.8277 12.5987 20.8198 12.2013L21.8145 12.2122C21.8101 11.8776 21.8068 11.5462 21.8313 11.2122Z" fill="#F3C59F"/>
<path d="M17.0011 15.4574C17.2985 15.45 17.5948 15.4585 17.8921 15.4663L17.9091 15.4975L17.8961 18.9111C17.6036 18.9185 17.3041 18.9132 17.0128 18.9394C16.9907 17.78 17.0048 16.6172 17.0011 15.4574Z" fill="#952FA1"/>
<path d="M28.5965 13.4848L29.6722 13.4906L29.6632 14.3174L30.455 14.3125C30.4557 14.5646 30.4689 14.8225 30.4352 15.0726C30.6276 15.1976 31.01 15.1482 31.2424 15.1448C31.2131 15.4444 31.2126 15.7378 31.2174 16.0386L30.7743 16.0591C30.6601 16.0651 30.5995 16.0533 30.4974 16.008C30.4274 15.9309 30.4317 15.8479 30.4204 15.7476C30.4255 15.6145 30.4445 15.455 30.4108 15.3256C30.3894 15.2434 30.3702 15.2536 30.3029 15.2136C30.1226 15.2321 29.9393 15.2297 29.7581 15.2338C29.3437 15.2466 28.9296 15.2389 28.5151 15.2332C28.5165 14.9391 28.511 14.6523 28.5731 14.3637L28.5899 14.0932L28.5965 13.4848Z" fill="#64227C"/>
<path d="M28.5716 14.3408L28.588 14.0908L28.6239 14.2777C28.8362 14.39 29.1347 14.3519 29.3728 14.3991C29.4577 14.4775 29.5403 14.5564 29.6323 14.6272C29.6686 14.7978 29.7146 14.9711 29.7273 15.145C29.3232 15.1569 28.9193 15.1497 28.5151 15.1444C28.5164 14.8726 28.5111 14.6076 28.5716 14.3408Z" fill="#952FA1"/>
<path d="M30.4436 3.18188C30.5541 4.37466 30.4601 5.63199 30.4679 6.83205L31.2419 6.8317C31.239 7.5368 31.232 8.24221 31.2424 8.94723L30.4644 8.96083L30.4633 9.69703L29.4279 9.69678L29.4242 6.83625L30.4379 6.83658C30.4348 5.62192 30.3953 4.39501 30.4436 3.18188Z" fill="#EC9373"/>
<path d="M31.1911 15.1513C31.2209 15.4379 31.2119 15.726 31.2096 16.0137C31.4523 16.0164 31.7069 16.005 31.9476 16.0325C32.0176 16.1899 32.0166 18.6718 31.9497 18.9125C31.8175 18.9466 31.7008 18.9388 31.5665 18.9314C31.1663 18.9453 30.763 18.9362 30.3625 18.9374C30.2996 17.9298 30.3576 16.7718 30.3598 15.7487C30.3712 15.8481 30.3668 15.9304 30.4377 16.0068C30.541 16.0516 30.6022 16.0633 30.7177 16.0574L31.1658 16.0371C31.161 15.7389 31.1614 15.4482 31.1911 15.1513Z" fill="#952FA1"/>
<path d="M31.9517 15.909C32.0163 16.0731 32.0153 18.6619 31.9536 18.9129C31.8317 18.9484 31.7243 18.9404 31.6004 18.9326C31.4898 18.9194 31.3929 18.9011 31.2859 18.867C31.2004 18.3868 31.2676 16.5575 31.2663 15.936C31.4974 15.9415 31.7226 15.9505 31.9517 15.909Z" fill="#64227C"/>
<path d="M18.8195 14.4807C19.4037 14.3347 20.1713 14.4155 20.7746 14.4203C20.8039 15.4407 20.778 16.4662 20.7743 17.4871C20.7727 17.9273 20.7303 18.414 20.7922 18.8465C20.9455 18.8787 21.086 18.89 21.2424 18.8905C20.4801 18.9884 19.6294 18.9082 18.8576 18.9082C18.2473 18.9081 17.6047 18.9734 17 18.9118C17.2863 18.8861 17.5808 18.8913 17.8684 18.884L17.8811 15.525L17.8644 15.4943C17.9173 15.185 17.892 14.85 17.8892 14.5358C18.1942 14.4789 18.5177 14.5584 18.8195 14.4807Z" fill="#FA9EC3"/>
<path d="M17.9329 14.5453C18.2295 14.5701 18.5213 14.5578 18.8182 14.5454L18.8169 15.6059L17.9251 15.5948L17.9091 15.5623C17.9599 15.2341 17.9356 14.8786 17.9329 14.5453Z" fill="#CA40A6"/>
<path d="M27.4186 12.342C27.412 12.0149 27.4108 11.6903 27.4241 11.3634C27.4309 11.6953 27.442 12.028 27.4341 12.36L28.6125 12.3783L28.6066 13.4614L28.5998 14.0639L28.5826 14.3318C28.519 14.6176 28.5246 14.9016 28.5233 15.1929C28.9477 15.1985 29.3719 15.2062 29.7963 15.1935C29.9819 15.1894 30.1696 15.1917 30.3543 15.1734C30.4232 15.2131 30.4429 15.203 30.4648 15.2843C30.4993 15.4126 30.4799 15.5704 30.4746 15.7023C30.4725 16.7248 30.4137 17.882 30.4774 18.8889L21.2799 18.9392C21.1207 18.9386 20.9779 18.9273 20.822 18.895C20.759 18.461 20.8022 17.9725 20.8038 17.5307C20.8076 16.5062 20.8339 15.477 20.8042 14.453L20.8094 14.4155L20.829 14.3096C21.1785 14.3103 21.5273 14.3048 21.8768 14.2956C22.0798 14.3007 22.2639 14.3009 22.4649 14.2604C22.2726 14.2496 22.0771 14.2586 21.8845 14.2605L21.8757 12.3101L22.7068 12.313C22.9647 12.3115 23.2238 12.3156 23.4815 12.3078C23.7706 12.3004 24.061 12.2865 24.3498 12.3002L25.13 12.3014C25.5743 12.2926 26.0137 12.2892 26.4579 12.3125L27.4186 12.342Z" fill="url(#paint0_linear_0_4386)"/>
<path d="M21.8623 15.1513C22.1455 15.1612 22.431 15.1547 22.7145 15.1549L22.7576 15.1557L22.7509 15.3941C22.6912 15.6092 22.7052 15.8379 22.703 16.0591C22.4992 16.0535 22.1167 16.0951 21.9617 15.9453C21.7974 15.7866 21.8595 15.359 21.8623 15.1513Z" fill="#952FA1"/>
<path d="M22.7665 15.1587L23.4997 15.1513C23.4988 15.4501 23.4808 15.7646 23.5152 16.0604L22.7576 16.0596L22.7608 15.3971L22.7665 15.1587Z" fill="#E9E1AB"/>
<path d="M22.4494 14.2442C22.5728 14.2453 22.6223 14.2244 22.7153 14.3029C22.793 14.5588 22.7417 14.8467 22.7322 15.1115L22.7284 15.1515L22.6862 15.1508C22.4413 15.0795 22.108 15.1145 21.8485 15.116L21.8509 14.2773C22.0576 14.282 22.2449 14.2822 22.4494 14.2442Z" fill="url(#paint1_linear_0_4386)"/>
<path d="M26.0922 16.2118C26.3541 16.2209 26.6187 16.2229 26.8802 16.2403L27 16.236L26.995 17.1147L26.1557 17.1209L26.1052 16.7623C26.0818 16.585 26.0948 16.3913 26.0922 16.2118Z" fill="#64227C"/>
<path d="M27.6434 14.8485L27.6707 15.123L27.7282 15.1718C27.7706 15.4993 27.755 15.8388 27.7539 16.1691C27.5288 16.1729 27.1778 16.1342 26.9684 16.2074L26.8485 16.2121C26.8685 15.8787 26.8517 15.5359 26.8493 15.2015C27.0869 15.1936 27.3148 15.2208 27.5443 15.1408C27.6456 15.0354 27.6295 14.9938 27.6434 14.8485Z" fill="#64227C"/>
<path d="M26.026 16.6667L26.0751 17.0496C26.1017 17.3678 26.0882 17.6872 26.0816 18.0062C25.4814 18.0162 24.875 18.0445 24.2755 18.0216L23.5285 18.0187C23.5293 17.737 23.4781 17.3077 23.5709 17.0493L24.2602 17.0528L24.2785 17.0451L25.239 17.0483C25.4718 17.0445 25.7368 17.1192 25.9526 17.0139C26.0401 16.8919 26.021 16.8173 26.026 16.6667Z" fill="#952FA1"/>
<path d="M24.2897 17.1211L25.1818 17.1242L25.1256 18.0259C24.8485 18.0281 24.5713 18.033 24.2941 18.0281L24.2727 17.1285L24.2897 17.1211Z" fill="#64227C"/>
<path d="M22.7613 15.1634C23.0373 15.1608 23.3335 15.1362 23.6071 15.1658C24.2864 15.2037 25.0258 15.2255 25.7036 15.1743C26.0483 15.201 26.5249 15.0949 26.8397 15.2018C26.8421 15.5243 26.8587 15.8549 26.8389 16.1765C26.5798 16.1582 26.3176 16.1561 26.058 16.1466C26.0607 16.3349 26.0477 16.5382 26.0709 16.7242C26.0658 16.8722 26.0853 16.9455 25.9961 17.0654C25.7761 17.1689 25.5059 17.0955 25.2686 17.0992L24.2896 17.0961L24.2709 17.1036L23.5683 17.1002C23.6066 16.7847 23.6391 16.4495 23.5946 16.1336C23.5561 15.8296 23.5763 15.5064 23.5773 15.1993L22.7576 15.2069L22.7613 15.1634Z" fill="#F6D556"/>
<path d="M23.5428 16.076L24.2727 16.0606C24.2635 16.395 24.2157 16.7861 24.2725 17.1131L24.2529 17.1212L23.5151 17.1175C23.5555 16.7775 23.5895 16.4164 23.5428 16.076Z" fill="#CA40A6"/>
<path d="M23.4348 12.2859C23.7203 12.2786 24.0072 12.2649 24.2926 12.2784L25.0632 12.2796C25.0627 12.6584 25.0523 13.04 25.0633 13.4184L25.0875 13.432C25.0719 13.5381 25.06 13.6338 25.0675 13.7417C25.0703 13.7536 25.0733 13.7654 25.0761 13.7773C25.1746 14.2052 25.0541 14.6244 25.1263 15.0397C25.242 15.0562 25.3555 15.0724 25.4723 15.0795C25.5381 15.0834 25.5769 15.0961 25.6364 15.1224C24.9611 15.1718 24.2245 15.1508 23.5478 15.1142C23.2752 15.0858 22.9801 15.1094 22.7051 15.112C22.7143 14.8347 22.7641 14.5333 22.6886 14.2654C22.5984 14.1832 22.5503 14.2051 22.4305 14.2039C22.2406 14.1933 22.0475 14.2022 21.8572 14.2041L21.8485 12.2881L22.6695 12.2909C22.9243 12.2895 23.1803 12.2935 23.4348 12.2859Z" fill="#F9C430"/>
<path d="M22.7576 12.2779C22.9958 12.2764 23.2352 12.2806 23.4732 12.2727L23.4697 13.4634C23.7361 13.4575 24.0071 13.4628 24.2727 13.4443L24.2569 13.4848L22.8291 13.4832C22.8317 13.2282 22.9042 12.4429 22.7576 12.2779Z" fill="#D66924"/>
<path d="M23.5186 12.2863C23.7837 12.2788 24.05 12.2646 24.3149 12.2786L25.0302 12.2799C25.0298 12.6725 25.0201 13.068 25.0303 13.4603L24.3123 13.4656C24.0486 13.4842 23.7796 13.4788 23.5151 13.4848L23.5186 12.2863Z" fill="#5C3222"/>
<path d="M24.2754 12.2727L25.0302 12.274C25.0298 12.6749 25.0195 13.0788 25.0303 13.4793L24.2727 13.4848C24.2955 13.0846 24.2768 12.674 24.2754 12.2727Z" fill="#9F501F"/>
<path d="M25.0543 13.4848L25.0789 13.4979C25.0631 13.5999 25.051 13.692 25.0586 13.7957C25.0614 13.8072 25.0646 13.8186 25.0673 13.83C25.1674 14.2414 25.045 14.6446 25.1184 15.0439C25.2359 15.0598 25.3511 15.0754 25.4697 15.0822C25.5366 15.086 25.5759 15.0982 25.6364 15.1235C24.9506 15.171 24.2025 15.1508 23.5151 15.1157L23.5206 14.4287L24.2636 14.4284C24.2661 14.1275 24.2636 13.8282 24.2516 13.5275L24.2688 13.4897L25.0543 13.4848Z" fill="#ED832B"/>
<path d="M25.1548 13.4848L25.1818 13.4973C25.1644 13.5946 25.1511 13.6824 25.1594 13.7814L25.1508 14.3879C24.8654 14.3892 24.5698 14.4023 24.2859 14.3849C24.2886 14.0979 24.2859 13.8124 24.2727 13.5255L24.2916 13.4895L25.1548 13.4848Z" fill="#892511"/>
<path d="M27.3222 12.3239C27.3156 12.0028 27.3144 11.6843 27.3277 11.3634C27.3344 11.6892 27.3456 12.0158 27.3376 12.3416L28.5152 12.3595L28.5093 13.4227L28.5025 14.0141L28.4853 14.277C28.4218 14.5576 28.4274 14.8364 28.426 15.1222L27.6371 15.1237L27.5798 15.0784L27.5525 14.8235C27.5386 14.9583 27.5547 14.997 27.4536 15.0949C27.2245 15.1692 26.9972 15.1439 26.76 15.1513C26.4428 15.0484 25.9625 15.1505 25.6151 15.1248C25.5549 15.0984 25.5157 15.0858 25.4491 15.0818C25.331 15.0747 25.2162 15.0585 25.0992 15.0421C25.0261 14.6271 25.148 14.2082 25.0483 13.7807C25.0456 13.7689 25.0425 13.757 25.0396 13.7451C25.032 13.6374 25.0441 13.5416 25.0599 13.4356L25.0354 13.4221C25.0242 13.0439 25.0349 12.6627 25.0353 12.2842C25.4793 12.2755 25.9183 12.2722 26.3622 12.2951L27.3222 12.3239Z" fill="#D66924"/>
<path d="M25.0354 12.2795C25.49 12.2705 25.9394 12.2671 26.3939 12.2907C26.384 12.6883 26.3872 13.0849 26.3918 13.4824C25.9507 13.4796 25.5004 13.4959 25.0606 13.4693L25.0355 13.4553C25.0241 13.0646 25.035 12.6706 25.0354 12.2795Z" fill="#5C3222"/>
<path d="M27.4545 12.4243L28.5151 12.4418L28.5099 13.484L28.5037 14.0638L28.4882 14.3216C28.431 14.5966 28.4361 14.8699 28.4348 15.1501L27.7243 15.1516L27.6727 15.1071L27.6481 14.8572C27.6316 14.6789 27.6208 14.5005 27.6096 14.3217C27.444 13.8478 27.4933 12.9562 27.4545 12.4243Z" fill="#ED832B"/>
<path d="M27.6061 14.3938L28.5151 14.3937C28.4559 14.6447 28.4612 14.8941 28.4599 15.15L27.7243 15.1516L27.6713 15.1107L27.6459 14.8826C27.6288 14.7198 27.6176 14.5569 27.6061 14.3938Z" fill="#64227C"/>
<path d="M20.0479 0.00550793L27.4916 0C27.4872 0.270643 27.4878 0.538347 27.501 0.808721L27.5059 1.53942C27.7456 1.54182 28.0252 1.51923 28.2588 1.56424C28.4985 1.5933 28.7624 1.5658 28.9949 1.61529L28.9948 2.27937C29.1857 2.28616 29.3884 2.27961 29.5764 2.31177C29.6201 2.3189 29.6566 2.319 29.6936 2.34426C29.7133 2.5941 29.7179 2.83964 29.7164 3.09016C29.9636 3.09144 30.243 3.06989 30.4848 3.11457C30.4365 4.33418 30.476 5.56763 30.4791 6.7888L29.4649 6.78846L29.4686 9.66428L29.4668 10.4788L28.6968 10.479L28.6994 11.2994C28.2561 11.2971 27.8107 11.2865 27.3677 11.2947C27.3544 11.6215 27.3556 11.9458 27.3622 12.2727L26.3998 12.2433C25.9547 12.22 25.5146 12.2234 25.0694 12.2323L24.2879 12.231C23.9985 12.2173 23.7076 12.2312 23.418 12.2386C23.1598 12.2464 22.9002 12.2423 22.6419 12.2438L21.8092 12.2409C21.8107 11.8985 21.8228 11.5518 21.7867 11.2108C21.4138 11.2104 21.045 11.2275 20.6729 11.2516L20.6744 10.4064C20.42 10.3923 20.1598 10.4009 19.9048 10.3985L19.9098 9.0606C19.3513 9.05648 18.7862 8.98858 18.2295 9.0337C18.2327 8.61414 18.2301 8.19568 18.2226 7.7762C18.2027 7.45279 18.2174 7.12104 18.217 6.79662C18.4788 6.79319 18.7366 6.7906 18.9978 6.81304L18.9813 1.72427L20.0457 1.73089L20.0479 0.00550793Z" fill="#5C3222"/>
<path d="M28.2121 1.66751C28.4688 1.67968 28.7153 1.68403 28.9722 1.66655L28.9721 2.33808C29.1703 2.34495 29.3806 2.33833 29.5757 2.37085C29.3994 2.38363 29.0928 2.35373 28.9419 2.42412C28.7468 2.31827 28.4385 2.36702 28.2131 2.36685L28.2121 1.66751Z" fill="#29182C"/>
<path d="M29.6073 2.42421C29.652 2.4312 29.6893 2.4313 29.7273 2.45609C29.6983 2.69267 29.7109 2.94063 29.7085 3.179L28.9697 3.18179C28.9705 2.94655 28.9773 2.71116 28.9819 2.47591C29.1308 2.40762 29.4333 2.43661 29.6073 2.42421Z" fill="#16192D"/>
<path d="M22.1995 4.39398L23.3419 4.40307L23.3415 5.89913C25.1081 5.88901 26.8789 5.87325 28.6452 5.90145L28.6448 8.57293C28.6447 9.09231 28.6148 9.63425 28.6667 10.1501L27.3892 10.1516L27.3958 9.04131L23.3354 9.04088C23.3264 8.69561 23.3272 8.34771 23.3602 8.00367L22.1583 8.00462C22.1548 7.5468 22.1392 7.08538 22.1717 6.62849C22.2704 5.92504 22.199 5.11004 22.1995 4.39398Z" fill="#F3C59F"/>
<path d="M26.0909 6.66659L27.303 6.66951L27.2996 8.00749C26.8963 8.00489 26.4972 8.00481 26.0944 8.03022L26.0909 6.66659Z" fill="#18173F"/>
<path d="M22.171 6.66845L23.3427 6.66659C23.3439 7.09434 23.4017 7.61187 23.3198 8.02928L22.1581 8.03022C22.1547 7.57716 22.1396 7.12055 22.171 6.66845Z" fill="#18173F"/>
<path d="M19.0043 3.48471C20.4472 3.55525 21.8966 3.53867 23.3409 3.5385L23.3395 4.29538C22.7423 4.29036 21.7527 4.2056 21.1913 4.31782C21.5059 4.3634 21.8444 4.34156 22.163 4.34139C22.1625 5.06245 22.2363 5.88314 22.1342 6.59151C22.1006 7.05157 22.1168 7.51622 22.1204 7.97724L23.3636 7.97629C23.3295 8.32275 23.3286 8.67309 23.338 9.02074L22.0851 9.01978L22.0912 10.096L20.7358 10.094L20.7265 10.4544C20.4667 10.4402 20.201 10.4489 19.9406 10.4465L19.9457 9.10251C19.3754 9.09837 18.7983 9.03016 18.2298 9.07549C18.2331 8.65401 18.2305 8.23366 18.2228 7.81227C18.2025 7.4874 18.2175 7.15414 18.2171 6.82824C18.4844 6.82479 18.7477 6.82219 19.0145 6.84474L19.0043 3.48471Z" fill="#511313"/>
<path d="M18.2174 6.82064C18.4979 6.81693 18.7741 6.81413 19.0541 6.83838C19.3784 6.86605 19.7033 6.85898 20.0283 6.85703L20.0303 7.87639C19.43 7.87359 18.8227 7.85261 18.2233 7.8788C18.202 7.52947 18.2177 7.17111 18.2174 6.82064Z" fill="#F3C59F"/>
<path d="M18.3636 7.88994C18.9162 7.86729 19.476 7.88545 20.0293 7.88785L20.0303 9.09081C19.4786 9.08696 18.9204 9.02348 18.3705 9.06566C18.3736 8.6734 18.3711 8.28215 18.3636 7.88994Z" fill="#F2A668"/>
<path d="M21.2463 4.39398C21.5529 4.4394 21.8829 4.41763 22.1934 4.41747C22.1929 5.13595 22.2648 5.95371 22.1653 6.65955C22.1326 7.11797 22.1484 7.58097 22.1519 8.04034L23.3636 8.03939C23.3304 8.38462 23.3295 8.73371 23.3387 9.08012L22.1175 9.07916L22.1234 10.1516L20.8023 10.1495C20.8309 8.83556 20.8038 7.51601 20.8032 6.20122C20.8029 5.63079 20.7565 5.02009 20.8268 4.45422C20.9336 4.38495 21.119 4.39966 21.2463 4.39398Z" fill="white"/>
<path d="M29.7047 3.18315C29.9664 3.19203 30.2231 3.19577 30.4849 3.18188C30.437 4.39253 30.4761 5.61692 30.4792 6.82912L29.4769 6.82879L29.4805 9.68349L29.4787 10.492L28.7177 10.4922L28.7203 11.3066C28.2823 11.3043 27.8421 11.2938 27.4043 11.3019C27.3911 11.6263 27.3923 11.9483 27.3988 12.2728L26.4477 12.2436C26.0078 12.2205 25.5728 12.2238 25.1329 12.2326L24.3605 12.2313C24.0745 12.2178 23.787 12.2316 23.5008 12.2389C23.2457 12.2467 22.9891 12.2426 22.7338 12.2441L21.9109 12.2412C21.9124 11.9013 21.9243 11.5571 21.8886 11.2187C21.5201 11.2182 21.1556 11.2352 20.7879 11.2591L20.7893 10.4201L20.7983 10.064L22.1101 10.066L22.1042 9.0025L27.3815 9.00388L27.3749 10.1087L28.6537 10.1072C28.7294 9.67852 28.6772 9.16368 28.6764 8.72379L28.669 5.84955L29.7025 5.84665C29.6979 4.95875 29.6924 4.07099 29.7047 3.18315Z" fill="#16192D"/>
<path d="M23.2121 9.99968L26.0901 10.0022L26.0909 11.0603C25.1324 11.0461 24.1726 11.0522 23.2139 11.0486L23.2121 9.99968Z" fill="#F3C59F"/>
</g>
<g opacity="0.2">
<path d="M8.98265 0.780758L9.63357 0.781061L9.63216 1.43168C9.43197 1.39287 9.19233 1.41236 8.98689 1.41029L8.98265 0.780758Z" fill="#511313"/>
<path d="M1.17164 7.82374C1.64607 7.78626 2.12766 7.84266 2.60365 7.84608L2.60152 8.46185L1.9739 8.458L1.97301 7.85343C1.70588 7.851 1.43713 7.85544 1.17164 7.82374Z" fill="#F3C59F"/>
<path d="M2.40244 11.5926L3.25458 11.5863L3.24218 12.3131L3.22582 12.4089L3.22143 12.4428C2.7094 12.4385 2.05802 12.3651 1.5622 12.4976L1.564 11.6012L2.40244 11.5926Z" fill="#CA40A6"/>
<path d="M2.47348 11.5923L3.25458 11.5863L3.24322 12.2765L3.22822 12.3674L2.47812 12.366L2.47348 11.5923Z" fill="#952FA1"/>
<path d="M4.15108 9.63382C4.18269 9.92694 4.1721 10.225 4.17081 10.5194L4.17852 12.1953C4.34715 12.1937 4.51829 12.1859 4.6866 12.1952C4.51071 12.23 4.34957 12.2298 4.17178 12.2255C3.8659 12.2334 3.56053 12.2381 3.25458 12.2374L3.26759 11.5468C3.32998 11.2108 3.28876 10.8252 3.28204 10.4837L4.13663 10.493C4.13286 10.2055 4.13007 9.9208 4.15108 9.63382Z" fill="#F3C59F"/>
<path d="M0.000970222 13.2812C0.256441 13.2748 0.51107 13.2822 0.766469 13.2888L0.781101 13.3156L0.769959 16.2487C0.518584 16.255 0.261269 16.2505 0.0110036 16.273C-0.00801091 15.2768 0.00408267 14.2777 0.000970222 13.2812Z" fill="#952FA1"/>
<path d="M9.96386 11.5863L10.8881 11.5913L10.8804 12.3017L11.5607 12.2976C11.5613 12.5141 11.5726 12.7357 11.5437 12.9506C11.709 13.058 12.0375 13.0156 12.2372 13.0126C12.212 13.27 12.2117 13.5221 12.2157 13.7806L11.835 13.7982C11.7369 13.8034 11.6849 13.7932 11.5971 13.7544C11.537 13.6881 11.5407 13.6168 11.531 13.5306C11.5354 13.4162 11.5517 13.2792 11.5227 13.168C11.5043 13.0974 11.4878 13.1061 11.43 13.0717C11.2751 13.0876 11.1176 13.0856 10.9619 13.0891C10.6058 13.1002 10.25 13.0935 9.89394 13.0886C9.89511 12.8359 9.89039 12.5895 9.94373 12.3415L9.95815 12.1091L9.96386 11.5863Z" fill="#64227C"/>
<path d="M9.94248 12.3218L9.95655 12.107L9.98736 12.2676C10.1698 12.364 10.4263 12.3313 10.6308 12.3718C10.7038 12.4393 10.7748 12.507 10.8538 12.5679C10.885 12.7144 10.9245 12.8633 10.9354 13.0127C10.5882 13.0229 10.2412 13.0168 9.89394 13.0122C9.89506 12.7787 9.89048 12.551 9.94248 12.3218Z" fill="#952FA1"/>
<path d="M11.5509 2.7337C11.6458 3.75855 11.5651 4.83887 11.5717 5.86997L12.2368 5.86967C12.2343 6.4755 12.2283 7.0816 12.2372 7.68736L11.5688 7.69904L11.5678 8.33159L10.6782 8.33138L10.675 5.87358L11.546 5.87386C11.5433 4.83021 11.5094 3.77604 11.5509 2.7337Z" fill="#EC9373"/>
<path d="M12.1932 13.0182C12.2187 13.2644 12.2111 13.512 12.2091 13.7592C12.4176 13.7615 12.6363 13.7517 12.8432 13.7754C12.9033 13.9106 12.9024 16.0431 12.8449 16.2499C12.7313 16.2792 12.6311 16.2725 12.5157 16.2661C12.1719 16.278 11.8253 16.2702 11.4812 16.2712C11.4272 15.4056 11.477 14.4106 11.4789 13.5315C11.4887 13.6169 11.4849 13.6876 11.5458 13.7533C11.6345 13.7918 11.6872 13.8018 11.7864 13.7967L12.1714 13.7793C12.1673 13.5231 12.1677 13.2733 12.1932 13.0182Z" fill="#952FA1"/>
<path d="M12.8467 13.6693C12.9022 13.8104 12.9013 16.0346 12.8483 16.2503C12.7436 16.2809 12.6513 16.2739 12.5449 16.2673C12.4498 16.2559 12.3666 16.2402 12.2746 16.2109C12.2012 15.7983 12.2589 14.2266 12.2578 13.6926C12.4563 13.6973 12.6498 13.705 12.8467 13.6693Z" fill="#64227C"/>
<path d="M1.56332 12.4419C2.0653 12.3164 2.72479 12.3858 3.24322 12.39C3.26833 13.2667 3.24613 14.1478 3.24292 15.025C3.24153 15.4032 3.20511 15.8214 3.25832 16.193C3.38998 16.2207 3.5107 16.2304 3.64514 16.2308C2.9901 16.3149 2.25923 16.2461 1.5961 16.246C1.0717 16.2459 0.519583 16.302 0 16.2492C0.246031 16.227 0.498993 16.2315 0.746114 16.2252L0.757068 13.3392L0.742684 13.3128C0.788159 13.047 0.766407 12.7592 0.763998 12.4893C1.02608 12.4403 1.304 12.5086 1.56332 12.4419Z" fill="#FA9EC3"/>
<path d="M0.801546 12.4976C1.0564 12.5189 1.30713 12.5083 1.5622 12.4976L1.56109 13.4089L0.794898 13.3993L0.781099 13.3714C0.824724 13.0894 0.803857 12.784 0.801546 12.4976Z" fill="#CA40A6"/>
<path d="M8.95176 10.6042C8.94613 10.3232 8.94508 10.0444 8.95652 9.76346C8.9623 10.0487 8.97188 10.3345 8.96505 10.6198L9.97758 10.6354L9.97254 11.5661L9.96668 12.0838L9.9519 12.3139C9.89727 12.5595 9.9021 12.8035 9.9009 13.0538C10.2656 13.0586 10.6301 13.0652 10.9947 13.0543C11.1542 13.0508 11.3155 13.0528 11.4742 13.0371C11.5333 13.0711 11.5502 13.0625 11.5691 13.1324C11.5988 13.2425 11.5821 13.3782 11.5776 13.4915C11.5757 14.37 11.5252 15.3643 11.5799 16.2294L3.67729 16.2726C3.54058 16.2722 3.41781 16.2624 3.28392 16.2347C3.22981 15.8618 3.26684 15.4421 3.26826 15.0625C3.27151 14.1822 3.29408 13.298 3.26856 12.4181L3.27309 12.3859L3.28993 12.2948C3.59022 12.2955 3.88994 12.2908 4.19016 12.2829C4.36464 12.2872 4.52282 12.2874 4.69546 12.2526C4.53024 12.2433 4.36228 12.2511 4.19678 12.2527L4.18921 10.5769L4.90337 10.5793C5.12492 10.5781 5.34758 10.5816 5.56899 10.5749C5.81733 10.5686 6.06687 10.5566 6.31507 10.5683L6.98535 10.5694C7.36716 10.5618 7.74463 10.559 8.12636 10.579L8.95176 10.6042Z" fill="url(#paint2_linear_0_4386)"/>
<path d="M4.17773 13.0182C4.42105 13.0267 4.66639 13.0212 4.90996 13.0213L4.94697 13.022L4.94127 13.2268C4.88998 13.4116 4.902 13.6081 4.90009 13.7982C4.72502 13.7934 4.39631 13.8291 4.26311 13.7005C4.12196 13.5641 4.17533 13.1967 4.17773 13.0182Z" fill="#952FA1"/>
<path d="M4.95461 13.0245L5.58459 13.0182C5.58386 13.275 5.56834 13.5452 5.59789 13.7993L4.94697 13.7987L4.94973 13.2294L4.95461 13.0245Z" fill="#E9E1AB"/>
<path d="M4.68215 12.2389C4.78818 12.2399 4.83071 12.222 4.91061 12.2894C4.97738 12.5093 4.93334 12.7567 4.92519 12.9842L4.92193 13.0186L4.88568 13.018C4.67527 12.9567 4.38889 12.9868 4.16587 12.9881L4.16798 12.2674C4.34554 12.2715 4.5065 12.2716 4.68215 12.2389Z" fill="url(#paint3_linear_0_4386)"/>
<path d="M7.81207 13.9295C8.03717 13.9373 8.26449 13.9389 8.48915 13.9539L8.59209 13.9502L8.58778 14.7052L7.86666 14.7106L7.82329 14.4024C7.80316 14.2501 7.81436 14.0836 7.81207 13.9295Z" fill="#64227C"/>
<path d="M9.14493 12.7581L9.16842 12.994L9.21776 13.0359C9.25418 13.3173 9.24081 13.6089 9.23984 13.8928C9.04642 13.896 8.74484 13.8628 8.56493 13.9257L8.46193 13.9298C8.4791 13.6433 8.46468 13.3487 8.4626 13.0614C8.66681 13.0546 8.86255 13.078 9.05979 13.0093C9.14679 12.9187 9.13297 12.8829 9.14493 12.7581Z" fill="#64227C"/>
<path d="M7.75524 14.32L7.79741 14.6491C7.82023 14.9225 7.80867 15.1969 7.80298 15.471C7.28727 15.4796 6.76628 15.5039 6.25117 15.4842L5.60933 15.4818C5.61006 15.2397 5.56609 14.8708 5.64579 14.6488L6.23803 14.6518L6.25378 14.6452L7.079 14.648C7.27906 14.6447 7.50677 14.7089 7.69217 14.6184C7.76739 14.5136 7.75091 14.4495 7.75524 14.32Z" fill="#952FA1"/>
<path d="M6.26341 14.7106L7.02989 14.7133L6.98162 15.488C6.74356 15.49 6.5053 15.4941 6.26716 15.4899L6.24879 14.717L6.26341 14.7106Z" fill="#64227C"/>
<path d="M4.95014 13.0286C5.18734 13.0263 5.44183 13.0052 5.67689 13.0306C6.26057 13.0632 6.89584 13.0819 7.4782 13.0379C7.77441 13.0609 8.1839 12.9698 8.45436 13.0616C8.45642 13.3387 8.4707 13.6228 8.45369 13.899C8.23106 13.8833 8.0058 13.8816 7.78273 13.8734C7.78501 14.0351 7.7739 14.2098 7.79383 14.3696C7.78941 14.4968 7.8062 14.5598 7.72951 14.6628C7.54053 14.7518 7.30839 14.6887 7.10448 14.6919L6.26329 14.6892L6.24724 14.6957L5.64353 14.6927C5.6765 14.4216 5.70439 14.1337 5.66613 13.8622C5.63307 13.601 5.65045 13.3233 5.65127 13.0595L4.94697 13.066L4.95014 13.0286Z" fill="#F6D556"/>
<path d="M5.6216 13.8126L6.2488 13.7994C6.24085 14.0867 6.19981 14.4227 6.24865 14.7037L6.2318 14.7107L5.59788 14.7075C5.63251 14.4154 5.6618 14.1051 5.6216 13.8126Z" fill="#CA40A6"/>
<path d="M5.52884 10.556C5.77416 10.5497 6.02067 10.538 6.26585 10.5495L6.92798 10.5506C6.92761 10.876 6.9186 11.2039 6.92805 11.529L6.94888 11.5407C6.93545 11.6319 6.92521 11.7142 6.93166 11.8068C6.93408 11.8171 6.93671 11.8272 6.93906 11.8375C7.02375 12.2051 6.92021 12.5653 6.98223 12.9221C7.08165 12.9362 7.17917 12.9502 7.27947 12.9563C7.33607 12.9597 7.36935 12.9706 7.42046 12.9932C6.84029 13.0356 6.20741 13.0176 5.62592 12.9861C5.39174 12.9617 5.13821 12.982 4.9019 12.9842C4.90981 12.746 4.95256 12.487 4.88775 12.2568C4.81018 12.1862 4.7689 12.205 4.66596 12.204C4.50275 12.1949 4.33683 12.2025 4.17334 12.2041L4.16587 10.5579L4.87134 10.5603C5.09019 10.5591 5.31015 10.5626 5.52884 10.556Z" fill="#F9C430"/>
<path d="M4.94697 10.5491C5.15162 10.5478 5.3573 10.5514 5.56183 10.5446L5.5588 11.5677C5.78772 11.5626 6.02056 11.5672 6.2488 11.5513L6.23522 11.5861L5.0084 11.5848C5.01065 11.3656 5.07291 10.6909 4.94697 10.5491Z" fill="#D66924"/>
<path d="M5.60088 10.5564C5.8286 10.5499 6.05742 10.5377 6.28501 10.5497L6.89965 10.5508C6.8993 10.8882 6.89094 11.228 6.89971 11.565L6.28283 11.5696C6.05626 11.5856 5.82514 11.581 5.59788 11.5861L5.60088 10.5564Z" fill="#5C3222"/>
<path d="M6.25109 10.5446L6.89964 10.5458C6.89928 10.8903 6.89045 11.2373 6.89971 11.5814L6.24879 11.5861C6.26839 11.2423 6.25232 10.8895 6.25109 10.5446Z" fill="#9F501F"/>
<path d="M6.92035 11.5863L6.94151 11.5976C6.92787 11.6852 6.91747 11.7644 6.92401 11.8535C6.92647 11.8634 6.92915 11.8731 6.93153 11.883C7.01754 12.2365 6.91239 12.5829 6.97538 12.926C7.07635 12.9396 7.17539 12.953 7.27726 12.9589C7.33474 12.9622 7.36854 12.9726 7.42045 12.9944C6.83122 13.0352 6.18845 13.0179 5.59788 12.9876L5.60256 12.3973L6.24093 12.3971C6.24309 12.1386 6.24093 11.8814 6.23065 11.623L6.2454 11.5906L6.92035 11.5863Z" fill="#ED832B"/>
<path d="M7.00665 11.5863L7.02989 11.5971C7.01491 11.6807 7.00347 11.7562 7.01067 11.8412L7.00322 12.3623C6.75807 12.3635 6.50408 12.3747 6.26009 12.3597C6.26245 12.1131 6.26009 11.8678 6.24879 11.6213L6.265 11.5904L7.00665 11.5863Z" fill="#892511"/>
<path d="M8.86892 10.5887C8.86329 10.3129 8.86224 10.0392 8.87368 9.76346C8.87945 10.0434 8.88903 10.324 8.8822 10.604L9.89395 10.6194L9.88891 11.5328L9.88305 12.041L9.86829 12.2669C9.8137 12.5079 9.81853 12.7475 9.81733 12.9931L9.13955 12.9943L9.09031 12.9554L9.06686 12.7364C9.05492 12.8523 9.06872 12.8855 8.98187 12.9696C8.78505 13.0334 8.5897 13.0117 8.38588 13.018C8.11333 12.9297 7.70069 13.0174 7.40217 12.9953C7.35048 12.9727 7.31681 12.9618 7.25956 12.9584C7.1581 12.9523 7.05946 12.9384 6.95889 12.9242C6.89616 12.5677 7.00087 12.2078 6.91522 11.8405C6.91285 11.8302 6.91018 11.8201 6.90773 11.8099C6.90121 11.7173 6.91159 11.635 6.92516 11.544L6.90409 11.5323C6.89451 11.2074 6.90364 10.8798 6.90402 10.5546C7.28552 10.5472 7.6627 10.5443 8.04414 10.564L8.86892 10.5887Z" fill="#D66924"/>
<path d="M6.90411 10.5505C7.2947 10.5427 7.68086 10.5398 8.07138 10.5601C8.06287 10.9017 8.06562 11.2425 8.06955 11.5841C7.69051 11.5816 7.30365 11.5956 6.92575 11.5728L6.90418 11.5608C6.8944 11.225 6.90373 10.8865 6.90411 10.5505Z" fill="#5C3222"/>
<path d="M8.98265 10.6751L9.89393 10.6902L9.8894 11.5857L9.88412 12.0838L9.87082 12.3053C9.82165 12.5416 9.826 12.7764 9.82492 13.0172L9.21444 13.0184L9.17009 12.9802L9.14897 12.7655C9.13481 12.6123 9.12552 12.459 9.11592 12.3054C8.97356 11.8982 9.01598 11.1322 8.98265 10.6751Z" fill="#ED832B"/>
<path d="M9.11284 12.3672L9.89394 12.3671C9.84306 12.5828 9.84756 12.7971 9.84645 13.0169L9.21444 13.0184L9.16889 12.9832L9.14704 12.7872C9.13239 12.6474 9.12278 12.5074 9.11284 12.3672Z" fill="#64227C"/>
<path d="M2.61877 0.00473248L9.01451 0C9.01071 0.23254 9.01123 0.462554 9.02253 0.694862L9.02678 1.32268C9.23275 1.32475 9.47298 1.30534 9.67367 1.34402C9.87964 1.36898 10.1064 1.34535 10.3061 1.38787L10.3061 1.95846C10.4701 1.96429 10.6442 1.95867 10.8058 1.9863C10.8433 1.99242 10.8746 1.99251 10.9065 2.01422C10.9234 2.22888 10.9274 2.43985 10.926 2.6551C11.1385 2.6562 11.3786 2.63768 11.5863 2.67607C11.5448 3.72398 11.5787 4.78377 11.5814 5.83301L10.71 5.83273L10.7132 8.30366L10.7116 9.00347L10.05 9.00368L10.0522 9.7086C9.67139 9.7066 9.28868 9.69751 8.90806 9.70454C8.89661 9.98529 8.89765 10.264 8.90329 10.5449L8.0764 10.5196C7.69398 10.4996 7.31582 10.5025 6.93333 10.5101L6.26184 10.509C6.01319 10.4973 5.76322 10.5092 5.51441 10.5156C5.2926 10.5223 5.06954 10.5187 4.84759 10.52L4.13215 10.5176C4.13342 10.2233 4.14383 9.92541 4.11274 9.63246C3.79235 9.63209 3.47552 9.64679 3.15578 9.66746L3.15706 8.94128C2.93853 8.92917 2.71494 8.93655 2.49582 8.93449L2.50012 7.78497C2.02023 7.78143 1.53469 7.72309 1.05637 7.76186C1.05911 7.40136 1.05689 7.04182 1.05042 6.6814C1.03333 6.40352 1.04596 6.11848 1.04566 5.83974C1.27058 5.83678 1.49209 5.83456 1.71656 5.85384L1.70238 1.48151L2.61687 1.4872L2.61877 0.00473248Z" fill="#5C3222"/>
<path d="M9.63356 1.4327C9.8541 1.44316 10.0659 1.4469 10.2867 1.43188L10.2866 2.00887C10.4568 2.01477 10.6375 2.00908 10.8052 2.03702C10.6537 2.048 10.3902 2.02231 10.2606 2.0828C10.093 1.99185 9.82809 2.03373 9.63442 2.03359L9.63356 1.4327Z" fill="#29182C"/>
<path d="M10.8323 2.083C10.8708 2.089 10.9028 2.08909 10.9354 2.11039C10.9105 2.31366 10.9213 2.52671 10.9193 2.73152L10.2845 2.73392C10.2852 2.53179 10.291 2.32955 10.295 2.12742C10.4229 2.06874 10.6828 2.09365 10.8323 2.083Z" fill="#16192D"/>
<path d="M4.46749 3.77541L5.44906 3.78322L5.44869 5.06865C6.96657 5.05996 8.48803 5.04641 10.0057 5.07064L10.0053 7.36601C10.0052 7.81227 9.97954 8.27791 10.0241 8.72114L8.92655 8.72239L8.93221 7.76845L5.44347 7.76807C5.43569 7.47142 5.43643 7.1725 5.46477 6.87689L4.4321 6.87771C4.42909 6.48434 4.41565 6.08789 4.44354 5.69533C4.52834 5.09091 4.46704 4.39065 4.46749 3.77541Z" fill="#F3C59F"/>
<path d="M7.81099 5.72794L8.85246 5.73045L8.84948 6.88005C8.50301 6.87783 8.16005 6.87776 7.81404 6.89959L7.81099 5.72794Z" fill="#18173F"/>
<path d="M4.44296 5.72954L5.44971 5.72794C5.45077 6.09547 5.50038 6.54014 5.43005 6.89878L4.43188 6.89959C4.42899 6.51031 4.416 6.11798 4.44296 5.72954Z" fill="#18173F"/>
<path d="M1.72212 2.99423C2.96187 3.05484 4.20718 3.0406 5.44815 3.04045L5.44694 3.69077C4.93382 3.68646 4.08358 3.61363 3.6012 3.71005C3.8715 3.74921 4.16239 3.73045 4.43611 3.7303C4.43565 4.34984 4.49906 5.05499 4.41136 5.66363C4.38251 6.05892 4.39639 6.45816 4.39952 6.85427L5.46769 6.85345C5.43838 7.15114 5.43761 7.45215 5.44566 7.75085L4.36915 7.75003L4.37439 8.67475L3.20979 8.67298L3.20182 8.98268C2.97866 8.9705 2.75035 8.97792 2.52659 8.97585L2.53098 7.82111C2.04094 7.81756 1.54512 7.75895 1.05669 7.79789C1.05949 7.43576 1.05722 7.07459 1.05061 6.71252C1.03316 6.43339 1.04606 6.14705 1.04575 5.86704C1.27543 5.86407 1.50162 5.86184 1.73085 5.88121L1.72212 2.99423Z" fill="#511313"/>
<path d="M1.04597 5.86051C1.28699 5.85732 1.52435 5.85492 1.76489 5.87575C2.04353 5.89953 2.32271 5.89345 2.60198 5.89178L2.60365 6.76762C2.08791 6.76522 1.56611 6.74719 1.05106 6.7697C1.03274 6.46955 1.0463 6.16164 1.04597 5.86051Z" fill="#F3C59F"/>
<path d="M1.17164 6.77931C1.6464 6.75985 2.12741 6.77545 2.60284 6.77752L2.60365 7.81111C2.12962 7.8078 1.65001 7.75326 1.17753 7.7895C1.18022 7.45247 1.17802 7.1163 1.17164 6.77931Z" fill="#F2A668"/>
<path d="M3.64846 3.77541C3.91192 3.81443 4.19545 3.79573 4.46224 3.79559C4.46179 4.41292 4.5236 5.11555 4.43811 5.72201C4.40999 6.11589 4.42353 6.51371 4.42658 6.90841L5.4677 6.90759C5.43914 7.20421 5.43839 7.50415 5.44623 7.80179L4.39698 7.80097L4.40208 8.72239L3.26696 8.72062C3.29153 7.59166 3.2683 6.4579 3.26778 5.32821C3.26748 4.83809 3.22759 4.31336 3.28799 3.82716C3.3798 3.76765 3.53907 3.78029 3.64846 3.77541Z" fill="white"/>
<path d="M10.916 2.7348C11.1409 2.74243 11.3615 2.74564 11.5863 2.7337C11.5453 3.77391 11.5788 4.82592 11.5815 5.86746L10.7203 5.86717L10.7234 8.31996L10.7219 9.01463L10.068 9.01484L10.0702 9.71458C9.69384 9.71261 9.31562 9.70358 8.93946 9.71056C8.92814 9.98925 8.92917 10.2659 8.93474 10.5447L8.11754 10.5197C7.7396 10.4998 7.36588 10.5026 6.98787 10.5102L6.32424 10.5091C6.07851 10.4974 5.83147 10.5093 5.58558 10.5156C5.36637 10.5223 5.14592 10.5188 4.92656 10.52L4.2195 10.5176C4.22076 10.2255 4.23105 9.9298 4.20033 9.63901C3.88369 9.63864 3.57057 9.65323 3.25458 9.67375L3.25584 8.95291L3.26356 8.64687L4.39066 8.64862L4.3856 7.73485L8.91993 7.73603L8.91426 8.68527L10.013 8.68403C10.078 8.31569 10.0332 7.87333 10.0325 7.49538L10.0262 5.02579L10.9141 5.0233C10.9102 4.26041 10.9054 3.49764 10.916 2.7348Z" fill="#16192D"/>
<path d="M5.33753 8.59169L7.81036 8.59385L7.81102 9.50298C6.98747 9.49079 6.16275 9.49603 5.33906 9.4929L5.33753 8.59169Z" fill="#F3C59F"/>
</g>
<path d="M18.8587 5.74236L19.8054 5.7428L19.8033 6.68903C19.5122 6.63259 19.1636 6.66093 18.8648 6.65792L18.8587 5.74236Z" fill="#511313"/>
<path d="M7.49868 15.9849C8.18867 15.9304 8.88908 16.0125 9.58134 16.0174L9.57824 16.913L8.66545 16.9074L8.66416 16.0281C8.27566 16.0246 7.8848 16.031 7.49868 15.9849Z" fill="#F3C59F"/>
<path d="M9.28869 21.4659L10.528 21.4569L10.51 22.5139L10.4862 22.6532L10.4798 22.7025C9.73511 22.6961 8.78778 22.5895 8.06668 22.7822L8.0693 21.4785L9.28869 21.4659Z" fill="#CA40A6"/>
<path d="M9.39201 21.4655L10.528 21.4569L10.5115 22.4606L10.4897 22.5929L9.39875 22.5908L9.39201 21.4655Z" fill="#952FA1"/>
<path d="M11.8318 18.617C11.8778 19.0433 11.8624 19.4768 11.8605 19.905L11.8717 22.3424C12.117 22.34 12.3659 22.3287 12.6107 22.3421C12.3549 22.3927 12.1205 22.3925 11.8619 22.3862C11.4171 22.3977 10.973 22.4046 10.528 22.4036L10.5469 21.3992C10.6377 20.9105 10.5777 20.3497 10.5679 19.853L11.8108 19.8667C11.8053 19.4485 11.8013 19.0344 11.8318 18.617Z" fill="#F3C59F"/>
<path d="M5.79609 23.9219C6.16763 23.9126 6.53796 23.9233 6.9094 23.933L6.93068 23.9719L6.91447 28.2376C6.54888 28.2469 6.17466 28.2402 5.81068 28.273C5.78303 26.8241 5.80062 25.3711 5.79609 23.9219Z" fill="#952FA1"/>
<path d="M20.2857 21.4569L21.6299 21.4641L21.6186 22.4973L22.6081 22.4912C22.609 22.8062 22.6255 23.1285 22.5833 23.441C22.8237 23.5972 23.3016 23.5355 23.592 23.5312C23.5553 23.9056 23.5548 24.2722 23.5607 24.6481L23.0071 24.6737C22.8644 24.6812 22.7887 24.6665 22.6611 24.6099C22.5736 24.5136 22.579 24.4099 22.5648 24.2844C22.5713 24.1181 22.595 23.9189 22.5528 23.7571C22.5261 23.6545 22.502 23.6672 22.418 23.6172C22.1927 23.6403 21.9637 23.6373 21.7372 23.6424C21.2194 23.6585 20.7019 23.6488 20.184 23.6417C20.1857 23.2742 20.1789 22.9158 20.2564 22.5551L20.2774 22.2172L20.2857 21.4569Z" fill="#64227C"/>
<path d="M20.2546 22.5267L20.2751 22.2144L20.3199 22.4479C20.5853 22.5882 20.9583 22.5406 21.2557 22.5995C21.3619 22.6976 21.4651 22.7962 21.58 22.8846C21.6254 23.0977 21.6829 23.3143 21.6987 23.5316C21.1937 23.5465 20.6891 23.5375 20.184 23.5309C20.1856 23.1913 20.179 22.8601 20.2546 22.5267Z" fill="#952FA1"/>
<path d="M22.5939 8.58237C22.7319 10.0729 22.6145 11.644 22.6241 13.1436L23.5914 13.1432C23.5878 14.0243 23.579 14.9058 23.592 15.7868L22.6198 15.8037L22.6184 16.7237L21.3246 16.7234L21.32 13.1489L22.5867 13.1493C22.5828 11.6314 22.5334 10.0983 22.5939 8.58237Z" fill="#EC9373"/>
<path d="M23.5279 23.5396C23.5651 23.8976 23.5539 24.2577 23.5511 24.6172C23.8543 24.6206 24.1724 24.6063 24.4732 24.6407C24.5607 24.8374 24.5594 27.9388 24.4758 28.2395C24.3106 28.2821 24.1649 28.2724 23.997 28.2632C23.4969 28.2805 22.9929 28.2691 22.4925 28.2706C22.4139 27.0116 22.4864 25.5645 22.4891 24.286C22.5033 24.4103 22.4979 24.5131 22.5864 24.6086C22.7155 24.6646 22.792 24.6792 22.9363 24.6718L23.4963 24.6464C23.4903 24.2738 23.4908 23.9105 23.5279 23.5396Z" fill="#952FA1"/>
<path d="M24.4784 24.4863C24.559 24.6915 24.5578 27.9263 24.4807 28.24C24.3284 28.2844 24.1941 28.2743 24.0394 28.2647C23.9011 28.2481 23.7801 28.2253 23.6463 28.1827C23.5395 27.5826 23.6234 25.2967 23.6218 24.5201C23.9106 24.5269 24.192 24.5382 24.4784 24.4863Z" fill="#64227C"/>
<path d="M8.06831 22.7017C8.79837 22.5192 9.7575 22.6202 10.5115 22.6262C10.548 23.9013 10.5157 25.1827 10.511 26.4585C10.509 27.0085 10.4561 27.6168 10.5334 28.1572C10.7249 28.1974 10.9005 28.2116 11.096 28.2122C10.1433 28.3345 9.0804 28.2344 8.11598 28.2343C7.35331 28.2342 6.55034 28.3157 5.79468 28.2388C6.1525 28.2066 6.52039 28.2132 6.87979 28.204L6.89573 24.0066L6.87481 23.9683C6.94094 23.5818 6.90931 23.1631 6.9058 22.7706C7.28697 22.6994 7.69115 22.7988 8.06831 22.7017Z" fill="#FA9EC3"/>
<path d="M6.96042 22.7822C7.33106 22.8132 7.69572 22.7989 8.06668 22.7834L8.06506 24.1076L6.95075 24.0937L6.93068 24.053C6.99413 23.6429 6.96378 23.1987 6.96042 22.7822Z" fill="#CA40A6"/>
<path d="M18.8137 20.0291C18.8056 19.6204 18.804 19.2148 18.8207 18.8063C18.8291 19.2211 18.843 19.6368 18.8331 20.0517L20.3057 20.0745L20.2983 21.4279L20.2898 22.1809L20.2683 22.5156C20.1888 22.8728 20.1959 23.2276 20.1941 23.5916C20.7246 23.5987 21.2546 23.6083 21.7849 23.5924C22.0169 23.5873 22.2514 23.5902 22.4822 23.5673C22.5683 23.6168 22.5929 23.6043 22.6203 23.7059C22.6635 23.8661 22.6392 24.0634 22.6326 24.2282C22.6299 25.5059 22.5565 26.952 22.636 28.2101L11.1428 28.273C10.9439 28.2723 10.7654 28.2582 10.5707 28.2178C10.492 27.6755 10.5458 27.065 10.5479 26.513C10.5526 25.2327 10.5855 23.9467 10.5483 22.6671L10.5549 22.6202L10.5794 22.4878C11.0161 22.4888 11.452 22.4819 11.8887 22.4704C12.1424 22.4768 12.3725 22.477 12.6236 22.4264C12.3833 22.4129 12.139 22.4242 11.8983 22.4266L11.8873 19.9894L12.9259 19.9929C13.2481 19.9911 13.572 19.9962 13.894 19.9865C14.2552 19.9772 14.6181 19.9598 14.979 19.9769L15.9539 19.9785C16.5092 19.9674 17.0581 19.9633 17.6133 19.9924L18.8137 20.0291Z" fill="url(#paint4_linear_0_4386)"/>
<path d="M11.8706 23.5396C12.2245 23.5519 12.5813 23.5438 12.9355 23.544L12.9893 23.545L12.981 23.8429C12.9065 24.1117 12.9239 24.3974 12.9212 24.6739C12.6665 24.6669 12.1885 24.7189 11.9948 24.5318C11.7895 24.3334 11.8671 23.7991 11.8706 23.5396Z" fill="#952FA1"/>
<path d="M13.0005 23.5487L13.9167 23.5396C13.9156 23.9129 13.893 24.3059 13.936 24.6756L12.9893 24.6746L12.9934 23.8466L13.0005 23.5487Z" fill="#E9E1AB"/>
<path d="M12.6042 22.4058C12.7584 22.4072 12.8203 22.3811 12.9365 22.4792C13.0336 22.799 12.9695 23.1588 12.9577 23.4896L12.9529 23.5397L12.9002 23.5388C12.5942 23.4496 12.1777 23.4934 11.8533 23.4953L11.8564 22.4472C12.1147 22.4531 12.3487 22.4533 12.6042 22.4058Z" fill="url(#paint5_linear_0_4386)"/>
<path d="M17.1563 24.8649C17.4836 24.8763 17.8142 24.8787 18.141 24.9005L18.2907 24.8951L18.2844 25.9932L17.2357 26.0009L17.1726 25.5527C17.1433 25.3312 17.1596 25.0892 17.1563 24.8649Z" fill="#64227C"/>
<path d="M19.0947 23.161L19.1288 23.504L19.2006 23.565C19.2536 23.9742 19.2341 24.3984 19.2327 24.8112C18.9514 24.8159 18.5128 24.7675 18.2512 24.8591L18.1013 24.865C18.1263 24.4484 18.1054 24.02 18.1023 23.6021C18.3993 23.5922 18.684 23.6262 18.9709 23.5263C19.0974 23.3945 19.0773 23.3425 19.0947 23.161Z" fill="#64227C"/>
<path d="M17.0736 25.433L17.1349 25.9114C17.1681 26.3091 17.1513 26.7082 17.143 27.1068C16.393 27.1193 15.6353 27.1546 14.8861 27.1261L13.9527 27.1225C13.9537 26.7704 13.8898 26.234 14.0057 25.9111L14.867 25.9154L14.8899 25.9059L16.0901 25.9099C16.3811 25.9051 16.7122 25.9985 16.9819 25.8668C17.0912 25.7144 17.0673 25.6212 17.0736 25.433Z" fill="#952FA1"/>
<path d="M14.9039 26.001L16.0187 26.0049L15.9485 27.1316C15.6022 27.1344 15.2557 27.1405 14.9094 27.1343L14.8827 26.0103L14.9039 26.001Z" fill="#64227C"/>
<path d="M12.994 23.5546C13.3389 23.5513 13.7091 23.5207 14.0509 23.5576C14.8998 23.605 15.8237 23.6322 16.6707 23.5682C17.1015 23.6016 17.697 23.4691 18.0903 23.6026C18.0933 24.0056 18.1141 24.4188 18.0894 24.8206C17.7656 24.7977 17.438 24.7952 17.1135 24.7832C17.1169 25.0185 17.1007 25.2725 17.1297 25.505C17.1233 25.69 17.1477 25.7816 17.0362 25.9314C16.7613 26.0608 16.4237 25.969 16.1271 25.9737L14.9037 25.9697L14.8804 25.9792L14.0024 25.9749C14.0503 25.5806 14.0909 25.1618 14.0353 24.767C13.9872 24.3871 14.0125 23.9833 14.0136 23.5996L12.9893 23.609L12.994 23.5546Z" fill="#F6D556"/>
<path d="M13.9705 24.6949L14.8827 24.6756C14.8711 25.0934 14.8114 25.5822 14.8825 25.9908L14.858 26.001L13.936 25.9964C13.9864 25.5715 14.029 25.1203 13.9705 24.6949Z" fill="#CA40A6"/>
<path d="M13.8356 19.9587C14.1924 19.9496 14.5509 19.9325 14.9075 19.9493L15.8704 19.9509C15.8699 20.4242 15.8568 20.901 15.8705 21.3739L15.9008 21.3909C15.8813 21.5235 15.8664 21.6431 15.8758 21.7779C15.8793 21.7928 15.8831 21.8076 15.8866 21.8225C16.0097 22.3571 15.8591 22.881 15.9493 23.3999C16.0939 23.4205 16.2358 23.4407 16.3816 23.4496C16.4639 23.4546 16.5123 23.4704 16.5867 23.5033C15.7429 23.565 14.8225 23.5388 13.9768 23.4931C13.6362 23.4575 13.2675 23.487 12.9238 23.4902C12.9353 23.1438 12.9975 22.7672 12.9032 22.4323C12.7904 22.3296 12.7304 22.357 12.5807 22.3555C12.3433 22.3423 12.102 22.3534 11.8642 22.3557L11.8533 19.9615L12.8793 19.965C13.1976 19.9632 13.5175 19.9683 13.8356 19.9587Z" fill="#F9C430"/>
<path d="M12.9893 19.9488C13.287 19.9469 13.5861 19.9521 13.8836 19.9422L13.8792 21.4302C14.2121 21.4228 14.5507 21.4294 14.8827 21.4063L14.8629 21.4569L13.0787 21.4549C13.082 21.1362 13.1725 20.155 12.9893 19.9488Z" fill="#D66924"/>
<path d="M13.9404 19.9593C14.2716 19.9499 14.6044 19.9322 14.9353 19.9496L15.8292 19.9512C15.8287 20.4418 15.8166 20.9361 15.8293 21.4263L14.9322 21.4329C14.6027 21.4561 14.2665 21.4495 13.936 21.4569L13.9404 19.9593Z" fill="#5C3222"/>
<path d="M14.886 19.9422L15.8292 19.9439C15.8287 20.4449 15.8159 20.9496 15.8293 21.4501L14.8827 21.4569C14.9112 20.9568 14.8878 20.4438 14.886 19.9422Z" fill="#9F501F"/>
<path d="M15.8594 21.4569L15.8901 21.4732C15.8703 21.6007 15.8552 21.7158 15.8647 21.8454C15.8683 21.8597 15.8721 21.874 15.8756 21.8883C16.0007 22.4024 15.8478 22.9062 15.9394 23.4052C16.0862 23.425 16.2303 23.4445 16.3784 23.453C16.462 23.4578 16.5112 23.473 16.5867 23.5047C15.7297 23.564 14.7949 23.5388 13.936 23.4948L13.9428 22.6364L14.8712 22.6361C14.8744 22.2601 14.8712 21.886 14.8563 21.5102L14.8777 21.463L15.8594 21.4569Z" fill="#ED832B"/>
<path d="M15.9849 21.4569L16.0187 21.4725C15.9969 21.5941 15.9803 21.7039 15.9907 21.8275L15.9799 22.5854C15.6233 22.5871 15.254 22.6034 14.8991 22.5817C14.9025 22.223 14.8991 21.8662 14.8827 21.5078L14.9062 21.4628L15.9849 21.4569Z" fill="#892511"/>
<path d="M18.6933 20.0066C18.6851 19.6054 18.6835 19.2073 18.7002 18.8063C18.7086 19.2135 18.7225 19.6215 18.7126 20.0287L20.184 20.0511L20.1767 21.3796L20.1682 22.1187L20.1467 22.4472C20.0673 22.7978 20.0743 23.1461 20.0726 23.5034L19.0868 23.5052L19.0152 23.4485L18.9811 23.13C18.9638 23.2985 18.9838 23.3469 18.8575 23.4692C18.5713 23.562 18.2872 23.5305 17.9907 23.5397C17.5944 23.4111 16.9942 23.5387 16.5601 23.5065C16.4849 23.4736 16.4359 23.4578 16.3527 23.4529C16.2051 23.444 16.0617 23.4237 15.9154 23.4032C15.8242 22.8847 15.9764 22.3612 15.8519 21.827C15.8484 21.8122 15.8445 21.7974 15.841 21.7825C15.8315 21.6479 15.8466 21.5282 15.8663 21.3958L15.8357 21.3788C15.8218 20.9063 15.835 20.4299 15.8356 19.957C16.3904 19.9461 16.939 19.942 17.4937 19.9706L18.6933 20.0066Z" fill="#D66924"/>
<path d="M15.8357 19.9507C16.4038 19.9395 16.9654 19.9353 17.5333 19.9648C17.521 20.4615 17.525 20.9571 17.5307 21.454C16.9794 21.4504 16.4168 21.4707 15.8672 21.4376L15.8358 21.42C15.8216 20.9318 15.8352 20.4394 15.8357 19.9507Z" fill="#5C3222"/>
<path d="M18.8587 20.1317L20.184 20.1536L20.1774 21.456L20.1697 22.1805L20.1504 22.5025C20.0789 22.8462 20.0852 23.1877 20.0836 23.5379L19.1958 23.5397L19.1313 23.4842L19.1006 23.1719C19.08 22.9491 19.0665 22.7261 19.0525 22.5027C18.8455 21.9105 18.9072 20.7964 18.8587 20.1317Z" fill="#ED832B"/>
<path d="M19.048 22.5931L20.184 22.5929C20.11 22.9066 20.1166 23.2183 20.1149 23.538L19.1958 23.5397L19.1295 23.4889L19.0978 23.2039C19.0764 23.0005 19.0625 22.797 19.048 22.5931Z" fill="#64227C"/>
<path d="M9.60334 4.61318L18.905 4.60629C18.8995 4.94449 18.9003 5.27901 18.9167 5.61687L18.9229 6.52995C19.2224 6.53295 19.5718 6.50472 19.8637 6.56097C20.1632 6.59727 20.493 6.56291 20.7835 6.62476L20.7834 7.45459C21.022 7.46308 21.2752 7.4549 21.5102 7.49508C21.5648 7.50399 21.6103 7.50412 21.6566 7.53569C21.6813 7.84788 21.687 8.15471 21.6851 8.46775C21.994 8.46936 22.3432 8.44242 22.6453 8.49826C22.5849 10.0223 22.6343 11.5636 22.6382 13.0896L21.3708 13.0892L21.3755 16.6828L21.3732 17.7005L20.411 17.7009L20.4142 18.7261C19.8604 18.7232 19.3038 18.7099 18.7502 18.7202C18.7336 19.1285 18.7351 19.5338 18.7433 19.9423L17.5407 19.9056C16.9845 19.8765 16.4345 19.8807 15.8783 19.8917L14.9017 19.8901C14.54 19.873 14.1765 19.8904 13.8146 19.8997C13.492 19.9095 13.1676 19.9043 12.8448 19.9061L11.8043 19.9026C11.8062 19.4746 11.8213 19.0414 11.7761 18.6153C11.3101 18.6148 10.8494 18.6362 10.3843 18.6662L10.3862 17.6101C10.0684 17.5925 9.74321 17.6032 9.42453 17.6002L9.43078 15.9284C8.73284 15.9233 8.02669 15.8384 7.33105 15.8948C7.33503 15.3705 7.33181 14.8476 7.3224 14.3234C7.29754 13.9193 7.31591 13.5047 7.31547 13.0994C7.64259 13.0951 7.96474 13.0918 8.29121 13.1199L8.27057 6.76094L9.60058 6.76922L9.60334 4.61318Z" fill="#5C3222"/>
<path d="M19.8053 6.69018C20.1261 6.70538 20.4341 6.71082 20.7552 6.68898L20.7551 7.52812C21.0027 7.53671 21.2655 7.52844 21.5093 7.56907C21.289 7.58503 20.9058 7.54767 20.7173 7.63564C20.4735 7.50337 20.0883 7.56429 19.8066 7.56408L19.8053 6.69018Z" fill="#29182C"/>
<path d="M21.5488 7.63559C21.6047 7.64432 21.6513 7.64445 21.6987 7.67542C21.6625 7.97106 21.6782 8.28091 21.6752 8.57878L20.752 8.58226C20.753 8.2883 20.7615 7.99416 20.7673 7.7002C20.9533 7.61485 21.3313 7.65107 21.5488 7.63559Z" fill="#16192D"/>
<path d="M12.292 10.097L13.7196 10.1084L13.719 11.9778C15.9266 11.9652 18.1393 11.9455 20.3465 11.9807L20.346 15.319C20.3459 15.968 20.3085 16.6452 20.3733 17.2899L18.7771 17.2917L18.7853 15.9043L13.7115 15.9038C13.7001 15.4723 13.7012 15.0376 13.7424 14.6077L12.2406 14.6089C12.2362 14.0368 12.2166 13.4602 12.2572 12.8893C12.3805 12.0102 12.2914 10.9918 12.292 10.097Z" fill="#F3C59F"/>
<path d="M17.1547 12.937L18.6693 12.9407L18.665 14.6126C18.1611 14.6094 17.6623 14.6093 17.1591 14.641L17.1547 12.937Z" fill="#18173F"/>
<path d="M12.2564 12.9393L13.7205 12.937C13.7221 13.4715 13.7942 14.1183 13.6919 14.6398L12.2402 14.641C12.236 14.0749 12.2172 13.5043 12.2564 12.9393Z" fill="#18173F"/>
<path d="M8.29929 8.96095C10.1023 9.04909 11.9134 9.02838 13.7183 9.02817L13.7165 9.97396C12.9703 9.96769 11.7337 9.86177 11.0321 10.002C11.4252 10.059 11.8483 10.0317 12.2464 10.0315C12.2457 10.9325 12.338 11.958 12.2104 12.8432C12.1684 13.4181 12.1886 13.9987 12.1932 14.5748L13.7467 14.5736C13.7041 15.0066 13.7029 15.4443 13.7146 15.8788L12.149 15.8776L12.1566 17.2224L10.4629 17.2199L10.4513 17.6703C10.1267 17.6526 9.7947 17.6634 9.46928 17.6604L9.47566 15.981C8.76296 15.9758 8.04187 15.8905 7.33151 15.9472C7.33558 15.4205 7.33228 14.8952 7.32267 14.3687C7.29729 13.9627 7.31605 13.5463 7.3156 13.139C7.64964 13.1347 7.9786 13.1315 8.31198 13.1596L8.29929 8.96095Z" fill="#511313"/>
<path d="M7.31592 13.1294C7.66646 13.1247 8.01166 13.1212 8.3615 13.1515C8.76673 13.1861 9.17277 13.1773 9.57892 13.1748L9.58135 14.4486C8.83128 14.4451 8.07239 14.4189 7.32332 14.4516C7.29669 14.0151 7.3164 13.5673 7.31592 13.1294Z" fill="#F3C59F"/>
<path d="M7.49868 14.4657C8.18915 14.4374 8.88871 14.4601 9.58016 14.4631L9.58134 15.9663C8.89193 15.9615 8.1944 15.8822 7.50725 15.9349C7.51116 15.4447 7.50797 14.9558 7.49868 14.4657Z" fill="#F2A668"/>
<path d="M11.1008 10.097C11.484 10.1538 11.8964 10.1266 12.2844 10.1264C12.2837 11.0242 12.3736 12.0461 12.2493 12.9281C12.2084 13.5009 12.2281 14.0795 12.2325 14.6535L13.7467 14.6523C13.7051 15.0837 13.704 15.5199 13.7155 15.9528L12.1895 15.9516L12.1969 17.2917L10.546 17.2891C10.5817 15.6472 10.548 13.9983 10.5472 12.3553C10.5468 11.6425 10.4888 10.8794 10.5766 10.1723C10.7101 10.0857 10.9417 10.1041 11.1008 10.097Z" fill="white"/>
<path d="M21.6705 8.58396C21.9975 8.59506 22.3183 8.59973 22.6453 8.58237C22.5856 10.0952 22.6344 11.6252 22.6383 13.14L21.3858 13.1396L21.3903 16.7068L21.3881 17.7171L20.4372 17.7174L20.4404 18.7351C19.893 18.7322 19.3429 18.7191 18.7958 18.7292C18.7794 19.1345 18.7809 19.5368 18.789 19.9424L17.6005 19.9059C17.0508 19.877 16.5073 19.8812 15.9575 19.8922L14.9924 19.8906C14.635 19.8736 14.2757 19.8909 13.9181 19.9001C13.5993 19.9098 13.2787 19.9046 12.9597 19.9065L11.9314 19.9029C11.9332 19.4781 11.9481 19.0481 11.9035 18.6252C11.443 18.6246 10.9876 18.6458 10.528 18.6757L10.5298 17.6273L10.5411 17.1822L12.1803 17.1848L12.1729 15.8558L18.7674 15.8575L18.7592 17.2381L20.3572 17.2363C20.4517 16.7006 20.3865 16.0572 20.3855 15.5075L20.3763 11.9159L21.6677 11.9123C21.662 10.8027 21.6551 9.6934 21.6705 8.58396Z" fill="#16192D"/>
<path d="M13.5573 17.1022L17.1537 17.1054L17.1547 18.4276C15.9569 18.4098 14.7575 18.4175 13.5596 18.4129L13.5573 17.1022Z" fill="#F3C59F"/>
<defs>
<linearGradient id="paint0_linear_0_4386" x1="17.2063" y1="7.29702" x2="33.2601" y2="9.9487" gradientUnits="userSpaceOnUse">
<stop stop-color="#B33BA4"/>
<stop offset="1" stop-color="#A661B6"/>
</linearGradient>
<linearGradient id="paint1_linear_0_4386" x1="17.8362" y1="15.7679" x2="32.4926" y2="5.71672" gradientUnits="userSpaceOnUse">
<stop stop-color="#F8D6AD"/>
<stop offset="1" stop-color="#ECBDB0"/>
</linearGradient>
<linearGradient id="paint2_linear_0_4386" x1="0.177269" y1="6.26971" x2="13.9709" y2="8.54806" gradientUnits="userSpaceOnUse">
<stop stop-color="#B33BA4"/>
<stop offset="1" stop-color="#A661B6"/>
</linearGradient>
<linearGradient id="paint3_linear_0_4386" x1="0.718498" y1="13.548" x2="13.3115" y2="4.91194" gradientUnits="userSpaceOnUse">
<stop stop-color="#F8D6AD"/>
<stop offset="1" stop-color="#ECBDB0"/>
</linearGradient>
<linearGradient id="paint4_linear_0_4386" x1="6.05249" y1="13.7247" x2="26.1133" y2="17.0382" gradientUnits="userSpaceOnUse">
<stop stop-color="#B33BA4"/>
<stop offset="1" stop-color="#A661B6"/>
</linearGradient>
<linearGradient id="paint5_linear_0_4386" x1="6.83963" y1="24.3099" x2="25.1543" y2="11.7499" gradientUnits="userSpaceOnUse">
<stop stop-color="#F8D6AD"/>
<stop offset="1" stop-color="#ECBDB0"/>
</linearGradient>
</defs>
</svg>
