<svg width="28" height="29" viewBox="0 0 28 29" fill="none" xmlns="http://www.w3.org/2000/svg">
<path d="M27.9643 3.93863C27.9684 5.7019 28.0413 7.49454 27.9659 9.25467C27.8656 8.98204 27.9069 8.62121 27.9048 8.3326L26.5443 8.31665C26.5514 7.76521 26.581 7.20518 26.4923 6.65899C26.4842 6.44187 26.469 6.22522 26.4556 6.00839C26.3692 5.348 26.4184 4.65572 26.4257 3.99065C26.9426 3.99355 27.45 3.99761 27.9643 3.93863Z" fill="#3F448D"/>
<path d="M26.696 6.59682C26.7725 7.14361 26.747 7.70425 26.7409 8.2563L27.9135 8.27227C27.9153 8.5612 27.8797 8.92238 27.9661 9.19534C27.9783 10.6343 28.0323 24.6742 27.9723 24.8118C27.9535 24.855 27.9203 24.8889 27.8896 24.9228C27.8818 24.9316 27.8695 24.9325 27.8592 24.9372C27.4762 24.8822 27.0776 24.9023 26.6915 24.8986C26.7016 23.6765 26.6839 22.4542 26.6711 21.2323C26.7981 17.4224 26.6322 13.5984 26.6947 9.78568C26.749 8.72564 26.6642 7.66027 26.696 6.59682Z" fill="#18173F"/>
<path d="M1.69155 4.73627L2.2173 4.77004C2.02604 4.78731 1.85832 4.76489 1.70158 4.88537C1.60051 7.19664 1.66794 9.53442 1.65411 11.8492C1.6483 12.8203 1.46834 14.3815 1.66963 15.2693C1.81504 17.2543 1.69275 19.3323 1.69137 21.3274C1.6905 22.6418 1.81078 24.4753 1.67107 25.7345L0.380903 25.7346L0.356689 4.81717L1.62448 4.76518L1.69155 4.73627Z" fill="#242565"/>
<path d="M4.11539 27.5952C5.89486 27.6421 7.67836 27.6439 9.45873 27.6629L24.8103 27.731L24.809 28.8914L4.07779 28.9242C4.14307 28.492 4.11376 28.0318 4.11539 27.5952Z" fill="#18173F"/>
<path d="M4.60943 0.230917C11.1869 0.211728 17.7706 0.198297 24.3472 0.30014L24.3493 1.86289C24.9598 1.87211 25.5703 1.88467 26.1808 1.88587C26.1745 2.56579 26.1456 3.25367 26.1763 3.93283C26.7608 3.93479 27.4266 3.87268 28 3.96986C27.5113 4.0291 27.0292 4.02503 26.538 4.02215C26.531 4.69012 26.4843 5.38544 26.5664 6.04872L25.2148 6.06517C25.2192 5.56131 25.2485 5.0478 25.1646 4.54925C24.7365 4.53956 24.3141 4.54455 23.8865 4.5648C23.4817 4.56753 23.1379 4.41881 22.7636 4.281L22.6897 4.22146L22.6919 3.10482C22.1251 3.09863 21.5566 3.10333 20.993 3.03804L20.8439 3.03066L20.9264 1.58485C17.1742 1.69955 13.39 1.68899 9.63525 1.64785L4.6383 1.65768C4.64732 1.17846 4.64392 0.709222 4.60943 0.230917Z" fill="url(#paint0_linear_0_1183)"/>
<path d="M20.8993 1.63687C21.386 1.54738 21.8797 1.55537 22.3713 1.54644C22.3834 2.07398 22.3803 2.6095 22.4183 3.13499C21.9359 3.13032 21.4411 3.10058 20.9606 3.14125L20.8235 3.13361L20.8993 1.63687Z" fill="#6161A7"/>
<path d="M4.43901 1.77419L4.51447 1.73362C4.67391 1.35037 4.57183 0.724243 4.6099 0.294513L4.61724 0.217529C4.65153 0.693414 4.65488 1.16028 4.64592 1.63707L9.60891 1.62729C13.3381 1.66819 17.0967 1.67873 20.8233 1.56462L20.7413 3.0031C19.86 2.99513 18.9775 2.97875 18.0962 2.98401C18.0964 3.36983 18.0805 3.76525 18.1004 4.15006L18.0771 4.48086L16.6329 4.48807C16.5905 5.01822 16.5959 5.5508 16.5923 6.08233L16.5354 6.11106C16.5009 7.23574 16.5167 8.36191 16.5222 9.48703L16.512 9.52373C16.5278 10.0342 16.5315 10.5435 16.5299 11.0542L16.5185 11.3507C15.846 11.3677 15.1787 11.3771 14.506 11.3557C14.5247 11.9274 14.5381 12.4954 14.5246 13.0672L12.8511 13.068L12.8349 14.4724C12.209 14.5391 11.5653 14.5078 10.936 14.5048C11.0061 15.2129 10.9867 15.9245 10.9807 16.6353C10.5533 16.6267 10.1224 16.6076 9.69509 16.6153L9.6966 16.6656L9.5522 16.7358C9.46648 17.207 9.60387 17.7411 9.45378 18.1845L9.42899 18.2926C9.4387 18.7309 9.45065 19.1644 9.41467 19.6018C9.32999 20.0001 9.35162 20.4057 9.35389 20.8111C9.05504 20.8173 8.73679 20.8003 8.44226 20.8493C8.43586 21.1968 8.3921 21.5743 8.50185 21.9074L8.63553 21.9782C9.00113 22.0144 9.30538 21.9857 9.55939 22.2949C9.39811 22.5866 9.30146 22.7055 9.39527 23.0567C9.42229 23.1582 9.412 23.1325 9.47307 23.1999L9.49369 24.9736C9.65259 25.134 9.8472 25.1257 10.0588 25.148C9.93874 25.1667 9.78073 25.1473 9.70815 25.2558C9.5364 25.5125 9.64601 26.0132 9.64601 26.312C8.9287 26.324 8.16105 26.2793 7.45133 26.3689C8.15892 26.4175 8.8685 26.4008 9.57717 26.3945C9.53536 26.7633 9.48131 27.1331 9.48264 27.5047C7.72106 27.4834 5.95639 27.4814 4.19572 27.4287C4.1941 27.9199 4.22307 28.4377 4.15851 28.9241C4.06258 28.4062 4.25851 27.7967 4.06024 27.3039L3.84084 27.2363C3.44214 27.2009 2.90197 27.3504 2.57642 27.0926L2.56469 26.8391C2.5327 26.4866 2.63839 26.0626 2.49348 25.7394C2.24537 25.5899 2.06995 25.6251 1.7843 25.6208C1.92712 24.3713 1.80413 22.552 1.80506 21.2477C1.80647 19.268 1.93151 17.2061 1.78283 15.2364C1.577 14.3555 1.76102 12.8063 1.76696 11.8427C1.7811 9.54582 1.71212 7.2261 1.8155 4.93269C1.97577 4.81314 2.14731 4.83538 2.34285 4.81825L1.80524 4.78473L1.7367 4.81343L1.74986 3.24564C2.11712 3.24607 2.73342 3.33436 3.05196 3.16174L3.06801 1.78191L4.43901 1.77419Z" fill="#8B5EAE"/>
<path d="M1.69799 3.40833L2.98239 3.40699C2.98919 3.80284 3.08945 4.28373 2.89765 4.64989C2.66133 4.76591 2.54118 4.73397 2.26956 4.7257L1.6856 4.69642L1.69799 3.40833Z" fill="#242565"/>
<path d="M5.43325 18.2937C5.42429 18.6785 5.32881 19.1281 5.504 19.4777C5.6498 19.5335 5.78354 19.5569 5.9384 19.5795C5.39015 19.6466 4.75984 19.6253 4.20964 19.5673L4.07779 19.4335L4.13909 19.3881C4.26041 19.077 4.19771 18.6252 4.19517 18.2921L5.43325 18.2937Z" fill="#242565"/>
<path d="M3.02942 1.82044L4.26914 1.81244C4.39827 2.25684 4.32224 2.91211 4.31605 3.38704C3.93044 3.39002 3.43202 3.45367 3.06505 3.33853L3.01488 3.25596L3.02942 1.82044Z" fill="#242565"/>
<path d="M2.53526 25.7347L4.04188 25.7513C4.05406 26.1844 4.1471 26.8462 3.97614 27.2439L3.75728 27.3181C3.35924 27.2832 2.81997 27.4306 2.49495 27.1765L2.48324 26.9267C2.51493 26.5275 2.5353 26.1355 2.53526 25.7347Z" fill="#0C0D4B"/>
<path d="M1.6856 13.7734L3.54621 13.7794L3.54243 15.3448C2.92663 15.3553 2.31032 15.3722 1.69449 15.3674L1.6856 13.7734Z" fill="white"/>
<path d="M5.44416 16.8207L6.64471 16.6972C6.61788 17.1834 6.5629 17.7246 6.6662 18.2035L6.71666 18.3871C6.71441 18.7259 6.80213 19.2539 6.62214 19.5376C6.41485 19.6629 6.19805 19.615 5.96627 19.5964C5.80564 19.5726 5.66693 19.5481 5.5157 19.4894C5.33398 19.1219 5.43302 18.6492 5.44231 18.2446L5.44416 16.8207Z" fill="#18173F"/>
<path d="M2.75692 19.356C3.23459 19.352 3.70597 19.369 4.1826 19.3926L4.34013 19.5421C4.27097 20.3667 4.2603 21.2525 4.33413 22.0765L4.33892 22.1474C4.33067 22.7073 4.377 23.3225 4.2873 23.874C4.19056 23.3476 4.24255 22.7704 4.24734 22.236L2.75871 22.2402C2.7453 21.2785 2.7465 20.3179 2.75692 19.356Z" fill="#242565"/>
<path d="M4.12757 19.621C4.70377 19.6822 5.36389 19.7047 5.93811 19.6339L5.9384 22.005L4.12235 22.0133C4.0576 21.2356 4.06695 20.3994 4.12757 19.621Z" fill="white"/>
<path d="M15.2495 6.07425C15.6898 6.06798 16.1331 6.04539 16.5705 6.10865C16.5374 7.22719 16.5526 8.34719 16.5579 9.46616L16.548 9.50266C16.115 9.52522 15.6754 9.5152 15.2415 9.52061L15.2495 6.07425Z" fill="#242565"/>
<path d="M6.73593 13.9266C7.51376 13.8053 8.8107 14.0911 9.46226 13.8234C9.47849 13.7026 9.4995 13.586 9.52638 13.4669C9.91755 13.2893 10.441 13.2909 10.8667 13.2417C10.8281 13.6333 10.7819 14.0239 10.7808 14.4177C11.461 14.4171 12.1763 14.371 12.8494 14.4667C12.2017 14.5356 11.5356 14.5033 10.8845 14.5002C10.957 15.2303 10.9369 15.9642 10.9307 16.6972C10.4884 16.6883 10.0425 16.6686 9.60037 16.6765C9.51134 16.2863 9.56436 15.8306 9.51629 15.4249C9.43191 14.9575 9.46885 14.4343 9.46621 13.9575C8.59804 13.9711 7.58514 14.0722 6.73593 13.9266Z" fill="#6161A7"/>
<path d="M5.56217 4.47027L6.68503 4.47917C6.66002 4.7308 6.56422 5.21753 6.7145 5.42676L6.71731 6.03454C6.72293 6.48362 6.70785 6.94247 6.73581 7.39009C5.91909 7.38895 5.09067 7.41583 4.27698 7.34394C4.15779 7.35011 4.22605 7.35731 4.07779 7.29346L4.20054 7.23307C4.2673 6.83621 4.26107 6.42452 4.27536 6.02322L5.56372 6.02581L5.56217 4.47027Z" fill="#242565"/>
<path d="M4.38869 22.2984L6.99382 22.2792C6.99233 22.6532 7.02624 23.0605 6.96469 23.4292C6.86341 23.9772 6.91505 24.5787 6.91748 25.1351C6.65112 25.1465 6.36017 25.1373 6.10037 25.1943C5.93732 25.2096 5.86802 25.213 5.72499 25.1344C5.57994 24.7485 5.65272 24.2909 5.66302 23.8835L4.34379 23.8717C4.42183 23.3691 4.38151 22.8086 4.38869 22.2984Z" fill="#16192D"/>
<path d="M6.79884 15.3683L9.57697 15.3696C9.62344 15.7939 9.57219 16.2705 9.65824 16.6787L9.65975 16.733L9.51533 16.8087C9.4296 17.3169 9.56701 17.893 9.41689 18.3713L9.39209 18.4879C8.58144 18.6139 7.66639 18.5329 6.84617 18.5255L6.79596 18.3215C6.69313 17.7896 6.74787 17.1884 6.77458 16.6483C6.80729 16.2295 6.79268 15.7898 6.79884 15.3683Z" fill="white"/>
<path d="M6.79884 15.3683L9.57697 15.3696C9.62344 15.7827 9.57219 16.2467 9.65824 16.6441L9.65975 16.697L9.51533 16.7707C9.4296 17.2656 9.56701 17.8265 9.41689 18.2921C9.39252 17.7545 9.41315 17.2069 9.41451 16.6681C8.55575 16.6326 7.69342 16.6531 6.83418 16.6575C6.83961 17.1879 6.85387 17.7156 6.79596 18.2437C6.69313 17.7257 6.74787 17.1404 6.77458 16.6146C6.80729 16.2068 6.79268 15.7787 6.79884 15.3683Z" fill="#242565"/>
<path d="M6.74516 25.219C6.74276 24.6068 6.69179 23.945 6.79176 23.3421L6.83443 23.4002C7.63455 23.3068 8.47894 23.3676 9.2844 23.3715C9.28855 23.9426 9.27978 24.5174 9.29986 25.0879L9.3636 25.088C9.52167 25.254 9.71524 25.2453 9.92574 25.2685C9.80629 25.2878 9.64913 25.2677 9.57693 25.38C9.40609 25.6456 9.51512 26.1637 9.51512 26.4728C8.80162 26.4852 8.03804 26.4391 7.3321 26.5318L6.63882 26.521C6.64082 26.1811 6.74741 25.7436 6.62114 25.4274C6.38691 25.2579 6.21925 25.295 5.93871 25.2841C6.19509 25.2215 6.48226 25.2316 6.74516 25.219Z" fill="white"/>
<path d="M6.74516 25.219C6.74276 24.6068 6.69179 23.945 6.79176 23.3421L6.83443 23.4002L6.8292 25.1316C7.58776 25.1358 8.56792 25.266 9.29986 25.0879L9.3636 25.088C9.52167 25.254 9.71524 25.2453 9.92574 25.2685C9.80629 25.2878 9.64913 25.2677 9.57693 25.38C9.40609 25.6456 9.51512 26.1637 9.51512 26.4728C8.80162 26.4852 8.03804 26.4391 7.3321 26.5318L6.63882 26.521C6.64082 26.1811 6.74741 25.7436 6.62114 25.4274C6.38691 25.2579 6.21925 25.295 5.93871 25.2841C6.19509 25.2215 6.48226 25.2316 6.74516 25.219Z" fill="#18173F"/>
<path d="M9.41544 3.14282L10.7027 3.14727C10.7014 3.62258 10.6553 4.1532 10.723 4.6211C10.2878 4.69022 9.85139 4.8085 9.46528 4.54694L9.47462 6.06518C8.58991 6.04183 7.70432 6.04896 6.8193 6.04853L6.81656 5.42029C6.66988 5.20403 6.76339 4.70093 6.7878 4.44083C6.89455 4.03402 6.8463 3.56124 6.84455 3.14136L9.41544 3.14282Z" fill="#242565"/>
<path d="M6.73822 4.25628C7.41411 4.26081 8.81677 4.08944 9.38461 4.34724L9.39395 6.06524C8.50926 6.03882 7.62368 6.04688 6.73867 6.0464L6.73593 5.33551L6.73822 4.25628Z" fill="#F0E550"/>
<path d="M9.26758 18.2921C9.277 18.728 9.28857 19.1592 9.2537 19.5942C9.17165 19.9904 9.19261 20.3939 9.19481 20.7971C8.90521 20.8032 8.59681 20.7863 8.3114 20.8351C8.30519 21.1807 8.26279 21.5562 8.36914 21.8874L8.49869 21.9579C8.85297 21.9939 9.1478 21.9654 9.39395 22.2728C9.23766 22.563 9.144 22.6813 9.23491 23.0306C9.2611 23.1315 9.25112 23.1059 9.3103 23.1729L9.33028 24.9372L9.26818 24.937C9.24865 24.3886 9.25719 23.8362 9.25311 23.2872C8.46842 23.2835 7.64579 23.225 6.86629 23.3147L6.82472 23.259C6.8839 22.8689 6.85129 22.4383 6.85272 22.0427L4.34773 22.063L4.34372 21.9947L6.07769 21.9863L6.07741 19.5656C6.30086 19.5845 6.50988 19.6336 6.70972 19.5053C6.88323 19.2147 6.79868 18.6738 6.80084 18.3269C7.59557 18.3337 8.48216 18.4083 9.26758 18.2921Z" fill="#B293CF"/>
<path d="M10.9747 10.0738L12.3178 10.0768L12.3045 11.6039L10.9453 11.6085L10.9366 13.3485C10.5172 13.397 10.0017 13.3955 9.61646 13.5705C9.58998 13.688 9.56925 13.8029 9.5533 13.922C8.91157 14.1861 7.63421 13.9043 6.86812 14.0238C6.86581 13.6341 7.00297 13.2693 6.99567 12.8899C6.99219 12.7082 6.9184 12.6981 6.79496 12.5771C6.67987 11.988 6.76646 11.2676 6.77831 10.6658C6.87454 10.5418 6.86343 10.3378 6.88261 10.1816C7.07647 10.0646 7.89599 10.1542 8.17714 10.1461C8.45036 9.9978 9.15069 10.1032 9.48938 10.1099C9.9393 10.0091 10.5104 10.0705 10.9747 10.0738Z" fill="#18173F"/>
<path d="M8.11894 10.1342C8.38112 9.97999 9.05318 10.0895 9.37819 10.0965L9.38723 11.3127L9.39395 12.6929C8.54164 12.6898 7.63809 12.7504 6.79257 12.662C6.68214 12.0494 6.76523 11.3003 6.77659 10.6746C6.86894 10.5456 6.85828 10.3336 6.87668 10.1711C7.06272 10.0494 7.84914 10.1426 8.11894 10.1342Z" fill="#F9C430"/>
<path d="M8.06495 10.1345C8.33969 9.97972 9.04391 10.0897 9.38448 10.0967L9.39396 11.3173L8.08011 11.3813L8.06495 10.1345Z" fill="#E49123"/>
<path d="M9.41986 4.47027C9.82654 4.7306 10.2862 4.61287 10.7447 4.54408C11.2255 4.53061 11.7054 4.51657 12.1864 4.52206L12.1901 5.97976L13.6346 5.99337L13.6466 10.0119C13.2091 10.0104 12.7633 10.0243 12.3269 9.99975L12.2848 10.0202L10.9301 10.0172C10.4619 10.0141 9.88583 9.95463 9.43199 10.0521C9.34968 9.12327 9.40928 8.21852 9.52639 7.29424C9.32205 7.03641 9.42492 6.30742 9.42966 5.98139L9.41986 4.47027Z" fill="#18173F"/>
<path d="M11.0059 7.39409L12.2999 7.39668C12.3007 8.26694 12.3463 9.1654 12.2886 10.0324L12.2495 10.0521L10.9888 10.0493C11.0175 9.16223 11.0248 8.28139 11.0059 7.39409Z" fill="#F9C430"/>
<path d="M9.52885 7.41883C10.0131 7.39977 10.4923 7.38847 10.9772 7.39695C10.9978 8.27312 10.9899 9.14293 10.9584 10.0188C10.4815 10.0158 9.8942 9.95903 9.43199 10.0521C9.3482 9.16525 9.40954 8.30136 9.52885 7.41883Z" fill="#E49123"/>
<path d="M6.7388 6.06589C7.67982 6.06632 8.62143 6.05913 9.56212 6.08266C9.5573 6.41279 9.4535 7.15099 9.65976 7.41204C9.5415 8.34795 9.48139 9.26404 9.56447 10.2046C9.21964 10.198 8.50662 10.0948 8.22844 10.2401C7.9422 10.2481 7.10782 10.1603 6.91045 10.2749C6.89092 10.428 6.90224 10.6278 6.80426 10.7493C6.7922 11.3388 6.70404 12.0447 6.82121 12.6218C6.94689 12.7404 7.02202 12.7503 7.02557 12.9283C7.033 13.3 6.89335 13.6574 6.8957 14.0392C6.84791 13.753 6.85493 13.4547 6.84522 13.165L5.46368 13.158L5.46095 11.7724L4.21581 11.785C4.21166 11.2825 4.24725 10.7648 4.12742 10.2735C3.71001 10.3729 3.19152 10.3371 2.75809 10.347L2.74891 7.26299C3.20866 7.25433 3.67603 7.21819 4.12742 7.31437L4.00006 7.37729C4.1539 7.4438 4.0831 7.4363 4.20673 7.42987C5.051 7.50476 5.91055 7.47676 6.75796 7.47795C6.72898 7.01165 6.74463 6.53366 6.7388 6.06589Z" fill="#242565"/>
<path d="M4.20982 7.39409C5.03868 7.46643 5.88253 7.43938 6.71447 7.44053C6.73719 7.86259 6.73936 8.27942 6.7321 8.70191L5.53711 8.72634C5.54477 9.16099 5.5745 9.6114 5.54198 10.0444L4.13317 10.0521C4.12111 9.43793 3.97635 7.8963 4.20982 7.39409Z" fill="#F6D556"/>
<path d="M6.82002 6.06586C7.73487 6.06628 8.6503 6.05935 9.56483 6.08205C9.56015 6.40051 9.45923 7.11264 9.65976 7.36447C9.54479 8.26732 9.48635 9.15106 9.56712 10.0584C9.23188 10.052 8.53868 9.95249 8.26824 10.0927C7.98995 10.1003 7.17878 10.0156 6.98689 10.1262C6.9679 10.2739 6.9789 10.4667 6.88365 10.5838C6.88949 10.3951 6.90844 10.2718 6.80869 10.1021C6.66004 10.0167 6.57255 10.0031 6.40038 10.0087L5.67755 10.0287C5.70975 9.59618 5.68031 9.14636 5.67273 8.71227L6.8561 8.68786C6.86328 8.26593 6.86118 7.8496 6.83864 7.42811C6.81047 6.97822 6.82568 6.51712 6.82002 6.06586Z" fill="#EFAA28"/>
<path d="M18.0096 3.14237C18.8989 3.13715 19.7894 3.15343 20.6787 3.16135L20.8282 3.16866C21.3931 3.23323 21.9629 3.22859 22.5309 3.23471L22.5287 4.33916L22.6028 4.39805C22.9779 4.53436 23.3225 4.68144 23.7282 4.67874C24.1568 4.65872 24.5801 4.65378 25.0092 4.66336C25.0933 5.15648 25.0639 5.66439 25.0595 6.16276L26.4141 6.14648C26.4269 6.36189 26.4414 6.57711 26.4491 6.7928C26.414 7.8481 26.5076 8.9053 26.4476 9.95718C26.3785 13.7407 26.5618 17.5354 26.4215 21.316C26.4357 22.5285 26.4553 23.7415 26.4441 24.9542C26.8707 24.958 27.3111 24.9379 27.7343 24.9925C27.4134 25.01 26.6386 24.9391 26.3922 25.1023L26.3668 25.1687C26.372 25.7288 26.3856 26.2903 26.3781 26.8502C26.0354 26.8476 25.6955 26.849 25.354 26.8191C25.1339 26.7996 24.94 26.8086 24.7567 26.9499C24.6675 27.0188 24.6568 27.0989 24.6431 27.2086C24.6278 27.3315 24.6416 27.4708 24.6452 27.5951L9.31735 27.5189C9.31601 27.1494 9.37055 26.7818 9.41275 26.4152C8.69762 26.4215 7.98161 26.4381 7.26754 26.3898C7.98372 26.3007 8.75836 26.3451 9.48221 26.3332C9.48221 26.0361 9.3716 25.5384 9.54492 25.2832C9.61816 25.1753 9.77761 25.1946 9.89878 25.1761C9.68523 25.1538 9.48886 25.1622 9.3285 25.0027L9.30769 23.2394C9.24604 23.1724 9.25646 23.198 9.22919 23.0971C9.13452 22.7479 9.23206 22.6296 9.39481 22.3397C9.13844 22.0324 8.83146 22.0609 8.46253 22.0249L8.32763 21.9545C8.21688 21.6234 8.26104 21.2481 8.2675 20.9026C8.56471 20.8539 8.88586 20.8708 9.18743 20.8647C9.18518 20.4617 9.16332 20.0584 9.24876 19.6624C9.28507 19.2276 9.27302 18.7967 9.26321 18.361L9.28823 18.2535C9.43969 17.8127 9.30105 17.2818 9.38754 16.8133L9.53326 16.7435L9.53174 16.6935C9.96291 16.6858 10.3977 16.7048 10.8291 16.7134C10.8351 16.0068 10.8547 15.2993 10.784 14.5954C11.419 14.5984 12.0685 14.6295 12.7001 14.5632L12.7165 13.1671L14.4052 13.1663C14.4189 12.5979 14.4054 12.0332 14.3865 11.4648C15.0653 11.4861 15.7387 11.4768 16.4173 11.4599L16.4288 11.1651C16.4305 10.6574 16.4267 10.1511 16.4107 9.64363L16.4211 9.60715C16.4155 8.48865 16.3995 7.36907 16.4343 6.25104L16.4917 6.22247C16.4954 5.69406 16.4899 5.16462 16.5327 4.63758L17.9901 4.63042L18.0136 4.30157C17.9937 3.91902 18.0097 3.52592 18.0096 3.14237Z" fill="#3F448D"/>
<path d="M25.6604 20.4183L26.381 20.5353C26.3765 21.0814 26.3472 21.6455 26.4053 22.1879C26.3781 22.3006 26.3929 22.3957 26.2858 22.4483C26.0945 22.5424 25.8189 22.5312 25.6079 22.5447C25.6067 21.8352 25.6702 21.1283 25.6604 20.4183Z" fill="#18173F"/>
<path d="M16.5819 11.1437C17.096 11.1374 17.6554 11.0838 18.1642 11.1434C18.1625 11.6267 18.1767 12.1175 18.1402 12.5988L18.0604 12.6897L16.5748 12.7104L16.5707 11.4505L16.5819 11.1437Z" fill="#16192D"/>
<path d="M18.1037 9.52065L18.1655 11.1152C17.6583 11.0574 17.1008 11.1093 16.5883 11.1155C16.5899 10.6035 16.5862 10.0931 16.5707 9.5815L16.5808 9.54471C17.0693 9.64329 17.6122 9.58088 18.1037 9.52065Z" fill="#B3251D"/>
<path d="M16.5957 17.229C17.0856 17.2277 17.5756 17.2351 18.0654 17.2412L18.1499 17.2467L18.1655 17.6464L18.1549 18.8237L16.6195 18.8187C16.5376 18.2966 16.5801 17.7557 16.5957 17.229Z" fill="url(#paint1_linear_0_1183)"/>
<path d="M22.7606 23.6207C23.1277 23.6079 23.4787 23.5891 23.843 23.6561C23.9974 23.7469 24.091 23.7573 24.264 23.7569L24.2789 25.4535C23.7757 25.4862 23.2668 25.458 22.763 25.4458C22.767 25.2872 22.7544 25.1963 22.7225 25.0454C22.6711 24.6592 22.6794 24.3132 22.7004 23.9259C22.7586 23.8286 22.7509 23.7354 22.7606 23.6207Z" fill="url(#paint2_linear_0_1183)"/>
<path d="M16.6139 23.633C17.0654 23.6254 17.5216 23.6333 17.9723 23.6081C18.0404 23.6259 18.1127 23.6274 18.1655 23.6805C17.963 24.0178 18.0492 24.9199 18.0444 25.3552L17.9615 25.4374L16.5926 25.4688C16.5987 24.8897 16.6291 24.2911 16.5707 23.7158L16.6139 23.633Z" fill="#0B0B0E"/>
<path d="M22.7815 17.2288L24.4256 17.2432C24.4126 17.7053 24.3373 18.2102 24.4845 18.6545C24.6185 18.7305 24.6618 18.7395 24.8105 18.7577C24.63 18.7748 24.4463 18.8002 24.2654 18.8077C23.7728 18.8462 23.2447 18.8037 22.7485 18.7975L22.698 18.771L22.6841 18.7351C22.6982 18.2428 22.703 17.7501 22.7106 17.2576L22.7815 17.2288Z" fill="url(#paint3_linear_0_1183)"/>
<path d="M12.5937 19.6644C12.9452 19.633 13.2851 19.6164 13.6385 19.6222C13.6348 20.5072 13.6149 21.3946 13.6468 22.2791L12.1358 22.2368L12.065 22.0859C12.0525 21.3792 12.0373 20.6755 12.0815 19.9692C12.1088 19.8741 12.1374 19.8142 12.1871 19.7284L12.5937 19.6644Z" fill="#0B0B0E"/>
<path d="M9.67516 16.6972L10.9207 16.7118L10.9423 18.2195L12.1503 18.2285C12.1376 18.6246 12.0588 19.12 12.2272 19.4796C12.3507 19.5388 12.4481 19.5535 12.5834 19.5667L12.2087 19.634C12.163 19.724 12.1366 19.7869 12.1114 19.8868C12.0899 19.7925 12.0608 19.7599 12.0038 19.6847C11.5446 19.5997 11.0668 19.6447 10.6021 19.6589L9.3938 19.6626C9.42971 19.2208 9.41779 18.783 9.40809 18.3404L9.43284 18.2312C9.58262 17.7834 9.44551 17.244 9.53105 16.7681L9.67516 16.6972Z" fill="#16192D"/>
<path d="M22.9056 24.937C22.9399 25.0844 22.9534 25.173 22.9491 25.3279C22.8766 25.8024 22.9135 26.3165 22.9159 26.7977L17.8996 26.79C17.9142 26.3124 17.9107 25.8341 17.9117 25.3562L18.0042 25.2733C18.7108 25.2871 22.4195 25.4333 22.8191 25.2513L22.9056 24.937Z" fill="#16192D"/>
<path d="M18.1653 15.8999L22.6839 15.903L22.6758 17.2023L22.6113 17.2289C21.3946 17.0866 19.511 17.1874 18.247 17.2168L18.1687 17.2117L18.1653 15.8999Z" fill="#16192D"/>
<path d="M10.521 22.0132L11.9821 22.019L12.046 22.1778L12.0518 23.7484L10.873 23.7481L10.853 25.2028C10.5586 25.1971 10.2595 25.2027 9.966 25.1794C9.75927 25.1567 9.56917 25.1653 9.41394 25.003L9.3938 23.2082L9.39556 22.0149L10.521 22.0132Z" fill="#16192D"/>
<path d="M18.1653 17.2955C19.4739 17.2639 21.4241 17.1558 22.6839 17.3086C22.6768 17.7978 22.6722 18.2871 22.659 18.7762C21.2093 18.6731 19.6869 18.7921 18.2311 18.8237C18.2378 18.4386 18.2279 18.0767 18.1803 17.6935L18.1653 17.2955Z" fill="#99DD57"/>
<path d="M15.2415 19.0993L16.5113 19.0894C16.5085 19.6724 16.4892 20.2625 16.5444 20.8427L16.5636 22.2051L16.5705 23.7322L16.5297 23.8089C16.1222 23.8951 15.6638 23.8652 15.2477 23.8738L15.2415 19.0993Z" fill="#16192D"/>
<path d="M18.3042 23.6183C19.1806 23.7053 22.0388 23.4793 22.6094 23.7335L22.662 23.8934C22.6413 24.2911 22.633 24.6463 22.6839 25.0429L22.6044 25.3734C22.2373 25.5649 18.8292 25.4111 18.1798 25.3966C18.1848 24.9343 18.0963 23.9765 18.3042 23.6183Z" fill="#65CB55"/>
<path d="M18.1908 12.5905L18.2686 12.4997C18.5739 12.6772 22.0501 12.6637 22.5331 12.5375L22.6236 12.4445L22.6342 12.4857C22.7006 13.0867 22.6814 13.7004 22.6812 14.3051L18.1653 14.2996L18.1908 12.5905Z" fill="#16192D"/>
<path d="M9.32036 19.6498L10.5349 19.6461C11.0021 19.6316 11.4824 19.5859 11.9439 19.6723C12.0012 19.7487 12.0305 19.7819 12.0521 19.8777C12.0112 20.6313 12.0253 21.3821 12.0368 22.1362L10.5364 22.1304L9.38076 22.1321L9.37895 23.3423C9.31766 23.2731 9.32802 23.2995 9.30091 23.1954C9.2068 22.8349 9.30376 22.7128 9.46555 22.4135C9.2107 22.0963 8.90554 22.1257 8.53879 22.0885L8.40469 22.0159C8.29459 21.6741 8.33849 21.2866 8.34491 20.93C8.64037 20.8797 8.95961 20.8972 9.2594 20.8908C9.25712 20.4748 9.23539 20.0586 9.32036 19.6498Z" fill="#A87ECA"/>
<path d="M8.34629 20.9499C8.63588 20.9628 8.92213 20.9787 9.21025 21.0068C9.35094 21.1897 9.43713 21.3975 9.37199 21.6174C9.32906 21.7625 9.27146 21.8399 9.16732 21.9558C8.97069 22.0251 8.768 22.0118 8.55921 22.0127L8.41194 21.946C8.29103 21.6325 8.33923 21.2771 8.34629 20.9499Z" fill="#8B5EAE"/>
<path d="M10.7231 19.6449C11.1323 19.6311 11.553 19.5876 11.9573 19.6698C12.0074 19.7425 12.0332 19.774 12.0521 19.8651C12.0163 20.5819 12.0286 21.296 12.0387 22.0133L10.7244 22.0077C10.7382 21.22 10.7298 20.4327 10.7231 19.6449Z" fill="white"/>
<path d="M18.1653 9.53256C18.6812 9.52763 19.2074 9.5024 19.7216 9.54494L19.7329 9.59933C20.591 9.60441 21.4495 9.61621 22.3075 9.60815L22.3768 9.61668C22.3684 10.028 22.2834 10.6223 22.4555 10.9924L22.6673 11.0958C22.6723 11.5722 22.6623 12.054 22.6839 12.5295L22.5909 12.6189C22.0941 12.7401 18.5192 12.753 18.2051 12.5826C18.2418 12.1202 18.2275 11.6488 18.2293 11.1846L18.167 9.60383L18.1653 9.53256Z" fill="#DF5732"/>
<path d="M19.842 9.52065C20.7006 9.52586 21.5597 9.53798 22.4182 9.5297L22.4157 11.057C21.8263 11.0414 20.4142 11.2473 19.9685 10.9677C19.6393 10.5271 19.7847 10.0379 19.842 9.52065Z" fill="#64227C"/>
<path d="M23.8931 4.49052C24.3277 4.47034 24.7569 4.46537 25.1919 4.47502C25.2772 4.97187 25.2474 5.48362 25.243 5.98577L26.6164 5.96937C26.6294 6.1864 26.6441 6.40326 26.6519 6.62058C26.6163 7.68387 26.7111 8.74908 26.6503 9.80893L25.4923 9.81433L25.4998 11.1321L24.1828 11.0882L24.1948 12.4248C23.7309 12.431 23.2381 12.4674 22.778 12.4214L22.7667 12.3814C22.7443 11.9021 22.7547 11.4163 22.7495 10.9361L22.5296 10.8319C22.3508 10.4588 22.4391 9.85969 22.4479 9.44507L23.804 9.4368L23.9637 9.50172L25.2485 9.5052C25.2223 8.37369 25.2589 7.23735 25.1927 6.10737C24.8174 6.09895 24.3815 6.20886 24.0288 6.0697C23.8527 5.85314 23.8889 5.74032 23.8783 5.46849L23.8931 4.49052Z" fill="#0B0B0E"/>
<path d="M23.779 9.52065L23.9358 9.58913C23.958 10.098 23.9759 10.6075 24.0132 11.1155L22.7435 11.1023L22.5276 10.9923C22.352 10.5988 22.4388 9.96679 22.4473 9.52941L23.779 9.52065Z" fill="#ED832B"/>
<path d="M24.6675 18.8541C24.942 18.8322 25.1424 18.7802 25.3991 18.899C25.667 19.3089 25.4713 20.0034 25.6068 20.5063C25.6167 21.1808 25.5522 21.8524 25.5534 22.5265L25.5585 23.874C25.1509 23.8613 24.6845 23.8058 24.2841 23.8653C24.1111 23.8656 24.0175 23.8564 23.8631 23.7754C23.4988 23.7157 23.1477 23.7324 22.7806 23.7438C22.5983 22.7024 22.7304 20.1144 22.7284 18.8938C23.195 18.8999 23.6917 18.9424 24.1549 18.904C24.3251 18.8965 24.4978 18.8712 24.6675 18.8541Z" fill="url(#paint4_linear_0_1183)"/>
<path d="M22.7311 18.8238C23.2266 18.8297 23.7541 18.8714 24.246 18.8337C24.2465 19.525 24.3703 23.2543 24.1336 23.5607L23.9361 23.6082C23.5493 23.5497 23.1765 23.566 22.7866 23.5773C22.593 22.5566 22.7333 20.02 22.7311 18.8238Z" fill="#65CB55"/>
<path d="M22.6166 4.21128L22.6885 4.27008C23.0523 4.40622 23.3864 4.55311 23.7798 4.55041L23.7656 5.51967C23.7759 5.78909 23.7412 5.90091 23.9096 6.11555C24.2469 6.25349 24.6639 6.14451 25.0229 6.15289C25.0862 7.27292 25.0513 8.39917 25.0763 9.52067L23.8474 9.51722L23.6947 9.45287L22.3975 9.46107L22.3286 9.45255C21.4764 9.4606 20.6237 9.44881 19.7715 9.44374L19.7602 9.3894C19.9397 8.76319 19.8326 7.88068 19.8256 7.22282L19.7892 7.20699C19.8763 6.67753 19.8178 6.05833 19.8158 5.51794C20.6321 5.38673 21.6252 5.49003 22.4597 5.48808C22.4614 5.0549 22.4655 4.63486 22.5213 4.20463L22.6166 4.21128Z" fill="url(#paint5_linear_0_1183)"/>
<path d="M22.5763 4.21128L22.6487 4.27071C23.0149 4.4083 23.3513 4.55676 23.7474 4.55403L23.7331 5.53364L23.3333 5.46995C23.0445 5.52985 22.7136 5.50027 22.4184 5.5018C22.42 5.06399 22.4241 4.63946 22.4803 4.20463L22.5763 4.21128Z" fill="#B3251D"/>
<path d="M22.6841 4.20463C23.0384 4.34942 23.364 4.50565 23.7473 4.50278L23.7331 5.53364L23.3466 5.46662C23.3094 5.12369 23.2674 4.90396 23.0393 4.65012C22.911 4.50736 22.7977 4.36212 22.6841 4.20463Z" fill="#892511"/>
<path d="M19.7869 5.53354C20.5562 5.6332 21.3699 5.58553 22.1444 5.56985L22.1524 7.27436C21.4932 7.53729 20.5155 7.27212 19.7967 7.36026L19.7602 7.3433C19.8476 6.77597 19.7889 6.11252 19.7869 5.53354Z" fill="#64227C"/>
<path d="M22.2069 7.12846C22.6447 7.3096 23.2538 7.09996 23.7293 7.21226C23.7348 7.97717 23.7234 8.7479 23.7473 9.51221L22.4328 9.52068L22.363 9.51188C21.4993 9.52019 20.6353 9.50802 19.7716 9.50279L19.7602 9.44671C19.9421 8.80056 19.8335 7.88995 19.8264 7.21114C20.5528 7.12627 21.5407 7.38167 22.2069 7.12846Z" fill="#DF5732"/>
<path d="M22.4184 7.44359C22.8586 7.4453 23.293 7.45224 23.7304 7.39409C23.7356 8.09869 23.7246 8.80816 23.7473 9.51221L22.4989 9.52051L22.4326 9.5124C22.4438 8.82384 22.4244 8.13244 22.4184 7.44359Z" fill="#29182C"/>
<path d="M18.1663 3.14235C19.055 3.13723 19.9448 3.15317 20.8334 3.16093L20.9828 3.16808C21.5472 3.23129 22.1166 3.22674 22.6842 3.23274L22.6819 4.31386L22.5837 4.30741C22.5262 4.72908 22.522 5.14084 22.5204 5.56544C21.6605 5.56734 20.6372 5.46609 19.7962 5.5947C19.7983 6.12435 19.8585 6.73128 19.7688 7.25028L19.8063 7.2658C19.8135 7.91063 19.9239 8.77565 19.739 9.38945C19.2128 9.34774 18.6743 9.37249 18.1463 9.37732L18.1481 9.44712C17.6418 9.50564 17.0826 9.5662 16.5793 9.47053C16.5737 8.37565 16.5577 7.27972 16.5925 6.1853L16.6499 6.15735C16.6535 5.64011 16.6481 5.12185 16.6908 4.60594L18.147 4.59893L18.1706 4.27702C18.1505 3.90259 18.1665 3.5178 18.1663 3.14235Z" fill="#E49123"/>
<path d="M16.6142 4.47732L18.1592 4.47027L18.1655 6.06508L16.5707 6.03756C16.5746 5.51737 16.5688 4.9962 16.6142 4.47732Z" fill="#242565"/>
<path d="M18.1842 7.13471C18.6867 7.12239 19.1858 7.1292 19.6881 7.14704L19.7233 7.16425C19.73 7.87976 19.8336 8.83959 19.6601 9.52068C19.1662 9.4744 18.6608 9.50186 18.1653 9.50722C18.1971 8.7206 18.179 7.92294 18.1842 7.13471Z" fill="#64227C"/>
<path d="M18.1712 3.14225C19.0588 3.13762 19.9476 3.15207 20.8353 3.1591L20.9845 3.16559C21.5483 3.22291 22.117 3.21878 22.6839 3.22422L22.6817 4.20456L22.5836 4.19872C21.683 4.03511 19.2281 4.167 18.1754 4.17113C18.1554 3.83163 18.1713 3.48271 18.1712 3.14225Z" fill="#242565"/>
<path d="M18.1593 17.4945C18.2089 17.8858 18.2192 18.2554 18.2123 18.6487C19.7311 18.6165 21.3196 18.495 22.8322 18.6003L22.8459 18.6366L22.8955 18.6636C22.8976 19.9051 22.7597 22.5375 22.95 23.5968C22.9398 23.7009 22.9478 23.7854 22.8871 23.8737L22.8315 23.7325C22.2287 23.5078 19.209 23.7075 18.2831 23.6307C18.2258 23.5809 18.1474 23.5795 18.0736 23.5628C17.5849 23.5865 17.0902 23.5791 16.6006 23.5862L16.5928 22.0397L16.5707 20.6599L16.5998 20.5861C16.5849 19.9719 16.5629 19.3596 16.6051 18.746L16.6114 18.6866L18.1486 18.6916L18.1593 17.4945Z" fill="#65CB55"/>
<path d="M16.5707 22.0132C17.0698 22.019 17.5709 22.0173 18.0695 22.0354C18.0763 22.4188 18.0653 22.8059 18.1418 23.1837L18.1655 23.584C17.6392 23.6083 17.1065 23.6007 16.5792 23.608L16.5707 22.0132Z" fill="#99DD57"/>
<path d="M16.5966 18.8238L18.1655 18.8336C18.1519 19.4422 18.1338 20.0512 18.1398 20.6599C17.6533 20.666 17.0613 20.7258 16.5911 20.6325C16.5753 20.0288 16.552 19.4269 16.5966 18.8238Z" fill="#99DD57"/>
<path d="M22.8425 18.8238L22.8937 18.8498C22.8959 20.047 22.7538 22.5855 22.9499 23.6069C22.9394 23.7073 22.9477 23.7888 22.8851 23.874L22.8278 23.7378C22.2063 23.5212 19.093 23.7137 18.1384 23.6396C18.0793 23.5916 17.9985 23.5903 17.9223 23.5742L17.8996 23.1999L17.9066 22.1273L21.0321 22.1467L21.0129 18.8395C21.6233 18.8432 22.2323 18.8362 22.8425 18.8238Z" fill="#18173F"/>
<defs>
<linearGradient id="paint0_linear_0_1183" x1="10.5139" y1="-19.0796" x2="41.8196" y2="-3.44538" gradientUnits="userSpaceOnUse">
<stop stop-color="#3F3086"/>
<stop offset="1" stop-color="#474D9D"/>
</linearGradient>
<linearGradient id="paint1_linear_0_1183" x1="2.09201" y1="3.36083" x2="24.5548" y2="23.7044" gradientUnits="userSpaceOnUse">
<stop stop-color="#17191A"/>
<stop offset="1" stop-color="#0E0526"/>
</linearGradient>
<linearGradient id="paint2_linear_0_1183" x1="25.9794" y1="23.5784" x2="0.533179" y2="5.64166" gradientUnits="userSpaceOnUse">
<stop stop-color="#191A1D"/>
<stop offset="1" stop-color="#0E0122"/>
</linearGradient>
<linearGradient id="paint3_linear_0_1183" x1="22.24" y1="8.79206" x2="-0.999903" y2="18.0333" gradientUnits="userSpaceOnUse">
<stop stop-color="#1B191A"/>
<stop offset="1" stop-color="#13081F"/>
</linearGradient>
<linearGradient id="paint4_linear_0_1183" x1="14.4757" y1="14.7626" x2="26.4249" y2="14.0046" gradientUnits="userSpaceOnUse">
<stop stop-color="#110815"/>
<stop offset="1" stop-color="#181815"/>
</linearGradient>
<linearGradient id="paint5_linear_0_1183" x1="28.6526" y1="23.6102" x2="9.99118" y2="15.869" gradientUnits="userSpaceOnUse">
<stop stop-color="#F86C2E"/>
<stop offset="1" stop-color="#E65742"/>
</linearGradient>
</defs>
</svg>
