<svg width="28" height="29" viewBox="0 0 28 29" fill="none" xmlns="http://www.w3.org/2000/svg">
<path d="M27.9643 3.93887C27.9684 5.70215 28.0413 7.49479 27.9659 9.25491C27.8656 8.98229 27.9069 8.62146 27.9048 8.33285L26.5443 8.3169C26.5514 7.76545 26.581 7.20542 26.4923 6.65923C26.4842 6.44211 26.469 6.22546 26.4556 6.00863C26.3692 5.34825 26.4184 4.65596 26.4257 3.9909C26.9426 3.9938 27.45 3.99786 27.9643 3.93887Z" fill="#4E4F50"/>
<path d="M26.696 6.59706C26.7725 7.14385 26.747 7.70449 26.7409 8.25654L27.9135 8.27252C27.9153 8.56144 27.8797 8.92262 27.9661 9.19558C27.9783 10.6346 28.0323 24.6745 27.9723 24.812C27.9535 24.8553 27.9203 24.8892 27.8896 24.9231C27.8818 24.9318 27.8695 24.9327 27.8592 24.9374C27.4762 24.8824 27.0776 24.9026 26.6915 24.8988C26.7016 23.6768 26.6839 22.4544 26.6711 21.2325C26.7981 17.4226 26.6322 13.5986 26.6947 9.78592C26.749 8.72588 26.6642 7.66051 26.696 6.59706Z" fill="#4E4F50"/>
<path d="M1.69155 4.73651L2.2173 4.77029C2.02604 4.78756 1.85832 4.76514 1.70158 4.88562C1.60051 7.19689 1.66794 9.53466 1.65411 11.8494C1.6483 12.8206 1.46834 14.3818 1.66963 15.2695C1.81504 17.2546 1.69275 19.3325 1.69137 21.3277C1.6905 22.642 1.81078 24.4755 1.67107 25.7347L0.380903 25.7349L0.356689 4.81741L1.62448 4.76543L1.69155 4.73651Z" fill="#4E4F50"/>
<path d="M4.11539 27.5955C5.89486 27.6424 7.67836 27.6441 9.45873 27.6631L24.8103 27.7312L24.809 28.8916L4.07779 28.9245C4.14307 28.4922 4.11376 28.032 4.11539 27.5955Z" fill="#4E4F50"/>
<path d="M4.60943 0.231161C11.1869 0.211972 17.7706 0.198541 24.3472 0.300385L24.3493 1.86314C24.9598 1.87235 25.5703 1.88492 26.1808 1.88612C26.1745 2.56604 26.1456 3.25392 26.1763 3.93307C26.7608 3.93504 27.4266 3.87292 28 3.9701C27.5113 4.02935 27.0292 4.02527 26.538 4.02239C26.531 4.69037 26.4843 5.38569 26.5664 6.04896L25.2148 6.06542C25.2192 5.56155 25.2485 5.04804 25.1646 4.54949C24.7365 4.53981 24.3141 4.5448 23.8865 4.56504C23.4817 4.56777 23.1379 4.41906 22.7636 4.28124L22.6897 4.22171L22.6919 3.10507C22.1251 3.09888 21.5566 3.10358 20.993 3.03829L20.8439 3.0309L20.9264 1.5851C17.1742 1.6998 13.39 1.68924 9.63525 1.64809L4.6383 1.65792C4.64732 1.17871 4.64392 0.709466 4.60943 0.231161Z" fill="#8C8C8C"/>
<path d="M20.8993 1.63711C21.386 1.54762 21.8797 1.55562 22.3713 1.54668C22.3834 2.07422 22.3803 2.60974 22.4183 3.13524C21.9359 3.13056 21.4411 3.10082 20.9606 3.1415L20.8235 3.13385L20.8993 1.63711Z" fill="#4E4F50"/>
<path d="M4.43901 1.77443L4.51447 1.73386C4.67391 1.35061 4.57183 0.724488 4.6099 0.294757L4.61724 0.217773C4.65153 0.693658 4.65488 1.16052 4.64592 1.63732L9.60891 1.62753C13.3381 1.66843 17.0967 1.67898 20.8233 1.56486L20.7413 3.00335C19.86 2.99538 18.9775 2.979 18.0962 2.98425C18.0964 3.37007 18.0805 3.7655 18.1004 4.15031L18.0771 4.4811L16.6329 4.48831C16.5905 5.01847 16.5959 5.55104 16.5923 6.08257L16.5354 6.11131C16.5009 7.23599 16.5167 8.36216 16.5222 9.48727L16.512 9.52397C16.5278 10.0344 16.5315 10.5437 16.5299 11.0545L16.5185 11.351C15.846 11.368 15.1787 11.3773 14.506 11.356C14.5247 11.9276 14.5381 12.4957 14.5246 13.0675L12.8511 13.0683L12.8349 14.4726C12.209 14.5394 11.5653 14.5081 10.936 14.5051C11.0061 15.2131 10.9867 15.9248 10.9807 16.6355C10.5533 16.6269 10.1224 16.6078 9.69509 16.6155L9.6966 16.6659L9.5522 16.7361C9.46648 17.2073 9.60387 17.7414 9.45378 18.1848L9.42899 18.2929C9.4387 18.7312 9.45065 19.1647 9.41467 19.602C9.32999 20.0003 9.35162 20.406 9.35389 20.8114C9.05504 20.8175 8.73679 20.8005 8.44226 20.8496C8.43586 21.1971 8.3921 21.5746 8.50185 21.9076L8.63553 21.9784C9.00113 22.0147 9.30538 21.986 9.55939 22.2951C9.39811 22.5868 9.30146 22.7058 9.39527 23.057C9.42229 23.1585 9.412 23.1327 9.47307 23.2001L9.49369 24.9739C9.65259 25.1343 9.8472 25.1259 10.0588 25.1483C9.93874 25.1669 9.78073 25.1475 9.70815 25.2561C9.5364 25.5128 9.64601 26.0135 9.64601 26.3122C8.9287 26.3242 8.16105 26.2796 7.45133 26.3692C8.15892 26.4177 8.8685 26.4011 9.57717 26.3948C9.53536 26.7636 9.48131 27.1333 9.48264 27.505C7.72106 27.4836 5.95639 27.4816 4.19572 27.4289C4.1941 27.9201 4.22307 28.438 4.15851 28.9244C4.06258 28.4064 4.25851 27.797 4.06024 27.3041L3.84084 27.2366C3.44214 27.2011 2.90197 27.3507 2.57642 27.0928L2.56469 26.8393C2.5327 26.4869 2.63839 26.0629 2.49348 25.7396C2.24537 25.5902 2.06995 25.6254 1.7843 25.621C1.92712 24.3715 1.80413 22.5522 1.80506 21.248C1.80647 19.2682 1.93151 17.2063 1.78283 15.2366C1.577 14.3557 1.76102 12.8065 1.76696 11.8429C1.7811 9.54607 1.71212 7.22635 1.8155 4.93293C1.97577 4.81338 2.14731 4.83563 2.34285 4.81849L1.80524 4.78498L1.7367 4.81367L1.74986 3.24588C2.11712 3.24632 2.73342 3.33461 3.05196 3.16198L3.06801 1.78215L4.43901 1.77443Z" fill="#4E4F50"/>
<path d="M1.69799 3.40857L2.98239 3.40723C2.98919 3.80309 3.08945 4.28397 2.89765 4.65013C2.66133 4.76615 2.54118 4.73421 2.26956 4.72595L1.6856 4.69666L1.69799 3.40857Z" fill="#4E4F50"/>
<path d="M5.43325 18.2939C5.42429 18.6787 5.32881 19.1284 5.504 19.4779C5.6498 19.5338 5.78354 19.5571 5.9384 19.5797C5.39015 19.6468 4.75984 19.6256 4.20964 19.5675L4.07779 19.4338L4.13909 19.3884C4.26041 19.0773 4.19771 18.6254 4.19517 18.2924L5.43325 18.2939Z" fill="#4E4F50"/>
<path d="M3.02942 1.82068L4.26914 1.81269C4.39827 2.25709 4.32224 2.91236 4.31605 3.38729C3.93044 3.39026 3.43202 3.45392 3.06505 3.33877L3.01488 3.2562L3.02942 1.82068Z" fill="#4E4F50"/>
<path d="M2.53526 25.7349L4.04188 25.7515C4.05406 26.1846 4.1471 26.8464 3.97614 27.2442L3.75728 27.3184C3.35924 27.2834 2.81997 27.4308 2.49495 27.1767L2.48324 26.9269C2.51493 26.5277 2.5353 26.1358 2.53526 25.7349Z" fill="#4E4F50"/>
<path d="M1.6856 13.7736L3.54621 13.7796L3.54243 15.3451C2.92663 15.3556 2.31032 15.3724 1.69449 15.3676L1.6856 13.7736Z" fill="#8C8C8C"/>
<path d="M5.44416 16.821L6.64471 16.6975C6.61788 17.1836 6.5629 17.7248 6.6662 18.2037L6.71666 18.3874C6.71441 18.7261 6.80213 19.2542 6.62214 19.5378C6.41485 19.6631 6.19805 19.6152 5.96627 19.5967C5.80564 19.5729 5.66693 19.5483 5.5157 19.4897C5.33398 19.1222 5.43302 18.6495 5.44231 18.2449L5.44416 16.821Z" fill="#4E4F50"/>
<path d="M2.75692 19.3562C3.23459 19.3522 3.70597 19.3693 4.1826 19.3928L4.34013 19.5423C4.27097 20.367 4.2603 21.2528 4.33413 22.0767L4.33892 22.1476C4.33067 22.7076 4.377 23.3227 4.2873 23.8743C4.19056 23.3478 4.24255 22.7707 4.24734 22.2362L2.75871 22.2404C2.7453 21.2787 2.7465 20.3181 2.75692 19.3562Z" fill="#4E4F50"/>
<path d="M4.12757 19.6213C4.70377 19.6825 5.36389 19.7049 5.93811 19.6342L5.9384 22.0053L4.12235 22.0135C4.0576 21.2358 4.06695 20.3997 4.12757 19.6213Z" fill="#8C8C8C"/>
<path d="M15.2495 6.0745C15.6898 6.06823 16.1331 6.04563 16.5705 6.1089C16.5374 7.22743 16.5526 8.34744 16.5579 9.4664L16.548 9.50291C16.115 9.52546 15.6754 9.51545 15.2415 9.52085L15.2495 6.0745Z" fill="#4E4F50"/>
<path d="M6.73593 13.9269C7.51376 13.8056 8.8107 14.0914 9.46226 13.8236C9.47849 13.7028 9.4995 13.5862 9.52638 13.4671C9.91755 13.2896 10.441 13.2911 10.8667 13.242C10.8281 13.6335 10.7819 14.0241 10.7808 14.4179C11.461 14.4173 12.1763 14.3713 12.8494 14.467C12.2017 14.5358 11.5356 14.5035 10.8845 14.5004C10.957 15.2306 10.9369 15.9645 10.9307 16.6974C10.4884 16.6886 10.0425 16.6689 9.60037 16.6768C9.51134 16.2865 9.56436 15.8308 9.51629 15.4252C9.43191 14.9577 9.46885 14.4345 9.46621 13.9578C8.59804 13.9714 7.58514 14.0724 6.73593 13.9269Z" fill="#4E4F50"/>
<path d="M5.56217 4.47051L6.68503 4.47942C6.66002 4.73105 6.56422 5.21778 6.7145 5.427L6.71731 6.03479C6.72293 6.48386 6.70785 6.94271 6.73581 7.39033C5.91909 7.38919 5.09067 7.41608 4.27698 7.34419C4.15779 7.35035 4.22605 7.35756 4.07779 7.29371L4.20054 7.23331C4.2673 6.83645 4.26107 6.42476 4.27536 6.02346L5.56372 6.02606L5.56217 4.47051Z" fill="#4E4F50"/>
<path d="M4.38869 22.2987L6.99382 22.2795C6.99233 22.6535 7.02624 23.0607 6.96469 23.4295C6.86341 23.9774 6.91505 24.5789 6.91748 25.1353C6.65112 25.1468 6.36017 25.1376 6.10037 25.1946C5.93732 25.2098 5.86802 25.2132 5.72499 25.1346C5.57994 24.7487 5.65272 24.2912 5.66302 23.8838L4.34379 23.8719C4.42183 23.3693 4.38151 22.8089 4.38869 22.2987Z" fill="#4E4F50"/>
<path d="M6.79884 15.3685L9.57697 15.3698C9.62344 15.7941 9.57219 16.2707 9.65824 16.6789L9.65975 16.7332L9.51533 16.8089C9.4296 17.3172 9.56701 17.8933 9.41689 18.3715L9.39209 18.4881C8.58144 18.6141 7.66639 18.5332 6.84617 18.5257L6.79596 18.3217C6.69313 17.7898 6.74787 17.1886 6.77458 16.6485C6.80729 16.2297 6.79268 15.79 6.79884 15.3685Z" fill="#8C8C8C"/>
<path d="M6.79884 15.3685L9.57697 15.3698C9.62344 15.7829 9.57219 16.2469 9.65824 16.6444L9.65975 16.6973L9.51533 16.771C9.4296 17.2658 9.56701 17.8267 9.41689 18.2924C9.39252 17.7547 9.41315 17.2071 9.41451 16.6683C8.55575 16.6328 7.69342 16.6534 6.83418 16.6578C6.83961 17.1881 6.85387 17.7159 6.79596 18.2439C6.69313 17.726 6.74787 17.1406 6.77458 16.6148C6.80729 16.207 6.79268 15.7789 6.79884 15.3685Z" fill="#4E4F50"/>
<path d="M6.74516 25.2193C6.74276 24.607 6.69179 23.9452 6.79176 23.3424L6.83443 23.4004C7.63455 23.3071 8.47894 23.3679 9.2844 23.3718C9.28855 23.9429 9.27978 24.5176 9.29986 25.0881L9.3636 25.0882C9.52167 25.2542 9.71524 25.2455 9.92574 25.2687C9.80629 25.288 9.64913 25.2679 9.57693 25.3803C9.40609 25.6458 9.51512 26.1639 9.51512 26.473C8.80162 26.4855 8.03804 26.4393 7.3321 26.532L6.63882 26.5212C6.64082 26.1813 6.74741 25.7438 6.62114 25.4277C6.38691 25.2581 6.21925 25.2953 5.93871 25.2844C6.19509 25.2217 6.48226 25.2319 6.74516 25.2193Z" fill="#8C8C8C"/>
<path d="M6.74516 25.2193C6.74276 24.607 6.69179 23.9452 6.79176 23.3424L6.83443 23.4004L6.8292 25.1318C7.58776 25.136 8.56792 25.2663 9.29986 25.0881L9.3636 25.0882C9.52167 25.2542 9.71524 25.2455 9.92574 25.2687C9.80629 25.288 9.64913 25.2679 9.57693 25.3803C9.40609 25.6458 9.51512 26.1639 9.51512 26.473C8.80162 26.4855 8.03804 26.4393 7.3321 26.532L6.63882 26.5212C6.64082 26.1813 6.74741 25.7438 6.62114 25.4277C6.38691 25.2581 6.21925 25.2953 5.93871 25.2844C6.19509 25.2217 6.48226 25.2319 6.74516 25.2193Z" fill="#4E4F50"/>
<path d="M9.41544 3.14307L10.7027 3.14751C10.7014 3.62283 10.6553 4.15344 10.723 4.62135C10.2878 4.69046 9.85139 4.80874 9.46528 4.54718L9.47462 6.06542C8.58991 6.04207 7.70432 6.0492 6.8193 6.04877L6.81656 5.42053C6.66988 5.20427 6.76339 4.70117 6.7878 4.44108C6.89455 4.03426 6.8463 3.56148 6.84455 3.1416L9.41544 3.14307Z" fill="#4E4F50"/>
<path d="M6.73822 4.25652C7.41411 4.26106 8.81677 4.08968 9.38461 4.34749L9.39395 6.06549C8.50926 6.03907 7.62368 6.04713 6.73867 6.04664L6.73593 5.33575L6.73822 4.25652Z" fill="#6D6D6D"/>
<path d="M9.26758 18.2924C9.277 18.7283 9.28857 19.1595 9.2537 19.5945C9.17165 19.9907 9.19261 20.3941 9.19481 20.7973C8.90521 20.8034 8.59681 20.7865 8.3114 20.8353C8.30519 21.1809 8.26279 21.5564 8.36914 21.8877L8.49869 21.9581C8.85297 21.9941 9.1478 21.9656 9.39395 22.2731C9.23766 22.5632 9.144 22.6815 9.23491 23.0308C9.2611 23.1318 9.25112 23.1062 9.3103 23.1732L9.33028 24.9374L9.26818 24.9373C9.24865 24.3889 9.25719 23.8364 9.25311 23.2874C8.46842 23.2837 7.64579 23.2252 6.86629 23.315L6.82472 23.2592C6.8839 22.8692 6.85129 22.4385 6.85272 22.0429L4.34773 22.0633L4.34372 21.9949L6.07769 21.9866L6.07741 19.5658C6.30086 19.5848 6.50988 19.6338 6.70972 19.5055C6.88323 19.215 6.79868 18.6741 6.80084 18.3271C7.59557 18.3339 8.48216 18.4086 9.26758 18.2924Z" fill="#4E4F50"/>
<path d="M10.9747 10.074L12.3178 10.0771L12.3045 11.6041L10.9453 11.6087L10.9366 13.3488C10.5172 13.3973 10.0017 13.3957 9.61646 13.5708C9.58998 13.6882 9.56925 13.8032 9.5533 13.9223C8.91157 14.1863 7.63421 13.9045 6.86812 14.0241C6.86581 13.6344 7.00297 13.2696 6.99567 12.8901C6.99219 12.7085 6.9184 12.6984 6.79496 12.5773C6.67987 11.9882 6.76646 11.2678 6.77831 10.666C6.87454 10.542 6.86343 10.3381 6.88261 10.1818C7.07647 10.0649 7.89599 10.1545 8.17714 10.1464C8.45036 9.99804 9.15069 10.1034 9.48938 10.1101C9.9393 10.0093 10.5104 10.0708 10.9747 10.074Z" fill="#4E4F50"/>
<path d="M8.11894 10.1344C8.38112 9.98023 9.05318 10.0898 9.37819 10.0968L9.38723 11.3129L9.39395 12.6931C8.54164 12.6901 7.63809 12.7506 6.79257 12.6623C6.68214 12.0497 6.76523 11.3006 6.77659 10.6748C6.86894 10.5459 6.85828 10.3338 6.87668 10.1713C7.06272 10.0497 7.84914 10.1429 8.11894 10.1344Z" fill="#6D6D6D"/>
<path d="M8.06495 10.1347C8.33969 9.97997 9.04391 10.0899 9.38448 10.0969L9.39396 11.3175L8.08011 11.3815L8.06495 10.1347Z" fill="#6D6D6D"/>
<path d="M9.41986 4.47051C9.82654 4.73084 10.2862 4.61312 10.7447 4.54433C11.2255 4.53085 11.7054 4.51681 12.1864 4.5223L12.1901 5.98L13.6346 5.99361L13.6466 10.0121C13.2091 10.0107 12.7633 10.0245 12.3269 9.99999L12.2848 10.0204L10.9301 10.0175C10.4619 10.0144 9.88583 9.95487 9.43199 10.0524C9.34968 9.12351 9.40928 8.21877 9.52639 7.29449C9.32205 7.03665 9.42492 6.30766 9.42966 5.98164L9.41986 4.47051Z" fill="#4E4F50"/>
<path d="M11.0059 7.39434L12.2999 7.39692C12.3007 8.26719 12.3463 9.16565 12.2886 10.0326L12.2495 10.0524L10.9888 10.0495C11.0175 9.16248 11.0248 8.28163 11.0059 7.39434Z" fill="#6D6D6D"/>
<path d="M9.52885 7.41907C10.0131 7.40001 10.4923 7.38872 10.9772 7.39719C10.9978 8.27337 10.9899 9.14317 10.9584 10.019C10.4815 10.0161 9.8942 9.95927 9.43199 10.0524C9.3482 9.16549 9.40954 8.30161 9.52885 7.41907Z" fill="#6D6D6D"/>
<path d="M6.7388 6.06613C7.67982 6.06657 8.62143 6.05938 9.56212 6.08291C9.5573 6.41303 9.4535 7.15124 9.65976 7.41228C9.5415 8.34819 9.48139 9.26429 9.56447 10.2049C9.21964 10.1983 8.50662 10.0951 8.22844 10.2404C7.9422 10.2483 7.10782 10.1605 6.91045 10.2751C6.89092 10.4282 6.90224 10.6281 6.80426 10.7495C6.7922 11.3391 6.70404 12.0449 6.82121 12.6221C6.94689 12.7407 7.02202 12.7506 7.02557 12.9285C7.033 13.3003 6.89335 13.6577 6.8957 14.0395C6.84791 13.7532 6.85493 13.455 6.84522 13.1653L5.46368 13.1583L5.46095 11.7727L4.21581 11.7853C4.21166 11.2827 4.24725 10.7651 4.12742 10.2737C3.71001 10.3732 3.19152 10.3374 2.75809 10.3473L2.74891 7.26323C3.20866 7.25457 3.67603 7.21844 4.12742 7.31462L4.00006 7.37753C4.1539 7.44405 4.0831 7.43654 4.20673 7.43012C5.051 7.50501 5.91055 7.477 6.75796 7.47819C6.72898 7.0119 6.74463 6.53391 6.7388 6.06613Z" fill="#4E4F50"/>
<path d="M4.20982 7.39434C5.03868 7.46667 5.88253 7.43962 6.71447 7.44077C6.73719 7.86284 6.73936 8.27967 6.7321 8.70215L5.53711 8.72658C5.54477 9.16123 5.5745 9.61164 5.54198 10.0447L4.13317 10.0524C4.12111 9.43817 3.97635 7.89655 4.20982 7.39434Z" fill="#6D6D6D"/>
<path d="M6.82002 6.06611C7.73487 6.06652 8.6503 6.05959 9.56483 6.08229C9.56015 6.40075 9.45923 7.11288 9.65976 7.36471C9.54479 8.26756 9.48635 9.1513 9.56712 10.0586C9.23188 10.0523 8.53868 9.95274 8.26824 10.0929C7.98995 10.1006 7.17878 10.0159 6.98689 10.1264C6.9679 10.2741 6.9789 10.4669 6.88365 10.5841C6.88949 10.3954 6.90844 10.2721 6.80869 10.1023C6.66004 10.0169 6.57255 10.0033 6.40038 10.009L5.67755 10.0289C5.70975 9.59643 5.68031 9.14661 5.67273 8.71252L6.8561 8.68811C6.86328 8.26617 6.86118 7.84984 6.83864 7.42836C6.81047 6.97846 6.82568 6.51736 6.82002 6.06611Z" fill="#6D6D6D"/>
<path d="M18.0096 3.14261C18.8989 3.13739 19.7894 3.15367 20.6787 3.1616L20.8282 3.1689C21.3931 3.23348 21.9629 3.22883 22.5309 3.23495L22.5287 4.33941L22.6028 4.39829C22.9779 4.53461 23.3225 4.68169 23.7282 4.67899C24.1568 4.65896 24.5801 4.65403 25.0092 4.66361C25.0933 5.15672 25.0639 5.66463 25.0595 6.163L26.4141 6.14673C26.4269 6.36213 26.4414 6.57735 26.4491 6.79304C26.414 7.84834 26.5076 8.90555 26.4476 9.95742C26.3785 13.7409 26.5618 17.5356 26.4215 21.3162C26.4357 22.5288 26.4553 23.7418 26.4441 24.9545C26.8707 24.9582 27.3111 24.9382 27.7343 24.9928C27.4134 25.0102 26.6386 24.9394 26.3922 25.1026L26.3668 25.169C26.372 25.7291 26.3856 26.2905 26.3781 26.8504C26.0354 26.8479 25.6955 26.8492 25.354 26.8193C25.1339 26.7999 24.94 26.8089 24.7567 26.9501C24.6675 27.019 24.6568 27.0991 24.6431 27.2088C24.6278 27.3317 24.6416 27.471 24.6452 27.5954L9.31735 27.5192C9.31601 27.1497 9.37055 26.7821 9.41275 26.4155C8.69762 26.4217 7.98161 26.4383 7.26754 26.39C7.98372 26.3009 8.75836 26.3454 9.48221 26.3334C9.48221 26.0364 9.3716 25.5387 9.54492 25.2835C9.61816 25.1756 9.77761 25.1949 9.89878 25.1763C9.68523 25.154 9.48886 25.1624 9.3285 25.0029L9.30769 23.2396C9.24604 23.1726 9.25646 23.1982 9.22919 23.0973C9.13452 22.7482 9.23206 22.6299 9.39481 22.3399C9.13844 22.0326 8.83146 22.0611 8.46253 22.0251L8.32763 21.9547C8.21688 21.6236 8.26104 21.2483 8.2675 20.9029C8.56471 20.8541 8.88586 20.871 9.18743 20.8649C9.18518 20.4619 9.16332 20.0587 9.24876 19.6627C9.28507 19.2279 9.27302 18.7969 9.26321 18.3612L9.28823 18.2537C9.43969 17.8129 9.30105 17.282 9.38754 16.8136L9.53326 16.7438L9.53174 16.6937C9.96291 16.6861 10.3977 16.7051 10.8291 16.7136C10.8351 16.007 10.8547 15.2996 10.784 14.5957C11.419 14.5987 12.0685 14.6298 12.7001 14.5634L12.7165 13.1673L14.4052 13.1666C14.4189 12.5981 14.4054 12.0334 14.3865 11.4651C15.0653 11.4863 15.7387 11.477 16.4173 11.4602L16.4288 11.1654C16.4305 10.6576 16.4267 10.1514 16.4107 9.64388L16.4211 9.6074C16.4155 8.4889 16.3995 7.36931 16.4343 6.25128L16.4917 6.22271C16.4954 5.69431 16.4899 5.16487 16.5327 4.63783L17.9901 4.63066L18.0136 4.30181C17.9937 3.91926 18.0097 3.52617 18.0096 3.14261Z" fill="#4E4F50"/>
<path d="M25.6604 20.4186L26.381 20.5355C26.3765 21.0817 26.3472 21.6457 26.4053 22.1881C26.3781 22.3008 26.3929 22.396 26.2858 22.4485C26.0945 22.5426 25.8189 22.5315 25.6079 22.545C25.6067 21.8354 25.6702 21.1285 25.6604 20.4186Z" fill="#4E4F50"/>
<path d="M16.5819 11.144C17.096 11.1376 17.6554 11.0841 18.1642 11.1437C18.1625 11.627 18.1767 12.1177 18.1402 12.5991L18.0604 12.6899L16.5748 12.7106L16.5707 11.4507L16.5819 11.144Z" fill="#4E4F50"/>
<path d="M18.1037 9.52089L18.1655 11.1154C17.6583 11.0577 17.1008 11.1095 16.5883 11.1157C16.5899 10.6038 16.5862 10.0934 16.5707 9.58175L16.5808 9.54496C17.0693 9.64354 17.6122 9.58113 18.1037 9.52089Z" fill="#4E4F50"/>
<path d="M16.5957 17.2292C17.0856 17.2279 17.5756 17.2354 18.0654 17.2415L18.1499 17.247L18.1655 17.6467L18.1549 18.8239L16.6195 18.819C16.5376 18.2969 16.5801 17.7559 16.5957 17.2292Z" fill="#4E4F50"/>
<path d="M22.7606 23.621C23.1277 23.6081 23.4787 23.5894 23.843 23.6563C23.9974 23.7472 24.091 23.7575 24.264 23.7572L24.2789 25.4537C23.7757 25.4864 23.2668 25.4582 22.763 25.4461C22.767 25.2874 22.7544 25.1966 22.7225 25.0456C22.6711 24.6594 22.6794 24.3135 22.7004 23.9261C22.7586 23.8288 22.7509 23.7357 22.7606 23.621Z" fill="#4E4F50"/>
<path d="M16.6139 23.6332C17.0654 23.6257 17.5216 23.6336 17.9723 23.6084C18.0404 23.6261 18.1127 23.6276 18.1655 23.6807C17.963 24.018 18.0492 24.9201 18.0444 25.3555L17.9615 25.4377L16.5926 25.469C16.5987 24.89 16.6291 24.2914 16.5707 23.7161L16.6139 23.6332Z" fill="#4E4F50"/>
<path d="M22.7815 17.2291L24.4256 17.2434C24.4126 17.7056 24.3373 18.2105 24.4845 18.6547C24.6185 18.7308 24.6618 18.7397 24.8105 18.7579C24.63 18.7751 24.4463 18.8005 24.2654 18.8079C23.7728 18.8465 23.2447 18.8039 22.7485 18.7978L22.698 18.7712L22.6841 18.7354C22.6982 18.243 22.703 17.7504 22.7106 17.2579L22.7815 17.2291Z" fill="#8C8C8C"/>
<path d="M12.5937 19.6646C12.9452 19.6332 13.2851 19.6166 13.6385 19.6224C13.6348 20.5074 13.6149 21.3949 13.6468 22.2793L12.1358 22.2371L12.065 22.0861C12.0525 21.3794 12.0373 20.6757 12.0815 19.9695C12.1088 19.8743 12.1374 19.8145 12.1871 19.7287L12.5937 19.6646Z" fill="#4E4F50"/>
<path d="M9.67516 16.6975L10.9207 16.712L10.9423 18.2197L12.1503 18.2287C12.1376 18.6249 12.0588 19.1202 12.2272 19.4798C12.3507 19.5391 12.4481 19.5538 12.5834 19.567L12.2087 19.6342C12.163 19.7243 12.1366 19.7872 12.1114 19.8871C12.0899 19.7928 12.0608 19.7601 12.0038 19.685C11.5446 19.5999 11.0668 19.6449 10.6021 19.6592L9.3938 19.6628C9.42971 19.2211 9.41779 18.7833 9.40809 18.3406L9.43284 18.2315C9.58262 17.7836 9.44551 17.2443 9.53105 16.7684L9.67516 16.6975Z" fill="#4E4F50"/>
<path d="M22.9056 24.9373C22.9399 25.0846 22.9534 25.1733 22.9491 25.3281C22.8766 25.8027 22.9135 26.3168 22.9159 26.7979L17.8996 26.7903C17.9142 26.3126 17.9107 25.8343 17.9117 25.3565L18.0042 25.2735C18.7108 25.2874 22.4195 25.4336 22.8191 25.2515L22.9056 24.9373Z" fill="#4E4F50"/>
<path d="M18.1653 15.9002L22.6839 15.9032L22.6758 17.2025L22.6113 17.2292C21.3946 17.0868 19.511 17.1876 18.247 17.217L18.1687 17.2119L18.1653 15.9002Z" fill="#4E4F50"/>
<path d="M10.521 22.0135L11.9821 22.0192L12.046 22.1781L12.0518 23.7486L10.873 23.7483L10.853 25.2031C10.5586 25.1973 10.2595 25.2029 9.966 25.1797C9.75927 25.157 9.56917 25.1655 9.41394 25.0032L9.3938 23.2084L9.39556 22.0152L10.521 22.0135Z" fill="#4E4F50"/>
<path d="M18.1653 17.2958C19.4739 17.2642 21.4241 17.156 22.6839 17.3088C22.6768 17.798 22.6722 18.2874 22.659 18.7764C21.2093 18.6733 19.6869 18.7923 18.2311 18.8239C18.2378 18.4388 18.2279 18.0769 18.1803 17.6937L18.1653 17.2958Z" fill="#6D6D6D"/>
<path d="M15.2415 19.0995L16.5113 19.0896C16.5085 19.6726 16.4892 20.2627 16.5444 20.8429L16.5636 22.2054L16.5705 23.7324L16.5297 23.8092C16.1222 23.8953 15.6638 23.8654 15.2477 23.8741L15.2415 19.0995Z" fill="#4E4F50"/>
<path d="M18.3042 23.6186C19.1806 23.7055 22.0388 23.4795 22.6094 23.7338L22.662 23.8936C22.6413 24.2913 22.633 24.6466 22.6839 25.0431L22.6044 25.3737C22.2373 25.5652 18.8292 25.4114 18.1798 25.3968C18.1848 24.9346 18.0963 23.9767 18.3042 23.6186Z" fill="#6D6D6D"/>
<path d="M18.1908 12.5908L18.2686 12.4999C18.5739 12.6775 22.0501 12.6639 22.5331 12.5378L22.6236 12.4447L22.6342 12.486C22.7006 13.0869 22.6814 13.7006 22.6812 14.3053L18.1653 14.2999L18.1908 12.5908Z" fill="#4E4F50"/>
<path d="M9.32036 19.65L10.5349 19.6463C11.0021 19.6318 11.4824 19.5862 11.9439 19.6726C12.0012 19.749 12.0305 19.7821 12.0521 19.8779C12.0112 20.6316 12.0253 21.3824 12.0368 22.1365L10.5364 22.1306L9.38076 22.1323L9.37895 23.3425C9.31766 23.2734 9.32802 23.2998 9.30091 23.1956C9.2068 22.8352 9.30376 22.7131 9.46555 22.4138C9.2107 22.0965 8.90554 22.1259 8.53879 22.0888L8.40469 22.0161C8.29459 21.6743 8.33849 21.2869 8.34491 20.9303C8.64037 20.88 8.95961 20.8974 9.2594 20.8911C9.25712 20.4751 9.23539 20.0588 9.32036 19.65Z" fill="#4E4F50"/>
<path d="M8.34629 20.9502C8.63588 20.963 8.92213 20.9789 9.21025 21.0071C9.35094 21.19 9.43713 21.3978 9.37199 21.6176C9.32906 21.7627 9.27146 21.8401 9.16732 21.9561C8.97069 22.0253 8.768 22.012 8.55921 22.013L8.41194 21.9463C8.29103 21.6328 8.33923 21.2773 8.34629 20.9502Z" fill="#4E4F50"/>
<path d="M10.7231 19.6451C11.1323 19.6313 11.553 19.5879 11.9573 19.6701C12.0074 19.7427 12.0332 19.7743 12.0521 19.8654C12.0163 20.5822 12.0286 21.2963 12.0387 22.0135L10.7244 22.0079C10.7382 21.2203 10.7298 20.4329 10.7231 19.6451Z" fill="#8C8C8C"/>
<path d="M18.1653 9.53281C18.6812 9.52787 19.2074 9.50264 19.7216 9.54519L19.7329 9.59958C20.591 9.60465 21.4495 9.61646 22.3075 9.60839L22.3768 9.61693C22.3684 10.0282 22.2834 10.6225 22.4555 10.9926L22.6673 11.096C22.6723 11.5725 22.6623 12.0543 22.6839 12.5298L22.5909 12.6191C22.0941 12.7403 18.5192 12.7533 18.2051 12.5828C18.2418 12.1204 18.2275 11.6491 18.2293 11.1849L18.167 9.60408L18.1653 9.53281Z" fill="#6D6D6D"/>
<path d="M19.842 9.52089C20.7006 9.5261 21.5597 9.53822 22.4182 9.52994L22.4157 11.0572C21.8263 11.0416 20.4142 11.2475 19.9685 10.9679C19.6393 10.5273 19.7847 10.0382 19.842 9.52089Z" fill="#4E4F50"/>
<path d="M23.8931 4.49076C24.3277 4.47059 24.7569 4.46562 25.1919 4.47527C25.2772 4.97211 25.2474 5.48387 25.243 5.98601L26.6164 5.96961C26.6294 6.18665 26.6441 6.4035 26.6519 6.62083C26.6163 7.68412 26.7111 8.74933 26.6503 9.80917L25.4923 9.81458L25.4998 11.1324L24.1828 11.0884L24.1948 12.425C23.7309 12.4312 23.2381 12.4677 22.778 12.4216L22.7667 12.3817C22.7443 11.9023 22.7547 11.4166 22.7495 10.9363L22.5296 10.8321C22.3508 10.459 22.4391 9.85993 22.4479 9.44532L23.804 9.43704L23.9637 9.50196L25.2485 9.50544C25.2223 8.37393 25.2589 7.2376 25.1927 6.10761C24.8174 6.09919 24.3815 6.2091 24.0288 6.06994C23.8527 5.85338 23.8889 5.74057 23.8783 5.46874L23.8931 4.49076Z" fill="#4E4F50"/>
<path d="M23.779 9.52089L23.9358 9.58937C23.958 10.0983 23.9759 10.6078 24.0132 11.1157L22.7435 11.1025L22.5276 10.9926C22.352 10.599 22.4388 9.96704 22.4473 9.52966L23.779 9.52089Z" fill="#6D6D6D"/>
<path d="M24.6675 18.8543C24.942 18.8324 25.1424 18.7805 25.3991 18.8993C25.667 19.3092 25.4713 20.0037 25.6068 20.5065C25.6167 21.1811 25.5522 21.8527 25.5534 22.5268L25.5585 23.8742C25.1509 23.8616 24.6845 23.806 24.2841 23.8656C24.1111 23.8659 24.0175 23.8567 23.8631 23.7756C23.4988 23.7159 23.1477 23.7326 22.7806 23.7441C22.5983 22.7027 22.7304 20.1146 22.7284 18.8941C23.195 18.9002 23.6917 18.9426 24.1549 18.9042C24.3251 18.8968 24.4978 18.8714 24.6675 18.8543Z" fill="#4E4F50"/>
<path d="M22.7311 18.824C23.2266 18.83 23.7541 18.8716 24.246 18.8339C24.2465 19.5253 24.3703 23.2546 24.1336 23.561L23.9361 23.6084C23.5493 23.5499 23.1765 23.5663 22.7866 23.5775C22.593 22.5568 22.7333 20.0203 22.7311 18.824Z" fill="#6D6D6D"/>
<path d="M22.6166 4.21152L22.6885 4.27033C23.0523 4.40646 23.3864 4.55335 23.7798 4.55066L23.7656 5.51991C23.7759 5.78934 23.7412 5.90115 23.9096 6.1158C24.2469 6.25373 24.6639 6.14475 25.0229 6.15313C25.0862 7.27316 25.0513 8.39941 25.0763 9.52091L23.8474 9.51746L23.6947 9.45312L22.3975 9.46132L22.3286 9.45279C21.4764 9.46085 20.6237 9.44906 19.7715 9.44398L19.7602 9.38964C19.9397 8.76343 19.8326 7.88092 19.8256 7.22306L19.7892 7.20723C19.8763 6.67777 19.8178 6.05858 19.8158 5.51818C20.6321 5.38698 21.6252 5.49027 22.4597 5.48833C22.4614 5.05515 22.4655 4.63511 22.5213 4.20488L22.6166 4.21152Z" fill="#8C8C8C"/>
<path d="M22.5763 4.21152L22.6487 4.27096C23.0149 4.40854 23.3513 4.557 23.7474 4.55428L23.7331 5.53389L23.3333 5.47019C23.0445 5.5301 22.7136 5.50052 22.4184 5.50204C22.42 5.06424 22.4241 4.6397 22.4803 4.20488L22.5763 4.21152Z" fill="#4E4F50"/>
<path d="M22.6841 4.20488C23.0384 4.34966 23.364 4.50589 23.7473 4.50302L23.7331 5.53389L23.3466 5.46687C23.3094 5.12394 23.2674 4.90421 23.0393 4.65036C22.911 4.50761 22.7977 4.36236 22.6841 4.20488Z" fill="#6D6D6D"/>
<path d="M19.7869 5.53379C20.5562 5.63344 21.3699 5.58578 22.1444 5.57009L22.1524 7.2746C21.4932 7.53754 20.5155 7.27237 19.7967 7.3605L19.7602 7.34355C19.8476 6.77621 19.7889 6.11276 19.7869 5.53379Z" fill="#4E4F50"/>
<path d="M22.2069 7.1287C22.6447 7.30984 23.2538 7.1002 23.7293 7.2125C23.7348 7.97741 23.7234 8.74814 23.7473 9.51246L22.4328 9.52092L22.363 9.51212C21.4993 9.52044 20.6353 9.50827 19.7716 9.50303L19.7602 9.44696C19.9421 8.80081 19.8335 7.8902 19.8264 7.21139C20.5528 7.12651 21.5407 7.38191 22.2069 7.1287Z" fill="#6D6D6D"/>
<path d="M22.4184 7.44384C22.8586 7.44555 23.293 7.45249 23.7304 7.39434C23.7356 8.09894 23.7246 8.8084 23.7473 9.51246L22.4989 9.52075L22.4326 9.51265C22.4438 8.82408 22.4244 8.13268 22.4184 7.44384Z" fill="#4E4F50"/>
<path d="M18.1663 3.14259C19.055 3.13748 19.9448 3.15342 20.8334 3.16117L20.9828 3.16832C21.5472 3.23153 22.1166 3.22699 22.6842 3.23298L22.6819 4.31411L22.5837 4.30766C22.5262 4.72933 22.522 5.14108 22.5204 5.56568C21.6605 5.56758 20.6372 5.46634 19.7962 5.59494C19.7983 6.1246 19.8585 6.73152 19.7688 7.25053L19.8063 7.26604C19.8135 7.91087 19.9239 8.77589 19.739 9.38969C19.2128 9.34799 18.6743 9.37274 18.1463 9.37757L18.1481 9.44737C17.6418 9.50589 17.0826 9.56645 16.5793 9.47077C16.5737 8.3759 16.5577 7.27996 16.5925 6.18555L16.6499 6.15759C16.6535 5.64035 16.6481 5.12209 16.6908 4.60619L18.147 4.59917L18.1706 4.27727C18.1505 3.90284 18.1665 3.51804 18.1663 3.14259Z" fill="#6D6D6D"/>
<path d="M16.6142 4.47756L18.1592 4.47051L18.1655 6.06532L16.5707 6.03781C16.5746 5.51762 16.5688 4.99644 16.6142 4.47756Z" fill="#4E4F50"/>
<path d="M18.1842 7.13496C18.6867 7.12263 19.1858 7.12945 19.6881 7.14728L19.7233 7.16449C19.73 7.88 19.8336 8.83984 19.6601 9.52092C19.1662 9.47464 18.6608 9.5021 18.1653 9.50746C18.1971 8.72084 18.179 7.92318 18.1842 7.13496Z" fill="#4E4F50"/>
<path d="M18.1712 3.1425C19.0588 3.13786 19.9476 3.15232 20.8353 3.15935L20.9845 3.16583C21.5483 3.22315 22.117 3.21903 22.6839 3.22446L22.6817 4.20481L22.5836 4.19896C21.683 4.03535 19.2281 4.16725 18.1754 4.17137C18.1554 3.83188 18.1713 3.48295 18.1712 3.1425Z" fill="#4E4F50"/>
<path d="M18.1593 17.4947C18.2089 17.886 18.2192 18.2557 18.2123 18.649C19.7311 18.6167 21.3196 18.4952 22.8322 18.6005L22.8459 18.6369L22.8955 18.6638C22.8976 19.9053 22.7597 22.5378 22.95 23.597C22.9398 23.7011 22.9478 23.7856 22.8871 23.874L22.8315 23.7327C22.2287 23.5081 19.209 23.7078 18.2831 23.631C18.2258 23.5811 18.1474 23.5797 18.0736 23.5631C17.5849 23.5867 17.0902 23.5793 16.6006 23.5864L16.5928 22.0399L16.5707 20.6601L16.5998 20.5864C16.5849 19.9722 16.5629 19.3598 16.6051 18.7463L16.6114 18.6869L18.1486 18.6919L18.1593 17.4947Z" fill="#6D6D6D"/>
<path d="M16.5707 22.0135C17.0698 22.0193 17.5709 22.0175 18.0695 22.0357C18.0763 22.4191 18.0653 22.8062 18.1418 23.1839L18.1655 23.5842C17.6392 23.6086 17.1065 23.6009 16.5792 23.6083L16.5707 22.0135Z" fill="#6D6D6D"/>
<path d="M16.5966 18.824L18.1655 18.8338C18.1519 19.4425 18.1338 20.0514 18.1398 20.6602C17.6533 20.6663 17.0613 20.726 16.5911 20.6328C16.5753 20.0291 16.552 19.4271 16.5966 18.824Z" fill="#6D6D6D"/>
<path d="M22.8425 18.824L22.8937 18.85C22.8959 20.0472 22.7538 22.5857 22.9499 23.6072C22.9394 23.7075 22.9477 23.7891 22.8851 23.8742L22.8278 23.7381C22.2063 23.5214 19.093 23.7139 18.1384 23.6399C18.0793 23.5918 17.9985 23.5905 17.9223 23.5744L17.8996 23.2001L17.9066 22.1275L21.0321 22.147L21.0129 18.8397C21.6233 18.8434 22.2323 18.8364 22.8425 18.824Z" fill="#4E4F50"/>
</svg>
