<svg width="52" height="46" viewBox="0 0 52 46" fill="none" xmlns="http://www.w3.org/2000/svg">
<path d="M2.26045 41.2185H0V43.479H2.26045V41.2185Z" fill="#5E5E5E"/>
<path d="M2.26045 38.9571H0V41.2185H2.26045V38.9571Z" fill="#5E5E5E"/>
<path d="M2.26045 36.6969H0V38.9571H2.26045V36.6969Z" fill="#5E5E5E"/>
<path d="M2.26045 34.4355H0V36.6969H2.26045V34.4355Z" fill="#5E5E5E"/>
<path d="M2.26045 32.1753H0V34.4355H2.26045V32.1753Z" fill="#5E5E5E"/>
<path d="M2.26045 29.9151H0V32.1753H2.26045V29.9151Z" fill="#5E5E5E"/>
<path d="M2.26045 27.6549H0V29.9151H2.26045V27.6549Z" fill="#5E5E5E"/>
<path d="M2.26045 25.3935H0V27.6549H2.26045V25.3935Z" fill="#5E5E5E"/>
<path d="M2.26045 23.1333H0V25.3935H2.26045V23.1333Z" fill="#5E5E5E"/>
<path d="M2.26045 20.8732H0V23.1333H2.26045V20.8732Z" fill="#5E5E5E"/>
<path d="M2.26045 18.6117H0V20.8732H2.26045V18.6117Z" fill="#5E5E5E"/>
<path d="M2.26045 16.3516H0V18.6117H2.26045V16.3516Z" fill="#5E5E5E"/>
<path d="M2.26045 14.0901H0V16.3516H2.26045V14.0901Z" fill="#5E5E5E"/>
<path d="M2.26045 11.83H0V14.0901H2.26045V11.83Z" fill="#5E5E5E"/>
<path d="M2.26045 9.56368H0V11.8287H2.26045V9.56368Z" fill="#5E5E5E"/>
<path d="M2.26045 7.30349H0V9.56368H2.26045V7.30349Z" fill="#5E5E5E"/>
<path d="M2.26045 5.0433H0V7.30349H2.26045V5.0433Z" fill="#5E5E5E"/>
<path d="M2.26045 2.78311H0V5.0433H2.26045V2.78311Z" fill="#5E5E5E"/>
<path d="M4.5209 43.4787L2.26045 43.479L2.26045 45.7392H4.5209V43.4787Z" fill="#5E5E5E"/>
<path d="M4.5209 41.2185H2.26045V43.479L4.5209 43.4787V41.2185Z" fill="#9AA4A5"/>
<path d="M4.5209 38.9571H2.26045V41.2185H4.5209V38.9571Z" fill="#9AA4A5"/>
<path d="M4.5209 36.6969H2.26045V38.9571H4.5209V36.6969Z" fill="#9AA4A5"/>
<path d="M4.5209 34.4355H2.26045V36.6969H4.5209V34.4355Z" fill="#9AA4A5"/>
<path d="M4.5209 32.1753H2.26045V34.4355H4.5209V32.1753Z" fill="#9AA4A5"/>
<path d="M4.5209 29.9151H2.26045V32.1753H4.5209V29.9151Z" fill="#9AA4A5"/>
<path d="M4.5209 27.6549H2.26045V29.9151H4.5209V27.6549Z" fill="#9AA4A5"/>
<path d="M4.5209 25.3935H2.26045V27.6549H4.5209V25.3935Z" fill="#9AA4A5"/>
<path d="M4.5209 23.1333H2.26045V25.3935H4.5209V23.1333Z" fill="#9AA4A5"/>
<path d="M4.5209 20.8732H2.26045V23.1333H4.5209V20.8732Z" fill="#9AA4A5"/>
<path d="M4.5209 18.6117H2.26045V20.8732H4.5209V18.6117Z" fill="#9AA4A5"/>
<path d="M4.5209 16.3516H2.26045V18.6117H4.5209V16.3516Z" fill="#9AA4A5"/>
<path d="M4.5209 14.0901H2.26045V16.3516H4.5209V14.0901Z" fill="#9AA4A5"/>
<path d="M4.5209 11.83H2.26045V14.0901H4.5209V11.83Z" fill="#9AA4A5"/>
<path d="M4.5209 9.56368H2.26045V11.8287H4.5209V9.56368Z" fill="#B71616"/>
<path d="M4.5209 7.30349H2.26045V9.56368H4.5209V7.30349Z" fill="#B71616"/>
<path d="M4.5209 5.0433H2.26045V7.30349H4.5209V5.0433Z" fill="#B71616"/>
<path d="M4.5209 2.78311H2.26045V5.0433H4.5209V2.78311Z" fill="#B71616"/>
<path d="M4.5209 0.521698H2.26045L2.26045 2.78311H4.5209V0.521698Z" fill="#5E5E5E"/>
<path d="M6.78181 43.4787H4.5209V45.7392H6.78181V43.4787Z" fill="#5E5E5E"/>
<path d="M6.78181 41.2185H4.5209V43.4787H6.78181V41.2185Z" fill="#BCCACE"/>
<path d="M6.78181 38.9571H4.5209L4.52136 41.2176L6.78181 41.2185V38.9571Z" fill="#BCCACE"/>
<path d="M6.78181 36.6969H4.5209V38.9571H6.78181V36.6969Z" fill="#BCCACE"/>
<path d="M6.78181 34.4355H4.5209L4.52136 36.696L6.78181 36.6969V34.4355Z" fill="#BCCACE"/>
<path d="M6.78181 32.1753H4.5209V34.4355H6.78181V32.1753Z" fill="#BCCACE"/>
<path d="M6.78181 29.9151H4.5209V32.1753H6.78181V29.9151Z" fill="#BCCACE"/>
<path d="M6.78181 27.6549H4.5209V29.9151H6.78181V27.6549Z" fill="#BCCACE"/>
<path d="M6.78181 25.3935H4.5209L4.52136 27.654L6.78181 27.6549V25.3935Z" fill="#BCCACE"/>
<path d="M6.78181 23.1333H4.5209V25.3935H6.78181V23.1333Z" fill="#BCCACE"/>
<path d="M6.78181 20.8732H4.5209V23.1333H6.78181V20.8732Z" fill="#BCCACE"/>
<path d="M6.78181 18.6117H4.5209L4.52136 20.8722L6.78181 20.8732V18.6117Z" fill="#BCCACE"/>
<path d="M6.78181 16.3516H4.5209V18.6117H6.78181V16.3516Z" fill="#BCCACE"/>
<path d="M6.78181 14.0901H4.5209L4.52136 16.3506L6.78181 16.3516V14.0901Z" fill="#BCCACE"/>
<path d="M6.78181 11.83H4.5209V14.0901H6.78181V11.83Z" fill="#BCCACE"/>
<path d="M6.78181 9.56368H4.5209V11.8287H6.78181V9.56368Z" fill="#B71616"/>
<path d="M6.78181 7.30349H4.5209V9.56368H6.78181V7.30349Z" fill="#B71616"/>
<path d="M6.78181 5.0433H4.5209V7.30349H6.78181V5.0433Z" fill="#B71616"/>
<path d="M6.78181 2.78311H4.5209V5.0433H6.78181V2.78311Z" fill="#B71616"/>
<path d="M6.78181 0.521698H4.5209L4.52136 2.78215L6.78181 2.78311V0.521698Z" fill="#B71616"/>
<path d="M9.04226 43.4787H6.78181V45.7392H9.04226V43.4787Z" fill="#5E5E5E"/>
<path d="M9.04226 41.2185H6.78181V43.4787H9.04226V41.2185Z" fill="#AEB8BA"/>
<path d="M9.04226 38.9571H6.78181V41.2185H9.04226V38.9571Z" fill="#AEB8BA"/>
<path d="M9.04226 36.6969H6.78181V38.9571H9.04226V36.6969Z" fill="#AEB8BA"/>
<path d="M9.04226 34.4355H6.78181V36.6969H9.04226V34.4355Z" fill="#AEB8BA"/>
<path d="M9.04226 32.1753H6.78181V34.4355H9.04226V32.1753Z" fill="#AEB8BA"/>
<path d="M9.04226 29.9151H6.78181V32.1753H9.04226V29.9151Z" fill="#AEB8BA"/>
<path d="M9.04226 27.6549H6.78181V29.9151H9.04226V27.6549Z" fill="#9AA4A5"/>
<path d="M9.04226 25.3935H6.78181V27.6549H9.04226V25.3935Z" fill="#9AA4A5"/>
<path d="M9.04226 23.1333H6.78181V25.3935H9.04226V23.1333Z" fill="#9AA4A5"/>
<path d="M9.04226 20.8732H6.78181V23.1333H9.04226V20.8732Z" fill="#9AA4A5"/>
<path d="M9.04226 18.6117H6.78181V20.8732H9.04226V18.6117Z" fill="#9AA4A5"/>
<path d="M9.04226 16.3516H6.78181V18.6117H9.04226V16.3516Z" fill="#9AA4A5"/>
<path d="M9.04226 14.0901H6.78181V16.3516H9.04226V14.0901Z" fill="#9AA4A5"/>
<path d="M9.04226 11.83H6.78181V14.0901H9.04226V11.83Z" fill="#9AA4A5"/>
<path d="M9.04226 9.56368H6.78181V11.8287H9.04226V9.56368Z" fill="#B71616"/>
<path d="M9.04226 7.30349H6.78181V9.56368H9.04226V7.30349Z" fill="#B71616"/>
<path d="M9.04226 5.0433H6.78181V7.30349H9.04226V5.0433Z" fill="#B71616"/>
<path d="M9.04226 2.78311H6.78181V5.0433H9.04226V2.78311Z" fill="#B71616"/>
<path d="M9.04226 0.521698H6.78181V2.78311H9.04226V0.521698Z" fill="#B71616"/>
<path d="M11.3027 43.4787H9.04226V45.7392H11.3027V43.4787Z" fill="#5E5E5E"/>
<path d="M11.3027 41.2185H9.04226V43.4787H11.3027V41.2185Z" fill="#BCCACE"/>
<path d="M11.3027 38.9571H9.04226V41.2185H11.3027V38.9571Z" fill="#BCCACE"/>
<path d="M11.3027 36.6969H9.04226V38.9571H11.3027V36.6969Z" fill="#BCCACE"/>
<path d="M11.3027 34.4355H9.04226V36.6969H11.3027V34.4355Z" fill="#BCCACE"/>
<path d="M11.3027 32.1753H9.04226V34.4355H11.3027V32.1753Z" fill="#BCCACE"/>
<path d="M11.3027 29.9151H9.04226V32.1753H11.3027V29.9151Z" fill="#BCCACE"/>
<path d="M11.3027 27.6549H9.04226V29.9151H11.3027V27.6549Z" fill="#BCCACE"/>
<path d="M11.3027 25.3935H9.04226V27.6549H11.3027V25.3935Z" fill="#BCCACE"/>
<path d="M11.3027 23.1333H9.04226V25.3935H11.3027V23.1333Z" fill="#BCCACE"/>
<path d="M11.3027 20.8732H9.04226V23.1333H11.3027V20.8732Z" fill="#BCCACE"/>
<path d="M11.3027 18.6117H9.04226V20.8732H11.3027V18.6117Z" fill="#BCCACE"/>
<path d="M11.3027 16.3516H9.04226V18.6117H11.3027V16.3516Z" fill="#BCCACE"/>
<path d="M11.3027 14.0901H9.04226V16.3516H11.3027V14.0901Z" fill="#BCCACE"/>
<path d="M11.3027 11.83H9.04226V14.0901H11.3027V11.83Z" fill="#BCCACE"/>
<path d="M11.3027 9.56368H9.04226V11.8287H11.3027V9.56368Z" fill="#B71616"/>
<path d="M11.3027 7.30349H9.04226V9.56368H11.3027V7.30349Z" fill="#B71616"/>
<path d="M11.3027 5.0433H9.04226V7.30349H11.3027V5.0433Z" fill="#B71616"/>
<path d="M11.3027 2.78311H9.04226V5.0433H11.3027V2.78311Z" fill="#B71616"/>
<path d="M11.3027 0.521698H9.04226V2.78311H11.3027V0.521698Z" fill="#B71616"/>
<path d="M13.5636 43.4787H11.3027V45.7392H13.5636V43.4787Z" fill="#5E5E5E"/>
<path d="M13.5636 41.2185H11.3027V43.4787H13.5636V41.2185Z" fill="#AEB8BA"/>
<path d="M13.5636 38.9571H11.3027L11.3032 41.2176L13.5636 41.2185V38.9571Z" fill="#AEB8BA"/>
<path d="M13.5636 36.6969H11.3027V38.9571H13.5636V36.6969Z" fill="#AEB8BA"/>
<path d="M13.5636 34.4355H11.3027L11.3032 36.696L13.5636 36.6969V34.4355Z" fill="#AEB8BA"/>
<path d="M13.5636 32.1753H11.3027V34.4355H13.5636V32.1753Z" fill="#AEB8BA"/>
<path d="M13.5636 29.9151H11.3027V32.1753H13.5636V29.9151Z" fill="#AEB8BA"/>
<path d="M13.5636 27.6549H11.3027V29.9151H13.5636V27.6549Z" fill="#AEB8BA"/>
<path d="M13.5636 25.3935H11.3027L11.3032 27.654L13.5636 27.6549V25.3935Z" fill="#AEB8BA"/>
<path d="M13.5636 23.1333H11.3027V25.3935H13.5636V23.1333Z" fill="#AEB8BA"/>
<path d="M13.5636 20.8732H11.3027V23.1333H13.5636V20.8732Z" fill="#AEB8BA"/>
<path d="M13.5636 18.6117H11.3027L11.3032 20.8722L13.5636 20.8732V18.6117Z" fill="#AEB8BA"/>
<path d="M13.5636 16.3516H11.3027V18.6117H13.5636V16.3516Z" fill="#AEB8BA"/>
<path d="M13.5636 14.0901H11.3027L11.3032 16.3506L13.5636 16.3516V14.0901Z" fill="#AEB8BA"/>
<path d="M13.5636 11.83H11.3027V14.0901H13.5636V11.83Z" fill="#AEB8BA"/>
<path d="M13.5636 9.56368H11.3027V11.8287H13.5636V9.56368Z" fill="#B71616"/>
<path d="M13.5636 7.30349H11.3027V9.56368H13.5636V7.30349Z" fill="#B71616"/>
<path d="M13.5636 5.0433H11.3027V7.30349H13.5636V5.0433Z" fill="#B71616"/>
<path d="M13.5636 2.78311H11.3027V5.0433H13.5636V2.78311Z" fill="#B71616"/>
<path d="M13.5636 0.521698H11.3027L11.3032 2.78215L13.5636 2.78311V0.521698Z" fill="#B71616"/>
<path d="M15.8241 43.4787H13.5636V45.7392H15.8241V43.4787Z" fill="#5E5E5E"/>
<path d="M15.8241 41.2185H13.5636V43.4787H15.8241V41.2185Z" fill="#EDEFEF"/>
<path d="M15.8241 38.9571H13.5636V41.2185H15.8241V38.9571Z" fill="#EDEFEF"/>
<path d="M15.8241 36.6969H13.5636V38.9571H15.8241V36.6969Z" fill="#EDEFEF"/>
<path d="M15.8241 34.4355H13.5636V36.6969H15.8241V34.4355Z" fill="#EDEFEF"/>
<path d="M15.8241 32.1753H13.5636V34.4355H15.8241V32.1753Z" fill="#EDEFEF"/>
<path d="M15.8241 29.9151H13.5636V32.1753H15.8241V29.9151Z" fill="#EDEFEF"/>
<path d="M15.8241 27.6549H13.5636V29.9151H15.8241V27.6549Z" fill="#EDEFEF"/>
<path d="M15.8241 25.3935H13.5636V27.6549H15.8241V25.3935Z" fill="#EDEFEF"/>
<path d="M15.8241 23.1333H13.5636V25.3935H15.8241V23.1333Z" fill="#EDEFEF"/>
<path d="M15.8241 20.8732H13.5636V23.1333H15.8241V20.8732Z" fill="#EDEFEF"/>
<path d="M15.8241 18.6117H13.5636V20.8732H15.8241V18.6117Z" fill="#EDEFEF"/>
<path d="M15.8241 16.3516H13.5636V18.6117H15.8241V16.3516Z" fill="#EDEFEF"/>
<path d="M15.8241 14.0901H13.5636V16.3516H15.8241V14.0901Z" fill="#EDEFEF"/>
<path d="M15.8241 11.83H13.5636V14.0901H15.8241V11.83Z" fill="#EDEFEF"/>
<path d="M15.8241 9.56368H13.5636V11.8287H15.8241V9.56368Z" fill="#B71616"/>
<path d="M15.8241 7.30349H13.5636V9.56368H15.8241V7.30349Z" fill="#DB2E2E"/>
<path d="M15.8241 5.0433H13.5636V7.30349H15.8241V5.0433Z" fill="#DB2E2E"/>
<path d="M15.8241 2.78311H13.5636V5.0433H15.8241V2.78311Z" fill="#DB2E2E"/>
<path d="M15.8241 0.521698H13.5636V2.78311H15.8241V0.521698Z" fill="#DE5F86"/>
<path d="M18.085 43.4787H15.8241V45.7392H18.085V43.4787Z" fill="#5E5E5E"/>
<path d="M18.085 41.2185H15.8241V43.4787H18.085V41.2185Z" fill="#EDEFEF"/>
<path d="M18.085 38.9571H15.8241L15.8245 41.2176L18.085 41.2185V38.9571Z" fill="#EDEFEF"/>
<path d="M18.085 36.6969H15.8241V38.9571H18.085V36.6969Z" fill="#EDEFEF"/>
<path d="M18.085 34.4355H15.8241L15.8245 36.696L18.085 36.6969V34.4355Z" fill="#EDEFEF"/>
<path d="M18.085 32.1753H15.8241V34.4355H18.085V32.1753Z" fill="#EDEFEF"/>
<path d="M18.085 29.9151H15.8241V32.1753H18.085V29.9151Z" fill="#EDEFEF"/>
<path d="M18.085 27.6549H15.8241V29.9151H18.085V27.6549Z" fill="#EDEFEF"/>
<path d="M18.085 25.3935H15.8241L15.8245 27.654L18.085 27.6549V25.3935Z" fill="#EDEFEF"/>
<path d="M18.085 23.1333H15.8241V25.3935H18.085V23.1333Z" fill="#EDEFEF"/>
<path d="M18.085 20.8732H15.8241V23.1333H18.085V20.8732Z" fill="#EDEFEF"/>
<path d="M18.085 18.6117H15.8241L15.8245 20.8722L18.085 20.8732V18.6117Z" fill="#EDEFEF"/>
<path d="M18.085 16.3516H15.8241V18.6117H18.085V16.3516Z" fill="#EDEFEF"/>
<path d="M18.085 14.0901H15.8241L15.8245 16.3506L18.085 16.3516V14.0901Z" fill="#EDEFEF"/>
<path d="M18.085 11.83H15.8241V14.0901H18.085V11.83Z" fill="#EDEFEF"/>
<path d="M18.085 9.56368H15.8241V11.8287H18.085V9.56368Z" fill="#B71616"/>
<path d="M18.085 7.30349H15.8241V9.56368H18.085V7.30349Z" fill="#DB2E2E"/>
<path d="M18.085 5.0433H15.8241V7.30349H18.085V5.0433Z" fill="#DB2E2E"/>
<path d="M18.085 2.78311H15.8241V5.0433H18.085V2.78311Z" fill="#DB2E2E"/>
<path d="M18.085 0.521698H15.8241L15.8245 2.78215L18.085 2.78311V0.521698Z" fill="#DE5F86"/>
<path d="M20.3454 43.4787H18.085V45.7392H20.3454V43.4787Z" fill="#5E5E5E"/>
<path d="M20.3454 41.2185H18.085V43.4787H20.3454V41.2185Z" fill="#EDEFEF"/>
<path d="M20.3454 38.9571H18.085V41.2185H20.3454V38.9571Z" fill="#EDEFEF"/>
<path d="M20.3454 36.6969H18.085V38.9571H20.3454V36.6969Z" fill="#EDEFEF"/>
<path d="M20.3454 34.4355H18.085V36.6969H20.3454V34.4355Z" fill="#EDEFEF"/>
<path d="M20.3454 32.1753H18.085V34.4355H20.3454V32.1753Z" fill="#EDEFEF"/>
<path d="M20.3454 29.9151H18.085V32.1753H20.3454V29.9151Z" fill="#EDEFEF"/>
<path d="M20.3454 27.6549H18.085V29.9151H20.3454V27.6549Z" fill="#EDEFEF"/>
<path d="M20.3454 25.3935H18.085V27.6549H20.3454V25.3935Z" fill="#EDEFEF"/>
<path d="M20.3454 23.1333H18.085V25.3935H20.3454V23.1333Z" fill="#EDEFEF"/>
<path d="M20.3454 20.8732H18.085V23.1333H20.3454V20.8732Z" fill="#EDEFEF"/>
<path d="M20.3454 18.6117H18.085V20.8732H20.3454V18.6117Z" fill="#EDEFEF"/>
<path d="M20.3454 16.3516H18.085V18.6117H20.3454V16.3516Z" fill="#EDEFEF"/>
<path d="M20.3454 14.0901H18.085V16.3516H20.3454V14.0901Z" fill="#EDEFEF"/>
<path d="M20.3454 11.83H18.085V14.0901H20.3454V11.83Z" fill="#EDEFEF"/>
<path d="M20.3454 9.56368H18.085V11.8287H20.3454V9.56368Z" fill="#B71616"/>
<path d="M20.3454 7.30349H18.085V9.56368H20.3454V7.30349Z" fill="#DB2E2E"/>
<path d="M20.3454 5.0433H18.085V7.30349H20.3454V5.0433Z" fill="#DB2E2E"/>
<path d="M20.3454 2.78311H18.085V5.0433H20.3454V2.78311Z" fill="#DB2E2E"/>
<path d="M20.3454 0.521698H18.085V2.78311H20.3454V0.521698Z" fill="#DE5F86"/>
<path d="M22.6063 43.4787H20.3454V45.7392H22.6063V43.4787Z" fill="#5E5E5E"/>
<path d="M22.6063 41.2185H20.3454V43.4787H22.6063V41.2185Z" fill="#EDEFEF"/>
<path d="M22.6063 38.9571H20.3454L20.3459 41.2176L22.6063 41.2185V38.9571Z" fill="#EDEFEF"/>
<path d="M22.6063 36.6969H20.3454V38.9571H22.6063V36.6969Z" fill="#EDEFEF"/>
<path d="M22.6063 34.4355H20.3454L20.3459 36.696L22.6063 36.6969V34.4355Z" fill="#EDEFEF"/>
<path d="M22.6063 32.1753H20.3454V34.4355H22.6063V32.1753Z" fill="#EDEFEF"/>
<path d="M22.6063 29.9151H20.3454V32.1753H22.6063V29.9151Z" fill="#EDEFEF"/>
<path d="M22.6063 27.6549H20.3454V29.9151H22.6063V27.6549Z" fill="#EDEFEF"/>
<path d="M22.6063 25.3935H20.3454L20.3459 27.654L22.6063 27.6549V25.3935Z" fill="#EDEFEF"/>
<path d="M22.6063 23.1333H20.3454V25.3935H22.6063V23.1333Z" fill="#EDEFEF"/>
<path d="M22.6063 20.8732H20.3454V23.1333H22.6063V20.8732Z" fill="#EDEFEF"/>
<path d="M22.6063 18.6117H20.3454L20.3459 20.8722L22.6063 20.8732V18.6117Z" fill="#EDEFEF"/>
<path d="M22.6063 16.3516H20.3454V18.6117H22.6063V16.3516Z" fill="#EDEFEF"/>
<path d="M22.6063 14.0901H20.3454L20.3459 16.3506L22.6063 16.3516V14.0901Z" fill="#EDEFEF"/>
<path d="M22.6063 11.83H20.3454V14.0901H22.6063V11.83Z" fill="#EDEFEF"/>
<path d="M22.6063 9.56368H20.3454V11.8287H22.6063V9.56368Z" fill="#B71616"/>
<path d="M22.6063 7.30349H20.3454V9.56368H22.6063V7.30349Z" fill="#DB2E2E"/>
<path d="M22.6063 5.0433H20.3454V7.30349H22.6063V5.0433Z" fill="#DB2E2E"/>
<path d="M22.6063 2.78311H20.3454V5.0433H22.6063V2.78311Z" fill="#DB2E2E"/>
<path d="M22.6063 0.521698H20.3454L20.3459 2.78215L22.6063 2.78311V0.521698Z" fill="#DE5F86"/>
<path d="M24.8668 43.4787H22.6063V45.7392H24.8668V43.4787Z" fill="#5E5E5E"/>
<path d="M24.8668 41.2185H22.6063V43.4787H24.8668V41.2185Z" fill="#EDEFEF"/>
<path d="M24.8668 38.9571H22.6063V41.2185H24.8668V38.9571Z" fill="#EDEFEF"/>
<path d="M24.8668 36.6969H22.6063V38.9571H24.8668V36.6969Z" fill="#EDEFEF"/>
<path d="M24.8668 34.4355H22.6063V36.6969H24.8668V34.4355Z" fill="#EDEFEF"/>
<path d="M24.8668 32.1753H22.6063V34.4355H24.8668V32.1753Z" fill="#242872"/>
<path d="M24.8668 29.9151H22.6063V32.1753H24.8668V29.9151Z" fill="#242872"/>
<path d="M24.8668 27.6549H22.6063V29.9151H24.8668V27.6549Z" fill="#242872"/>
<path d="M24.8668 25.3935H22.6063V27.6549H24.8668V25.3935Z" fill="#242872"/>
<path d="M24.8668 23.1333H22.6063V25.3935H24.8668V23.1333Z" fill="#242872"/>
<path d="M24.8668 20.8732H22.6063V23.1333H24.8668V20.8732Z" fill="#242872"/>
<path d="M24.8668 18.6117H22.6063V20.8732H24.8668V18.6117Z" fill="#EDEFEF"/>
<path d="M24.8668 16.3516H22.6063V18.6117H24.8668V16.3516Z" fill="#EDEFEF"/>
<path d="M24.8668 14.0901H22.6063V16.3516H24.8668V14.0901Z" fill="#EDEFEF"/>
<path d="M24.8668 11.83H22.6063V14.0901H24.8668V11.83Z" fill="#EDEFEF"/>
<path d="M24.8668 9.56368H22.6063V11.8287H24.8668V9.56368Z" fill="#B71616"/>
<path d="M24.8668 7.30349H22.6063V9.56368H24.8668V7.30349Z" fill="#DB2E2E"/>
<path d="M24.8668 5.0433H22.6063V7.30349H24.8668V5.0433Z" fill="#DB2E2E"/>
<path d="M24.8668 2.78311H22.6063V5.0433H24.8668V2.78311Z" fill="#DB2E2E"/>
<path d="M24.8668 0.521698H22.6063V2.78311H24.8668V0.521698Z" fill="#DE5F86"/>
<path d="M27.1277 43.4787H24.8668V45.7392H27.1277V43.4787Z" fill="#5E5E5E"/>
<path d="M27.1277 41.2185H24.8668V43.4787H27.1277V41.2185Z" fill="#EDEFEF"/>
<path d="M27.1277 38.9571H24.8668L24.8672 41.2176L27.1277 41.2185V38.9571Z" fill="#EDEFEF"/>
<path d="M27.1277 36.6969H24.8668V38.9571H27.1277V36.6969Z" fill="#EDEFEF"/>
<path d="M27.1277 34.4355H24.8668L24.8672 36.696L27.1277 36.6969V34.4355Z" fill="#242872"/>
<path d="M27.1277 32.1753H24.8668V34.4355H27.1277V32.1753Z" fill="#EDEFEF"/>
<path d="M27.1277 29.9151H24.8668V32.1753H27.1277V29.9151Z" fill="#EDEFEF"/>
<path d="M27.1277 27.6549H24.8668V29.9151H27.1277V27.6549Z" fill="#EDEFEF"/>
<path d="M27.1277 25.3935H24.8668L24.8672 27.654L27.1277 27.6549V25.3935Z" fill="#EDEFEF"/>
<path d="M27.1277 23.1333H24.8668V25.3935H27.1277V23.1333Z" fill="#EDEFEF"/>
<path d="M27.1277 20.8732H24.8668V23.1333H27.1277V20.8732Z" fill="#EDEFEF"/>
<path d="M27.1277 18.6117H24.8668L24.8672 20.8722L27.1277 20.8732V18.6117Z" fill="#242872"/>
<path d="M27.1277 16.3516H24.8668V18.6117H27.1277V16.3516Z" fill="#EDEFEF"/>
<path d="M27.1277 14.0901H24.8668L24.8672 16.3506L27.1277 16.3516V14.0901Z" fill="#EDEFEF"/>
<path d="M27.1277 11.83H24.8668V14.0901H27.1277V11.83Z" fill="#EDEFEF"/>
<path d="M27.1277 9.56368H24.8668V11.8287H27.1277V9.56368Z" fill="#B71616"/>
<path d="M27.1277 7.30349H24.8668V9.56368H27.1277V7.30349Z" fill="#DB2E2E"/>
<path d="M27.1277 5.0433H24.8668V7.30349H27.1277V5.0433Z" fill="#B71616"/>
<path d="M27.1277 2.78311H24.8668V5.0433H27.1277V2.78311Z" fill="#DB2E2E"/>
<path d="M27.1277 0.521698H24.8668L24.8672 2.78215L27.1277 2.78311V0.521698Z" fill="#DE5F86"/>
<path d="M29.3881 43.4787H27.1277V45.7392H29.3881V43.4787Z" fill="#5E5E5E"/>
<path d="M29.3881 41.2185H27.1277V43.4787H29.3881V41.2185Z" fill="#EDEFEF"/>
<path d="M29.3881 38.9571H27.1277V41.2185H29.3881V38.9571Z" fill="#EDEFEF"/>
<path d="M29.3881 36.6969H27.1277V38.9571H29.3881V36.6969Z" fill="#EDEFEF"/>
<path d="M29.3881 34.4355H27.1277V36.6969H29.3881V34.4355Z" fill="#242872"/>
<path d="M29.3881 32.1753H27.1277V34.4355H29.3881V32.1753Z" fill="#EDEFEF"/>
<path d="M29.3881 29.9151H27.1277V32.1753H29.3881V29.9151Z" fill="#EDEFEF"/>
<path d="M29.3881 27.6549H27.1277V29.9151H29.3881V27.6549Z" fill="#EDEFEF"/>
<path d="M29.3881 25.3935H27.1277V27.6549H29.3881V25.3935Z" fill="#EDEFEF"/>
<path d="M29.3881 23.1333H27.1277V25.3935H29.3881V23.1333Z" fill="#EDEFEF"/>
<path d="M29.3881 20.8732H27.1277V23.1333H29.3881V20.8732Z" fill="#EDEFEF"/>
<path d="M29.3881 18.6117H27.1277V20.8732H29.3881V18.6117Z" fill="#242872"/>
<path d="M29.3881 16.3516H27.1277V18.6117H29.3881V16.3516Z" fill="#EDEFEF"/>
<path d="M29.3881 14.0901H27.1277V16.3516H29.3881V14.0901Z" fill="#EDEFEF"/>
<path d="M29.3881 11.83H27.1277V14.0901H29.3881V11.83Z" fill="#EDEFEF"/>
<path d="M29.3881 9.56368H27.1277V11.8287H29.3881V9.56368Z" fill="#B71616"/>
<path d="M29.3881 7.30349H27.1277V9.56368H29.3881V7.30349Z" fill="#DB2E2E"/>
<path d="M29.3881 5.0433H27.1277V7.30349H29.3881V5.0433Z" fill="#B71616"/>
<path d="M29.3881 2.78311H27.1277V5.0433H29.3881V2.78311Z" fill="#DB2E2E"/>
<path d="M29.3881 0.521698H27.1277V2.78311H29.3881V0.521698Z" fill="#DE5F86"/>
<path d="M31.6495 43.4787H29.3881V45.7392H31.6495V43.4787Z" fill="#5E5E5E"/>
<path d="M31.6495 41.2185H29.3881V43.4787H31.6495V41.2185Z" fill="#EDEFEF"/>
<path d="M31.6495 38.9571H29.3881L29.3886 41.2176L31.6495 41.2185V38.9571Z" fill="#EDEFEF"/>
<path d="M31.6495 36.6969H29.3881V38.9571H31.6495V36.6969Z" fill="#EDEFEF"/>
<path d="M31.6495 34.4355H29.3881L29.3886 36.696L31.6495 36.6969V34.4355Z" fill="#EDEFEF"/>
<path d="M31.6495 32.1753H29.3881V34.4355H31.6495V32.1753Z" fill="#242872"/>
<path d="M31.6495 29.9151H29.3881V32.1753H31.6495V29.9151Z" fill="#242872"/>
<path d="M31.6495 27.6549H29.3881V29.9151H31.6495V27.6549Z" fill="#242872"/>
<path d="M31.6495 25.3935H29.3881L29.3886 27.654L31.6495 27.6549V25.3935Z" fill="#242872"/>
<path d="M31.6495 23.1333H29.3881V25.3935H31.6495V23.1333Z" fill="#242872"/>
<path d="M31.6495 20.8732H29.3881V23.1333H31.6495V20.8732Z" fill="#242872"/>
<path d="M31.6495 18.6117H29.3881L29.3886 20.8722L31.6495 20.8732V18.6117Z" fill="#EDEFEF"/>
<path d="M31.6495 16.3516H29.3881V18.6117H31.6495V16.3516Z" fill="#EDEFEF"/>
<path d="M31.6495 14.0901H29.3881L29.3886 16.3506L31.6495 16.3516V14.0901Z" fill="#EDEFEF"/>
<path d="M31.6495 11.83H29.3881V14.0901H31.6495V11.83Z" fill="#EDEFEF"/>
<path d="M31.6495 9.56368H29.3881V11.8287H31.6495V9.56368Z" fill="#B71616"/>
<path d="M31.6495 7.30349H29.3881V9.56368H31.6495V7.30349Z" fill="#DB2E2E"/>
<path d="M31.6495 5.0433H29.3881V7.30349H31.6495V5.0433Z" fill="#B71616"/>
<path d="M31.6495 2.78311H29.3881V5.0433H31.6495V2.78311Z" fill="#DB2E2E"/>
<path d="M31.6495 0.521698H29.3881L29.3886 2.78215L31.6495 2.78311V0.521698Z" fill="#DE5F86"/>
<path d="M33.9141 43.4787H31.6495V45.7392H33.9141V43.4787Z" fill="#5E5E5E"/>
<path d="M33.9141 41.2185H31.6495V43.4787H33.9141V41.2185Z" fill="#EDEFEF"/>
<path d="M33.9141 38.9571H31.6495L31.649 41.2176L33.9141 41.2185V38.9571Z" fill="#EDEFEF"/>
<path d="M33.9141 36.6969H31.6495V38.9571H33.9141V36.6969Z" fill="#EDEFEF"/>
<path d="M33.9141 34.4355H31.6495L31.649 36.696L33.9141 36.6969V34.4355Z" fill="#EDEFEF"/>
<path d="M33.9141 32.1753H31.6495V34.4355H33.9141V32.1753Z" fill="#EDEFEF"/>
<path d="M33.9141 29.9151H31.6495V32.1753H33.9141V29.9151Z" fill="#EDEFEF"/>
<path d="M33.9141 27.6549H31.6495V29.9151H33.9141V27.6549Z" fill="#EDEFEF"/>
<path d="M33.9141 25.3935H31.6495L31.649 27.654L33.9141 27.6549V25.3935Z" fill="#EDEFEF"/>
<path d="M33.9141 23.1333H31.6495V25.3935H33.9141V23.1333Z" fill="#EDEFEF"/>
<path d="M33.9141 20.8732H31.6495V23.1333H33.9141V20.8732Z" fill="#EDEFEF"/>
<path d="M33.9141 18.6117H31.6495L31.649 20.8722L33.9141 20.8732V18.6117Z" fill="#EDEFEF"/>
<path d="M33.9141 16.3516H31.6495V18.6117H33.9141V16.3516Z" fill="#EDEFEF"/>
<path d="M33.9141 14.0901H31.6495L31.649 16.3506L33.9141 16.3516V14.0901Z" fill="#EDEFEF"/>
<path d="M33.9141 11.83H31.6495V14.0901H33.9141V11.83Z" fill="#EDEFEF"/>
<path d="M33.9141 9.56368H31.6495V11.8287H33.9141V9.56368Z" fill="#B71616"/>
<path d="M33.9141 7.30349H31.6495V9.56368H33.9141V7.30349Z" fill="#DB2E2E"/>
<path d="M33.9141 5.0433H31.6495V7.30349H33.9141V5.0433Z" fill="#B71616"/>
<path d="M33.9141 2.78311H31.6495V5.0433H33.9141V2.78311Z" fill="#DB2E2E"/>
<path d="M33.9141 0.521698H31.6495L31.649 2.78215L33.9141 2.78311V0.521698Z" fill="#DE5F86"/>
<path d="M36.1745 43.4787H33.9141V45.7392H36.1745V43.4787Z" fill="#5E5E5E"/>
<path d="M36.1745 41.2185H33.9141V43.4787H36.1745V41.2185Z" fill="#EDEFEF"/>
<path d="M36.1745 38.9571H33.9141V41.2185H36.1745V38.9571Z" fill="#EDEFEF"/>
<path d="M36.1745 36.6969H33.9141V38.9571H36.1745V36.6969Z" fill="#EDEFEF"/>
<path d="M36.1745 34.4355H33.9141V36.6969H36.1745V34.4355Z" fill="#EDEFEF"/>
<path d="M36.1745 32.1753H33.9141V34.4355H36.1745V32.1753Z" fill="#EDEFEF"/>
<path d="M36.1745 29.9151H33.9141V32.1753H36.1745V29.9151Z" fill="#EDEFEF"/>
<path d="M36.1745 27.6549H33.9141V29.9151H36.1745V27.6549Z" fill="#EDEFEF"/>
<path d="M36.1745 25.3935H33.9141V27.6549H36.1745V25.3935Z" fill="#EDEFEF"/>
<path d="M36.1745 23.1333H33.9141V25.3935H36.1745V23.1333Z" fill="#EDEFEF"/>
<path d="M36.1745 20.8732H33.9141V23.1333H36.1745V20.8732Z" fill="#EDEFEF"/>
<path d="M36.1745 18.6117H33.9141V20.8732H36.1745V18.6117Z" fill="#EDEFEF"/>
<path d="M36.1745 16.3516H33.9141V18.6117H36.1745V16.3516Z" fill="#EDEFEF"/>
<path d="M36.1745 14.0901H33.9141V16.3516H36.1745V14.0901Z" fill="#EDEFEF"/>
<path d="M36.1745 11.83H33.9141V14.0901H36.1745V11.83Z" fill="#EDEFEF"/>
<path d="M36.1745 9.56368H33.9141V11.8287H36.1745V9.56368Z" fill="#B71616"/>
<path d="M36.1745 7.30349H33.9141V9.56368H36.1745V7.30349Z" fill="#DB2E2E"/>
<path d="M36.1745 5.0433H33.9141V7.30349H36.1745V5.0433Z" fill="#B71616"/>
<path d="M36.1745 2.78311H33.9141V5.0433H36.1745V2.78311Z" fill="#DB2E2E"/>
<path d="M36.1745 0.521698H33.9141V2.78311H36.1745V0.521698Z" fill="#DE5F86"/>
<path d="M38.4355 43.4787H36.1745V45.7392H38.4355V43.4787Z" fill="#5E5E5E"/>
<path d="M38.4355 41.2185H36.1745V43.4787H38.4355V41.2185Z" fill="#EDEFEF"/>
<path d="M38.4355 38.9571H36.1745L36.175 41.2176L38.4355 41.2185V38.9571Z" fill="#EDEFEF"/>
<path d="M38.4355 36.6969H36.1745V38.9571H38.4355V36.6969Z" fill="#EDEFEF"/>
<path d="M38.4355 34.4355H36.1745L36.175 36.696L38.4355 36.6969V34.4355Z" fill="#242872"/>
<path d="M38.4355 32.1753H36.1745V34.4355H38.4355V32.1753Z" fill="#EDEFEF"/>
<path d="M38.4355 29.9151H36.1745V32.1753H38.4355V29.9151Z" fill="#EDEFEF"/>
<path d="M38.4355 27.6549H36.1745V29.9151H38.4355V27.6549Z" fill="#EDEFEF"/>
<path d="M38.4355 25.3935H36.1745L36.175 27.654L38.4355 27.6549V25.3935Z" fill="#EDEFEF"/>
<path d="M38.4355 23.1333H36.1745V25.3935H38.4355V23.1333Z" fill="#EDEFEF"/>
<path d="M38.4355 20.8732H36.1745V23.1333H38.4355V20.8732Z" fill="#242872"/>
<path d="M38.4355 18.6117H36.1745L36.175 20.8722L38.4355 20.8732V18.6117Z" fill="#EDEFEF"/>
<path d="M38.4355 16.3516H36.1745V18.6117H38.4355V16.3516Z" fill="#EDEFEF"/>
<path d="M38.4355 14.0901H36.1745L36.175 16.3506L38.4355 16.3516V14.0901Z" fill="#EDEFEF"/>
<path d="M38.4355 11.83H36.1745V14.0901H38.4355V11.83Z" fill="#EDEFEF"/>
<path d="M38.4355 9.56368H36.1745V11.8287H38.4355V9.56368Z" fill="#B71616"/>
<path d="M38.4355 7.30349H36.1745V9.56368H38.4355V7.30349Z" fill="#DB2E2E"/>
<path d="M38.4355 5.0433H36.1745V7.30349H38.4355V5.0433Z" fill="#B71616"/>
<path d="M38.4355 2.78311H36.1745V5.0433H38.4355V2.78311Z" fill="#DB2E2E"/>
<path d="M38.4355 0.521698H36.1745L36.175 2.78215L38.4355 2.78311V0.521698Z" fill="#DE5F86"/>
<path d="M40.6959 43.4787H38.4355V45.7392H40.6959V43.4787Z" fill="#5E5E5E"/>
<path d="M40.6959 41.2185H38.4355V43.4787H40.6959V41.2185Z" fill="#EDEFEF"/>
<path d="M40.6959 38.9571H38.4355V41.2185H40.6959V38.9571Z" fill="#EDEFEF"/>
<path d="M40.6959 36.6969H38.4355V38.9571H40.6959V36.6969Z" fill="#EDEFEF"/>
<path d="M40.6959 34.4355H38.4355V36.6969H40.6959V34.4355Z" fill="#242872"/>
<path d="M40.6959 32.1753H38.4355V34.4355H40.6959V32.1753Z" fill="#242872"/>
<path d="M40.6959 29.9151H38.4355V32.1753H40.6959V29.9151Z" fill="#242872"/>
<path d="M40.6959 27.6549H38.4355V29.9151H40.6959V27.6549Z" fill="#242872"/>
<path d="M40.6959 25.3935H38.4355V27.6549H40.6959V25.3935Z" fill="#242872"/>
<path d="M40.6959 23.1333H38.4355V25.3935H40.6959V23.1333Z" fill="#242872"/>
<path d="M40.6959 20.8732H38.4355V23.1333H40.6959V20.8732Z" fill="#242872"/>
<path d="M40.6959 18.6117H38.4355V20.8732H40.6959V18.6117Z" fill="#242872"/>
<path d="M40.6959 16.3516H38.4355V18.6117H40.6959V16.3516Z" fill="#EDEFEF"/>
<path d="M40.6959 14.0901H38.4355V16.3516H40.6959V14.0901Z" fill="#EDEFEF"/>
<path d="M40.6959 11.83H38.4355V14.0901H40.6959V11.83Z" fill="#EDEFEF"/>
<path d="M40.6959 9.56368H38.4355V11.8287H40.6959V9.56368Z" fill="#B71616"/>
<path d="M40.6959 7.30349H38.4355V9.56368H40.6959V7.30349Z" fill="#DB2E2E"/>
<path d="M40.6959 5.0433H38.4355V7.30349H40.6959V5.0433Z" fill="#B71616"/>
<path d="M40.6959 2.78311H38.4355V5.0433H40.6959V2.78311Z" fill="#DB2E2E"/>
<path d="M40.6959 0.521698H38.4355V2.78311H40.6959V0.521698Z" fill="#DE5F86"/>
<path d="M42.9568 43.4787H40.6959V45.7392H42.9568V43.4787Z" fill="#5E5E5E"/>
<path d="M42.9568 41.2185H40.6959V43.4787H42.9568V41.2185Z" fill="#EDEFEF"/>
<path d="M42.9568 38.9571H40.6959L40.6964 41.2176L42.9568 41.2185V38.9571Z" fill="#EDEFEF"/>
<path d="M42.9568 36.6969H40.6959V38.9571H42.9568V36.6969Z" fill="#EDEFEF"/>
<path d="M42.9568 34.4355H40.6959L40.6964 36.696L42.9568 36.6969V34.4355Z" fill="#242872"/>
<path d="M42.9568 32.1753H40.6959V34.4355H42.9568V32.1753Z" fill="#EDEFEF"/>
<path d="M42.9568 29.9151H40.6959V32.1753H42.9568V29.9151Z" fill="#EDEFEF"/>
<path d="M42.9568 27.6549H40.6959V29.9151H42.9568V27.6549Z" fill="#EDEFEF"/>
<path d="M42.9568 25.3935H40.6959L40.6964 27.654L42.9568 27.6549V25.3935Z" fill="#EDEFEF"/>
<path d="M42.9568 23.1333H40.6959V25.3935H42.9568V23.1333Z" fill="#EDEFEF"/>
<path d="M42.9568 20.8732H40.6959V23.1333H42.9568V20.8732Z" fill="#EDEFEF"/>
<path d="M42.9568 18.6117H40.6959L40.6964 20.8722L42.9568 20.8732V18.6117Z" fill="#EDEFEF"/>
<path d="M42.9568 16.3516H40.6959V18.6117H42.9568V16.3516Z" fill="#EDEFEF"/>
<path d="M42.9568 14.0901H40.6959L40.6964 16.3506L42.9568 16.3516V14.0901Z" fill="#EDEFEF"/>
<path d="M42.9568 11.83H40.6959V14.0901H42.9568V11.83Z" fill="#EDEFEF"/>
<path d="M42.9568 9.56368H40.6959V11.8287H42.9568V9.56368Z" fill="#B71616"/>
<path d="M42.9568 7.30349H40.6959V9.56368H42.9568V7.30349Z" fill="#DB2E2E"/>
<path d="M42.9568 5.0433H40.6959V7.30349H42.9568V5.0433Z" fill="#DB2E2E"/>
<path d="M42.9568 2.78311H40.6959V5.0433H42.9568V2.78311Z" fill="#DB2E2E"/>
<path d="M42.9568 0.521698H40.6959L40.6964 2.78215L42.9568 2.78311V0.521698Z" fill="#DE5F86"/>
<path d="M45.2173 43.4787H42.9568V45.7392H45.2173V43.4787Z" fill="#5E5E5E"/>
<path d="M45.2173 41.2185H42.9568V43.4787H45.2173V41.2185Z" fill="#EDEFEF"/>
<path d="M45.2173 38.9571H42.9568V41.2185H45.2173V38.9571Z" fill="#EDEFEF"/>
<path d="M45.2173 36.6969H42.9568V38.9571H45.2173V36.6969Z" fill="#EDEFEF"/>
<path d="M45.2173 34.4355H42.9568V36.6969H45.2173V34.4355Z" fill="#EDEFEF"/>
<path d="M45.2173 32.1753H42.9568V34.4355H45.2173V32.1753Z" fill="#EDEFEF"/>
<path d="M45.2173 29.9151H42.9568V32.1753H45.2173V29.9151Z" fill="#EDEFEF"/>
<path d="M45.2173 27.6549H42.9568V29.9151H45.2173V27.6549Z" fill="#EDEFEF"/>
<path d="M45.2173 25.3935H42.9568V27.6549H45.2173V25.3935Z" fill="#EDEFEF"/>
<path d="M45.2173 23.1333H42.9568V25.3935H45.2173V23.1333Z" fill="#EDEFEF"/>
<path d="M45.2173 20.8732H42.9568V23.1333H45.2173V20.8732Z" fill="#EDEFEF"/>
<path d="M45.2173 18.6117H42.9568V20.8732H45.2173V18.6117Z" fill="#EDEFEF"/>
<path d="M45.2173 16.3516H42.9568V18.6117H45.2173V16.3516Z" fill="#EDEFEF"/>
<path d="M45.2173 14.0901H42.9568V16.3516H45.2173V14.0901Z" fill="#EDEFEF"/>
<path d="M45.2173 11.83H42.9568V14.0901H45.2173V11.83Z" fill="#EDEFEF"/>
<path d="M45.2173 9.56368H42.9568V11.8287H45.2173V9.56368Z" fill="#B71616"/>
<path d="M45.2173 7.30349H42.9568V9.56368H45.2173V7.30349Z" fill="#DB2E2E"/>
<path d="M45.2173 5.0433H42.9568V7.30349H45.2173V5.0433Z" fill="#DB2E2E"/>
<path d="M45.2173 2.78311H42.9568V5.0433H45.2173V2.78311Z" fill="#DB2E2E"/>
<path d="M45.2173 0.521698H42.9568V2.78311H45.2173V0.521698Z" fill="#DE5F86"/>
<path d="M47.4782 43.4787H45.2173V45.7392H47.4782V43.4787Z" fill="#5E5E5E"/>
<path d="M47.4782 41.2185H45.2173V43.4787H47.4782V41.2185Z" fill="#EDEFEF"/>
<path d="M47.4782 38.9571H45.2173L45.2177 41.2176L47.4782 41.2185V38.9571Z" fill="#EDEFEF"/>
<path d="M47.4782 36.6969H45.2173V38.9571H47.4782V36.6969Z" fill="#EDEFEF"/>
<path d="M47.4782 34.4355H45.2173L45.2177 36.696L47.4782 36.6969V34.4355Z" fill="#EDEFEF"/>
<path d="M47.4782 32.1753H45.2173V34.4355H47.4782V32.1753Z" fill="#EDEFEF"/>
<path d="M47.4782 29.9151H45.2173V32.1753H47.4782V29.9151Z" fill="#EDEFEF"/>
<path d="M47.4782 27.6549H45.2173V29.9151H47.4782V27.6549Z" fill="#EDEFEF"/>
<path d="M47.4782 25.3935H45.2173L45.2177 27.654L47.4782 27.6549V25.3935Z" fill="#EDEFEF"/>
<path d="M47.4782 23.1333H45.2173V25.3935H47.4782V23.1333Z" fill="#EDEFEF"/>
<path d="M47.4782 20.8732H45.2173V23.1333H47.4782V20.8732Z" fill="#EDEFEF"/>
<path d="M47.4782 18.6117H45.2173L45.2177 20.8722L47.4782 20.8732V18.6117Z" fill="#EDEFEF"/>
<path d="M47.4782 16.3516H45.2173V18.6117H47.4782V16.3516Z" fill="#EDEFEF"/>
<path d="M47.4782 14.0901H45.2173L45.2177 16.3506L47.4782 16.3516V14.0901Z" fill="#EDEFEF"/>
<path d="M47.4782 11.83H45.2173V14.0901H47.4782V11.83Z" fill="#EDEFEF"/>
<path d="M47.4782 9.56368H45.2173V11.8287H47.4782V9.56368Z" fill="#B71616"/>
<path d="M47.4782 7.30349H45.2173V9.56368H47.4782V7.30349Z" fill="#DB2E2E"/>
<path d="M47.4782 5.0433H45.2173V7.30349H47.4782V5.0433Z" fill="#DB2E2E"/>
<path d="M47.4782 2.78311H45.2173V5.0433H47.4782V2.78311Z" fill="#DB2E2E"/>
<path d="M47.4782 0.521698H45.2173L45.2177 2.78215L47.4782 2.78311V0.521698Z" fill="#DE5F86"/>
<path d="M49.7386 43.4787H47.4782V45.7392H49.7386V43.4787Z" fill="#5E5E5E"/>
<path d="M49.7386 41.2185H47.4782V43.4787H49.7386V41.2185Z" fill="#EDEFEF"/>
<path d="M49.7386 38.9571H47.4782V41.2185H49.7386V38.9571Z" fill="#EDEFEF"/>
<path d="M49.7386 36.6969H47.4782V38.9571H49.7386V36.6969Z" fill="#EDEFEF"/>
<path d="M49.7386 34.4355H47.4782V36.6969H49.7386V34.4355Z" fill="#EDEFEF"/>
<path d="M49.7386 32.1753H47.4782V34.4355H49.7386V32.1753Z" fill="#EDEFEF"/>
<path d="M49.7386 29.9151H47.4782V32.1753H49.7386V29.9151Z" fill="#EDEFEF"/>
<path d="M49.7386 27.6549H47.4782V29.9151H49.7386V27.6549Z" fill="#EDEFEF"/>
<path d="M49.7386 25.3935H47.4782V27.6549H49.7386V25.3935Z" fill="#EDEFEF"/>
<path d="M49.7386 23.1333H47.4782V25.3935H49.7386V23.1333Z" fill="#EDEFEF"/>
<path d="M49.7386 20.8732H47.4782V23.1333H49.7386V20.8732Z" fill="#EDEFEF"/>
<path d="M49.7386 18.6117H47.4782V20.8732H49.7386V18.6117Z" fill="#EDEFEF"/>
<path d="M49.7386 16.3516H47.4782V18.6117H49.7386V16.3516Z" fill="#EDEFEF"/>
<path d="M49.7386 14.0901H47.4782V16.3516H49.7386V14.0901Z" fill="#EDEFEF"/>
<path d="M49.7386 11.83H47.4782V14.0901H49.7386V11.83Z" fill="#EDEFEF"/>
<path d="M49.7386 9.56368H47.4782V11.8287H49.7386V9.56368Z" fill="#B71616"/>
<path d="M49.7386 7.30349H47.4782V9.56368H49.7386V7.30349Z" fill="#DB2E2E"/>
<path d="M49.7386 5.0433H47.4782V7.30349H49.7386V5.0433Z" fill="#DB2E2E"/>
<path d="M49.7386 2.78311H47.4782V5.0433H49.7386V2.78311Z" fill="#DB2E2E"/>
<path d="M49.7386 0.521698H47.4782V2.78311H49.7386V0.521698Z" fill="#DE5F86"/>
<path d="M52 41.2185H49.7386V43.4787L52 43.479V41.2185Z" fill="white"/>
<path d="M52 38.9571H49.7386L49.7391 41.2176L52 41.2185V38.9571Z" fill="white"/>
<path d="M52 36.6969H49.7386V38.9571H52V36.6969Z" fill="white"/>
<path d="M52 34.4355H49.7386L49.7391 36.696L52 36.6969V34.4355Z" fill="white"/>
<path d="M52 32.1753H49.7386V34.4355H52V32.1753Z" fill="white"/>
<path d="M52 29.9151H49.7386V32.1753H52V29.9151Z" fill="white"/>
<path d="M52 27.6549H49.7386V29.9151H52V27.6549Z" fill="white"/>
<path d="M52 25.3935H49.7386L49.7391 27.654L52 27.6549V25.3935Z" fill="white"/>
<path d="M52 23.1333H49.7386V25.3935H52V23.1333Z" fill="white"/>
<path d="M52 20.8732H49.7386V23.1333H52V20.8732Z" fill="white"/>
<path d="M52 18.6117H49.7386L49.7391 20.8722L52 20.8732V18.6117Z" fill="white"/>
<path d="M52 16.3516H49.7386V18.6117H52V16.3516Z" fill="white"/>
<path d="M52 14.0901H49.7386L49.7391 16.3506L52 16.3516V14.0901Z" fill="white"/>
<path d="M52 11.83H49.7386V14.0901H52V11.83Z" fill="white"/>
<path d="M52 9.56368H49.7386V11.8287H52V9.56368Z" fill="#DB2E2E"/>
<path d="M52 7.30349H49.7386V9.56368H52V7.30349Z" fill="#DE5F86"/>
<path d="M52 5.0433H49.7386V7.30349H52V5.0433Z" fill="#DE5F86"/>
<path d="M52 2.78311H49.7386V5.0433H52V2.78311Z" fill="#DE5F86"/>
</svg>
