<svg width="52" height="65" viewBox="0 0 52 65" fill="none" xmlns="http://www.w3.org/2000/svg">
<path d="M35.8799 3.12L38.4799 3.1212L38.4743 5.72C37.6746 5.565 36.7174 5.64282 35.8968 5.63456L35.8799 3.12Z" fill="#511313"/>
<path d="M4.67993 31.2511C6.57498 31.1014 8.49864 31.3267 10.3999 31.3403L10.3914 33.8L7.88446 33.7846L7.88091 31.3697C6.8139 31.36 5.74042 31.3777 4.67993 31.2511Z" fill="#F3C59F"/>
<path d="M9.59623 46.3049L13 46.28L12.9505 49.183L12.8851 49.5656L12.8675 49.7011C10.8223 49.6836 8.22049 49.3908 6.23999 49.92L6.24721 46.3394L9.59623 46.3049Z" fill="#CA40A6"/>
<path d="M9.87988 46.3036L12.9999 46.28L12.9545 49.0367L12.8946 49.4L9.89839 49.3944L9.87988 46.3036Z" fill="#952FA1"/>
<path d="M16.5809 38.48C16.7072 39.6508 16.6649 40.8413 16.6597 42.0174L16.6905 48.7115C17.3641 48.705 18.0477 48.674 18.72 48.7109C18.0174 48.8499 17.3738 48.8493 16.6636 48.8319C15.4418 48.8634 14.2221 48.8824 13 48.8797L13.052 46.1212C13.3012 44.7789 13.1365 43.2386 13.1097 41.8746L16.5232 41.912C16.5082 40.7636 16.497 39.6262 16.5809 38.48Z" fill="#F3C59F"/>
<path d="M0.00387541 53.0498C1.02432 53.0244 2.0414 53.0537 3.06155 53.0803L3.12 53.1873L3.07549 64.9029C2.07141 64.9283 1.0436 64.9101 0.0439524 65C-0.0319985 61.0208 0.0163076 57.0302 0.00387541 53.0498Z" fill="#952FA1"/>
<path d="M39.7993 46.28L43.4911 46.3L43.4601 49.1375L46.1776 49.1208C46.1802 49.986 46.2254 50.871 46.1096 51.7293C46.7699 52.1584 48.0823 51.9888 48.88 51.9772C48.7793 53.0053 48.7779 54.0122 48.794 55.0448L47.2735 55.1151C46.8815 55.1357 46.6737 55.0951 46.3232 54.9398C46.083 54.6752 46.0978 54.3904 46.0589 54.0459C46.0766 53.5891 46.1417 53.0419 46.0259 52.5976C45.9524 52.3157 45.8864 52.3506 45.6557 52.2132C45.0368 52.2767 44.4079 52.2686 43.7858 52.2826C42.3636 52.3267 40.9424 52.3002 39.52 52.2805C39.5247 51.2712 39.5058 50.287 39.7189 49.2964L39.7765 48.3682L39.7993 46.28Z" fill="#64227C"/>
<path d="M39.7139 49.2179L39.7701 48.36L39.8932 49.0014C40.622 49.3867 41.6465 49.2559 42.4634 49.4178C42.755 49.6872 43.0384 49.9579 43.354 50.2009C43.4788 50.7861 43.6366 51.3811 43.68 51.9778C42.2931 52.0186 40.9072 51.9941 39.52 51.9759C39.5245 51.043 39.5062 50.1334 39.7139 49.2179Z" fill="#952FA1"/>
<path d="M46.1385 10.92C46.5176 15.0137 46.1951 19.3288 46.2216 23.4474L48.8781 23.4462C48.8683 25.8661 48.8443 28.2871 48.8799 30.7067L46.2097 30.7534L46.2059 33.28L42.6526 33.2792L42.6399 23.4618L46.1189 23.463C46.1082 19.2943 45.9726 15.0835 46.1385 10.92Z" fill="#EC9373"/>
<path d="M48.704 52C48.8061 52.9834 48.7755 53.9723 48.7676 54.9596C49.6005 54.9691 50.4741 54.9298 51.3003 55.0243C51.5406 55.5644 51.5369 64.0823 51.3073 64.9083C50.8535 65.0253 50.4533 64.9987 49.9923 64.9733C48.6189 65.0208 47.2347 64.9895 45.8601 64.9937C45.6444 61.5359 45.8434 57.5616 45.8507 54.05C45.89 54.3914 45.875 54.6738 46.1181 54.936C46.4726 55.0898 46.6828 55.13 47.0792 55.1096L48.6171 55.0399C48.6007 54.0166 48.6021 53.0188 48.704 52Z" fill="#952FA1"/>
<path d="M51.3142 54.6C51.5357 55.1633 51.5323 64.0478 51.3207 64.9093C50.9024 65.0314 50.5335 65.0036 50.1085 64.9771C49.7288 64.9315 49.3964 64.869 49.0291 64.7519C48.7358 63.1037 48.9662 56.8257 48.9618 54.6927C49.7549 54.7114 50.5279 54.7425 51.3142 54.6Z" fill="#64227C"/>
<path d="M6.24447 49.6986C8.24956 49.1975 10.8838 49.4748 12.9546 49.4913C13.0549 52.9934 12.9662 56.5128 12.9534 60.0166C12.9478 61.5273 12.8024 63.1979 13.0149 64.6821C13.5408 64.7927 14.023 64.8314 14.56 64.8332C11.9435 65.169 9.02418 64.8941 6.3754 64.8938C4.28075 64.8935 2.0754 65.1175 0 64.9064C0.982738 64.8179 1.99316 64.8358 2.98025 64.8108L3.024 53.2827L2.96655 53.1774C3.14819 52.1158 3.06131 50.966 3.05168 49.8879C4.09855 49.6924 5.20863 49.9653 6.24447 49.6986Z" fill="#FA9EC3"/>
<path d="M3.20179 49.92C4.21975 50.0052 5.22128 49.9659 6.24012 49.9232L6.23568 53.56L3.17524 53.522L3.12012 53.4103C3.29437 52.2839 3.21102 51.0639 3.20179 49.92Z" fill="#CA40A6"/>
<path d="M35.7566 42.3584C35.7341 41.2358 35.7299 40.122 35.7756 39C35.7987 40.1392 35.837 41.2809 35.8097 42.4204L39.8541 42.483L39.8339 46.2002L39.8105 48.2681L39.7515 49.1874C39.5333 50.1684 39.5526 51.1431 39.5478 52.1427C41.0046 52.1622 42.4603 52.1884 43.9168 52.1447C44.5539 52.1309 45.1981 52.1388 45.832 52.076C46.0683 52.212 46.1359 52.1775 46.2112 52.4567C46.3297 52.8967 46.263 53.4386 46.2449 53.8909C46.2375 57.4002 46.0359 61.3718 46.2544 64.8274L14.6885 65C14.1424 64.9982 13.652 64.9593 13.1172 64.8483C12.901 63.3589 13.049 61.6824 13.0546 60.1663C13.0676 56.65 13.1578 53.118 13.0558 49.6035L13.0739 49.4748L13.1412 49.1112C14.3407 49.1139 15.5378 49.0949 16.737 49.0634C17.434 49.0808 18.0658 49.0814 18.7554 48.9424C18.0954 48.9054 17.4246 48.9365 16.7635 48.943L16.7332 42.2492L19.5858 42.2589C20.4708 42.2539 21.3602 42.268 22.2446 42.2412C23.2365 42.2158 24.2333 42.168 25.2247 42.215L27.902 42.2194C29.4271 42.1889 30.9349 42.1775 32.4596 42.2574L35.7566 42.3584Z" fill="url(#paint0_linear_0_4466)"/>
<path d="M16.6873 52C17.6592 52.0339 18.6392 52.0117 19.612 52.0123L19.7599 52.0149L19.7371 52.8331C19.5322 53.5714 19.5803 54.3562 19.5726 55.1156C18.8733 55.0962 17.5604 55.2391 17.0283 54.725C16.4645 54.1803 16.6777 52.7129 16.6873 52Z" fill="#952FA1"/>
<path d="M19.7905 52.0252L22.3069 52C22.304 53.0255 22.242 54.1048 22.36 55.12L19.76 55.1173L19.771 52.8433L19.7905 52.0252Z" fill="#E9E1AB"/>
<path d="M18.7021 48.8859C19.1256 48.8898 19.2955 48.818 19.6147 49.0875C19.8813 49.9659 19.7055 50.9539 19.6729 51.8626L19.6599 52L19.5151 51.9975C18.6746 51.7527 17.5307 51.8729 16.6399 51.8782L16.6483 48.9995C17.3576 49.0158 18.0005 49.0163 18.7021 48.8859Z" fill="url(#paint1_linear_0_4466)"/>
<path d="M31.2043 55.64C32.1034 55.6712 33.0114 55.6779 33.9088 55.7378L34.32 55.7228L34.3027 58.7388L31.4223 58.76L31.2491 57.5291C31.1687 56.9208 31.2134 56.2559 31.2043 55.64Z" fill="#64227C"/>
<path d="M36.5282 50.96L36.622 51.902L36.8191 52.0695C36.9646 53.1935 36.9112 54.3585 36.9073 55.4921C36.1347 55.5052 34.9301 55.3723 34.2115 55.6237L33.8 55.64C33.8686 54.4957 33.8111 53.3191 33.8028 52.1715C34.6184 52.1444 35.4003 52.2377 36.1881 51.9632C36.5356 51.6013 36.4804 51.4585 36.5282 50.96Z" fill="#64227C"/>
<path d="M30.9774 57.2L31.1458 58.5141C31.237 59.6063 31.1908 60.7025 31.1681 61.7972C29.1082 61.8315 27.0271 61.9285 24.9696 61.8501L22.4058 61.8403C22.4088 60.8733 22.2331 59.4 22.5515 58.5132L24.9171 58.5251L24.98 58.4988L28.2762 58.5098C29.0754 58.4966 29.9849 58.7532 30.7255 58.3916C31.0259 57.9729 30.9601 57.717 30.9774 57.2Z" fill="#952FA1"/>
<path d="M25.0184 58.76L28.08 58.7707L27.8871 61.8652C26.9362 61.873 25.9846 61.8896 25.0333 61.8727L24.96 58.7855L25.0184 58.76Z" fill="#64227C"/>
<path d="M19.7727 52.0414C20.7202 52.0324 21.7367 51.9481 22.6756 52.0495C25.007 52.1798 27.5445 52.2544 29.8706 52.0788C31.0538 52.1705 32.6895 51.8065 33.7698 52.1732C33.778 53.28 33.835 54.4148 33.7671 55.5183C32.8779 55.4554 31.9781 55.4485 31.0871 55.4157C31.0962 56.0619 31.0518 56.7596 31.1314 57.3979C31.1138 57.9061 31.1808 58.1576 30.8745 58.5691C30.1196 58.9244 29.1924 58.6723 28.3779 58.6852L25.0179 58.6744L24.9538 58.7003L22.5423 58.6886C22.674 57.6056 22.7854 56.4554 22.6326 55.3712C22.5006 54.3278 22.57 53.2187 22.5732 52.1648L19.76 52.1907L19.7727 52.0414Z" fill="#F6D556"/>
<path d="M22.4549 55.1729L24.9601 55.12C24.9284 56.2675 24.7644 57.6099 24.9595 58.7321L24.8922 58.76L22.3601 58.7474C22.4984 57.5804 22.6154 56.3411 22.4549 55.1729Z" fill="#CA40A6"/>
<path d="M22.0841 42.1653C23.064 42.1403 24.0486 42.0934 25.028 42.1395L27.6728 42.1438C27.6713 43.4437 27.6353 44.7533 27.6731 46.052L27.7562 46.0987C27.7026 46.4628 27.6617 46.7915 27.6874 47.1617C27.6971 47.2026 27.7076 47.2432 27.717 47.284C28.0553 48.7523 27.6417 50.1912 27.8895 51.6163C28.2866 51.6729 28.6761 51.7285 29.0767 51.7529C29.3028 51.7665 29.4358 51.81 29.6399 51.9004C27.3225 52.0697 24.7945 51.9979 22.4718 51.8723C21.5365 51.7745 20.5238 51.8557 19.5799 51.8644C19.6115 50.913 19.7822 49.8786 19.5233 48.959C19.2135 48.6769 19.0486 48.7521 18.6374 48.7479C17.9855 48.7117 17.3228 48.7421 16.6697 48.7486L16.6399 42.1729L19.4578 42.1825C20.332 42.1777 21.2105 42.1916 22.0841 42.1653Z" fill="#F9C430"/>
<path d="M19.76 42.1379C20.5775 42.1328 21.399 42.1471 22.216 42.12L22.2039 46.2065C23.1183 46.1863 24.0483 46.2045 24.96 46.1412L24.9058 46.28L20.0054 46.2746C20.0144 45.3992 20.2631 42.7043 19.76 42.1379Z" fill="#D66924"/>
<path d="M22.3721 42.1669C23.2817 42.1411 24.1957 42.0924 25.1048 42.1402L27.5598 42.1447C27.5585 43.4921 27.5251 44.8496 27.5601 46.1959L25.0961 46.2142C24.191 46.2779 23.2679 46.2596 22.3601 46.28L22.3721 42.1669Z" fill="#5C3222"/>
<path d="M24.9692 42.12L27.5597 42.1246C27.5582 43.5005 27.523 44.8866 27.56 46.2613L24.96 46.28C25.0383 44.9065 24.9741 43.4975 24.9692 42.12Z" fill="#9F501F"/>
<path d="M27.6425 46.28L27.727 46.3249C27.6726 46.6751 27.631 46.9912 27.6572 47.3472C27.667 47.3865 27.6777 47.4255 27.6872 47.4648C28.0308 48.8769 27.6107 50.2605 27.8623 51.6311C28.2657 51.6855 28.6613 51.739 29.0682 51.7624C29.2978 51.7755 29.4328 51.8173 29.6401 51.9043C27.2865 52.0671 24.7191 51.998 22.3601 51.8772L22.3788 49.5194L24.9287 49.5186C24.9373 48.486 24.9287 47.4586 24.8876 46.4265L24.9465 46.2969L27.6425 46.28Z" fill="#ED832B"/>
<path d="M27.9871 46.28L28.08 46.3228C28.0201 46.6568 27.9744 46.9584 28.0032 47.2979L27.9734 49.3796C26.9942 49.3841 25.9797 49.429 25.0051 49.3692C25.0145 48.3842 25.0051 47.4043 24.96 46.4198L25.0247 46.2962L27.9871 46.28Z" fill="#892511"/>
<path d="M35.4257 42.2965C35.4032 41.1945 35.399 40.1013 35.4447 39C35.4678 40.1182 35.506 41.2389 35.4788 42.3573L39.5201 42.4187L39.4999 46.0675L39.4765 48.0972L39.4176 48.9995C39.1995 49.9624 39.2188 50.9192 39.214 51.9003L36.5067 51.9053L36.31 51.7497L36.2164 50.8749C36.1687 51.3378 36.2238 51.4705 35.8769 51.8065C35.0907 52.0614 34.3104 51.9748 33.4963 52C32.4076 51.6469 30.7594 51.9974 29.567 51.9091C29.3605 51.8187 29.226 51.7753 28.9974 51.7616C28.5921 51.7373 28.1981 51.6817 27.7964 51.6252C27.5458 50.2012 27.9641 48.7635 27.6219 47.2963C27.6125 47.2555 27.6018 47.2149 27.592 47.1741C27.566 46.8042 27.6075 46.4757 27.6616 46.1119L27.5775 46.0653C27.5392 44.7675 27.5757 43.4591 27.5772 42.1602C29.1011 42.1304 30.6077 42.1191 32.1312 42.1976L35.4257 42.2965Z" fill="#D66924"/>
<path d="M27.5776 42.1433C29.1377 42.1124 30.6802 42.1008 32.2401 42.1819C32.2061 43.5463 32.2171 44.9074 32.2328 46.2719C30.7187 46.262 29.1735 46.318 27.664 46.227L27.5779 46.1788C27.5388 44.8378 27.576 43.4855 27.5776 42.1433Z" fill="#5C3222"/>
<path d="M35.8799 42.64L39.5199 42.7002L39.5018 46.2771L39.4807 48.2669L39.4276 49.1515C39.2312 50.0954 39.2485 51.0333 39.2442 51.9952L36.8058 52L36.6286 51.8475L36.5442 50.9899C36.4877 50.378 36.4506 49.7655 36.4122 49.1521C35.8436 47.5255 36.013 44.4657 35.8799 42.64Z" fill="#ED832B"/>
<path d="M36.3999 49.4005L39.5199 49.4C39.3167 50.2616 39.3347 51.1177 39.3302 51.9956L36.8071 52L36.6238 51.8608L36.5365 51.0781C36.478 50.5194 36.4396 49.9604 36.3999 49.4005Z" fill="#64227C"/>
<path d="M10.4603 0.0189032L36.0072 0C35.992 0.928847 35.9941 1.84761 36.0392 2.77553L36.0562 5.28328C36.8789 5.29152 37.8385 5.21398 38.6401 5.36848C39.4628 5.46819 40.3686 5.37382 41.1664 5.54367L41.1661 7.82279C41.8213 7.8461 42.5169 7.82364 43.1623 7.934C43.3122 7.95845 43.4373 7.95881 43.5644 8.04552C43.6321 8.90294 43.6479 9.74565 43.6426 10.6054C44.491 10.6098 45.4501 10.5358 46.2799 10.6892C46.1139 14.8749 46.2496 19.1081 46.2603 23.2991L42.7795 23.298L42.7922 33.1678L42.786 35.9631L40.1433 35.9639L40.1522 38.7796C38.631 38.7717 37.1023 38.7354 35.582 38.7634C35.5363 39.8849 35.5404 40.998 35.5629 42.12L32.26 42.0192C30.7325 41.9392 29.222 41.9507 27.6942 41.9811L25.012 41.9767C24.0188 41.9298 23.0204 41.9776 22.0265 42.003C21.1406 42.0298 20.2496 42.0156 19.363 42.0206L16.5053 42.0109C16.5104 40.8355 16.5519 39.6457 16.4278 38.4755C15.148 38.474 13.8825 38.5327 12.6053 38.6153L12.6104 35.7147C11.7375 35.6663 10.8445 35.6958 9.96921 35.6876L9.97779 33.6403L9.98638 31.096C8.06951 31.0819 6.13009 30.8488 4.21951 31.0037C4.23046 29.5637 4.22159 28.1276 4.19576 26.6879C4.12749 25.578 4.17793 24.4394 4.17672 23.326C5.07515 23.3142 5.95993 23.3053 6.85657 23.3824L6.82243 11.903L6.7999 5.91769L10.4527 5.94043L10.4603 0.0189032Z" fill="#5C3222"/>
<path d="M38.48 5.72327C39.3609 5.76502 40.207 5.77998 41.0887 5.71997L41.0884 8.02468C41.7684 8.04825 42.4902 8.02553 43.16 8.13714C42.5547 8.18098 41.5024 8.07836 40.9845 8.31997C40.3152 7.95669 39.257 8.124 38.4834 8.12342L38.48 5.72327Z" fill="#29182C"/>
<path d="M43.2683 8.31995C43.4219 8.34393 43.5499 8.34428 43.6801 8.42934C43.5807 9.2413 43.6238 10.0923 43.6156 10.9104L41.0801 10.9199C41.0828 10.1126 41.1062 9.30474 41.1221 8.49739C41.6329 8.26299 42.671 8.36248 43.2683 8.31995Z" fill="#16192D"/>
<path d="M17.8448 15.08L21.7655 15.1111L21.764 20.2456C27.827 20.2109 33.9043 20.1568 39.9663 20.2536L39.9648 29.4221C39.9645 31.2046 39.8619 33.0645 40.0399 34.835L35.6559 34.84L35.6785 31.0296L21.7432 31.0281C21.7121 29.8432 21.7151 28.6491 21.8283 27.4684L17.7034 27.4717C17.6914 25.9004 17.6377 24.3168 17.7491 22.7488C18.0879 20.3345 17.843 17.5375 17.8448 15.08Z" fill="#F3C59F"/>
<path d="M31.2 22.88L35.36 22.89L35.3481 27.482C33.9641 27.4731 32.5942 27.4728 31.2121 27.56L31.2 22.88Z" fill="#18173F"/>
<path d="M17.7468 22.8864L21.7681 22.88C21.7724 24.3481 21.9705 26.1242 21.6896 27.5568L17.7026 27.56C17.691 26.0051 17.6391 24.438 17.7468 22.8864Z" fill="#18173F"/>
<path d="M6.87877 11.96C11.8308 12.202 16.805 12.1452 21.7619 12.1446L21.757 14.7422C19.7075 14.725 16.3113 14.4341 14.3845 14.8192C15.4641 14.9756 16.6261 14.9007 17.7194 14.9001C17.7176 17.3748 17.9709 20.1914 17.6206 22.6225C17.5053 24.2014 17.5608 25.7961 17.5733 27.3783L21.8399 27.3751C21.7228 28.5641 21.7198 29.7665 21.7519 30.9596L17.452 30.9563L17.4729 34.65L12.8211 34.6429L12.7892 35.88C11.8978 35.8313 10.9859 35.861 10.0921 35.8527L10.1009 33.7961L10.1097 31.2403C8.15223 31.2261 6.17178 30.992 4.22078 31.1475C4.23196 29.701 4.2229 28.2584 4.19652 26.8122C4.1268 25.6972 4.17832 24.5534 4.17708 23.435C5.09452 23.4231 5.99801 23.4142 6.91362 23.4916L6.87877 11.96Z" fill="#511313"/>
<path d="M4.17798 23.4084C5.14071 23.3957 6.0888 23.3861 7.04962 23.4693C8.16257 23.5642 9.27775 23.54 10.3932 23.5333L10.3999 27.0317C8.33986 27.0221 6.25558 26.9501 4.1983 27.04C4.12514 25.8411 4.17928 24.6112 4.17798 23.4084Z" fill="#F3C59F"/>
<path d="M4.67993 27.0786C6.5763 27.0009 8.49762 27.0632 10.3967 27.0715L10.3999 31.2C8.50646 31.1868 6.59072 30.9689 4.70347 31.1137C4.71422 29.7675 4.70545 28.4247 4.67993 27.0786Z" fill="#F2A668"/>
<path d="M14.5733 15.08C15.6256 15.2358 16.7582 15.1611 17.8238 15.1606C17.822 17.6264 18.0689 20.433 17.7274 22.8554C17.6151 24.4287 17.6692 26.0177 17.6814 27.5943L21.84 27.591C21.7259 28.7758 21.7229 29.9739 21.7542 31.1628L17.5631 31.1595L17.5835 34.84L13.0494 34.8329C13.1476 30.3234 13.0548 25.7948 13.0527 21.2824C13.0515 19.3247 12.8922 17.2287 13.1334 15.2867C13.5002 15.0489 14.1363 15.0994 14.5733 15.08Z" fill="white"/>
<path d="M43.6025 10.9244C44.5006 10.9549 45.3818 10.9677 46.28 10.92C46.1159 15.075 46.25 19.2771 46.2606 23.4374L42.8206 23.4363L42.8332 33.2336L42.827 36.0084L40.2153 36.0092L40.2241 38.8042C38.7207 38.7963 37.21 38.7603 35.7074 38.7881C35.6622 39.9013 35.6663 41.0063 35.6886 42.12L32.4244 42.0199C30.9148 41.9406 29.422 41.952 27.9121 41.9822L25.2613 41.9778C24.2798 41.9313 23.293 41.9787 22.3108 42.0039C21.4352 42.0305 20.5547 42.0164 19.6785 42.0214L16.8542 42.0118C16.8593 40.845 16.9004 39.6639 16.7777 38.5023C15.5129 38.5009 14.2622 38.5591 13 38.6411L13.005 35.7618L13.0359 34.5394L17.5379 34.5464L17.5177 30.8964L21.6792 30.8997L35.6294 30.9012L35.6068 34.6927L39.9956 34.6878C40.2553 33.2165 40.0762 31.4496 40.0733 29.9399L40.0481 20.0755L43.5951 20.0655C43.5792 17.0183 43.5602 13.9715 43.6025 10.9244Z" fill="#16192D"/>
<path d="M21.3201 34.3199L31.1974 34.3286L31.2001 37.9599C27.9105 37.9113 24.6163 37.9322 21.3262 37.9197L21.3201 34.3199Z" fill="#F3C59F"/>
<defs>
<linearGradient id="paint0_linear_0_4466" x1="13.4577" y1="49.0173" x2="47.6135" y2="58.1352" gradientUnits="userSpaceOnUse">
<stop stop-color="#B33BA4"/>
<stop offset="1" stop-color="#A661B6"/>
</linearGradient>
<linearGradient id="paint1_linear_0_4466" x1="16.8138" y1="51.4775" x2="19.3755" y2="49.2594" gradientUnits="userSpaceOnUse">
<stop stop-color="#F8D6AD"/>
<stop offset="1" stop-color="#ECBDB0"/>
</linearGradient>
</defs>
</svg>
