<svg width="25" height="26" viewBox="0 0 25 26" fill="none" xmlns="http://www.w3.org/2000/svg">
<path d="M9.47092 21.6987H8.89948V22.0552H9.47092V21.6987Z" fill="#353535"/>
<path d="M7.57654 18.7397H7.0051V19.0962H7.57654V18.7397Z" fill="#353535"/>
<path d="M3.78826 13.808H3.21682V14.1645H3.78826V13.808Z" fill="#353535"/>
<path d="M22.7301 2.95898V3.94543H23.1056V2.32903H21.7832V2.95898H22.7301Z" fill="#353535"/>
<path d="M5.68264 16.7669H5.11119V17.1234H5.68264V16.7669Z" fill="#353535"/>
<path d="M6.62959 17.7533H6.05815V18.1098H6.62959V17.7533Z" fill="#353535"/>
<path d="M10.4179 22.6846H9.84641V23.0411H10.4179V22.6846Z" fill="#353535"/>
<path d="M24.0526 5.28782V4.30184H23.6771V9.8631H22.7301V11.8355H21.7832V12.822H20.8357V13.808H19.8888V15.7809H18.9418V16.7668H17.9949V17.7533H17.0475V18.7397H16.1005V20.7122H15.1536V21.6986H14.2061V22.6846H13.2592V23.6711H12.3122V24.6575H11.7408V25.0135H12.6877V26H13.6347V25.0135H14.5821V24.0276H15.5291V23.0411H16.476V22.0547H17.423V20.0822H18.3704V19.0958H19.3174V18.1098H20.2643V17.1234H21.2117V15.1509H22.1587V14.1645H23.1056V13.1785H24.0526V11.2056H25V5.28782H24.0526Z" fill="#353535"/>
<path d="M11.3653 23.6711H10.7939V24.0276H11.3653V23.6711Z" fill="#353535"/>
<path d="M2.84133 12.8219H2.26988V13.1784H2.84133V12.8219Z" fill="#353535"/>
<path d="M22.7301 3.94543V2.95898H21.7832L21.7832 0.986453H19.8888V0H14.2062V0.986453H12.3123V1.97291H11.3653V0.986453H9.47093V0H3.78828V0.986453H1.89438V2.95888H0.947423V3.94534H2.33313e-06V9.8631H0.947423V11.8355H1.89438V12.822L2.84133 12.8219L2.84133 13.808L3.78826 13.808L3.78828 15.7809H4.7357V16.7668L5.68264 16.7669L5.68265 17.7533L6.62959 17.7533L6.6296 18.7398H7.57702V20.7122H8.52397V21.6986L9.47092 21.6987L9.47093 22.6846L10.4179 22.6846L10.4179 23.6711L11.3653 23.6711L11.3653 24.6575L12.3122 24.6575V23.6711H13.2592V22.6846H14.2061V21.6986H15.1536V20.7122H16.1005V18.7397H17.0475V17.7533H17.9949V16.7668H18.9418V15.7809H19.8888V13.808H20.8357V12.822H21.7832V11.8355H22.7301V9.8631H23.6771L23.6771 3.94534L22.7301 3.94543Z" fill="#E41D21"/>
<path d="M12.3122 23.6711L11.3653 23.6711L11.3653 24.6575L12.3122 24.6575V23.6711Z" fill="#9B2625"/>
<path d="M13.2592 22.6846L12.3122 22.6846L12.3122 23.6711H13.2592V22.6846Z" fill="#9B2625"/>
<path d="M12.3122 22.6846H11.3653L11.3653 23.6711L12.3122 23.6711L12.3122 22.6846Z" fill="#ED6B23"/>
<path d="M11.3648 22.6846L10.4179 22.6846L10.4179 23.6711L11.3648 23.6711V22.6846Z" fill="#9B2625"/>
<path d="M14.2061 21.6986L13.2592 21.6986V22.6851H14.2062L14.2061 21.6986Z" fill="#9B2625"/>
<path d="M11.3653 21.6986H12.3122V20.7122H10.4179L10.4179 22.6846L11.3653 22.6846L11.3653 21.6986Z" fill="#ED6B23"/>
<path d="M10.4179 21.6986L9.47092 21.6987L9.47092 22.6851H10.4179V21.6986Z" fill="#9B2625"/>
<path d="M15.1531 20.7122H14.2062L14.2061 21.6986L15.1531 21.6986V20.7122Z" fill="#A0312B"/>
<path d="M14.2062 20.7122H13.2592V21.6986L14.2061 21.6986L14.2062 20.7122Z" fill="#A62424"/>
<path d="M10.4179 20.7122H9.47092L9.47092 21.6987L10.4179 21.6986V20.7122Z" fill="#BE2522"/>
<path d="M9.47092 20.7122H8.52397V21.6986L9.47092 21.6987L9.47092 20.7122Z" fill="#CC907B"/>
<path d="M16.1005 19.7257H15.1536L15.1536 20.7122H16.1005L16.1005 19.7257Z" fill="#CB8B77"/>
<path d="M15.1531 19.7257H14.2062V20.7122H15.1531V19.7257Z" fill="#9B2625"/>
<path d="M10.4179 19.7257H9.47092V20.7122H10.4179V19.7257Z" fill="#ED6B23"/>
<path d="M9.47092 19.7257H8.52397L8.52397 20.7122H9.47092V19.7257Z" fill="#9B2625"/>
<path d="M8.52397 19.7257H7.57702L7.57702 20.7122H8.52397L8.52397 19.7257Z" fill="#C7826F"/>
<path d="M16.1005 18.7397L15.1536 18.7398V19.7262H16.1005L16.1005 18.7397Z" fill="#9B2625"/>
<path d="M9.47092 18.7398H8.52397V19.7262H9.47092V18.7398Z" fill="#ED6B23"/>
<path d="M8.52397 18.7398H7.57702L7.57702 19.7262H8.52397V18.7398Z" fill="#9B2625"/>
<path d="M17.0475 17.7533L16.1005 17.7533L16.1005 18.7397H17.0475V17.7533Z" fill="#9B2625"/>
<path d="M8.52397 17.7533H7.57702L7.57702 18.7398H8.52397L8.52397 17.7533Z" fill="#ED6B23"/>
<path d="M7.57655 17.7533L6.62959 17.7533L6.6296 18.7398L7.57654 18.7397L7.57655 17.7533Z" fill="#9B2625"/>
<path d="M17.9944 16.7668H17.0475L17.0475 17.7533L17.9944 17.7533V16.7668Z" fill="#9B2625"/>
<path d="M7.57655 16.7668H6.6296L6.62959 17.7533L7.57655 17.7533V16.7668Z" fill="#ED6B23"/>
<path d="M6.6296 16.7668L5.68264 16.7669L5.68265 17.7533L6.62959 17.7533L6.6296 16.7668Z" fill="#9B2625"/>
<path d="M18.9418 15.7809L17.9949 15.7809V16.7673H18.9419L18.9418 15.7809Z" fill="#9B2625"/>
<path d="M17.9944 15.7809H17.0475V16.7673H17.9944V15.7809Z" fill="#E41D21"/>
<path d="M6.6296 14.7944H5.68265L5.68264 16.7669L6.6296 16.7668L6.6296 14.7944Z" fill="#ED6B23"/>
<path d="M19.8888 14.7944H18.9419L18.9418 15.7809H19.8888L19.8888 14.7944Z" fill="#C7826F"/>
<path d="M18.9419 14.7944H17.9949V15.7809L18.9418 15.7809L18.9419 14.7944Z" fill="#9C2725"/>
<path d="M5.68265 14.7944H4.73569L4.7357 16.7668L5.68264 16.7669L5.68265 14.7944Z" fill="#9B2625"/>
<path d="M4.73523 14.7944H3.78828L3.78828 15.7809L4.73523 15.7809V14.7944Z" fill="#C7826F"/>
<path d="M19.8888 13.808L18.9419 13.808V14.7944H19.8888L19.8888 13.808Z" fill="#9B2625"/>
<path d="M5.68265 13.808H4.73569V14.7944H5.68265V13.808Z" fill="#ED6B23"/>
<path d="M4.73523 13.808L3.78826 13.808L3.78828 14.7944H4.73523V13.808Z" fill="#9B2625"/>
<path d="M20.8357 12.822L19.8888 12.822V13.8084H20.8358L20.8357 12.822Z" fill="#9B2625"/>
<path d="M4.73523 12.822H3.78828V13.8084H4.73523V12.822Z" fill="#ED6B23"/>
<path d="M3.78828 12.822L2.84133 12.8219L2.84133 13.8084H3.78828V12.822Z" fill="#9B2625"/>
<path d="M21.7827 11.8355H20.8358L20.8357 12.822L21.7827 12.822V11.8355Z" fill="#9B2625"/>
<path d="M3.78828 10.8496H2.84133L2.84133 12.8219L3.78828 12.822V10.8496Z" fill="#ED6B23"/>
<path d="M2.84133 11.8355L1.89438 11.8355V12.822L2.84133 12.8219L2.84133 11.8355Z" fill="#9B2625"/>
<path d="M22.7301 10.8496H21.7832V11.836H22.7301V10.8496Z" fill="#C57E6B"/>
<path d="M21.7827 10.8496H20.8358V11.836H21.7827V10.8496Z" fill="#A22724"/>
<path d="M2.84133 10.8496H1.89437V11.836H2.84133V10.8496Z" fill="#B82423"/>
<path d="M1.89437 10.8496H0.947421V11.836H1.89437V10.8496Z" fill="#C7826F"/>
<path d="M22.7301 9.8631L21.7832 9.8631V10.8496H22.7301L22.7301 9.8631Z" fill="#9B2625"/>
<path d="M2.84133 9.8631H1.89437V10.8496H2.84133V9.8631Z" fill="#ED6B23"/>
<path d="M1.89437 9.8631L0.947423 9.8631L0.947421 10.8496H1.89437V9.8631Z" fill="#9B2625"/>
<path d="M23.6771 8.87665H22.7301L22.7301 9.8631H23.6771L23.6771 8.87665Z" fill="#9C2725"/>
<path d="M1.89437 3.94534H0.947423V9.8631L1.89437 9.8631V3.94534Z" fill="#ED6B23"/>
<path d="M0.946952 8.87665H0L2.33313e-06 9.8631H0.946952V8.87665Z" fill="#CA8975"/>
<path d="M0.946952 4.93179H0V8.87713H0.946952V4.93179Z" fill="#9B2625"/>
<path d="M23.6771 3.94534L22.7301 3.94543L22.7301 8.87665H23.6771L23.6771 3.94534Z" fill="#9B2625"/>
<path d="M0.946952 3.94534H2.33313e-06L0 4.93179H0.946952V3.94534Z" fill="#B25544"/>
<path d="M22.7301 2.95898H21.7832L21.7832 3.94534L22.7301 3.94543V2.95898Z" fill="#9B2625"/>
<path d="M17.9949 2.95888V3.94534H18.9419V4.93179H19.8888V2.95888H17.9949Z" fill="#F2F2F2"/>
<path d="M12.3122 2.95888H11.3653V3.94534H12.3122V2.95888Z" fill="#9E2725"/>
<path d="M11.3648 2.95888H10.4179V3.94534H11.3648V2.95888Z" fill="#ED6B23"/>
<path d="M2.84133 2.95888L1.89438 2.95888L1.89437 3.94534L2.84133 3.94534V2.95888Z" fill="#ED6B23"/>
<path d="M1.89438 2.95888H0.947423V3.94534H1.89437L1.89438 2.95888Z" fill="#9B2625"/>
<path d="M21.7827 1.97291H20.8358V2.95936H21.7827V1.97291Z" fill="#9B2625"/>
<path d="M13.2592 1.97291L12.3123 1.97291L12.3122 2.95936H13.2592V1.97291Z" fill="#9B2625"/>
<path d="M12.3123 1.97291H11.3653L11.3653 2.95936H12.3122L12.3123 1.97291Z" fill="#BA6753"/>
<path d="M11.3648 1.97291H10.4179V2.95936H11.3648V1.97291Z" fill="#9B2625"/>
<path d="M10.4179 1.97291H9.47092V2.95936H10.4179V1.97291Z" fill="#ED6B23"/>
<path d="M3.78828 1.97291H2.84133V2.95936H3.78828V1.97291Z" fill="#ED6B23"/>
<path d="M2.84133 1.97291H1.89437V2.95936H2.84133V1.97291Z" fill="#9B2625"/>
<path d="M21.7827 0.986453H20.8358V1.97291H21.7827V0.986453Z" fill="#C7826F"/>
<path d="M20.8358 0.986453H19.8888L19.8888 1.97291L20.8358 1.97291V0.986453Z" fill="#9B2625"/>
<path d="M14.2062 0.986453H13.2592V1.97291L14.2062 1.97291L14.2062 0.986453Z" fill="#9B2625"/>
<path d="M13.2592 0.986453H12.3123V1.97291L13.2592 1.97291V0.986453Z" fill="#C7826F"/>
<path d="M11.3648 0.986453H10.4179V1.97291H11.3648V0.986453Z" fill="#CA8975"/>
<path d="M10.4179 0.986453H9.47093L9.47092 1.97291H10.4179V0.986453Z" fill="#9B2625"/>
<path d="M9.47093 0.986453H3.78828L3.78828 1.97291H9.47092L9.47093 0.986453Z" fill="#ED6B23"/>
<path d="M3.78828 0.986453H2.84133V1.97291H3.78828L3.78828 0.986453Z" fill="#9B2625"/>
<path d="M2.84133 0.986453H1.89438L1.89437 1.97291H2.84133V0.986453Z" fill="#C7826F"/>
<path d="M19.8888 0L18.9419 1.4485e-08V0.986453H19.8888V0Z" fill="#C47B68"/>
<path d="M18.9419 1.4485e-08H15.1536V0.986453H18.9419V1.4485e-08Z" fill="#9B2625"/>
<path d="M15.1531 1.4485e-08L14.2062 0V0.986453H15.1531V1.4485e-08Z" fill="#B65E4B"/>
<path d="M9.47093 0L8.52397 1.4485e-08V0.986453H9.47093V0Z" fill="#A2352D"/>
<path d="M8.52397 1.4485e-08H4.73569V0.986453H8.52397V1.4485e-08Z" fill="#9B2625"/>
<path d="M4.73523 1.4485e-08L3.78828 0V0.986453H4.73523V1.4485e-08Z" fill="#CA8975"/>
</svg>
