<svg width="17" height="18" viewBox="0 0 17 18" fill="none" xmlns="http://www.w3.org/2000/svg">
<path fill-rule="evenodd" clip-rule="evenodd" d="M8.5 17.2192C9.61624 17.2192 10.7215 16.9994 11.7528 16.5722C12.7841 16.1451 13.7211 15.5189 14.5104 14.7296C15.2997 13.9403 15.9258 13.0033 16.353 11.972C16.7801 10.9408 17 9.83547 17 8.71924C17 7.603 16.7801 6.4977 16.353 5.46643C15.9258 4.43516 15.2997 3.49813 14.5104 2.70883C13.7211 1.91953 12.7841 1.29343 11.7528 0.866262C10.7215 0.439097 9.61624 0.219238 8.5 0.219238C6.24566 0.219238 4.08365 1.11477 2.48959 2.70883C0.895533 4.30289 0 6.4649 0 8.71924C0 10.9736 0.895533 13.1356 2.48959 14.7296C4.08365 16.3237 6.24566 17.2192 8.5 17.2192ZM8.28089 12.157L13.0031 6.49035L11.5524 5.28146L7.49133 10.1538L5.38994 8.05152L4.0545 9.38696L6.88783 12.2203L7.61883 12.9513L8.28089 12.157Z" fill="url(#paint0_linear_130_18408)"/>
<defs>
<linearGradient id="paint0_linear_130_18408" x1="1.1087" y1="4.65402" x2="15.8913" y2="11.3062" gradientUnits="userSpaceOnUse">
<stop stop-color="#00FE66"/>
<stop offset="1" stop-color="#4C9800"/>
</linearGradient>
</defs>
</svg>
